<?xml version="1.0" encoding="UTF-8"?>
<svg id="Layer_1" data-name="Layer 1" xmlns="http://www.w3.org/2000/svg" version="1.1" viewBox="0 0 100 100">
  <defs>
    <style>
      .cls-1 {
        fill: #1d1845;
      }

      .cls-1, .cls-2, .cls-3, .cls-4, .cls-5, .cls-6, .cls-7, .cls-8, .cls-9, .cls-10, .cls-11, .cls-12, .cls-13, .cls-14, .cls-15, .cls-16, .cls-17, .cls-18, .cls-19, .cls-20, .cls-21, .cls-22, .cls-23, .cls-24, .cls-25, .cls-26, .cls-27, .cls-28, .cls-29, .cls-30, .cls-31, .cls-32, .cls-33, .cls-34, .cls-35, .cls-36, .cls-37, .cls-38, .cls-39, .cls-40, .cls-41, .cls-42, .cls-43, .cls-44, .cls-45, .cls-46, .cls-47, .cls-48, .cls-49, .cls-50, .cls-51, .cls-52, .cls-53, .cls-54, .cls-55, .cls-56, .cls-57, .cls-58, .cls-59, .cls-60, .cls-61, .cls-62, .cls-63, .cls-64, .cls-65, .cls-66, .cls-67, .cls-68, .cls-69, .cls-70, .cls-71, .cls-72, .cls-73, .cls-74, .cls-75, .cls-76, .cls-77, .cls-78, .cls-79, .cls-80, .cls-81, .cls-82, .cls-83, .cls-84, .cls-85, .cls-86, .cls-87, .cls-88, .cls-89, .cls-90, .cls-91, .cls-92, .cls-93, .cls-94, .cls-95, .cls-96, .cls-97, .cls-98, .cls-99, .cls-100, .cls-101, .cls-102, .cls-103, .cls-104, .cls-105, .cls-106, .cls-107, .cls-108, .cls-109, .cls-110, .cls-111, .cls-112, .cls-113, .cls-114, .cls-115, .cls-116, .cls-117, .cls-118, .cls-119, .cls-120, .cls-121, .cls-122, .cls-123, .cls-124, .cls-125, .cls-126, .cls-127, .cls-128, .cls-129, .cls-130, .cls-131, .cls-132, .cls-133, .cls-134, .cls-135, .cls-136, .cls-137, .cls-138, .cls-139, .cls-140, .cls-141, .cls-142, .cls-143, .cls-144, .cls-145, .cls-146 {
        stroke-width: 0px;
      }

      .cls-2 {
        fill: #514a87;
      }

      .cls-3 {
        fill: #191637;
      }

      .cls-4 {
        fill: #4a4487;
      }

      .cls-5 {
        fill: #544a8d;
      }

      .cls-6 {
        fill: #403774;
      }

      .cls-7 {
        fill: #3c3571;
      }

      .cls-8 {
        fill: #484379;
      }

      .cls-9 {
        fill: #221b4e;
      }

      .cls-10 {
        fill: #4e4686;
      }

      .cls-11 {
        fill: #484274;
      }

      .cls-12 {
        fill: #302b65;
      }

      .cls-13 {
        fill: #433b78;
      }

      .cls-14 {
        fill: #4a4486;
      }

      .cls-15 {
        fill: #1a1737;
      }

      .cls-16 {
        fill: #1d1948;
      }

      .cls-17 {
        fill: #352f6c;
      }

      .cls-18 {
        fill: #1a1639;
      }

      .cls-19 {
        fill: #413978;
      }

      .cls-20 {
        fill: #1b1740;
      }

      .cls-21 {
        fill: #39316f;
      }

      .cls-22 {
        fill: #1f1c48;
      }

      .cls-23 {
        fill: #4c4480;
      }

      .cls-24 {
        fill: #504789;
      }

      .cls-25 {
        fill: #58508a;
      }

      .cls-26 {
        fill: #46417e;
      }

      .cls-27 {
        fill: #413779;
      }

      .cls-28 {
        fill: #393371;
      }

      .cls-29 {
        fill: #4c4382;
      }

      .cls-30 {
        fill: #494277;
      }

      .cls-31 {
        fill: #504882;
      }

      .cls-32 {
        fill: #322b6b;
      }

      .cls-33 {
        fill: #312a61;
      }

      .cls-34 {
        fill: #4a4483;
      }

      .cls-35 {
        fill: #484381;
      }

      .cls-36 {
        fill: #51488a;
      }

      .cls-37 {
        fill: #443f7e;
      }

      .cls-38 {
        fill: #514c8b;
      }

      .cls-39 {
        fill: #151339;
      }

      .cls-40 {
        fill: #19143f;
      }

      .cls-41 {
        fill: #544f86;
      }

      .cls-42 {
        fill: #4a438a;
      }

      .cls-43 {
        fill: #4d4882;
      }

      .cls-44 {
        fill: #201948;
      }

      .cls-45 {
        fill: #191635;
      }

      .cls-46 {
        fill: #1b173c;
      }

      .cls-47 {
        fill: #574d8e;
      }

      .cls-48 {
        fill: #413a77;
      }

      .cls-49 {
        fill: #4b4481;
      }

      .cls-50 {
        fill: #49447a;
      }

      .cls-51 {
        fill: #41387a;
      }

      .cls-52 {
        fill: #4b4485;
      }

      .cls-53 {
        fill: #49417d;
      }

      .cls-54 {
        fill: #4d4785;
      }

      .cls-55 {
        fill: #3a3173;
      }

      .cls-56 {
        fill: #3e3476;
      }

      .cls-57 {
        fill: #282553;
      }

      .cls-58 {
        fill: #4d4789;
      }

      .cls-59 {
        fill: #251e52;
      }

      .cls-60 {
        fill: #443b7d;
      }

      .cls-61 {
        fill: #4c4386;
      }

      .cls-62 {
        fill: #42397c;
      }

      .cls-63 {
        fill: #4b4585;
      }

      .cls-64 {
        fill: #464178;
      }

      .cls-65 {
        fill: #423c77;
      }

      .cls-66 {
        fill: #433e79;
      }

      .cls-67 {
        fill: #332a68;
      }

      .cls-68 {
        fill: #534a8d;
      }

      .cls-69 {
        fill: #504a88;
      }

      .cls-70 {
        fill: #463f7b;
      }

      .cls-71 {
        fill: #4b4786;
      }

      .cls-72 {
        fill: #524a8c;
      }

      .cls-73 {
        fill: #463d7e;
      }

      .cls-74 {
        fill: #49427c;
      }

      .cls-75 {
        fill: #3d3777;
      }

      .cls-76 {
        fill: #534b86;
      }

      .cls-77 {
        fill: #52498b;
      }

      .cls-78 {
        fill: #524988;
      }

      .cls-79 {
        fill: #362f6e;
      }

      .cls-80 {
        fill: #59528f;
      }

      .cls-81 {
        fill: #42397a;
      }

      .cls-82 {
        fill: #362e69;
      }

      .cls-83 {
        fill: #4d4585;
      }

      .cls-84 {
        fill: #433d7b;
      }

      .cls-85 {
        fill: #4d4782;
      }

      .cls-86 {
        fill: #4a427d;
      }

      .cls-87 {
        fill: #554d8b;
      }

      .cls-88 {
        fill: #39316b;
      }

      .cls-89 {
        fill: #403a79;
      }

      .cls-90 {
        fill: #443e83;
      }

      .cls-91 {
        fill: #1e1b49;
      }

      .cls-92 {
        fill: #2c2661;
      }

      .cls-93 {
        fill: #473e7d;
      }

      .cls-94 {
        fill: #585193;
      }

      .cls-95 {
        fill: #564e8a;
      }

      .cls-96 {
        fill: #484281;
      }

      .cls-97 {
        fill: #50498a;
      }

      .cls-98 {
        fill: #4b4380;
      }

      .cls-99 {
        fill: #463d7c;
      }

      .cls-100 {
        fill: #1a1747;
      }

      .cls-101 {
        fill: #3b356c;
      }

      .cls-102 {
        fill: #393172;
      }

      .cls-103 {
        fill: #2b2454;
      }

      .cls-104 {
        fill: #201c47;
      }

      .cls-105 {
        fill: #544e87;
      }

      .cls-106 {
        fill: #161439;
      }

      .cls-107 {
        fill: #413b75;
      }

      .cls-108 {
        fill: #19173a;
      }

      .cls-109 {
        fill: #4c4589;
      }

      .cls-110 {
        fill: #45407d;
      }

      .cls-111 {
        fill: #3b346f;
      }

      .cls-112 {
        fill: #4c477f;
      }

      .cls-113 {
        fill: #4e477f;
      }

      .cls-114 {
        fill: #504983;
      }

      .cls-115 {
        fill: #1b163e;
      }

      .cls-116 {
        fill: #5c548f;
      }

      .cls-117 {
        fill: #3e3873;
      }

      .cls-118 {
        fill: #261e53;
      }

      .cls-119 {
        fill: #3c3471;
      }

      .cls-120 {
        fill: #181437;
      }

      .cls-121 {
        fill: #3d3570;
      }

      .cls-122 {
        fill: #322b64;
      }

      .cls-123 {
        fill: #474183;
      }

      .cls-124 {
        fill: #211b47;
      }

      .cls-125 {
        fill: #514d88;
      }

      .cls-126 {
        fill: #463d78;
      }

      .cls-127 {
        fill: #3e3671;
      }

      .cls-128 {
        fill: #302a6b;
      }

      .cls-129 {
        fill: #1b1542;
      }

      .cls-130 {
        fill: #201d50;
      }

      .cls-131 {
        fill: #524b90;
      }

      .cls-132 {
        fill: #50468b;
      }

      .cls-133 {
        fill: #362f63;
      }

      .cls-134 {
        fill: #453b7f;
      }

      .cls-135 {
        fill: #38306c;
      }

      .cls-136 {
        fill: #534a87;
      }

      .cls-137 {
        fill: #4b437e;
      }

      .cls-138 {
        fill: #4f487e;
      }

      .cls-139 {
        fill: #4e4582;
      }

      .cls-140 {
        fill: #302960;
      }

      .cls-141 {
        fill: #53498d;
      }

      .cls-142 {
        fill: #483f7e;
      }

      .cls-143 {
        fill: #524c8b;
      }

      .cls-144 {
        fill: #4a4282;
      }

      .cls-145 {
        fill: #3b3775;
      }

      .cls-146 {
        fill: #4e4785;
      }
    </style>
  </defs>
  <path class="cls-105" d="M20.9,1.5c20.2-.1,40.5-.6,60.7-.2,11.6.2,18.5,9.3,17.9,17.4-.2.3-.5.5-.9.5-1,0-1.9,0-2.5-1-1.4-2.1-1.3-4.7-2.7-6.8-2.4-3.6-6.3-4.9-10.2-6-19.7-.3-39.3,0-59-.1-2.1,0-4.3.4-6.3-.7-.5-.4-.7-.8-.5-1.4,2.6-1.5,5.4.2,8.1-.3,17.7.3,35.5-.6,53.2.5,0-.1,0-.2,0-.5-17.5,0-35.1,0-52.6,0-1.6,0-3.2,0-4.7,0-.6-.2-.7-.6-.4-1.2Z"/>
  <path class="cls-58" d="M84.9,98c-1.2,1.1-2.7.8-4.1.8-20.2,0-40.4,0-60.6,0-2.9,0-5.6-.3-8.2-1.6,2.1-2.6,5.2-2.1,8-2.1,17.6,0,35.3,0,52.9,0,2,0,4-.1,6,.4,1.4.7,2.7,1.5,4.4,1.6.7.2,1.3.4,1.7,1Z"/>
  <path class="cls-114" d="M2.7,90.3C.4,87.6,0,84.2,0,81,0,60.4,0,39.7,0,19c0-2.6.6-5.1,1.8-7.4.2.2.3.3.5.5.8,1.5,1.1,3,1.1,4.7,0,.5-.1,1-.2,1.5-.3,21.1-.1,42.3,0,63.4,0,.5.1,1,.2,1.4-.7,2.3,1,4.9-.6,7.2Z"/>
  <path class="cls-72" d="M97,18.7c.5-.1,1.1-1,1.6,0,.6.9.4,1.9.4,2.9.2,16.9-.5,33.9.5,50.8.2,3.1-1.4,6.2,0,9.3.2,2.5-.4,4.8-1.8,6.9-1.6-1.4-1.8-3.3-2.1-5.2-.3-19.8,0-39.7-.1-59.5,0-1.8-.1-3.8,1.5-5.2Z"/>
  <path class="cls-112" d="M2.7,90.3c.2-2.3-1.9-4.7,0-7,1.2,0,1.7.9,2.2,1.8,3,6.3,7.8,9.3,15,9.2,16.1-.2,32.1-.1,48.2,0,1.9,0,4.4-.9,5.4,2-17.4,0-34.9,0-52.3,0-3.2,0-6.2.3-9.3,1-4-1.1-7-3.5-9.3-7Z"/>
  <path class="cls-70" d="M99.6,81.7c-1.6-1.4-.9-3.2-.9-4.8,0-19.4,0-38.8,0-58.2.3,0,.6,0,.9,0,.1,12.7.3,25.4.3,38.2,0,8.3.6,16.6-.2,24.8Z"/>
  <path class="cls-146" d="M4.4,8.2c.9-1.4,1.9-2.6,3.4-3.3,2.5-1.3,4.9-3.2,8-1.5,0,2.6-2.6,2.4-3.9,3.6-.7.4-1.4.8-2.1,1.1-1.5.7-2.4,1.9-3.3,3.2-.6.6-1.3,1-2.2,1-.4,0-.8-.3-1.1-.6-.5-1.4.7-2.3,1.1-3.5Z"/>
  <path class="cls-8" d="M96.8,84.1c.3,1.5.6,2.9.9,4.4-.7,1.3-1.1,2.7-2.5,3.5-.9.4-1.5,0-2-.7-.4-1,0-1.9.4-2.8.3-.7.7-1.4,1-2.1.6-.9.6-2.4,2.2-2.3Z"/>
  <path class="cls-41" d="M93.3,91c.6.3,1.3.7,1.9,1-1.2,2.1-3.1,3.4-5.3,4.3-1-.7-1.4-1.6-1.2-2.8,1.1-1.6,2-3.6,4.5-2.5Z"/>
  <path class="cls-95" d="M15.7,4c-2.9-2.5-5.2.9-7.9.9,3.7-3.6,8.4-3.4,13-3.4,0,.3,0,.6,0,.8-1,.9-2.5-.1-3.5.9,0,.3,0,.6,0,.8-.6.5-1.1.5-1.7,0Z"/>
  <path class="cls-113" d="M89.1,93.7c.3.9.6,1.8.9,2.7-1.4,1.3-3.2,1.8-5.1,1.7-.6,0-1.2,0-1.8,0,0-1.9,1.5-1.6,2.6-1.9.7-.2,1.5,0,.6-1.1.6-1.3,1.4-1.8,2.8-1.3Z"/>
  <path class="cls-116" d="M4.4,8.2c-.3,1.2-.5,2.4-.8,3.6-.5.5-1,.6-1.6.2,0,0-.2-.3-.2-.3.6-1.3,1.1-2.8,2.6-3.5Z"/>
  <path class="cls-115" d="M96.8,84.1c-.6.9-1.1,1.8-1.7,2.7-1.7.7-2.8,3.7-5.4,1.8-.9-3.5-2.5-6.8-2-10.7.3-2.1-1.1-3.8-3.4-1.5-3.2,3-6.7,1-10.2.6-.7,0-1.1-.8-1.2-1.6,0-1,.5-1.6,1.4-1.8,1.3-.3,2.4-1.4,4-1.1-4.3.9-8.6-1.6-12.9.8-1.8,1-4.3.1-5.9-1.5-1.9-1.9-.9-3.9.1-5.8.7-.5,1.5-.5,2.3-.2.9.5,1.1,1.6,1.9,2.1,2.5.9,5,.7,7.5.6,2.1,0,4.2,0,6.2,0,2.9.1,3.9-1.4,3.6-4.1-.1-.6-.2-1.2-.2-1.8,0-.6,0-1.2.1-1.8,1.8-3.9,2.8-.7,4,.4.6,1.2.7,2.5,1,3.5,4.2-4.6,1.2-10.1,1.3-15.1.2-5.7.1-11.4.5-17.1.3-4.4-3.4-6.8-4.5-10.4-.2-.5-1.2-.8-1.4-.4-.6,2.1-2.7,4-1.7,6.3.8,1.9.8,3.3-.7,4.6-1.9,1.6-3.4,4.2-6.5,3.3-.6-.2-1.4-.3-1.4-.9,0-2.7-1.5-5.5.2-8-3.4.3-6.7,2.6-10.5,2.2-1.6-.2-3.3-.1-4.4-1.4-2.9-3.6-5-7.6-5.4-12.3-.2-2.6,1.4-4.2,4-3.9,4.6.5,9.9-2.1,13.7,2.6.3.4.8.4,1,0,1.7-3.2,4.8-1.9,7.3-2.1,1.6-.2,3,0,3.8-2,1.2-2.6,3-1.6,4.4-.1,1.3,1.3,2.1,3.1,4.4,3.4-.2-2.4-1.9-3.4-3.8-4.4-1.5-.8-3.4-1-3.9-3.1.3-.9.8-1.5,1.9-1.1,7.8,1.4,11,6.7,12.2,13.8,0,21.8-.1,43.6-.2,65.5Z"/>
  <path class="cls-9" d="M84.8,4.8c-.6.3-1.2.6-1.8.9-.3,0-.5.1-.8.2-18.3.5-36.7.1-55.1.2-4.6,0-9.2.2-13.7,1.1-.8,0-1.6,0-2.2-.7.9-1.8,3-1.6,4.4-2.6.6,0,1.1,0,1.7,0,20.7,0,41.3,0,62,0,1.8,0,3.8-.6,5.4.8Z"/>
  <path class="cls-95" d="M25.2,2.3h54.2c0,.3,0,.6,0,.9H25.2c-.3-.2-.4-.4-.3-.6,0-.2.2-.3.3-.3Z"/>
  <path class="cls-94" d="M25.2,2.3c0,.3,0,.6,0,.9-2.6,0-5.2,0-7.8,0,.9-1.3,2.3-.7,3.5-.9,1.4,0,2.9,0,4.3,0Z"/>
  <path class="cls-40" d="M89.9,88.5c1.8.2,2.9-.6,3.8-2.2.7-1.2,1.3-.7,1.4.5,0,.7,0,1.3-.7,1.8-2.1,1.7-5.1,2.7-6.8,4.2-1.6,1.4-3.4,2.5-5.2,3.5-1,.4-1.9.9-2.8,0-2,0-4,0-6,0-1.4-1.2-3-.7-4.5-.7-15.3,0-30.7-.5-46,0-9.9.4-16.8-2.8-20.2-12.3,0,0,0,0,0,0-.6-.7-.5-1.6-.5-2.5,0-20.5,0-40.9,0-61.4,0-.8-.1-1.7.4-2.5,0-.3,0-.5,0-.8.4-1.5,0-3.4,1.9-4.3.5-.3,1-.7,1.5-1,.5-.3.9-.2,1.2.3.2,5.4-2,10.5-2.1,16-.9,5.3-.3,10.6-.4,15.9,0,10.2,0,20.4,0,30.6-.2,3.1.7,6,1.4,8.9,0,3.3,1.8,5.5,4.4,7.1,8.9,4.7,18.5,3.7,27.9,3.5,10.5,0,21-.2,31.5,0,5.2,0,10-.4,14.3-3.5,1.8-.5,3.4-2,5.5-1.3Z"/>
  <path class="cls-83" d="M79.6,96.2c.9-.3,1.7-.5,2.6-.8,1.4-.7,2.9-.7,4.3,0,.6.2,1.7,0,.5,1.1-1.1.9-2.9.2-3.9,1.5-1.4-.1-3.2.6-3.5-1.7Z"/>
  <path class="cls-83" d="M50.5,97.3h15.3v.4h-15.3v-.4Z"/>
  <path class="cls-83" d="M38.7,97.5c1.7-.5,3.2-.6,4.8,0-1.7.5-3.1.6-4.8,0Z"/>
  <path class="cls-49" d="M2.7,16.9c0,22.1,0,44.2,0,66.4-1.3-.9-.9-2.3-.9-3.6,0-19.7,0-39.5,0-59.2,0-1.2-.4-2.6.8-3.6Z"/>
  <path class="cls-49" d="M4.7,11.9c-.6,1.4-1.2,2.9-1.9,4.3-.8-1.3-1.1-2.7-.8-4.2.5,0,1.1-.1,1.6-.2.3,0,.7,0,1,0Z"/>
  <path class="cls-46" d="M89.9,88.5c-1.4.6-2.9,1.1-4.3,1.7-2.1-3.4-2.2-3.5-4.2-.3-1.2,1.9-2.8,2.3-4.7,2.3-13.2,0-26.4.4-39.6-.2-2.4-.1-4.9.6-6.5.1.9.2,2.6,0,4.4,0,1.6-.1,3.3.2,3.1,2.5-5,0-10,0-15,0-3.2,0-6.5,0-8.7-2.6-1.4-1.6-3.9.9-4.8-1.7.5-1.3,2-1.6,3-3.2-3.7.9-3.5-4.8-7.3-3.7-.6-2.9-2.2-5.5-1.7-8.6.8-1.6.4-3.4.4-5.1,0-13,0-26,0-39,0-1.4-.4-2.9.4-4.2-.4-5.4,1.3-10.4,2.6-15.5.3-1.6,1.5-2.5,2.5-3.6.4-.7,1-.8,1.7-.8.6,0,1.2,0,1.8,0,1,.4,1.9,1,1.9,2.2-.2.7-1.1.9-1,2.1,3.8-1.4,7.8-.7,11.6-2.3,2.5-1,5.4-.8,8.1-.2,4.7,1,9.1.2,13.3-1.8,12-.9,24,.2,36-.8,0,0,0,0,0,0,1.4,1.8,3.8,2.5,5.6,2.9,3,.7,2.2,3.9,4.4,5,.9.5-.9,1.8-2.1,1.4-2.3-.7-4.4-1.9-5.5-4.3-.4-1-1.2-1.8-2.4-1.4-1.3.4-.4,1.4-.4,2.1,0,1.5-1,1.9-2.3,1.8-1.1,0-2.3-.2-3.4-.3-3.3-.2-6.6-.5-6.5,5-3.5-9-10.7-4.5-16.1-5.2-1.8-.2-2.5,4.4-.8,6.5.7.9,1.5,1.6,1.8,2.8,1.4,6.1,5.6,8.1,11.1,5.2,2.3-1.2,4.5-.5,7-.9-2.1,2.7.2,5.6-1,8.1,0,0,.6.4.9.5,2,.6,7-3.2,6.9-5.1,0-2.4-2.7-1.2-3.7-2.9,1.9-.8,4.3-1.4,3.8-4.3-.2-1.1-.5-2.8,1.4-3.1,1.7-.2,2.6,1.2,3.3,2.3,3.9,6.1,3.8,12.6,3.4,19.8-.3,5.3-1.1,11.1.9,16.7,1,2.9-2.1,5.9-3,9-.2.6-1.5.3-1.5-1,0-1.8-.2-3.6-.3-5.5,3.8-2.7.8-3.8-1.2-5.2-.4-1.1,0-1.9.7-2.7.5-.4,1.7-.3,1.8-.9.2-1.1-1.2-.8-1.7-1.5-1-1.2-1-2.5-.8-3.9.7-3.6-.2-6.3-4.3-7.2-2.5-2.2-5.4-3-8.6-2.6-1,.1-2.1.3-2.9-.2-3.5-1.9-4.8.3-6,2.9-.8,1-1.6,2.1-2,3.3-.2.3-.3.7-.6,1-.9.9-1.9,1.7-2.7,2.8-.6.8-.4,1.7-.6,2.6-.1.4-.4.7-.7.9-2.1-.2-4.2-1-6.3-.8-.3-.2-.6-.4-.8-.8-.5-1.2-1.3-2.2-2.5-2.8-1.8-1.1-1.7-2.4-.4-3.8,2.9-2.3-.4-2.5-1.2-3.5-1.5-3.2-2-6.7-2.8-10-.3-.1-.6-.3-1-.4-2-.6-3.7.3-5.6.7-.7.2-1.5.3-2.3.3-1,0-2.1-.1-3.1.5-.2.4-.4.9-.5,1.4,0,.5-.2,1-.3,1.6.2,2.2-1.7,3-2.8,4.3,0,.3-.1.7-.2,1,0,1.1.4,2.2.5,3.2,0,1-.2,2-.6,2.9-.2.6-.5,1.1-.9,1.5-.7.5-1.4.6-2.2.8-2.8,2.2-1.8,6-3.7,8.5-1.5,1.1-3.4,0-5.1,1.1,1.8,1.8.8,4.4,1.4,6.7.5,1.9,0,3.9.8,5.7,2.1,2,4.3,2.4,6.7.6.3-.2.5-.5.8-.8,1.1-1.8.4-4.2,1.7-6,.3-.3.6-.6.9-.8,4.4-2.1,8.9-3.1,13.6-.7-.4,2.6-4,1.4-4.7,3.9,2.1,1.2,4-1.4,6-.2.6.3,1,.7,1.2,1.3-1.2,2.9,1.8,2.4,2.8,3.4,2.2,1.3,4.1,3.8,7.2,1.7.7-.4,1.9.4,2.4,1.7.5-2.7-.5-5.3,1.1-7.3.8-1,2.4-.5,3.6-.7.6.2,1.1.5.9,1.3-.2,3.3-.5,6.7,4.5,6.2.2,0,.7.4.7.4,3.6-4.3,8.4-.4,12.4-1.6,1.1-.3,2.2-.2,2.7.7.3.6.3,1.9-.1,2.4-1,1.2-1.7,0-2.3-.7-.9,1.4-3.5.5-3.6,1.8-.2,1.8,1.9,1.1,3,1.2,2.9.2,6,1.5,8-2.4.9-1.7,3.5.4,3.6,1.4.8,4.3.9,8.7,1.3,13.1Z"/>
  <path class="cls-9" d="M9.6,7.3c-.6,1.4-1,2.9-2.5,3.6-.3,0-.6,0-1,0,.4-2,1.6-3,3.5-3.5Z"/>
  <path class="cls-100" d="M86.5,95.4c-1.4,0-2.9,0-4.3,0,1.1-1.6,3.5-.3,4.5-2.3-.6-.2-1.2-.4-2.6-.9,4.3-.3,7-2.7,10.4-3.7-.4.8-.7,1.7-1.1,2.5-1.9,0-2.7,2-4.2,2.7-.9.6-1.8,1.1-2.6,1.7Z"/>
  <path class="cls-121" d="M59.7,66.1c-.3-.3-.6-.6-.8-.9-5-3.3-5.2-3.7-3.8-8.8.2-.4.5-.7.9-.9.6-.3,1.2-.5,1.8-.5.6,0,1.2.2,1.7.5.3.3.5.6.6,1,0,1.1.1,2.2.2,3.4.1.7-.9,2,.6,1.8,4.4-.4,3.2,2.1,2.5,4.5-.4.3-.7.2-1.1,0-.9,0-1.7,0-2.6,0Z"/>
  <path class="cls-45" d="M83.9,55.7c2.2-.3,4.1.4,4.1,2.9,0,1.8-.9,3.3-3.3,2.3-.9,1.6-1.7-4.1-2.6,0-.5.5-1,.6-1.7.4-3.6-3.6,1.3-3.8,2.3-5.7.4-.2.8-.1,1.1,0Z"/>
  <path class="cls-119" d="M78.7,69.5c-2.6,0-5.2,0-7.8,0-.9-2.6-.5-4.5,2.5-5.3,2-.2,3.9-.5,5.6.9.9,1.5.8,3-.4,4.3Z"/>
  <path class="cls-144" d="M72.7,65.2c-2.3.7-.3,3.2-1.7,4.3-2.6,0-5.3.2-7.8-.8-.6-3.3,1.7-2.1,3.2-2.1.3-.1.5,0,.8.1,0-.3-.3-.4-.6-.4-.3-.2-.5-.5-.6-.9-.2-1.3-.2-2.4,1.1-3.1,1.9.9,5.2-1,5.6,2.8Z"/>
  <path class="cls-33" d="M78.7,69.5c0-1.4,0-2.8,0-4.3.3-.2.6-.4.9-.5.8-.1,1.7-.5,2.5-.4.5,2.8.3,5.2-3.5,5.1Z"/>
  <path class="cls-67" d="M66.6,67c-.6,1.7-3.5-1.2-3.5,1.7-1-.6-.8-1.6-.8-2.6.3,0,.6,0,.9,0,.5-.4,1.1-.7,1.7-.7.7,0,1.2.3,1.7.8h0c.3.2.4.4.3.6,0,.2-.2.3-.3.3Z"/>
  <path class="cls-86" d="M82.2,64.4c-.7.8-1.4,1.7-2.6.9-.6-.8-.2-1.6-.2-2.5.2-.3.5-.6.8-.7.8-.2,1.5,0,2,.6,0,.6,0,1.1,0,1.7Z"/>
  <path class="cls-103" d="M82.1,62.7c-.9,0-1.7,0-2.6,0-.4-.9-.6-1.8.9-1.7.6,0,1.1,0,1.7,0,0,.6,0,1.2,0,1.8Z"/>
  <path class="cls-115" d="M14.8,8.3c-1.1,0-1.7-.6-1.7-1.7,2.8-1.9,6-1.6,9-1.7,19.2-.1,38.5,0,57.7,0,1.1,0,2.3-.2,3.2.8-8.6,3.4-17.6,1.1-26.4,1.7-3.5.2-7.1,0-10.7,0-1.6,1.3-3.6.9-5.4,1-6.9.3-13.9-.7-20.8,1-1.6.4-3.4-.2-4.9-1.1Z"/>
  <path class="cls-18" d="M38.1,94.5c-2.8-3.4-6.7,0-9.8-1.7-1-.5-2.5.5-3.6-1.1,1.5-1,3-.6,4.5-.6,15.8,0,31.5,0,47.3,0,2.1,0,4,.2,4.1-2.9,0-2.2,2-3.3,4-2.6,2.1.8,2.3,2.7,1.1,4.6-4.3,3.8-9.2,4.6-14.9,4.4-10.9-.4-21.7-.1-32.6-.1Z"/>
  <path class="cls-108" d="M5.3,83.3c2.1-1.3,4.4-3.4,4.4,1.5,0,.6.5,1.7,1.2,1.2,1.7-1.3,2.9-.3,3.3,1,.7,2.1-2,1.3-2.7,2.5-.3.5-1.2.5-1.9.7-2.4-1.7-4.8-3.4-4.3-6.9Z"/>
  <path class="cls-106" d="M4.5,26.4c0,14.6,0,29.2,0,43.8,0,1.5.6,3.2-.8,4.5,0-14.6,0-29.2,0-43.8,0-1.5-.6-3.2.8-4.5Z"/>
  <path class="cls-20" d="M56.3,55.8c-1,3-2.5,6,2.1,7.4.3.1.3,1.3.5,2-6,.5-1.8,6.3-4.7,8.6-1.1-1.5-2-3-4.6-.9-1.2,1-4.3-.9-5.4-3.4.1-.2.3-.3.4-.5,1.7-.9,3.6-.5,5.3-.8.4,0,1.1,0,1.1,0,.1-.8-.9-.6-1.1-1.1-.2-.3-.4-.7-.5-1.1-.2-.8-.3-1.7-.3-2.5,0-.9,0-1.7,0-2.6,0-1.3,0-2.5.2-3.8.2-.5.4-1,.9-1.3-1,.3-3,.7-2.6-.6.6-2.1-2.4-4.7.9-6.4,2.5-1,4.7,0,6.9.9,1.8,1.8,1.2,4,.8,6.1Z"/>
  <path class="cls-15" d="M14.8,8.3c10.3-.7,20.7-1.1,31.1-.9-2.7,2.9-6.6,3.2-9.6,2.3-6.7-2-12.7,1-18.9,1.5-2.6.2-4.5.6-6.2-1.6.9-1.3,2.9,0,3.7-1.4Z"/>
  <path class="cls-115" d="M60.6,39.4c1.8-.5-.3-2.8,1.3-3.2,1.6-.4,2.8-3.4,5.2-.5.7.9,3.5.4,5.4.2,3.1-.3,5.6.6,7.1,3.5-.2.2-.3.3-.5.5-1.3.6-2.6.5-3.8-.2-3.5-2.5-6.3-2.5-9.5.1-.8.5-1.7.6-2.6.6-1,0-1.9-.2-2.6-1Z"/>
  <path class="cls-16" d="M40.7,28.2c.6.1,1.7-1.8,1.6-.3-.2,3.8,2.2,7,1.9,10.7,2.4.7.9,3,1.7,4.3-2.2.9-.6,1.7,0,2.6.5.5.5,1,.3,1.6-.3.3-.6.5-1.1.6-1.2,0-2-.7-2.5-1.7-.3-.8-.4-1.7-.5-2.6.7-3.7-1.4-6.6-2.6-9.8,0-.5,0-.9,0-1.4,0-1.4,0-2.9,1.1-4Z"/>
  <path class="cls-13" d="M25.9,62.6h-.4s-.4,0-.4,0c-2.2,1.9-.4,4.8-1.8,6.9h0c-1.4.9-2.5.4-3.7-.5-.8-1.2-.5-2.5-.2-3.8,0-.6.2-1.2.2-1.8,0-.8.1-1.6.3-2.4.2-.8.6-1.5,1-2.1.9-.7.9-2,1.8-2.7.6-.2,1.1-.1,1.6.2,1.1,1.2.2,2.9,1.2,4.2.3.6.9,1.2.3,2Z"/>
  <path class="cls-3" d="M40.7,65.2c-1.1,0-2.4-.3-3.3.7-1.9,1.9-4.2.6-4.8-.5-1.3-2.2,1.9-2.1,2.9-3.3.7-.9,2.6.1,3.5-1.2,2-2.1,1.6.7,2.4,1.1.3,1.2.3,2.3-.7,3.2Z"/>
  <path class="cls-93" d="M58.8,43.7c0-.3.1-.5.2-.8,1.8-2,3.2-1.3,4.4.7-.4,1.8,1.2,3.8-.2,5.6-1.5.7-3,0-4.5-.2-1-.4-2,0-3-.1-.7-.8-.8-1.6-.1-2.4,1.3-.7,2.7-1.2,3.3-2.7Z"/>
  <path class="cls-91" d="M40.7,61.8c-.8.1-.5-1.8-1.7-.9-4.4-.1-9-1.1-13.1,1.7-.2-.6-.5-1.1-.7-1.7,0-1,.2-1.8,1.2-2.4,1.8-.8,3.7-.5,5.6-.6.5,0,1,0,1.5,0,2.5.2,5-.6,7.3,1,.7,1,.7,1.9-.1,2.8Z"/>
  <path class="cls-6" d="M24.4,36.8c.3-2.1,3.8-1.7,3.4-4.4.2,0,.3,0,.5,0,.9.2,1.7-.1,2.5-.3.4,0,.7.2,1,.4,1.3,1.5.7,3.8,2.3,5.2.3,1.3,0,2.5-.8,3.5-.8.5-1.6.6-2.5.4-.6-.2-1.1-.6-1.5-1.2-.3-.5-.4-1.1-.3-1.7,0-.8.2-1.7-1-1.8-.3,0-.7,0-1,0-.9,0-1.7.4-2.5-.2Z"/>
  <path class="cls-39" d="M14,62.6c-1.5-2,.7-5.1-2.1-6.8-.5-.3.2-.9,1.3-1.1,1.8-.4,3.5.2,5.2.1.6,1,.2,2.1.2,3.1-.2,1-.4,2.1-1.7,2.4-2.1-.2-1.4-1.8-1.4-3.3-.4,1.9.6,3.8-.9,5.2-.2.1-.3.2-.5.3Z"/>
  <path class="cls-130" d="M17.5,57.5c.3-.9.6-1.7.8-2.6.9-3.3.2-7.1,3.5-9.5.5.4.6,1,.5,1.6-.2,1.1-.4,2.3-.4,3.4,0,.6,0,1.2,0,1.8,0,.4,0,.8,0,1.2,0,.8,0,1.6-.4,2.4-.3.8-.9,1.3-1.7,1.6-.8.3-1.6.5-2.4,0Z"/>
  <path class="cls-107" d="M40.7,28.2c0,1.4,0,2.9,0,4.3-.7.6-1.4.7-2.3.4-.7-.3-1.2-.9-1.7-1.5-.5-.6-1-.5-1.6,0-.3.3-.6.4-1,.3-1.4-.8-3-1.5-2-3.7.9,0,1.7,0,2.6,0,2-.5,4-.9,6,0h0Z"/>
  <path class="cls-115" d="M79.6,39.3c5,.2,5.2.5,5.2,7.8-.9.4-1.5,0-2.1-.7-.6-1-.6-2.3-1.6-3-1.2-1-2.9-1.9-1.5-3.9h0Z"/>
  <path class="cls-82" d="M63.3,43.7c-1.3-1-2.6-1.7-4.3-.8-.3-1.6,1.1-2.3,1.6-3.4.9,0,1.7,0,2.6,0,.7,1.9,3,.4,3.9,1.9.4.8.3,1.7-.1,2.4-.3.3-.7.5-1.2.7-1,.2-1.8,0-2.5-.7Z"/>
  <path class="cls-135" d="M32.1,28.2c.2,1.7,1.7,2.3,2.6,3.5.2.4,0,.7-.2,1-1.1.5-2.2.3-3.3-.2-.3,0-.6,0-.9,0-.8.7-1.6.6-2.5,0,0,0-.1-.2-.1-.2,0-.5,0-1.1,0-1.6.7-.6.7-1.2,0-1.7,1.2-1.5,2.9-.6,4.3-.8Z"/>
  <path class="cls-16" d="M48.5,48.8c-.8,2.9,0,5.3,2,6.7,0,0-.2.8-.4,1.2-.3.2-.6.4-1,.6-.6.1-1.2.1-1.7,0-.4-.1-.7-.3-1-.6-.2-.3-.4-.7-.5-1.1-.2-.8-.2-1.5-.2-2.3,0-.6,0-1.1,0-1.7,0-.4,0-.8-.1-1.1,0-1.1-.7-2.2.2-3.3h0c1.2-.7,1.8.2,2.6.8,0,.3,0,.6,0,.9Z"/>
  <path class="cls-111" d="M24.3,43.7c.3-.9.6-1.7.9-2.6.8-1.1,1.8-1.6,3.2-1.2,1.5,1.2.4,3.8,2.3,4.9.2.6.1,1.2-.2,1.7-.7.6-1.5.6-2.4.4-1.7-.6-2.6-2-3.8-3.2Z"/>
  <path class="cls-27" d="M28.7,40.2c-1.1.3-2.3.6-3.4.9-.7-1.1-1-2.2-.8-3.5.8-.6,1.8-.8,2.4-1.6h1c.5.9,2.4.9,1.7,2.5v1.7c-.3.3-.6.3-.8,0Z"/>
  <path class="cls-29" d="M55.6,48.8c.6-.7,1.2-1.7,2.3-.8,1.2,1.1,1,2.6.9,4,0,.4-.2.8-.3,1.1-.5,1.1-1.4,1.8-2.2,2.5,0,0,0,.2,0,.2-1.4-1.9-.2-4.1-.8-6.1,0-.3.1-.6.2-.9Z"/>
  <path class="cls-124" d="M20,68.7c1.1.7,2.2,1,3.4.9-2.9,3.3-5.8,2.1-8.6,0,.1-.1.2-.3.3-.5.6-.5,1.2-.8,2-.8,1,0,1.9.2,2.9.4Z"/>
  <path class="cls-1" d="M44.2,69.6c-1.7,1.8-3.1-.4-3.9-.9-1.3-.9.9-1.6,1.3-2.5.1-.1.3-.3.4-.4.6-.3,1.2-.3,1.8,0,.4.2.7.5.9.9.4,1.1.3,2.1-.5,2.9h0Z"/>
  <path class="cls-44" d="M83.1,46.2c.6.3,1.1.6,1.7.9-.8,1.2,0,2.3,0,3.4.7.9.7,1.7,0,2.6-.3.9-.6,1.7-.9,2.6-.3,0-.6,0-.9,0-.2-.2-.3-.3-.5-.5-.2-3-1-6.1.5-9Z"/>
  <path class="cls-128" d="M21.7,47c0-.5,0-1.1,0-1.6.9,0,1.7,0,2.6,0,.3.3.6.6.7,1,.2.6.3,1.2.3,1.8,0,.8-.2,1.7-.7,2.4-.3.3-.7.4-1.1.5-.7,0-1.1-.4-1.4-1-.4-1-.3-2-.4-3Z"/>
  <path class="cls-20" d="M45.9,42.8c-1.4-1.1-.2-3.2-1.7-4.3,1.3,0,2.6.2,3.7,1.2-.6,1-1.3,2.1-1.9,3.1Z"/>
  <path class="cls-124" d="M23.4,69.5c.8-2.3-1.7-5.3,1.8-6.9-.8,2.2,0,4.9-1.8,6.9Z"/>
  <path class="cls-16" d="M40.7,28.2c-2,0-4,0-6,0,2-.8,4-2.5,6,0Z"/>
  <path class="cls-102" d="M24.3,46.3c0-.3,0-.6,0-.9,0-.6,0-1.1,0-1.7,1.8,0,2.7,1.2,3.5,2.6-.2.1-.3.3-.5.4-1.1.5-2.1.4-3-.4Z"/>
  <path class="cls-115" d="M84.8,53.2c0-.9,0-1.7,0-2.6,1.7-.3,2.5.6,2.3,2.1-.2,1.8-1.6,0-2.3.5Z"/>
  <path class="cls-118" d="M58.8,43.7c.4,2.8-1.6,2.6-3.3,2.7.9-1.1,1.7-2.4,3.3-2.7Z"/>
  <path class="cls-57" d="M40.7,61.8c0-.9,0-1.7,0-2.6.5-.2.9,0,1.2.3.3.4.5.8.6,1.2.2,1.8.5,3.7-.9,5.3,0,0,0,.1,0,.1-.3-.3-.6-.6-.9-.9,0-1.1,0-2.3,0-3.4Z"/>
  <path class="cls-124" d="M14.8,69.5c-1.7-2.1-.5-4.6-.8-6.9,0,0,0,0,0,0,.5-.3.9-.2,1.2.2.8,1.3.8,2.7.7,4.1,0,1-.4,1.8-1,2.6h-.1Z"/>
  <path class="cls-115" d="M71.3,74.5c.2.2.8.4.9.9.2.7-.4.9-1,.9-.7,0-1-.5-1-1.1,0-.4.2-.8,1.1-.6Z"/>
  <path class="cls-20" d="M48.5,48c-.9-.3-1.7-.6-2.6-.9,0-.6,0-1.1,0-1.7,1.6,0,2.5.9,2.6,2.6Z"/>
  <path class="cls-20" d="M53.1,40.7c.5,0,1.3-.3,1.2.6,0,.4-.6.8-1.1,1-.2,0-.7-.4-.9-.7-.3-.7.1-.9.8-.9Z"/>
  <path class="cls-23" d="M27.8,29c.8.2,2.2-.4,2.1,1.1,0,.9-1.3.6-2.1.7,0-.6,0-1.2,0-1.7Z"/>
  <path class="cls-25" d="M26.8,36c0,1.8-1.2,1.7-2.4,1.6,0-.3,0-.6,0-.8.8-.3,1.7-.5,2.5-.8Z"/>
  <path class="cls-99" d="M64.9,66.1c-.6,0-1.1,0-1.7,0-.2-1.2.3-2.6-.4-3.7-1.6-1-1.1,2.8-2.8,1.2-1.2-1.2-1.3-2.8-.3-4.4,1.4-1.3,2.9-1.2,4.5-.4,2.4,2.2,1.9,4.7.7,7.3Z"/>
  <path class="cls-127" d="M64.9,66.1c-.1-2.3.5-4.7-.9-6.9-.8-1.9-3.7-.4-4.3-2.6,0-.3,0-.5,0-.8.1-.1.3-.3.4-.4.5-.3,1.1-.4,1.7-.5.6,0,1.2,0,1.8,0,.6,0,1.2.1,1.8.4.4.2.7.5.9.8.2,2.4,2.4,4.1,2.3,6.7-.3.3-.7.3-1.1,0-1.3.9-.8,2.2-.9,3.4-.6,0-1.2,0-1.7,0Z"/>
  <path class="cls-5" d="M59.7,56.6c.9.4,1.7.8,2.8.5,2-.6,2.2.6,1.5,2.1-1.4,0-2.9,0-4.3,0-.6-.9-.5-1.7,0-2.6Z"/>
  <path class="cls-31" d="M57.1,57.3c.7,0,.9.3.8.7,0,.3-.3.8-.6.9-.4.2-.8-.2-.7-.7,0-.3.4-.6.5-.9Z"/>
  <path class="cls-62" d="M59.7,55.8c-.6,0-1.1,0-1.7,0-.7-.8-.6-1.7,0-2.6h0c.4-.5.9-.5,1.5-.4.7.9.6,1.9.2,2.9,0,0,0,0,0,0Z"/>
  <path class="cls-136" d="M58,53.2c0,.9,0,1.7,0,2.6-.6,0-1.1,0-1.7,0,0-1.2.6-2,1.7-2.5Z"/>
  <path class="cls-115" d="M68.4,62.6c-1.7-2-3.5-3.9-2.6-6.8.3-.4.6-.6,1.1-.8,1.5-.4,3.1-.3,4.7-.4.7,0,1.3,0,2,0,.9,0,1.7,0,2.6,0,.9,0,1.7,0,2.6,0,1.1,0,2.2,0,3.2.3.4.2.8.4,1.1.7,0,0,0,0,0,0-.8,1-.7,2.6-2.4,3.1-1.8.5-.2,1.4-.2,2.1-.7.4-.8,1-.9,1.7,0,0,0,.1,0,.1-3.8,2.5-7.5.3-11.2-.1Z"/>
  <path class="cls-134" d="M68.4,62.6c3.7,0,7.5,0,11.2.1.5.9.4,1.7,0,2.5-.3,0-.6,0-.8,0-2,0-4,0-6.1,0-.6-3.1-4.3,0-5.2-2.6.3,0,.6,0,.9,0Z"/>
  <path class="cls-56" d="M66.6,67c0-.3,0-.6,0-.9,1.1.3,2.1-1.3,3.1-.1.2.2.2.9,0,1.1-1.1,1.1-2.1-.4-3.1-.1Z"/>
  <path class="cls-28" d="M41.6,60.1c0-.3,0-.6,0-.8.1-.1.2-.3.3-.4.5-.3,1-.4,1.5-.5.3,0,.7,0,1-.1.7-.1,1.2-.5,1.6-1,.2-.3.5-.5.8-.6.3,0,.6,0,.9,0,.5.6,1.1.7,1.7,0,.3,0,.6,0,.8,0,0,1.4,0,2.8,0,4.2-1,.4-1,1.4-1.3,2.2-.2.3-.4.6-.7.8-.9.2-1.7-.1-2.1-.9,0,0,0,0,0,0,0,0,0,.2,0,.3-.3,1-.8,1.8-1.4,2.6-.2.1-.3.2-.5.3-.3,0-.6,0-.9-.1-1.7-1.7,0-4.3-1.7-6Z"/>
  <path class="cls-28" d="M44.2,69.5c0-1.1,0-2.2,0-3.4,0,0,.1-.1.1-.1,1-.8,1.8-1.9,3.3-1.9,1,.5,1.9,1.2,2.7,2,0,.3,0,.6,0,.8,0,.3-.2.5-.4.7,0,.3,0,.5.2.7,0,0,.2.4.2.4-1.8,1.6-4,.5-6,.8Z"/>
  <path class="cls-11" d="M49.4,67c.3,0,.6,0,.9,0,1.2.3,3.5-.8,3.1,1.5-.3,2-2,.5-3.1.3,0,0,0-.1,0-.1-.5-.4-1.4-.7-.8-1.7Z"/>
  <path class="cls-66" d="M48.5,63.5c.3-1-1.3-2.1-.2-3,.3-.2,1.2.3,1.9.4,0,.9,0,1.7,0,2.6-.6.5-1.2.5-1.7,0Z"/>
  <path class="cls-69" d="M48.5,63.5c.6,0,1.2,0,1.7,0,0,.9,0,1.7,0,2.6-1.3,0-2.5,0-2.6-1.7,0-.5.6-.5.9-.9h0Z"/>
  <path class="cls-88" d="M66.6,43.7c0-.9,0-1.7,0-2.6.3-.3.6-.4,1-.5.4,0,.8.1,1.2,0,.6-.1.4-.7.2-.1-.2.5-.8-.4-.4-.1-1-.2-2.2,0-2.9-1,.3-4.2,3.5-2.2,5.4-2.5,1.7-.2,4.3-1,4.1,2.4,0,.2,0,.3-.1.5-.5.9.2,1.7.4,2.5,0,.4-.2.8-.6,1-.9.6-2,1-3,1.2-1.9.2-3.8.7-5.4-.9Z"/>
  <path class="cls-126" d="M75.3,42.8c0-.3,0-.6,0-.9-.7-.8-.7-1.7,0-2.5,0,0,0-.2,0-.2,1.4,0,2.8.1,4.2.2-.5,2.2,1.7,2.3,2.7,3.4.8,1.2.3,2.5.4,3.7-.8,2.2-2.8-.2-3.9.9-1.3.4-2.2-.4-3.2-.9-.9-.4-1.9-.7-2.1-1.8.2-1.1,1.4-1.3,1.9-2Z"/>
  <path class="cls-53" d="M67.5,41.1c-.3,0-.6,0-.9,0-1.2-.4-4.3,2.9-3.4-1.7.8,0,1.7,0,2.5,0,1.5,0,2.9,0,4.4,0,.2,2.1-1.8,1.1-2.6,1.7Z"/>
  <path class="cls-107" d="M40.7,33.3c2.3,3.1,3.3,6.5,2.6,10.4-1.1.6-2,0-2.9-.6-1.1-.9-1.5-2.1-1.7-3.3-.4-1.8-1.9-3.5-.8-5.5.8-.9,1.7-1.3,2.9-1Z"/>
  <path class="cls-89" d="M40.7,42.8c.9.3,1.8.6,2.6.9,0,.8,0,1.7,0,2.5.3,1.8-.8,2.2-2.3,2.3-1.1-.4-2.1-1.2-3.1-1.9-.4-.5-.5-1-.4-1.6.5-1.1,1.6-1.4,2.5-1.9.2,0,.3-.1.5-.2Z"/>
  <path class="cls-75" d="M40.7,47.9c1.3,0,2.2-.6,2.7-1.8.8.3,1.7.7,2.5,1,.3,1.1.6,2.3.9,3.4-1.2.7-2.4.1-3.6.2-.4,0-.8,0-1.3,0-1.3-.3-2.7-.6-2.3-2.4.3-.4.6-.5,1.1-.3Z"/>
  <path class="cls-80" d="M40.7,33.3c-.9.3-1.7.6-2.6.8-.1-.1-.2-.2-.3-.4-.1-.3-.1-.7,0-1,.1-.1.2-.2.3-.4.8,0,1.7,0,2.5,0,0,.3,0,.5,0,.8Z"/>
  <path class="cls-19" d="M14.9,67c0-1.4,0-2.9,0-4.3.2-.8.8-1.2,1.6-1.1.8.4,1.4,1.1,2,1.8.4,1.1,1.6,1.1,2.3,1.8-.6,1.1-1,2.2-.9,3.5-1.1,1.6-2.3.5-3.4,0-.9-.3-1.1-1.3-1.7-1.8Z"/>
  <path class="cls-117" d="M18.3,63.5c-1,0-1.7-.5-1.7-1.6-.6-.6-.5-1.2,0-1.8,1-.7.8-1.7.8-2.6.6-.3,1.1-.6,1.7-.9.5.6,1.4.2,1.9.8.1.3.2.7.1,1-.4.8-1,1.5-.3,2.4,0,.9,0,1.7,0,2.6-.9,1.2-1.7-.7-2.6,0Z"/>
  <path class="cls-96" d="M26.1,59.2c0,.7-.1,1.3-.8,1.7-2.7-.9,0-3-.9-4.3-.3-.3-.5-.6-.5-1,0-.4.3-.7.7-.9,1.4,0,2.2.9,2.8,2.1.3,1.2-.5,1.9-1.3,2.5Z"/>
  <path class="cls-68" d="M18.3,63.5c.9-4.9,1.7,3.1,2.6,0,0,.6,0,1.1,0,1.7-1-.3-3.9,2.2-2.6-1.7Z"/>
  <path class="cls-17" d="M24.3,55.7c0,.3,0,.6,0,1-.6,0-1.2,0-1.7,0-.4.7-.8,1.4-1.7.9-.7,0-1.3-.2-1.7-.8.7,0,1.4-.2,1.8-.9,1.1-.9,2.3-.9,3.4,0Z"/>
  <path class="cls-32" d="M20.9,60.9c-1.8-.9-1.7-1.7,0-2.6.8-.2,1.1,0,.9.9-.3.6-.6,1.2-.9,1.7Z"/>
  <path class="cls-52" d="M21.8,59.2c-.3-.3-.6-.6-.9-.9,0-.3,0-.6,0-.9.6-.3,1.1-.6,1.7-.9.7,1.2.5,2.1-.8,2.6Z"/>
  <path class="cls-122" d="M63.3,43.7c.9,0,1.7,0,2.6,0,.4.4.7.9.8,1.5,0,.5.1,1.1.3,1.6,1,1.5,2.6.7,3.9.9,1.6.2,3.4-.3,4.6,1.4,0,.5-.1.8-.5,1.1-1,.5-2.2.6-3.3.6-1.8,0-3.7,0-5.5,0-1,0-1.9-.2-2.7-.7-.4-.4-.5-.8-.2-1.2.8-1.7-3.1-3.5,0-5.2Z"/>
  <path class="cls-81" d="M63.2,48.8c0,.3,0,.6,0,.9.6.5.8,1.2.8,2,0,.4-.1.7-.3,1.1-.2.3-.5.6-.8.8-.5.2-1.1.3-1.7.3-.6,0-1.1-.3-1.5-.8-.6,0-1.2,0-1.7,0,0-1.7,0-3.4,0-5.2,1.8-.3,3.5.6,5.2.8Z"/>
  <path class="cls-75" d="M46.8,56.6v.9c-.9.5-1.9.8-2.6,1.7h-.9c-.5-.6-1.1-.6-1.7,0,0,0,0,0,0,0,0,0-.4,0-.4,0,0,0-.4,0-.4,0-2.6,0-5.2,0-7.8,0-.2-.9.3-1.2,1-1.3.5.2-.1.5.2,0,.2-.3,0-.4-.4-.2-.8-.2-1.7-.2-2.4-.7-.2-.2-.4-.4-.5-.7.3-.5.5.2.2-.3-.1-.2-.5-.2-.8-.2-.8-.8-1.5-1.7-.7-2.9.4-.3.7-.4,1.1-.6,1.9-.3,3.9-.3,5.8,0,.4,0,.8.2,1.2.3,1.1.6,1.9,1.8,3.2,1.9.6,0,.6-.4.4-.9-.1-.3-.2-.6-.2-.9,0-.3.3-.6.5-.8.6-.4,1.2-.7,1.9-.9,1.1-.1,2.1,0,3.1.5,0,.6,0,1.2,0,1.7-1.1.8-1.1,1.7,0,2.5,0,.3,0,.6,0,.9Z"/>
  <path class="cls-75" d="M26.1,59.2c.3-.9.5-1.8.8-2.6-.3-.7.1-.9.7-1.1.3.2.6.4.8.7.5.8,1.2,1.1,2.1,1.3.4,0,.7.2,1,.3.5.3.9.7.5,1.4-2,0-4,0-6,0Z"/>
  <path class="cls-96" d="M32.1,59.2c-.3-.3-.6-.6-.9-.8-.5-.6-.5-1.1,0-1.7,1.3-.2,2.4.3,3.4.8.2.2.3.4.2.6,0,.2-.1.3-.2.3-.7,0-1.4.2-1.7.8-.3,0-.6,0-.9,0Z"/>
  <path class="cls-104" d="M37.3,53.1c-2.3,0-4.6,0-6.9,0-.4-.5-.7-1-.9-1.6-.1-.6-.1-1.2-.1-1.8,0-.6,0-1.2.1-1.8.1-.6.4-1.1.8-1.6,0-.6,0-1.2,0-1.8-.8-1.2-.9-2.3,0-3.4h2.6c.6-.5,1.3-.5,2-.2,2.6,1.8,2.7,4.8,3.5,7.4,0,1.7.2,3.4-1.1,4.8Z"/>
  <path class="cls-61" d="M31.2,32.5c1.1-.9,2.3,0,3.4,0,0,.2.2.3.2.5,0,.6-.2,1.1-.4,1.6-.3.9,0,1.8-.4,2.7-.1.1-.2.3-.4.4-4.5,0-.7-3.9-2.6-5.2Z"/>
  <path class="cls-137" d="M30.4,41c0,1.1,0,2.3,0,3.4-4.5,0-.6-3-1.6-4.3.3,0,.6,0,.8,0,.3.3.6.6.8.8Z"/>
  <path class="cls-59" d="M34.7,41.1c-.6,0-1.1,0-1.7,0,0-1.2.3-2.4.9-3.4,0,0,0,0,0,0,.3-.2.7-.2,1,0,.4.4.6.9.6,1.5,0,.6,0,1.1-.3,1.6-.1.1-.3.2-.4.4Z"/>
  <path class="cls-141" d="M29.5,38.5c-.5-.9-1.9-1.2-1.7-2.6,1.9,0,3.4.2,1.7,2.6Z"/>
  <path class="cls-76" d="M27.9,32.5c.8,0,1.7,0,2.5,0-.8,2.6-1.6,1.5-2.5,0Z"/>
  <path class="cls-46" d="M16.6,60.1c0,.6,0,1.2,0,1.8-.6.3-1.1.5-1.7.8-.3,0-.6,0-.9,0,.4-2,.8-4,1.2-6.1,1.1.9,0,2.8,1.5,3.6Z"/>
  <path class="cls-145" d="M23.5,50.6c.3,0,.6,0,.8,0,1.7-.5,2.4.6,2.9,1.8,0,.5-.2.9-.5,1.2-.6.4-1.3.5-1.9.5-1.4.2-2.8.2-3.9-.9v-.9c.7-.9,1.6-1.3,2.6-1.7Z"/>
  <path class="cls-26" d="M20.9,53.2c1.4,0,2.9,0,4.3,0,.5,1-.2,1.3-.9,1.7,0,.3,0,.5,0,.8-1.1,0-2.3,0-3.4,0,0-.9,0-1.7,0-2.6Z"/>
  <path class="cls-37" d="M21.7,47c1,.7.9,1.7.9,2.7-.4.7-.7,1.3-1.7.8.1-1.2-.4-2.6.8-3.5Z"/>
  <path class="cls-38" d="M20.9,50.6c.6-.3,1.1-.6,1.7-.8.3.3.6.6.9.9-.5,1.1-1.3,1.7-2.5,1.7,0-.6,0-1.1,0-1.7Z"/>
  <path class="cls-51" d="M34.7,32.4c0-.3,0-.5,0-.8,0-.3,0-.6,0-.9.9-.7,1.7-.7,2.6,0,.3.6.6,1.2.9,1.7,0,0,0,0,0,0-1.2,1.7-2.3,1.2-3.5,0h0Z"/>
  <path class="cls-10" d="M37.3,30.7c-.9,0-1.7,0-2.6,0,.1-.9.3-1.7,1.5-1.5.9.1,1,.9,1.1,1.6Z"/>
  <path class="cls-140" d="M82.2,47.1c0-1.4,0-2.9,0-4.3,1.3.9.7,2.3.9,3.4.5,3.2.6,6.3,0,9.5-.3,0-.6,0-.9,0-1-1.3-3.4-1.1-3.5-3.3.3-.5.8-.8,1.3-1,1-.4,1.1-1.3,1.2-2.2,0-.8.4-1.5,1-2Z"/>
  <path class="cls-129" d="M65.8,45.4c0-.6,0-1.1,0-1.7.3,0,.5,0,.8,0,2,0,4,0,6,0,.5,0,.8.4.9.9.7,1,1.7.8,2.6.8.2,1.5,2.1,3.3-.8,4.2-2.5-1.5-5.2-.5-7.8-.7-1.2-.1-2.5.1-1.7-1.8.7-.5,1.5-.5,2.7-1.1-1.1-.4-2.1,0-2.7-.6Z"/>
  <path class="cls-54" d="M46.7,55.7c-1-.1-2.5.3-2.3-1.5.1-1.3,1.4-1,2.3-1.1,0,.8,0,1.7,0,2.5Z"/>
  <path class="cls-43" d="M46.8,51.4c-1.1.9-2.3,0-3.4,0-.5-.6-.5-1.1,0-1.7,1.3-.2,2.4.2,3.5.8,0,.3,0,.6,0,.9Z"/>
  <path class="cls-64" d="M49.3,56.7c-.1.8.4,2-.9,2-1.2,0-.7-1.3-.8-2,.6,0,1.1,0,1.7,0Z"/>
  <path class="cls-85" d="M30.3,46.3c0,.5,0,1.1,0,1.6-.9,1.4-1.9,2-3,.2-.2-.7,0-1.3.5-1.9,0,0,0,0,0,0,.8,0,1.6,0,2.5,0Z"/>
  <path class="cls-138" d="M14.9,67c1.2,0,1.7.7,1.7,1.8-.6.2-1.1.5-1.7.7,0-.8,0-1.7,0-2.5Z"/>
  <path class="cls-50" d="M41.6,60.1c3.1,1.3,1.2,4,1.7,6-.6,0-1.1,0-1.7,0,0-2,0-4,0-6Z"/>
  <path class="cls-37" d="M26.9,52.3c-.9-.6-1.7-1.1-2.6-1.7,0-.9,0-1.7,0-2.6.9-.7,1.9-.8,2.8,0,.6,1.5,1.2,2.9-.2,4.3Z"/>
  <path class="cls-63" d="M26.9,48c-.9,0-1.7,0-2.6,0,0-.6,0-1.1,0-1.7,1.2,0,2.3,0,3.5,0,0,.6,0,1.1,0,1.7-.3.4-.6.4-.9,0Z"/>
  <path class="cls-77" d="M64.9,55.7c-.6,0-1.1,0-1.7,0-.7-.9-.7-1.7,0-2.6h0c.5-.5,1.1-.6,1.7-.4,1.3,1,1.6,1.9,0,2.9Z"/>
  <path class="cls-132" d="M59.8,53.2c.6,0,1.1,0,1.7,0,.7.9.7,1.7,0,2.6-.6,0-1.1,0-1.7,0-.5-.9-.6-1.7,0-2.6Z"/>
  <path class="cls-60" d="M61.5,55.7c0-.9,0-1.7,0-2.6.6,0,1.2,0,1.7,0,0,.9,0,1.7,0,2.6-.6,0-1.2,0-1.7,0Z"/>
  <path class="cls-73" d="M64.9,55.7c.6-.8.6-1.7,0-2.5.6-.5,1.3-.5,1.9,0,.6.9.5,1.8-.2,2.6-.3,0-.6,0-.8,0-.3,0-.6,0-.9,0Z"/>
  <path class="cls-2" d="M66.7,55.7c0-.8,0-1.7,0-2.5,1.8-1.2,3.6-.9,5.4.1.5.9.5,1.7-.3,2.4-1.7,0-3.4,0-5.1,0Z"/>
  <path class="cls-48" d="M78.7,52.3c.8,1.5,3.4,1.1,3.4,3.4-1.2,0-2.3,0-3.5,0-.7-.7-1.5-1.2-1.9-2.1,0-.2-.1-.4-.2-.6,0-.4.2-.7.5-1,.4-.1.7-.2,1.1,0,.2.1.3.2.5.4Z"/>
  <path class="cls-98" d="M76.1,55.7c-.9,0-1.7,0-2.6,0-1.5-1-1.3-2,0-3,1.2-.3,2.1.1,2.8,1.1.2.7.2,1.3-.3,1.8Z"/>
  <path class="cls-36" d="M76.1,55.7c0-.6,0-1.1,0-1.7-.2-.8.1-1.1.9-.8,1.1.5,1.7,1.3,1.7,2.5-.9,0-1.7,0-2.6,0Z"/>
  <path class="cls-79" d="M73.5,53.2c-.5.9-.6,1.7,0,2.6-.6,0-1.2,0-1.8,0,0-.8,0-1.6,0-2.5.1-.1.2-.3.4-.4.5-.2,1-.1,1.4.3Z"/>
  <path class="cls-4" d="M48.5,63.5c-.3.3-.6.6-.9.9-1,.9-1.8,2.1-3.4,1.7-.5-1.6.8-2.4,1.7-3.4h0c.9.3,1.7.6,2.6.9Z"/>
  <path class="cls-123" d="M44.2,59.2c-.2-2.1.5-2.9,2.6-1.7,0,1.7-1.3,1.7-2.6,1.7Z"/>
  <path class="cls-42" d="M45.9,62.6c-.8-.5-1.9-.9-1.2-2.1.1-.2.8-.4,1.1-.3,1.5.7.3,1.6.1,2.4,0,0,0,0,0,0Z"/>
  <path class="cls-97" d="M41.6,59.1c0-.8-.2-2,.7-2.1,1.5-.1.8,1.3,1,2.1-.6,0-1.1,0-1.7,0Z"/>
  <path class="cls-74" d="M49.4,67c.3.6.6,1.1.8,1.7-.8,0-1.8.3-2.1-.6-.3-.9.7-.9,1.3-1.1Z"/>
  <path class="cls-47" d="M67.5,41.1c.9-.6,1.7-1.1,2.6-1.7.9.1,2,.4,1.2,1.5-1.1,1.7-2.5.8-3.8.2Z"/>
  <path class="cls-139" d="M75.3,39.4c0,.8,0,1.7,0,2.5-1-.1-2.2-.1-2-1.4.1-1,1.1-1.1,2-1Z"/>
  <path class="cls-87" d="M73.5,44.6c-.3-.3-.6-.6-.9-.9.6-1,1.7-.9,2.6-.9,0,1.2-.7,1.7-1.8,1.7Z"/>
  <path class="cls-7" d="M82.2,47.1c0,.9,0,1.7,0,2.6-.9.6-.8,1.9-1.7,2.6-.6,0-1.2,0-1.7,0,0,0,0,0,0,0-.6-.7-1-1.6-1-2.6,0-1,.4-1.8,1-2.6,1.1-6.2,2.3,2.4,3.5,0Z"/>
  <path class="cls-101" d="M78.7,47.1c0,.9,0,1.7,0,2.6-.9.6-1.2,1.7-1.7,2.5h0c-.6.5-1.3.5-1.9,0-.6-.9-.5-1.8.2-2.6,0,0,0-.1,0-.1,1.5-1.2.6-2.8.8-4.2.9.5,1.3,1.9,2.6,1.7Z"/>
  <path class="cls-21" d="M34.7,39.4c0-.6,0-1.1,0-1.7,0-.2.2-.3.3-.5.7-.6,1.3-1.2,1.6-2.1.4-.6.7-1.4,1.7-1,0,0,0,0,0,0-.3,2,1,3.5,1.7,5.2-.8.6-.9,1.7-1.8,2.1-.6.2-1.1.2-1.6-.2.7-1.7-1.2-1.2-1.7-1.9Z"/>
  <path class="cls-89" d="M38.1,41.1c0-1.1.6-1.7,1.7-1.7-.1,1.3.3,2.4.9,3.5,0,0,0,0,0,0-.8.7-1.7.8-2.6.2-.4-.7-.5-1.3,0-1.9Z"/>
  <path class="cls-133" d="M38.1,41.1c0,.6,0,1.1,0,1.7,0,.6.6,1.1,0,1.7,0,.6,0,1.2,0,1.7.5.4.6.9.4,1.5-.1.1-.2.3-.3.4-.4.2-.7.1-.9-.2.5-2.8-2.1-4.5-2.6-6.9,0,0,.1,0,.1,0,.5-.5,1.1-.5,1.6,0,.6,0,1.2,0,1.7,0Z"/>
  <path class="cls-143" d="M38.2,44.5c-.1-.6-1-1.1,0-1.7.9,0,1.7,0,2.6,0,0,1.7-1.3,1.7-2.5,1.7Z"/>
  <path class="cls-125" d="M38.2,48c0-.6,0-1.1,0-1.7,1.2,0,2.5-.1,2.5,1.7-.3,0-.5,0-.8,0-.5.5-1.1.5-1.6,0Z"/>
  <path class="cls-110" d="M38.2,48c.5,0,1.1,0,1.6,0,0,1.8,1.3,1.7,2.6,1.7.5,1.1-.2,1.8-.9,2.6h0c-1.4,2.1-2.6,1.4-3.8-.2,0-1.4-.4-2.8.2-4.1h.2Z"/>
  <path class="cls-109" d="M41.6,52.3c.3-.9.6-1.7.9-2.6.3,0,.6,0,.9,0,0,.6,0,1.1,0,1.7-.4.7-1,.8-1.7.9Z"/>
  <path class="cls-142" d="M38.2,34.1c-.7.4-.9,1.1-.9,1.8-.7.6-1.5.8-2.3.4-.8-.5-1-1.3-1.1-2.2.3-.6.6-1.1.9-1.7,1.2,0,2.3.8,3.5,0,0,.6,0,1.1,0,1.7Z"/>
  <path class="cls-35" d="M24.3,54.9c.3-.6.6-1.2.9-1.7.6,0,1.1,0,1.7,0,.6,0,1,.4,1.3,1,.1.6,0,1.1-.4,1.6-.3.3-.6.6-.9.9-.9-.6-1.7-1.1-2.6-1.7Z"/>
  <path class="cls-120" d="M65.8,45.4c.1,0,.3-.1.4-.2,1.4-.7,2.9-1.2,4.3,0,.2.1,0,.9-.2,1.1-1.3,1.3-2.7,2-4.5.9,0-.6,0-1.1,0-1.7Z"/>
  <path class="cls-14" d="M65.8,49.8h6c.5.5.5,1.2.2,1.8-1.8,1.3-3.6,1.5-5.7.6-.6-.7-1-1.5-.6-2.5Z"/>
  <path class="cls-84" d="M71.8,51.4c0-.6,0-1.1,0-1.7,1.2,0,2.3,0,3.5,0,0,.8,0,1.7,0,2.5-1,.8-2.2.4-3.3.3-.4-.3-.5-.7-.2-1.2Z"/>
  <path class="cls-23" d="M65.8,49.8c.3.6.6,1.1.8,1.7-1,.8-2,1.8-3.4.8,0-.8,0-1.7,0-2.5.9,0,1.7,0,2.6,0Z"/>
  <path class="cls-79" d="M63.2,52.3c1.1-.3,2.3-.5,3.4-.8,1.7,1.9,3.5,0,5.2,0,0,.3,0,.6,0,.8.3.2.4.4.3.6,0,.2-.2.3-.3.3,0,0,0,0,0,0-1.7.6-3.4-.1-5.1,0-.6,0-1.2,0-1.8,0-.6,0-1.1,0-1.7,0,0-.3,0-.6,0-.9Z"/>
  <path class="cls-12" d="M27.8,53.9c-.3-.3-.6-.5-.9-.8,0-.3,0-.6,0-.9,0-1.4,0-2.9,0-4.3.3,0,.6,0,.9,0,.9,1.4,1.7.3,2.6,0,0,.6,0,1.2,0,1.8-.7.6-.7,1.1,0,1.7,0,.6,0,1.2,0,1.8-.3,0-.6,0-.9,0-.4.6-1,.9-1.7.8Z"/>
  <path class="cls-37" d="M27.8,53.9c.4-.7,1-.8,1.7-.8.6.9,1.2,1.7,1.7,2.6h0c0,.3,0,.6,0,.9,0,.6,0,1.1,0,1.7-.3,0-.6,0-.9,0-.8-.7-1.9-.8-2.5-1.7,0-.3,0-.6,0-.9,0-.6,0-1.2,0-1.8Z"/>
  <path class="cls-90" d="M38.2,52.3c1.1.8,2.3.8,3.4,0,0,.3,0,.6,0,.9.7.8.7,1.7,0,2.5-1.6-.2-3.2-.5-3.5-2.6-.3-.2-.3-.4-.2-.6,0-.2.2-.3.3-.3Z"/>
  <path class="cls-22" d="M38.2,52.3c0,.3,0,.6,0,.8,0,0-.4,0-.4,0,0,0-.4,0-.4,0,0-1.7,0-3.5,0-5.2.3,0,.5,0,.8,0,0,1.4,0,2.9.1,4.3Z"/>
  <path class="cls-131" d="M41.6,55.7c0-.8,0-1.7,0-2.5.9,0,1.7.3,1.6,1.5-.1.9-.8,1-1.6,1.1Z"/>
  <path class="cls-143" d="M34.7,58.3c0-.3,0-.6,0-.8.5-.7,1.1-.9,1.7-.3.2.2.2.5.3.7-.7.1-1.3.3-2,.4Z"/>
  <path class="cls-71" d="M31.3,55.7c0-.9.3-1.7,1.4-1.6.2,0,.5.3.5.4-.2,1-1.1,1-1.9,1.1,0,0,0,0,0,0Z"/>
  <path class="cls-96" d="M27.8,56.6c1.2,0,2.1.6,2.5,1.7-1.2,0-2.5,0-2.5-1.7Z"/>
  <path class="cls-65" d="M30.3,51.4c-.7,0-1.8.3-1.9-.4-.1-1.1,1-1.1,1.9-1.2,0,.6,0,1.1,0,1.7Z"/>
  <path class="cls-55" d="M33.8,34.2c.7.4.9,1,.9,1.8.5.6.5,1.1,0,1.7,0,0,0,0,0,0-.3,0-.5,0-.8,0,.3-1.2-1.5-2.3,0-3.5Z"/>
  <path class="cls-30" d="M36.4,41.1c-.5,0-1.1,0-1.6,0,0-.6,0-1.1,0-1.7,1.1,0,2.7-.4,1.7,1.7Z"/>
  <path class="cls-78" d="M80.5,52.3c0-1.3,0-2.5,1.7-2.6,0,1.3,0,2.5-1.7,2.6Z"/>
  <path class="cls-34" d="M77,52.3c-1-1.9,0-2.4,1.7-2.5,0,.8,0,1.7,0,2.5-.6,0-1.1,0-1.6,0Z"/>
  <path class="cls-92" d="M71.8,53.1c0-.3,0-.6,0-.9,1.1,0,2.3,0,3.4,0,.6,0,1.2,0,1.7,0,0,.3,0,.6,0,.9-.3.3-.6.5-.9.8-.9-.3-1.7-.5-2.6-.8-.6,0-1.1,0-1.7,0Z"/>
  <path class="cls-24" d="M34.7,37.6c0-.6,0-1.1,0-1.7.8,0,1.7,0,2.5,0,0,1.8-1.3,1.7-2.5,1.7Z"/>
</svg>