<?xml version="1.0" encoding="UTF-8"?>
<svg xmlns="http://www.w3.org/2000/svg" version="1.1" viewBox="0 0 200 100">
  <defs>
    <style>
      .cls-1 {
        fill: #539351;
      }

      .cls-2 {
        fill: #4d8861;
      }

      .cls-3 {
        fill: #97c161;
      }

      .cls-4 {
        fill: #4f8762;
      }
    </style>
  </defs>
  <!-- Generator: Adobe Illustrator 28.6.0, SVG Export Plug-In . SVG Version: 1.2.0 Build 709)  -->
  <g>
    <g id="Layer_1">
      <g id="Layer_1-2" data-name="Layer_1">
        <g>
          <rect class="cls-1" x="182.7" y="95.9" width="1.9" height="3.9"/>
          <rect class="cls-1" x="188.4" y="92" width="1.9" height="3.9"/>
          <rect class="cls-3" x="134.5" y="64.6" width="1.9" height="3.9"/>
          <rect class="cls-1" x="88.2" y="56.8" width="1.9" height="3.9"/>
          <rect class="cls-1" x="196.2" y="52.9" width="1.9" height="3.9"/>
          <rect class="cls-2" x="186.5" y="49" width="1.9" height="3.9"/>
          <rect class="cls-3" x="99.8" y="49" width="1.9" height="3.9"/>
          <rect class="cls-1" x="94" y="45.1" width="1.9" height="3.9"/>
          <g>
            <polygon class="cls-1" points="90.1 76.4 95.9 76.4 95.9 80.3 92.1 80.3 92.1 92 94 92 94 95.9 97.8 95.9 97.8 99.8 111.3 99.8 111.3 100 174.9 100 174.9 99.8 182.7 99.8 182.7 95.9 167.2 95.9 167.2 92 163.4 92 163.4 88.1 161.4 88.1 161.4 84.2 159.5 84.2 159.5 92 155.7 92 155.7 95.9 140.2 95.9 140.2 92 136.4 92 136.4 88.1 134.5 88.1 134.5 84.2 115.2 84.2 115.2 80.3 111.3 80.3 111.3 76.4 107.5 76.4 107.5 64.6 101.7 64.6 101.7 60.7 95.9 60.7 95.9 56.8 94 56.8 94 52.9 92.1 52.9 92.1 56.8 90.1 56.8 90.1 60.7 88.2 60.7 88.2 72.5 90.1 72.5 90.1 76.4"/>
            <polygon class="cls-1" points="144.1 84.2 142.2 84.2 142.2 88.1 144.1 88.1 146 88.1 148 88.1 148 84.2 146 84.2 144.1 84.2"/>
            <polygon class="cls-1" points="111.3 64.6 111.3 60.7 109.4 60.7 107.5 60.7 107.5 64.6 109.4 64.6 111.3 64.6"/>
            <polygon class="cls-1" points="159.5 60.7 161.4 60.7 163.4 60.7 165.3 60.7 167.2 60.7 169.2 60.7 171.1 60.7 173 60.7 174.9 60.7 176.9 60.7 176.9 56.8 174.9 56.8 173 56.8 171.1 56.8 169.2 56.8 167.2 56.8 165.3 56.8 163.4 56.8 161.4 56.8 159.5 56.8 157.6 56.8 157.6 60.7 159.5 60.7"/>
            <polygon class="cls-1" points="124.8 49 126.7 49 128.7 49 130.6 49 132.5 49 134.5 49 136.4 49 138.3 49 140.2 49 142.2 49 144.1 49 144.1 45.1 142.2 45.1 140.2 45.1 138.3 45.1 136.4 45.1 134.5 45.1 132.5 45.1 130.6 45.1 128.7 45.1 126.7 45.1 124.8 45.1 122.9 45.1 122.9 49 124.8 49"/>
          </g>
          <g>
            <polygon class="cls-3" points="178.8 76.4 176.9 76.4 174.9 76.4 174.9 80.3 174.9 84.2 176.9 84.2 178.8 84.2 180.7 84.2 180.7 80.3 180.7 76.4 178.8 76.4"/>
            <polygon class="cls-3" points="117.1 76.4 115.2 76.4 115.2 80.3 115.2 84.2 117.1 84.2 119.1 84.2 121 84.2 121 80.3 121 76.4 119.1 76.4 117.1 76.4"/>
            <polygon class="cls-3" points="136.4 60.7 134.5 60.7 134.5 64.6 136.4 64.6 136.4 68.5 138.3 68.5 140.2 68.5 140.2 64.6 140.2 60.7 138.3 60.7 136.4 60.7"/>
            <polygon class="cls-3" points="157.6 37.3 155.7 37.3 155.7 41.2 157.6 41.2 159.5 41.2 161.4 41.2 161.4 37.3 159.5 37.3 157.6 37.3"/>
          </g>
          <rect class="cls-1" x="97.8" y="37.3" width="1.9" height="3.9"/>
          <rect class="cls-3" x="163.4" y="29.4" width="1.9" height="3.9"/>
          <rect class="cls-4" x="105.6" y="29.4" width="1.9" height="3.9"/>
          <rect class="cls-1" x="113.2" y="25.5" width="1.9" height="3.9"/>
          <path class="cls-3" d="M194.2,56.8v-3.9h-7.7v-15.6h-1.9v-3.9h-3.8v-3.9h-15.4v3.9h-1.9v-3.9h1.9v-3.9h-1.9v-3.9h-3.8v-3.9h-17.3v3.9h-1.9v-3.9h-11.6v3.9h-5.8v3.9h-1.9v7.8h-3.8v-3.9h-9.6v3.9h-5.8v3.9h-1.9v3.9h-1.9v7.8h3.8v3.9h-7.7v3.9h1.9v3.9h5.8v3.9h5.8v-3.9h3.8v3.9h-3.8v11.7h3.8v3.9h3.8v-3.9h5.8v7.8h13.5v3.9h1.9v3.9h3.8v3.9h15.4v-3.9h3.8v-7.8h1.9v3.9h1.9v3.9h3.8v3.9h21.2v-3.9h3.8v-11.7h-1.9v-3.9h1.9v-3.9h3.8v-15.6h-1.9,0ZM157.6,56.8h19.3v3.9h-19.3v-3.9ZM134.5,64.6v-3.9h5.8v7.8h-5.8v-3.9ZM126.7,45.1h17.3v3.9h-21.2v-3.9h3.9ZM174.9,80.3v-3.9h5.8v7.8h-5.8v-3.9ZM161.4,41.2h-5.8v-3.9h5.8v3.9ZM142.2,84.2h5.8v3.9h-5.8v-3.9Z"/>
          <g>
            <polygon class="cls-1" points="200 68.5 200 64.6 200 60.7 200 56.8 198.1 56.8 196.2 56.8 196.2 60.7 196.2 60.7 196.2 64.6 196.2 68.5 198.1 68.5 198.1 64.6 198.1 60.7 198.1 60.7 198.1 64.6 198.1 68.5 198.1 68.5 198.1 68.5 196.2 68.5 196.2 72.5 198.1 72.5 198.1 72.5 200 72.5 200 68.5 200 68.5"/>
            <polygon class="cls-1" points="157.6 13.8 157.6 13.8 155.7 13.8 153.7 13.8 151.8 13.8 149.9 13.8 148 13.8 146 13.8 144.1 13.8 142.2 13.8 142.2 17.7 144.1 17.7 146 17.7 148 17.7 149.9 17.7 151.8 17.7 153.7 17.7 155.7 17.7 157.6 17.7 157.6 17.7 159.5 17.7 159.5 13.8 157.6 13.8"/>
            <polygon class="cls-1" points="97.8 99.8 97.8 100 109.4 100 109.4 99.8 99.8 99.8 99.8 99.8 97.8 99.8 97.8 95.9 94 95.9 94 99.8 97.8 99.8"/>
            <rect class="cls-1" x="174.9" y="99.8" width="3.8" height=".1"/>
            <polygon class="cls-1" points="184.6 95.9 184.6 99.8 186.5 99.8 188.4 99.8 188.4 95.9 186.5 95.9 184.6 95.9"/>
            <polygon class="cls-1" points="92.1 92 92.1 88.1 92.1 84.2 92.1 80.3 94 80.3 95.9 80.3 95.9 76.4 94 76.4 92.1 76.4 90.1 76.4 90.1 80.3 88.2 80.3 88.2 84.2 88.2 88.1 88.2 92 90.1 92 90.1 95.9 92.1 95.9 94 95.9 94 92 92.1 92"/>
            <polygon class="cls-1" points="192.3 72.5 192.3 76.4 190.4 76.4 190.4 80.3 192.3 80.3 192.3 84.2 192.3 88.1 192.3 92 190.4 92 190.4 95.9 192.3 95.9 194.2 95.9 194.2 92 196.2 92 196.2 88.1 196.2 84.2 196.2 80.3 194.2 80.3 194.2 76.4 196.2 76.4 196.2 72.5 194.2 72.5 192.3 72.5"/>
            <polygon class="cls-1" points="88.2 72.5 88.2 68.5 88.2 64.6 88.2 60.7 88.2 56.8 86.3 56.8 86.3 60.7 84.3 60.7 84.3 64.6 84.3 68.5 84.3 72.5 86.3 72.5 86.3 76.4 88.2 76.4 90.1 76.4 90.1 72.5 88.2 72.5"/>
            <rect class="cls-1" x="194.2" y="52.9" width="1.9" height="3.9"/>
            <polygon class="cls-1" points="92.1 56.8 92.1 52.9 94 52.9 94 52.9 95.9 52.9 97.8 52.9 99.8 52.9 99.8 49 97.8 49 97.8 45.1 97.8 41.2 97.8 37.3 95.9 37.3 95.9 41.2 94 41.2 94 45.1 95.9 45.1 95.9 49 94 49 94 49 92.1 49 92.1 52.9 90.1 52.9 88.2 52.9 88.2 56.8 90.1 56.8 92.1 56.8"/>
            <polygon class="cls-1" points="192.3 49 190.4 49 188.4 49 188.4 52.9 190.4 52.9 192.3 52.9 194.2 52.9 194.2 49 192.3 49"/>
            <polygon class="cls-1" points="190.4 45.1 190.4 41.2 188.4 41.2 188.4 37.3 188.4 33.3 186.5 33.3 186.5 29.4 184.6 29.4 182.7 29.4 180.7 29.4 180.7 33.3 182.7 33.3 184.6 33.3 184.6 37.3 186.5 37.3 186.5 41.2 186.5 45.1 186.5 49 188.4 49 188.4 45.1 190.4 45.1"/>
            <polygon class="cls-1" points="101.7 37.3 101.7 33.3 99.8 33.3 97.8 33.3 97.8 37.3 99.8 37.3 101.7 37.3"/>
            <polygon class="cls-1" points="105.6 33.3 105.6 29.4 103.6 29.4 101.7 29.4 101.7 33.3 103.6 33.3 105.6 33.3"/>
            <polygon class="cls-1" points="178.8 25.5 176.9 25.5 174.9 25.5 173 25.5 171.1 25.5 169.2 25.5 167.2 25.5 167.2 21.6 165.3 21.6 165.3 17.7 163.4 17.7 161.4 17.7 161.4 17.7 159.5 17.7 159.5 21.6 161.4 21.6 161.4 21.6 163.4 21.6 163.4 25.5 165.3 25.5 165.3 29.4 167.2 29.4 169.2 29.4 171.1 29.4 173 29.4 174.9 29.4 176.9 29.4 178.8 29.4 180.7 29.4 180.7 25.5 178.8 25.5"/>
            <polygon class="cls-1" points="109.4 25.5 107.5 25.5 107.5 29.4 109.4 29.4 111.3 29.4 113.2 29.4 113.2 25.5 111.3 25.5 109.4 25.5"/>
            <rect class="cls-1" x="140.2" y="17.7" width="1.9" height="3.9"/>
            <polygon class="cls-1" points="124.8 17.7 122.9 17.7 121 17.7 121 21.6 119.1 21.6 119.1 25.5 117.1 25.5 117.1 29.4 117.1 33.3 119.1 33.3 121 33.3 121 29.4 121 25.5 122.9 25.5 122.9 21.6 124.8 21.6 126.7 21.6 128.7 21.6 128.7 17.7 126.7 17.7 124.8 17.7"/>
            <polygon class="cls-1" points="134.5 17.7 136.4 17.7 138.3 17.7 138.3 13.8 136.4 13.8 134.5 13.8 132.5 13.8 130.6 13.8 130.6 17.7 132.5 17.7 134.5 17.7"/>
          </g>
        </g>
      </g>
      <g id="Layer_1-3" data-name="Layer_1">
        <g>
          <rect class="cls-1" x="115.7" y="95.3" width="2.2" height="4.5"/>
          <rect class="cls-1" x="122.4" y="90.8" width="2.2" height="4.5"/>
          <rect class="cls-3" x="59.7" y="59" width="2.2" height="4.5"/>
          <rect class="cls-1" x="6.1" y="49.9" width="2.2" height="4.5"/>
          <rect class="cls-1" x="131.3" y="45.4" width="2.2" height="4.5"/>
          <rect class="cls-2" x="120.1" y="40.8" width="2.2" height="4.5"/>
          <rect class="cls-3" x="19.5" y="40.8" width="2.2" height="4.5"/>
          <rect class="cls-1" x="12.8" y="36.3" width="2.2" height="4.5"/>
          <g>
            <polygon class="cls-1" points="8.3 72.6 15 72.6 15 77.1 10.6 77.1 10.6 90.8 12.8 90.8 12.8 95.3 17.3 95.3 17.3 99.8 32.9 99.8 32.9 100 106.7 100 106.7 99.8 115.7 99.8 115.7 95.3 97.8 95.3 97.8 90.8 93.3 90.8 93.3 86.2 91 86.2 91 81.7 88.8 81.7 88.8 90.8 84.3 90.8 84.3 95.3 66.4 95.3 66.4 90.8 62 90.8 62 86.2 59.7 86.2 59.7 81.7 37.4 81.7 37.4 77.1 32.9 77.1 32.9 72.6 28.4 72.6 28.4 59 21.7 59 21.7 54.5 15 54.5 15 49.9 12.8 49.9 12.8 45.4 10.6 45.4 10.6 49.9 8.3 49.9 8.3 54.5 6.1 54.5 6.1 68.1 8.3 68.1 8.3 72.6"/>
            <polygon class="cls-1" points="70.9 81.7 68.7 81.7 68.7 86.2 70.9 86.2 73.1 86.2 75.4 86.2 75.4 81.7 73.1 81.7 70.9 81.7"/>
            <polygon class="cls-1" points="32.9 59 32.9 54.5 30.7 54.5 28.4 54.5 28.4 59 30.7 59 32.9 59"/>
            <polygon class="cls-1" points="88.8 54.5 91 54.5 93.3 54.5 95.5 54.5 97.8 54.5 100 54.5 102.2 54.5 104.5 54.5 106.7 54.5 109 54.5 109 49.9 106.7 49.9 104.5 49.9 102.2 49.9 100 49.9 97.8 49.9 95.5 49.9 93.3 49.9 91 49.9 88.8 49.9 86.6 49.9 86.6 54.5 88.8 54.5"/>
            <polygon class="cls-1" points="48.6 40.8 50.8 40.8 53 40.8 55.3 40.8 57.5 40.8 59.7 40.8 62 40.8 64.2 40.8 66.4 40.8 68.7 40.8 70.9 40.8 70.9 36.3 68.7 36.3 66.4 36.3 64.2 36.3 62 36.3 59.7 36.3 57.5 36.3 55.3 36.3 53 36.3 50.8 36.3 48.6 36.3 46.3 36.3 46.3 40.8 48.6 40.8"/>
          </g>
          <g>
            <polygon class="cls-3" points="111.2 72.6 109 72.6 106.7 72.6 106.7 77.1 106.7 81.7 109 81.7 111.2 81.7 113.4 81.7 113.4 77.1 113.4 72.6 111.2 72.6"/>
            <polygon class="cls-3" points="39.6 72.6 37.4 72.6 37.4 77.1 37.4 81.7 39.6 81.7 41.9 81.7 44.1 81.7 44.1 77.1 44.1 72.6 41.9 72.6 39.6 72.6"/>
            <polygon class="cls-3" points="62 54.5 59.7 54.5 59.7 59 62 59 62 63.5 64.2 63.5 66.4 63.5 66.4 59 66.4 54.5 64.2 54.5 62 54.5"/>
            <polygon class="cls-3" points="86.6 27.2 84.3 27.2 84.3 31.8 86.6 31.8 88.8 31.8 91 31.8 91 27.2 88.8 27.2 86.6 27.2"/>
          </g>
          <rect class="cls-1" x="17.3" y="27.2" width="2.2" height="4.5"/>
          <rect class="cls-3" x="93.3" y="18.2" width="2.2" height="4.5"/>
          <rect class="cls-4" x="26.2" y="18.2" width="2.2" height="4.5"/>
          <rect class="cls-1" x="35.1" y="13.6" width="2.2" height="4.5"/>
          <path class="cls-3" d="M129.1,49.9v-4.5h-9v-18.2h-2.2v-4.5h-4.5v-4.5h-17.9v4.5h-2.2v-4.5h2.2v-4.5h-2.2v-4.5h-4.5v-4.5h-20.1v4.5h-2.2v-4.5h-13.4v4.5h-6.7v4.5h-2.2v9.1h-4.5v-4.5h-11.2v4.5h-6.7v4.5h-2.2v4.5h-2.2v9.1h4.5v4.5h-9v4.5h2.2v4.5h6.7v4.5h6.7v-4.5h4.5v4.5h-4.5v13.6h4.5v4.5h4.5v-4.5h6.7v9.1h15.7v4.5h2.2v4.5h4.5v4.5h17.9v-4.5h4.5v-9.1h2.2v4.5h2.2v4.5h4.5v4.5h24.6v-4.5h4.5v-13.6h-2.2v-4.5h2.2v-4.5h4.5v-18.2h-2.2,0ZM86.6,49.9h22.4v4.5h-22.4v-4.5ZM59.7,59v-4.5h6.7v9.1h-6.7v-4.5ZM50.8,36.3h20.1v4.5h-24.6v-4.5h4.5ZM106.7,77.1v-4.5h6.7v9.1h-6.7v-4.5ZM91,31.8h-6.7v-4.5h6.7v4.5ZM68.7,81.7h6.7v4.5h-6.7v-4.5Z"/>
          <g>
            <polygon class="cls-1" points="135.8 63.5 135.8 59 135.8 54.5 135.8 49.9 133.5 49.9 131.3 49.9 131.3 54.5 131.3 54.5 131.3 59 131.3 63.5 133.5 63.5 133.5 59 133.5 54.5 133.5 54.5 133.5 59 133.5 63.5 133.5 63.5 133.5 63.5 131.3 63.5 131.3 68.1 133.5 68.1 133.5 68.1 135.8 68.1 135.8 63.5 135.8 63.5"/>
            <polygon class="cls-1" points="86.6 0 86.6 0 84.3 0 82.1 0 79.9 0 77.6 0 75.4 0 73.1 0 70.9 0 68.7 0 68.7 4.6 70.9 4.6 73.1 4.6 75.4 4.6 77.6 4.6 79.9 4.6 82.1 4.6 84.3 4.6 86.6 4.6 86.6 4.6 88.8 4.6 88.8 0 86.6 0"/>
            <polygon class="cls-1" points="17.3 99.8 17.3 100 30.7 100 30.7 99.8 19.5 99.8 19.5 99.8 17.3 99.8 17.3 95.3 12.8 95.3 12.8 99.8 17.3 99.8"/>
            <rect class="cls-1" x="106.7" y="99.8" width="4.5" height=".1"/>
            <polygon class="cls-1" points="117.9 95.3 117.9 99.8 120.1 99.8 122.4 99.8 122.4 95.3 120.1 95.3 117.9 95.3"/>
            <polygon class="cls-1" points="10.6 90.8 10.6 86.2 10.6 81.7 10.6 77.1 12.8 77.1 15 77.1 15 72.6 12.8 72.6 10.6 72.6 8.3 72.6 8.3 77.1 6.1 77.1 6.1 81.7 6.1 86.2 6.1 90.8 8.3 90.8 8.3 95.3 10.6 95.3 12.8 95.3 12.8 90.8 10.6 90.8"/>
            <polygon class="cls-1" points="126.8 68.1 126.8 72.6 124.6 72.6 124.6 77.1 126.8 77.1 126.8 81.7 126.8 86.2 126.8 90.8 124.6 90.8 124.6 95.3 126.8 95.3 129.1 95.3 129.1 90.8 131.3 90.8 131.3 86.2 131.3 81.7 131.3 77.1 129.1 77.1 129.1 72.6 131.3 72.6 131.3 68.1 129.1 68.1 126.8 68.1"/>
            <polygon class="cls-1" points="6.1 68.1 6.1 63.5 6.1 59 6.1 54.5 6.1 49.9 3.9 49.9 3.9 54.5 1.6 54.5 1.6 59 1.6 63.5 1.6 68.1 3.9 68.1 3.9 72.6 6.1 72.6 8.3 72.6 8.3 68.1 6.1 68.1"/>
            <rect class="cls-1" x="129.1" y="45.4" width="2.2" height="4.5"/>
            <polygon class="cls-1" points="10.6 49.9 10.6 45.4 12.8 45.4 12.8 45.4 15 45.4 17.3 45.4 19.5 45.4 19.5 40.8 17.3 40.8 17.3 36.3 17.3 31.8 17.3 27.2 15 27.2 15 31.8 12.8 31.8 12.8 36.3 15 36.3 15 40.8 12.8 40.8 12.8 40.8 10.6 40.8 10.6 45.4 8.3 45.4 6.1 45.4 6.1 49.9 8.3 49.9 10.6 49.9"/>
            <polygon class="cls-1" points="126.8 40.8 124.6 40.8 122.4 40.8 122.4 45.4 124.6 45.4 126.8 45.4 129.1 45.4 129.1 40.8 126.8 40.8"/>
            <polygon class="cls-1" points="124.6 36.3 124.6 31.8 122.4 31.8 122.4 27.2 122.4 22.7 120.1 22.7 120.1 18.2 117.9 18.2 115.7 18.2 113.4 18.2 113.4 22.7 115.7 22.7 117.9 22.7 117.9 27.2 120.1 27.2 120.1 31.8 120.1 36.3 120.1 40.8 122.4 40.8 122.4 36.3 124.6 36.3"/>
            <polygon class="cls-1" points="21.7 27.2 21.7 22.7 19.5 22.7 17.3 22.7 17.3 27.2 19.5 27.2 21.7 27.2"/>
            <polygon class="cls-1" points="26.2 22.7 26.2 18.2 24 18.2 21.7 18.2 21.7 22.7 24 22.7 26.2 22.7"/>
            <polygon class="cls-1" points="111.2 13.6 109 13.6 106.7 13.6 104.5 13.6 102.2 13.6 100 13.6 97.8 13.6 97.8 9.1 95.5 9.1 95.5 4.6 93.3 4.6 91 4.6 91 4.6 88.8 4.6 88.8 9.1 91 9.1 91 9.1 93.3 9.1 93.3 13.6 95.5 13.6 95.5 18.2 97.8 18.2 100 18.2 102.2 18.2 104.5 18.2 106.7 18.2 109 18.2 111.2 18.2 113.4 18.2 113.4 13.6 111.2 13.6"/>
            <polygon class="cls-1" points="30.7 13.6 28.4 13.6 28.4 18.2 30.7 18.2 32.9 18.2 35.1 18.2 35.1 13.6 32.9 13.6 30.7 13.6"/>
            <rect class="cls-1" x="66.4" y="4.6" width="2.2" height="4.5"/>
            <polygon class="cls-1" points="48.6 4.6 46.3 4.6 44.1 4.6 44.1 9.1 41.9 9.1 41.9 13.6 39.6 13.6 39.6 18.2 39.6 22.7 41.9 22.7 44.1 22.7 44.1 18.2 44.1 13.6 46.3 13.6 46.3 9.1 48.6 9.1 50.8 9.1 53 9.1 53 4.6 50.8 4.6 48.6 4.6"/>
            <polygon class="cls-1" points="59.7 4.6 62 4.6 64.2 4.6 64.2 0 62 0 59.7 0 57.5 0 55.3 0 55.3 4.6 57.5 4.6 59.7 4.6"/>
          </g>
        </g>
      </g>
    </g>
  </g>
</svg>