<?xml version="1.0" encoding="UTF-8"?>
<svg xmlns="http://www.w3.org/2000/svg" version="1.1" viewBox="0 0 321 486">
  <defs>
    <style>
      .cls-1 {
        fill: #b0301a;
      }

      .cls-2 {
        fill: #e9761d;
      }

      .cls-3 {
        fill: #d3ad89;
        mix-blend-mode: multiply;
      }

      .cls-4 {
        isolation: isolate;
      }

      .cls-5 {
        fill: #f6bd08;
      }

      .cls-6 {
        fill: #d6c292;
      }

      .cls-6, .cls-7 {
        stroke: #1d1d1b;
        stroke-miterlimit: 10;
        stroke-width: 6.4px;
      }

      .cls-7 {
        fill: #b08c61;
      }

      .cls-8 {
        fill: #ed8e1a;
      }

      .cls-9 {
        fill: #ffe800;
      }
    </style>
  </defs>
  <!-- Generator: Adobe Illustrator 28.6.0, SVG Export Plug-In . SVG Version: 1.2.0 Build 709)  -->
  <g class="cls-4">
    <g id="Layer_1">
      <g>
        <g>
          <g>
            <polygon class="cls-5" points="263.3 167.3 263.3 109.8 272.9 109.8 272.9 97 248.4 97 248.4 77.1 139.8 77.1 139.8 82.1 105.7 82.1 105.7 127.9 69.5 127.9 69.5 178.9 275 178.9 275 167.3 263.3 167.3"/>
            <polygon class="cls-2" points="69.5 178.9 69.5 259.1 90.5 259.1 90.5 296.3 215.4 296.3 215.4 240.8 238.8 240.8 238.8 202.4 275 202.4 275 178.9 69.5 178.9"/>
            <polygon class="cls-1" points="69.5 243.9 69.5 259.1 90.5 259.1 90.5 296.3 215.4 296.3 215.4 243.9 69.5 243.9"/>
            <polygon class="cls-1" points="234 213.3 234 232.9 196.7 232.9 196.7 210.7 162.4 210.7 162.4 192.4 149 192.4 149 206.7 137.1 206.7 137.1 227.6 111.8 227.6 111.8 206.7 79 206.7 79 232.9 69.5 232.9 69.5 256.4 86.4 256.4 86.4 259.1 90.5 259.1 90.5 277.2 108.8 277.2 108.8 257.6 152 257.6 152 281.1 184.8 281.1 184.8 264.2 213.1 264.2 213.1 269.4 215.4 269.4 215.4 240.8 238.8 240.8 238.8 213.3 234 213.3"/>
          </g>
          <rect class="cls-2" x="148.3" y="229.1" width="19.8" height="17"/>
          <rect class="cls-2" x="192.6" y="242.4" width="19.7" height="17"/>
          <rect class="cls-2" x="108.8" y="246.1" width="19.7" height="17"/>
          <polygon class="cls-8" points="263.3 167.3 263.3 136.3 248.9 136.3 248.9 97 248.4 97 248.4 94.5 217.6 94.5 217.6 115.4 171.4 115.4 171.4 129.7 104.3 129.7 104.3 166.3 74.5 166.3 74.5 127.9 69.5 127.9 69.5 192.3 91.6 192.3 91.6 178.9 117.7 178.9 117.7 188.7 141.6 188.7 141.6 178.9 188.5 178.9 188.5 187.8 212.4 187.8 212.4 178.9 275 178.9 275 167.3 263.3 167.3"/>
          <polygon class="cls-9" points="217.6 12.4 217.6 33.3 171.4 33.3 171.4 47.6 139.8 47.6 139.8 82.1 105.7 82.1 105.7 96.8 117.7 96.8 117.7 106.5 141.6 106.5 141.6 96.8 188.5 96.8 188.5 105.7 212.4 105.7 212.4 96.8 248.4 96.8 248.4 12.4 217.6 12.4"/>
        </g>
        <rect class="cls-6" x="69.5" y="296.3" width="164" height="43.5"/>
        <polygon class="cls-3" points="160.5 318.8 160.5 296.3 136.6 296.3 136.6 318.8 69.5 318.8 69.5 339.8 190.1 339.8 190.1 318.8 160.5 318.8"/>
        <polygon class="cls-7" points="173.8 464.1 122.1 464.1 96.1 339.8 199.8 339.8 173.8 464.1"/>
        <polygon class="cls-3" points="161.3 429.8 139.8 429.8 139.8 402.6 155.7 402.6 155.7 365.1 132.6 365.1 132.6 339.8 96.1 339.8 122.1 464.1 161.3 464.1 161.3 429.8"/>
      </g>
    </g>
  </g>
</svg>