<?xml version="1.0" encoding="UTF-8"?>
<svg id="Layer_1" data-name="Layer 1" xmlns="http://www.w3.org/2000/svg" version="1.1" viewBox="0 0 435 172.9">
  <defs>
    <style>
      .cls-1 {
        fill: #000;
      }

      .cls-1, .cls-2, .cls-3, .cls-4, .cls-5, .cls-6, .cls-7, .cls-8, .cls-9, .cls-10, .cls-11, .cls-12 {
        stroke-width: 0px;
      }

      .cls-2 {
        fill: #ffec00;
      }

      .cls-3 {
        fill: #1a1a1a;
      }

      .cls-4 {
        fill: #b3b3b3;
      }

      .cls-5 {
        fill: #821822;
      }

      .cls-6 {
        fill: #35a8e0;
      }

      .cls-7 {
        fill: #530312;
      }

      .cls-8 {
        fill: #91d3f2;
      }

      .cls-9 {
        fill: #f8b133;
      }

      .cls-10 {
        fill: #333;
      }

      .cls-11 {
        fill: #bf3f2a;
      }

      .cls-12 {
        fill: #4d4d4d;
      }
    </style>
  </defs>
  <polygon class="cls-3" points="35.3 126.8 35.3 138.4 47 138.4 58.8 138.4 58.8 126.8 47 126.8 35.3 126.8"/>
  <polygon class="cls-1" points="47 138.4 35.3 138.4 23.5 138.4 23.5 149.9 35.3 149.9 47 149.9 58.8 149.9 58.8 138.4 47 138.4"/>
  <rect class="cls-10" x="23.5" y="126.8" width="11.8" height="11.5"/>
  <rect class="cls-3" x="11.8" y="126.8" width="11.8" height="11.5"/>
  <rect class="cls-10" y="126.8" width="11.8" height="11.5"/>
  <rect class="cls-6" x="129.3" y="23.1" width="11.8" height="11.5"/>
  <polygon class="cls-3" points="399.7 138.4 411.5 138.4 423.2 138.4 423.2 126.8 411.5 126.8 399.7 126.8 399.7 138.4"/>
  <rect class="cls-7" x="399.7" y="103.8" width="11.8" height="11.5"/>
  <polygon class="cls-1" points="411.5 138.4 399.7 138.4 399.7 149.9 411.5 149.9 423.2 149.9 423.2 138.4 411.5 138.4"/>
  <polygon class="cls-7" points="411.5 115.3 411.5 126.8 423.2 126.8 435 126.8 435 115.3 423.2 115.3 411.5 115.3"/>
  <polygon class="cls-5" points="411.5 103.8 411.5 115.3 423.2 115.3 435 115.3 435 103.8 423.2 103.8 411.5 103.8"/>
  <polygon class="cls-9" points="411.5 92.3 411.5 103.8 423.2 103.8 435 103.8 435 92.3 423.2 92.3 411.5 92.3"/>
  <polygon class="cls-2" points="411.5 80.7 411.5 92.3 423.2 92.3 435 92.3 435 80.7 423.2 80.7 411.5 80.7"/>
  <rect class="cls-3" x="423.2" y="138.4" width="11.8" height="11.5"/>
  <rect class="cls-12" x="423.2" y="126.8" width="11.8" height="11.5"/>
  <polygon class="cls-11" points="423.2 69.2 411.5 69.2 399.7 69.2 388 69.2 376.2 69.2 364.4 69.2 352.7 69.2 352.7 57.7 340.9 57.7 340.9 69.2 329.2 69.2 317.4 69.2 305.7 69.2 293.9 69.2 282.2 69.2 270.4 69.2 258.6 69.2 246.9 69.2 235.1 69.2 223.4 69.2 211.6 69.2 199.9 69.2 199.9 57.7 199.9 46.1 199.9 34.6 199.9 23.1 199.9 11.5 211.6 11.5 223.4 11.5 235.1 11.5 246.9 11.5 258.6 11.5 270.4 11.5 282.2 11.5 293.9 11.5 293.9 0 282.2 0 270.4 0 258.6 0 246.9 0 235.1 0 223.4 0 211.6 0 199.9 0 188.1 0 176.4 0 164.6 0 152.8 0 141.1 0 129.3 0 117.6 0 105.8 0 94.1 0 82.3 0 82.3 11.5 94.1 11.5 105.8 11.5 117.6 11.5 129.3 11.5 141.1 11.5 152.8 11.5 164.6 11.5 176.4 11.5 188.1 11.5 188.1 23.1 188.1 34.6 188.1 46.1 188.1 57.7 188.1 69.2 176.4 69.2 164.6 69.2 152.8 69.2 141.1 69.2 129.3 69.2 117.6 69.2 105.8 69.2 94.1 69.2 82.3 69.2 70.5 69.2 58.8 69.2 47 69.2 35.3 69.2 35.3 57.7 23.5 57.7 23.5 69.2 11.8 69.2 11.8 80.7 23.5 80.7 23.5 92.3 35.3 92.3 47 92.3 47 80.7 58.8 80.7 58.8 92.3 58.8 103.8 70.5 103.8 70.5 92.3 70.5 80.7 82.3 80.7 82.3 92.3 94.1 92.3 94.1 80.7 105.8 80.7 117.6 80.7 117.6 92.3 129.3 92.3 129.3 80.7 141.1 80.7 152.8 80.7 164.6 80.7 164.6 92.3 176.4 92.3 188.1 92.3 188.1 80.7 199.9 80.7 199.9 92.3 211.6 92.3 223.4 92.3 235.1 92.3 235.1 80.7 246.9 80.7 246.9 92.3 258.6 92.3 258.6 80.7 270.4 80.7 270.4 92.3 282.2 92.3 293.9 92.3 305.7 92.3 317.4 92.3 317.4 80.7 329.2 80.7 329.2 92.3 340.9 92.3 340.9 103.8 352.7 103.8 352.7 92.3 364.4 92.3 376.2 92.3 376.2 80.7 388 80.7 399.7 80.7 399.7 92.3 411.5 92.3 411.5 80.7 423.2 80.7 435 80.7 435 69.2 423.2 69.2"/>
  <polygon class="cls-7" points="399.7 126.8 388 126.8 388 115.3 376.2 115.3 376.2 126.8 376.2 138.4 364.4 138.4 364.4 149.9 376.2 149.9 388 149.9 399.7 149.9 399.7 138.4 399.7 126.8"/>
  <path class="cls-1" d="M364.4,126.8h-11.8v-11.5h-35.2v11.5h-11.8v34.6h11.8v11.5h35.2v-11.5h11.8s0-34.6,0-34.6ZM340.9,149.9h-11.8v-11.5h11.8v11.5Z"/>
  <rect class="cls-4" x="329.2" y="138.4" width="11.8" height="11.5"/>
  <rect class="cls-11" x="329.2" y="46.1" width="11.8" height="11.5"/>
  <rect class="cls-11" x="317.4" y="92.3" width="11.8" height="11.5"/>
  <rect class="cls-7" x="317.4" y="80.7" width="11.8" height="11.5"/>
  <rect class="cls-11" x="317.4" y="34.6" width="11.8" height="11.5"/>
  <rect class="cls-11" x="305.7" y="23.1" width="11.8" height="11.5"/>
  <path class="cls-5" d="M305.7,126.8h11.8v-11.5h35.2v11.5h11.8v11.5h11.8v-23.1h11.8v11.5h23.5v-11.5h-11.8v-11.5h11.8v-11.5h-11.8v-11.5h-23.5v11.5h-23.5v11.5h-11.8v-11.5h-11.8v11.5h-11.8v-11.5h-47v-11.5h-11.8v11.5h-11.8v11.5h-11.8v-11.5h-35.2v-11.5h-11.8v11.5h-23.5v11.5h-11.8v-11.5h11.8v-11.5h-35.2v11.5h11.8v11.5h-11.8v-11.5h-11.8v11.5h-11.8v-11.5h11.8v-11.5h-23.5v11.5h-11.8v-11.5h-11.8v23.1h-11.8v-23.1h-11.8v11.5H11.8v11.5h11.8v11.5h35.2v11.5h23.5v-11.5h35.2v11.5h11.8v11.5h35.2v-11.5h47v-11.5h11.8v23.1h23.5v-11.5h-11.8v-11.5h11.8v11.5h11.8v11.5h11.8v-11.5h23.5v23.1h11.8v-23.1h0ZM282.2,115.3h-11.8v-11.5h11.8v11.5Z"/>
  <rect class="cls-11" x="293.9" y="11.5" width="11.8" height="11.5"/>
  <polygon class="cls-7" points="293.9 126.8 282.2 126.8 270.4 126.8 270.4 138.4 258.6 138.4 258.6 126.8 246.9 126.8 246.9 138.4 235.1 138.4 223.4 138.4 223.4 126.8 223.4 115.3 211.6 115.3 211.6 126.8 199.9 126.8 188.1 126.8 176.4 126.8 164.6 126.8 164.6 138.4 152.8 138.4 141.1 138.4 129.3 138.4 129.3 149.9 141.1 149.9 152.8 149.9 164.6 149.9 176.4 149.9 188.1 149.9 199.9 149.9 211.6 149.9 223.4 149.9 235.1 149.9 246.9 149.9 258.6 149.9 270.4 149.9 282.2 149.9 293.9 149.9 293.9 138.4 293.9 126.8"/>
  <rect class="cls-7" x="270.4" y="103.8" width="11.8" height="11.5"/>
  <rect class="cls-7" x="235.1" y="115.3" width="11.8" height="11.5"/>
  <rect class="cls-11" x="235.1" y="92.3" width="11.8" height="11.5"/>
  <rect class="cls-5" x="235.1" y="80.7" width="11.8" height="11.5"/>
  <rect class="cls-11" x="152.8" y="92.3" width="11.8" height="11.5"/>
  <rect class="cls-11" x="129.3" y="92.3" width="11.8" height="11.5"/>
  <path class="cls-1" d="M129.3,126.8h-11.8v-11.5h-35.2v11.5h-11.8v34.6h11.8v11.5h35.2v-11.5h11.8s0-34.6,0-34.6ZM105.8,149.9h-11.8v-11.5h11.8v11.5Z"/>
  <rect class="cls-11" x="105.8" y="92.3" width="11.8" height="11.5"/>
  <rect class="cls-4" x="94.1" y="138.4" width="11.8" height="11.5"/>
  <rect class="cls-8" x="82.3" y="46.1" width="11.8" height="11.5"/>
  <rect class="cls-6" x="82.3" y="34.6" width="11.8" height="11.5"/>
  <rect class="cls-11" x="70.5" y="11.5" width="11.8" height="11.5"/>
  <polygon class="cls-7" points="70.5 126.8 58.8 126.8 58.8 138.4 58.8 149.9 70.5 149.9 70.5 138.4 70.5 126.8"/>
  <polygon class="cls-8" points="58.8 57.7 70.5 57.7 70.5 46.1 82.3 46.1 82.3 34.6 94.1 34.6 94.1 46.1 105.8 46.1 105.8 34.6 117.6 34.6 129.3 34.6 129.3 23.1 141.1 23.1 141.1 34.6 129.3 34.6 129.3 46.1 117.6 46.1 117.6 57.7 129.3 57.7 141.1 57.7 141.1 46.1 152.8 46.1 164.6 46.1 176.4 46.1 176.4 57.7 176.4 69.2 188.1 69.2 188.1 57.7 188.1 46.1 188.1 34.6 188.1 23.1 188.1 11.5 176.4 11.5 164.6 11.5 152.8 11.5 141.1 11.5 129.3 11.5 117.6 11.5 105.8 11.5 94.1 11.5 82.3 11.5 82.3 23.1 70.5 23.1 70.5 34.6 58.8 34.6 58.8 46.1 58.8 57.7"/>
  <rect class="cls-11" x="58.8" y="23.1" width="11.8" height="11.5"/>
  <rect class="cls-11" x="47" y="34.6" width="11.8" height="11.5"/>
  <polygon class="cls-7" points="35.3 126.8 47 126.8 58.8 126.8 58.8 115.3 47 115.3 35.3 115.3 23.5 115.3 23.5 126.8 35.3 126.8"/>
  <polygon class="cls-6" points="47 69.2 58.8 69.2 70.5 69.2 82.3 69.2 94.1 69.2 105.8 69.2 117.6 69.2 129.3 69.2 141.1 69.2 152.8 69.2 164.6 69.2 176.4 69.2 176.4 57.7 176.4 46.1 164.6 46.1 152.8 46.1 141.1 46.1 141.1 57.7 129.3 57.7 117.6 57.7 117.6 46.1 129.3 46.1 129.3 34.6 117.6 34.6 105.8 34.6 105.8 46.1 94.1 46.1 94.1 57.7 82.3 57.7 82.3 46.1 70.5 46.1 70.5 57.7 58.8 57.7 58.8 46.1 47 46.1 47 57.7 35.3 57.7 35.3 69.2 47 69.2"/>
  <rect class="cls-11" x="35.3" y="46.1" width="11.8" height="11.5"/>
  <polygon class="cls-7" points="11.8 115.3 23.5 115.3 23.5 103.8 11.8 103.8 11.8 92.3 23.5 92.3 23.5 80.7 11.8 80.7 0 80.7 0 92.3 0 103.8 0 115.3 0 126.8 11.8 126.8 11.8 115.3"/>
  <rect class="cls-5" x="11.8" y="115.3" width="11.8" height="11.5"/>
</svg>