<?xml version="1.0" encoding="UTF-8"?>
<svg xmlns="http://www.w3.org/2000/svg" version="1.1" viewBox="0 0 160 100">
  <defs>
    <style>
      .cls-1 {
        fill: #fff;
      }

      .cls-2 {
        fill: #b1e1f0;
      }
    </style>
  </defs>
  <!-- Generator: Adobe Illustrator 28.6.0, SVG Export Plug-In . SVG Version: 1.2.0 Build 709)  -->
  <g>
    <g id="Layer_1">
      <g id="Layer_1-2" data-name="Layer_1">
        <g>
          <polygon class="cls-2" points="143.8 83.6 143.8 81.1 140.8 81.1 140.8 78.5 137.8 78.5 137.8 75.9 137.8 73.3 134.7 73.3 134.7 70.7 134.7 68.1 134.7 65.5 134.7 62.9 134.7 60.4 134.7 57.8 134.7 55.2 131.7 55.2 131.7 57.8 128.6 57.8 128.6 60.4 125.6 60.4 122.6 60.4 119.5 60.4 116.5 60.4 113.4 60.4 110.4 60.4 110.4 57.8 107.4 57.8 107.4 55.2 104.3 55.2 104.3 52.6 101.3 52.6 101.3 55.2 98.2 55.2 98.2 57.8 98.2 60.4 95.2 60.4 95.2 62.9 92.2 62.9 92.2 65.5 89.1 65.5 89.1 68.1 86.1 68.1 83 68.1 83 70.7 80 70.7 77 70.7 73.9 70.7 70.9 70.7 67.8 70.7 64.8 70.7 61.8 70.7 58.7 70.7 58.7 68.1 55.7 68.1 52.6 68.1 52.6 65.5 49.6 65.5 49.6 62.9 46.6 62.9 46.6 60.4 43.5 60.4 40.5 60.4 40.5 62.9 37.4 62.9 37.4 65.5 34.4 65.5 31.4 65.5 28.3 65.5 25.3 65.5 22.2 65.5 19.2 65.5 19.2 62.9 16.2 62.9 16.2 60.4 13.1 60.4 13.1 57.8 13.1 55.2 10.1 55.2 10.1 52.6 10.1 50 10.1 47.4 10.1 44.8 7.1 44.8 7.1 47.4 7.1 50 7.1 52.6 4 52.6 4 55.2 4 57.8 4 60.4 4 62.9 4 65.5 4 68.1 7.1 68.1 7.1 70.7 7.1 73.3 7.1 75.9 10.1 75.9 10.1 78.5 10.1 81.1 13.1 81.1 13.1 83.6 16.2 83.6 16.2 86.2 19.2 86.2 22.2 86.2 22.2 88.8 25.3 88.8 28.3 88.8 31.4 88.8 34.4 88.8 37.4 88.8 40.5 88.8 43.5 88.8 46.6 88.8 49.6 88.8 52.6 88.8 55.7 88.8 58.7 88.8 61.8 88.8 64.8 88.8 67.8 88.8 70.9 88.8 73.9 88.8 77 88.8 80 88.8 83 88.8 86.1 88.8 89.1 88.8 92.2 88.8 95.2 88.8 98.2 88.8 101.3 88.8 104.3 88.8 107.4 88.8 110.4 88.8 113.4 88.8 116.5 88.8 119.5 88.8 122.6 88.8 125.6 88.8 128.6 88.8 131.7 88.8 134.7 88.8 137.8 88.8 140.8 88.8 143.8 88.8 143.8 86.2 146.9 86.2 146.9 83.6 143.8 83.6"/>
          <polygon class="cls-1" points="152.9 60.4 152.9 57.8 152.9 55.2 149.9 55.2 149.9 52.6 146.9 52.6 146.9 50 143.8 50 143.8 47.4 140.8 47.4 137.8 47.4 134.7 47.4 134.7 44.8 134.7 42.2 134.7 39.6 131.7 39.6 131.7 37.1 131.7 34.5 131.7 31.9 128.6 31.9 128.6 29.3 125.6 29.3 125.6 26.7 122.6 26.7 122.6 24.1 119.5 24.1 119.5 21.5 116.5 21.5 113.4 21.5 110.4 21.5 107.4 21.5 104.3 21.5 101.3 21.5 98.2 21.5 95.2 21.5 95.2 24.1 92.2 24.1 92.2 21.5 92.2 18.9 89.1 18.9 89.1 16.4 86.1 16.4 83 16.4 83 13.8 80 13.8 80 11.2 77 11.2 73.9 11.2 70.9 11.2 67.8 11.2 64.8 11.2 61.8 11.2 61.8 13.8 58.7 13.8 55.7 13.8 55.7 16.4 52.6 16.4 52.6 18.9 49.6 18.9 49.6 21.5 46.6 21.5 46.6 24.1 43.5 24.1 43.5 26.7 43.5 29.3 43.5 31.9 40.5 31.9 37.4 31.9 34.4 31.9 31.4 31.9 28.3 31.9 25.3 31.9 22.2 31.9 22.2 34.5 19.2 34.5 16.2 34.5 16.2 37.1 13.1 37.1 13.1 39.6 10.1 39.6 10.1 42.2 10.1 44.8 10.1 47.4 10.1 50 10.1 52.6 10.1 55.2 13.1 55.2 13.1 57.8 13.1 60.4 16.2 60.4 16.2 62.9 19.2 62.9 19.2 65.5 22.2 65.5 25.3 65.5 28.3 65.5 31.4 65.5 34.4 65.5 37.4 65.5 37.4 62.9 40.5 62.9 40.5 60.4 43.5 60.4 46.6 60.4 46.6 62.9 49.6 62.9 49.6 65.5 52.6 65.5 52.6 68.1 55.7 68.1 58.7 68.1 58.7 70.7 61.8 70.7 64.8 70.7 67.8 70.7 70.9 70.7 73.9 70.7 77 70.7 80 70.7 83 70.7 83 68.1 86.1 68.1 89.1 68.1 89.1 65.5 92.2 65.5 92.2 62.9 95.2 62.9 95.2 60.4 98.2 60.4 98.2 57.8 98.2 55.2 101.3 55.2 101.3 52.6 104.3 52.6 104.3 55.2 107.4 55.2 107.4 57.8 110.4 57.8 110.4 60.4 113.4 60.4 116.5 60.4 119.5 60.4 122.6 60.4 125.6 60.4 128.6 60.4 128.6 57.8 131.7 57.8 131.7 55.2 134.7 55.2 134.7 57.8 134.7 60.4 134.7 62.9 134.7 65.5 134.7 68.1 134.7 70.7 134.7 73.3 137.8 73.3 137.8 75.9 137.8 78.5 140.8 78.5 140.8 81.1 143.8 81.1 143.8 83.6 146.9 83.6 146.9 86.2 149.9 86.2 149.9 83.6 149.9 81.1 152.9 81.1 152.9 78.5 156 78.5 156 75.9 156 73.3 156 70.7 156 68.1 156 65.5 156 62.9 156 60.4 152.9 60.4"/>
        </g>
      </g>
    </g>
  </g>
</svg>