<?xml version="1.0" encoding="UTF-8"?>
<svg xmlns="http://www.w3.org/2000/svg" version="1.1" viewBox="0 0 48 52">
  <defs>
    <style>
      .cls-1 {
        fill: #fcca24;
      }

      .cls-2 {
        fill: #fff;
      }

      .cls-3 {
        fill: #231f20;
      }

      .cls-4 {
        fill: #f6ebc6;
      }

      .cls-5 {
        fill: #f2a12c;
      }
    </style>
  </defs>
  <!-- Generator: Adobe Illustrator 28.6.0, SVG Export Plug-In . SVG Version: 1.2.0 Build 709)  -->
  <g>
    <g id="Layer_1">
      <g id="Layer_1-2" data-name="Layer_1">
        <g>
          <rect class="cls-5" x="38.1" y="41.2" width="1.6" height="1.5"/>
          <rect class="cls-5" x="39.6" y="36.8" width="1.6" height="1.5"/>
          <rect class="cls-4" x="8.4" y="22.3" width="1.6" height="1.5"/>
          <polygon class="cls-5" points="45.9 17.9 44.3 17.9 42.8 17.9 41.2 17.9 41.2 19.3 41.2 20.8 41.2 22.3 41.2 23.7 41.2 25.2 41.2 26.6 41.2 28.1 41.2 29.6 41.2 31 41.2 32.5 41.2 33.9 39.6 33.9 39.6 35.4 39.6 36.8 41.2 36.8 41.2 38.3 39.6 38.3 39.6 36.8 38.1 36.8 38.1 38.3 36.5 38.3 36.5 39.8 34.9 39.8 34.9 41.2 34.9 42.7 33.4 42.7 31.8 42.7 31.8 44.1 30.2 44.1 30.2 45.6 28.7 45.6 27.1 45.6 27.1 47.1 28.7 47.1 30.2 47.1 31.8 47.1 33.4 47.1 33.4 45.6 34.9 45.6 36.5 45.6 36.5 44.1 38.1 44.1 38.1 42.7 38.1 41.2 39.6 41.2 39.6 42.7 41.2 42.7 41.2 41.2 41.2 39.8 42.8 39.8 42.8 38.3 44.3 38.3 44.3 36.8 44.3 35.4 45.9 35.4 45.9 33.9 45.9 32.5 47.4 32.5 47.4 31 47.4 29.6 47.4 28.1 47.4 26.6 47.4 25.2 47.4 23.7 47.4 22.3 47.4 20.8 47.4 19.3 47.4 17.9 45.9 17.9"/>
          <polygon class="cls-3" points="30.2 45.6 30.2 45.6 27.1 45.6 27.1 47.1 33.4 47.1 33.4 45.6 36.5 45.6 36.5 45.6 30.2 45.6"/>
          <rect class="cls-2" x="38.1" y="13.5" width="1.6" height="1.5"/>
          <g>
            <path class="cls-1" d="M38.1,17.9v-4.4h-1.6v-1.5h-1.6v-1.5h-1.6v-1.5h-1.6v-1.5h-1.6v-1.5h-3.1v-1.5h-12.5v1.5h-3.1v1.5h-1.6v1.5h-1.6v1.5h-1.6v1.5h-1.6v2.9h-1.6v2.9h-1.6v14.6h1.6v2.9h1.6v2.9h1.6v1.5h1.6v1.5h1.6v1.5h1.6v1.5h3.1v1.5h12.5v-1.5h3.1v-1.5h1.6v-1.5h1.6v-1.5h1.6v-1.5h1.6v-1.5h1.6v-2.9h1.6v-16h-1.6ZM8.4,19.3v-2.9h1.6v-1.5h1.6v-1.5h1.6v-1.5h1.6v-1.5h12.5v1.5h1.6v1.5h1.6v1.5h1.6v1.5h1.6v2.9h1.6v11.7h-1.6v2.9h-1.6v1.5h-1.6v1.5h-1.6v1.5h-1.6v1.5h-12.5v-1.5h-1.6v-1.5h-1.6v-1.5h-1.6v-1.5h-1.6v-2.9h-1.6v-11.7h1.6,0Z"/>
            <polygon class="cls-1" points="11.5 17.9 9.9 17.9 9.9 19.3 9.9 20.8 9.9 22.3 9.9 23.7 9.9 25.2 9.9 26.6 9.9 28.1 9.9 29.6 11.5 29.6 11.5 31 11.5 32.5 13.1 32.5 13.1 33.9 14.6 33.9 14.6 35.4 16.2 35.4 17.8 35.4 17.8 36.8 19.3 36.8 20.9 36.8 22.4 36.8 24 36.8 25.6 36.8 25.6 35.4 27.1 35.4 28.7 35.4 28.7 33.9 30.2 33.9 30.2 32.5 31.8 32.5 31.8 31 31.8 29.6 33.4 29.6 33.4 28.1 33.4 26.6 33.4 25.2 33.4 23.7 33.4 22.3 33.4 20.8 31.8 20.8 31.8 19.3 31.8 17.9 31.8 16.4 30.2 16.4 30.2 15 28.7 15 28.7 13.5 27.1 13.5 25.6 13.5 25.6 12 24 12 22.4 12 20.9 12 19.3 12 17.8 12 16.2 12 16.2 13.5 14.6 13.5 13.1 13.5 13.1 15 11.5 15 11.5 16.4 11.5 17.9"/>
          </g>
          <g>
            <polygon class="cls-5" points="44.3 13.5 44.3 12 44.3 10.6 42.8 10.6 42.8 12 41.2 12 39.6 12 39.6 13.5 39.6 15 39.6 16.4 41.2 16.4 41.2 15 42.8 15 44.3 15 44.3 16.4 44.3 17.9 45.9 17.9 45.9 16.4 45.9 15 45.9 13.5 44.3 13.5"/>
            <polygon class="cls-5" points="41.2 9.1 41.2 7.7 39.6 7.7 38.1 7.7 38.1 6.2 36.5 6.2 36.5 4.7 34.9 4.7 33.4 4.7 33.4 3.3 31.8 3.3 30.2 3.3 28.7 3.3 27.1 3.3 27.1 4.7 28.7 4.7 30.2 4.7 30.2 6.2 31.8 6.2 31.8 7.7 33.4 7.7 33.4 9.1 34.9 9.1 34.9 10.6 36.5 10.6 38.1 10.6 39.6 10.6 41.2 10.6 42.8 10.6 42.8 9.1 41.2 9.1"/>
          </g>
          <polygon class="cls-5" points="44.3 13.5 44.3 12 44.3 10.6 42.8 10.6 42.8 12 41.2 12 39.6 12 39.6 13.5 39.6 15 39.6 16.4 41.2 16.4 41.2 15 42.8 15 44.3 15 44.3 16.4 44.3 17.9 45.9 17.9 45.9 16.4 45.9 15 45.9 13.5 44.3 13.5"/>
          <g>
            <polygon class="cls-3" points="41.2 12 41.2 12 41.2 12 39.6 12 39.6 12 41.2 12"/>
            <polygon class="cls-3" points="44.3 13.5 44.3 12 44.3 10.6 42.8 10.6 42.8 10.6 42.8 10.6 42.8 12 42.8 13.5 44.3 13.5 44.3 15 44.3 15 44.3 16.4 44.3 17.9 45.9 17.9 45.9 16.4 45.9 15 45.9 13.5 44.3 13.5"/>
          </g>
          <g>
            <rect class="cls-3" x="36.5" y="6.2" width="1.6" height="1.5"/>
            <polygon class="cls-3" points="38.1 9.1 39.6 9.1 41.2 9.1 41.2 7.7 39.6 7.7 38.1 7.7 38.1 9.1"/>
            <polygon class="cls-3" points="34.9 6.2 36.5 6.2 36.5 4.7 34.9 4.7 33.4 4.7 33.4 6.2 34.9 6.2"/>
            <rect class="cls-3" x="41.2" y="9.1" width="1.6" height="1.5"/>
            <polygon class="cls-3" points="34.9 10.6 34.9 10.6 34.9 10.6 34.9 10.6"/>
            <polygon class="cls-3" points="28.7 4.7 28.7 4.7 30.2 4.7 30.2 4.7 31.8 4.7 33.4 4.7 33.4 3.3 31.8 3.3 30.2 3.3 28.7 3.3 27.1 3.3 27.1 4.7 27.1 4.7 28.7 4.7"/>
            <polygon class="cls-3" points="31.8 7.7 31.8 7.7 31.8 7.7 31.8 7.7"/>
            <polygon class="cls-3" points="30.2 6.2 30.2 6.2 30.2 6.2 30.2 6.2"/>
          </g>
          <g>
            <polygon class="cls-3" points="34.9 39.8 34.9 39.8 34.9 39.8 34.9 39.8"/>
            <polygon class="cls-3" points="33.4 42.7 33.4 42.7 31.8 42.7 31.8 42.7 31.8 42.7 33.4 42.7"/>
            <polygon class="cls-3" points="36.5 38.3 36.5 38.3 36.5 38.3 36.5 38.3"/>
            <polygon class="cls-3" points="27.1 45.6 28.7 45.6 28.7 45.6 28.7 45.6 27.1 45.6 27.1 45.6"/>
            <polygon class="cls-3" points="39.6 36.8 38.1 36.8 38.1 38.3 38.1 38.3 38.1 38.3 39.6 38.3 39.6 36.8"/>
            <polygon class="cls-3" points="42.8 17.9 42.8 17.9 42.8 17.9 41.2 17.9 41.2 17.9 41.2 17.9 42.8 17.9"/>
            <polygon class="cls-3" points="45.9 17.9 44.3 17.9 44.3 17.9 44.3 17.9 45.9 17.9 45.9 19.3 45.9 20.8 45.9 22.3 45.9 23.7 45.9 25.2 45.9 26.6 45.9 28.1 45.9 29.6 45.9 31 45.9 32.5 47.4 32.5 47.4 31 47.4 29.6 47.4 28.1 47.4 26.6 47.4 25.2 47.4 23.7 47.4 22.3 47.4 20.8 47.4 19.3 47.4 17.9 45.9 17.9"/>
            <polygon class="cls-3" points="39.6 39.8 39.6 41.2 39.6 41.2 39.6 42.7 41.2 42.7 41.2 41.2 41.2 39.8 39.6 39.8"/>
            <rect class="cls-3" x="41.2" y="38.3" width="1.6" height="1.5"/>
            <polygon class="cls-3" points="44.3 32.5 44.3 33.9 44.3 35.4 42.8 35.4 42.8 36.8 42.8 38.3 44.3 38.3 44.3 36.8 44.3 35.4 45.9 35.4 45.9 33.9 45.9 32.5 44.3 32.5"/>
            <polygon class="cls-3" points="33.4 45.6 31.8 45.6 31.8 47.1 33.4 47.1 33.4 45.6 33.4 45.6"/>
            <polygon class="cls-3" points="38.1 42.7 38.1 41.2 36.5 41.2 36.5 42.7 36.5 44.1 38.1 44.1 38.1 42.7 38.1 42.7"/>
            <rect class="cls-3" x="34.9" y="44.1" width="1.6" height="1.5"/>
          </g>
          <g>
            <polygon class="cls-3" points="27.1 44.1 27.1 45.6 25.6 45.6 24 45.6 22.4 45.6 20.9 45.6 19.3 45.6 17.8 45.6 16.2 45.6 14.6 45.6 14.6 47.1 16.2 47.1 17.8 47.1 19.3 47.1 20.9 47.1 22.4 47.1 24 47.1 25.6 47.1 27.1 47.1 27.1 45.6 28.7 45.6 30.2 45.6 30.2 44.1 28.7 44.1 27.1 44.1"/>
            <rect class="cls-3" x="30.2" y="42.7" width="1.6" height="1.5"/>
            <polygon class="cls-3" points="33.4 41.2 31.8 41.2 31.8 42.7 33.4 42.7 34.9 42.7 34.9 41.2 34.9 39.8 33.4 39.8 33.4 41.2"/>
            <rect class="cls-3" x="34.9" y="38.3" width="1.6" height="1.5"/>
            <rect class="cls-3" x="36.5" y="36.8" width="1.6" height="1.5"/>
            <polygon class="cls-3" points="38.1 35.4 38.1 36.8 39.6 36.8 39.6 35.4 39.6 33.9 38.1 33.9 38.1 35.4"/>
            <polygon class="cls-3" points="39.6 19.3 39.6 20.8 39.6 22.3 39.6 23.7 39.6 25.2 39.6 26.6 39.6 28.1 39.6 29.6 39.6 31 39.6 32.5 39.6 33.9 41.2 33.9 41.2 32.5 41.2 31 41.2 29.6 41.2 28.1 41.2 26.6 41.2 25.2 41.2 23.7 41.2 22.3 41.2 20.8 41.2 19.3 39.6 19.3"/>
            <polygon class="cls-3" points="38.1 16.4 38.1 17.9 39.6 17.9 39.6 16.4 39.6 15 38.1 15 38.1 16.4"/>
            <rect class="cls-3" x="36.5" y="12" width="1.6" height="1.5"/>
            <rect class="cls-3" x="28.7" y="35.4" width="1.6" height="1.5"/>
            <polygon class="cls-3" points="31.8 19.3 31.8 20.8 33.4 20.8 33.4 20.8 33.4 22.3 33.4 23.7 33.4 25.2 33.4 26.6 33.4 28.1 33.4 29.6 33.4 29.6 31.8 29.6 31.8 31 31.8 32.5 30.2 32.5 30.2 33.9 30.2 35.4 31.8 35.4 31.8 33.9 33.4 33.9 33.4 32.5 33.4 31 34.9 31 34.9 29.6 34.9 28.1 34.9 26.6 34.9 25.2 34.9 23.7 34.9 22.3 34.9 20.8 34.9 19.3 33.4 19.3 33.4 19.3 33.4 17.9 33.4 16.4 31.8 16.4 31.8 17.9 31.8 19.3"/>
            <rect class="cls-3" x="30.2" y="15" width="1.6" height="1.5"/>
            <rect class="cls-3" x="28.7" y="13.5" width="1.6" height="1.5"/>
            <rect class="cls-3" x="34.9" y="10.6" width="1.6" height="1.5"/>
            <rect class="cls-3" x="33.4" y="9.1" width="1.6" height="1.5"/>
            <rect class="cls-3" x="31.8" y="7.7" width="1.6" height="1.5"/>
            <rect class="cls-3" x="30.2" y="6.2" width="1.6" height="1.5"/>
            <polygon class="cls-3" points="27.1 6.2 28.7 6.2 30.2 6.2 30.2 4.7 28.7 4.7 27.1 4.7 27.1 6.2"/>
            <polygon class="cls-3" points="13.1 44.1 11.5 44.1 11.5 45.6 13.1 45.6 14.6 45.6 14.6 44.1 13.1 44.1"/>
            <rect class="cls-3" x="9.9" y="42.7" width="1.6" height="1.5"/>
            <polygon class="cls-3" points="8.4 41.2 8.4 39.8 6.8 39.8 6.8 41.2 6.8 42.7 8.4 42.7 9.9 42.7 9.9 41.2 8.4 41.2"/>
            <rect class="cls-3" x="5.3" y="38.3" width="1.6" height="1.5"/>
            <polygon class="cls-3" points="16.2 39.8 17.8 39.8 19.3 39.8 20.9 39.8 22.4 39.8 24 39.8 25.6 39.8 27.1 39.8 27.1 38.3 28.7 38.3 28.7 36.8 27.1 36.8 25.6 36.8 25.6 38.3 24 38.3 22.4 38.3 20.9 38.3 19.3 38.3 17.8 38.3 16.2 38.3 16.2 36.8 14.6 36.8 13.1 36.8 13.1 38.3 14.6 38.3 14.6 39.8 16.2 39.8"/>
            <rect class="cls-3" x="11.5" y="35.4" width="1.6" height="1.5"/>
            <polygon class="cls-3" points="5.3 35.4 3.7 35.4 3.7 36.8 3.7 38.3 5.3 38.3 5.3 36.8 5.3 35.4"/>
            <polygon class="cls-3" points="3.7 32.5 2.1 32.5 2.1 33.9 2.1 35.4 3.7 35.4 3.7 33.9 3.7 32.5"/>
            <polygon class="cls-3" points="2.1 29.6 2.1 28.1 2.1 26.6 2.1 25.2 2.1 23.7 2.1 22.3 2.1 20.8 2.1 19.3 .6 19.3 .6 20.8 .6 22.3 .6 23.7 .6 25.2 .6 26.6 .6 28.1 .6 29.6 .6 31 2.1 31 2.1 29.6"/>
            <polygon class="cls-3" points="11.5 32.5 9.9 32.5 9.9 31 9.9 29.6 8.4 29.6 8.4 28.1 8.4 26.6 8.4 25.2 8.4 23.7 8.4 22.3 8.4 20.8 9.9 20.8 9.9 19.3 9.9 17.9 11.5 17.9 11.5 16.4 11.5 15 9.9 15 9.9 16.4 8.4 16.4 8.4 17.9 8.4 19.3 6.8 19.3 6.8 20.8 6.8 22.3 6.8 23.7 6.8 25.2 6.8 26.6 6.8 28.1 6.8 29.6 6.8 31 8.4 31 8.4 32.5 8.4 33.9 9.9 33.9 9.9 35.4 11.5 35.4 11.5 33.9 11.5 32.5"/>
            <polygon class="cls-3" points="3.7 16.4 3.7 15 2.1 15 2.1 16.4 2.1 17.9 3.7 17.9 3.7 16.4"/>
            <rect class="cls-3" x="11.5" y="13.5" width="1.6" height="1.5"/>
            <polygon class="cls-3" points="5.3 13.5 5.3 12 3.7 12 3.7 13.5 3.7 15 5.3 15 5.3 13.5"/>
            <polygon class="cls-3" points="16.2 13.5 16.2 12 17.8 12 19.3 12 20.9 12 22.4 12 24 12 25.6 12 25.6 13.5 27.1 13.5 28.7 13.5 28.7 12 27.1 12 27.1 10.6 25.6 10.6 24 10.6 22.4 10.6 20.9 10.6 19.3 10.6 17.8 10.6 16.2 10.6 14.6 10.6 14.6 12 13.1 12 13.1 13.5 14.6 13.5 16.2 13.5"/>
            <rect class="cls-3" x="5.3" y="10.6" width="1.6" height="1.5"/>
            <rect class="cls-3" x="6.8" y="9.1" width="1.6" height="1.5"/>
            <rect class="cls-3" x="8.4" y="7.7" width="1.6" height="1.5"/>
            <rect class="cls-3" x="9.9" y="6.2" width="1.6" height="1.5"/>
            <polygon class="cls-3" points="14.6 6.2 14.6 4.7 13.1 4.7 11.5 4.7 11.5 6.2 13.1 6.2 14.6 6.2"/>
            <polygon class="cls-3" points="17.8 4.7 19.3 4.7 20.9 4.7 22.4 4.7 24 4.7 25.6 4.7 27.1 4.7 27.1 3.3 25.6 3.3 24 3.3 22.4 3.3 20.9 3.3 19.3 3.3 17.8 3.3 16.2 3.3 14.6 3.3 14.6 4.7 16.2 4.7 17.8 4.7"/>
          </g>
          <g>
            <polygon class="cls-2" points="42.8 15 41.2 15 41.2 16.4 39.6 16.4 39.6 17.9 39.6 19.3 41.2 19.3 41.2 17.9 42.8 17.9 44.3 17.9 44.3 16.4 44.3 15 42.8 15"/>
            <polygon class="cls-2" points="41.2 10.6 39.6 10.6 38.1 10.6 36.5 10.6 36.5 12 38.1 12 38.1 13.5 39.6 13.5 39.6 12 41.2 12 42.8 12 42.8 10.6 41.2 10.6"/>
            <polygon class="cls-2" points="22.4 36.8 20.9 36.8 19.3 36.8 17.8 36.8 17.8 35.4 16.2 35.4 14.6 35.4 14.6 33.9 13.1 33.9 13.1 32.5 11.5 32.5 11.5 33.9 11.5 35.4 13.1 35.4 13.1 36.8 14.6 36.8 16.2 36.8 16.2 38.3 17.8 38.3 19.3 38.3 20.9 38.3 22.4 38.3 24 38.3 25.6 38.3 25.6 36.8 24 36.8 22.4 36.8"/>
            <polygon class="cls-2" points="25.6 35.4 25.6 36.8 27.1 36.8 28.7 36.8 28.7 35.4 27.1 35.4 25.6 35.4"/>
            <rect class="cls-2" x="28.7" y="33.9" width="1.6" height="1.5"/>
            <polygon class="cls-2" points="11.5 29.6 9.9 29.6 9.9 31 9.9 32.5 11.5 32.5 11.5 31 11.5 29.6"/>
            <polygon class="cls-2" points="9.9 26.6 9.9 25.2 9.9 23.7 8.4 23.7 8.4 25.2 8.4 26.6 8.4 28.1 8.4 29.6 9.9 29.6 9.9 28.1 9.9 26.6"/>
            <rect class="cls-2" x="8.4" y="20.8" width="1.6" height="1.5"/>
          </g>
        </g>
      </g>
    </g>
  </g>
</svg>