<?xml version="1.0" encoding="UTF-8"?>
<svg id="Layer_1" data-name="Layer 1" xmlns="http://www.w3.org/2000/svg" version="1.1" xmlns:xlink="http://www.w3.org/1999/xlink" viewBox="0 0 1920 1080">
  <defs>
    <style>
      .cls-1 {
        fill: #40595c;
      }

      .cls-1, .cls-2, .cls-3, .cls-4, .cls-5, .cls-6, .cls-7, .cls-8, .cls-9, .cls-10, .cls-11, .cls-12, .cls-13, .cls-14, .cls-15, .cls-16, .cls-17, .cls-18, .cls-19, .cls-20, .cls-21, .cls-22, .cls-23, .cls-24, .cls-25, .cls-26, .cls-27, .cls-28, .cls-29, .cls-30, .cls-31, .cls-32, .cls-33, .cls-34, .cls-35, .cls-36, .cls-37, .cls-38, .cls-39, .cls-40, .cls-41, .cls-42, .cls-43, .cls-44, .cls-45, .cls-46, .cls-47, .cls-48, .cls-49, .cls-50, .cls-51, .cls-52, .cls-53, .cls-54, .cls-55, .cls-56, .cls-57, .cls-58, .cls-59, .cls-60, .cls-61, .cls-62, .cls-63, .cls-64, .cls-65, .cls-66, .cls-67, .cls-68, .cls-69, .cls-70, .cls-71, .cls-72 {
        stroke-width: 0px;
      }

      .cls-2 {
        fill: #4e8790;
      }

      .cls-3 {
        fill: #1e555e;
      }

      .cls-4 {
        fill: #40575b;
      }

      .cls-5 {
        fill: #1a484f;
      }

      .cls-6 {
        fill: #436269;
      }

      .cls-7 {
        fill: #294e53;
      }

      .cls-8 {
        fill: #648a97;
      }

      .cls-9 {
        fill: #2e5352;
      }

      .cls-10 {
        fill: #657479;
      }

      .cls-11 {
        fill: #979e9f;
      }

      .cls-12 {
        fill: #53899a;
      }

      .cls-13 {
        fill: #acb2b9;
      }

      .cls-14 {
        fill: #b2e2f1;
      }

      .cls-15 {
        fill: #1e535b;
      }

      .cls-16 {
        fill: #1a4a51;
      }

      .cls-17 {
        fill: #284a4c;
      }

      .cls-18 {
        fill: #20545d;
      }

      .cls-19 {
        fill: #c0ccd3;
      }

      .cls-20 {
        fill: #7c919b;
      }

      .cls-21 {
        fill: #183e42;
      }

      .cls-22 {
        fill: #e3e6ea;
      }

      .cls-23 {
        fill: #6693a4;
      }

      .cls-24 {
        fill: #1d545c;
      }

      .cls-25 {
        fill: #d4d7dc;
      }

      .cls-26 {
        fill: none;
      }

      .cls-27 {
        fill: #1e5159;
      }

      .cls-28 {
        fill: #1b5159;
      }

      .cls-29 {
        fill: #999b9e;
      }

      .cls-30 {
        fill: #ced1d7;
      }

      .cls-31 {
        fill: #558a9c;
      }

      .cls-32 {
        fill: #27626e;
      }

      .cls-33 {
        fill: #bec0c2;
      }

      .cls-34 {
        fill: #1b4d54;
      }

      .cls-35 {
        fill: #426167;
      }

      .cls-36 {
        fill: #1c4e55;
      }

      .cls-37 {
        fill: #1d525a;
      }

      .cls-38 {
        fill: #1c4b52;
      }

      .cls-39 {
        fill: #7f939d;
      }

      .cls-40 {
        fill: #2d4d51;
      }

      .cls-41 {
        fill: #33565b;
      }

      .cls-42 {
        fill: #1d525b;
      }

      .cls-43 {
        fill: #588c9e;
      }

      .cls-44 {
        fill: #2b5156;
      }

      .cls-73 {
        clip-path: url(#clippath);
      }

      .cls-45 {
        fill: #748b94;
      }

      .cls-46 {
        fill: #a32e1a;
      }

      .cls-47 {
        fill: #dde3e8;
      }

      .cls-48 {
        fill: #4c6971;
      }

      .cls-49 {
        fill: #aebcc5;
      }

      .cls-50 {
        fill: #627276;
      }

      .cls-51 {
        fill: #516e74;
      }

      .cls-52 {
        fill: #292728;
      }

      .cls-53 {
        fill: #768f99;
      }

      .cls-54 {
        fill: #fff;
      }

      .cls-55 {
        fill: #387d90;
      }

      .cls-56 {
        fill: #5f6f73;
      }

      .cls-57 {
        fill: #1b4f55;
      }

      .cls-58 {
        fill: #365a60;
      }

      .cls-59 {
        fill: #759eae;
      }

      .cls-60 {
        fill: #1c4e54;
      }

      .cls-61 {
        fill: #6191a2;
      }

      .cls-62 {
        fill: #b1b7be;
      }

      .cls-63 {
        fill: #d4dde2;
      }

      .cls-64 {
        fill: #f04930;
      }

      .cls-65 {
        fill: #1b4950;
      }

      .cls-66 {
        fill: #506367;
      }

      .cls-67 {
        fill: #627c84;
      }

      .cls-68 {
        fill: #85a7b6;
      }

      .cls-69 {
        fill: #294b4f;
      }

      .cls-70 {
        fill: #284f54;
      }

      .cls-71 {
        fill: #1b4d53;
      }

      .cls-72 {
        fill: #20565e;
      }
    </style>
    <clipPath id="clippath">
      <rect class="cls-26" x=".7" width="1919.3" height="1076.3"/>
    </clipPath>
  </defs>
  <g class="cls-73">
    <g>
      <polygon class="cls-14" points="-10.8 1080.7 -10.8 1079.3 -1.8 1079.3 -1.8 1071.6 -10.8 1071.6 -10.8 1064 -19.9 1064 -19.9 1056.3 -28.9 1056.3 -28.9 1040.9 -37.9 1040.9 -37.9 987.1 -46.9 987.1 -46.9 994.8 -56 994.8 -56 1002.5 -110.1 1002.5 -110.1 994.8 -119.2 994.8 -119.2 987.1 -128.2 987.1 -128.2 979.4 -137.2 979.4 -137.2 987.1 -146.2 987.1 -146.2 1002.5 -155.3 1002.5 -155.3 1010.1 -164.3 1010.1 -164.3 1017.8 -173.3 1017.8 -173.3 1025.5 -191.4 1025.5 -191.4 1033.2 -263.6 1033.2 -263.6 1025.5 -281.6 1025.5 -281.6 1017.8 -290.7 1017.8 -290.7 1010.1 -299.7 1010.1 -299.7 1002.5 -317.7 1002.5 -317.7 1010.1 -326.8 1010.1 -326.8 1017.8 -344.1 1017.8 -344.1 1080.7 -10.8 1080.7"/>
      <polygon class="cls-54" points="16.2 1002.5 16.2 987.1 7.2 987.1 7.2 979.4 -1.8 979.4 -1.8 971.7 -10.8 971.7 -10.8 964 -37.9 964 -37.9 940.9 -46.9 940.9 -46.9 917.9 -56 917.9 -56 910.2 -65 910.2 -65 902.5 -74 902.5 -74 894.8 -83.1 894.8 -83.1 887.1 -155.3 887.1 -155.3 894.8 -164.3 894.8 -164.3 879.4 -173.3 879.4 -173.3 871.8 -191.4 871.8 -191.4 864.1 -200.4 864.1 -200.4 856.4 -254.6 856.4 -254.6 864.1 -272.6 864.1 -272.6 871.8 -281.6 871.8 -281.6 879.4 -290.7 879.4 -290.7 887.1 -299.7 887.1 -299.7 894.8 -308.7 894.8 -308.7 917.9 -344.1 917.9 -344.1 1017.8 -326.8 1017.8 -326.8 1010.1 -317.7 1010.1 -317.7 1002.5 -299.7 1002.5 -299.7 1010.1 -290.7 1010.1 -290.7 1017.8 -281.6 1017.8 -281.6 1025.5 -263.6 1025.5 -263.6 1033.2 -191.4 1033.2 -191.4 1025.5 -173.3 1025.5 -173.3 1017.8 -164.3 1017.8 -164.3 1010.1 -155.3 1010.1 -155.3 1002.5 -146.2 1002.5 -146.2 987.1 -137.2 987.1 -137.2 979.4 -128.2 979.4 -128.2 987.1 -119.2 987.1 -119.2 994.8 -110.1 994.8 -110.1 1002.5 -56 1002.5 -56 994.8 -46.9 994.8 -46.9 987.1 -37.9 987.1 -37.9 1040.9 -28.9 1040.9 -28.9 1056.3 -19.9 1056.3 -19.9 1064 -10.8 1064 -10.8 1071.6 -1.8 1071.6 -1.8 1079.3 7.2 1079.3 7.2 1064 16.2 1064 16.2 1056.3 25.3 1056.3 25.3 1002.5 16.2 1002.5"/>
    </g>
    <g>
      <polygon class="cls-14" points="1137.2 1080 1137.2 1078.6 1146.3 1078.6 1146.3 1070.9 1137.2 1070.9 1137.2 1063.3 1128.2 1063.3 1128.2 1055.6 1119.2 1055.6 1119.2 1040.2 1110.2 1040.2 1110.2 986.4 1101.1 986.4 1101.1 994.1 1092.1 994.1 1092.1 1001.8 1038 1001.8 1038 994.1 1028.9 994.1 1028.9 986.4 1019.9 986.4 1019.9 978.7 1010.9 978.7 1010.9 986.4 1001.8 986.4 1001.8 1001.8 992.8 1001.8 992.8 1009.4 983.8 1009.4 983.8 1017.1 974.8 1017.1 974.8 1024.8 956.7 1024.8 956.7 1032.5 884.5 1032.5 884.5 1024.8 866.4 1024.8 866.4 1017.1 857.4 1017.1 857.4 1009.4 848.4 1009.4 848.4 1001.8 830.3 1001.8 830.3 1009.4 821.3 1009.4 821.3 1017.1 803.9 1017.1 803.9 1080 1137.2 1080"/>
      <polygon class="cls-54" points="1164.3 1001.8 1164.3 986.4 1155.3 986.4 1155.3 978.7 1146.3 978.7 1146.3 971 1137.2 971 1137.2 963.3 1110.2 963.3 1110.2 940.2 1101.1 940.2 1101.1 917.2 1092.1 917.2 1092.1 909.5 1083.1 909.5 1083.1 901.8 1074.1 901.8 1074.1 894.1 1065 894.1 1065 886.4 992.8 886.4 992.8 894.1 983.8 894.1 983.8 878.7 974.8 878.7 974.8 871.1 956.7 871.1 956.7 863.4 947.7 863.4 947.7 855.7 893.5 855.7 893.5 863.4 875.5 863.4 875.5 871.1 866.4 871.1 866.4 878.7 857.4 878.7 857.4 886.4 848.4 886.4 848.4 894.1 839.4 894.1 839.4 917.2 803.9 917.2 803.9 1017.1 821.3 1017.1 821.3 1009.4 830.3 1009.4 830.3 1001.8 848.4 1001.8 848.4 1009.4 857.4 1009.4 857.4 1017.1 866.4 1017.1 866.4 1024.8 884.5 1024.8 884.5 1032.5 956.7 1032.5 956.7 1024.8 974.8 1024.8 974.8 1017.1 983.8 1017.1 983.8 1009.4 992.8 1009.4 992.8 1001.8 1001.8 1001.8 1001.8 986.4 1010.9 986.4 1010.9 978.7 1019.9 978.7 1019.9 986.4 1028.9 986.4 1028.9 994.1 1038 994.1 1038 1001.8 1092.1 1001.8 1092.1 994.1 1101.1 994.1 1101.1 986.4 1110.2 986.4 1110.2 1040.2 1119.2 1040.2 1119.2 1055.6 1128.2 1055.6 1128.2 1063.3 1137.2 1063.3 1137.2 1070.9 1146.3 1070.9 1146.3 1078.6 1155.3 1078.6 1155.3 1063.3 1164.3 1063.3 1164.3 1055.6 1173.4 1055.6 1173.4 1001.8 1164.3 1001.8"/>
    </g>
    <g>
      <rect class="cls-72" x="514.8" y="1073.7" width="14.7" height="7"/>
      <rect class="cls-42" x="426.4" y="1073.7" width="14.7" height="7"/>
      <rect class="cls-24" x="-221.5" y="1073.7" width="14.7" height="7"/>
      <rect class="cls-61" x="897.6" y="1066.8" width="14.7" height="7"/>
      <rect class="cls-16" x="396.9" y="1066.8" width="14.7" height="7"/>
      <rect class="cls-47" x="897.6" y="1059.8" width="14.7" height="7"/>
      <rect class="cls-15" x="-192.1" y="1052.8" width="14.7" height="7"/>
      <rect class="cls-43" x="882.9" y="1045.9" width="14.7" height="7"/>
      <rect class="cls-70" x="-236.2" y="1045.9" width="14.7" height="7"/>
      <rect class="cls-63" x="882.9" y="1038.9" width="14.7" height="7"/>
      <rect class="cls-37" x="529.5" y="1038.9" width="14.7" height="7"/>
      <rect class="cls-35" x="-221.5" y="1031.9" width="14.7" height="7"/>
      <rect class="cls-67" x="-206.8" y="1018" width="14.7" height="7"/>
      <rect class="cls-59" x="853.5" y="1004.1" width="14.7" height="7"/>
      <rect class="cls-71" x="-133.1" y="1004.1" width="14.7" height="7"/>
      <rect class="cls-42" x="-118.4" y="997.1" width="14.7" height="7"/>
      <rect class="cls-23" x="838.7" y="990.2" width="14.7" height="7"/>
      <rect class="cls-57" x="573.7" y="990.2" width="14.7" height="7"/>
      <rect class="cls-60" x="455.9" y="990.2" width="14.7" height="7"/>
      <rect class="cls-16" x="146.6" y="990.2" width="14.7" height="7"/>
      <rect class="cls-43" x="824" y="976.2" width="14.7" height="7"/>
      <rect class="cls-51" x="-162.6" y="976.2" width="14.7" height="7"/>
      <rect class="cls-28" x="-74.2" y="962.3" width="14.7" height="7"/>
      <rect class="cls-65" x="514.8" y="955.3" width="14.7" height="7"/>
      <rect class="cls-41" x="-133.1" y="955.3" width="14.7" height="7"/>
      <rect class="cls-27" x="514.8" y="948.4" width="14.7" height="7"/>
      <rect class="cls-18" x="176.1" y="948.4" width="14.7" height="7"/>
      <rect class="cls-7" x="-118.4" y="948.4" width="14.7" height="7"/>
      <rect class="cls-72" x="455.9" y="920.5" width="14.7" height="7"/>
      <rect class="cls-34" x="176.1" y="920.5" width="14.7" height="7"/>
      <rect class="cls-5" x="632.5" y="913.6" width="14.7" height="7"/>
      <rect class="cls-38" x="396.9" y="913.6" width="14.7" height="7"/>
      <rect class="cls-68" x="750.4" y="899.6" width="14.7" height="7"/>
      <rect class="cls-28" x="14.1" y="892.7" width="14.7" height="7"/>
      <rect class="cls-3" x="190.8" y="878.7" width="14.7" height="7"/>
      <rect class="cls-36" x="617.9" y="871.8" width="14.7" height="7"/>
      <rect class="cls-5" x="367.5" y="871.8" width="14.7" height="7"/>
      <rect class="cls-67" x="-15.3" y="871.8" width="14.7" height="7"/>
      <rect class="cls-48" x="-.6" y="864.8" width="14.7" height="7"/>
      <rect class="cls-31" x="706.2" y="850.9" width="14.7" height="7"/>
      <rect class="cls-38" x="58.3" y="850.9" width="14.7" height="7"/>
      <rect class="cls-36" x="603.1" y="843.9" width="14.7" height="7"/>
      <rect class="cls-34" x="588.4" y="843.9" width="14.7" height="7"/>
      <rect class="cls-58" x="14.1" y="843.9" width="14.7" height="7"/>
      <rect class="cls-65" x="323.4" y="837" width="14.7" height="7"/>
      <rect class="cls-19" x="14.1" y="837" width="14.7" height="7"/>
      <rect class="cls-37" x="308.6" y="830" width="14.7" height="7"/>
      <rect class="cls-27" x="73" y="823" width="14.7" height="7"/>
      <rect class="cls-38" x="293.9" y="816.1" width="14.7" height="7"/>
      <rect class="cls-18" x="87.7" y="795.2" width="14.7" height="7"/>
      <rect class="cls-22" x="43.5" y="795.2" width="14.7" height="7"/>
      <rect class="cls-4" x="279.2" y="781.2" width="14.7" height="7"/>
      <rect class="cls-44" x="58.3" y="781.2" width="14.7" height="7"/>
      <rect class="cls-49" x="58.3" y="774.3" width="14.7" height="7"/>
      <rect class="cls-17" x="293.9" y="767.3" width="14.7" height="7"/>
      <rect class="cls-40" x="308.6" y="753.4" width="14.7" height="7"/>
      <rect class="cls-45" x="73" y="753.4" width="14.7" height="7"/>
      <rect class="cls-69" x="323.4" y="746.4" width="14.7" height="7"/>
      <rect class="cls-6" x="87.7" y="732.5" width="14.7" height="7"/>
      <rect class="cls-16" x="514.8" y="725.5" width="14.7" height="7"/>
      <rect class="cls-1" x="352.8" y="718.6" width="14.7" height="7"/>
      <rect class="cls-12" x="573.7" y="711.6" width="14.7" height="7"/>
      <rect class="cls-2" x="559" y="711.6" width="14.7" height="7"/>
      <g>
        <polygon class="cls-32" points="853.5 1059.8 853.5 1052.8 853.5 1045.9 838.7 1045.9 838.7 1038.9 838.7 1031.9 838.7 1025 824 1025 824 1018 824 1011 809.3 1011 809.3 1004.1 809.3 997.1 794.5 997.1 794.5 990.2 794.5 983.2 779.8 983.2 779.8 976.2 779.8 969.3 765.1 969.3 765.1 962.3 765.1 955.3 750.4 955.3 750.4 948.4 750.4 941.4 735.6 941.4 735.6 934.4 735.6 927.5 735.6 920.5 720.9 920.5 720.9 913.6 720.9 906.6 706.2 906.6 706.2 899.6 706.2 892.7 691.5 892.7 691.5 885.7 691.5 878.7 676.7 878.7 676.7 885.7 676.7 892.7 676.7 899.6 676.7 906.6 691.5 906.6 691.5 913.6 691.5 920.5 691.5 927.5 706.2 927.5 706.2 934.4 706.2 941.4 706.2 948.4 706.2 955.3 706.2 962.3 706.2 969.3 691.5 969.3 676.7 969.3 676.7 962.3 662 962.3 662 955.3 647.3 955.3 647.3 948.4 647.3 941.4 632.5 941.4 632.5 934.4 617.9 934.4 617.9 927.5 617.9 920.5 603.1 920.5 603.1 913.6 603.1 906.6 588.4 906.6 588.4 913.6 588.4 920.5 588.4 927.5 603.1 927.5 603.1 934.4 603.1 941.4 603.1 948.4 617.9 948.4 617.9 955.3 617.9 962.3 632.5 962.3 632.5 969.3 632.5 976.2 647.3 976.2 647.3 983.2 647.3 990.2 662 990.2 662 997.1 662 1004.1 676.7 1004.1 676.7 1011 676.7 1018 691.5 1018 691.5 1025 691.5 1031.9 691.5 1038.9 706.2 1038.9 706.2 1045.9 706.2 1052.8 706.2 1059.8 720.9 1059.8 720.9 1066.8 720.9 1073.7 735.6 1073.7 735.6 1080.7 750.4 1080.7 765.1 1080.7 779.8 1080.7 794.5 1080.7 809.3 1080.7 824 1080.7 838.7 1080.7 853.5 1080.7 868.2 1080.7 868.2 1073.7 868.2 1066.8 868.2 1059.8 853.5 1059.8"/>
        <rect class="cls-32" x="441.1" y="1038.9" width="14.7" height="7"/>
        <rect class="cls-32" x="544.2" y="1018" width="14.7" height="7"/>
        <rect class="cls-32" x="455.9" y="997.1" width="14.7" height="7"/>
        <rect class="cls-32" x="161.4" y="969.3" width="14.7" height="7"/>
        <rect class="cls-32" x="514.8" y="962.3" width="14.7" height="7"/>
        <polygon class="cls-32" points="514.8 941.4 514.8 948.4 529.5 948.4 529.5 941.4 529.5 934.4 514.8 934.4 514.8 941.4"/>
        <rect class="cls-32" x="500" y="920.5" width="14.7" height="7"/>
        <polygon class="cls-32" points="396.9 913.6 396.9 906.6 396.9 899.6 396.9 892.7 382.2 892.7 382.2 885.7 382.2 878.7 367.5 878.7 367.5 871.8 367.5 864.8 352.8 864.8 352.8 857.8 352.8 850.9 338.1 850.9 338.1 843.9 323.4 843.9 323.4 837 308.6 837 308.6 830 308.6 823 293.9 823 293.9 816.1 293.9 809.1 293.9 802.1 279.2 802.1 264.5 802.1 264.5 809.1 264.5 816.1 264.5 823 264.5 830 264.5 837 264.5 843.9 264.5 850.9 264.5 857.8 264.5 864.8 264.5 871.8 279.2 871.8 279.2 878.7 279.2 885.7 279.2 892.7 279.2 899.6 279.2 906.6 264.5 906.6 264.5 913.6 264.5 920.5 264.5 927.5 264.5 934.4 264.5 941.4 249.7 941.4 249.7 948.4 249.7 955.3 249.7 962.3 249.7 969.3 235 969.3 235 976.2 235 983.2 235 990.2 220.3 990.2 220.3 997.1 220.3 1004.1 205.5 1004.1 205.5 1011 205.5 1018 205.5 1025 190.8 1025 190.8 1031.9 190.8 1038.9 190.8 1045.9 176.1 1045.9 176.1 1052.8 176.1 1059.8 176.1 1066.8 161.4 1066.8 161.4 1073.7 161.4 1080.7 176.1 1080.7 190.8 1080.7 205.5 1080.7 220.3 1080.7 235 1080.7 249.7 1080.7 264.5 1080.7 279.2 1080.7 293.9 1080.7 308.6 1080.7 323.4 1080.7 338.1 1080.7 352.8 1080.7 367.5 1080.7 382.2 1080.7 396.9 1080.7 396.9 1073.7 396.9 1066.8 411.7 1066.8 411.7 1059.8 411.7 1052.8 411.7 1045.9 411.7 1038.9 411.7 1031.9 411.7 1025 411.7 1018 411.7 1011 411.7 1004.1 411.7 997.1 411.7 990.2 411.7 983.2 411.7 976.2 411.7 969.3 411.7 962.3 411.7 955.3 411.7 948.4 411.7 941.4 411.7 934.4 411.7 927.5 411.7 920.5 396.9 920.5 396.9 913.6"/>
        <rect class="cls-32" x="617.9" y="892.7" width="14.7" height="7"/>
        <rect class="cls-32" x="441.1" y="892.7" width="14.7" height="7"/>
        <polygon class="cls-32" points="514.8 885.7 514.8 878.7 500 878.7 500 871.8 485.3 871.8 485.3 878.7 485.3 885.7 500 885.7 514.8 885.7"/>
        <rect class="cls-32" x="190.8" y="871.8" width="14.7" height="7"/>
        <polygon class="cls-32" points="161.4 871.8 161.4 864.8 161.4 857.8 161.4 850.9 161.4 843.9 161.4 837 161.4 830 161.4 823 161.4 816.1 161.4 809.1 161.4 802.1 161.4 795.2 161.4 788.2 161.4 781.2 161.4 774.3 161.4 767.3 176.1 767.3 176.1 760.4 176.1 753.4 176.1 746.4 176.1 739.5 176.1 732.5 161.4 732.5 161.4 739.5 161.4 746.4 161.4 753.4 146.6 753.4 146.6 760.4 146.6 767.3 131.9 767.3 131.9 774.3 131.9 781.2 117.2 781.2 117.2 788.2 102.4 788.2 102.4 795.2 102.4 802.1 87.7 802.1 87.7 809.1 87.7 816.1 87.7 823 87.7 830 73 830 73 837 73 843.9 73 850.9 73 857.8 58.3 857.8 58.3 864.8 58.3 871.8 43.5 871.8 43.5 878.7 43.5 885.7 28.9 885.7 28.9 892.7 28.9 899.6 14.1 899.6 14.1 906.6 -.6 906.6 -.6 913.6 -.6 920.5 -15.3 920.5 -15.3 927.5 -30.1 927.5 -30.1 934.4 -30.1 941.4 -44.8 941.4 -44.8 948.4 -44.8 955.3 -59.5 955.3 -59.5 962.3 -59.5 969.3 -74.2 969.3 -74.2 976.2 -89 976.2 -89 983.2 -89 990.2 -103.7 990.2 -103.7 997.1 -103.7 1004.1 -118.4 1004.1 -118.4 1011 -133.1 1011 -133.1 1018 -133.1 1025 -147.9 1025 -147.9 1031.9 -162.6 1031.9 -162.6 1038.9 -177.3 1038.9 -177.3 1045.9 -177.3 1052.8 -177.3 1059.8 -192.1 1059.8 -192.1 1066.8 -206.8 1066.8 -206.8 1073.7 -206.8 1080.7 -192.1 1080.7 -177.3 1080.7 -162.6 1080.7 -147.9 1080.7 -133.1 1080.7 -118.4 1080.7 -103.7 1080.7 -89 1080.7 -74.2 1080.7 -59.5 1080.7 -44.8 1080.7 -30.1 1080.7 -15.3 1080.7 -.6 1080.7 14.1 1080.7 28.9 1080.7 43.5 1080.7 58.3 1080.7 58.3 1073.7 58.3 1066.8 58.3 1059.8 73 1059.8 73 1052.8 73 1045.9 73 1038.9 87.7 1038.9 87.7 1031.9 87.7 1025 102.4 1025 102.4 1018 102.4 1011 117.2 1011 117.2 1004.1 131.9 1004.1 131.9 997.1 131.9 990.2 131.9 983.2 146.6 983.2 146.6 976.2 146.6 969.3 146.6 962.3 146.6 955.3 146.6 948.4 146.6 941.4 146.6 934.4 146.6 927.5 146.6 920.5 146.6 913.6 146.6 906.6 146.6 899.6 146.6 892.7 146.6 885.7 146.6 878.7 161.4 878.7 161.4 871.8"/>
        <polygon class="cls-32" points="676.7 864.8 676.7 857.8 662 857.8 662 864.8 662 871.8 662 878.7 676.7 878.7 676.7 871.8 676.7 864.8"/>
        <polygon class="cls-32" points="662 843.9 647.3 843.9 647.3 850.9 647.3 857.8 662 857.8 662 850.9 662 843.9"/>
        <rect class="cls-32" x="632.5" y="830" width="14.7" height="7"/>
        <polygon class="cls-32" points="485.3 830 485.3 823 485.3 816.1 470.6 816.1 470.6 823 470.6 830 470.6 837 485.3 837 485.3 830"/>
        <rect class="cls-32" x="573.7" y="823" width="14.7" height="7"/>
        <rect class="cls-32" x="588.4" y="816.1" width="14.7" height="7"/>
        <rect class="cls-32" x="617.9" y="809.1" width="14.7" height="7"/>
        <rect class="cls-32" x="559" y="802.1" width="14.7" height="7"/>
        <rect class="cls-32" x="573.7" y="788.2" width="14.7" height="7"/>
        <rect class="cls-32" x="426.4" y="767.3" width="14.7" height="7"/>
        <rect class="cls-32" x="529.5" y="760.4" width="14.7" height="7"/>
        <rect class="cls-32" x="544.2" y="739.5" width="14.7" height="7"/>
        <polygon class="cls-32" points="190.8 725.5 190.8 718.6 176.1 718.6 176.1 725.5 176.1 732.5 190.8 732.5 190.8 725.5"/>
        <rect class="cls-32" x="529.5" y="718.6" width="14.7" height="7"/>
        <polygon class="cls-32" points="205.5 711.6 205.5 704.6 190.8 704.6 190.8 711.6 190.8 718.6 205.5 718.6 205.5 711.6"/>
      </g>
      <rect class="cls-39" x="117.2" y="704.6" width="14.7" height="7"/>
      <rect class="cls-9" x="396.9" y="697.7" width="14.7" height="7"/>
      <rect class="cls-56" x="367.5" y="697.7" width="14.7" height="7"/>
      <rect class="cls-8" x="235" y="697.7" width="14.7" height="7"/>
      <g>
        <path class="cls-55" d="M897.6,1073.7v-20.9h-14.7v-27.9h-14.7v-13.9h-14.7v-13.9h-14.7v-13.9h-14.7v-20.9h-14.7v-13.9h-14.7v-13.9h-14.7v-13.9h-14.7v-13.9h-14.7v-20.9h-14.7v-13.9h-14.7v-13.9h-14.7v-20.9h-14.7v-13.9h-14.7v-13.9h-14.7v-13.9h-14.7v-13.9h-14.7v-13.9h-14.7v-20.9h-14.7v-13.9h-14.7v-13.9h-44.2v20.9h14.7v27.9h14.7v20.9h14.7v27.9h14.7v27.9h14.7v27.9h14.7v27.9h-14.7v-27.9h-14.7v-20.9h-14.7v-20.9h-14.7v7h-29.5v-7h-14.7v-7h-14.7v-13.9h-14.7v-13.9h-14.7v-13.9h-14.7v-13.9h-14.7v-13.9h-14.7v20.9h-14.7v97.5h14.7v20.9h14.7v27.9h14.7v83.6h-14.7v41.8h-14.7v34.8h73.6v-7h14.7v-34.8h14.7v-20.9h14.7v-13.9h14.7v-13.9h14.7v-83.6h14.7v13.9h14.7v13.9h14.7v7h14.7v13.9h14.7v7h14.7v7h29.5v-41.8h-14.7v-20.9h-14.7v-27.9h-14.7v-20.9h-14.7v-13.9h14.7v13.9h14.7v20.9h14.7v13.9h14.7v13.9h14.7v13.9h14.7v20.9h14.7v13.9h14.7v13.9h14.7v13.9h14.7v13.9h14.7v13.9h14.7v13.9h14.7v20.9h14.7v13.9h14.7v20.9h44.2v-7h-14.7ZM617.9,809.1h14.7v7h-14.7v-7ZM514.8,962.3v-27.9h14.7v34.8h-14.7v-7ZM485.3,823v13.9h-14.7v-20.9h14.7v7ZM500,920.5v-34.8h-14.7v-34.8h14.7v27.9h14.7v48.7h-14.7v-7h0ZM632.5,913.6v-7h14.7v13.9h-14.7v-7h0ZM632.5,837v-7h14.7v7h-14.7Z"/>
        <polygon class="cls-55" points="559 816.1 559 823 573.7 823 573.7 816.1 573.7 809.1 559 809.1 559 816.1"/>
        <rect class="cls-55" x="544.2" y="788.2" width="14.7" height="7"/>
        <path class="cls-55" d="M264.5,781.2v-27.9h-14.7v-48.7h-14.7v-7h-14.7v7h-14.7v13.9h-14.7v13.9h-14.7v34.8h-14.7v111.4h-14.7v104.5h-14.7v20.9h-14.7v7h-14.7v13.9h-14.7v13.9h-14.7v20.9h-14.7v20.9h103.1v-13.9h14.7v-20.9h14.7v-20.9h14.7v-20.9h14.7v-13.9h14.7v-20.9h14.7v-27.9h14.7v-34.8h14.7v-34.8h-14.7v-69.6h14.7v-13.9h-14.7v-7h0ZM161.4,969.3v-13.9h14.7v-34.8h14.7v-48.7h14.7v55.7h-14.7v27.9h-14.7v20.9h-14.7v-7ZM146.6,990.2h14.7v7h-14.7v-7Z"/>
        <rect class="cls-55" x="529.5" y="767.3" width="14.7" height="7"/>
        <polygon class="cls-55" points="514.8 746.4 514.8 753.4 514.8 760.4 529.5 760.4 529.5 753.4 529.5 746.4 529.5 739.5 529.5 732.5 514.8 732.5 514.8 739.5 514.8 746.4"/>
        <polygon class="cls-55" points="529.5 711.6 529.5 704.6 514.8 704.6 514.8 697.7 500 697.7 500 704.6 500 711.6 500 718.6 500 725.5 500 732.5 514.8 732.5 514.8 725.5 514.8 718.6 529.5 718.6 544.2 718.6 544.2 711.6 529.5 711.6"/>
      </g>
      <rect class="cls-53" x="205.5" y="697.7" width="14.7" height="7"/>
      <rect class="cls-50" x="161.4" y="697.7" width="14.7" height="7"/>
      <rect class="cls-6" x="131.9" y="697.7" width="14.7" height="7"/>
      <g>
        <polygon class="cls-21" points="720.9 1073.7 720.9 1066.8 720.9 1059.8 706.2 1059.8 706.2 1052.8 706.2 1045.9 706.2 1038.9 691.5 1038.9 691.5 1031.9 691.5 1025 691.5 1018 676.7 1018 676.7 1011 676.7 1004.1 662 1004.1 662 997.1 662 990.2 647.3 990.2 647.3 983.2 647.3 976.2 632.5 976.2 632.5 969.3 632.5 962.3 617.9 962.3 617.9 955.3 617.9 948.4 603.1 948.4 603.1 941.4 603.1 934.4 603.1 927.5 588.4 927.5 588.4 934.4 588.4 941.4 588.4 948.4 588.4 955.3 588.4 962.3 588.4 969.3 588.4 976.2 588.4 983.2 588.4 990.2 588.4 997.1 573.7 997.1 573.7 1004.1 559 1004.1 559 1011 559 1018 559 1025 544.2 1025 544.2 1031.9 544.2 1038.9 544.2 1045.9 529.5 1045.9 529.5 1052.8 529.5 1059.8 529.5 1066.8 529.5 1073.7 529.5 1080.7 544.2 1080.7 559 1080.7 573.7 1080.7 588.4 1080.7 603.1 1080.7 617.9 1080.7 632.5 1080.7 647.3 1080.7 662 1080.7 676.7 1080.7 691.5 1080.7 706.2 1080.7 720.9 1080.7 735.6 1080.7 735.6 1073.7 720.9 1073.7"/>
        <polygon class="cls-21" points="161.4 962.3 161.4 969.3 176.1 969.3 176.1 962.3 176.1 955.3 161.4 955.3 161.4 962.3"/>
        <polygon class="cls-21" points="176.1 934.4 176.1 941.4 176.1 948.4 190.8 948.4 190.8 941.4 190.8 934.4 190.8 927.5 176.1 927.5 176.1 934.4"/>
        <polygon class="cls-21" points="455.9 920.5 455.9 913.6 455.9 906.6 455.9 899.6 441.1 899.6 441.1 892.7 441.1 885.7 441.1 878.7 441.1 871.8 426.4 871.8 426.4 864.8 426.4 857.8 426.4 850.9 426.4 843.9 426.4 837 426.4 830 426.4 823 426.4 816.1 426.4 809.1 426.4 802.1 426.4 795.2 426.4 788.2 426.4 781.2 426.4 774.3 426.4 767.3 441.1 767.3 441.1 760.4 441.1 753.4 441.1 746.4 441.1 739.5 441.1 732.5 426.4 732.5 426.4 725.5 426.4 718.6 411.7 718.6 411.7 711.6 411.7 704.6 396.9 704.6 396.9 697.7 396.9 690.7 382.2 690.7 382.2 697.7 382.2 704.6 367.5 704.6 367.5 711.6 367.5 718.6 367.5 725.5 352.8 725.5 352.8 732.5 338.1 732.5 338.1 739.5 338.1 746.4 338.1 753.4 323.4 753.4 323.4 760.4 308.6 760.4 308.6 767.3 308.6 774.3 293.9 774.3 293.9 781.2 293.9 788.2 279.2 788.2 279.2 795.2 279.2 802.1 293.9 802.1 293.9 809.1 293.9 816.1 308.6 816.1 308.6 823 308.6 830 323.4 830 323.4 837 338.1 837 338.1 843.9 338.1 850.9 352.8 850.9 352.8 857.8 352.8 864.8 367.5 864.8 367.5 871.8 382.2 871.8 382.2 878.7 382.2 885.7 382.2 892.7 396.9 892.7 396.9 899.6 396.9 906.6 396.9 913.6 411.7 913.6 411.7 920.5 411.7 927.5 411.7 934.4 411.7 941.4 411.7 948.4 411.7 955.3 411.7 962.3 411.7 969.3 411.7 976.2 411.7 983.2 411.7 990.2 411.7 997.1 411.7 1004.1 411.7 1011 411.7 1018 411.7 1025 411.7 1031.9 411.7 1038.9 411.7 1045.9 411.7 1052.8 411.7 1059.8 411.7 1066.8 411.7 1073.7 396.9 1073.7 396.9 1080.7 411.7 1080.7 426.4 1080.7 426.4 1073.7 441.1 1073.7 441.1 1066.8 441.1 1059.8 441.1 1052.8 441.1 1045.9 441.1 1038.9 455.9 1038.9 455.9 1031.9 455.9 1025 455.9 1018 455.9 1011 455.9 1004.1 455.9 997.1 455.9 990.2 470.6 990.2 470.6 983.2 470.6 976.2 470.6 969.3 470.6 962.3 470.6 955.3 470.6 948.4 470.6 941.4 470.6 934.4 470.6 927.5 455.9 927.5 455.9 920.5"/>
        <rect class="cls-21" x="632.5" y="906.6" width="14.7" height="7"/>
        <polygon class="cls-21" points="500 892.7 500 899.6 500 906.6 500 913.6 500 920.5 514.8 920.5 514.8 913.6 514.8 906.6 514.8 899.6 514.8 892.7 514.8 885.7 500 885.7 500 892.7"/>
        <polygon class="cls-21" points="190.8 892.7 190.8 899.6 190.8 906.6 190.8 913.6 190.8 920.5 190.8 927.5 205.5 927.5 205.5 920.5 205.5 913.6 205.5 906.6 205.5 899.6 205.5 892.7 205.5 885.7 190.8 885.7 190.8 892.7"/>
        <polygon class="cls-21" points="617.9 885.7 617.9 892.7 632.5 892.7 632.5 885.7 632.5 878.7 617.9 878.7 617.9 885.7"/>
        <polygon class="cls-21" points="500 864.8 500 857.8 500 850.9 485.3 850.9 485.3 857.8 485.3 864.8 485.3 871.8 500 871.8 500 864.8"/>
        <polygon class="cls-21" points="603.1 857.8 603.1 864.8 603.1 871.8 617.9 871.8 617.9 864.8 617.9 857.8 617.9 850.9 603.1 850.9 603.1 857.8"/>
        <polygon class="cls-21" points="588.4 837 588.4 843.9 603.1 843.9 603.1 837 603.1 830 603.1 823 588.4 823 588.4 830 588.4 837"/>
        <polygon class="cls-21" points="161.4 746.4 161.4 739.5 161.4 732.5 176.1 732.5 176.1 725.5 176.1 718.6 190.8 718.6 190.8 711.6 190.8 704.6 176.1 704.6 161.4 704.6 161.4 697.7 146.6 697.7 146.6 704.6 131.9 704.6 131.9 711.6 117.2 711.6 117.2 718.6 102.4 718.6 102.4 725.5 102.4 732.5 102.4 739.5 87.7 739.5 87.7 746.4 87.7 753.4 87.7 760.4 73 760.4 73 767.3 73 774.3 73 781.2 73 788.2 58.3 788.2 58.3 795.2 58.3 802.1 43.5 802.1 43.5 809.1 43.5 816.1 43.5 823 28.9 823 28.9 830 28.9 837 28.9 843.9 28.9 850.9 14.1 850.9 14.1 857.8 14.1 864.8 14.1 871.8 -.6 871.8 -.6 878.7 -15.3 878.7 -15.3 885.7 -30.1 885.7 -30.1 892.7 -30.1 899.6 -44.8 899.6 -44.8 906.6 -59.5 906.6 -59.5 913.6 -59.5 920.5 -74.2 920.5 -74.2 927.5 -89 927.5 -89 934.4 -89 941.4 -103.7 941.4 -103.7 948.4 -103.7 955.3 -118.4 955.3 -118.4 962.3 -133.1 962.3 -133.1 969.3 -147.9 969.3 -147.9 976.2 -147.9 983.2 -162.6 983.2 -162.6 990.2 -177.3 990.2 -177.3 997.1 -177.3 1004.1 -192.1 1004.1 -192.1 1011 -192.1 1018 -192.1 1025 -206.8 1025 -206.8 1031.9 -206.8 1038.9 -221.5 1038.9 -221.5 1045.9 -221.5 1052.8 -236.2 1052.8 -236.2 1059.8 -251 1059.8 -251 1066.8 -251 1073.7 -265.7 1073.7 -265.7 1080.7 -251 1080.7 -236.2 1080.7 -221.5 1080.7 -221.5 1073.7 -206.8 1073.7 -206.8 1066.8 -192.1 1066.8 -192.1 1059.8 -192.1 1052.8 -177.3 1052.8 -177.3 1045.9 -177.3 1038.9 -162.6 1038.9 -162.6 1031.9 -147.9 1031.9 -147.9 1025 -133.1 1025 -133.1 1018 -133.1 1011 -133.1 1004.1 -118.4 1004.1 -118.4 997.1 -103.7 997.1 -103.7 990.2 -89 990.2 -89 983.2 -89 976.2 -74.2 976.2 -74.2 969.3 -74.2 962.3 -59.5 962.3 -59.5 955.3 -44.8 955.3 -44.8 948.4 -44.8 941.4 -30.1 941.4 -30.1 934.4 -30.1 927.5 -15.3 927.5 -15.3 920.5 -.6 920.5 -.6 913.6 -.6 906.6 14.1 906.6 14.1 899.6 14.1 892.7 28.9 892.7 28.9 885.7 43.5 885.7 43.5 878.7 43.5 871.8 58.3 871.8 58.3 864.8 58.3 857.8 58.3 850.9 73 850.9 73 843.9 73 837 73 830 73 823 87.7 823 87.7 816.1 87.7 809.1 87.7 802.1 87.7 795.2 102.4 795.2 102.4 788.2 117.2 788.2 117.2 781.2 131.9 781.2 131.9 774.3 131.9 767.3 146.6 767.3 146.6 760.4 146.6 753.4 161.4 753.4 161.4 746.4"/>
        <polygon class="cls-21" points="529.5 739.5 529.5 746.4 529.5 753.4 529.5 760.4 544.2 760.4 544.2 767.3 544.2 774.3 544.2 781.2 544.2 788.2 559 788.2 559 795.2 559 802.1 573.7 802.1 573.7 809.1 573.7 816.1 573.7 823 588.4 823 588.4 816.1 588.4 809.1 588.4 802.1 588.4 795.2 573.7 795.2 573.7 788.2 573.7 781.2 573.7 774.3 573.7 767.3 559 767.3 559 760.4 559 753.4 559 746.4 544.2 746.4 544.2 739.5 544.2 732.5 544.2 725.5 529.5 725.5 529.5 732.5 529.5 739.5"/>
        <rect class="cls-21" x="514.8" y="718.6" width="14.7" height="7"/>
      </g>
      <rect class="cls-20" x="220.3" y="690.7" width="14.7" height="7"/>
      <rect class="cls-10" x="146.6" y="690.7" width="14.7" height="7"/>
      <rect class="cls-66" x="382.2" y="683.8" width="14.7" height="7"/>
      <rect class="cls-30" x="161.4" y="669.9" width="14.7" height="7"/>
      <rect class="cls-13" x="176.1" y="662.9" width="14.7" height="7"/>
      <rect class="cls-25" x="205.5" y="635" width="14.7" height="7"/>
      <rect class="cls-62" x="220.3" y="628" width="14.7" height="7"/>
      <rect class="cls-13" x="249.7" y="600.2" width="14.7" height="7"/>
      <rect class="cls-13" x="264.5" y="586.3" width="14.7" height="7"/>
      <rect class="cls-13" x="279.2" y="572.4" width="14.7" height="7"/>
      <polygon class="cls-11" points="382.2 628 382.2 621.1 382.2 614.1 382.2 607.1 382.2 600.2 382.2 593.3 382.2 586.3 367.5 586.3 367.5 579.3 367.5 572.4 367.5 565.4 352.8 565.4 352.8 558.4 352.8 551.4 352.8 544.5 352.8 537.5 352.8 530.5 338.1 530.5 338.1 537.5 323.4 537.5 323.4 544.5 323.4 551.4 308.6 551.4 308.6 558.4 308.6 565.4 293.9 565.4 293.9 572.4 293.9 579.3 279.2 579.3 279.2 586.3 279.2 593.3 264.5 593.3 264.5 600.2 264.5 607.1 249.7 607.1 249.7 614.1 235 614.1 235 621.1 235 628 235 635 220.3 635 220.3 642 205.5 642 205.5 648.9 190.8 648.9 190.8 655.9 190.8 662.9 190.8 669.9 176.1 669.9 176.1 676.8 161.4 676.8 161.4 683.8 146.6 683.8 146.6 690.7 161.4 690.7 161.4 697.7 176.1 697.7 176.1 704.6 190.8 704.6 205.5 704.6 205.5 697.7 220.3 697.7 220.3 690.7 235 690.7 235 697.7 249.7 697.7 249.7 704.6 249.7 711.6 249.7 718.6 249.7 725.5 249.7 732.5 249.7 739.5 249.7 746.4 249.7 753.4 264.5 753.4 264.5 760.4 264.5 767.3 264.5 774.3 264.5 781.2 264.5 788.2 279.2 788.2 279.2 781.2 293.9 781.2 293.9 774.3 293.9 767.3 308.6 767.3 308.6 760.4 308.6 753.4 323.4 753.4 323.4 746.4 338.1 746.4 338.1 739.5 338.1 732.5 352.8 732.5 352.8 725.5 352.8 718.6 367.5 718.6 367.5 711.6 367.5 704.6 367.5 697.7 382.2 697.7 382.2 690.7 382.2 683.8 396.9 683.8 396.9 676.8 396.9 669.9 396.9 662.9 396.9 655.9 396.9 648.9 396.9 642 396.9 635 396.9 628 382.2 628"/>
      <rect class="cls-13" x="323.4" y="530.5" width="14.7" height="7"/>
      <g>
        <polygon class="cls-54" points="559 697.7 559 690.7 559 683.8 544.2 683.8 544.2 676.8 529.5 676.8 529.5 669.9 514.8 669.9 514.8 662.9 514.8 655.9 500 655.9 500 648.9 485.3 648.9 485.3 642 470.6 642 470.6 635 470.6 628 455.9 628 455.9 621.1 455.9 614.1 441.1 614.1 441.1 607.1 441.1 600.2 426.4 600.2 426.4 593.3 426.4 586.3 411.7 586.3 411.7 579.3 396.9 579.3 396.9 572.4 396.9 565.4 382.2 565.4 382.2 558.4 382.2 551.4 367.5 551.4 367.5 544.5 367.5 537.5 352.8 537.5 352.8 544.5 352.8 551.4 352.8 558.4 352.8 565.4 367.5 565.4 367.5 572.4 367.5 579.3 367.5 586.3 382.2 586.3 382.2 593.3 382.2 600.2 382.2 607.1 382.2 614.1 382.2 614.1 382.2 621.1 382.2 621.1 382.2 628 396.9 628 396.9 635 396.9 642 396.9 648.9 396.9 655.9 396.9 662.9 396.9 669.9 396.9 676.8 396.9 683.8 396.9 690.7 396.9 697.7 411.7 697.7 411.7 704.6 411.7 711.6 411.7 718.6 426.4 718.6 426.4 725.5 426.4 732.5 441.1 732.5 441.1 739.5 441.1 746.4 441.1 753.4 455.9 753.4 455.9 760.4 455.9 767.3 470.6 767.3 470.6 774.3 470.6 781.2 485.3 781.2 485.3 788.2 485.3 795.2 500 795.2 500 802.1 500 809.1 514.8 809.1 514.8 816.1 514.8 823 529.5 823 529.5 823 529.5 830 544.2 830 544.2 837 559 837 573.7 837 573.7 830 573.7 823 559 823 559 816.1 559 809.1 559 802.1 559 802.1 559 795.2 544.2 795.2 544.2 788.2 544.2 781.2 544.2 774.3 529.5 774.3 529.5 781.2 529.5 781.2 529.5 774.3 529.5 767.3 529.5 760.4 514.8 760.4 514.8 753.4 514.8 746.4 514.8 739.5 514.8 732.5 500 732.5 500 725.5 500 718.6 500 711.6 500 704.6 500 697.7 514.8 697.7 514.8 704.6 529.5 704.6 529.5 711.6 544.2 711.6 544.2 718.6 559 718.6 559 711.6 559 711.6 573.7 711.6 573.7 704.6 573.7 697.7 559 697.7"/>
        <rect class="cls-54" x="338.1" y="523.6" width="14.7" height="7"/>
      </g>
    </g>
    <g>
      <polygon class="cls-14" points="7.3 1080.7 290.9 1080.7 290.9 1075.2 284.3 1075.2 284.3 1035.9 277.7 1035.9 277.7 1041.5 271.1 1041.5 271.1 1047.2 231.6 1047.2 231.6 1041.5 225 1041.5 225 1035.9 218.4 1035.9 218.4 1030.3 211.8 1030.3 211.8 1035.9 205.2 1035.9 205.2 1047.2 198.6 1047.2 198.6 1052.8 192 1052.8 192 1058.4 185.4 1058.4 185.4 1064 172.2 1064 172.2 1069.6 119.4 1069.6 119.4 1064 106.2 1064 106.2 1058.4 99.6 1058.4 99.6 1052.8 93 1052.8 93 1047.2 79.9 1047.2 79.9 1052.8 73.3 1052.8 73.3 1058.4 33.7 1058.4 33.7 1052.8 27.1 1052.8 27.1 1047.2 20.5 1047.2 20.5 1035.9 13.9 1035.9 13.9 1013.4 7.3 1013.4 7.3 1030.3 .7 1030.3 .7 1064 7.3 1064 7.3 1080.7"/>
      <polygon class="cls-54" points="20.5 1047.2 27.1 1047.2 27.1 1052.8 33.7 1052.8 33.7 1058.4 73.3 1058.4 73.3 1052.8 79.9 1052.8 79.9 1047.2 93 1047.2 93 1052.8 99.6 1052.8 99.6 1058.4 106.2 1058.4 106.2 1064 119.4 1064 119.4 1069.6 172.2 1069.6 172.2 1064 185.4 1064 185.4 1058.4 192 1058.4 192 1052.8 198.6 1052.8 198.6 1047.2 205.2 1047.2 205.2 1035.9 211.8 1035.9 211.8 1030.3 218.4 1030.3 218.4 1035.9 225 1035.9 225 1041.5 231.6 1041.5 231.6 1047.2 271.1 1047.2 271.1 1041.5 277.7 1041.5 277.7 1035.9 284.3 1035.9 284.3 1075.2 290.9 1075.2 290.9 1080.7 330.4 1080.7 330.4 1047.2 323.8 1047.2 323.8 1035.9 317.3 1035.9 317.3 1030.3 310.7 1030.3 310.7 1024.7 304.1 1024.7 304.1 1019.1 284.3 1019.1 284.3 1002.2 277.7 1002.2 277.7 985.4 271.1 985.4 271.1 979.8 264.5 979.8 264.5 974.1 257.9 974.1 257.9 968.5 251.3 968.5 251.3 962.9 198.6 962.9 198.6 968.5 192 968.5 192 957.3 185.4 957.3 185.4 951.7 172.2 951.7 172.2 946.1 165.6 946.1 165.6 940.4 126 940.4 126 946.1 112.8 946.1 112.8 951.7 106.2 951.7 106.2 957.3 99.6 957.3 99.6 962.9 93 962.9 93 968.5 86.4 968.5 86.4 985.4 40.3 985.4 40.3 991 27.1 991 27.1 996.6 20.5 996.6 20.5 1002.2 13.9 1002.2 13.9 1035.9 20.5 1035.9 20.5 1047.2"/>
    </g>
    <g>
      <polygon class="cls-14" points="233.6 1050.5 241.2 1050.5 241.2 1063.4 248.8 1063.4 248.8 1069.9 256.3 1069.9 256.3 1076.3 271.5 1076.3 271.5 1080.7 574.5 1080.7 574.5 1076.3 582 1076.3 582 1069.9 574.5 1069.9 574.5 1063.4 566.9 1063.4 566.9 1056.9 559.3 1056.9 559.3 1044.1 551.7 1044.1 551.7 998.9 544.2 998.9 544.2 1005.4 536.6 1005.4 536.6 1011.8 491.1 1011.8 491.1 1005.4 483.6 1005.4 483.6 998.9 476 998.9 476 992.4 468.4 992.4 468.4 998.9 460.8 998.9 460.8 1011.8 453.3 1011.8 453.3 1018.3 445.7 1018.3 445.7 1024.7 438.1 1024.7 438.1 1031.2 423 1031.2 423 1037.6 362.4 1037.6 362.4 1031.2 347.2 1031.2 347.2 1024.7 339.7 1024.7 339.7 1018.3 332.1 1018.3 332.1 1011.8 316.9 1011.8 316.9 1018.3 309.4 1018.3 309.4 1024.7 263.9 1024.7 263.9 1018.3 256.3 1018.3 256.3 1011.8 248.8 1011.8 248.8 998.9 241.2 998.9 241.2 973.1 233.6 973.1 233.6 992.4 226 992.4 226 1031.2 233.6 1031.2 233.6 1050.5"/>
      <polygon class="cls-54" points="597.2 1011.8 597.2 1005.4 597.2 998.9 589.6 998.9 589.6 992.4 582 992.4 582 986 574.5 986 574.5 979.6 566.9 979.6 559.3 979.6 551.7 979.6 551.7 973.1 551.7 966.7 551.7 960.2 544.2 960.2 544.2 953.7 544.2 947.3 544.2 940.9 536.6 940.9 536.6 934.4 529 934.4 529 927.9 521.4 927.9 521.4 921.5 513.9 921.5 513.9 915.1 506.3 915.1 498.7 915.1 491.1 915.1 483.6 915.1 476 915.1 468.4 915.1 460.8 915.1 453.3 915.1 453.3 921.5 445.7 921.5 445.7 915.1 445.7 908.6 438.1 908.6 438.1 902.1 430.5 902.1 423 902.1 423 895.7 415.4 895.7 415.4 889.2 407.8 889.2 400.2 889.2 392.7 889.2 385.1 889.2 377.5 889.2 370 889.2 370 895.7 362.4 895.7 354.8 895.7 354.8 902.1 347.2 902.1 347.2 908.6 339.7 908.6 339.7 915.1 332.1 915.1 332.1 921.5 324.5 921.5 324.5 927.9 324.5 934.4 324.5 940.9 316.9 940.9 309.4 940.9 301.8 940.9 294.2 940.9 286.6 940.9 279.1 940.9 271.5 940.9 271.5 947.3 263.9 947.3 256.3 947.3 256.3 953.7 248.8 953.7 248.8 960.2 241.2 960.2 241.2 966.7 241.2 973.1 241.2 979.6 241.2 986 241.2 992.4 241.2 998.9 248.8 998.9 248.8 1005.4 248.8 1011.8 256.3 1011.8 256.3 1018.3 263.9 1018.3 263.9 1024.7 271.5 1024.7 279.1 1024.7 286.6 1024.7 294.2 1024.7 301.8 1024.7 309.4 1024.7 309.4 1018.3 316.9 1018.3 316.9 1011.8 324.5 1011.8 332.1 1011.8 332.1 1018.3 339.7 1018.3 339.7 1024.7 347.2 1024.7 347.2 1031.2 354.8 1031.2 362.4 1031.2 362.4 1037.6 370 1037.6 377.5 1037.6 385.1 1037.6 392.7 1037.6 400.2 1037.6 407.8 1037.6 415.4 1037.6 423 1037.6 423 1031.2 430.5 1031.2 438.1 1031.2 438.1 1024.7 445.7 1024.7 445.7 1018.3 453.3 1018.3 453.3 1011.8 460.8 1011.8 460.8 1005.4 460.8 998.9 468.4 998.9 468.4 992.4 476 992.4 476 998.9 483.6 998.9 483.6 1005.4 491.1 1005.4 491.1 1011.8 498.7 1011.8 506.3 1011.8 513.9 1011.8 521.4 1011.8 529 1011.8 536.6 1011.8 536.6 1005.4 544.2 1005.4 544.2 998.9 551.7 998.9 551.7 1005.4 551.7 1011.8 551.7 1018.3 551.7 1024.7 551.7 1031.2 551.7 1037.6 551.7 1044.1 559.3 1044.1 559.3 1050.5 559.3 1056.9 566.9 1056.9 566.9 1063.4 574.5 1063.4 574.5 1069.9 582 1069.9 582 1076.3 589.6 1076.3 589.6 1069.9 589.6 1063.4 597.2 1063.4 597.2 1056.9 604.8 1056.9 604.8 1050.5 604.8 1044.1 604.8 1037.6 604.8 1031.2 604.8 1024.7 604.8 1018.3 604.8 1011.8 597.2 1011.8"/>
    </g>
    <g>
      <polygon class="cls-14" points="478 1052.5 485.6 1052.5 485.6 1065.3 493.2 1065.3 493.2 1071.8 500.7 1071.8 500.7 1078.3 515.9 1078.3 515.9 1082.6 818.9 1082.6 818.9 1078.3 826.5 1078.3 826.5 1071.8 818.9 1071.8 818.9 1065.3 811.3 1065.3 811.3 1058.9 803.7 1058.9 803.7 1046 796.2 1046 796.2 1000.8 788.6 1000.8 788.6 1007.3 781 1007.3 781 1013.8 735.6 1013.8 735.6 1007.3 728 1007.3 728 1000.8 720.4 1000.8 720.4 994.4 712.8 994.4 712.8 1000.8 705.3 1000.8 705.3 1013.8 697.7 1013.8 697.7 1020.2 690.1 1020.2 690.1 1026.6 682.5 1026.6 682.5 1033.1 667.4 1033.1 667.4 1039.5 606.8 1039.5 606.8 1033.1 591.6 1033.1 591.6 1026.6 584.1 1026.6 584.1 1020.2 576.5 1020.2 576.5 1013.8 561.3 1013.8 561.3 1020.2 553.8 1020.2 553.8 1026.6 508.3 1026.6 508.3 1020.2 500.7 1020.2 500.7 1013.8 493.2 1013.8 493.2 1000.8 485.6 1000.8 485.6 975.1 478 975.1 478 994.4 470.5 994.4 470.5 1033.1 478 1033.1 478 1052.5"/>
      <polygon class="cls-54" points="841.6 1013.8 841.6 1007.3 841.6 1000.8 834 1000.8 834 994.4 826.5 994.4 826.5 988 818.9 988 818.9 981.5 811.3 981.5 803.7 981.5 796.2 981.5 796.2 975.1 796.2 968.6 796.2 962.1 788.6 962.1 788.6 955.7 788.6 949.3 788.6 942.8 781 942.8 781 936.3 773.4 936.3 773.4 929.9 765.9 929.9 765.9 923.4 758.3 923.4 758.3 917 750.7 917 743.1 917 735.6 917 728 917 720.4 917 712.8 917 705.3 917 697.7 917 697.7 923.4 690.1 923.4 690.1 917 690.1 910.6 682.5 910.6 682.5 904.1 675 904.1 667.4 904.1 667.4 897.6 659.8 897.6 659.8 891.2 652.2 891.2 644.7 891.2 637.1 891.2 629.5 891.2 621.9 891.2 614.4 891.2 614.4 897.6 606.8 897.6 599.2 897.6 599.2 904.1 591.6 904.1 591.6 910.6 584.1 910.6 584.1 917 576.5 917 576.5 923.4 568.9 923.4 568.9 929.9 568.9 936.3 568.9 942.8 561.3 942.8 553.8 942.8 546.2 942.8 538.6 942.8 531 942.8 523.5 942.8 515.9 942.8 515.9 949.3 508.3 949.3 500.7 949.3 500.7 955.7 493.2 955.7 493.2 962.1 485.6 962.1 485.6 968.6 485.6 975.1 485.6 981.5 485.6 988 485.6 994.4 485.6 1000.8 493.2 1000.8 493.2 1007.3 493.2 1013.8 500.7 1013.8 500.7 1020.2 508.3 1020.2 508.3 1026.6 515.9 1026.6 523.5 1026.6 531 1026.6 538.6 1026.6 546.2 1026.6 553.8 1026.6 553.8 1020.2 561.3 1020.2 561.3 1013.8 568.9 1013.8 576.5 1013.8 576.5 1020.2 584.1 1020.2 584.1 1026.6 591.6 1026.6 591.6 1033.1 599.2 1033.1 606.8 1033.1 606.8 1039.6 614.4 1039.6 621.9 1039.6 629.5 1039.6 637.1 1039.6 644.7 1039.6 652.2 1039.6 659.8 1039.6 667.4 1039.6 667.4 1033.1 675 1033.1 682.5 1033.1 682.5 1026.6 690.1 1026.6 690.1 1020.2 697.7 1020.2 697.7 1013.8 705.3 1013.8 705.3 1007.3 705.3 1000.8 712.8 1000.8 712.8 994.4 720.4 994.4 720.4 1000.8 728 1000.8 728 1007.3 735.6 1007.3 735.6 1013.8 743.1 1013.8 750.7 1013.8 758.3 1013.8 765.9 1013.8 773.4 1013.8 781 1013.8 781 1007.3 788.6 1007.3 788.6 1000.8 796.2 1000.8 796.2 1007.3 796.2 1013.8 796.2 1020.2 796.2 1026.6 796.2 1033.1 796.2 1039.6 796.2 1046 803.7 1046 803.7 1052.5 803.7 1058.9 811.3 1058.9 811.3 1065.3 818.9 1065.3 818.9 1071.8 826.5 1071.8 826.5 1078.3 834 1078.3 834 1071.8 834 1065.3 841.6 1065.3 841.6 1058.9 849.2 1058.9 849.2 1052.5 849.2 1046 849.2 1039.6 849.2 1033.1 849.2 1026.6 849.2 1020.2 849.2 1013.8 841.6 1013.8"/>
    </g>
    <g>
      <polygon class="cls-14" points="988.6 1080.7 988.6 1016.7 986.3 1016.7 986.3 1023.8 936.1 1023.8 936.1 1016.7 927.7 1016.7 927.7 1009.6 919.3 1009.6 919.3 1002.5 910.9 1002.5 910.9 1009.6 902.6 1009.6 902.6 1023.8 894.2 1023.8 894.2 1031 885.8 1031 885.8 1038.2 877.5 1038.2 877.5 1045.3 860.7 1045.3 860.7 1052.4 793.8 1052.4 793.8 1045.3 777 1045.3 777 1038.2 768.6 1038.2 768.6 1031 760.3 1031 760.3 1023.8 743.5 1023.8 743.5 1031 735.2 1031 735.2 1038.2 684.9 1038.2 684.9 1031 676.6 1031 676.6 1023.8 668.2 1023.8 668.2 1009.6 659.8 1009.6 659.8 981.1 651.4 981.1 651.4 1002.5 643.1 1002.5 643.1 1045.3 651.4 1045.3 651.4 1066.7 659.8 1066.7 659.8 1080.7 988.6 1080.7"/>
      <polygon class="cls-54" points="988.6 945.5 986.3 945.5 986.3 938.3 977.9 938.3 977.9 931.2 969.5 931.2 969.5 924.1 961.1 924.1 961.1 917 894.2 917 894.2 924.1 885.8 924.1 885.8 909.8 877.5 909.8 877.5 902.7 860.7 902.7 860.7 895.6 852.3 895.6 852.3 888.4 802.1 888.4 802.1 895.6 785.4 895.6 785.4 902.7 777 902.7 777 909.8 768.6 909.8 768.6 917 760.3 917 760.3 924.1 751.9 924.1 751.9 945.5 693.3 945.5 693.3 952.6 676.6 952.6 676.6 959.7 668.2 959.7 668.2 966.8 659.8 966.8 659.8 1009.6 668.2 1009.6 668.2 1023.8 676.6 1023.8 676.6 1031 684.9 1031 684.9 1038.2 735.2 1038.2 735.2 1031 743.5 1031 743.5 1023.8 760.3 1023.8 760.3 1031 768.6 1031 768.6 1038.2 777 1038.2 777 1045.3 793.8 1045.3 793.8 1052.4 860.7 1052.4 860.7 1045.3 877.5 1045.3 877.5 1038.2 885.8 1038.2 885.8 1031 894.2 1031 894.2 1023.8 902.6 1023.8 902.6 1009.6 910.9 1009.6 910.9 1002.5 919.3 1002.5 919.3 1009.6 927.7 1009.6 927.7 1016.7 936.1 1016.7 936.1 1023.8 986.3 1023.8 986.3 1016.7 988.6 1016.7 988.6 945.5"/>
    </g>
    <g>
      <rect class="cls-52" x="335.4" y="317.1" width="16.2" height="241.9"/>
      <polygon class="cls-33" points="382.9 553.4 382.9 536.6 366.6 536.6 366.6 519.1 323.5 519.1 323.5 536.6 307.3 536.6 307.3 553.4 296.5 553.4 296.5 572 393.6 572 393.6 553.4 382.9 553.4"/>
      <g>
        <rect class="cls-29" x="323.5" y="519.1" width="15.8" height="17.5"/>
        <polygon class="cls-29" points="323.2 553.4 323.2 536.6 307.3 536.6 307.3 553.4 296.5 553.4 296.5 572 312.4 572 312.4 553.4 323.2 553.4"/>
      </g>
      <rect class="cls-46" x="351.6" y="331.2" width="47.5" height="111.6"/>
      <rect class="cls-46" x="464.8" y="331.2" width="47.5" height="111.6"/>
      <rect class="cls-64" x="399" y="339.4" width="65.8" height="111.6"/>
    </g>
  </g>
</svg>