<?xml version="1.0" encoding="UTF-8"?>
<svg xmlns="http://www.w3.org/2000/svg" version="1.1" viewBox="0 0 786 460">
  <defs>
    <style>
      .cls-1 {
        fill: #eb7b2c;
      }

      .cls-2 {
        fill: #ee8f2d;
      }

      .cls-3 {
        fill: #fce828;
      }

      .cls-4 {
        fill: #f4bb2a;
      }

      .cls-5 {
        fill: #af3625;
      }
    </style>
  </defs>
  <!-- Generator: Adobe Illustrator 28.6.0, SVG Export Plug-In . SVG Version: 1.2.0 Build 709)  -->
  <g>
    <g id="Layer_1">
      <g>
        <g>
          <polygon class="cls-4" points="595.6 189.6 102.1 189.6 102.1 260.3 31.6 260.3 31.6 302.3 491.4 302.3 491.4 286.3 526.5 286.3 526.5 238.7 595.6 238.7 595.6 189.6"/>
          <polygon class="cls-1" points="491.4 302.3 31.6 302.3 31.6 391.2 202.4 391.2 202.4 432.4 372.4 432.4 372.4 394.5 483.9 394.5 483.9 358.1 491.4 358.1 491.4 302.3"/>
          <polygon class="cls-5" points="372.4 432.4 372.4 394.5 483.9 394.5 483.9 374.3 31.6 374.3 31.6 391.2 202.4 391.2 202.4 432.4 372.4 432.4"/>
          <polygon class="cls-5" points="372.4 402.6 372.4 394.5 384.4 394.5 384.4 388.1 465.3 388.1 465.3 379.4 483.9 379.4 483.9 358.1 485.1 358.1 485.1 337.5 443.9 337.5 443.9 324.5 430.7 324.5 430.7 369.3 384.4 369.3 384.4 340.4 361.3 340.4 361.3 362.1 320.1 362.1 320.1 337.5 282.1 337.5 282.1 317.3 267.2 317.3 267.2 333.2 254 333.2 254 356.3 226 356.3 226 333.2 189.6 333.2 189.6 362.1 161.6 362.1 161.6 324.5 108.7 324.5 108.7 340.4 64.2 340.4 64.2 366.4 31.6 366.4 31.6 391.2 92.2 391.2 92.2 379.4 123.6 379.4 123.6 391.2 146.7 391.2 146.7 388.1 197.9 388.1 197.9 391.2 202.4 391.2 202.4 411.2 222.7 411.2 222.7 389.5 270.5 389.5 270.5 415.6 306.8 415.6 306.8 396.8 338.2 396.8 338.2 402.6 372.4 402.6"/>
        </g>
        <rect class="cls-1" x="266.4" y="358" width="21.9" height="18.8"/>
        <rect class="cls-1" x="315.5" y="372.7" width="21.9" height="18.8"/>
        <rect class="cls-1" x="449" y="346.6" width="21.9" height="18.8"/>
        <rect class="cls-1" x="427.4" y="374.3" width="21.9" height="18.8"/>
        <rect class="cls-1" x="222.7" y="376.8" width="21.9" height="18.8"/>
        <rect class="cls-1" x="146.7" y="378.1" width="21.9" height="13"/>
        <rect class="cls-1" x="108.2" y="339.2" width="21.9" height="18.8"/>
        <rect class="cls-1" x="51" y="365.9" width="21.9" height="18.8"/>
        <polygon class="cls-2" points="526.5 238.7 551.2 238.7 551.2 221.9 496.7 221.9 496.7 250.8 467 250.8 467 265.2 429 265.2 429 246.4 415.8 246.4 415.8 255.1 377.8 255.1 377.8 208.8 343.2 208.8 343.2 232 292 232 292 247.9 217.7 247.9 217.7 288.4 184.7 288.4 184.7 232 141.8 232 141.8 252.2 102.1 252.2 102.1 260.3 85.6 260.3 85.6 281.1 31.6 281.1 31.6 302.3 74.1 302.3 74.1 311.7 100.5 311.7 100.5 302.3 131.9 302.3 131.9 311.7 158.3 311.7 158.3 302.3 177.3 302.3 177.3 317.1 203.7 317.1 203.7 302.3 232.6 302.3 232.6 313.1 259 313.1 259 302.3 311 302.3 311 312.2 337.4 312.2 337.4 302.3 414.2 302.3 414.2 317.1 440.6 317.1 440.6 302.3 467.8 302.3 467.8 312.2 491.4 312.2 491.4 286.3 526.5 286.3 526.5 238.7"/>
      </g>
      <g>
        <g>
          <polygon class="cls-4" points="774.4 99.3 280.9 99.3 280.9 170 210.4 170 210.4 212 670.2 212 670.2 196 705.3 196 705.3 148.4 774.4 148.4 774.4 99.3"/>
          <polygon class="cls-1" points="670.2 212 210.4 212 210.4 300.9 381.2 300.9 381.2 342.1 551.2 342.1 551.2 304.3 662.7 304.3 662.7 267.8 670.2 267.8 670.2 212"/>
          <polygon class="cls-5" points="551.2 342.1 551.2 304.3 662.7 304.3 662.7 284.1 210.4 284.1 210.4 300.9 381.2 300.9 381.2 342.1 551.2 342.1"/>
          <polygon class="cls-5" points="551.2 312.3 551.2 304.3 563.3 304.3 563.3 297.8 644.2 297.8 644.2 289.1 662.7 289.1 662.7 267.8 664 267.8 664 247.2 622.7 247.2 622.7 234.2 609.5 234.2 609.5 279 563.3 279 563.3 250.1 540.2 250.1 540.2 271.8 498.9 271.8 498.9 247.2 460.9 247.2 460.9 227 446.1 227 446.1 242.9 432.9 242.9 432.9 266 404.8 266 404.8 242.9 368.5 242.9 368.5 271.8 340.4 271.8 340.4 234.2 287.6 234.2 287.6 250.1 243 250.1 243 276.1 210.4 276.1 210.4 300.9 271.1 300.9 271.1 289.1 302.4 289.1 302.4 300.9 325.5 300.9 325.5 297.8 376.7 297.8 376.7 300.9 381.2 300.9 381.2 320.9 401.5 320.9 401.5 299.3 449.4 299.3 449.4 325.3 485.7 325.3 485.7 306.5 517 306.5 517 312.3 551.2 312.3"/>
        </g>
        <rect class="cls-1" x="445.2" y="267.7" width="21.9" height="18.8"/>
        <rect class="cls-1" x="494.3" y="282.4" width="21.9" height="18.8"/>
        <rect class="cls-1" x="627.8" y="256.3" width="21.9" height="18.8"/>
        <rect class="cls-1" x="606.2" y="284.1" width="21.9" height="18.8"/>
        <rect class="cls-1" x="401.5" y="286.5" width="21.9" height="18.8"/>
        <rect class="cls-1" x="325.5" y="287.8" width="21.9" height="13"/>
        <rect class="cls-1" x="287" y="248.9" width="21.9" height="18.8"/>
        <rect class="cls-1" x="229.8" y="275.6" width="21.9" height="18.8"/>
        <polygon class="cls-2" points="705.3 148.4 730 148.4 730 131.6 675.5 131.6 675.5 160.5 645.8 160.5 645.8 174.9 607.8 174.9 607.8 156.1 594.6 156.1 594.6 164.8 556.7 164.8 556.7 118.6 522 118.6 522 141.7 470.8 141.7 470.8 157.6 396.5 157.6 396.5 198.1 363.5 198.1 363.5 141.7 320.6 141.7 320.6 161.9 280.9 161.9 280.9 170 264.5 170 264.5 190.8 210.4 190.8 210.4 212 252.9 212 252.9 221.4 279.3 221.4 279.3 212 310.7 212 310.7 221.4 337.1 221.4 337.1 212 356.1 212 356.1 226.8 382.5 226.8 382.5 212 411.4 212 411.4 222.9 437.8 222.9 437.8 212 489.8 212 489.8 221.9 516.2 221.9 516.2 212 593 212 593 226.8 619.4 226.8 619.4 212 646.6 212 646.6 221.9 670.2 221.9 670.2 196 705.3 196 705.3 148.4"/>
        <polygon class="cls-3" points="731.4 79.6 730 79.6 730 40.6 675.5 40.6 675.5 69.5 645.8 69.5 645.8 84 607.8 84 607.8 65.2 594.6 65.2 594.6 73.9 556.7 73.9 556.7 27.6 522 27.6 522 50.7 470.8 50.7 470.8 66.6 396.5 66.6 396.5 107.1 363.5 107.1 363.5 50.7 320.6 50.7 320.6 71 280.9 71 280.9 121.1 356.1 121.1 356.1 135.9 382.5 135.9 382.5 121.1 411.4 121.1 411.4 131.9 437.8 131.9 437.8 121.1 489.8 121.1 489.8 131 516.2 131 516.2 121.1 593 121.1 593 135.9 619.4 135.9 619.4 121.1 646.6 121.1 646.6 131 673 131 673 121.1 743.2 121.1 743.2 135.9 769.6 135.9 769.6 121.1 774.4 121.1 774.4 91.8 731.4 91.8 731.4 79.6"/>
      </g>
    </g>
  </g>
</svg>