<?xml version="1.0" encoding="UTF-8"?>
<svg id="Layer_1" data-name="Layer 1" xmlns="http://www.w3.org/2000/svg" version="1.1" viewBox="0 0 200 280">
  <defs>
    <style>
      .cls-1 {
        fill: #cf4b1d;
      }

      .cls-1, .cls-2, .cls-3, .cls-4, .cls-5, .cls-6, .cls-7, .cls-8, .cls-9, .cls-10, .cls-11, .cls-12, .cls-13, .cls-14, .cls-15, .cls-16, .cls-17, .cls-18, .cls-19, .cls-20, .cls-21, .cls-22, .cls-23, .cls-24, .cls-25, .cls-26, .cls-27, .cls-28, .cls-29, .cls-30, .cls-31, .cls-32, .cls-33, .cls-34, .cls-35, .cls-36, .cls-37, .cls-38, .cls-39, .cls-40, .cls-41, .cls-42, .cls-43, .cls-44, .cls-45, .cls-46, .cls-47, .cls-48, .cls-49, .cls-50, .cls-51, .cls-52, .cls-53, .cls-54, .cls-55, .cls-56, .cls-57, .cls-58, .cls-59, .cls-60, .cls-61, .cls-62, .cls-63, .cls-64, .cls-65, .cls-66, .cls-67, .cls-68, .cls-69, .cls-70, .cls-71, .cls-72, .cls-73, .cls-74, .cls-75, .cls-76, .cls-77, .cls-78, .cls-79, .cls-80, .cls-81, .cls-82, .cls-83, .cls-84, .cls-85, .cls-86, .cls-87, .cls-88, .cls-89, .cls-90, .cls-91, .cls-92, .cls-93, .cls-94, .cls-95, .cls-96, .cls-97, .cls-98, .cls-99, .cls-100, .cls-101, .cls-102, .cls-103, .cls-104, .cls-105, .cls-106, .cls-107, .cls-108, .cls-109, .cls-110, .cls-111, .cls-112, .cls-113, .cls-114, .cls-115, .cls-116, .cls-117, .cls-118, .cls-119, .cls-120, .cls-121, .cls-122, .cls-123, .cls-124, .cls-125, .cls-126, .cls-127, .cls-128, .cls-129, .cls-130, .cls-131, .cls-132, .cls-133, .cls-134, .cls-135, .cls-136, .cls-137, .cls-138, .cls-139, .cls-140, .cls-141, .cls-142, .cls-143, .cls-144, .cls-145, .cls-146, .cls-147, .cls-148, .cls-149, .cls-150, .cls-151, .cls-152, .cls-153, .cls-154, .cls-155, .cls-156, .cls-157, .cls-158, .cls-159, .cls-160, .cls-161, .cls-162, .cls-163, .cls-164, .cls-165, .cls-166, .cls-167, .cls-168 {
        stroke-width: 0px;
      }

      .cls-2 {
        fill: #995121;
      }

      .cls-3 {
        fill: #c04c1d;
      }

      .cls-4 {
        fill: #f26523;
      }

      .cls-5 {
        fill: #ce5919;
      }

      .cls-6 {
        fill: #f4a22e;
      }

      .cls-7 {
        fill: #cf511e;
      }

      .cls-8 {
        fill: #c14a21;
      }

      .cls-9 {
        fill: #c8561c;
      }

      .cls-10 {
        fill: #9d391d;
      }

      .cls-11 {
        fill: #eb9d33;
      }

      .cls-12 {
        fill: #9c3b20;
      }

      .cls-13 {
        fill: #f9cd45;
      }

      .cls-14 {
        fill: #f7b52b;
      }

      .cls-15 {
        fill: #f2932d;
      }

      .cls-16 {
        fill: #ad3e1c;
      }

      .cls-17 {
        fill: #f49526;
      }

      .cls-18 {
        fill: #9d381d;
      }

      .cls-19 {
        fill: #de6720;
      }

      .cls-20 {
        fill: #b8441e;
      }

      .cls-21 {
        fill: #f19d13;
      }

      .cls-22 {
        fill: #b3401b;
      }

      .cls-23 {
        fill: #e5721b;
      }

      .cls-24 {
        fill: #481e0e;
      }

      .cls-25 {
        fill: #f19e27;
      }

      .cls-26 {
        fill: #c9491d;
      }

      .cls-27 {
        fill: #9e5c28;
      }

      .cls-28 {
        fill: #a7482e;
      }

      .cls-29 {
        fill: #a44326;
      }

      .cls-30 {
        fill: #f09825;
      }

      .cls-31 {
        fill: #a23e22;
      }

      .cls-32 {
        fill: #9e5b29;
      }

      .cls-33 {
        fill: #b6461d;
      }

      .cls-34 {
        fill: #9e361d;
      }

      .cls-35 {
        fill: #b13d1c;
      }

      .cls-36 {
        fill: #b6431c;
      }

      .cls-37 {
        fill: #a25f2a;
      }

      .cls-38 {
        fill: #bb461d;
      }

      .cls-39 {
        fill: #e68d29;
      }

      .cls-40 {
        fill: #facd48;
      }

      .cls-41 {
        fill: #c24a1f;
      }

      .cls-42 {
        fill: #d05b19;
      }

      .cls-43 {
        fill: #f9ce46;
      }

      .cls-44 {
        fill: #9f5b28;
      }

      .cls-45 {
        fill: #9f381c;
      }

      .cls-46 {
        fill: #de6519;
      }

      .cls-47 {
        fill: #ee9329;
      }

      .cls-48 {
        fill: #b9481e;
      }

      .cls-49 {
        fill: #dc5f1a;
      }

      .cls-50 {
        fill: #d44e1c;
      }

      .cls-51 {
        fill: #e5751e;
      }

      .cls-52 {
        fill: #b9481f;
      }

      .cls-53 {
        fill: #a03f24;
      }

      .cls-54 {
        fill: #91321c;
      }

      .cls-55 {
        fill: #e8781a;
      }

      .cls-56 {
        fill: #f29b29;
      }

      .cls-57 {
        fill: #90341d;
      }

      .cls-58 {
        fill: #a53a1b;
      }

      .cls-59 {
        fill: #f19c2c;
      }

      .cls-60 {
        fill: #d7581c;
      }

      .cls-61 {
        fill: #e06a1b;
      }

      .cls-62 {
        fill: #ee9b30;
      }

      .cls-63 {
        fill: #9a361b;
      }

      .cls-64 {
        fill: #aa3a1b;
      }

      .cls-65 {
        fill: #9d3a1e;
      }

      .cls-66 {
        fill: #db4d1c;
      }

      .cls-67 {
        fill: #b2401b;
      }

      .cls-68 {
        fill: #c8471c;
      }

      .cls-69 {
        fill: #f39e12;
      }

      .cls-70 {
        fill: #f9ce47;
      }

      .cls-71 {
        fill: #d54d1e;
      }

      .cls-72 {
        fill: #ce5616;
      }

      .cls-73 {
        fill: #f06623;
      }

      .cls-74 {
        fill: #e97a18;
      }

      .cls-75 {
        fill: #bd471c;
      }

      .cls-76 {
        fill: #f29d16;
      }

      .cls-77 {
        fill: #f29e10;
      }

      .cls-78 {
        fill: #d66518;
      }

      .cls-79 {
        fill: #bd4d1f;
      }

      .cls-80 {
        fill: #a15d2a;
      }

      .cls-81 {
        fill: #963a1e;
      }

      .cls-82 {
        fill: #e0661a;
      }

      .cls-83 {
        fill: #f9ce45;
      }

      .cls-84 {
        fill: #481f0d;
      }

      .cls-85 {
        fill: #9c391f;
      }

      .cls-86 {
        fill: #f16723;
      }

      .cls-87 {
        fill: #f39e14;
      }

      .cls-88 {
        fill: #42063b;
      }

      .cls-89 {
        fill: #a23b16;
      }

      .cls-90 {
        fill: #b0401d;
      }

      .cls-91 {
        fill: #e16b1c;
      }

      .cls-92 {
        fill: #bc461f;
      }

      .cls-93 {
        fill: #b94720;
      }

      .cls-94 {
        fill: #9e351c;
      }

      .cls-95 {
        fill: #a3391c;
      }

      .cls-96 {
        fill: #bb491f;
      }

      .cls-97 {
        fill: #c14c1b;
      }

      .cls-98 {
        fill: #f29f16;
      }

      .cls-99 {
        fill: #da5c1a;
      }

      .cls-100 {
        fill: #9f5c29;
      }

      .cls-101 {
        fill: #d5491d;
      }

      .cls-102 {
        fill: #b5421c;
      }

      .cls-103 {
        fill: #4d1f0c;
      }

      .cls-104 {
        fill: #9c3919;
      }

      .cls-105 {
        fill: #9c361b;
      }

      .cls-106 {
        fill: #e88219;
      }

      .cls-107 {
        fill: #9a391b;
      }

      .cls-108 {
        fill: #9b371d;
      }

      .cls-109 {
        fill: #993a1d;
      }

      .cls-110 {
        fill: #f28a28;
      }

      .cls-111 {
        fill: #d4481c;
      }

      .cls-112 {
        fill: #f7b72f;
      }

      .cls-113 {
        fill: #f4ae20;
      }

      .cls-114 {
        fill: #c04c1b;
      }

      .cls-115 {
        fill: #a93d1a;
      }

      .cls-116 {
        fill: #f3952c;
      }

      .cls-117 {
        fill: #9a371a;
      }

      .cls-118 {
        fill: #9f5a28;
      }

      .cls-119 {
        fill: #9d3a20;
      }

      .cls-120 {
        fill: #8d4e20;
      }

      .cls-121 {
        fill: #b3411f;
      }

      .cls-122 {
        fill: #e27618;
      }

      .cls-123 {
        fill: #e07618;
      }

      .cls-124 {
        fill: #933113;
      }

      .cls-125 {
        fill: #9e3a1d;
      }

      .cls-126 {
        fill: #ed9a16;
      }

      .cls-127 {
        fill: #97432c;
      }

      .cls-128 {
        fill: #e57716;
      }

      .cls-129 {
        fill: #ad3f1b;
      }

      .cls-130 {
        fill: #f6a32a;
      }

      .cls-131 {
        fill: #440e3e;
      }

      .cls-132 {
        fill: #f29d13;
      }

      .cls-133 {
        fill: #c6491c;
      }

      .cls-134 {
        fill: #e77e19;
      }

      .cls-135 {
        fill: #af3e1f;
      }

      .cls-136 {
        fill: #be461b;
      }

      .cls-137 {
        fill: #db601f;
      }

      .cls-138 {
        fill: #a23a20;
      }

      .cls-139 {
        fill: #bd4920;
      }

      .cls-140 {
        fill: #a05b28;
      }

      .cls-141 {
        fill: #c8451c;
      }

      .cls-142 {
        fill: #f3a729;
      }

      .cls-143 {
        fill: #f3a013;
      }

      .cls-144 {
        fill: #bb471e;
      }

      .cls-145 {
        fill: #9a391f;
      }

      .cls-146 {
        fill: #e9771a;
      }

      .cls-147 {
        fill: #e17516;
      }

      .cls-148 {
        fill: #f3a012;
      }

      .cls-149 {
        fill: #f19825;
      }

      .cls-150 {
        fill: #bb491e;
      }

      .cls-151 {
        fill: #f39e11;
      }

      .cls-152 {
        fill: #e17221;
      }

      .cls-153 {
        fill: #d75c22;
      }

      .cls-154 {
        fill: #9e3820;
      }

      .cls-155 {
        fill: #f39f11;
      }

      .cls-156 {
        fill: #f3a112;
      }

      .cls-157 {
        fill: #bc441e;
      }

      .cls-158 {
        fill: #c44e1f;
      }

      .cls-159 {
        fill: #a6381b;
      }

      .cls-160 {
        fill: #d66b1c;
      }

      .cls-161 {
        fill: #d5481b;
      }

      .cls-162 {
        fill: #98391f;
      }

      .cls-163 {
        fill: #98381e;
      }

      .cls-164 {
        fill: #b9471f;
      }

      .cls-165 {
        fill: #d45919;
      }

      .cls-166 {
        fill: #a73b1b;
      }

      .cls-167 {
        fill: #bc471e;
      }

      .cls-168 {
        fill: #f06523;
      }
    </style>
  </defs>
  <g id="Layer_1-2" data-name="Layer 1">
    <rect class="cls-120" x="90.4" y="247" width="39.6" height="23.3"/>
    <g id="Layer_1-2" data-name="Layer 1-2">
      <path class="cls-103" d="M68.7,273.2c-.5-.6-.2-1.3-.2-2v-21.6c0-1.4-.3-2-1.8-1.8-.8,0-1.5,0-1.5-1.2v-24.9c.2-4.4,0-8.9,0-13.3v-2c1-.7,1.9-.6,2.9,0,.7.9.5,2,.5,3v24.3c0,4.1.2,2.3,2.3,2.3h5.7c2.1,0,2.3-.2,2.4-2.5l-.2-23.5c0-.9,0-2,.5-2.8,2.5-.9,3.3-.3,3.3,2.3l.2,24.2c0,.8-.2,1.6.7,2.2.7.3,1.5.2,2.2.2h28.3c.9,0,1.8.2,2.6-.5.7-.7.5-1.5.5-2.3v-24.3c0-.8,0-1.7.8-2.1.9-.4,1.9-.5,2.7.4.4.8.3,1.8.3,2.7v23.3c0,2.7,0,2.8,2.8,2.8s4.7.3,7-.3c.6-.5.5-1.1.5-1.7v-22.5c0-1.7-.5-3.4.5-5,1-.6,1.9-.7,2.9,0v41.1c-.2.3-.5.3-.8.3-2.5.2-2.4.2-2.4,2.7v21.3c0,1.4-.5,1.8-1.7,1.6-1.2-.2-2,.1-1.8,1.6-.9-.8-2.3-.7-3.2-1.6,0-.3.5-.6.8-.6,1.6,0,2-1,1.9-2.4-.2-2.2.6-4.4.4-6.6,0-.7,0-1.4-.2-2v-.6c-.2-3.2,0-6.4,0-9.5s-.2-2.1-2.1-2.1h-50.8c-.8,0-1.8-.4-2.1.9v20.9c0,.6,0,1.3-.4,1.8-1.2.4-2.4.3-3.5,0h0v-.2h0Z"/>
      <path class="cls-111" d="M159.9,174.3c0,.1-.2.3-.3.4-.2.1-.3.3-.6.4-1.5.4-2.3,1.5-2.4,3.2,0,2-.2,2.3-2.2,2.5-.9,0-1.3.5-1.3,1.4s0,1.1-.5,1.6h0c-.3.2-.7.4-1.1.4-1.1,0-1.7.6-2.3,1.5-.9,1.6-2.5,2.3-4.3,2.6h-1c-9-.1-18,.6-27,.3-.9,0-1.8.1-2.7-.4-.2-.2-.2-.4,0-.6.8-.6,1.6-.5,2.5-.5h11.7c1,0,1.9,0,2.5-1,.6-.8,1.6-.7,2.5-.8.5,0,.9.1,1.4.1,1,0,1.7-.3,1.7-1.4s.5-1.6,1.5-1.6c1-.1,1.3-.8,1.3-1.7v-1.6c0-.5.1-1.3-.7-1.4-.8,0-.8.7-.8,1.3s0,.8-.2,1.2c-.1.3-.3.7-.8.5-.1-.1-.2-.3-.3-.5-.3-1.7-.3-3.3,1.6-4.3.8-.4,1-1.2,1-2v-1.4c0-3,1.1-3.7,4.1-2.6.5.8.5,1.6,0,2.4-.2.3-.6.5-1,.6-1.7.4-2,.9-1.8,2.5,0,.6.3,1,.9,1s1.1-.3,1.2-1c.1-1-.2-2.1.5-3,.2,0,0,0,.1-.1.7-.7,2.1,0,2.4-1.1.4-1.6.3-3.4,0-5.1-.2-1-1.3-.7-1.9-1.1-.5-.9.3-.9.8-.9.8,0,1.3-.4,1.6-1.1,0-.1.2-.3.4-.3s.3.1.4.3c.5,1,1.1,1.3,1.9.2.4-.6.9-.8,1.6-.8,1.3,0,1.7-.7,1.6-1.9v-3.1c.1-1.4-.3-2.2-1.9-2.2s-.7-.1-.9-.4c-.7-2.3-.4-3,1.8-3.6.8-.2,1-1,1.7-1.3.7.5.5,1.2.5,1.8v1.7c.1.6.5.8,1.1.8s.9-.3.9-.8c.1-1.2.1-2.4,0-3.6-.1-1.1-1.6-.6-1.9-1.4,2.2-.9,2.1-2.7,2-4.6,0-.8-.4-1.9.9-2.2.7.8.4,1.7.5,2.6v1.6c0,.8-.4,2.1,1,2.1s.9-1.4,1-2.2v-4.1c0-1.3,0-1.5.5-2.2,2-.8,4-.3,6-.3s.4,0,.6,0c.8.3,1.7.3,2.5,0,1.6-.4,3.2-.4,4.8,0,2.7.4,4.6-.1,6.1-3.8.2-.6.5-1.1,1.2-1.1,1.2,0,2.4-.4,3.5.4.5,2.7.7,5.4.5,8.2-.2.4-.5.6-.9.8-1.9.3-3,1.5-3.1,3.5,0,1.2-.5,1.9-1.7,1.9s-1.6.5-1.5,1.6c0,.8-.3,1.6-.3,2.4,0,1.2-.3,2.1-1.7,2.3-.9,0-1,.8-1,1.6,0,1.4-.5,2.2-1.9,2.5-.9.1-1.3.7-1.2,1.6,0,1-.4,1.8-1.5,2-.5,0-.8.5-.9.9-.1.4-.2.9-.6,1-1.2.4-1.9,1.2-2.1,2.5,0,0-.1.3-.2.3-2.2,0-2.9,2.6-4.9,2.9-.7,0-.8.6-1,1.2-.1.8,0,1.6-.5,2.4h.6,0Z"/>
      <path class="cls-63" d="M47,183.9h-1c-1.6.2-3,0-2.6-2.2.2-1.4-.9-1.1-1.6-1-1.3.1-1.8-.3-1.6-1.6v-1.6c0-2.7,0-2.8-2.6-3-.7,0-1-.2-.9-.9,0-1.1-.2-1.6-1.4-1.5-.9.1-1.2-.3-1.1-1.2,0-.9-.3-1.3-1.2-1.2h-.3c-1.6,0-.4-1.6-1.1-2.1-.6-.4-2.1.5-2-1.1.1-1.3-.5-1.6-1.6-1.5-1.6.2-2.1-.4-1.9-1.9v-1.7c.1-1.6,0-3-2.3-2.5-1.1.2-1-.7-.9-1.4.2-1.7-.2-2.8-2.3-2.4-1.2.2-1.2-.6-1.1-1.4.2-1.4-.3-2.1-1.8-1.8-1.5.2-1.9-.4-1.7-1.8v-4.3c0-1.3-.3-1.9-1.6-1.7-1.8.3-2.3-.4-2.2-2.2.1-2.1,0-4.3,0-6.4s-.4-1.6-1.5-1.4c-1.9.4-2.2-.5-2.1-2.2.1-2.5,0-4.9.1-7.4,0-1.3.7-1.9,1.9-1.8s1.9.8,1.9,2v6c0,1.2.2,2.1,1.7,2.3.9,0,1.3.8,1.6,1.6.4,1.9.2,3.8.2,5.7s.4,2.5,2.1,2.6c1.2,0,1.7.8,1.7,1.9v1.7c0,1.1.2,1.9,1.6,1.9s1.4.2,1.5.8c.2,1.7,1.4,3,2.1,4.4.8,1.5.9,3.7,3.5,3.8,1.2,0,1.4,1.5,1.4,2.5s0,2.5,1.8,2.5.7.2.7.5c0,1.5,1.9,2,2.1,3.4,0,.4.3.6.7.7.2,0,.6,0,.6.2.8,2.3,4.4,2,4.7,4.9,0,.8,1,.9,1.6,1,1.4.2,2.1.9,2,2.4,0,1.8.2,3.1,2.3,3.9,1.8.7,1.2,2.6,1,4.1,0,.2-.2.3-.4.4v-.2.2h0Z"/>
      <path class="cls-109" d="M75.1,16.2c.6-.8.3-1.8.3-2.7,0-1.4.2-1.9,1.8-1.9h45.9c1,0,1.6.2,1.6,1.4,0,2.1,1,3.1,3.1,3.1h5.9c1.4,0,1.8.5,1.6,1.8v1.7c-.2,0,0,0-.1,0-3.5.6-7,.8-10.5-.3-.6-.5-.5-1.2-.6-1.9,0-.8-.4-1.7-1.3-1.8-2.6-.1-5.2-.5-7.8.3-1.3,2-2.5,2.2-4.2.8-.5-1.2-1.6-1.1-2.6-1.1h-27.8c-1.9-.4-3.1.4-3.9,2.1-.4,1.5-1.4,2.3-2.9,2.4h-5.5c-2.4,0-3.1-.8-2.5-3.2.2-.9.8-.6,1.4-.6h8.4-.3,0Z"/>
      <path class="cls-117" d="M114.3,188.3c5.4,0,10.7.3,16.1,0,4.9-.3,9.7-.2,14.5-.3,1.8,0,4-1.6,4.3-3.3.1-.6.4-.8.9-.8h2.6v.7c-.2.9.6,2.1-.1,2.8-.7.6-1.8.2-2.7.2s-.8.7-1,1.3c-.2.8.8,1.9-.6,2.3-.9.4-2.2-.3-2.8.3s-.2,1.9-.2,2.8-.2,1.2-1.1,1.1c-.8-.1-1.7.3-2.5-.4,0-.2,0,0,0-.1-.5-2-1.7-3-3.8-3h-6.2c-.9,0-1.3.6-1.3,1.5v2.6c0,1.9-.6,2.2-2.5,1.9-.9-.6-.8-1.4-.7-2.3,0-1.1.6-2.4-.4-3.4-1.1-.5-2.3-.2-3.4-.3h-32.3c-.5,0-.9,0-1.3-.3-.8-.7-.9-1.6-.5-2.5.4-1,1.2-1.3,2.2-1.3,6.6,0,13.2-.2,19.8.2,1,0,2.1-.4,3,.3h0Z"/>
      <path class="cls-120" d="M128.2,261.7c.7,1.6.4,3.3.2,4.9s-.3,3.2-.2,4.8c0,1.3-.3,1.9-1.7,1.7-.5,0-1-.1-1.5.3,0,1.1.3,2.2,1,3.1-.4.1-.9.3-1.3.4-4.5.3-9,0-13.5,0s-4.4.2-6.5,0c-.2,0-.4-.2-.5-.3v-.6c1-.8,0-2.3,1.1-3.1,1.7-.6,3.4-.3,5.1-.3s1.8-.5,1.8-1.8-.3-2.8,1.1-3.8c1-.4,2-.3,3-.3h.7c1.9,0,2.8-.9,2.8-2.8v-.8c0-1.2.8-1.7,1.8-2,.8-.2,1.5-.2,2.3-.1.3,0,.6,0,.8.3,0,.1.2.3.3.5.2.7,0,1.5.2,2.2.2,1-.7,2.7,1.1,2.7s.8-1.6,1-2.6c0-.8,0-1.6.5-2.3h.4Z"/>
      <path class="cls-104" d="M58.1,195.6c-2.5,0-4-.7-3.4-3.6.2-1.1-1-.8-1.6-.7-1.8.2-2.5-.5-2.2-2.2.2-1.1-.2-1.5-1.4-1.6-2.4,0-2.4-.1-2.5-2.6v-1h0c1.9-.9,2.4-.2,4.1.7,1.9.9,3.4,2.7,5.7,2.8h11.4c.2,0,.4,0,.6.1,2.7.3,5.5,0,8.2,0h2.5c.8,0,1.6,0,2.4.3.6,1.6.3,2.3-1.9,3.6-1.8.3-3.5,0-5.3.1-2.2,0-2.3,0-2.3,2.2v.8c0,1.5-.9,2.2-2.4,2.1-1.4,0-1.6-.9-1.7-2.1,0-.9.4-2-.5-2.8-2.4-.6-4.9,0-7.3-.3-.8,0-1.8-.4-2,.9,0,1.1,0,1.9,1.3,2.1,0,0,.3.2.4.3,0,.3,0,.5-.2.8-.8.2-1.5,0-2.1-.4h0l.2.5h0Z"/>
      <path class="cls-85" d="M193.6,81.9c1.4-.4,1.1.7,1.1,1.5v37.7c0,.6.3,1.3-.3,1.7-3.4.3-3.3.3-3.8-3-.4-2.8.2-5.5.2-8.2.1-7.5,0-15.1,0-22.6v-1.9c0-.6.5-1,.9-1.3,1.2-1,2-2.2,1.6-3.8h.3Z"/>
      <path class="cls-107" d="M8.7,122.8c-2.3,0-3.5-1.2-3.5-3.5v-35.5c0-.7-.4-1.8,1-1.6,2.4-.4,2.6-.2,2.6,2.2v29.8c0,.8,0,1.7.2,2.6,0,2,.6,4.1-.4,6,0,0,.1,0,.1,0Z"/>
      <path class="cls-94" d="M159.9,174.3c-.7-1.2.2-2.4.1-3.5,0-.6.7-.5,1.1-.5,1,0,1.9-.1,2-1.6,0-.9.9-.9,1.6-.9,1.1,0,1.8,0,1.6-1.5-.2-.8.3-1.3,1.2-1.3s1.2-.4,1.2-1.2.3-1.2.9-1.2c1.4,0,1.6-.6,1.4-1.7-.1-1.2,0-2,1.6-1.9,1,0,1.7-.5,1.6-1.7-.2-1.4,0-2.6,1.9-2.4.5,0,.8-.2.8-.7,0-1.3.5-2.6.3-3.9-.2-1.3.2-1.7,1.4-1.6,1.6.2,1.9-.5,1.9-2,0-2.2,1.1-3.3,3.4-3.3-.4,1.9.5,4-.9,5.7-.3.4-.1.9.1,1.3.3.4.8.7.8,1.3-1.1.5-2.4-.2-3.4.5v1.2c.2,1.2-.2,1.7-1.5,1.5-1.5-.2-1.9.4-1.7,1.8.1,1.2.2,2.4-1.6,2-.9-.1-1,.4-1,1.2v3.3c.1,1.2-.4,1.6-1.6,1.6-1.2-.1-2.4,0-2.1,1.7,0,.5-.1.9-.8.8h-.5c-1.8-.2-.3,2.1-1.7,2.2-1.1,0-2.1-.1-1.9,1.6.1,1.2-.9.7-1.5.8s-1.5-.3-1.4.8c.2,1.7-.8,1.7-2,1.6h-1.4,0Z"/>
      <path class="cls-23" d="M191.5,86.4v21.6c0,3.3-.3,6.5-.3,9.8s.2,2.7.3,4.1c0,.7.4.8,1,.8h2.1-.1c-2,.2-3,1.4-3,3.5,0,3.2.2,4.7-.2,7-.4-.2-.5-.6-.5-1v-7.3c0-.7,0-1.5-1.1-1.4-.9,0-.9.7-.9,1.4v6.5c0,.8,0,1.6-.8,2-1.1.4-2.5,0-3.5.9-.1-.1-.2-.3-.3-.5-.3-1.5.1-3,.3-4.4,0-.8.7-1.3,1.4-1.4,1.5-.2,1.6-1.2,1.6-2.4v-11.9c0-.7,0-1.4.1-2.1,0-.5.2-.9.2-1.4,0-1.1.5-1.8,1.6-2,1.2-.2,1.6-1,1.6-2.1v-19c0-1.9-1.2-2.1-2.4-2.5-.8-1.1-1.3-2.4-1.9-3.5.4-.3.9-.3,1.4-.2.3,0,.7.2,1,.2,3.1.2,4.1,2.2,2.8,5h-.2l-.2.3h0Z"/>
      <path class="cls-125" d="M191.5,86.4v-1.7c0-2.6-.1-2.8-2.8-2.7-.5,0-.7-.2-1-.5-.5-.6-.5-1.3-.5-1.9v-4.5c0-1.4-.2-2.4-1.8-2.5-.8,0-1.1-.7-1.3-1.5-.4-1.6-.4-3.3-.3-5,0-1-.3-1.6-1.4-1.4-1.6,0-2-.8-2.1-2.1v-5c0-.6,0-1.4.9-1.4h1.3c.8,1.2.4,2.4-.1,3.5-.7,1.4-.2,2.3,1.3,2.7.2,0,.4.2.6.3.2,1.3,1,1.1,1.9.8,1.1-.3,1.7,0,1.6,1.3v4.8c0,1.1.3,1.6,1.4,1.3,1.8-.4,2.3.5,2.1,2.2-.1,2,0,4,0,6s0,2.5,2.3,2.7c1.1,1.6.2,3.5-2.1,4.5h0Z"/>
      <path class="cls-10" d="M145.5,24c1.8,0,3.6.1,5.3,0,1.6-.1,2.3.3,2,1.9v1.2c.1.2,0,.4,0,.6-1.6.7-3.2.3-4.8.4-1.3,0-2.6.2-3.9-.3-.9-.5-1.3-1.4-1.5-2.4s-.8-1.4-1.8-1.5h-4.5c-1.5,0-1.6-.9-1.6-2s.2-1.9,1.6-1.8h7.8c1.1,0,1.3.4,1.3,1.4s-.3,1.7.2,2.5c0,0-.1,0-.1,0Z"/>
      <path class="cls-134" d="M8.7,122.8v-5.9c-.3-.6-.1-1.3-.1-1.9v-30.5c0-2.1.8-3.1,3.5-2.8.6.3.6.8.5,1.4-.3,1.1-1.1,1.7-2,2.1-.8.4-1,.9-.9,1.7v16.9c-.1,1.6,0,3.3,0,4.9s.4,3.7,1.9,5.2c1.2,1.1,1.2,2.8,1.2,4.4,0,3.5.6,6.9.4,10.4,0,1,.3,1.7,1.3,2.2,1.9.9,2.1,1.4,1.6,3.6,0,0-.1.1-.2.2-.4-1-1.1-1.6-2.2-1.4-1,0-1.2-.5-1.2-1.4v-6.9c0-1,0-1.9-1.3-2-1,0-1.9.2-2.1,1.4v-1.6h-.4,0Z"/>
      <path class="cls-7" d="M145.5,24c-.8-.7-.4-1.6-.4-2.4s-.3-1.4-1.3-1.3h-7.6c-1.7,0-1,1.3-1.2,2.1-.2,1.1.4,1.1,1.3,1.1h5c1.1,0,1.6.5,1.6,1.5s.5,1.9,1.1,2.6c0,.3.1.7.2,1,.1,3.2-.7,3.8-3.9,3.1-.4-.3-.6-.7-.6-1.2,0-1.3-.8-1.9-1.6-2.7-1.1-1.1-1.9-2.2-3.4-2.6-.2,0-.4-.5-.4-.8,0-1.5-.9-1.7-2-2.5-1.6-1-3.2-1-4.9-1h-1.4c-.7-.2-1.5-.3-1.8-1.2v-.3c3.5.7,7.1.1,10.7.4.8.7,1.7.3,2.6.3h6.4c1,0,1.5.3,1.4,1.4v2.7h0l.2-.2Z"/>
      <path class="cls-121" d="M159.7,34.1c.6.5,1.3.2,2,.3.8,0,1.6,0,1.5,1.2,0,1.3,1,.8,1.6.8,1.1,0,1.8,0,1.6,1.5,0,.5.3.8.8.7,1.2-.2,1.7.3,1.5,1.5,0,.3,0,.9.3.8,2.2-.4,2,1.3,2.4,2.5,0,.7,0,1.4-.4,1.9-1.3.6-2,0-3.1-.9-1.1-1.2-1.9-3.2-4.1-3h-.5c-.5-2.5-4.5-2.3-4.3-5.4,0-.7-.6-.9-1.2-.9s-1.3,0-1.8-.4c-.3-.3-.4-.7-.4-1.1,0-1.3-.4-2-1.8-2.1-.4,0-1.1,0-.8-.9,1-.5,2.1-.5,3.1.1,1.1.2,2.3-.3,3.3.4-.5.5-1.2.4-1.7.6-.7.1-.8.6-.8,1.1s.3.8.8.9c.6,0,1.3,0,1.8.5h.2,0Z"/>
      <path class="cls-84" d="M104.2,276.6h18.5c.7,0,1.4-.2,2,.3,0,2.1-1,3.1-3,3.1h-44.7c-.5,0-1.2.3-1.6-.3.9-.8,2-.6,3-.6h43.8c.6,0,1.3,0,1.2-.8,0-.8-.7-.7-1.2-.7h-42.9c-1.9,0-3.4.2-3.9,2.3,0-.3-.2-.6-.2-.8.3-1.7-.4-2.5-2.2-2.2-.8.1-1.3,0-1.1-1,.4-2.1-.6-2.7-2.5-2.5-.2,0-.5,0-.8-.2h3.3c2.4-1.1,3.5-.7,4.1,1.7.3,1.2,1.1,1.1,2,1.1,4.4,0,8.8.1,13.2,0h11c.7,0,1.4,0,1.9.5h0Z"/>
      <path class="cls-29" d="M12.1,81.8c-.3.2-.7,0-1,0-1.8,0-2.5.8-2.5,2.6v32.3c-.6-.6-.3-1.3-.3-2v-30.4c0-1.6-.3-2.5-2.1-2.2,1.6-.5,2.5-1.6,2.5-3.5v-6c0-1.2.3-1.8,1.5-1.6,1.6.2,2.2-.4,2-2-.1-1.3,0-2.6,0-4s.4-1.7,1.6-1.5c1.8.3,2.4-.5,2.2-2.3-.1-1.4,0-2.9,0-4.3s.3-1.6,1.5-1.5c1.6.3,2.4-.3,2.1-2s0-3,2.3-2.5c.5,0,.9-.2,1.1-.7,1.1-.3,2.1-.3,3.1.2.2.9-.6.8-1.1.9-1.2.2-1.8.9-1.8,2.1s-.5,1.9-1.7,2.1c-1.2,0-1,1.2-1.2,2-.5,2,.2,4-.5,5.9,0,.2-.3.2-.5.2-1-1.3-.4-2.8-.5-4.1v-2.1c0-.7,0-1.2-.8-1.3-.8,0-1.1.6-1.1,1.3,0,2-.2,4,.3,6-.4.7-1,1-1.6,1.4-1.7.2-2.5,1.2-2.5,3v1.7c0,1.3-.6,2.1-1.9,2.1s-1.6.7-1.5,1.8v4.3c0,1.8.8,2.9,2.4,3.3.1,0,.2.3.2.5h0l-.2.2h0Z"/>
      <path class="cls-31" d="M46.7,27.4c.2-2.3,1.5-3.5,3.9-3.5h5.1c.6.2.8.8.8,1.3,0,2.3-.3,2.7-2.5,2.7h-3.1c-2,0-3.2.9-3.6,2.7,0,.1-.2.3-.3.4-1.8.2-2.8.9-3.3,2.9-.3,1.4-2.2.9-3.5.5-.2,0-.2-.3,0-.5v-1.4c-.2-1.5.2-2.3,1.9-2,.5,0,1.4.3,1.4-.8s-.5-1.8.3-2.3c.8-.4,1.8-.2,2.7,0,0,.9-.8.7-1.4.8-.6.2-.9.5-.8,1.1,0,.5.4.7.8.7s1,0,1.2-.7c0-.7,0-1.4.5-1.9,0,0,0,0-.1,0Z"/>
      <path class="cls-133" d="M56.1,25.1c0-.4-.2-.7-.4-1.1,0-.2.2-.4.3-.7,2.6-.7,5.2-1.3,7.7.6.3.2.7.3,1.1.5s.3.2.3.5c-.5.8-1.3.7-2,.7-1.1,0-1.7.4-1.8,1.6v.2c-.3,1.1,0,2.3-.4,3.4-.3,1.6-2.2.6-2.8,1.6-.7,2.7-1.1,3-3.7,2.3-.9-1.6-.8-2.3.3-3.4.8-.8,1.4-1.7,2.2-2.5s.2-2.5-.9-3.5h0v-.2h.1Z"/>
      <path class="cls-18" d="M171.1,45.2c0-.6-.2-1.3.4-1.8,2.1,0,3.2.8,3.2,2.9s-.2,2.6.1,3.8c.5,1.6,2.3,0,3.2.9.3,2.6-.2,3-3,2.4h-.1c-2.2-.8-3-2.8-3.9-4.7-.6-1.1-.7-2.3,0-3.4h.1Z"/>
      <path class="cls-162" d="M65.1,24.7c-.8,0-1.9.4-2.2-.9,0-.6-.8-.4-1.2-.4h-5.7c0-1-.2-2.1,0-3.2,2.7-.3,5.5,0,8.2-.1.6,0,1,.3,1.1.8,0,1.3.4,2.6-.4,3.8,0,0,.2,0,.2,0Z"/>
      <path class="cls-26" d="M40.1,34.1v.3c1,2.4.3,4.1-2.1,4.9-.4,0-.8.2-1,.6-1.2,1.7-2.8,3.2-4.4,4.6-.2.2-.5.6-.8.6-1.8,0-2.1,1.2-2,2.7,0,1.5-.7,2.2-2.2,2.3-.4-.4-.3-.9,0-1.2,1.4-1.2.7-2.8.9-4.2,0-.6-.5-.7-.9-.8-.6,0-1.2,0-1.6-.5,1-.4,2.2,0,3.2-.3,2.1-.6,3.3-2.1,4.3-3.9,0-.2.2-.5.5-.5,1.4-.2,1.7-1.3,2.2-2.3.2-.7-.2-1.4.3-1.9.6.4.4,1.3,1.2,1.5,1.4.4,1.4-.9,1.9-1.6l.3-.3s.2,0,.2,0Z"/>
      <path class="cls-119" d="M26.1,43.4c1,0,2.2-.2,2.9.2.8.6,0,1.7,0,2.7.1,1.2.4,2.5-1.3,3.1v1.1c-.5.5-1.1.5-1.8.2-1,0-2.2.2-3.2-.4-.4-1.1.1-1.4,1.1-1.3,1.9.3,2.2-.6,2.1-2.3,0-1.1-.2-2.3.1-3.4h0Z"/>
      <path class="cls-85" d="M187.3,133.6c.8-.4.7-1.1.7-1.8.9-.7,1.9-1,3.1-1v1.7c-.5.5-1.1.8-1.7,1.3-1.4-.2-1.7.5-1.6,1.7v6.7c0,1.3-.4,1.8-1.6,1.6-1.6-.3-2.1.3-2,1.9s0,3.2,0,4.8-.4,1.5-1.5,1.5-1.6-.1-2.4.2c.9-1,2.1-.1,3.2-.6-1.6-1-2-2.3-.5-3.7.4-.3.5-.9.3-1.5-.6-1.1,0-2.1.4-3,.2-.1.5-.2.7-.4,1.4-.4,2.5-2.5,2.3-4.5,0-1-.4-1.9-.5-2.9s0-1.8,1-2.3h0v.3h.1Z"/>
      <path class="cls-138" d="M152.8,183.9v-1c0-2.3,0-2.4,2.3-2.5.9,0,1.2-.4,1.2-1.3v-.8c0-2.2,1.1-3.4,3.4-3.5v.8c0,1.4.3,2.8,0,4.1-.5,1.6-2.4,0-3.3,1-.5.5-1.2.4-1.8.5-.5,0-.8.4-.8.9s.3.7.8.8c.6,0,1.3,0,1.8.5-1.1.8-2.3.1-3.4.4h-.2Z"/>
      <path class="cls-28" d="M142,194.9c.6.5,1.3.2,2,.3.9,0,1.1-.4,1.2-1.2,0-2.1,1.1-3,3.2-2.9-2.7.4-2.8.4-2.8,3.2s-.6,1.3-1.5,1.2c-1.2-.1-2.1,0-1.8,1.6.1.8-.4,1-1,.9-1-.1-1.7,0-1.5,1.4v.5c-.2,1.2-2.3-.3-2.2,1.7s-1.6.7-2.4,1.1h-.3c-.2,0-.3-.2-.4-.4-.1-.8-.4-1.6.5-2.2.4.2.5.6.6,1,0,.3.3.6.7.5.2,0,.3-.2.3-.4,0-.3-.2-.5-.5-.6-.3,0-.7-.1-.9-.4-.4-.6.2-.7.5-.8.9-.2,1.3-.8,1.6-1.6,0-.1.2-.3.3-.4,1.3-.2,1.3-1.3,1.5-2.2,0-.1.2-.2.4-.3.8-.2,1.7-.4,2.6,0h-.1Z"/>
      <path class="cls-53" d="M36.3,36.4c0,1.4.2,2.8-1.9,2.6h-.3c0,1.2-1.6,1.8-1.7,2.3-.4,2.2-1.9,1.6-3.1,1.6,0-1-.3-1.9,1.4-2.3.7,0,.9-2.4,2.5-2.8-.3-2,1.2-1.6,2.3-1.6h.8s0,.2,0,.2Z"/>
      <path class="cls-9" d="M65.1,24.7c0-3-1.4-4.5-4.4-4.5h-4.5c2.2-.7,4.5-.3,6.8-.2,1.7,0,2.5-.3,2.2-2.2-.2-1.2.2-1.7,1.6-1.7,2.8.1,5.6,0,8.4,0-2.7.5-5.4.1-8,.2-1.1,0-1.6.2-1.6,1.5s.3,1.8,1.6,1.6h2.2c0,.8-.3,1.5-.3,2.2-.2.7-.8,1.1-1.4,1.1-1.1,0-1.6.8-2,1.8,0,.1-.3.1-.5,0h0v.2h0Z"/>
      <path class="cls-157" d="M174.9,53.2h.8c1.6.2,2.6-.3,2.3-2.1,0,.3.2.5.2.8-.2,1.5,0,2.5,2,2.3,1.5-.2.3,1.5,1,2.1-.6.4-.4.9-.5,1.5-2.1.9-2.8.7-3.6-1.4-.3-.7-.8-.8-1.3-1-.9-.4-1.6-1-.9-2.1h0Z"/>
      <path class="cls-108" d="M184.2,62.9h-1.4c-1.7,0-2.5-1.1-1.4-2.5,1-1.3,1.1-2.7,1.1-4.2,1.4-.4,2,0,1.8,1.6-.1,1.7.2,3.4-.1,5.1h0Z"/>
      <path class="cls-72" d="M65.5,206.3h0c.5-1.5,2.2-1,3-1.9.4-2.1-.5-2.8-3.1-2.1-.2,0-.2.2-.2.2v3.8h.3Z"/>
      <path class="cls-145" d="M156.3,30.6h-3.2c-.3,0-.5-.2-.6-.5,0-.2-.1-.3-.1-.5,0-.8-.1-1.5.4-2.1v-.4c.2,0,.4.3.6.3.9.2,2.2-.4,2.7.4.5.7.2,1.9.2,2.8h0Z"/>
      <path class="cls-24" d="M126,276.6c-1.8-.6-1.6-1.8-1-3.1,1.2,0,2.7-.5,3.1,1.4.6,2.2-.8,1.9-2.1,1.7h0Z"/>
      <path class="cls-145" d="M159.7,34.1h-1c-1.1,0-2.2.2-2.2-1.6s1.1-1.5,2.1-1.5h1c.2,1,.1,2.1,0,3.1h0Z"/>
      <path class="cls-12" d="M46.7,27.4v1.6c.2,1.6-.7,1.7-1.9,1.7s-1.1-1.1-1.2-1.9c0-.7.4-.8,1-.9.6,0,1.3.2,1.8-.3h.3s0-.2,0-.2Z"/>
      <path class="cls-34" d="M156.2,183.4h-1.6c-.9,0-1.6,0-1.6-1.3s.6-1.6,1.6-1.5h1.6v2.8h0Z"/>
      <path class="cls-127" d="M65.1,202.5h-1.6c-.3,0-1,0-.9-.2.8-2.3-2.5-1.4-2.4-3.1v-1.2c.8-.7,1.6-.5,2.5-.3.2,0,.3.2.5.3.3.6.3,1.2.2,1.9-.8,1.8.8,1.7,1.7,2.1v.3h0v.2Z"/>
      <path class="cls-42" d="M63,198h-2.8c-.6-.2-1.4,0-2-.3.7-.5,1.6-.8,2-1.8v-.7c.8-.7,1.6-.7,2.4,0,.8.8.8,1.8.5,2.9h-.1Z"/>
      <path class="cls-154" d="M39.8,34.4c0,1.3,0,2.3-1.7,2.2-1.8,0-1.2-1.2-1.4-2.1,1-.3,2.1,0,3.2,0h0Z"/>
      <path class="cls-54" d="M60.2,195.9c.4,1.8-.8,1.8-2,1.8-.4-.7-.2-1.4,0-2.1.7,0,1.5,0,2.1.3h0Z"/>
      <path class="cls-105" d="M189.4,133.8c.2-.9.8-1.4,1.7-1.3,0,.3,0,.6.1.9-.5.6-1.2.5-1.8.4h0Z"/>
      <path class="cls-2" d="M100.1,245.4h-29.4c-1.6,0-2.2-.5-2.2-2.2s1.1-3.4,3.4-3.4c3.4,0,6.5-.3,9.8,0,4.2.2,8.4-.3,12.6-.1,11.9.4,23.7.1,35.6.2,1.4,0,1.7.5,1.7,1.8,0,2.5-1.2,3.8-3.7,3.8h-27.8,0Z"/>
      <path class="cls-45" d="M117.3,228h-.3v7.8c.5-.5.3-1.2.3-1.8v-6Z"/>
      <path class="cls-45" d="M131.5,209.2v-3h-35.3c-2.5,0-5-.1-7.5,0h-7.5c-2.3,0-3.6-1.1-3.9-3.5v-.5c-.2-.8-.6-1.4-1.6-1.3-1,0-1.1.9-1.1,1.7v2.4c0,.8.6,1.1-1.1,1.1s-3.4.2-5.1.2c0,.2-.2.2-.2.2v2.8h63.4-.1Z"/>
      <path class="cls-120" d="M72,250.3c-.3-1.6.9-1.4,1.8-1.4h52.5c1.4,0,1.7.5,1.7,1.8v10.7c-1,.7-2.1.7-3.1,0h0c-.8-1-.4-2.2-.5-3.3,0-1.3-.4-2.2-1.9-2.3-.8,0-1.9,0-2.4-1.1-.2-.4-.2-.8-.2-1.2,0-2.9,0-2.7-3-2.7h-.7c-2.6,0-3.1-.3-3,2.7,0,1.3-.6,2-1.9,2.1s-2.6.2-4,.3c-1.1,0-1.6.5-1.7,1.6-.2,2.6-1.6,4-4.3,4.1-.9,0-1.8.2-2.7.2s-.8,0-1.2-.2c-1.3-.7-1.1-1.9-1.1-3,0-1.6-.8-2.5-2.4-2.8-1.2-.2-2.5.1-3.5-.6-1.1-.8-.5-2.3-.7-3.4,0-.4-.2-.7-.6-.8-1.7-.4-3.4-.2-5.1-.1-1.5,0-1.2,1.4-1.3,2.4,0,1.5-.6,2.5-2.2,2.5h-3.6c-1.1,0-1.8-.6-1.7-1.7,0-2-.4-3.3-2.8-3.3s-.4-.2-.6-.3h0l.2-.2h0Z"/>
      <path class="cls-120" d="M97,276.6h-20c-.8,0-1.4,0-1.5-1.2,0-1.5-.8-2.3-2.5-2.3h-1v-6.6c2.1,0,3.2-.9,3.3-3.1,0-1.7.5-2.2,2.2-2.5.8-.1,1.7-.1,2.6,0,1.4,0,1.8-.6,1.8-1.8s-.2-2.3.4-3.3c.5-.5,1.1-.7,1.7-.7h5c1.2,0,1.7.6,1.9,1.7.2,1.3-.6,2.9.6,3.8,1,.8,2.5.2,3.7.3.8,0,1.6.3,2,1.1.5,1.4.3,2.8.2,4.2-.2,1.1-.9,1.5-2,1.6h-3.4c-1.4,0-2-.8-2.1-2.2-.2-2.3-1.4-3.5-3.7-3.6h-.7c-2.4,0-2.5,0-2.5,2.5s.2,2-.4,2.8c-1.2.8-2.5.4-3.9.5-.8,0-1.8-.2-2.1.8-.4,1.1-.4,2.4,0,3.5.2.5.8.5,1.4.6h2.8c.9,0,1.7.3,2,1.3,0,1.4.7,1.9,2,1.8h3.6c1.2,0,1.4-.2,1.5-1,0-.8.3-1.6,1.3-1.9,1.1-.3,2.2-.2,3.3-.1,2.2,0,2.7.6,2.7,2.8s0,.8,0,1.2h0l-.2-.2h0Z"/>
      <path class="cls-44" d="M82.4,255.9v2.2c0,2.2-1.1,3.3-3.4,3.3s-1.4,0-2,.2c-.9.2-1.2.6-1.2,1.5v1.9c0,.8.4,1.8-.6,2.1-1,.3-2.3.6-3.2-.5v-16.3h.2c2.3,0,3.5,1.2,3.6,3.5,0,1.1.4,1.4,1.4,1.4h3.4c.5.5,1.4-.2,1.7.7h0Z"/>
      <path class="cls-100" d="M125,261.4h3.1v4.4c0,1.2-.6,1.5-1.6,1.4-1,0-1.5-.3-1.5-1.4v-4.5h0Z"/>
      <path class="cls-89" d="M134.7,202.5v3.8h-2.7c-.3-.4-.4-.8-.4-1.2,0-.9-.2-1.9.5-2.8.9-.5,1.9-.5,2.8.1h-.2Z"/>
      <path class="cls-124" d="M65.5,206.3c-.4-2.7,1.6-1.4,2.7-1.7,0,0,0,.1.2.2.2.5.3,1,0,1.5,0,0-2.9,0-2.9,0Z"/>
      <path class="cls-148" d="M134,185.8c-.5.4-1.1.4-1.6.4s-1,0-1,.5c0,1.6-1.1,1.3-2,1.3h-15c-.9-1.3-.4-2.8-.5-4.2,0-2.1,1.8-1.5,3-1.9,0,0,.2-.2.4-.4.4-1.4,0-2.7.2-4.1,0-.8,0-1.6,1-1.8,1.8-.4,2.3-1.7,2.1-3.4,0-2.9-.3-5.8.2-8.7.3-.8,1-.8,1.7-.8,1.2,0,1.6-.6,1.6-1.7v-9.8c0-.3,0-.6.3-.8.8-.8,1.9-.3,2.7-.8.7-.8.3-1.6.4-2.5.2-1.8-.4-3.6.4-5.4.8-.3,1.6-.3,2.4-.3,3.1.3,6.1-.1,9.1-.2,4.2-.1,8.3.6,12.5.4.5,0,1,0,1.5.5.8,2.3.4,4.5.3,6.8,0,.6,0,1.1-.4,1.5-.3,1.1-.6,2.1-2.2,1.8-.8-.2-1.3.3-1.2,1.2v1.9c1.1,2.8.6,4.1-2.2,5-1.1.7-.1,2.1-1,2.9h0c-.2.2-.5.3-.8.4-2.2.6-2.3.7-1.8,2.9-.1,1.3.4,2.7-.6,4-2.3,0-3.4,1.2-3.4,3.5s0,2.6-1.5,3.1-1.4,1.5-1.4,2.7v1.2c-.3.3-.7.5-1.1.5-1.3,0-1.6.7-1.6,1.8s.3,2-.5,2.9v-.4h0Z"/>
      <path class="cls-143" d="M187.7,112.1v15.1c0,1-.2,1.6-1.4,1.6s-1.7.5-1.7,1.7-.2,2.7-.4,4.1c-1.6.6-3.3,0-4.9.5-.9.3-1.5.6-1.5,1.6,0,1.5-.9,2-2.2,2.2h-2.3c-1.7,0-3.4-.2-5,.9-.6.5-1.4.3-2.2,0h-.4c-1.2-.8-2.5-.9-3.9-.9s-2,0-2.6-.9c-.4-2.2-.2-2.5,1.8-2.9.4,0,.8-.2,1-.5.4-.6.3-1.2.3-1.8v-8.4c0-3,.4-3.3,3.4-3.1,1,1,.5,2.3.7,3.4,0,.8-.2,1.9,1.2,2.1,1.2,0,2-.2,2.2-1.6.2-1,.9-1.5,2-1.6h1.7c1.5,0,2.4-.7,2.7-2.2.1-.6.5-1,1.1-1.2.4,0,1-.2,1-.6-.3-2.1,1.8-2.8,2.5-4.4.3-.7.8-1,1.5-1,1.1,0,1.4-.6,1.6-1.6.4-1.6,1.5-2.6,3.2-2.9.8.6.6,1.4.4,2.2h.1v.2h0Z"/>
      <path class="cls-67" d="M114.3,183.4v4.9c-1.7.7-3.5,0-5.2,0h-16.9c-2.7,0-3.2.5-2.5,3.2.7.8.5,1.8.5,2.8v2.7c0,1.2.3,2,1.7,2s.7.1.9.4c.8,1.4.4,3,.4,4.5s.3,2.2,1.9,2.1c.6,0,1.3,0,1.5.8h-7.6c-.2-.6.2-1.1.2-1.6v-2.1c0-1.5-.7-2.4-2.1-2.8-1-.3-1.2-.9-1.3-1.8v-4.1c0-.9,0-1.5-.2-1.8-.6-.8-1.5-.4-2.2-.5-1-.1-2.1.3-2.9-.5.6-1,2-1.6,1.7-3.1.4-.6,1-.8,1.7-.8,1.7,0,2.2-.8,2-2.4v-.8c0-.9-.2-1.5-1.3-1.5s-.9,0-1.3-.1c-.2,0-.3-.2-.4-.3,0-.2,0-.4.2-.5,1.1-.5,2.4-.3,3.5-.5.6,0,1.1,0,1.7.2,1.3.2,1.9,1,2,2.4,0,2.3,1.4,3.4,3.7,3.4h14c1.5,0,2.3-.7,2.4-2.1,0-.9,0-1.9,1.1-2.4,1-.5,2-.3,2.9.5h0v-.2h0Z"/>
      <path class="cls-159" d="M146.9,159.5c1.8-.3,2.7-1.4,2.7-3.2v-1.4c3.7,0,3-.3,3.1,3v3.6c0,1.1-.4,1.5-1.4,1.4-1,0-1.9,0-2.2,1.3-.1.8-1.1.5-1.6.4-1-.1-.5-1.1-.7-1.7-.2-1.1-.3-2.3,0-3.4h0Z"/>
      <path class="cls-16" d="M159.7,139.8v7.7c0,1.3-.8,1.3-1.6,1.3s-1.6,0-1.5-1.3v-5.7c-.6-.8-.5-1.6-.2-2.4.9-.9,2-1.5,3.3-.8.3.4.3.8,0,1.1h0Z"/>
      <path class="cls-146" d="M166.2,139.8c.9,0,1.7,0,2.6-.9,1.2-1.1,2.9-.4,4.4-.6.6,0,1.3.1,1.9,0,1.4,0,2.5-.5,2.2-2.3-.2-1.1.4-1.6,1.5-1.6h5.5v.4h-1.9c-1.6-.2-2.6.1-2.3,2.1,0,.5,0,1-.6,1s-1.1.6-1.5,1.2c-.7,1.1-2.1,1-3.1.8-2.4-.3-4.8-.3-7.2,0-.5,0-1,.1-1.5-.3h0v.2h0Z"/>
      <path class="cls-94" d="M184.2,135v-.3c.4-2.1,1.9-1,3.1-1-1.3,1.3-.5,2.7-.2,4.1.3,1.5.3,2.8-.5,4.1,0,.2-.3.4-.2.6.3,2.2-.9,1.1-1.8.8,0-2.8-.5-5.5-.3-8.3h-.1Z"/>
      <path class="cls-115" d="M134,185.8v-3.1c1-.7,2.5-.3,3.2-1.7.6-.7.4-1.5.3-2.2-.1-1.3.8-1.5,1.6-1.5s.8.8.9,1.5v2.4c0,1.2,0,2-1.6,1.9-1.2,0-1.1.8-1.2,1.7,0,.5.2,1.4-.6,1.3-.8-.1-1.9,1-2.5-.3h0Z"/>
      <path class="cls-166" d="M143.3,170.2v-4.1c.3-.3,0-.8.3-1,1.8,0,2.7.9,2.7,2.7v1.7c0,3.4.3,3.2-3.1,3.2h0v-2.5h.1Z"/>
      <path class="cls-82" d="M156.6,139.5v2.4c-.7,1.5-.3,3-.3,4.5s-.1,2.4-1.9,2.1c-.2,0-.4.2-.6.3-.2.2-.4.2-.7,0v-6.9c0-.6.4-.7.8-.7,1.5,0,2-.7,2-2.1s.1-.4.2-.6c.1-.1.3-.2.5,0,.3.4.2.8,0,1.1h0Z"/>
      <path class="cls-95" d="M153.1,148.8h.7c1.6,0,2.5.9,2.5,2.5v1.9c0,.8.3,1.8-1.2,1.9-1.3,0-1.9-.2-2-1.7,0-1.1.4-2.1,0-3.2v-1.4h0Z"/>
      <path class="cls-58" d="M143.4,172.7v2.7c0,1.1,0,1.8-1.5,1.8s-1.7-.7-1.6-1.8v-.5c0-1.5.8-2.2,2.3-2.2h.8Z"/>
      <path class="cls-128" d="M159.7,139.8v-1c-.2-.2-.2-.5,0-.7,1.1.7,2.3.3,3.5.3s2.1.3,2.7,1.4h-6.2Z"/>
      <path class="cls-78" d="M137.2,181c.2,1.4-.5,1.9-1.8,1.7h-1.3c0-1.4,1-2.1,3.1-2.1v.4h0Z"/>
      <path class="cls-91" d="M143.7,165.1c0,.4,0,.8-.3,1,0-3.9-.3-3,3.1-3.2.2,1.3-.2,2-1.6,1.7-.4,0-.8,0-1.1.3h0v.2h0Z"/>
      <path class="cls-91" d="M146.9,159.5v3.4h-.3c.2-1.1-.4-2.4.4-3.4h0Z"/>
      <path class="cls-161" d="M66.5,188h-10.7c-.5,0-1.3.2-1.4-.6,0-1.6-1.1-1.5-2.2-1.4-.9,0-1.8.1-1.7-1.2,0-.7-.4-.8-1-.8h-2.4v-2.1c0-1.5-.4-2.4-1.9-2.4s-1.5-.7-1.5-1.7v-1.4c.4-1.9-.5-2.8-2.4-2.8s-1.6-.5-1.5-1.6c0-1.3-.5-2-1.8-1.9-1,0-1.7-.2-1.6-1.4,0-.9-.5-1.1-1.2-1-.9,0-1.3-.3-1.2-1.2,0-.7,0-1.3-1-1.3s-.8-.4-.8-.9c.2-1.3-.6-1.6-1.6-1.5-.9,0-1.2-.4-1.1-1.3v-1.9c0-1.1-.3-2.3-1.9-1.7h-.8c-.2,0-.5-.3-.5-.4.8-1.8-2.1-1.9-1.6-3.5.1-.5.2-1.2-.4-1.4-1.3-.3-1.3-1.2-1.3-2.3s-.8-1.5-1.8-1.4c-1.3.1-1.8-.4-1.6-1.6v-1.7c.2-1.5,0-2.4-2-2.2-1.1,0-1.9-.7-1.8-2v-6.5h0c1.3-.9,2.7-.6,4.1-.5.6,0,1.2.5,1.2,1.1-.1,2.1,1.2,2.7,2.8,3,.6,1,1.5,1.3,2.6,1.3h10c3.3,0,1.7,0,2.6.2.7.6,1.4,1.3,2.5,1.4.9,0,1,1,1,1.7v4.5c0,1.5.3,1.6,1.3,1.6s1.6.6,1.7,1.6c0,1,1,1.7,1.1,2.5.8-1.4,0-3,0-4.6,1.1-.3,1.5.3,1.6,1.2,0,1,.4,1.6,1.5,1.7,1.1.1,1.3,1,1.3,1.9s0,1.4-.2,2c-.3.7-.8.4-1.3.2-1.1-.2-1.6.2-1.6,1.3s0,1.9,1.4,1.7h1.4c.6.1,1.1.3,1.6.5s1.1.4.6,1.2c-1.6.3-2.2,1.3-1.6,2.9v.8c0,1.4.7,2.2,2.2,2.4.7,0,1,.4,1.2,1.1v2.1c0,1.5,0,2.6,2,2.7.8,0,1,.7,1.1,1.4v2.1c0,1.1.2,1.8,1.5,2.1,1.8.4,1.1,2,1.3,3.1,0,1.2,0,2.1,1.6,2.1s1.5.5,1.8,1.3c.2.6.4,1.4,1.3,1.4s.3,0,.4.1c.3.7.8,1.3.6,2.1h.1Z"/>
      <path class="cls-68" d="M86.2,15h22.9c1.4,0,1.9.4,1.7,1.7,0,.2,0,.4-.2.6-.8.4-1.7.3-2.5.3h-15.7c-1.2,0-2,.1-2.4,1.6-.3,1.3-1.8,1.5-3.8.7-.8-1.6-.8-3.3,0-4.9h0Z"/>
      <path class="cls-106" d="M86.2,15v4.9s0,.1-.2.2c-1.5.4-2.4,1.5-2.5,3.2,0,.7.3,1.7-.9,1.8-.6-.9-.4-1.9-.4-2.9s-.4-1.8-1.7-1.8h-4.9c-1,0-1.9.5-2.7.9-1.4.8-2.9,1.1-4.4.3,0-.8-.2-1.6.7-2.1h4.5c1.3,0,1.9-.3,1.8-1.7,0-.2.2-.5.3-.8,1.4-.4,2.9-.7,3.8-2.1h6.6,0Z"/>
      <path class="cls-46" d="M114.3,15.4c1.5-.8,3.1-.2,4.7-.3h2.2c2.7,0,3.2.4,3.2,3.3v.8h0c-1.8-2.8-4.6-2.2-7.2-2.1-.9,0-1.9.3-2.8-.3-.2-.5-.2-1,0-1.5h0Z"/>
      <path class="cls-52" d="M114.3,15.4v1.4c.7.9.5,1.8.2,2.8-1.1,1.1-2.5,1.5-3.3.8-1.1-.9-1-2.1-.3-3.3v-.4c2.2.8,2.7.6,3.4-1.4h0Z"/>
      <path class="cls-97" d="M79.7,15c-.3,2.5-2.2,2.1-3.8,2.1.9-1.3,1.9-2.6,3.8-2.1Z"/>
      <path class="cls-151" d="M114.4,191.4h11.5c.6,0,1.2-.2,1.6.3.3.7,0,1.4,0,2,.2,1.4-.2,2.3-1.7,2.6-1.6.3-.8,1.8-1.4,2.6-.2.3-.4.6-.8.6-2.2,0-2.2,1.6-2.1,3.2v1.9c0,.7-.5,1.3-1.2,1.3-3.2,0-6.4.5-9.6-.2-1-1.7-.6-3.5-.3-5.3,0-.6.7-.8,1.2-.8s1,0,1.4-.5c.5-1.7.6-3.5.7-5.2,0-.8,0-1.7.6-2.4h.1Z"/>
      <path class="cls-132" d="M132,202.5v2.7c-.2.6-.7.8-1.2.8-1.8,0-3.7.2-5.5,0-1.4-.2-1.6-1.3-1.1-3.4.4-.5.9-.7,1.5-.6,1.4,0,1.7-.8,1.6-1.9,0-.8-.2-1.7.5-2.4,1.6.2,2.4-.3,2.1-2-.1-.8,0-1.7,0-2.6-.2-1.5.5-1.8,1.7-1.6,1.8.3,3.7,0,5.5.1,2.7,0,3.4,1.1,2.1,3.6h0c-.7.7-1.3,1.5-1.7,2.5h0c-1.1.5-2.5.7-2.8,2.2,0,.1-.2.3-.4.3-1.5.1-1.8,1.3-2.3,2.5h0v-.2h0Z"/>
      <path class="cls-122" d="M92.8,199.5c-2.1-.1-3.1-1.2-3.1-3.3v-4.7h21.1c1,2.1.5,4.2.4,6.3-.5,1-1.1,1.8-2.3,2.1-1,.2-.9,1-1,1.7,0,1.4.5,2.9-.6,4.1-.2,0-.4,0-.5-.3-.5-2.3-.2-4.6-.2-6.9s.3-1.1.8-1.5c.6-.5.8-1.1.8-1.8.2-2.7,0-2.9-2.8-2.9h-11.4c-1.9,0-2.1.2-2.1,2.1s0,3.3.9,4.8v.3h0Z"/>
      <path class="cls-75" d="M110.8,198v-6.5h3.5c0,2.8-.3,5.5-.4,8.3-1,.3-2.1.2-3.2,0-.5-.6-.3-1.2,0-1.8h0Z"/>
      <path class="cls-114" d="M127.8,197.7v3.1c0,1.3-.3,1.9-1.7,1.7h-1.7l-.2-.2c-.5-1.1-.4-2.2.2-3.3v-2.2c0-.6.2-.9.8-.8,2.1.1,2.5-1,2.3-2.8v-1.4c.7,1.4.4,2.8,0,4.1,0,.7,0,1.2.2,1.8h0Z"/>
      <path class="cls-61" d="M139.2,195.2c0-2.3-1.1-3.4-3.4-3.5-1.4,0-2.8.3-4.2-.3h8.4c1.7,0,2.3.6,2,2.2v1.4c-.9.5-1.8.3-2.8.3h0Z"/>
      <path class="cls-100" d="M97,276.6c0-.4-.4-.8-.3-1.1.3-2-.7-2.5-2.5-2.4h-3.1c-.5-.2-.8-.4-1-.9,0-.2,0,0,0-.1-.7-4.9,0-4.2-5-4.3-.8,0-1.6,0-2.4-.3l-.2-.2v-4.5c0-.9.4-1.4,1.3-1.4h5.5c.8,0,1.2.4,1.2,1.2v3.1c0,1.1.3,1.6,1.5,1.6h3.8c.7,0,1.2-.2,1.3-1,2-.2,4-1.1,6.1-.6.8.2,1.5-.8,2.3-.5.4.6.4,1.3,0,2,0,.2-.2.3-.4.4-1.4.4-2.7.2-4.1.2-3.5,0-3.8.2-3.8,2.8s0,2.1,3.8,2.1,2.7-.2,4.1.3l.2.2c-.3,1,.7,2.4-.7,3.1-.3-.3-.3-.7-.4-1.1,0-.3,0-.7-.4-.9-.8-.7-4.7-.2-5.3.7-.4.6,0,.8.5.9h3.1c1,0,1.5-.1,2.1.5v.3h-7.3.1Z"/>
      <path class="cls-32" d="M120.5,254.8c.9.2,1.7.7,2.6.6,1.6-.1,1.8.8,1.9,2v3.9h-.7c-.3-1.2,0-2.5-.7-3.7-.3-.7-.7-1.5-1.6-1.2-.8.2-.7.9-.7,1.6,0,1.2,0,2.3.6,3.3-.6.5-1.6.6-1.4,1.7h-.5c-.4,0-.9-.2-.8.4,0,.5.5.3.8.2h.5c0,2.3-1.3,3.5-3.8,3.5-.3-.6,1-1,.2-1.6-.7-.5-1.5-.6-2.3-.5-.9.2-.9.9-.9,1.6s0,.3,0,.5c-1.1,1.3-.7,2.8-.7,4.3s-.4,1.7-1.6,1.6h-6c-.8-2-.8-3.9,0-5.9h0c1.4-.9,3-.4,4.6-.5,2.4,0,2.5-.1,2.5-2.5s0-1.7.2-2.6c0-.2.2-.3.4-.5,1.3-.6,2.7-.3,4.1-.3,2,0,3-1,3-3.1v-2.1c0-.7,0-.8.6-.9h0l-.2.2h0Z"/>
      <path class="cls-100" d="M121.9,261.4c-.9-.7-1.6-4.3-.8-5.1.8-.8,1.9-.6,2.4.2.8,1.5,1.7,3.1.8,4.9h-2.5,0Z"/>
      <path class="cls-80" d="M104.2,276.3h-5.8c-.9,0-1.1-.3-.7-1.1.3-.7.8-1.1,1.5-1.3.9-.1,1.8-.4,2.7-.4,1.9,0,2.8.9,2.7,2.8h-.4,0Z"/>
      <path class="cls-100" d="M113.6,267.3c-.5-1-.5-1.9.6-2.5.8-.4,3.6.4,3.7,1,.2.9-.8.9-1.2,1.5h-3.1Z"/>
      <path class="cls-100" d="M120.5,263.8c-.6,0-.9,1.6-1.6.3-.2-.3-.6-.9,0-1.4.7-.6,1.2-.3,1.7.3v.7h0Z"/>
      <path class="cls-155" d="M50.5,155.7v-2.2c0-1.1-.2-1.7-1.5-1.6-1.3.2-1.4-.7-1.3-1.6,0-1,0-1.7-1.4-1.5-1.2.6-1.8,0-1.8-1.1,0-2.3-.3-4.7,0-7,.7-.9,1.5-1.1,2.5-.5.3.3.5.6.8.8.7.4,1.4.2,2,.2h19.5c1.7,0,2.8.8,3.2,2.5.3,2.1,0,4.3,0,6.5v.7c0,1.8-.4,3.8,2.5,3.8s.6.3.8.7c.6,2.2.2,4.4.2,6.7s0,2.5,1.9,2.5,1.5.8,1.5,1.7v11.6c0,1.3.4,2.1,1.7,2.3.8.1,1.3.6,1.3,1.5v.6c.8,1.5.5,3.1.4,4.7,0,.8-.6,1-1.3,1s-1.5-.1-2.2,0h-2.4c-2.3-.2-4.5,0-6.8,0s-1.3.2-1.8-.2h0c-.3-1.5-1.7-1.6-2.8-2h-.3s-.3-.2-.3-.4c-.2-1.9-.6-3.8-2.2-5.1,0-1.5,0-2.7-2-2.9-.8,0-.8-1-.8-1.7,0-1.3,0-2.5-.3-3.8,0-.6-.4-1.1-1.1-1.2-1.5-.1-1.8-1-1.7-2.3v-1.4c0-.8-.3-1.5-1.3-1.5s-1.7-.8-1.9-2c0-1.1-.2-2.3-.8-3.3,0-.6-.5-.7-1-.7s-1.2,0-1.5-.7c-.8-1-.7-2.1,0-3.1h.2Z"/>
      <path class="cls-21" d="M63,198c0-.2-.3-.4-.2-.6.2-2-.9-2.4-2.5-2.1h0c-.7-1.3-.8-2.5,0-3.8h8.2c.5,1.4,0,2.8.2,4.2,0,1,.3,1.4,1.4,1.5,2,.1,2.4.6,2.4,2.5s.2,2.2,1.7,2.5c1.1.2.7,1.3.7,2s0,1.3-.7,1.4c-2.1.1-4.2.4-6-1h0c0-2.5.2-2.1-3.1-2.1v-.3c-.5-.6-.4-1.2-.4-1.9.3-1.3-.7-1.8-1.6-2.3h0Z"/>
      <path class="cls-5" d="M68.2,204.6c1.8.5,3.7.5,5.6.7,1,0,1-.7,1-1.4s0-1.5-1-1.4c-1.6.2-1.9-.6-1.8-2,0-2.5,0-2.6-2.4-2.8-.9,0-1-.5-1-1.2v-5c.8,1.1.2,2.5.4,3.6,0,.9,0,1.6,1.3,1.5,1.1,0,1.8-.2,1.9-1.6,0-2.4,1.3-3.6,3.8-3.6h4.5c2,.3,4-.4,5.9.4-.7.6-1.5.5-2.3.5h-9.1c-.7,0-1.6-.2-1.8.8-.2,1,.4,1.5,1.2,1.7.9.3,1,1.1,1.1,1.9,0,1.1.3,2.1,1.5,2.6,1.1.5.9,1.6.7,2.6,0,.2-.2.4-.4.5,0-.4-.3-.8-.4-1.1-.2-.5-.7-.3-1.1-.3s-.5.5-.5.9v3.5c0,.5,0,1.1-.6,1-2.1-.5-4.2.7-6.3-.3v-1.7h0l-.2.2h0Z"/>
      <path class="cls-123" d="M79.6,188.2s.2-.1.3-.2c.8-.3,2.1.4,2.6-.4.6-.9,0-2.1.2-3.2v-2.1h.3c.7,1.1,2.2.9,3.1,1.7-.2,1.2.7,2.9-.5,3.6-.9.6-2.4.4-3.6.5h-2.5,0Z"/>
      <path class="cls-49" d="M60.3,191.4v3.8c-2.1,0-2,0-2.1-2.4,0-1.9,1.1-1.5,2.2-1.4h-.1Z"/>
      <path class="cls-165" d="M65.8,185.9h.7c1.7-.3,2.4.3,2.1,2.1h-2.1c-.3-.7-.8-1.3-.7-2h0Z"/>
      <path class="cls-123" d="M68.6,188h7c.6,0,1.1-.2,1.6.3h-7.4c-.4,0-.9,0-1.3-.3h.1Z"/>
      <path class="cls-73" d="M166.2,121.4c-.9.5-2.4,0-2.9.7-.5.9-.2,2.2-.2,3.4v8.1c0,.6.2,1.2-.3,1.6-.7-.7-.5-1.5-.5-2.3v-8.6c0-1.5-.2-2.5-1.9-2.5s-.7-.2-.8-.5c-.4-.8-.4-1.7-.3-2.5,0-1,.5-1.8,1.6-2,1.3-.2,1.5-1,1.5-2.1v-39.4c.2-1.4,0-2.4-1.7-2.5-.3,0-.7-.2-.6-.7.2-.2.6-.4.9-.4,1.1,0,1.4-.8,1.4-1.7v-5.3c0-.8.3-1.7-.6-2.2-1-.6-1.5.4-2.2.9-.5.2-1.1.3-1.6.2-1.4,0-1.7-.5-1.5-2.1.1,0,.3-.3.5-.4,1.5-.6,2.2-1.7,2.2-3.3v-3.1c0-.6-.2-1-.9-1s-1.1.3-1.1,1v4.5c0,.8,0,1.6-.6,2.3-.8-.3-.8-1.1-.8-1.7v-4c.7-2.5-1.4-2.5-2.7-3-.3-.6-.3-1.1,0-1.7.2-.2.4-.4.7-.4,2.1-.5,2.3-.8,2.1-3,0-.8-.4-1.3-1.2-1.3s-.9,0-1.4-.3c-.9-1.1-2.4-.5-3.5-1.1,0,0-.1-.3,0-.5.2,0,.4-.3.6-.3,2.2-.5,2.3-.6,2.1-2.9,0-.6,0-1.2-.8-1.3-.6,0-1.1,0-1.4.7-.1.3-.3.6-.7.8-2.6.6-3.4,0-3.2-2.1.2-.5.7-.6,1.1-.7,1.7-.4,2.3-1.1,1.8-2.7s-1.6-.6-2.5-.5c-.6,0-1.3,0-1.9,0-.7,0-1.3-.4-1.3-1.2,0-1.5-.8-2-2.2-2s-.6,0-.8-.3c-.1-.1-.2-.3,0-.5h.3c1.9,0,2.9-.9,3-2.7,0-.4,0-.8.4-1.1h3.8c.8,1.6,2.2,2.2,4,2,.3,0,.7.2.9.4v.3h0c0,2.3.9,3.9,3.4,4.1h1c1.6-.2,2.7,0,2.5,2.1-.1,1.4.9,2,2.2,2.1.8,0,1.3.3,1.2,1.2-.1,1.2.5,1.3,1.5,1.3s1.7,0,2.2,1.4c.3.8,1.8,1.6,2.6,2.7.2.3,1.1,0,1.6,0v2.4c0,.4,0,.9.5.9,1.1,0,.9,1,.9,1.7s0,1.6,1.3,1.5c1.1,0,1.2.6,1.2,1.4,0,1.2.4,1.8,1.7,1.7.7,0,1.2.2,1.1.9-.3,1.8.7,2,2.1,1.8h1v5c0,1.4.4,2.1,1.8,1.5,1.5-.6,1.7,0,1.7,1.4s0,3.4.2,5.2c.2,1.1.5,1.6,1.6,1.4,1.3,0,1.7.5,1.6,1.7v7.6h-1.5c-.5.5-1.1.5-1.8.5h-17.6c-5.9,0-.5,0-.7,0-.8-.9-.5-2-.5-3v-4.7c0-.5-.1-1-.8-1.1-.8,0-1,.4-1.1,1v40.3c0,1.9.9,3,2.6,3.3.6,1.2.8,2.4,0,3.5h0l-.3.4h0Z"/>
      <path class="cls-40" d="M166.2,121.4v-3.5c-.6-.7-.5-1.5-.5-2.3v-31.3c0-.8-.1-1.7.6-2.5.6-.5,1.3-.3,2-.3h18c1.7.4,1.6,1.8,1.8,3.1.6.7.6,1.5.6,2.3v19.3c0,1.4-.1,2.7-1.2,3.7-1.3,1-3,1.6-2.8,3.7,0,.9-.4,1.2-1.2,1.1-1.1,0-2.1,0-1.9,1.6,0,.4-.1.8-.7.8-1.4,0-1.5.7-1.4,1.7,0,1.1,0,1.9-1.5,1.8-1.2,0-1,.9-.9,1.6.1,1.4-.3,2-1.8,1.8h-1.9c-1.8-.2-3.1.2-2.9,2.4,0,.6-.4.8-.9.8h-2.1c-.9,0-1.2-.4-1.2-1.3v-4.7h-.1v.2h0Z"/>
      <path class="cls-76" d="M187.4,110c.5-1.2.7-2.4.7-3.7v-21.7c.8,0,1.5.3,2.2.3s.9.5.9,1.2v21.6c0,.9-.5,1.2-1.2,1.3-1.5,0-2.2.7-1.9,2.3,0,.2-.2.5-.3.8,0-.7,0-1.4-.3-2.1h0Z"/>
      <path class="cls-105" d="M191.1,130.8c-.9.8-2,.9-3.1,1v-7.4c0-1.4.8-1.3,1.6-1.3s1.5,0,1.5,1.3v6.4h0Z"/>
      <path class="cls-50" d="M152.7,29.9h-1.4c-1.9.2-3.5,0-3.5-2.5h4.8v2.5h0Z"/>
      <path class="cls-13" d="M12.1,81.8v-.3s.1,0,.2-.2c.2,0,.4-.2.6-.2,6.1-.2,12.3,0,18.4,0s1.1,0,1.6.5c.4.6.4,1.2.4,1.8v35.4c0,1,.3,1.6,1.3,1.9,1.3.3,1.8,1.1,1.7,2.4-.2,2.7.4,5.4-.3,8.1-2.3,1.6-4.6.5-6.8,0-.4,0-.6-.6-.7-.9-.2-1.2-1-1.6-2.2-1.5h-1.9c-2.1,0-2.3-.2-2.6-2.4,0-.8-.4-1.4-1.3-1.5-1.6-.3-2.9-1.6-4.7-1.6s-.9-1.1-.9-1.8v-5.2c0-1.5-.8-2.5-2.3-2.9-.4,0-.8-.2-1-.6-.5-1.2-.2-2.4-.2-3.6v-23.1c0-1,.1-1.9.5-2.9v-1.4h.2Z"/>
      <path class="cls-87" d="M12.1,83.3v29.8c.3.3.4.7.4,1.1,0,1,.5,1.5,1.5,1.3.6,0,1.1.2,1.5.7v5.7c0,.9.3,1.3,1.2,1.2,1.1,0,2.4-.3,2.9,1.2,0,0,.3.2.5,0,2.5-.5,2.6,1,2.4,2.8,0,.9.5,1,1.2,1h3.6c1.2,0,1.7.4,1.7,1.6s.4,1.3,1.4,1.3c1.9,0,3.8.6,5.6,0,.2,0,.4-.3.6-.4,2.5-.3,3.1,0,3.1,2.5s.2,3.1-.2,4.6c-.2.4-.5.7-.9.8-3.7.5-7.4,1.9-11.2,1.2-1.3-.2-2.5-1-3.8-1.5h-.8c-1.7.2-2.6-.3-2.3-2.2.2-1.2-.3-1.7-1.6-1.6h-3.3c0-1.6.3-3.2-2-3.4-.8,0-1.2-.8-1.1-1.6.3-3.9-.4-7.7-.4-11.5s-.2-3.3-1.8-4.6c-.9-.7-1.3-1.8-1.2-3.1v-6.2c.9.2.8,1,.9,1.6.3,1,0,2.2.8,3.3.7-.5.5-1.3.5-1.9v-18.1c0-1.6-.8-2.4-2.3-2.5,0-.7,0-1.3.9-1.5s1.5-1,2.1-1.6h.1Z"/>
      <path class="cls-156" d="M9,86.4c.4-.2.8-.5,1.3-.6.9-.3,1.6,0,1.5,1.1v21.8c0,.5.2,1.2-.6,1.2s-1.3-.6-1.4-1.3c-.2-1.2-.3-2.4-.4-3.6,0-.3,0-.7-.3-.9v-17.7s-.1,0-.1,0Z"/>
      <path class="cls-98" d="M125.7,20.2h4.3c.8,0,1.6,0,1.9.9.2.7.9.5,1.4.4,1.1,0,1.5.3,1.4,1.4-.2,1.6.3,2.5,2.1,1.9,1-.3,1,.5.9,1.1,0,1.1.3,1.6,1.5,1.5.9,0,1,.5,1,1.2v2.6h0c-1.6.7-2.5.4-2.7-1.1-.2-1.3-.7-2-2.1-1.9-.7,0-1.3-.3-1.4-1-.2-1-.9-1.3-1.9-1.3s-1.6-.2-2.4-.8c-1.2-1.1-2.8-.3-4.2-.6-1.8-.5-2.2-1.7-1.4-4.2.5-.4,1-.3,1.6,0h0Z"/>
      <path class="cls-126" d="M125.7,20.2h-1.4c-1.2.9-2.5.5-3.8.3-2-.2-2.2,0-2.3,1.9,0,.9.2,1.8-.4,2.6-1,0-.8-.9-.9-1.5,0-.9,0-1.8-.2-2.7-.2-.6-.8-.5-1.3-.6-.5,0-1.2,0-1.2-.8v-2.7c2.6,0,5.1-.5,7.7,0,1.4.2,2.2.3,2,1.9,0,.2.2.4.3.6.2.7,1,.6,1.5,1h0Z"/>
      <path class="cls-71" d="M156.2,34.4c-4.1,0-3.4.4-3.5-4.1,0,.1.2.2.3.4,0,0,.1.2.2.2.9.5,2.3-.5,2.7.7.3.8,0,1.9.1,2.9h.2Z"/>
      <path class="cls-84" d="M75.5,279.8c0-1.9,1.1-2.8,2.9-2.8h44.2c1.5,0,1.9.4,1.7,1.8,0,.8-.4.9-1,.9h-47.8Z"/>
      <path class="cls-168" d="M32.8,81.6H12.4c-.8-1.8-.6-2.6,1.2-3.2,1.1-.3,1.4-1,1.4-2v-3.4c0-.8,0-1.6.1-2.4.4-1.1.2-2.2.2-3.3s.5-1.7,1.5-1.7,1.9-.7,2.4-1.6c.2-2.1-.4-4.2.4-6.2.3-.3.7-.5,1.1-.5.9,0,1.5-.4,1.6-1.4,0-.8.6-1.3,1.5-1.4.5,0,1,0,1.1-.7.1-1.7,1.3-2.6,2.7-3.3v-.3c1.7-.7,1.9-2.1,1.7-3.7-.1-1.1.2-1.7,1.4-1.5.8,0,1.2-.6,1.7-.8,1.5-.7,1.4-3.1,3.3-3.1s.4-.2.4-.3c0-2,1.5-1.8,2.6-2,.6,0,.8-.4.9-1,.2-1.1.4-2.2.3-3.3h1.4c1.6.2,2.4-.3,2.1-2-.2-1.2.4-1.5,1.5-1.5s1.4.3,2-.3c0,0,.3-.3.4-.3,2,.1,3.1-.9,3.4-2.8h2.8c2.6,0,2.4.3,2.4-2.4,1.3-.2,2,.3,1.7,1.7-.2,1.1.8,2.8-1.4,2.9-.2,1.8-3,2.5-2,4.8l-.2.2c-.2,0-.5.2-.8.2-1.3.2-2,1-1.9,2.4,0,1,0,1.7-1.2,1.8-.7,0-.9.6-1,1.2,0,.7-.5,1.2-1.1,1.4-1.6.4-1.2,1.6-1.2,2.6s.7,1.4,1.5,1.5c.3,0,.6,0,.8.4-.3,1.3-1.6.7-2.3,1h-.7c-2.8.2-3.3,1-2.4,3.7.2.7.7,1,1.4,1s1.1-.3,1.6.2v1.1c-1.2.7-2.5.2-3.8.6h-1.4c-1,0-1.5.6-1.6,1.5-.2,1.9,0,3.8,0,5.7s.4,1.1,1.2,1.2c.6,0,1.1,0,1.6.4,0,0,.2.3.2.5-1.1.7-2.5.6-3.6,1.1-.6-.5-1.1-1.1-2-.6-.8.4-.8,1.2-.9,1.9v3.6c0,1.9-.8,3.2-2.5,3.9-.7.5-.6,1.3-.6,2v4.6c0,.7,0,1.4-.6,1.9h.2-.1Z"/>
      <path class="cls-65" d="M15.6,70.5v2.4c-.2,0-.3.3-.6.4-1.6.5-2.4,1.6-2.4,3.3s-.4,3.4-.5,5.1h0c-2.1,0-3.1-1.1-3.1-3.2v-5.4c0-1.2.3-1.7,1.6-1.6,1.6.2,2-.5,1.9-2v-5.5c.8,1.3,2,.5,3,.9.4,1.8.2,3.7,0,5.6,0,0,.1,0,.1,0Z"/>
      <path class="cls-81" d="M17,63.9c-.5-.4-.8-.9-.7-1.6,0-1.6.1-3.2,0-4.8-.1-1.7.9-1.5,1.9-1.5,1.5,0,.9.9.9,1.6v6.4c-.7.6-1.4.6-2.1,0h0Z"/>
      <path class="cls-26" d="M27.7,50.4c0,.4,0,1-.4,1-1.7,0-1.5,1.4-1.6,2.3,0,1-.5,1.3-1.4,1.2-.7,0-1.6,0-1.4.9.2,1.8-.7,2-2.1,1.9h-1c-.1-1.5,0-2.7,2-2.5.7,0,.8-.5.8-1,.2-2.7.3-2.7,3.1-3.2.1,0,.3-.2.4-.3.5-.5,1.2,0,1.7-.4h-.1Z"/>
      <path class="cls-1" d="M17,63.9h2.4c.3,1.7-.5,2.3-2.1,2.1-1,0-1.4.3-1.4,1.4s.3,2.2-.3,3.2v-5.6c0-.9.7-1.1,1.4-1h0Z"/>
      <path class="cls-141" d="M50.9,27.5c0,2.1-1.3,3.1-3.8,3.1,0-2.1,1.3-3.1,3.8-3.1Z"/>
      <path class="cls-12" d="M42.6,31.7c0,.3,0,.6-.5.5-.4,0-.7-.4-.7-.8s.2-.3.5-.4c.5,0,.8.2.7.7h0Z"/>
      <path class="cls-83" d="M46.7,46.9c.6-.8,1.7,0,2.4-.7-.2-.3-.2-.7,0-1,.5-.8,2.2-.7,1.8-2.3,0-.6,0-1.1.3-1.6.3-.4.7-.7,1.1-.7,1.6,0,1.8-1,1.6-2.3,0-1.3-.4-2.7.5-3.9h.3c1.9,0,2.8-.9,2.8-2.7,0,0,.3-.2.5-.2.8,0,1.7.2,2.4,0,.9-.4,0-1.5.5-2.2.5-1.1,1.1-2.3,2.7-2.2h1.7c1.5,0,2.9,0,3-2.1,0-.7.8-1,1.4-1,3.5-.1,7,0,10.5,0s.9.1,1.2.6c0,.6-.8.7-1,1.1-.5,1.5-.2,3-.2,4.4s-.3,2.4-1.9,2.4-1.2.7-1.2,1.6v5.4c0,2.1-1.2,3.8-3.3,4.2-1.1.3-1.3,1-1.3,1.9v13.3c0,1.7,0,3.3-2.3,3.6-.7,0-.8.7-.8,1.3v67.9c0,1.2.2,2,1.6,1.9.4,0,.8,0,1.1.4,0,.2.2.3.3.6.2,1.9,0,3.9,0,5.8s-.4,1.5-1.5,1.5h-23.5c-.2,0-.3,0-.5-.2v-1c-.4-.8-.9-1.6-2-1.7-1-.1-1.6-.8-1.6-1.9s-.6-1.7-1.5-2.3c-.4-.6-.3-1.3-.3-2v-5.7c0-1.4-.3-2.4-1.7-2.7-.3,0-.6-.3-.8-.7-.4-1-.3-2.1-.3-3.2s0-2.4-1.8-2.6c-.8,0-1.2-.7-1.2-1.5v-38.7c0-.8,0-1.6.2-2.4.2-.4.6-.6,1-.6,1.8,0,2.1-1.3,2.2-2.7v-4.3c0-1.4.4-2.1,1.7-2.1s1.2-1.6,1.9-2.3v-.3c-.8-1.6-.4-3.3-.3-5,.2-1.6.7-2.9,2.7-2.8,1.1,0,.8-1.3,1.4-1.9v-1c-.8-1.7-.8-3.5,0-5.2h.2v-.2h0Z"/>
      <path class="cls-152" d="M65.1,27.5h-1.2c-2-.5-2.7,1.5-2.8,2.3,0,1.9-1,2-2.4,1.9h-1.2c.7-1.1,2.8.7,3.1-1.3.2-1.2.2-2.5.3-3.8,0-1.3.5-1.6,1.7-1.6s1.7.3,2.5-.3h.3c.8,1,.8,2-.3,2.8h0Z"/>
      <path class="cls-160" d="M132,202.5c-.3-1.6,0-2.7,2-2.8.3,0,.7,0,.7-.4,0-2.4,1.6-1.6,2.9-1.7.4,2-1.3,2-2.4,2.4h0c-.7.8-.2,1.6-.4,2.5h-2.8Z"/>
      <path class="cls-163" d="M135.1,200.1c.8.2,2-.6,2.1,1,0,.8-.3,1.1-1.1,1.1-1.6,0-.8-1.3-1-2.1h0Z"/>
      <path class="cls-19" d="M137.5,197.7c-.3-1.4.2-2.3,1.7-2.5,0,1.2.5,2.8-1.7,2.5Z"/>
      <path class="cls-113" d="M65.1,27.5c.5-.9.3-1.8.3-2.8s0-2.4,1.9-2.2c.5,0,1.2,0,1.3-.9,1.9,0,3.8,0,5.3-1.5.4-.4.8-.3,1.3-.3h6.2c1,0,1.5.3,1.4,1.4v3.8c-.8.8-1.6.5-2.5.4-.2,0-.4-.2-.5-.3.3-.6.9-.2,1.7-.7h-11.7c-.7,0-1.2.1-1.1.9.4,2.4-1,2.3-2.6,2.2h-1Z"/>
      <path class="cls-57" d="M65.1,200.1v2.1c-2.6,0-2.7,0-2-2.1.7-.5,1.4-.5,2,0Z"/>
      <path class="cls-42" d="M65.1,200.1h-2v-2.1c1.7-.3,2.4.4,2.1,2.1h0Z"/>
      <path class="cls-136" d="M110.8,198v1.7c-.2,2-.3,3.9,0,5.9h8.3c1.7,0,2.3-.5,2.1-2.1v-1c1-.8,2.1-.7,3.1,0h0c0,3.1,0,3.2,3.2,3.1,1.5,0,3,.4,4.3-.4v1c-.5.4-1.2.4-1.8.4h-26.9c0-.9.9-.8,1.5-.8s1.6,0,2.4-.2c.7-1.6.2-3.3.3-4.9,0-.9.2-1.6,1.3-1.4,1.2.2,1.4-1.1,2.2-1.4h0Z"/>
      <path class="cls-60" d="M77.2,202.5v-.4c1.6-.5,2-.3,2.2,1.1,0,1.6.9,1.9,2.3,1.8h5.9c2,0,1.5,0,2.1.5-.2.4-.4.7-.7,1.1h-9.8c-1.6,0-2.2-.5-2-2.1v-2.1h0Z"/>
      <path class="cls-99" d="M107,205.7c0,.8-.8.6-1.4.7-.8,0-1.7-.3-2.5.3h-6.5c-.7-.6-1.6-.3-2.3-.3-1.1,0-1.6-.5-1.5-1.6v-5.3h0c1.1.3.8,1.3.8,2.1,0,3.7-.4,3.5,3.8,3.5h7.4c.8,0,1.5,0,2.1.5h0c0,.1,0,.1,0,.1Z"/>
      <path class="cls-100" d="M120.5,254.8c0,.2-.2.5-.3.7-1.3.9-2.8.5-4.2.5-2.5,0-2.5.1-2.5,2.5s.2,2-.5,2.8h0c-1,.8-2.3.5-3.4.5s-2.8-.2-4.1.7c-1.7-.2-3.4-.4-5.1-.3-.6,0-1.3,0-1.5-.8,1.6,0,3.2-.3,4.8,0,1.2.2,2-.4,1.8-1.8v-1c0-3.1,0-3.2,2.9-3.2s2.1-.3,3.2-.2c1.3.1,1.5-.5,1.5-1.6,0-2.2,1-3.3,3.1-3.3,3,0,4.5,1.5,4.5,4.5h-.2Z"/>
      <path class="cls-27" d="M82.4,255.9c-.5-.4-1.3-.1-1.7-.7,1.6.2,1.8-.8,1.7-2.1.3,0,.4,0,.6.2s.2.4.3.6c.7.9,5.2,1,5.9.2.3-.4.3-.8.3-1.3,0-.8-.2-1.7.2-2.5,1.3.8.6,2.1.7,3.2,0,1.2.3,1.8,1.6,1.7,1.4,0,2.7.2,4.1.3.8,0,.9.5.9,1.1v3.1c0,.7.2,1.2.7,1.6,0,.6-.3.7-.7.7-1.4-1.2-3.1-.7-4.6-.7s-2-.3-2-1.9c0-2.7-1.3-4.1-4-4-1.3,0-2.6-.3-3.9.3h0v.2h0Z"/>
      <path class="cls-118" d="M101.2,250.3h.7c2.5,0,3.7,1.3,3.4,3.8,0,.7-.3,1-1,1h-6.4c-.5,0-.9-.1-.9-.8v-3.3c0-.7.5-.8,1.1-.8h3.1Z"/>
      <path class="cls-37" d="M97,262.1l.7-.7h1c1.2.8,2.5.3,3.6.3s2,.1,2.9.7c.7.9.7,1.8,0,2.8-.9.8-1.9,1.3-3.2.8-1-.4-2,.2-3,.4-.8.2-1.5.2-2.1-.2v-4.1h0Z"/>
      <path class="cls-44" d="M89.7,250.3c.5,1.1.2,2.2.2,3.3s-.8,1.6-1.9,1.5c-1.2,0-2.5-.2-3.7,0-1.6.3-1.5-1.2-1.9-2,0-1.9.9-2.8,2.8-2.8h4.5Z"/>
      <path class="cls-140" d="M82.4,274.2c0-.9-.7-1-1.5-1h-3.4c-1.2,0-1.7-.5-1.7-1.6,0-4.4-.7-4.3,3.8-4.3h2.7c.7.8.5,1.8.5,2.7s0,2,.6,2.9c.2.8-.2,1.3-1,1.3h0Z"/>
      <path class="cls-100" d="M82.4,274.2c.5-.2.8-.6,1-1,1.9-.4,3.8-.3,5.7-.3,1,.3.9,1.3,1.3,2,0,1-.2,1.5-1.3,1.4-1.6,0-3.1-.1-4.6,0-1.7.1-2.3-.5-2-2.1h0Z"/>
      <path class="cls-140" d="M90.4,274.9c-.3-.6-.7-1.1-1-1.7.2-.4.6-.6,1-.7.3.1.6.4.7.7-.8.3-.7,1.1-.7,1.7Z"/>
      <path class="cls-70" d="M125.7,24.1h3.1c.6,0,1.2,0,1.5.8.3,1,1.3.5,1.9.6,1.1,0,2.2,0,2.2,1.6s.9.8,1.6.8c1.3,0,2.1.1,1.9,1.7-.2,1.8,1.1,1.9,2.4,1.7.7.6,1.6.3,2.3.3s1.3.2,1.2,1.1c-.2,1.6.3,2.4,2,2.1.2,0,.5.2.8.3.8,1.3.7,2.5,0,3.8,0,1.3.9,2,3,2.1.8,1.1.7,2.3,0,3.5v.3c.5.7,1,1.2,1.9,1.3,1.2,0,1.7.8,1.6,2,0,1,0,2-.2,3.1-.2.6-.3,1.4.2,1.9.1,1.9,1.7,2.1,3,2.5.2,2-.3,4,.3,5.9h0c-.2,1.3.3,2,1.7,1.7h1.4c.4.3.5.8.6,1.2,0,2.5.3,5-.1,7.4-.1,1.5.2,2.7,2,2.7s.5.2.7.4v40.8c0,.8,0,1.6-1.1,1.5-1.7-.2-2.2.6-2,2.1v2.1c.8,1.8.4,3.6.3,5.4-.2.9-.8,1.5-1.8,1.6-.8,0-1.1.7-1.2,1.4-.5,2.1-.3,4.1-.3,6.2s.1,1.6-.5,2.3v.5c0,1.6-.8,2.5-2.4,2.6-.3,0-.5.2-.8.3-4.4.2-8.8-.4-13.2-.3-3.6,0-7.1.2-10.7.3-.5,0-.9,0-1.3-.3-.5-.4-.5-.9-.5-1.4v-5.8c0-1.2.4-2,1.8-2s1.4-.5,1.5-1.4c.3-3.2.5-6.4,0-9.6-.2-1.1-.1-2.2-.1-3.3v-51.6c0-1,.2-2-.4-2.9-.9-.8-2.5-.8-2.5-2.3-.3-5.6,0-11.1,0-16.7s-.3-1.2-1.1-1.3c-.8,0-1.7,0-2.1-1-.5-2.8,0-5.7-.2-8.6,0-.9-.3-1.4-1.3-1.5-1.5,0-1.8-1-1.8-2.3s.3-2.6-.3-3.9c-.2-.3-.4-.6-.5-1,.6-1,2.5-1.6,4-1,.6.2,1.1.4,1.8.1h0l-.2.2h0Z"/>
      <path class="cls-101" d="M79.3,172.7v-3.1c.9.1.6.9.8,1.5.3.8.8.8,1.3.1.9-1.2,1.1-5.5.4-6.7-.4-.6-.9-.9-1.6-1-1-.2-1.5-.8-1.5-1.8s-.3-2.5.4-3.5c.3,0,.6.1.7.4.2,1.2.8,1.9,2.1,2.1.3,0,.6.2.7.5.5,1.2,1.5,1.5,2.6,1.6.6,0,1,.3,1.2.9.3,1.3,1.2,1.5,2.4,1.5s2.5,0,3.1,1.4c.2.4.6.5,1,.5,4.1.2,8.2.3,12.3-.1,1.9-.2,4.1-.3,5.5-2.1.2-.2.5-.3.8-.3,2.6,0,4.2-1.5,5.8-3.3.9-1,2.3-1.1,3.7-.5.2.2.3.5.4.8.2.6.6.8,1.2.7.7,0,.8-.6.8-1.1v-8.2c0-.6,0-1.5.8-1.6v10.4c0,1.3-.3,1.9-1.7,1.7-.6,0-1.3-.2-1.8.3-2,.3-3,1.6-3,3.6v.5c-.2,2.4-.3,4.6,2.9,4.9.3,1.9-.2,3.3-2.4,3.5-.8,0-.6.8-.7,1.3-.2,1.6.3,3.3-.3,4.9-.6-.6-.5-1.4-.5-2.1v-5.1c0-.6,0-1.3-.8-1.3s-1,.5-1.1,1.1c-.3,2.1-.2,4.1,0,6.2,0,.6.4.8.9.8s1.1,0,1.6.6c-.6.6-1.3.3-2,.3s-1.2.3-1.2,1.1c-.5,0-1-.3-1.5-.3-1.2,0-1.9.2-2,1.6,0,2.1-1.1,3.2-3.2,3.2h-16c-1.6,0-2-.5-1.9-2,0-1.1.5-2.5-.2-3.3-.7-1-2.2-.3-3.2-1-.9-1-.4-2.3-.5-3.5v-2.7c0-.9-.2-1.5-1.2-1.5s-1.1.7-1.2,1.5c0,1.1.3,2.3-.5,3.3-.5.3-1.1.3-1.6.3-1.1,0-1.6-.4-1.6-1.6s.2-3.2,0-4.8h0v-.6h-.2Z"/>
      <path class="cls-144" d="M127.5,150.2h-3.1l-.2-.2c-.5-1.2-.3-2.5-.3-3.8,0-2.6-.2-5.2.2-7.8.4-1.9,0-3.9.2-5.8,0-1.8.5-2.3,1.9-2.1,1.3,0,1.6.8,1.6,2.5-.2,5.1,0,10.3,0,15.4s0,1.3,0,1.9h-.3,0Z"/>
      <path class="cls-137" d="M127.5,150.2v-17.3c0-.8.4-1.8-1.2-2-1.5,0-1.6.3-1.6,1.5,0,2,.4,4-.2,6,0,0,0-.1-.2-.2-.7-2.4-.3-4.9-.2-7.3,0-.8.2-1.6.2-2.4s.4-1.9,1.6-2.1c.7,0,1.1-.6,1.2-1.3,0-.6,0-1.2.8-1.4.8.5.5,1.3.6,2,0,.7,0,1.6,1.1,1.6s.9-.9,1-1.7v-3.4c0-.3.1-.7.5-.9.5,3.5.4,7.1,0,10.6-.1,1.1-.9,1-1.5.8-1.5-.4-1.6.3-1.6,1.5v14.4c0,.6.2,1.2-.3,1.6h-.2Z"/>
      <path class="cls-36" d="M124.3,150.9c-.7,1.5-.2,3.1-.3,4.6v5.5c0,1.1,0,1.7-1.5,1.7s-1.9-.2-1.7-1.6v-.5c-.6-.6-.5-1.4-.5-2.1v-6c-.2-2.8,1.8-3.5,4.1-2.3h0v.7h0Z"/>
      <path class="cls-36" d="M120.8,172.4c-2.3,0-3.4-1.1-3.4-3.4v-3.3c0-2.8.6-3.2,3.4-2.3v9h0Z"/>
      <path class="cls-3" d="M159.6,126.9v-5.5c2,.2,3.1,1.3,3.1,3.4v10.4c-.2.3-.6.4-.9.3-2-.3-2.5.7-2.2,2.5v.7c-1.1-.2-2.1.4-3.1.7v-1.1c-.3-2.2,0-4.3-.1-6.5,0-.5.1-1,.7-1,2.2,0,2.1-1.8,2.5-3.2,0-.2,0-.5.1-.7,0,0-.1,0-.1,0Z"/>
      <path class="cls-69" d="M89.6,205.6h-9.1c-1.3,0-1.7-.5-1.5-1.6.2-1.4-.2-2.1-1.7-1.9,0-1.1.5-2.5-1.6-2.5s-.7-1.5-.8-2.2c-.2-1.2,0-2.3-1.8-2.3s-.5-1.5-.6-2.3c0-.9.5-1,1.2-1h12.6v6.4c0,1.2.3,1.7,1.6,1.6,1.5-.2,2.1.3,1.9,1.9v4h-.2Z"/>
      <path class="cls-64" d="M82.7,178.6v-4.1c0-1.3.8-1.1,1.6-1.1s1.8-.4,1.8,1.1v7.2c-1.1.8-2.3.2-3.4.3h0c0-1.1-.9-2.3,0-3.4h0Z"/>
      <path class="cls-101" d="M86.2,184.1c-1.1-.4-2.9.4-3.1-1.7h1.4c1.4-.2,2,.3,1.7,1.8h0Z"/>
      <path class="cls-142" d="M159.6,126.9v2.1c.2,1.6-.2,2.5-2,2.1-.9,0-1.1.4-1.1,1.2v6h-.3c0-3.1,0-6.2.3-9.2,0-.9.4-1.3,1.3-1.1.9,0,1.5-.2,1.9-1h0Z"/>
      <path class="cls-33" d="M42.2,132.5v2c.8,1.1.4,2.3.5,3.5-.4,1.9,1.4,1.4,2.3,1.9v7.3c0,1.1.3,1.6,1.4,1.5,1.5.6,1.2,1.9.9,2.9-.3.9.2,2.4-.6,2.6-1.3.3.2-1.4-.8-1.7-.4-.1-.8-.7-.8-1,0-1.7-.7-2.3-2.3-2.1-.9,0-.9-.6-.9-1.3v-5.4c0-.9-.3-1.4-1.3-1.3-1.1.1-1.6-.3-1.5-1.4-.6-.7-.4-1.4,0-2.1v-5c0-1.5-.3-2.2-1.9-1.9h-.8c-.5-2.3,0-4.5-.2-6.8v-2.1c0-.8-.5-1.7.5-2.1.9-.4,1.9-.4,2.7.3v3.1c.8,1.4.4,2.9.5,4.3,0,1.1,0,2.3,1.5,2.6,1.1.2.4,1.4.8,2.1h0Z"/>
      <path class="cls-129" d="M53,160.2c.7,0,1.1.2,1.1,1s.2,1.4.2,2c0,1.4.4,2,1.9,1.8,1-.1,1.3.5,1.3,1.4v2.1c0,1.2,0,2,1.6,1.8.8-.1,1.1.3,1.2,1.1.2,1.6.3,3.1.3,4.6s0,1.3.6,1.2c2.7-.3,2.2,1.6,2.2,3.1-.9,0-.7-1.6-1.7-1.3-.9.3-.5,1.4-.9,2,0,.2-.3.3-.5.3v-1.7c0-1-.3-1.6-1.4-1.4-1.2.1-1.5-.4-1.4-1.5v-1.6c.2-1.6,0-2.9-2.2-2.5-.6,0-.9-.3-.9-.9v-1.9c0-.8.2-1.8,0-2.5-.5-1-1.5,0-2.3,0-1-.2-1.5-.4-1.2-1.6.3-.8.2-1.7,0-2.5-.6-2.8-.5-2.9,2.2-2.9h0Z"/>
      <path class="cls-104" d="M60.3,181.4c.4-.3.3-.8.3-1.3,0-.8.2-1.6,1.1-1.7.9-.1,1.3.6,1.4,1.4,0,.2.2.4.3.6h0c2.5,1.2,1.9,3.5,2.1,5.5,0,.3,0,.7-.2.8-.4.3-.4-.1-.5-.4-.3-.5-.8-1-.9-1.6-.2-1.1-.8-1.4-1.7-1.2-1.8.3-2-.7-1.8-2.1h-.1Z"/>
      <path class="cls-55" d="M39.1,138.1v2.1h-13.7c-1.3,0-2-.3-1.9-1.7,1.2.1,2.7-.7,3.4,1.1,0,.1.5.2.8.2,2.3-.2,4.7.7,6.7-1,.8-.6,1.9-.4,2.8-.4s1.3,0,1.8-.4h.1Z"/>
      <path class="cls-115" d="M50.5,155.7v3.1c-.2,0-.4.2-.6.3-.8,0-1.9.5-2.4-.4-.4-.9-.5-2.3,0-3.2.8-1.1,1.9-.5,2.9.2h0Z"/>
      <path class="cls-4" d="M124.4,42.4c.7.5,1.4.4,2.1.3,1.1,0,1.5.4,1.3,1.4,0,0-.3.2-.4.3-1.7.5-2.5,1.7-2.5,3.5v12c0,.8-.2,1.7.6,2.2.9.5,1.6-.2,2.4-.6.3,1.3,1.7.8,2.4,1.4-1.8.5-2,1.9-1.9,3.5v6.7c0,2.2,0,1.6-.5,2.3-2.1.3-4.1,0-6.2,0s-1.2-.2-1.4-.8c-.4-1.6-1.5-1.5-2.7-1.5h-35.1c-.9,0-1.7,0-2,1.2-.2.7-.7,1.1-1.4,1.1-2.2,0-4.4.4-6.5-.2-.7-.6-.6-1.5-.6-2.2v-6.5c0-2.1-.2-2.2-2.3-2.5-.2,0-.4-.2-.6-.3,0-1.1,0-1.9,1.5-1.7,1.3,0,1.6-.7,1.6-1.8v-14.5c0-4.8.2-2.6,2-2.3.6,0,.8-.4,1.1-.8,2.4-2.6,1-5.7,1.3-8.6,0-1.2.3-1.9,1.6-1.7,1.2.2,1.6-.4,1.6-1.6v-5.4h.3c.8,1.1.3,2.5.5,3.7,0,1-.5,2.7.9,2.7s.6-1.6.8-2.5v-1.6c0-1.1.5-1.9,1.6-2.1,1.5-.2,1.8-1.1,1.8-2.4s-.2-2.1.5-3h1.6c1.3.1,2.2,0,1.9-1.7,0-1.1.7-1.1,1.5-1.1h19.6v.7c0,.8-.4,1.8.6,2.3.9.4,2,.2,2.8-.6.9.9,2.2-.1,3.2.7-.2.1-.4.3-.6.3-1.8,0-2.1,1.1-2,2.6,0,1.2.2,2,1.6,2.1,1.3,0,1.7.9,1.8,2.1v4.1c0,1.3.3,1.6,1.3,1.6s1.7.9,1.8,2.1v4.7c0,1.3.7,2.1,2.1,2.2h1v.2h0Z"/>
      <path class="cls-164" d="M86.2,19.9v3.6c.2,1.5-.5,2.2-1.8,2.2s-1.7.8-1.6,2v3.1c0,1,0,1.6-1.2,1.6s-1.7-.5-1.6-1.7v-5.5h2.7c.8-1,.3-2.1.3-3.2s.3-2.3,2-2h1.2Z"/>
      <path class="cls-147" d="M124.4,202.5h-3.1v-.7c-.2-1.6,0-2.8,2.2-2.5.3,0,.6-.2.9-.3v3.5h0Z"/>
      <path class="cls-122" d="M110.8,205.6c-.6-2-.5-3.9,0-5.9h3.1s-.3.2-.4.3c-.8.2-1.9-.3-2.5.3-.6.8-.2,1.9-.2,2.8v2.4h0Z"/>
      <path class="cls-77" d="M107,205.6h-12.4c-1.2,0-1.4-.5-1.5-1.5,0-1.6.4-3.2-.3-4.8-.8-.4-1.2-1.1-1.4-2-.8-5.3-.5-5.6,4.8-5.6h11.1c1.1,0,1.6.3,1.5,1.5v2.6c0,.9,0,1.5-1,1.6-.8.1-.7.9-.7,1.6v6.6h0Z"/>
      <path class="cls-120" d="M105.3,267.3v5.9h-7.1c-1,0-1.7-.2-1.4-1.5v-.8c-.2-3.1.3-3.6,3.3-3.6h5.4-.2Z"/>
      <path class="cls-120" d="M90.4,272.5c0,.7-.5.7-1,.7-2,0-3.9.8-5.9,0-.8,0-1.1-.4-1-1.1v-4.8h6c1,0,1.6.3,1.6,1.5s.4,2.5.3,3.8h0Z"/>
      <path class="cls-120" d="M105.3,265.2v-2.8c0-1,.8-1,1.6-1h6v4.5c0,1-.4,1.5-1.5,1.4h-6.2v-2.1h0Z"/>
      <path class="cls-120" d="M112.9,261.4v-4.5c0-1,.4-1.5,1.5-1.4h5.8c.7,1.6.3,3.4.3,5.1s-.8.8-1.5.8h-6.1Z"/>
      <path class="cls-102" d="M79.3,158.1v2.8c0,1.2,0,2.2,1.7,2.2s1.6,1.2,1.7,2.1c.3,2.2,0,4.3-.7,6.5-.3.8-.9.7-1.6.7s-.7-.6-.8-1.1c0-.6.2-1.2-.3-1.6v-1.7c0-1.7-.8-2.6-2.5-2.8-1-.1-.9-.8-.9-1.5v-8.2c-.8-1.6-.6-3.1-.2-4.7,0-.2.3-.3.5-.4.8-.3,1.6-.3,2.4-.1.5,0,1.1.3,1.1.9.3,2.4.7,4.8-.3,7.2h0v-.3h0Z"/>
      <path class="cls-139" d="M72.4,150.5v-6.6c-.2-3.3,0-6.7,0-10-.3-.9-.6-1.9.3-2.5,1-.7,2.3-.6,3.4,0,.9,1.4.4,2.9.5,4.4v12.9c0,2.3,0,1.4-.6,1.9h0c-1.2.7-2.3.8-3.4,0h-.2Z"/>
      <path class="cls-51" d="M72.4,150.5h3.4v4.9c-.4,0-.8-.4-1.1-.3-2.1.4-2.6-.7-2.4-2.5v-2.1h0Z"/>
      <path class="cls-59" d="M72.3,133.9v10c0-1.9-1.2-2.1-2.8-2.1h-20.6c-6.9,0-1.3.2-1.8-.3h23.2c1.4,0,1.8-.4,1.7-1.7v-5.9h.3Z"/>
      <path class="cls-6" d="M45,140.5v-.3c-.7-.9-1.7-1.3-2.7-1.8v-3.8c1.3-.2,1.9.3,1.7,1.7s.3,2.2,1.8,2.2,1.2,1.1,1.3,2.1c-.7-.6-1.4.1-2.1,0h0Z"/>
      <path class="cls-74" d="M82.7,178.6v3.4c-.3-.9-.7-1.6-1.9-1.5-1.3,0-1.5-1-1.5-2.1v-5.9c.7,1.2.3,2.6.3,3.9s.5,2.3,2.1,2.1h1Z"/>
      <path class="cls-79" d="M166.3,81.9v36c-2,.6-3.1,0-3.1-2.2v-41.4c0-1.4.4-1.9,1.8-1.8,1.1,0,1.4.5,1.3,1.5v8h0Z"/>
      <path class="cls-8" d="M159.7,72.2v-8.9c-.1-1.6,1-1.4,2-1.5,1.3,0,1.1.8,1.1,1.6v6.7c0,1.7-.5,2.3-2.1,2.1,0,0-1,0-1,0Z"/>
      <path class="cls-41" d="M156.5,61.5v-7.1c0-1.2.6-1.3,1.5-1.3s1.7,0,1.6,1.3c0,1.7-.1,3.4,0,5.2.1,1.6-.5,2.1-2,1.9h-1.2,0Z"/>
      <path class="cls-135" d="M153,45.8c3.3,0,3.2-.5,3.1,2.3,0,3.2.6,2.9-3.1,2.9-.3-1.7-.3-3.5,0-5.2h0Z"/>
      <path class="cls-20" d="M149.7,44.5v-3.5c-.1-1.3.2-1.8,1.7-1.8s1.5.8,1.5,1.8v.3c0,3.5.6,3.1-3.1,3.1h0Z"/>
      <path class="cls-35" d="M146.6,38.9v-3.8c.7-1,1.6-.8,2.5-.6s.6,1.1.5,1.7c0,2.7.8,2.7-3,2.6h0Z"/>
      <path class="cls-56" d="M156.2,55.6h-.7c-1.6,0-2.5-.8-2.5-2.4,0,0-.1-.2,0-.3h.3c1.9,0,2.8.9,2.8,2.7h0Z"/>
      <path class="cls-62" d="M153.1,52.8v.4c-.7-1.6-.3-3.3-.3-5s-.3-1.7-1.6-1.6c-1.3,0-1.7-.5-1.6-1.7h2.4c.8,0,1,.3,1,1v6.9h.1Z"/>
      <path class="cls-30" d="M159.7,72.2h.3c.2,0,.4.3.6.3,2.1-.3,2.5.8,2.1,2.5h-.3c-1.9,0-2.8-.9-2.7-2.8h0Z"/>
      <path class="cls-90" d="M146.4,32.8c.1,1.1,0,1.7-1.2,1.7s-1.1-.6-1.2-1.4c-.1-1.4.8-1.6,1.6-1.6,1.2,0,.6.9.8,1.3h0Z"/>
      <path class="cls-93" d="M32.8,81.6v-7.7c0-.8,0-1.5,1-1.3.8,0,1.8-.6,2.4.5.4,1.3-.2,2.5-.2,3.8v38.7c0,12.9-1,2.9-3.3,1.7v-35.6h0Z"/>
      <path class="cls-39" d="M32.9,117.2c2,0,3.1-.9,3.1-2.9v-41.4h.5c.4.7.3,1.4,0,2v40.8c0,.6-.2,1.3.8,1.5.7,0,1.7-.4,2.1.3.5.8.2,1.9,0,2.9-2.1,0-3.1.9-3.1,2.9v7.8h-.4v-8.2c0-.9-.2-1.6-1.2-1.6-1.9,0-2-1.2-1.9-2.6v-1.4h.1Z"/>
      <path class="cls-66" d="M12.1,81.6v-6.4c0-1.5.8-2.3,2.3-2.4h1.2v3.3c0,1.6,0,2.7-2.1,2.8-1.6,0-.9,1.6-1,2.6h-.4Z"/>
      <path class="cls-14" d="M15.6,116.2c-.3,0-.7-.2-1-.3-.8-.3-1.6.8-2.2,0-.5-.8-.1-1.8-.2-2.7h.3c2.1,0,3.1,1.1,3.1,3.2h0v-.2Z"/>
      <path class="cls-112" d="M125.7,24.1c-1.3.6-2.7,0-4.1.3-.6.1-1.3-.2-1.5.7-.8.6-1.6.6-2.4,0v-3.6c0-1.4.5-1.7,1.7-1.6,1.6.2,3.3.5,4.9.4v2.4c0,1.1.3,1.6,1.4,1.5h0Z"/>
      <path class="cls-52" d="M117.8,25.1h2.4c.2,0,.5.2.7.3.3,1.6,0,3.2,0,4.8s0,2.3,2.2,2.7c.4,0,.8.2,1.1.5v9c-.8.7-1.9.3-2.8.3s-.7-.7-.7-1.2v-6.2c0-1.2-.3-1.8-1.6-1.6-1.3.2-1.7-.4-1.6-1.6v-4.5c0-1.3-.4-2-1.7-1.8-1.4.2-1.9-.4-1.7-1.7v-.7c0-2.1,1-3.1,3.1-3.1.2,1.6-.3,3.3.4,4.8,0,0,.2,0,.2,0Z"/>
      <path class="cls-38" d="M49.2,45.2v1c-.8,0-2,.4-2.4-.4-.6-1.2-.7-3.4,0-3.7,1.6-.8,2.4-1.7,2.7-3.3,1.9.2,1.9-.8,1.6-2.2-.3-1.5.2-2.3,1.9-2h1.6v4.1c0,.3-.4.7-.7.7-1.5,0-2,1-2.4,2.1v1.6c-.9.5-1.7,1-2,2.2h-.3,0Z"/>
      <path class="cls-92" d="M36.3,72.9h-.3c-.6-.7-1.4-.2-2.1-.4,2.2,0,2.2-1.6,2.2-3.3s-.2-3.4,0-5.1c.2-1.1,1-1.2,1.9-1.3,1,0,1.3.5,1.3,1.4.3.3.5.7.4,1.1-.4,1.8,0,3.7-.2,5.5,0,2-.4,2.3-2.3,2.3s-.7,0-1-.2h0Z"/>
      <path class="cls-92" d="M43,57.6v5.2c-3.9,0-3.3.2-3.4-3.4v-4c0-1.3.5-2.4,2.2-2h1.2c1,1.4,0,2.8,0,4.1h0Z"/>
      <path class="cls-158" d="M46.7,46.9v5.2c-2.7.9-3.3.6-3.4-2.2,0-2,1-3.1,3.1-3.1h.3Z"/>
      <path class="cls-25" d="M36.3,72.9c.2,0,.4-.3.6-.3,1.7-.2,2.5-1.2,2.5-3v-5.4c.7-1.7,2.3-.8,3.4-1.1v1.2c0,1.1-.2,1.8-1.5,1.6s-1.7.3-1.6,1.6v5.7c-.2,1.6-.9,1.9-2.2,1.7h-1v-2.1h-.2Z"/>
      <path class="cls-17" d="M43,57.6v-4.1c1.2-.8,2.5,0,3.8-.4,0,2.4,0,2.5-2.2,2.4-1.8,0-.9,1.5-1.6,2.1Z"/>
      <path class="cls-139" d="M68.9,63.6h.2c3.2-.3,3.3-.2,3.3,3v8.5c.5.6.5,1.3.5,1.9v42.4c-.4,1.6-.4,3.3,0,4.9.3,1.7.3,3.4,0,5.1,0,.9-.2,2.1-1.4,2.3s-1.9-.4-2.5-1.4V63.5h0Z"/>
      <path class="cls-149" d="M68.9,130.4c2.9,1.9,3.3,1.2,3.4-2.1,0-2.4-.2-4.7-.2-7s0-1.2.3-1.6c.7.7.6,1.6.6,2.5s.4,1.5,1.4,1.6c1.6,0,2.2.9,2,2.4,0,1.8.6,3.8-.6,5.5h-.8c-1.7,0-2.6.8-2.6,2.5h-.3c-.3-1.7-2-1.4-3.1-2.1v-1.4h0v-.3h-.1Z"/>
      <path class="cls-130" d="M42.2,132.5c-.3-1-.5-2.1-2-1.8-.8,0-.8-.7-.8-1.2v-6c.4,0,.8.3,1.1.3,1.2,0,1.6.7,1.6,1.8v6.9h.1Z"/>
      <path class="cls-15" d="M51.3,41.4c-.2-1.6,0-2.9,2.1-2.5.3,0,.6-.2.9-.3.2,1.6,0,2.8-2.1,2.5-.3,0-.6.2-.9.3h0Z"/>
      <path class="cls-59" d="M68.9,131.8h1c1.7-.3,2.4.4,2.1,2.1h-1c-1.7.3-2.4-.4-2.1-2.1h0Z"/>
      <path class="cls-47" d="M49.2,45.2c-.3-1.6.3-2.4,2-2.2.6,1.9-1,1.7-2,2.2Z"/>
      <path class="cls-150" d="M127.7,75.3v-9.9c0-1.7.8-2.5,2.5-2.5,1.2.2.8,1.2.8,1.8v62c0,1.3-.7,1.3-1.6,1.3s-1.6,0-1.5-1.3v-2.9c-.6-.7-.5-1.5-.5-2.3v-43.9c0-.8,0-1.6.5-2.3h-.2Z"/>
      <path class="cls-48" d="M127.8,61.4c0,1.6-1.2,1.4-2.2,1.4s-1.3-.8-1.3-1.8v-14.7c0-1.7.5-2.5,2.3-2.2h1.2v17.3h0Z"/>
      <path class="cls-11" d="M124.3,33.4c-2.3,0-3.4-1.3-3.4-3.7v-4.3c.7,1.5.3,3.1.3,4.6s.3,1.9,1.6,1.7c1.5-.2,1.6.6,1.5,1.7h0Z"/>
      <path class="cls-86" d="M75.8,150.5v-9c1.4-1.2,3-.7,4.5-.5,2.5.3,5.1,0,7.7.7.8,1.9,2.2,2.2,4.1,2.1,4.5-.1,9,0,13.5-.2,1.6,0,3.1,0,4.1-1.6.4-.6,1.2-.6,1.9-.6h6.9c.6,0,1.3.1,1.7-.5v-.5c.5-2.5,1.6-3.1,4.1-1.9h0v11.7c-2.3,0-3.5,1.1-3.5,3.3v7c-.9.1-1.8.2-2.7.4h0c-.3,1.6-2.2,1.8-2.8,2.8-.6.9-1.1.9-1.9.9-1.2,0-2.7-.6-3,1.4,0,.1-.4.2-.6.3-5.1,1.2-10.3,1.2-15.5.9-.5,0-.9,0-1.3.1-.5,0-1.3,0-1.3-.5-.2-2-1.6-1.6-2.8-1.6s-2.7.2-2.6-1.9c0-.9-1.1-.5-1.7-.5-.9,0-1.7,0-1.7-1.3s-.5-.8-1-.8c-1.7.2-2.3-.6-2.1-2.2,0-.2-.2-.4-.3-.6v-5.9c0-1.4-.4-1.9-1.7-1.7h-1.7l-.3.2h0Z"/>
      <path class="cls-22" d="M117.4,182.1c-2.1,0-3.1-1-3.1-3.1v-3.6c0-.7,0-1.3.4-1.8.3-.8,1-.8,1.8-.8s.9.7.9,1.4v8h0Z"/>
      <path class="cls-43" d="M124.3,138.4h-.3c-2.1,0-3.1,1.1-3.1,3.1-2.2.4-4.4.3-6.5.1-3.2-.3-6.2,1-9.3.8-3.2-.2-6.3,0-9.5,0s-2,0-2.9-.1c-2.8-.4-5.6-.7-8.4-.6-1.2,0-1.9-.2-2-1.5,0-1.1-.8-1.2-1.7-1.3-1.6-.1-3.3.5-4.7-.6v-12.7c0-1.1-.3-1.6-1.5-1.5-1.7.3-2.2-.5-2-2.1v-47h6c1,0,1.7,0,1.6-1.4,0-1.2.8-1.1,1.5-1.1h37.2c1.1,0,2,0,1.8,1.5,0,1.1.7.9,1.4,1,1.9,0,3.9-.4,5.8.3v48.4c0,.3-.3.7-.3.9,0,1.4,0,2.5-1.9,2.3-.9,0-.8.7-.9,1.3-.5,3.3-.2,6.7-.3,10.1h0Z"/>
      <path class="cls-155" d="M42.3,138.4c1.5-.2,2.4.4,2.7,1.8-.4,0-.8-.1-1.2,0-1.4.2-1.7-.5-1.5-1.7h0Z"/>
      <path class="cls-167" d="M75.2,44.5c.8,0,1,.6,1,1.3-.3,5.4-.3,10.7-.3,16.1s-1.3.8-2.1,1c-.9,0-1.4,0-1.4-1.2v-10.6c1.8-.5,2-1.8,1.9-3.5,0-1.1-.4-2.4.8-3.1h0Z"/>
      <path class="cls-96" d="M76.9,37.4v-3.6c0-.8,0-1.5,1.2-1.4.9,0,1.8,0,1.9,1.2,0,2.9.2,5.9,0,8.8,0,1.5-1.7.6-2.6.7s-.6-.6-.6-1.2v-4.5h0Z"/>
      <path class="cls-153" d="M75.2,44.5c-.7,1.3-.3,2.7-.3,4.1s-.8,2.5-2.4,2.5v-4.6c0-1.5.3-2.3,1.9-2h.8Z"/>
      <path class="cls-116" d="M75.9,138.4h5.5c1,0,1.5.3,1.4,1.4-.2,1.5.5,1.8,1.9,1.8h6.2c2.1,0,1.2-.2,1.6.3-1.5.8-3,.8-4.5,0-3.3,0-6.6-.2-9.9-.6-.7,0-1.5.1-2.2.2v-3.1h0Z"/>
      <path class="cls-110" d="M87.9,141.9h4.5c9.5.2,18.9-.4,28.4-.4-.4.6-1,.4-1.6.4h-8c-.5,0-1.3-.2-1.4.3-.6,2.3-2.5,1.9-4,1.9-5.3.2-10.7,0-16,.1-1.8,0-1.7-1.3-2-2.5h0v.2h0Z"/>
    </g>
    <path class="cls-103" d="M68.5,268.1s-1.8,12.8,7,11.7l.8-2.1-3-3.1-3.7-3.9,1-2-2.2-.6h0Z"/>
    <path class="cls-84" d="M121.6,280h3.9s5.3.4,5.9-8.2l-2.2-1.4s-2.3,6.1-5.8,6.6-1.8,2.9-1.8,2.9h0Z"/>
  </g>
  <g>
    <path class="cls-88" d="M65.7,99c0,4.9.3,9.8.2,14.7,0,2.9-10.9,8.8-13.5,7.4-2.8-1.5-5.5-3.2-8.2-4.8-1-.6-1.5-1.3-1.5-2.5,0-3.4,0-6.8,0-10.2,0-1.4.5-2.2,1.7-2.8,3.3-1.8,6.6-3.6,9.8-5.4,0,0,0,0,0,0,0,3.2.1,6.5.1,9.7,0,1.9.5,2.7,2.4,1.5,2.1-1.3,4.2-2.5,6.3-3.6,2.4-1.2,1.4-2.1-.1-3,.9-.4,1.8-1.1,2.9-.9Z"/>
    <path class="cls-88" d="M75.8,102.1c0-3.6,0-7.3,0-10.9,0-.9-.3-1.8,1-2.3,6.9-2.5,12.8,1.1,13.4,8.4.3,3.5.4,7.1,0,10.6-.7,5.2-3.2,7.4-8.4,7.4q-6,0-6-5.8c0-2.5,0-4.9,0-7.4ZM81.2,102.1c0,2.2,0,4.4,0,6.7,0,.8-.5,2,1,2.2,1.2.1,2.2-.5,2.4-1.6.8-4.9.8-9.7,0-14.6-.2-1.3-1.3-1.6-2.4-1.5-1.4.2-.9,1.4-.9,2.2,0,2.2,0,4.4,0,6.7Z"/>
    <path class="cls-131" d="M105.8,105c0,2.6,0,5.2,0,7.8,0,.8,1,2.3-.4,2.3-1.3,0-3.1,1.3-4.1-.3-.7-1.1-.7-1.5-1.9-.4-2.6,2.4-6,1.3-6.7-2.1-.9-4.4-.6-8.9-.1-13.3.4-3.5,3.7-3.5,5.1-3.1,1.8.5,3.1-.1,4.6-.3,2.5-.3,3.8.3,3.5,3.2-.2,2.1,0,4.2,0,6.4,0,0,0,0,.1,0ZM97.4,105.2s0,0,.1,0c0,1.5,0,3,0,4.6,0,.8.3,1.7,1.4,1.8,1.1,0,1.4-.9,1.4-1.7,0-3.2,0-6.3,0-9.5,0-.7-.4-1.4-1.2-1.4-.8,0-1.3.6-1.4,1.3-.2,1.6-.2,3.3-.3,4.9Z"/>
    <path class="cls-131" d="M125.8,96.8c.3.2.6.4.8.6.1-.2.2-.4.4-.6,0,0,0,0,0,0,.6-.2.7-.7.8-1.3,3.2-.8,4.7.2,4.4,3.8-.3,4.3,0,8.7,0,13,0,.9,1,2.3-.5,2.7-1.2.3-3,.7-3.7-.2-1-1.5-1.1-1.5-2.5-.3-2.1,1.9-5.6.9-6.2-1.9-1.1-5.2-1.6-10.4.5-15.5.3.3.7.5,1,.8,1.3-2.2,3.3-1,5.1-1.2ZM126.6,110.9c2.1-1.9,1.4-4.1.4-6.2,0-.9,0-1.9,0-2.8.8-.5.7-1-.1-1.4-.5-.5-.7-1.6-1.8-1.3-1.1.2-1.2,1.2-1.2,1.9,0,2.9-.1,5.8,0,8.7,0,1.6.8,2.9,2.6,1.2Z"/>
    <path class="cls-131" d="M65.7,99c-1.1-.1-1.9.6-2.9.9-3.1-1.2-5.5-3.7-8.7-4.5,0,0,0,0,0,0,0-3.5.2-7.1,0-10.6,0-2.7.8-2.8,2.8-1.5,2.1,1.3,4.2,2.6,6.4,3.7,2.2,1.1,3,2.5,2.2,4.8-1.4,1.6-1.4,3.3,0,4.9.3.7.3,1.4,0,2.1Z"/>
    <path class="cls-131" d="M134.2,113.1c1.1-3.7,2.2-7.4,3.5-11,.7-1.9.6-2.9-1.7-2.7-1.7.2-2.3-.5-2.3-2.2,0-1.7,1-1.7,2.3-1.8q9.4-.5,6.7,8.3c-.6,1.9-1.2,3.8-1.9,5.6-.5,1.3-.3,2,1.2,2.2,0,1.1,0,2.2-1.6,2.1-2.1,0-4.2.5-6.2-.7Z"/>
    <path class="cls-88" d="M116.9,96.2c1,2.7.5,4.8-2.2,6.1-1.5.7-1.8,2-1.7,3.5.1,2.1,0,4.2,0,6.3,0,1.9.2,3.3-2.6,3.2-2.7,0-2.7-1.2-2.7-3.2,0-4.7,0-9.4,0-14.1,0-.9-.5-2.5,1-2.5,1.1,0,2.9-1.3,3.4,1,.3,1.3,1,1,1.8.7.9-.4,1.7-1.3,2.8-1.1Z"/>
    <path class="cls-88" d="M134.2,113.1c2,1.1,4.1.6,6.2.7,1.5,0,1.6-1,1.6-2.1,1.3.2,3.4-1.5,3.6,1.5,0,1.3,0,2.2-1.8,2.1-2.8-.1-5.6,0-8.4,0-1.9,0-1.9-.8-1.1-2.1Z"/>
    <path class="cls-88" d="M125.8,96.8c-1.7.1-3.8-1.1-5.1,1.2-.3-.3-.7-.5-1-.8,1.9-2.5,3.9-2.9,6.1-.4Z"/>
    <path class="cls-88" d="M65.7,96.9c-1.4-1.6-1.4-3.3,0-4.9.4,1.6.4,3.3,0,4.9Z"/>
    <path class="cls-88" d="M127.8,95.6c0,.6-.2,1-.8,1.3,0-.6-.2-1.3.8-1.3Z"/>
    <path class="cls-88" d="M127,96.8c-.1.2-.2.4-.4.6,0-.2.2-.4.4-.6Z"/>
    <path class="cls-83" d="M54.1,95.4c3.2.9,5.7,3.3,8.7,4.5,1.5,1,2.5,1.8.1,3-2.2,1.1-4.3,2.4-6.3,3.6-1.9,1.2-2.4.5-2.4-1.5,0-3.2,0-6.5-.1-9.7Z"/>
    <path class="cls-43" d="M81.2,102.1c0-2.2,0-4.4,0-6.7,0-.8-.5-2.1.9-2.2,1.1-.1,2.2.2,2.4,1.5.8,4.9.8,9.8,0,14.6-.2,1.1-1.2,1.7-2.4,1.6-1.5-.1-1-1.4-1-2.2,0-2.2,0-4.4,0-6.7Z"/>
    <path class="cls-43" d="M97.4,105.2c0-1.6,0-3.3.3-4.9,0-.7.5-1.4,1.4-1.3.9,0,1.2.7,1.2,1.4,0,3.2,0,6.3,0,9.5,0,.8-.3,1.7-1.4,1.7-1,0-1.3-1-1.4-1.8-.1-1.5,0-3,0-4.6,0,0,0,0-.1,0Z"/>
    <path class="cls-43" d="M127,101.8c0,.9,0,1.9,0,2.8-.1,2.1-.3,4.2-.4,6.2-1.8,1.7-2.5.4-2.6-1.2-.2-2.9-.1-5.8,0-8.7,0-.8.1-1.7,1.2-1.9,1.1-.2,1.3.8,1.8,1.3,0,.5,0,1,.1,1.4Z"/>
    <path class="cls-88" d="M126.6,110.9c.1-2.1.3-4.2.4-6.2.9,2.2,1.7,4.3-.4,6.2Z"/>
    <path class="cls-88" d="M127,101.8c0-.5,0-1-.1-1.4.8.4.9.9.1,1.4Z"/>
  </g>
</svg>