<?xml version="1.0" encoding="UTF-8"?>
<svg id="Layer_1" data-name="Layer 1" xmlns="http://www.w3.org/2000/svg" version="1.1" viewBox="0 0 100 100">
  <defs>
    <style>
      .cls-1 {
        fill: #935207;
      }

      .cls-1, .cls-2, .cls-3, .cls-4, .cls-5, .cls-6, .cls-7, .cls-8, .cls-9, .cls-10, .cls-11, .cls-12, .cls-13, .cls-14, .cls-15, .cls-16, .cls-17, .cls-18, .cls-19, .cls-20, .cls-21, .cls-22, .cls-23, .cls-24, .cls-25, .cls-26, .cls-27, .cls-28, .cls-29, .cls-30, .cls-31, .cls-32, .cls-33, .cls-34, .cls-35, .cls-36, .cls-37, .cls-38, .cls-39, .cls-40, .cls-41, .cls-42, .cls-43, .cls-44, .cls-45, .cls-46, .cls-47, .cls-48, .cls-49, .cls-50, .cls-51, .cls-52, .cls-53, .cls-54, .cls-55, .cls-56, .cls-57, .cls-58, .cls-59, .cls-60, .cls-61, .cls-62, .cls-63, .cls-64, .cls-65, .cls-66, .cls-67, .cls-68, .cls-69, .cls-70, .cls-71, .cls-72, .cls-73, .cls-74, .cls-75, .cls-76, .cls-77, .cls-78, .cls-79, .cls-80, .cls-81, .cls-82, .cls-83, .cls-84, .cls-85, .cls-86, .cls-87, .cls-88, .cls-89, .cls-90, .cls-91, .cls-92, .cls-93, .cls-94, .cls-95, .cls-96, .cls-97, .cls-98, .cls-99, .cls-100, .cls-101, .cls-102, .cls-103, .cls-104, .cls-105, .cls-106, .cls-107, .cls-108, .cls-109, .cls-110, .cls-111, .cls-112, .cls-113, .cls-114, .cls-115, .cls-116, .cls-117, .cls-118, .cls-119, .cls-120, .cls-121, .cls-122, .cls-123, .cls-124, .cls-125, .cls-126, .cls-127, .cls-128, .cls-129, .cls-130, .cls-131, .cls-132, .cls-133, .cls-134, .cls-135, .cls-136, .cls-137, .cls-138, .cls-139, .cls-140, .cls-141, .cls-142, .cls-143, .cls-144, .cls-145, .cls-146, .cls-147, .cls-148, .cls-149, .cls-150, .cls-151, .cls-152, .cls-153, .cls-154, .cls-155, .cls-156, .cls-157, .cls-158, .cls-159, .cls-160, .cls-161, .cls-162, .cls-163, .cls-164, .cls-165, .cls-166, .cls-167, .cls-168, .cls-169, .cls-170, .cls-171, .cls-172, .cls-173 {
        stroke-width: 0px;
      }

      .cls-2 {
        fill: #c28037;
      }

      .cls-3 {
        fill: #c28038;
      }

      .cls-4 {
        fill: #7c5735;
      }

      .cls-5 {
        fill: #cf8b42;
      }

      .cls-6 {
        fill: #ce8f41;
      }

      .cls-7 {
        fill: #c18241;
      }

      .cls-8 {
        fill: #9b5911;
      }

      .cls-9 {
        fill: #cc9653;
      }

      .cls-10 {
        fill: #864302;
      }

      .cls-11 {
        fill: #8a5005;
      }

      .cls-12 {
        fill: #914e0a;
      }

      .cls-13 {
        fill: #dea551;
      }

      .cls-14 {
        fill: #2e0d02;
      }

      .cls-15 {
        fill: #af7024;
      }

      .cls-16 {
        fill: #30130d;
      }

      .cls-17 {
        fill: #b5712f;
      }

      .cls-18 {
        fill: #95581c;
      }

      .cls-19 {
        fill: #cb8d4a;
      }

      .cls-20 {
        fill: #5d2e13;
      }

      .cls-21 {
        fill: #30120a;
      }

      .cls-22 {
        fill: #2f1112;
      }

      .cls-23 {
        fill: #874907;
      }

      .cls-24 {
        fill: #b87a38;
      }

      .cls-25 {
        fill: #daa253;
      }

      .cls-26 {
        fill: #c88b41;
      }

      .cls-27 {
        fill: #b17b42;
      }

      .cls-28 {
        fill: #864609;
      }

      .cls-29 {
        fill: #c48a40;
      }

      .cls-30 {
        fill: #d0964a;
      }

      .cls-31 {
        fill: #30120e;
      }

      .cls-32 {
        fill: #aa6f30;
      }

      .cls-33 {
        fill: #4e2210;
      }

      .cls-34 {
        fill: #b16c1f;
      }

      .cls-35 {
        fill: #cb8c45;
      }

      .cls-36 {
        fill: #a27143;
      }

      .cls-37 {
        fill: #be834e;
      }

      .cls-38 {
        fill: #31110e;
      }

      .cls-39 {
        fill: #dea660;
      }

      .cls-40 {
        fill: #98581a;
      }

      .cls-41 {
        fill: #2a1408;
      }

      .cls-42 {
        fill: #d89c47;
      }

      .cls-43 {
        fill: #c78439;
      }

      .cls-44 {
        fill: #401a09;
      }

      .cls-45 {
        fill: #421b0a;
      }

      .cls-46 {
        fill: #e4a754;
      }

      .cls-47 {
        fill: #3d0c01;
      }

      .cls-48 {
        fill: #2d1414;
      }

      .cls-49 {
        fill: #a57136;
      }

      .cls-50 {
        fill: #251609;
      }

      .cls-51 {
        fill: #985b12;
      }

      .cls-52 {
        fill: #b3742f;
      }

      .cls-53 {
        fill: #3a140d;
      }

      .cls-54 {
        fill: #37180d;
      }

      .cls-55 {
        fill: #dbb46c;
      }

      .cls-56 {
        fill: #391101;
      }

      .cls-57 {
        fill: #281307;
      }

      .cls-58 {
        fill: #2e1110;
      }

      .cls-59 {
        fill: #ab6b26;
      }

      .cls-60 {
        fill: #d79b5f;
      }

      .cls-61 {
        fill: #834e17;
      }

      .cls-62 {
        fill: #e4a057;
      }

      .cls-63 {
        fill: #c4873b;
      }

      .cls-64 {
        fill: #ebaa56;
      }

      .cls-65 {
        fill: #975d0d;
      }

      .cls-66 {
        fill: #b28352;
      }

      .cls-67 {
        fill: #bb7e32;
      }

      .cls-68 {
        fill: #8b4608;
      }

      .cls-69 {
        fill: #bb7a35;
      }

      .cls-70 {
        fill: #efb36c;
      }

      .cls-71 {
        fill: #e3a852;
      }

      .cls-72 {
        fill: #2c120d;
      }

      .cls-73 {
        fill: #472714;
      }

      .cls-74 {
        fill: #844a0b;
      }

      .cls-75 {
        fill: #bd7e37;
      }

      .cls-76 {
        fill: #e2a457;
      }

      .cls-77 {
        fill: #9f6425;
      }

      .cls-78 {
        fill: #a76826;
      }

      .cls-79 {
        fill: #9c672c;
      }

      .cls-80 {
        fill: #976027;
      }

      .cls-81 {
        fill: #b37122;
      }

      .cls-82 {
        fill: #291306;
      }

      .cls-83 {
        fill: #ba7230;
      }

      .cls-84 {
        fill: #c07d38;
      }

      .cls-85 {
        fill: #421b0f;
      }

      .cls-86 {
        fill: #af6c29;
      }

      .cls-87 {
        fill: #42161d;
      }

      .cls-88 {
        fill: #d19959;
      }

      .cls-89 {
        fill: #d6a77e;
      }

      .cls-90 {
        fill: #e4a963;
      }

      .cls-91 {
        fill: #311318;
      }

      .cls-92 {
        fill: #8f562c;
      }

      .cls-93 {
        fill: #db9e5e;
      }

      .cls-94 {
        fill: #8d4d07;
      }

      .cls-95 {
        fill: #2f1012;
      }

      .cls-96 {
        fill: #ab6c28;
      }

      .cls-97 {
        fill: #3e1c10;
      }

      .cls-98 {
        fill: #bd8349;
      }

      .cls-99 {
        fill: #ecb563;
      }

      .cls-100 {
        fill: #b3712d;
      }

      .cls-101 {
        fill: #cf9f5c;
      }

      .cls-102 {
        fill: #a36325;
      }

      .cls-103 {
        fill: #351014;
      }

      .cls-104 {
        fill: #280c04;
      }

      .cls-105 {
        fill: #30130f;
      }

      .cls-106 {
        fill: #291206;
      }

      .cls-107 {
        fill: #2d110e;
      }

      .cls-108 {
        fill: #c07f2c;
      }

      .cls-109 {
        fill: #e2aa5b;
      }

      .cls-110 {
        fill: #d79845;
      }

      .cls-111 {
        fill: #d49e4b;
      }

      .cls-112 {
        fill: #a26323;
      }

      .cls-113 {
        fill: #d89957;
      }

      .cls-114 {
        fill: #f4b267;
      }

      .cls-115 {
        fill: #ab672b;
      }

      .cls-116 {
        fill: #ac6623;
      }

      .cls-117 {
        fill: #cc9049;
      }

      .cls-118 {
        fill: #b97740;
      }

      .cls-119 {
        fill: #9e6c36;
      }

      .cls-120 {
        fill: #bf8b46;
      }

      .cls-121 {
        fill: #2f110f;
      }

      .cls-122 {
        fill: #af6c1a;
      }

      .cls-123 {
        fill: #a86322;
      }

      .cls-124 {
        fill: #c59564;
      }

      .cls-125 {
        fill: #d59b5e;
      }

      .cls-126 {
        fill: #bd7d31;
      }

      .cls-127 {
        fill: #2c100d;
      }

      .cls-128 {
        fill: #d99f4e;
      }

      .cls-129 {
        fill: #623014;
      }

      .cls-130 {
        fill: #ad6923;
      }

      .cls-131 {
        fill: #ad7839;
      }

      .cls-132 {
        fill: #bf8a4c;
      }

      .cls-133 {
        fill: #ce8e42;
      }

      .cls-134 {
        fill: #dc9b4c;
      }

      .cls-135 {
        fill: #c4823c;
      }

      .cls-136 {
        fill: #c48b50;
      }

      .cls-137 {
        fill: #c08741;
      }

      .cls-138 {
        fill: #3c1403;
      }

      .cls-139 {
        fill: #cf9653;
      }

      .cls-140 {
        fill: #855025;
      }

      .cls-141 {
        fill: #a96727;
      }

      .cls-142 {
        fill: #a96623;
      }

      .cls-143 {
        fill: #dc9b58;
      }

      .cls-144 {
        fill: #622e0e;
      }

      .cls-145 {
        fill: #3a1205;
      }

      .cls-146 {
        fill: #be803e;
      }

      .cls-147 {
        fill: #78400b;
      }

      .cls-148 {
        fill: #9f5b1e;
      }

      .cls-149 {
        fill: #e5ab5f;
      }

      .cls-150 {
        fill: #c6803c;
      }

      .cls-151 {
        fill: #a45f1c;
      }

      .cls-152 {
        fill: #502615;
      }

      .cls-153 {
        fill: #ce8d43;
      }

      .cls-154 {
        fill: #d6a453;
      }

      .cls-155 {
        fill: #874108;
      }

      .cls-156 {
        fill: #ddaa5c;
      }

      .cls-157 {
        fill: #2b1105;
      }

      .cls-158 {
        fill: #d49255;
      }

      .cls-159 {
        fill: #ecaa54;
      }

      .cls-160 {
        fill: #b1702b;
      }

      .cls-161 {
        fill: #b88553;
      }

      .cls-162 {
        fill: #40180b;
      }

      .cls-163 {
        fill: #8e5c2e;
      }

      .cls-164 {
        fill: #bb7626;
      }

      .cls-165 {
        fill: #bf7e37;
      }

      .cls-166 {
        fill: #d49652;
      }

      .cls-167 {
        fill: #9b6324;
      }

      .cls-168 {
        fill: #431b09;
      }

      .cls-169 {
        fill: #b67734;
      }

      .cls-170 {
        fill: #39150c;
      }

      .cls-171 {
        fill: #8b4406;
      }

      .cls-172 {
        fill: #2e1213;
      }

      .cls-173 {
        fill: #7f4f2c;
      }
    </style>
  </defs>
  <path class="cls-42" d="M2.6,10.3C5.8,4.1,11.1,1.1,17.9,1.1c21.2-.1,42.4-.1,63.6,0,6.8,0,12.7,2.4,15.8,9.1.5,1.2.3,2.1-1.1,2.4-1.6-.1-2.5-1.4-3.6-2.3-1-1.1-2.1-2.1-3.4-2.9-1-.8-2.2-1.3-3.6-1.4-.4,0-.8-.2-1.2-.3-1.1-.3-2.2-.5-3.3-.9-21.8-.2-43.5-.3-65.3,0-.7.2-1.2.6-1.9.9-.9.4-1.9.7-2.9,1.2-1.6.8-2.7,2.1-3.8,3.4-1.7.8-1.4,3.9-4.1,3.5-.7-1.1-.9-2.3-.7-3.6Z"/>
  <path class="cls-154" d="M95.6,12.3c1.2,0,1.6-.9,1.8-2,1.2,1.6,1.3,3.5,1.7,5.4.8,6.2.1,12.5.4,18.7,0,1.8-.3,3.7.3,5.5,0,13,.4,26.1,0,39.1-.1,4,.1,8.7-3.3,12.1-2,2-2.5.4-3.1-1.2.3-2.6,1.8-4.7,3-7,.6-1.4.5-2.8.5-4.3,0-18.9,0-37.8,0-56.7,0-1.4.1-2.9-.6-4.2-.5-.8-.8-1.8-1-2.7-.1-.9-.3-1.8.3-2.7Z"/>
  <path class="cls-71" d="M2.6,10.3c.7,1.1,1.1,2.3,1,3.7.4,1,0,1.9-.4,2.8-.3,10.2,0,20.5-.1,30.7,0,2.2.1,4.3-.3,6.5-1.2,7.2-.2,14.5-.6,21.8-.1,1.8.8,4.2-2,4.9C0,59.8,0,38.9,0,17.9c0-2.8.7-5.4,2.6-7.6Z"/>
  <path class="cls-76" d="M90.5,95.5l-.9.8c-1.4.7-2.9,1.2-4.4,1.8h0c-2.4.6-4.8.3-7.2.1-14-.6-28,0-42-.2-5.2,0-10.4.2-15.6-.2-.8-.4-1.6-.7-1-1.8,1.9-1.4,4.2-.9,6.3-1,18.7-.1,37.5.1,56.2-.1,2.4-.5,4.7-1.4,7.1-1.8.4,0,.8,0,1.2.2.8.6.4,1.4.3,2.2Z"/>
  <path class="cls-109" d="M78.2,98c2.3,0,4.7,0,7,0-1.2,1.1-2.7.7-4.1.7-20.7,0-41.5.1-62.2.2-1.7,0-3.5.1-5-.9.5-.7,1.3-1,2.1-1.1,1.7-.4,3.2.7,4.8.6,17.6,0,35.2,0,52.8,0,1.6,0,3.2-.4,4.7.4Z"/>
  <path class="cls-25" d="M11.3,97.4c-1.8-.3-3.2-1.3-4.4-2.7-1.1-1.9-3.2-2.7-4.4-4.4-1-1.5-1.9-3.1-1.7-5-.3-.9-.5-1.7.5-2.2.7,0,1.3.1,1.8.5,2.3,3.5,4.3,7.2,7.7,9.9.5.9.8,1.9.9,2.9,0,.4-.2.8-.5,1.1Z"/>
  <path class="cls-64" d="M1.8,83.3c-.7.5-.8,1.3-.9,2-1-1.4-.9-3-.7-4.6,1.5-1.6.7-3.5.8-5.3.5-7.2-.9-14.4.8-21.5,1,.8,1.2,1.9,1.3,3.1.1,7.7.1,15.5,0,23.2,0,1.2-.2,2.3-1.2,3.1Z"/>
  <path class="cls-101" d="M99.8,39.9c-1.6-4.1-.5-8.4-.7-12.7-.2-3.9,0-7.7,0-11.6,1.6,8,.6,16.2.7,24.3Z"/>
  <path class="cls-156" d="M94,90.3c.7.7,1.3,1.7,2.5.9-.2,1.2-.8,2-1.9,2.5-1.4-.3-2.7,1-4.2.1v-.2c0-2.2.9-3.8,3.5-3.3Z"/>
  <path class="cls-13" d="M11.3,97.4c0-.4,0-.7,0-1.1.7-2.9,2.6-.7,4-.9.4.1.8.3,1.1.6.7,1,0,1.5-.7,2-.7,0-1.3.1-2,.2-.9.1-1.8,0-2.5-.7Z"/>
  <path class="cls-55" d="M2.6,90.3c1.5,1.5,4.9,1,4.4,4.4-2.1-.8-3.7-2.2-4.4-4.4Z"/>
  <path class="cls-109" d="M90.4,93.8c1.4.2,2.7-2.5,4.2-.1-1,1.4-2.6,1.6-4.1,1.9-1.1-.5-.3-1.1,0-1.7Z"/>
  <path class="cls-109" d="M85.2,98.1c1.5-.5,2-3.4,4.4-1.8-.9,1.9-2.7,1.8-4.4,1.8Z"/>
  <path class="cls-127" d="M7.1,9.7c1-1.2,1.7-2.8,3.4-3.3,1.3.3,2.4-.2,3.6-.6,6.9-1.5,13.7-.8,20.6-.3,5.5.4,10.9-.2,16.3,0,9.2.3,18.6-2.4,27.7,1.1.7.5.8,1.3.6,2.1-1.3,1.6-3,1.8-4.9,1.7-4-.7-8-.2-12-.3-10.5.5-21-1-31.5,0-2.3.2-4.5,1.5-6,1.1,5.6-1.2,12.2-1.6,18.8-1.4,1.5,0,3.2-.5,4.3,1.2-2.7,3.1-6.9.9-10.5,3.4,4.8.4,9.2,0,13.6.2,3.2.2,6.6-.8,9.7,1,.3.3.6.8.4,1.2q-1.9,4,.9,8.1c.6,1.4,1.8,2,3,2.7.3.3.4.6.4,1-.4,1-.9,2-.7,3.1,0,.4-.2.7-.3,1.1-.5,3.1-1.7,4.2-4.9,2.4-2.4-1.4-5.2-1.7-7.1-4.2-1.5-2-3.6-.7-5.2.7-.5.3-1.1.3-1.7.2-2.5-1.5-5-.8-7.4.2-.8.2-1.6.2-2.4-.1-.8.8-.2-2.5-1.9-.6-1.3,1.4-2.4,3.1-3.9,4.2-1.9,1.4.4,1.9.2,2.9,0,.4-.2.7-.5,1-3.8,3.1,1.1,1.8,1.4,2.8.5,1.5.6,2.9-.7,4-2.5-1.8-1.3,1.3-2.2,1.7-.3.2-.7.4-1.1.4-1.6-.6-2.7-2.7-4.9-1.3,1.2,1.3,3.4.7,4.3,2.4.3.8.2,1.5-.5,2.1-2.5,1.1-1.6,2.5-.3,3.9.5.7.8,1.4.9,2.3-.3,1.9-.8,3.8-2.2,5.3-.4.2-.8.4-1.3.4-.6,0-1.3,0-1.6-.4-2.8-4.1-5-.7-7.2.7-1.5,1-2.7,3.1-4.7,1.4-1.8-1.5-2.5-4.1-.8-5.8,3.1-3.2,2.1-6.6,1-10-1-3.1-1.5-6.1-1.4-9.3-.3-6,.7-12-.7-18-.5-2-1.1-3.8-2.4-5.3-1.8-2.9.9-4.6,1.8-6.9Z"/>
  <path class="cls-21" d="M79.1,7.1c-8.5-2-17.2-1.2-25.6-.5-12.3,1-24.4-1.3-36.6-.3-1.6.1-3.1.6-4.6.8-.5-.9.2-1.2.9-1.6.3-.3.7-.6,1-.9,1.4-1.2,3.1-.6,4.6-.6,20.4,0,40.7,0,61.1,0,1.8.4,3.6.8,5.4,1.3.3,0,.6.1.9.2.5.5.5,1.1.3,1.8-2.5,3.1-4.8,1-7.2-.2Z"/>
  <path class="cls-138" d="M7.1,9.7c1.3,2.6-2.8,3.5-1.8,6,0,.3,0,.5,0,.8-1,10.5-.4,20.9-.4,31.4,0,10.6-.3,21.2,0,31.9,1.6,2.9.7,6.9,3.9,9.1.8.5,1.5,1.1,2.3,1.7,1.2,1.3,3.1,1,4.5,1.8-.1,1.5,1.5,1.3,2.1,2.1,0,.4,0,.8-.3,1.1-.6.3-1.2.1-1.8.2-1.8-.3-3.7-.6-5.1-2-3.6-2.5-6.3-5.6-7.6-9.8-1-.7-.6-1.8-.6-2.8,0-21.2,0-42.3,0-63.5,0-.7,0-1.4.4-2.1.3-.6.6-1.1.9-1.7,1.1-1.5,1.4-3.6,3.5-4.3Z"/>
  <path class="cls-119" d="M80.8,4.6c-22.2,0-44.5,0-66.7,0,.9-1.4,2.3-1,3.5-1,20.6,0,41.1,0,61.7,0,1.1,0,2.3-.2,3.3.7-.5.6-1.1.5-1.8.3Z"/>
  <path class="cls-50" d="M89.5,7.1c1.7,0,2.6,1.3,3.5,2.6-.5,1.2-.4,2.7-1.1,3.9-2.3.5-3.7-1.2-5.1-2.5-2-1.7-1.3-3.2.8-4.3.7-.2,1.4,0,1.9.4Z"/>
  <path class="cls-54" d="M92.1,13.1c-.4-1.4-.3-2.6.9-3.5,1.2.6,2,1.6,2.7,2.7.2.6.4,1.1.6,1.7-.4.5-1,.4-1.5.2-.8-.5-1.9-.4-2.6-1.1Z"/>
  <path class="cls-73" d="M89.5,7.1c-.6,0-1.2,0-1.7,0-.6.5-1.2.5-1.7,0,0-.5,0-1.1,0-1.6,1.6-.4,2.8.1,3.5,1.6Z"/>
  <path class="cls-73" d="M13.1,5.5c-.3.5-.6,1-.9,1.6-1.1,1.1-1.3-.2-1.7-.7.8-.4,1.5-1.3,2.6-.9Z"/>
  <path class="cls-73" d="M80.8,4.6c.6,0,1.2-.2,1.8-.3.9.2,2-.1,2.5.9-1.4-.1-3,.5-4.3-.7Z"/>
  <path class="cls-56" d="M94.7,14c.5,0,1,0,1.5,0,.1.9.2,1.7.4,2.6,1.6,1.1,1.1,2.8,1.1,4.4,0,19.6,0,39.2,0,58.9,0,1.5.5,3.2-1.1,4.4-.9,2-1.7,4.1-2.6,6.1-1.2,1.1-2.5,2.2-3.7,3.3-2.2.7-4.5,1.3-6.7,2-5.5.6-11,.2-16.4.3-15.2,0-30.3,0-45.5,0-1.4,0-2.9.6-4.1-.6,0-.2,0-.5,0-.7.6-.7,1.4-1,2.2-1.1,18.3-.3,36.6,0,54.9-.1,2.4,0,4.7.2,7.1-.2,2.6-1.1,5.7-1.2,8-3.3.4-.4.9-.9,1.3-1.3,2.9-3.7,4.4-7.9,4.3-12.7,0-2.8.3-5.6-.6-8.3-.1-.5-.2-1-.2-1.5-.2-8.8,0-17.5,0-26.3,0-6.5,0-13.1.1-19.6,0-1.9-.6-3.7-.1-5.6.1-.2.3-.3.4-.5Z"/>
  <path class="cls-30" d="M96.6,84.2c.8-1.6.9-3.3.9-5,0-19.2,0-38.4,0-57.6,0-1.7,0-3.4-.8-5,2.1.4,1.6,2.1,1.6,3.4,0,20.2,0,40.5,0,60.7,0,1.3.5,3-1.6,3.4Z"/>
  <path class="cls-42" d="M2.7,15.7c0,21.8,0,43.6,0,65.4,0,1,.2,2,.3,3-.4-.3-.8-.5-1.1-.8,0-9.8,0-19.6,0-29.4,0-12.1,0-24.2,0-36.3,0-1-.2-1.7,1-1.8Z"/>
  <path class="cls-61" d="M17.5,95.3c20,0,40,.1,60,.2,2,0,4,0,6,.1-1.2,1.3-2.7.7-4.1.7-20.1,0-40.1.1-60.2.1-.9.6-1.8.6-2.7-.1h-.3c0,0-.4,0-.4,0-.3,0-.5-.2-.4-.4,0-.2.1-.3.2-.3.6,0,1.2-.1,1.8-.2Z"/>
  <path class="cls-13" d="M78.2,98c-19.4,0-38.7,0-58.1,0-.3-.2-.4-.4-.3-.6,0-.2.2-.3.3-.3,17.9,0,35.7,0,53.6,0,1.5,0,3.2-.6,4.5.8Z"/>
  <path class="cls-111" d="M20.1,97.2c0,.3,0,.6,0,.9-1.4,0-2.9,0-4.3,0,.3-.6.5-1.1.8-1.7.9,0,1.8,0,2.7.1.3.2.5.5.8.7Z"/>
  <path class="cls-111" d="M15.7,95.5c0,.2.1.5.2.7-1.5.8-3-1.5-4.5,0-1-.6-.8-1.5-.9-2.4,1.7.5,3.4,1.1,5.2,1.6Z"/>
  <path class="cls-107" d="M19.2,94.6c-.6,0-1.2,0-1.7,0-1.1,0-2.7.4-1.7-1.7-1.1-1.3-3.4-.7-3.9-2.8,0-4.6-2.3.6-3.1-.7-3.1.6-2.7-2.2-3.3-3.7-.5-1.2-.3-2.8-1-4.1-.4-5.2-.6-10.3.5-15.6.8-3.8,1.9-8.2-.3-12.2-.4-.8-.6-1.6-.6-2.5.7-8.1,0-16.1.2-24.2,3.7,1.4,3.4,4.9,4,7.8.4,1.7-.3,3.7,1.5,5.1-.8,4.7,1.4,8.9,2.5,13.2.6,2.4.5,3.7-1.3,5.1-1.8,1.4-2.4,3-1.3,5.2,1,2,2.5,2,3,.4,1-2.8,3.2-2.4,5.1-3.4,3.1-1.6,3.2,1.2,4.6,1.9.3.2.8,0,1.3.1,2.1,2.4-1.5,4.1-.8,6.3.1,1.2.2,2.4,0,3.6,0,.4-.1.8-.2,1.1,0,.5-.8,1.1-.4,1.4.9.6,1.8-.1,2.7-.2,1.2-.3,2.4-.3,3.5.1.6.3,1.1.7,1.7,1.1.5.3,1,.7,1.4.1.4-.5-.2-1-.4-1.4-.2-.3-.3-.7-.3-1.1,0-.4.1-.7.3-1,.5-.7.9-1.5,1.1-2.4,0-.4.2-.7.3-1,.3-.7.6-1.3,1-2,1.8-1.3-.3-3.7,1.4-5.1.9-.5,1.9-.6,3-.7.6,0,1.2,0,1.8,0,.6,0,1.2,0,1.8,0,.6,0,1.1.2,1.7.3.9.5,1.8,0,2.7,0,1.3.1,2.2,1,2.9,2,2.9,2,2.4,5.3,3.4,8.1,2.7,1.1,5.4.9,8.1.2.4-.4.7-.9,1.1-1.3,1.3-1.2,2.3-.7,3.1.6.5.8.7,2,2.1,1.7.6,0,1.2.2,1.6.6,1.5,1.7,7.6,2.4,9.2,1.1,1.4-1.1.1-1.7-.5-2.4-1.6-1.8-2-4-1.1-6,1.5-3.5,1.9-7,1.2-10.7.9-.8,2.1-1.7,3.1-1.3,4.4,1.7,4.3-1.5,4.8-4.1.4-1.7-.3-4.6,3.2-3.1.3.4.4.8.5,1.2-.8,6.1.5,12.3.2,18.4.1,1.8-.6,3.7,1,5.4,1.6-1.9.5-3.8.2-5.6-.4-4.1-.4-8.1,0-12.2.9-2.2.2-4.8,2-6.8,2.1,1,1.3,2.7,1.5,4,.2-2.8-.4-5.7-.6-8.6-.1-1.8-.5-3.9,2.4-4,0,9.2,0,18.5,0,27.7-1.4.4-1.3-1-1.9-1.6,1.4,2.1-1.4,5.5,2.2,6.9.4,1.4-.3,2.9.6,4.2-.2,4.9-1.4,9.5-5.2,13-1.2-1.3-1-2.6.1-3.8-1.7,1.7-4.3,2.5-5.2,5-1.5.7-3.6.7-3.6,3.1-2.1,1.7-4.6.5-6.9.9-2.6-2.4-5.8-1.7-8.7-1.5-12.3.9-24.5,0-36.8.3-3.7,0-7.5-1.5-10.9,1.2Z"/>
  <path class="cls-121" d="M95.5,39.1c-1.6.8-1.7,1.9-1.3,3.6,1,4.6.4,9.3.4,15-2.7-3.3-.8-6.5-2-9.1-1.2,1.6.4,3.9-1.4,5.2-1.8.9-2.3-.2-2.5-1.6-.2-1.5-.1-3.1-1-4.5v-.9c-1.6-5.3-3.9-10.5-1.8-16.2.8-2.3,0-4.4-1.5-6-2.1-2.3-3.3-4.6-2.8-7.8.2-1,0-2.1-1-2.6-1.1-.5-1.9.4-2.6,1-1.7,1.5-3.5,2.5-5.7,3-2.6.5-5.2.3-7.8.3-1.5-.2-3-.4-3.7-2-2.3-1.8-5-.7-7.5-.8-5.6-.4-11.2.5-16.7-.5-.8-.2-2.3-.1-2.2-1.5.1-1.2,1.3-1.4,2.3-1.4,3.7,0,7.3-1.4,11.1-.9,1.4-1.4,3.2-1.2,4.9-1.2,5.9,0,11.8-.4,17.6.9,3.3.7,6.2,0,8.8-2.2,0-.6,0-1.2,0-1.7,2.3-.7,4.6,1.7,6.9,0,.6,0,1.2,0,1.7,0-.6.9-2.6,1.8-.7,3,1.7,1,2.7,3,5,3.1.9.3,2.4-1.4,2.6.9,0,0,0,0,0,0-.5,1.6-1.6,3.3.9,4.3,0,6.9,0,13.9,0,20.8Z"/>
  <path class="cls-105" d="M47,31.3c1.9-3.2,5.3-3.8,6.8-.8,1.9,3.7,6.2,2,8.4,4.6.4.5,1.3,0,.6-1-1.2-1.9.6-1.5,1.5-1.8,1.3.4.6,3.1,2.8,2.5,1.4,1.8,2.8,3.5.7,5.7-.6.7-.8,1.7-1.2,2.5-1.7,2-.6,5.5-3.9,6.5-.6,0-1.2-.2-1.7,0-.8.3,0,.3.2.4,2.2,1.2,1.8,2.6.4,4.1-1.9,1.9-3,.5-4-1-.3-.5-.9-.7-1.3-1.1-.5-.4-.8-.9-1.1-1.4-.7-3.6.2-6.5,3.4-8.7-3.2,1.6-5.7.5-6.2-2.6-.5-3.3-2.3-5.1-4.7-6.8-.3-.3-.5-.6-.7-1Z"/>
  <path class="cls-172" d="M65.1,27.9c-1.9,0-3.7.1-3.4-2.6-1.1-2-2.3-4.1,1.3-4.7,4,.2,8,0,12,.8,6,1.2,9.3,5.1,8.4,11.2-.5,3.3-.4,6.6-1.2,9.8-1.1,4.3-2,4.6-5.6,1.7-.5-.5-.7-1.1-.6-1.8,1-4.6,3.1-9.3-.3-13.9-.4,0-.7,0-1.1-.2-.3-.2-.7-.4-1-.6-1.8-.8-3.6-.5-5.5-.3-.3,0-.7.2-1,.3-.7.2-1.3.4-2,.3Z"/>
  <path class="cls-21" d="M79.1,8.8c-.6,3.9-3.9,4.1-6.3,3.6-8.3-1.5-16.6-.9-24.9-1-4.5-1.7-9.1-1-13.6-.5-3.8.5-7.6.9-11.5,0,13.1-4,26.5-1.4,39.8-2.2,3.9,1.9,8.1.3,12.1.9l4.3-.9Z"/>
  <path class="cls-58" d="M9.7,40c-1.8.1-2.8-.6-2.6-2.5.5-3.8-1.1-7.2-2.6-10.5-.3-3.8-.6-7.6.9-11.3,0,0,0,0,0,0,5.1,2.3,4,7.5,4.4,11.4.5,4.1.1,8.6,0,12.9Z"/>
  <path class="cls-38" d="M29.6,39.1c-1.4-2.1-.4-7.1,2.5-8.1,1.9-.6,1.4-2.2,2.5-2.9.4,1.1.7,2.1,1,3.1,0,.6,0,1.1-.2,1.7,0,.4-.2.8-.3,1.1-.4,1.8.2,3.8-1.2,5.3-.8.5-1.7.7-2.6.6-.7,0-1.3-.4-1.8-.9Z"/>
  <path class="cls-45" d="M29.6,39.1c.6,0,1.2,0,1.8,0,.8.8,1,1.9,1,2.9,0,.8,0,1.6,0,2.5,0,.4,0,.8,0,1.2,0,.4,0,.8-.2,1.2-.2.7-.5,1.4-.9,2.1-.2.3-.4.6-.7.9-.4.3-.8.7-1.2,1-.9,1.8.7,3.6-.2,5.4-.2.3-.5.6-.8.8-.7.4-1.5.4-2.3.3-.3-.6-.5-1.2-.8-1.8-1.8-1.5-1.2-2.9,0-4.3.7-.4.9-1,.9-1.7-.5-1,.2-1.3.9-1.7.3,0,.6,0,.9,0,.6-.6.7-1.6,1.7-1.7,1.4-1.2.6-2.9.8-4.3-1.1-.6-1.7-1.4-.9-2.6h0Z"/>
  <path class="cls-140" d="M26,57.3c.5-.8,1.2-.9,2-.8.6.7.8,1.4.8,2.3,0,.6-.2,1.2-.4,1.8-.5,1-1.5,1.6-1.9,2.7,0,.7.6.6,1,.6.4.1.6.3.8.6.3.7.3,1.5,0,2.2-.6,1.2-1.3,2.4-1.3,3.9-.1.6-.3,1.2-.7,1.8-1,1.1-2.1,1.5-3.6.8-.8-1.6.3-3.3-.5-4.9,1-1.8,1.5-3.8,2-5.8-.2-2,.9-3.5,1.6-5.2Z"/>
  <path class="cls-72" d="M62.6,20.9c-2.5,1-.4,2.9-.9,4.3-2.9-1-2.1-6-6.4-5.8-.5,0,.3-1.9,1.3-1.7,1.8.5,3,.1,4.1-1.2,1.1.6,2.2,1,3.5.9.4,1.4-.7,2.1-1.2,3.1-.2.1-.3.2-.5.3Z"/>
  <path class="cls-22" d="M27,47.8c-.3.6-.6,1.1-.9,1.7-1.4-.9-3-.7-4.5-1-1.8-.3-1.9-1.7-.9-2.8,1.2-1.5,5.8,0,6.4,2.1Z"/>
  <path class="cls-121" d="M74.7,9.7c-4.1.6-8.3,2.4-12.1-.9,4,.4,8.2-1,12.1.9Z"/>
  <path class="cls-57" d="M19.7,7.6c-.1.5,0,.7-.2.7-1.5,1.4-3,2.7-5.3,2-.6-.2-1-.7-.4-1.3,1.6-1.4,3.3-2.8,5.9-1.5Z"/>
  <path class="cls-38" d="M29.6,39.1c.3.9.6,1.7.9,2.6-1,.4-1.1,2.2-2.7,1.5,1.6-1.7-1.4-2.1-1-3.4.5-1.8,1.9-.5,2.8-.7Z"/>
  <path class="cls-129" d="M34.9,32.3c.3-.3.5-.7.8-1,.9,0,1.7,0,2.6,0,2.3-1,4.6-.7,6.9,0,.6,0,1.2,0,1.7,0,.3,0,.5,0,.8,0,.4.4.4.8,0,1.2-1.4,1-3.1.7-4.7.8-.7,0-1.3,0-2,0-.9,0-1.7,0-2.6,0-.4,0-.9,0-1.3,0-.9,0-1.7-.3-2.3-.9Z"/>
  <path class="cls-22" d="M25.3,51.2c.3,1.4-.9,2.9,0,4.3-1.7-.2-2.4-1.4-2.2-2.9.1-.8.7-2.2,2.2-1.5Z"/>
  <path class="cls-38" d="M45.2,31.3c-2.3,0-4.6,0-6.9,0,2.3-2.2,4.6-1.7,6.9,0Z"/>
  <path class="cls-45" d="M24.4,62.5c0,2.2,0,4.4-1.8,6-.2.3-.4.4-.7.1-.9-2.5,2.6-3.7,1.7-6.1.3,0,.6,0,.9,0Z"/>
  <path class="cls-168" d="M65.1,27.9c.4-.7,1.1-.8,1.9-.8.3.3.5.6.6.9.2,1,.2,1.9-.1,2.8-.2.4-.5.6-.8.8-.2,0-.4,0-.6,0-.2,0-.3-.2-.5-.3-.7-.8-1.2-1.6-.4-2.6,0-.3,0-.6,0-.9Z"/>
  <path class="cls-168" d="M66.9,34.8c-2.3.5-2-1.5-2.6-2.6,0-.3,0-.6,0-.9.5-.5,1.1-.5,1.6,0l.3.2c.5.5.8,1.2.9,1.9,0,.3,0,.7,0,1.1-.1.1-.2.3-.3.4Z"/>
  <path class="cls-105" d="M66,31.3c-.5,0-1.1,0-1.6,0-1.4-1.4-1-2.2.8-2.6.3.8.5,1.7.8,2.5Z"/>
  <path class="cls-22" d="M29.6,46c-.3.8-.9,1.4-1.7,1.7.3-.9-.6-2.2.7-2.8.2,0,.7.7,1,1Z"/>
  <path class="cls-127" d="M5.3,15.7c.5,3.8-.7,7.5-.9,11.3-.5,4.8,1.2,9.5.5,14.5-.3,2.4.6,5.4-.5,8.1-.2.5-.3,1.4,0,1.7,3.5,3.6,2,7.8,1.9,12,0,1.9,1.5,3.7-1.4,4.8-1,.4-.5,2.1-.5,3.2,0,3.5,0,6.9,0,10.4-1.3-1.1-.8-2.7-.8-4,0-19,0-37.9,0-56.9,0-1.8-.5-3.8,1.7-4.9Z"/>
  <path class="cls-157" d="M8.8,89.4c.6-1.9,1.6-3.4,3.8-2.3,2.4,1.2.3,2.2-.3,3.1-.4.6-1,.9-1.7.9-.8-.3-1.4-.9-1.7-1.7Z"/>
  <path class="cls-103" d="M10.5,91.1c.4-.7,1-.9,1.7-.9,1.4.5,2.9,1,3.5,2.6-1.9-.2-4.1.7-5.2-1.7Z"/>
  <path class="cls-31" d="M19.2,94.6c.7-2.1,2.2-2.7,4.3-2.6,8.4.4,16.8.8,25.2.8,7.6,0,15.2-.5,22.7-.8,1.9,0,3.9,0,4.1,2.6-18.8,0-37.6,0-56.4,0Z"/>
  <path class="cls-121" d="M95.6,72c-.6.8-1.1,1.5-2.2,3v-14.2c2.4,1.9.3,4.7,2.2,6.1,0,.3,0,.6,0,.9.6,1.4.6,2.9,0,4.3Z"/>
  <path class="cls-48" d="M82.5,93.7c-.3-.9-2-1.1-1.2-2.4,1.1-1.8,3.1-.9,4.7-1.1,1.4-.9,2.9-2.6,4.3,0-1.8,3-5.2,2.4-7.8,3.5Z"/>
  <path class="cls-106" d="M90.4,90.2c-1.4-1.2-2.9-.1-4.3,0,.1-1.7-.6-3.6,2.5-3.7,1.5,0,2.9-1.9,4.5-3.1.9,2.6-2.9,3.6-1.8,6-.3.3-.6.6-.9.9Z"/>
  <path class="cls-54" d="M95.6,72c0-1.4,0-2.9,0-4.3,1.8,2.7.5,5.8.9,8.7-1.4-1.2-.6-2.9-.9-4.3Z"/>
  <path class="cls-54" d="M95.5,18.3c-5.8-.3-1.1-2.8-.9-4.3.3,1.4.6,2.9.9,4.3Z"/>
  <path class="cls-72" d="M76.5,43.4c1.7-.4,2.4,1,3.5,2.3,2-5.6,2.3-11.2,2.3-16.5,0-3-2.5-5.7-6.3-6.7-4.4-1.2-9.1.2-13.4-1.6,0,0,0,0,0,0,2.2-1.8,4.9-.9,7.4-1.1,1.7-.1,3.4.3,5.1-.6-.2-1.2-1.7-.9-2-1.8,1.8-1.1,3.6-2.2,5.1-3.7,2.6-2.5,5-1.7,4.5,1.7-.7,4.6,1.9,7.3,3.9,10.5,1.3,2,1.5,3.7.3,5.6-1.5,2.5-.9,5.2,0,7.5,1,2.7.9,5.3,1,7.9-2.4.4-1.6,2.3-1.7,3.7-.3,4.6-1.3,5.4-5.6,4.4-1.1-.2-1.8,1.6-3.1.5-2.5-2.4-1.9-5.6-2-8.6,0-1.3,0-2.6,1.2-3.5Z"/>
  <path class="cls-16" d="M56.5,51.2c.9,0,1.6.4,2.2,1.1.5.5,0,2.5,1.7,1.4.7-.4,1.5-1.2,1.5-1.9.2-1.4-1.1-1.3-2.1-1.4-.6,0-1.1,0-1.7-.1.5-3.6,2.8-1.7,4.4-1.6,2.6.7,2.1,3.9,4.2,5.1.6,2.4.6,4.9,0,7.3-.2.4-.4.7-.8,1-.4.2-.7.3-1.1.2-.4,0-.8-.1-1.2-.3.2.4.7.2.9.6,1.2,2.6,0,5.8,2.1,8.2.3,1.1.1,2.2-.7,3.1-1,1.4-.9,0-1.5-.4-1.1-.6-.5-3.4-2.8-2.2-.3-.3-.6-.6-.8-1-.6-1.7,0-3.6-.8-5.3-.2-.3-.4-.7-.5-1-1.9-1.4-2.6-3.2-2.5-5.6,0-1.5.2-3.2-.6-4.6-.2-.8-2-1.6,0-2.4Z"/>
  <path class="cls-16" d="M76.5,46.9c-.3,3,.4,5.8.9,8.7,1.4,3.1,1.8,6.1,0,9.4-2.1,3.7-1.1,7,3,8.7-2.8,4.2-7.2,2.5-10.7,3.2-1.7.3-1.9-1.8-1.9-3.3-.2-.7.2-1,.8-1.1.5.1,1,.4,1.4.7.8.6,1.5.2,2.3-.2.8-.4,1.6-.8,2-1.6.5-2.7,0-5.4.6-8.1.7-2.8.7-5.6,0-8.4-.1-.4-.2-.9-.3-1.3-.2-1.8-.2-3.6,0-5.4.1-.5.3-.9.6-1.2.4-.4.8-.4,1.2-.1Z"/>
  <path class="cls-95" d="M87.7,47.8c2.7,1.1.2,5.2,3.5,6.1v13.9c.5,1.2,1,3-.3,3.3-2.3.6-2-2.3-3.2-3.3.2-6.6-1.3-13.3,0-19.9Z"/>
  <path class="cls-112" d="M41.9,62.3c-.6,0-1.2,0-1.9,0-.4-.9-1.2-1.1-2.1-1.2-.9-.3-1.5-.9-1.7-1.8,0-1.1-.2-2-.9-2.9-.1-.4-.2-.7-.1-1.1.1-.4.3-.7.6-.9,1.1-.4,2.4-.7,3.2.2,1.8,1.9,1.8-.3,2.6-.9.7-.5,1.5-.6,2.3-.5.8.2,1.5.6,2.1,1.2.5.8.2,1.5,0,2.3-.2.3-.4.6-.7.9-.4.3-1,.5-1.5.7-1,.3-1.1,1.2-1.2,2,0,.7-.3,1.4-.9,2Z"/>
  <path class="cls-20" d="M68.6,73c-.3.3-.6.5-.8.8-.6,0-1.1,0-1.7,0,0-1.1,0-2.3,0-3.4-1-2.9-1-5.8-.1-8.7,0-2.9,0-5.7,0-8.6-1.6-3.5-.8-6.9,0-10.4,0-1,0-2.1.9-2.8.2.2.3.3.5.5.4.8.5,1.7.6,2.6,0,1.1,0,2.3,0,3.4,0,1.6,0,3.2,0,4.8,0,1.4,0,2.8,0,4.1,0,.7,0,1.4,0,2,0,1.3,0,2.7,0,4,0,.9,0,1.7,0,2.6,0,.4,0,.8,0,1.2,0,1.4,0,2.7.2,4.1-.4,1.3,1,2.4.4,3.8Z"/>
  <path class="cls-116" d="M36.6,59c.3.8.9,1.4,1.7,1.8.4.5.5.9.1,1.5-1.2.1-2.4.2-3.6.4-.3.2-.6.4-.9.4-.3,0-.7-.2-.9-.4-.4-.7-1.1-1.2-1.8-1.7-.6-.5-1-1.1-.9-1.8.2-.3.5-.6.8-.8,1-.4,1.9-1,3-1.5.4,0,.8,0,1.1,0,.7.5,2,.6,1.4,2Z"/>
  <path class="cls-121" d="M87.7,67.7c2-.1,1.4,2.1,2.9,2.9.9-.8.5-1.9.6-2.9,1.9,2.1.4,4-.2,6-.2.6-.9.8-1.4.3-2-1.7-1.9-4-1.9-6.4Z"/>
  <path class="cls-82" d="M31.3,73.7c.4,1.2,2.7.7,2.5,2.4-.1,1.2-1.3,1.5-2.1,1.7-2,.6-2.2-1.2-2.9-2.4-.2-.8-.7-1.8.5-2.3.8-.2,1.4,0,2,.5Z"/>
  <path class="cls-32" d="M61.6,70.5c0,.3,0,.5.1.7,0,.5,0,1.1,0,1.6-1.3.3-2.6.7-3.9-.1-.5-.9-.6-2-.5-3,0-.6.2-1.3.5-1.8.2-.4.6-.6.9-.9.8-.4,1.6-.7,2.4,0,.5,1.1-.2,2.5.6,3.6Z"/>
  <path class="cls-169" d="M47.9,64.1c-.5-1.2-1.5-1.6-2.6-1.8-.9-2.6,1.3-2.9,2.7-3.8.7-.1,1.4,0,1.9.5,1,1.9.9,3.6-.7,5.2-.5.3-.9.3-1.3-.1Z"/>
  <path class="cls-141" d="M47.8,59.1c-.3,1.5-2.6,1.5-2.6,3.3-.6,0-1.1,1.3-1.8.2-.8-.7-.9-1.7-1.1-2.6,0-1,.4-1.9,1.2-2.6.5,0,1.1,0,1.6,0,.7.2,1.3.6,1.9,1,.3.2.5.5.7.8Z"/>
  <path class="cls-14" d="M24.4,75.5c-1.4,1.2-3,1.5-4.1,0-1-1.4,1.4-.9,1.5-1.9,1.9-.2,3.8-.8,5.7-.2.5,3.1-2.6.7-3.2,2.1Z"/>
  <path class="cls-85" d="M58.3,72.9c1.1,0,2.3,0,3.4,0-3.4,1.7-6.9,1.4-10.4.2,0-.2.1-.4.2-.6.8-1.1,1.9-1.2,3.2-1,.7.2,1.5.4,2.2.6.6.1,1,.5,1.4.8Z"/>
  <path class="cls-173" d="M27.9,73.8c-2,0-4-.1-6-.2,0-.2,0-.5,0-.7.3-.4.5-.4.8,0,1.3.1,2.4-.3,3.5-.9,1-.9,2.2-.5,3.4-.6.8.2,1.5.5,1.7,1.4,0,.3,0,.5,0,.8-.8,0-1.7.1-2.5.2-.3.3-.6.3-.9,0Z"/>
  <path class="cls-152" d="M47.9,64.1c.3,0,.5.1.8.2,1-.1,1.9,0,2.7.5.7.6,1.4,1.3,1.9,2.1,0,.4,0,.8,0,1.1-.8,1.5-1,3.2-1.9,4.7,0,0-.2.3-.2.3-1.5-2.8-.3-6.7-3.4-8.8Z"/>
  <path class="cls-144" d="M31.2,72.9c-.5-.3-1-.6-1.5-.9-.6-.4-.8-1-.7-1.7,0-.4.3-.8.6-1.2.6-.4,1.2-.5,1.9-.5.7,0,1.3.3,1.7.9,0,.3,0,.5,0,.8-.8.7-.9,1.9-1.6,2.6h-.2Z"/>
  <path class="cls-4" d="M22.7,72.9h-.4s-.4,0-.4,0c0-1.4,0-2.8,0-4.3.2,0,.5-.1.7-.1,1.7,1.4.7,2.9.1,4.4Z"/>
  <path class="cls-97" d="M34,62.5c.3,0,.6,0,.8,0-.2,1.7,1.9,3.8-.8,5.1-.3.3-.7.4-1.1,0-.5-1.2,0-2.5,0-3.7.1-.6.5-1.1,1-1.6Z"/>
  <path class="cls-170" d="M27.9,73.8c.3,0,.6,0,.9,0,0,.6.9,1.1,0,1.7-1.4,0-2.9,0-4.3,0,.7-1.4,2.7-.3,3.5-1.7Z"/>
  <path class="cls-113" d="M38.4,62.3c0-.5,0-1-.1-1.5.5-.7,1.1-.8,1.7-.2.7.6.3,1.2,0,1.8-.5,0-1.1,0-1.6-.1Z"/>
  <path class="cls-98" d="M33.6,67.3c.1.1.3.3.4.4-.3.6-.6,1.2-.9,1.8-.6,0-1.1-.2-1.7-.2-.7-2.3.6-2.3,2.2-2Z"/>
  <path class="cls-47" d="M31.5,72.9c-.1-1.3-.1-2.5,1.6-2.6,0,1.2.1,2.5-1.6,2.6Z"/>
  <path class="cls-136" d="M42.2,59.8c1.3.5,1.3,1.6,1.3,2.7-.5,0-1.1-.1-1.6-.2.1-.8.3-1.7.4-2.5h0Z"/>
  <path class="cls-41" d="M73,17.5c1.6.5,4.5-1.2,4.6,1.2,0,2.3-2.7,2.3-4.8,2.3-3.4,0-6.8,0-10.2,0-.4-1.6.8-2.5,1.7-3.5,2.9,0,5.8,0,8.7,0Z"/>
  <path class="cls-16" d="M47.7,32.4c0-.3,0-.7.1-1,2.5,1.7,5.5,2.6,5.3,6.9-.1,3.3,2,3.7,7.2,1.2-1.4,4.2-5.8,6.5-4.6,10.9-3.5-1-1-4.4-2.6-6.2-.6-.5-1.4-.8-2-1.3-.8-1-.9-2.2-1.3-3.3-.1-.4-.2-.7-.3-1.1-.1-1.3-1.1-1.9-2-2.6-.4-.5-.5-1.1-.5-1.7,0-.6.2-1.2.6-1.7Z"/>
  <path class="cls-168" d="M67,39.8c2.6-1.7-.3-3.3,0-4.9,0,0,.1-.1.1-.1,1-.8,1.8-.3,2.7.3.7.6,1.3,1.3,2.3.6,1.2-.5,2.2-1.4,3.7-1,1.4,1.5.1,3.3.4,5-.1.4-.4.7-.7.9-.7.4-1.5.5-2.2.7-1.6.5-3.2.2-4.7-.2-.6-.2-1.1-.5-1.5-1v-.2Z"/>
  <path class="cls-53" d="M66,42.6c0,3.5,0,6.9,0,10.4-2.6-.3-2-3.1-3.4-4.4,2.3-1.4,1.4-4.6,3.4-6.1Z"/>
  <path class="cls-44" d="M53.8,42.7c2.5,2.1-.3,5.5,1.9,7.7.3.3.6.6.9.9-.9,1.2,1,.9.9,1.7-.1.2-.2.3-.3.5-.8.6-1.5,1.2-2.5,1.5-1.1,0-1.7-.7-2.1-1.7-.1-1.1.1-2.2-.1-3.3,0-1.1.3-2.2.4-3.4,0-.8,0-1.6.2-2.3.1-.6.4-1.1.8-1.6Z"/>
  <path class="cls-72" d="M75.7,39.9c-.9-1.7,0-3.5-.1-5.2-.3-.3-.5-.6-.7-1-.6-2-.9-4,.7-5.7,3.5,3.5,3.3,3.5,3,7.6,0,1.4-2.5,2.9.2,4.7.9.6-1.2,1.3-2.3,1.4-.7-.4-.9-1-.8-1.8Z"/>
  <path class="cls-28" d="M75.4,33.9c0,.3,0,.6.1.8-1.1.6-2.2,1.2-3.4,1.8-.8-.6-1.8-.8-2.8-.8-.8-.3-1.6-.6-2.4-1,0-.2,0-.5,0-.7.5-.9-.6-1.8,0-2.7h0c.9-1.1,1.2-2.2.1-3.4,0-.3,0-.5,0-.8,0,0,0,0,0,0,2.6-.7,5.2-.8,7.7,0,0,.2,0,.4,0,.6-.4,1-1.3,1.3-2.2,1.4-.3,0-.7.1-.7.3,0,.2.4.3.7.5.9,1.4,1.2,3.1,2.9,3.9Z"/>
  <path class="cls-131" d="M75.4,33.9c-2.9.5-4-.5-3.3-3.4-.5-.6-.5-1.3,0-1.8.8-.3,1.7-.6,2.5-.9.3.1.5.2.8.3,0,2,0,3.9-.1,5.9Z"/>
  <path class="cls-168" d="M74.7,27.1c-2.6,0-5.2,0-7.7,0,2.6-1.5,5.2-1.6,7.7,0Z"/>
  <path class="cls-168" d="M75.7,39.9c.3.6.5,1.2.8,1.8,0,.6,0,1.2,0,1.7,0,1.2,0,2.3,0,3.5-.3,0-.5,0-.8,0-1.2-1-1.1-2.4-1.2-3.7,0-.7,0-1.3.2-2,.1-.4.4-.8.7-1.1,0,0,.2-.2.2-.2Z"/>
  <path class="cls-10" d="M31.5,42.6c0-1.2,0-2.3,0-3.5.8,0,1.6-.1,2.4-.2.4-.2.8-.2,1.2,0,.8.8,1.1,1.9,1.3,2.9,0,.7,0,1.3-.6,1.8-1.7.7-3,0-4.2-1.1Z"/>
  <path class="cls-129" d="M34.7,39.1c-.3,0-.6,0-.9-.1.4-2-.5-4.1.9-6,.6.3.8.8,1,1.4.2,1,.5,1.9.4,2.9-.2.8-.6,1.5-1.4,1.8Z"/>
  <path class="cls-161" d="M35,34.6c-.1-.5-.2-1.1-.4-1.6.1-.2.2-.4.2-.7.8,0,1.6,0,2.4,0,.8,2.3-.7,2.4-2.3,2.2Z"/>
  <path class="cls-164" d="M31.6,58.9c-.4,0-.7,0-1.1.1-.3.3-.7.3-1,0-.5-.8-.6-1.8-.8-2.7.7-2.2-2.3-4.5.1-6.6,1,.3,1.3,1.3,1.9,2,.4.6.8,1.2,1.1,1.8.3.6.6,1.3.8,1.9,0,.3.1.7.1,1.1,0,.9-.7,1.6-1.2,2.3Z"/>
  <path class="cls-148" d="M31.3,53.8c-.8-.4-.9-1.1-1-1.8-.5-.8-.5-1.5,0-2.3,0-.4.1-.7.2-1.1,1.2-.2,2.1,2.4,3.6.5,1.2-.2,1.9.3,2.1,1.5-.2,1.3.1,2.8-.5,4.1,0,.3,0,.6,0,.9-.5.5-1,.5-1.6.3-1-.6-1.3-2-2.7-2.1Z"/>
  <path class="cls-12" d="M31.5,46.1c0-.3,0-.6,0-1,1-1.2,2.4-1.2,3.9-1.2.4,0,.8-.1,1.2-.1,1.1.3,1.8.9,1.8,2.1-.4.8-1.1,1.2-1.9,1.5-.4.1-.8.2-1.2.2-1.5,0-2.8-.5-3.8-1.6Z"/>
  <path class="cls-126" d="M33.9,49.5c0,.9.3,2.2-1,2.4-2.5.3-.8-2.6-2.3-3.3.3-.6.6-1.1.9-1.7,1.1-.5,1.6.3,2.1,1.1.3.5.4,1,.3,1.5Z"/>
  <path class="cls-2" d="M35.6,44.2c-1.4,0-2.5,1.4-4,.9,0-.8,0-1.7,0-2.5,1.4.3,2.8.6,4.2.9.2.2.3.4.2.6,0,.1-.2.2-.3.2Z"/>
  <path class="cls-63" d="M33.1,48.7c-.5-.6-1.1-1.2-1.6-1.7,0-.3,0-.6,0-.9,1.4.3,2.8.6,4.2.9.2.2.2.4.2.7,0,.2,0,.4,0,.4-.3.5-.7.8-1.3,1-.5,0-1.1,0-1.5-.3Z"/>
  <path class="cls-110" d="M28.7,56.4c1.4.5,1.7,1.4.9,2.6-.5.4-1.1.6-1.5-.1,0-.8,0-1.6,0-2.3.2,0,.5-.1.7-.2Z"/>
  <path class="cls-93" d="M30.5,49.7c0,.8,0,1.5,0,2.3-2.2.4-.6-1.8-1.6-2.2.5,0,1.1,0,1.6,0Z"/>
  <path class="cls-96" d="M33.6,67.3c-1,.4-2.2.5-2.2,2-.6.1-1.1.2-1.7.3-1.1-.6-1.5-1.7-1.9-2.8,0-.9,0-1.7,0-2.6,2-2.3,3.9-2.1,5.8,0,0,1,0,2,0,3Z"/>
  <path class="cls-40" d="M33.7,64.3c-1.9-1.1-3.9-.7-5.8,0-.2,0-.5,0-.7,0-.8,0-1.3-.3-1.8-.8,0-1.7,1.4-2,2.5-2.7.2,0,.4,0,.6,0,.9.3,1.9.3,2.8.5.7.3,1.4.6,1.8,1.2.3,0,.6,0,1,0,0,.6-.2,1.2-.3,1.7Z"/>
  <path class="cls-17" d="M27.9,66.8c1.9,0,1.7,1.5,1.9,2.8,0,.2,0,.4-.1.7-1.1.6-2.3.6-3.4,0-.2-1.5.1-2.8,1.7-3.5Z"/>
  <path class="cls-115" d="M26.2,70.3c1.1-.8,2.3-.8,3.4,0,0,.6,0,1.1.1,1.7-1.2.9-2.4.1-3.5,0,0-.6,0-1.2,0-1.7Z"/>
  <path class="cls-34" d="M28.1,58.9c.5,0,1,0,1.5.1.3,0,.6,0,.9,0,.3.6.6,1.1.9,1.7-.1.1-.3.3-.4.4-1,.4-1.9.4-2.8-.3,0,0-.3,0-.3,0,0-.6.1-1.3.2-1.9Z"/>
  <path class="cls-166" d="M25.3,63.4c.8,0,1.4.2,1.8.8-.2.6-.2,1.6-1.1,1.4-1.3-.2-.8-1.4-.8-2.3Z"/>
  <path class="cls-122" d="M35,34.6c1.1-.4,2.3-.7,2.3-2.2.3,0,.7,0,1,0,.8.8,2.3.5,2.9,1.7.5,1.3.2,2.4-.7,3.3-.6.6-1.3.9-2.1,1.2-.4.1-.8.2-1.2.2-.8-.1-1.5-.5-1.7-1.4-.4-.9-1-1.7-.6-2.8Z"/>
  <path class="cls-102" d="M40,37.4c.6-1.1,1-2.3.8-3.6-.4-.5-.4-1,0-1.5.6,0,1.2,0,1.8,0,.3.3.4.6.5,1,0,1.3,0,2.5,0,3.8,0,.4,0,.7,0,1.1-.2.5-.5.9-.9,1.2-.3.2-.6.2-1,.2-.3-.1-.6-.4-.7-.7-.2-.4-.4-.9-.3-1.4Z"/>
  <path class="cls-49" d="M42.6,33.1c0-.3,0-.6,0-.8,1.7,0,3.4,0,5,.1,0,.5,0,1,0,1.6-.6,1.5-1.6,1.6-2.8.9-.8-.6-1.7-.9-2.2-1.7Z"/>
  <path class="cls-88" d="M40.8,32.3c0,.5,0,1,0,1.5-1.2.1-2.4.4-2.5-1.4.8,0,1.6,0,2.4,0Z"/>
  <path class="cls-27" d="M67,27.9c3.3,1.3,1.5,2.4-.1,3.5,0-1.2,0-2.3.1-3.5Z"/>
  <path class="cls-27" d="M66.9,31.3c.6.5,1.6.7,1.6,1.7,0,.9-.9.8-1.5,1-.8-.7-.7-1.6-.7-2.5.2,0,.4-.2.6-.2Z"/>
  <path class="cls-44" d="M57.4,53c1.3,1.1.9,2.6.8,4-.2,2.7,0,5,2.5,6.7-.5.9-1.2,1.3-2.3,1.3-1.8-.4-2-1.8-2.2-3.2,0-.5,0-1,0-1.4.2-2.4-.6-4.9,1-7.1l.2-.2Z"/>
  <path class="cls-44" d="M65.9,61.6c0,2.9,0,5.8.1,8.7-2.8-2.1-1.2-5.2-1.7-7.8,0-.5.6-.5.8-.9.2,0,.5,0,.7,0Z"/>
  <path class="cls-142" d="M59.1,64.3c.5-.2,1.1-.5,1.6-.7,0,.2,0,.5.2.7.4.9.7,1.8-.3,2.6-.5.3-1,.6-1.5.8-.9-1.1-.9-2.3,0-3.4Z"/>
  <path class="cls-91" d="M65.2,61.6c-.3.3-.6.6-.8.9-1.1,0-2.2,0-3-1.1,1.5-1.4,2.6.5,3.8.2Z"/>
  <path class="cls-44" d="M60.6,66.8c0-.9.2-1.7.3-2.6,1.5,1.9.6,4.1.7,6.2-1.1-1-.5-2.5-1-3.6Z"/>
  <path class="cls-83" d="M75.5,42.7c0,1.4.1,2.8.2,4.2,0,.3-.1.6-.2.8-.3.3-.7.3-1.1.2-1.5-1.1-3.1,0-4.6-.3-1-.2-1.6-.8-1.8-1.8-.1-1,0-2,.5-2.8,2.3-1.7,4.6-2.1,7-.3Z"/>
  <path class="cls-163" d="M68.6,73c-.4-1.1-2-1.9-.9-3.4.3-.8,1-1.1,1.7-1.4.4,0,.8,0,1.1,0,.5.2.9.6,1.4,1,.7.7,1.5,1.1,2.3,1.6.5.6,1,1.2.7,2.1-.6,1.1-1.7.6-2.6.8-.9.7-1.7.8-2.6,0-.3-.3-.6-.6-.9-.8Z"/>
  <path class="cls-80" d="M74.8,47.8c.2,0,.5,0,.7,0,0,2.1,0,4.1,0,6.2-.3.8-.8,1.2-1.7,1.1-.7-.1-1.5-.3-2.1-.6-.3-.2-.6-.5-.8-.8-.3-.8-.3-1.5-.1-2.3.4-1.1,1-2.1,1.9-2.9.7-.5,1.4-.7,2.2-.6Z"/>
  <path class="cls-18" d="M74.8,72.9c-.3-.6-.7-1.2-1-1.9-.6-.6-.8-1.4-.8-2.3.5-1.8-.2-3.6,0-5.4.1-.4.3-.8.6-1.1.6-.3,1.2-.4,1.9,0,.4.4.4.7,0,1.1-.6,3.2.9,6.5-.9,9.6Z"/>
  <path class="cls-168" d="M75.7,63.4c0-.3-.1-.6-.2-.9-.9-1-1-2.3-1.1-3.6,0-1.5,0-3.1,1.3-4.2,1.2,2.9,1.2,5.8,0,8.7Z"/>
  <path class="cls-75" d="M75.7,54.7c0,1.4-.2,2.8-.3,4.2-2.8-.6-2.8-2.2-1.5-4.2.5-.3,1-.5,1.6-.8.1.2.2.5.3.8Z"/>
  <path class="cls-162" d="M69.5,73.8c.9,0,1.8,0,2.6,0-.8,1.4-1.7,2.8-2.6,0Z"/>
  <path class="cls-160" d="M47.8,59.1c-.2,0-.5,0-.7,0-.8-.6-1.2-1.6-1.7-2.4.3-.6.5-1.2.8-1.8-.4-.2-.5-.5-.4-1,.7-1,1.7-1.6,2.7-2.2.4-.1.8-.2,1.2-.2.6,0,1.1.3,1.6.7.3.3.5.6.7.9.4,1.6,1.8,1.7,2.9,2.3.1.3.2.7,0,1.1-1.1.9-2.6,1.2-3.1,2.8-.9,1.1-1.6.8-2.3-.2-.6,0-1.2,0-1.8,0Z"/>
  <path class="cls-145" d="M44.4,54c-.9,0-1.8.1-2.6.2-.1-.1-.2-.3-.4-.4-.5-1.5-2.2-1.4-3.2-2.3-.9-1.8,1.1-3,.9-4.6.3-.3.6-.4,1-.5,2,.5,2.6-1.9,4.2-2,.6.4.9,1,1.1,1.7,0,2.7,1,5.6-1,8Z"/>
  <path class="cls-77" d="M35.7,54.7c-.5-1.2-1.6-2.4,0-3.5.3-.2.7-.3,1-.1.3.2.6.5.8.8,1.2,1.1,3.1.6,4.2,1.9,0,0,0,.4,0,.4.1,1.5-.4,2.7-1.9,4.1-.3-2.8-2-3.5-4.1-3.5Z"/>
  <path class="cls-33" d="M44.4,54c0-3,0-5.9,0-8.9.4,0,.7,0,1,.2.7.7,1,1.5,1,2.4,0,.7-.2,1.4-.3,2.1,0,.7,0,1.4,0,2,0,.7,0,1.4-.2,2,0,.3.1.7.2,1-.6-.3-1.2-.6-1.8-.9Z"/>
  <path class="cls-164" d="M36.6,59c-.6-.6-1.2-1.2-1.8-1.8-.1-.7,0-1.1.9-.9,1.7.4,2.4,1.1.9,2.7Z"/>
  <path class="cls-8" d="M35.7,56.4c-.3.3-.6.6-.9.9-.3,0-.6,0-.9.1-.9.3-1.2-.3-1.6-.9,0-.2,0-.5,0-.7.5-.6,1-.7,1.6-.2.6,0,1.2,0,1.8,0,0,.3,0,.5,0,.8Z"/>
  <path class="cls-5" d="M45.4,56.6c1.2.3,1.6,1.3,1.7,2.4-1.3,0-1.8-.6-1.9-1.8,0-.2.1-.4.2-.7Z"/>
  <path class="cls-149" d="M42.2,59.8s0,0,0,0c-.4-1.3-.6-2.4,1.3-2.5.1,1.1-.7,1.8-1.3,2.5Z"/>
  <path class="cls-155" d="M73.8,62.6c0,.2,0,.5,0,.7-.7.8-1.4,1.4-2.5,1.4-1.5-.3-3.2.6-4.5-.8,0-.6,0-1.2,0-1.8.8-1.3.3-2.9,1.1-4.1,2.8-1.8,2.1,1.1,2.8,2.1.1,1,.7,1.5,1.6,1.7.5.2,1,.4,1.3.9Z"/>
  <path class="cls-75" d="M70.2,60.7c-.8-.7,0-2.3-1.6-2.5-.9.5-1.2-.3-1.7-.8,0-.6,0-1.2,0-1.8.3-.3.7-.6,1.2-.7,1.2-.3,2.3-.2,3.4.5,1.5,1.8,2.2,3.7,0,5.6-.5.2-.9.1-1.3-.2Z"/>
  <path class="cls-9" d="M68.5,46.1c.5.7,1.1.8,1.9.8.6.8,0,1.3-.3,1.9-.2.3-.4.6-.7.8-.1.1-.2.3-.3.4-.6.5-.9,1.6-2.1,1.1,0-1.7-.5-3.5.1-5.2.5-.5,1-.5,1.4,0Z"/>
  <path class="cls-125" d="M67,51.2c.5-.6,1-1.1,1.5-1.7,1.4.6,1.4,1.9,1.5,3.2-.2,1.3-1.3,2-2.2,2.8-.3,0-.5,0-.8,0,0-1.5,0-2.9,0-4.4Z"/>
  <path class="cls-165" d="M66.9,63.9c1.5,0,3-.9,4.5.2.4.5.5,1,.3,1.6-1.1,1.3-2.4.8-3.7.6-.5-.3-.7-.9-1.1-1.2v-1.2Z"/>
  <path class="cls-118" d="M66.8,65.1c.4.3.7.7,1.1,1,1.2.4,1.7,1.3,1.7,2.5-.4.8-1.2.8-1.9,1-1.6-1.2-.5-3-.9-4.5Z"/>
  <path class="cls-132" d="M68.5,46.1c-.5,0-.9,0-1.4,0,0-1.1,0-2.3,0-3.4.2-.3.5-.5.9-.5.6.2.9.5.8,1.1l-.2,2.8Z"/>
  <path class="cls-60" d="M67,57.3c.6.3,1.1.6,1.7.8-.6,1.3-1.2,2.6-1.8,3.9,0-1.6,0-3.1.1-4.7Z"/>
  <path class="cls-36" d="M67.8,42.6c-.3,0-.5,0-.8,0,0-.9,0-1.8-.1-2.7.6,0,1.2,0,1.8,0,.8,1.2.2,2-.9,2.6Z"/>
  <path class="cls-46" d="M32.2,56.5c.5.3,1.1.6,1.6.9-.4,1-1.1,1.7-2.3,1.5.2-.8.4-1.6.7-2.4Z"/>
  <path class="cls-139" d="M33.1,62.5c-.7,0-1.4-.2-1.7-.9-.3-.1-.4-.3-.3-.4.1-.1.2-.2.3-.2,0,0,0-.2,0-.2,1,.1,2.9-.6,1.7,1.7Z"/>
  <path class="cls-151" d="M59.1,64.3c0,1.1,0,2.3,0,3.4-.3,0-.6,0-.8,0-.2.2-.4.4-.6.7-.3.4-.5.8-.9,1.2-.3.2-.6.4-.9.5-.6.1-1.1,0-1.7-.1-.8-.5-1.7-1.1-1.2-2.3,0-.3,0-.6,0-.8-.5-.9-.6-2.1-1.4-2.8-.5-.7-.6-1.3.2-1.9.6-.4,1.3-.6,2.1-.8.4,0,.7,0,1.1,0,.8,0,1.5,0,2.2.4.2,1.2.3,2.5,1.9,2.7Z"/>
  <path class="cls-167" d="M58.3,72.9c-.5,0-1.1.1-1.6.2-.3-.2-.5-.5-.7-.9-.1-.4-.2-.8-.2-1.1,0-.6.3-1.1.8-1.5h0c.2-.3.5-.4.9-.5.4,0,.6.2.9.5,0,1.1,0,2.3,0,3.4Z"/>
  <path class="cls-123" d="M58.3,69.4h-.9c-.5-.6-.4-1.1,0-1.7.3,0,.6,0,.9,0,0,.6,0,1.1,0,1.7Z"/>
  <path class="cls-142" d="M54.8,61.6c-.3,0-.6,0-.9,0-.7,0-1.3.2-1.7.9-.7.4-.5.7,0,1,.2.9-.2,1.5-1.1,1.7-.9,0-1.9.1-2.5-.8,1-1.6.9-3.4.9-5.2.6,0,1.2.9,1.7,0,.7-1.3,1.9-1.9,3.4-2,1.7.7,2.5,1.9,1.6,3.7-.4.5-.9.8-1.5.9Z"/>
  <path class="cls-142" d="M53,67.6c.3.9.9,1.5,1.8,1.8.5.5.7,1.1.6,1.8-.1.4-.4.8-.7,1-1.1.2-2.1.3-3.2.5,0-1.9-.9-4,1.6-5.1Z"/>
  <path class="cls-120" d="M54.6,72.2c0-.4,0-.7.1-1.1.3-.2.6-.3.9-.2.4.3.5.9.9,1.2,0,.3,0,.6,0,.9-.8.2-1.5,0-2-.8Z"/>
  <path class="cls-90" d="M51.2,65.2c.4-.6.7-1.1,1.1-1.7,1.1.9,1.3,2.1.7,3.4-1.2.1-1.7-.6-1.8-1.6Z"/>
  <path class="cls-68" d="M45.9,47.6c-.2-.8-.5-1.5-.7-2.3,0-.2.1-.3.2-.5.5-.5,1.1-.9,1.8-1.3.8-.5,1.3-1.2,1.5-2.2.3-.9.6-1.8,1.7-2.2,1.6.7.8,2.2,1.1,3.3.6.9,1.8.9,2.5,1.7,0,.9,0,1.8,0,2.7-.9.5-1.9.2-2.8.1-1.5-.2-2.9.3-4.2,1-.4,0-.7-.1-.9-.5Z"/>
  <path class="cls-3" d="M50.3,39.2c-.3.8-.6,1.6-.8,2.4-1.3,1.1-2.4.3-3.5-.3-.9-.7-1.4-1.6-1.1-2.8.4-1,1.2-1.6,2-2.2.4-.2.8-.2,1.1,0,.9.5,1.6,1.2,2.2,2,0,.3.1.7.2,1Z"/>
  <path class="cls-1" d="M47.8,36.5c-.3,0-.5,0-.8,0-1.1.3-2.1,2.2-3.4.3-.6-1.5-.7-2.8,1.6-2.6.9,1.3,1.6.4,2.5,0,0,.6.1,1.2.2,1.8.2.2.3.4.2.5,0,.2-.2.2-.2.2Z"/>
  <path class="cls-7" d="M47.8,36.5c0-.3,0-.5,0-.8,1.9-.2,3,.4,2.2,2.6-1.3,0-2.2-.3-2.3-1.8Z"/>
  <path class="cls-66" d="M53.8,44.3c-1.3,0-2.7.3-2.5-1.7.8,0,1.6,0,2.4.1,0,.5,0,1.1,0,1.6Z"/>
  <path class="cls-147" d="M67.8,42.6c.3-.9.6-1.7.9-2.6,1.4,0,2.9,1.1,4.3,0,.6.9,1.6.6,2.4.7,0,.6,0,1.3,0,1.9-2.3-.2-4.6-.5-6.7.6-.3-.3-.6-.5-.9-.8Z"/>
  <path class="cls-89" d="M69.3,35.7c1.4-1.3,2.4-1.3,2.8.8-1.2.6-2.2.7-2.8-.8Z"/>
  <path class="cls-124" d="M75.4,40.7c-1.2.9-2.2,1.3-2.4-.7.8,0,1.6.1,2.4.2,0,.2,0,.4,0,.6Z"/>
  <path class="cls-79" d="M55.6,60.7c1.2-1.5-.5-2.3-.9-3.4-.3-.2-.4-.3-.3-.5,0-.2.2-.3.3-.3,0-.4,0-.8,0-1.1-.2-.2-.3-.4-.2-.5.1-.1.2-.2.3-.2-.1-2,1.3-1.6,2.5-1.5,0,2.6,0,5.2,0,7.7-.6.4-1.1.4-1.6-.2Z"/>
  <path class="cls-117" d="M51.4,46.3c1-.3,1.6.4,2.4.7-.2,1.1-.4,2.2-.5,3.3-.3.3-.7.4-1.2.3-.8-.4-1.3-1.1-1.5-2-.1-.9,0-1.7.8-2.3Z"/>
  <path class="cls-114" d="M54.8,54.6c0,.2-.1.5-.1.7-1.8.2-3.6.5-3.1-2.3.5-.4.9-.5,1.4,0,.6.6,1.2,1.1,1.8,1.7Z"/>
  <path class="cls-158" d="M53,53c-.5,0-.9,0-1.4,0,0,0-.3,0-.3,0-.6-1.2-1.1-2.3.9-2.6.4,0,.7,0,1.1,0,1.6,1.1,0,1.8-.3,2.7Z"/>
  <path class="cls-137" d="M72.2,28.6c0,.6,0,1.2,0,1.8-1.3.1-2.9.3-2.4-1.6.3-1.5,1.6-1.2,2.5-.2Z"/>
  <path class="cls-51" d="M37.4,38.2c.3,0,.6,0,1,0,.2,0,.4.1.5.2.3.2.5.5.7.9.3,1.2,1.5,1.6,2.3,2.4.3.9-.1,1.5-.8,2-1.5.5-3.1,0-4.5.7-.3,0-.7,0-1,0,0-.3,0-.5.1-.8,0-.6,0-1.2,0-1.7-.4-1.6.2-2.7,1.7-3.5Z"/>
  <path class="cls-24" d="M37.4,38.2c-.6,1.2-1.1,2.3-1.7,3.5-1.1-.6-1-1.7-1-2.6.3-.6.6-1.1,1-1.7.6.3,1.1.6,1.7.9Z"/>
  <path class="cls-133" d="M33.9,55.5c-.5,0-1.1.1-1.6.2-.7-.4-.9-1.1-1-1.9,2.4-1.7,2.6-.2,2.6,1.7Z"/>
  <path class="cls-11" d="M36.6,51.2h-.4s-.4,0-.4,0c-.1-1.1-.7-1.7-1.8-1.7-.3-.3-.6-.6-.8-.9.6,0,1.2-.1,1.8-.2.7-.3,1.4-.5,2.2-.4.4.2.6.4.8.8,0,1-.2,1.9-1.3,2.3Z"/>
  <path class="cls-134" d="M36.6,44.3c1-2.3,2.6-1.8,4.3-.9.3.2.5.6.5.9,0,.8-.4,1.4-1.1,1.9-.5.3-1.1.3-1.6.2-.1-.1-.3-.3-.4-.4-.2-.9-.9-1.4-1.7-1.7Z"/>
  <path class="cls-52" d="M36.6,46.8c.4-.7,1-.8,1.7-.8,0,0,.2,0,.2,0,.2.4.3.8.3,1.2,0,.9,0,1.7-1.3,1.6v-.3c-.4-.3-.7-.6-.8-1.1,0-.2,0-.3,0-.5Z"/>
  <path class="cls-70" d="M35.7,47.8c0-.3,0-.5,0-.8.3,0,.6-.1.9-.1,0,0-.1.1-.1.1.4.9,0,1-.8.8Z"/>
  <path class="cls-29" d="M35.7,47.8c.3-.3.5-.5.8-.8.7.2.9.8,1,1.5-.8,0-1.7,0-2.5,0,.3-.2.6-.5.8-.7Z"/>
  <path class="cls-128" d="M31.4,60.9c0,.2,0,.4,0,.6-1.2.6-2.6,1.6-3.2-.7,1.1,0,2.2,0,3.2,0Z"/>
  <path class="cls-6" d="M40,37.4c.3.3.6.5.8.8-.8.9-1.7.7-2.6.2,0,0,0,0,0,0,.3-.7,1-.8,1.7-.9Z"/>
  <path class="cls-81" d="M45.2,34c-1.6.4-1.4,1.4-.9,2.6-.4.7-.8,1.4-1.8.8-.8-1.5-.8-2.9,0-4.3,1,0,2-.2,2.6.9Z"/>
  <path class="cls-37" d="M41,44.4c0-.3,0-.7-.1-1,.3-.6.6-1.2.9-1.7-.7-.9-.7-1.7,0-2.6.3-.3.6-.6.8-.9.7.1,1.1.5,1.4,1.1.4,1,.4,2,.2,3.1-.3,1.1-1.2,1.6-2.1,2.1-.4.1-.8,0-1.2-.1Z"/>
  <path class="cls-67" d="M41.8,39.1c0,.9,0,1.7,0,2.6-1.5-.2-4.3,1-2.6-2.5.6-.5,1.2-.6,1.7,0,.3,0,.6,0,.9,0Z"/>
  <path class="cls-7" d="M43.5,39.1c-.3-.3-.6-.6-.9-.9,0-.3,0-.6,0-.9.6-.3,1.2-.6,1.8-.8.9.7,1.7-2,2.7-.2,0,1.1-.6,1.8-1.8,1.9-.5.5-1,.9-1.8.9Z"/>
  <path class="cls-65" d="M40.9,39.1c-.6,0-1.2,0-1.7,0-.3-.3-.6-.6-.9-.8.9,0,1.7-.1,2.6-.2,0,.3,0,.7,0,1Z"/>
  <path class="cls-39" d="M55.6,60.7c.5,0,1,.1,1.6.2.1.2,0,.4,0,.7-.8.4-1.5,1.5-2.4,0,.3-.3.6-.6.9-1Z"/>
  <path class="cls-43" d="M69.5,48.6c.3-.6.6-1.1.9-1.7,1.5.3,3.6-2.5,4.5.9-.4.7-1.1.8-1.8.8-1.2.8-2.3,1.1-3.5,0Z"/>
  <path class="cls-23" d="M73.8,68.7c0,.8,0,1.6,0,2.4-1.3.2-2.5,0-2.6-1.7-.3-.7.3-1.5-.2-2.2.1-.4.4-.6.8-.7,1.8-.2,1.7,1.3,2.1,2.3Z"/>
  <path class="cls-171" d="M71.3,66.8c0,.2,0,.5,0,.7,0,.6-.4.9-1,1-.2,0-.5,0-.7,0-.6-.8-1.1-1.7-1.7-2.5,1.1-1,2.3,0,3.4-.1.2.2.3.4.2.6,0,.2-.1.3-.2.3Z"/>
  <path class="cls-62" d="M70.2,68.6c.3-.3.7-.7,1-1,1,.6.2,1.2,0,1.8-.3-.3-.6-.5-.9-.8Z"/>
  <path class="cls-59" d="M71.3,60.7c1.4-1.7.2-3.4,0-5.1-.1-.7.3-1.3.7-1.8.7,0,1.4.1,1.8.8,0,1.6-.4,3.3,1.5,4.2,0,1.2,0,2.4,0,3.5-.6,0-1.1,0-1.7.1-.5,0-1.1,0-1.6,0-.5-.5-1-1-.9-1.8Z"/>
  <path class="cls-26" d="M72.1,53.9c0,.7,0,1.3-.7,1.8-1.2,0-2.4,0-3.6-.1,0-1.1.5-2,1.3-2.6.9-.2,1.6.3,2.3.8.2,0,.5,0,.7.1Z"/>
  <path class="cls-69" d="M71.4,53.8c-.9.1-1.6-.2-2.3-.8-.2-1.1-.4-2.3-.7-3.4,0,0,.2,0,.2,0,1.3,0,2.8-.3,2.7,1.8,0,.8,0,1.7,0,2.5Z"/>
  <path class="cls-130" d="M71.3,51.3c-.9-.6-1.8-1.2-2.7-1.8.3-.3.6-.6.9-.9,1.2,0,2.3,0,3.5,0-.6.9-1.1,1.8-1.7,2.7Z"/>
  <path class="cls-78" d="M71.3,66.8c0-.3,0-.6,0-.9,0-.6,0-1.2,0-1.8.8-.3,1.7-.5,2.5-.8-.2,1.8,1.4,3.6,0,5.4-.9-.6-1.1-2-2.6-1.9Z"/>
  <path class="cls-146" d="M45.2,52.2c0-.9,0-1.8,0-2.7,1.4-1,2.8-1.2,4.3-.2.8.9.8,1.9,0,2.8-.3,0-.6,0-.9,0-1.1.7-2.3.9-3.4,0Z"/>
  <path class="cls-86" d="M49.6,52.1c0-.9,0-1.8,0-2.7,0-.2.2-.3.3-.5.4-.4.9-.7,1.5-.3.3.6.6,1.2.8,1.8-1.1.6-.8,1.7-.9,2.6-.6-.3-1.2-.6-1.7-.9Z"/>
  <path class="cls-135" d="M54.7,56.5c0,.3,0,.5,0,.8-1.1.6-2.3,1.2-3.4,1.8-.3-2.8,1.6-2.6,3.4-2.5Z"/>
  <path class="cls-74" d="M45.2,52.2c1.1,0,2.3,0,3.4,0-.5,1.2-1.4,1.7-2.7,1.7-.7-.4-.7-1-.7-1.6Z"/>
  <path class="cls-104" d="M41.8,53.8c-1.8,0-4,1.1-5-1.6.3-.7.9-.9,1.6-.9,1.3.7,4.8-1.8,3.4,2.5Z"/>
  <path class="cls-33" d="M38.4,51.3c-.5.3-1.1.6-1.6.9,0-.3-.1-.7-.2-1,.3-.8.6-1.6.9-2.4.7-.3.9-1,.9-1.7.3-.6.6-.6.9,0,3.6,2.1-1.6,2.6-.8,4.2Z"/>
  <path class="cls-87" d="M41,44.4c.3,0,.5-.2.8-.3.6-.3,1.2-.3,1.8.2.5,3.2-1.1,3.5-3.6,2.5-.2-.2-.3-.4-.3-.5,0-.2.1-.3.2-.3.4-.5.7-1.1,1.1-1.6Z"/>
  <path class="cls-92" d="M43.5,44.3c-.6,0-1.2-.1-1.8-.2.6-.5,1.3-1,1.9-1.5.3-.3.6-.5,1-.5.4,0,.7.3,1,.6.4.8.3,1.6-.3,2.3,0,0-.2.3-.2.3-.2-.1-.4-.2-.7-.3-.3-.2-.6-.5-.9-.7Z"/>
  <path class="cls-35" d="M39.9,46c.1.3.1.5,0,.8-.3,0-.5.1-.7.2,0,0-.4,0-.4,0,0,0-.4,0-.4,0,0-.3,0-.7.1-1.1.5,0,1,0,1.4,0Z"/>
  <path class="cls-94" d="M49.5,49.5c-1.4,0-2.9,0-4.3,0,0-.7,0-1.4.7-1.9.4,0,.7.1,1.1.2,1.9-1,3-.8,2.6,1.7h0Z"/>
  <path class="cls-153" d="M71.3,60.7c.7.4.8,1.1.9,1.8-1.2,0-3.2.8-1.9-1.9.4,0,.7,0,1.1,0Z"/>
  <path class="cls-143" d="M56.5,64.5c-.2.4-.4,1-.6,1.1-.7.2-1-.4-.9-1,0-.3.4-.6.7-.8.3.2.5.5.9.8Z"/>
  <path class="cls-159" d="M52.2,62.5c-.2-.5-.7-1.1,0-1.5.7-.5,1.3,0,1.8.7-.4.7-1,.8-1.7.9Z"/>
  <path class="cls-15" d="M55.6,71.2c-.3,0-.6,0-.9,0,0-.5,0-1.1,0-1.6.6,0,1.2,0,1.7,0,0,.6,0,1.1,0,1.7-.3.3-.6.3-.9,0Z"/>
  <path class="cls-150" d="M57.3,67.7c0,.6,0,1.1,0,1.7-.3,0-.6,0-.8,0,0-.7,0-1.4.8-1.7Z"/>
  <path class="cls-99" d="M55.6,71.2c.3,0,.6,0,.9,0,0,.3,0,.6,0,.9-.3-.3-.6-.6-.9-.9Z"/>
  <path class="cls-84" d="M49.5,49.5c0-1.8-1.3-1.7-2.6-1.7.6-3,2.8-1.4,4.4-1.5,0,.8,0,1.5,0,2.3-.6.3-1.2.6-1.8.9Z"/>
  <path class="cls-100" d="M46.1,40.8c1.1.3,2.2.6,3.3.9.3,1.8-.8,2.5-2.3,2.8-1-.2-1.2-1.4-1.9-1.8h0c-.6-1-.5-1.8.9-1.8Z"/>
  <path class="cls-19" d="M45.2,42.6c1.3,0,1.8.7,1.9,1.8-.5.7-1.1.8-1.8.6,0-.8,0-1.6,0-2.5Z"/>
  <path class="cls-108" d="M46.1,40.8c-.7.4-.9,1.1-.9,1.8-.5,0-1.1,0-1.6,0,0-1.2,0-2.4-.1-3.5.4-.7,1-.9,1.8-.9.3.8.6,1.7.9,2.5Z"/>
</svg>