<?xml version="1.0" encoding="UTF-8"?>
<svg id="Layer_1" data-name="Layer 1" xmlns="http://www.w3.org/2000/svg" version="1.1" viewBox="0 0 100 100">
  <defs>
    <style>
      .cls-1 {
        fill: #9d3346;
      }

      .cls-1, .cls-2, .cls-3, .cls-4, .cls-5, .cls-6, .cls-7, .cls-8, .cls-9, .cls-10, .cls-11, .cls-12, .cls-13, .cls-14, .cls-15, .cls-16, .cls-17, .cls-18, .cls-19, .cls-20, .cls-21, .cls-22, .cls-23, .cls-24, .cls-25, .cls-26, .cls-27, .cls-28, .cls-29, .cls-30, .cls-31, .cls-32, .cls-33, .cls-34, .cls-35, .cls-36, .cls-37, .cls-38, .cls-39, .cls-40, .cls-41, .cls-42, .cls-43, .cls-44, .cls-45, .cls-46, .cls-47, .cls-48, .cls-49, .cls-50, .cls-51, .cls-52, .cls-53, .cls-54, .cls-55, .cls-56, .cls-57, .cls-58, .cls-59, .cls-60, .cls-61, .cls-62, .cls-63, .cls-64, .cls-65, .cls-66, .cls-67, .cls-68, .cls-69, .cls-70, .cls-71, .cls-72, .cls-73, .cls-74, .cls-75, .cls-76, .cls-77, .cls-78, .cls-79, .cls-80, .cls-81, .cls-82, .cls-83, .cls-84, .cls-85, .cls-86, .cls-87, .cls-88, .cls-89, .cls-90, .cls-91, .cls-92, .cls-93, .cls-94, .cls-95, .cls-96, .cls-97, .cls-98, .cls-99, .cls-100, .cls-101, .cls-102, .cls-103, .cls-104, .cls-105, .cls-106, .cls-107, .cls-108, .cls-109, .cls-110, .cls-111, .cls-112, .cls-113, .cls-114, .cls-115, .cls-116, .cls-117, .cls-118, .cls-119, .cls-120, .cls-121, .cls-122, .cls-123, .cls-124, .cls-125, .cls-126, .cls-127, .cls-128, .cls-129, .cls-130 {
        stroke-width: 0px;
      }

      .cls-2 {
        fill: #9a4255;
      }

      .cls-3 {
        fill: #b54a61;
      }

      .cls-4 {
        fill: #a43146;
      }

      .cls-5 {
        fill: #a73e51;
      }

      .cls-6 {
        fill: #9b2740;
      }

      .cls-7 {
        fill: #7a1c30;
      }

      .cls-8 {
        fill: #ab475f;
      }

      .cls-9 {
        fill: #b24a60;
      }

      .cls-10 {
        fill: #ae4c60;
      }

      .cls-11 {
        fill: #4c101e;
      }

      .cls-12 {
        fill: #97233c;
      }

      .cls-13 {
        fill: #a2455b;
      }

      .cls-14 {
        fill: #a02a41;
      }

      .cls-15 {
        fill: #cc3c67;
      }

      .cls-16 {
        fill: #962239;
      }

      .cls-17 {
        fill: #b14656;
      }

      .cls-18 {
        fill: #b85366;
      }

      .cls-19 {
        fill: #581423;
      }

      .cls-20 {
        fill: #b64d5e;
      }

      .cls-21 {
        fill: #a65364;
      }

      .cls-22 {
        fill: #5a1521;
      }

      .cls-23 {
        fill: #af3359;
      }

      .cls-24 {
        fill: #b74c63;
      }

      .cls-25 {
        fill: #a64257;
      }

      .cls-26 {
        fill: #671829;
      }

      .cls-27 {
        fill: #b74760;
      }

      .cls-28 {
        fill: #a0384f;
      }

      .cls-29 {
        fill: #97354c;
      }

      .cls-30 {
        fill: #aa4255;
      }

      .cls-31 {
        fill: #42131f;
      }

      .cls-32 {
        fill: #9d2439;
      }

      .cls-33 {
        fill: #551524;
      }

      .cls-34 {
        fill: #9b2e44;
      }

      .cls-35 {
        fill: #b54662;
      }

      .cls-36 {
        fill: #af4358;
      }

      .cls-37 {
        fill: #ab475b;
      }

      .cls-38 {
        fill: #ba4c62;
      }

      .cls-39 {
        fill: #bd3f66;
      }

      .cls-40 {
        fill: #5d1423;
      }

      .cls-41 {
        fill: #40111d;
      }

      .cls-42 {
        fill: #b2485e;
      }

      .cls-43 {
        fill: #c33761;
      }

      .cls-44 {
        fill: #cd3766;
      }

      .cls-45 {
        fill: #a9485e;
      }

      .cls-46 {
        fill: #a8455a;
      }

      .cls-47 {
        fill: #ac475c;
      }

      .cls-48 {
        fill: #96293f;
      }

      .cls-49 {
        fill: #a03149;
      }

      .cls-50 {
        fill: #b44a61;
      }

      .cls-51 {
        fill: #9e3c4f;
      }

      .cls-52 {
        fill: #5e1424;
      }

      .cls-53 {
        fill: #ab4a5e;
      }

      .cls-54 {
        fill: #4c1124;
      }

      .cls-55 {
        fill: #a3475a;
      }

      .cls-56 {
        fill: #bb4762;
      }

      .cls-57 {
        fill: #441120;
      }

      .cls-58 {
        fill: #bf446a;
      }

      .cls-59 {
        fill: #41121e;
      }

      .cls-60 {
        fill: #a2374c;
      }

      .cls-61 {
        fill: #a0243e;
      }

      .cls-62 {
        fill: #943a4b;
      }

      .cls-63 {
        fill: #aa4d5f;
      }

      .cls-64 {
        fill: #91394f;
      }

      .cls-65 {
        fill: #9f2b40;
      }

      .cls-66 {
        fill: #620e26;
      }

      .cls-67 {
        fill: #a13448;
      }

      .cls-68 {
        fill: #ab3d52;
      }

      .cls-69 {
        fill: #bb5268;
      }

      .cls-70 {
        fill: #8c293d;
      }

      .cls-71 {
        fill: #8d2739;
      }

      .cls-72 {
        fill: #651929;
      }

      .cls-73 {
        fill: #b54e64;
      }

      .cls-74 {
        fill: #bd4765;
      }

      .cls-75 {
        fill: #811232;
      }

      .cls-76 {
        fill: #a7475a;
      }

      .cls-77 {
        fill: #b54b62;
      }

      .cls-78 {
        fill: #b65264;
      }

      .cls-79 {
        fill: #76122d;
      }

      .cls-80 {
        fill: #ad4b5e;
      }

      .cls-81 {
        fill: #ba3862;
      }

      .cls-82 {
        fill: #b0485a;
      }

      .cls-83 {
        fill: #b64658;
      }

      .cls-84 {
        fill: #8a3545;
      }

      .cls-85 {
        fill: #a84761;
      }

      .cls-86 {
        fill: #a4384e;
      }

      .cls-87 {
        fill: #b24b62;
      }

      .cls-88 {
        fill: #b34a5e;
      }

      .cls-89 {
        fill: #a8485e;
      }

      .cls-90 {
        fill: #ba355e;
      }

      .cls-91 {
        fill: #b35062;
      }

      .cls-92 {
        fill: #b1445a;
      }

      .cls-93 {
        fill: #421221;
      }

      .cls-94 {
        fill: #9c2d42;
      }

      .cls-95 {
        fill: #b04559;
      }

      .cls-96 {
        fill: #ae495d;
      }

      .cls-97 {
        fill: #4a0e1e;
      }

      .cls-98 {
        fill: #af4a5c;
      }

      .cls-99 {
        fill: #b1495f;
      }

      .cls-100 {
        fill: #43131f;
      }

      .cls-101 {
        fill: #41121c;
      }

      .cls-102 {
        fill: #96283d;
      }

      .cls-103 {
        fill: #9c495d;
      }

      .cls-104 {
        fill: #a54558;
      }

      .cls-105 {
        fill: #a73455;
      }

      .cls-106 {
        fill: #ad475d;
      }

      .cls-107 {
        fill: #c55171;
      }

      .cls-108 {
        fill: #aa4158;
      }

      .cls-109 {
        fill: #9b3249;
      }

      .cls-110 {
        fill: #b7475f;
      }

      .cls-111 {
        fill: #a3405b;
      }

      .cls-112 {
        fill: #45101f;
      }

      .cls-113 {
        fill: #9d4256;
      }

      .cls-114 {
        fill: #be3e61;
      }

      .cls-115 {
        fill: #461122;
      }

      .cls-116 {
        fill: #43101f;
      }

      .cls-117 {
        fill: #41131e;
      }

      .cls-118 {
        fill: #ab455b;
      }

      .cls-119 {
        fill: #a7465b;
      }

      .cls-120 {
        fill: #b04b5d;
      }

      .cls-121 {
        fill: #932c42;
      }

      .cls-122 {
        fill: #a44257;
      }

      .cls-123 {
        fill: #c73b64;
      }

      .cls-124 {
        fill: #bf4a6d;
      }

      .cls-125 {
        fill: #952b42;
      }

      .cls-126 {
        fill: #b24b61;
      }

      .cls-127 {
        fill: #4c1521;
      }

      .cls-128 {
        fill: #ae4259;
      }

      .cls-129 {
        fill: #ac455b;
      }

      .cls-130 {
        fill: #40121e;
      }
    </style>
  </defs>
  <path class="cls-114" d="M94.8,7.2c3.9,3.2,5.1,7.6,5.2,12.2.1,20.4,0,40.7,0,61.1,0,2.7-.2,5.4-1.9,7.8-1.2-1.1-1.4-2.7-1.8-4.2-.5-18.6-.2-37.2-.2-55.8,0-6.7.3-13.4-3.5-19.5.1-1.4.9-1.9,2.2-1.7Z"/>
  <path class="cls-15" d="M.3,29.9c-.1-5.9-1.3-12,1.7-17.6.8.2,1.4.7,1.7,1.5.4,4.8.3,9.7,0,14.5-.5,10.5-.8,20.8.2,31.3.4,4.9-1,9.9-.7,15,.2,3.2,1.7,6.5.3,9.7q-2.2.7-3.3-2.8c0-2,0-4,0-6,.2-.3.5-.6.5-1.1,0-14.5,0-28.9,0-43.4,0-.5-.3-.7-.6-1Z"/>
  <path class="cls-58" d="M89.7,96.3c-2.1,2-4.8,2.4-7.6,2.4-21.1,0-42.2,0-63.3,0-3.6,0-7.1-.7-10-3.2.3-1.1,1.1-1.5,2.1-1.6.4,0,.7.2,1.1.3,1.3.9,2.9.8,4.4,1.3.4.1.9.3,1.3.4,1.7.6,3.3.8,5.1.8,18.9,0,37.9,0,56.8,0,1.1,0,2.3.1,3.3-.6.9-.7,1.9-1.1,3-1.4.6-.2,1.3-.2,2,0,.9.3,1.6.7,1.9,1.7Z"/>
  <path class="cls-44" d="M11.4,2.8c1.6-1.2,3.5-1.5,5.5-1.4,10.3.6,20.7.2,31,.3,7.3,0,14.7,0,22,0,3.6,0,7.3,0,10.9,0,2.7-.1,5.3.4,7.7,1.7,1.5.5,2.7,1.2,1.9,3.1-3.4.9-5.9-1.7-9-2-19.9-.3-39.8-.7-59.7.2-1.6.4-3.2.4-4.8.4-2.1-.2-4.4.3-5.5-2.2Z"/>
  <path class="cls-90" d="M11.4,2.8c1.7,1.2,3.6,1,5.5,1.1.2.4.1.7,0,1.1-1.8,1.2-4,1.4-5.7,2.7-1.7.9-3,2.3-4.3,3.7-1.1.9-1.6,3-3.8,1.9-.3-.3-.7-.7-1-1C3.7,7.7,7,4.6,11.4,2.8Z"/>
  <path class="cls-123" d="M.3,29.9c1.3-.6,1,.4,1,1,0,14.1,0,28.2,0,42.3,0,.9-.1,1.7-.9,2.2C0,60.3,0,45.1.3,29.9Z"/>
  <path class="cls-43" d="M89.7,96.3c-.7-.4-1.5-.8-2.2-1.1-.1-.9.3-1.5.9-2.1,1.8-1.2,3.3-2.7,4.7-4.3,1.5-1.1,1.6-3.5,3.8-3.9,1.5.8,1,2.2,1.1,3.5-1.7,3.8-4.1,6.8-8.3,8Z"/>
  <path class="cls-39" d="M8.3,95.2c-2-.8-3.6-1.9-4.4-3.9,0-1.4-2.2-2.5-.4-4,2.2-.3,2.7,1.7,3.8,2.9.3,1.7,3.7,2.7,1.1,5.1Z"/>
  <path class="cls-107" d="M90.3,6.5c0-1.3-.6-2.1-1.7-2.6-.4-.4-.4-.8,0-1.1,2.7.6,4.5,2.4,6.1,4.5-.7.3-1.3.7-2,1-1.7.7-2.6.1-2.5-1.7Z"/>
  <path class="cls-124" d="M4.1,87.4c-1.8,1.1.3,2.6-.3,3.8-2.2-2.9-3.7-6-3.4-9.8,1.3.8.8,3,2.6,3.5,1.9.2,1.6,1.4,1,2.6Z"/>
  <path class="cls-23" d="M8.3,95.2c1.3-2.2-1.5-2.7-1.7-4.3.3-.3.7-.4,1.1-.4,1.8.8,3.8,1.5,4.1,3.9-1,.4-1.9.7-2.9,1.1-.3,0-.4,0-.6-.3Z"/>
  <path class="cls-79" d="M90.3,6.5c.6,1,1.4,1.6,2.5,1.7,3.2,3.9,4.6,8.3,4.6,13.4-.2,19.5,0,39-.1,58.5,0,1.6-.2,3.1-.3,4.7-1.2,1.4-1.4,3.5-3.2,4.5-.4-.4-.5-.9-.6-1.5,2.3-4.8,1.9-10,1.9-15.1-.2-18.2,0-36.3-.1-54.5-.8-3.9-2.3-7.4-6.1-9.4-1.8-1.5-4.1-2-6.2-2.7-19.9-.3-39.8,0-59.7-.1-2.1,0-4.3.5-6.1-1.2,0-.3,0-.5.1-.8,1.4,0,2.8,0,4.2,0,.3-.1.5-.3.8-.3,19.9,0,39.8,0,59.7,0,.3,0,.5.2.8.3,2.8.1,5.2,1.7,7.8,2.6Z"/>
  <path class="cls-75" d="M7.5,90.8c-.3,0-.6,0-.9,0-.8-1.1-1.6-2.3-2.5-3.4-.2-.9,0-1.9-1-2.6-.9-23.9-1.2-47.7,0-71.6,1.8,0,1.9-2.2,3.4-2.7,1.6,2.9-1.7,4.9-1.3,7.6,0,1.2,0,2.4,0,3.6.3,18.5,0,37,.1,55.5,0,3.9.3,7.7,2.4,11.2.3.8.3,1.6-.2,2.3Z"/>
  <path class="cls-112" d="M7.5,90.8c0-.5,0-1.1-.1-1.6-.4-.4-.3-.7,0-1.1,4.5,3.8,9.1,2.9,13.9.6,2.5-1.2,5.7.8,8.2-1.3,3-.6,6-.5,9-.1,2.6.7,5.2,1,7.9,1.1.5,0,.9,0,1.3.1,7.9.8,15.8.8,23.6-.7,2.8-1.1,5.7-.6,8.5-.7,4-.2,7.3-1.5,9.3-5.2.1-.3.3-.5.2-.8-.1-.2-.4-.2-.6.1-.2.2-.4.4-.7.6-1.4,1-2.8.9-4-.4,0-2.8,1.4-5.5.8-8.1-1.8,2.1-2.5,6.6-7,5.3-3.6-1.1-.5-4.1-1.3-6-2.1,1.2-.7,6.6-5.6,4.5-.6-.5-1.2-1-1.6-1.7-.2-.9.2-1.5.8-2.2,1.8-1.3,1.1-3.1,1-4.9,0-1.2-.2-2.3-.5-3.4-.2-.8-.2-1.6,0-2.3.2-.8.4-1.5.4-2.3,0-1,0-1.9,0-2.9,0-1-.2-1.9-.4-2.8-.1-.6-.2-1.2,0-1.7.1-.6.4-1.1.7-1.6.9-1.4.6-2.9.2-4.4-.1-.6-.2-1.1-.1-1.7.3-1.1.3-2.2.3-3.4.2-2.8.4-5.7-.2-8.5-.1-.4-.2-.8-.3-1.2-.1-.8,0-1.6,0-2.5-.2-4-3.3-2.4-5.1-2.2-3,.2-2.4,2.6-2,4.6.2.6.3,1.2.3,1.8,0,.8,0,1.6-.2,2.3-.5,1.3-.2,2.6-.2,3.9,0,.4-.2.7-.5,1-.8.3-1.6,0-2.3-.4-1.3-.6-2.7-.4-4.1-.4-2-.2-4.1.4-6.1.3-.5-.2-1.2-.4-1.3-.9-.3-1.3-1.3-.6-1.8-.6-.5,0,.1.7.2,1.1,0,.7.2,1.5-.6,1.8-1.3.5-2-.6-2.8-1.3-2.8-1.9-1.3-6-4.1-7.9-.3-.8-.3-1.6.2-2.4,1.9-2,4.4-2.1,6.8-1.6,3.4.6,5.5-.7,7.1-3.5,1.4-2.5,3.1-4,6.1-1.9,1.3.9,3.1,0,4.6-.4,2.5-.5,5-1.2,7.6-1.1.7,0,1.9-.2,2.1.2,2,4,4.6,2.2,7.4,1,1.3-.5,2.2.7,1.5,2.1-1.6,3.4-.6,7.1-1.4,10.6-.4,1.9.7,3.2,1.7,4.7,1.2,1.7,2.4,3.6.6,5.4-1.2,1.2-2.9,2.6-5,1.8-2.2-.9-3-2.7-3.3-5.1-.3-2.1,1.5-4.1.3-6.3-.3-.5-.2-1.1-.6-1.3,1.3,3.5,0,7.2,0,10.8,0,1.1-.7,2.7.5,3.1,5.1,1.5,3.9,5.6,4.2,9.3.1-3.3,1.4-5.7,3.7-8.4,2.4-2.7,1.8-7.6,1.7-11.6,0-3.9.1-7.7.3-11.6,0-1.1.3-2.5,1.8-2.5,1.3,0,1.5,1.1,1.7,1.9.2-1.1-.3-2.4.7-3.5.6-.4,1.3-.4,2,0,.4.4.6.8.8,1.2.9,8.3.6,16.6.3,24.8-.3,10.4,2.4,20.7,1.3,31.1-.2,1.9-.4,3.6-1,5.4-.6,1.5-3.7,1.6-2.5,4.3-.2,2.1-2.1,2.8-3.2,4.1-.4.5-.7,1-1.1,1.5-.5,0-1,0-1.5,0-3.3,1.1-6.7,1.3-10.1,1.2-17.3,0-34.6,0-52,0-2.6,0-5.2,0-7.7-.7-1.6-.2-3.1-.7-4.5-1.4,0,0,0,0,0,0-1.4-1.2-2.8-2.3-4.2-3.5Z"/>
  <path class="cls-81" d="M83.4,96.1c2,2.2,0,1.7-1.2,1.7-8.7,0-17.5,0-26.2,0-11,0-22.1,0-33.1,0-2.5,0-4.9-.1-6.9-1.7.9-.7,1.9-.4,2.9-.4,20.5,0,41.1,0,61.6,0,1,0,2-.2,2.9.5Z"/>
  <path class="cls-105" d="M83.4,96.1c-22.5,0-44.9,0-67.4,0-.3,0-.6,0-.8,0-.3-.2-.4-.4-.3-.5,0-.2.2-.3.3-.3,23.6,0,47.2,0,70.8,0-.6,1-1.6.8-2.6.9Z"/>
  <path class="cls-81" d="M15.1,95.3c0,.3,0,.5,0,.8-1.1-.6-3.1.5-3.5-1.7,1.3-.1,2.4.2,3.5.9Z"/>
  <path class="cls-54" d="M16.8,4.7c20.8,0,41.7,0,62.5,0,1.7,0,3.5-.6,4.9.8-.2.2-.3.4-.5.6-4.5,2.2-9.3.6-14,.8-16.4.5-32.8.4-49.2.8-1.7,0-3.4.2-5.1.7-1.5.5-3.1.9-4.4-.5-.1-.2-.2-.5-.3-.7,1.6-2,3.8-2.2,6.1-2.5Z"/>
  <path class="cls-115" d="M4,17.6c.8-2.3,1.7-4.6,2.5-7,1.1-1.6,2.2-3.1,4.3-3.5,0,0,.1.2.1.2,3.3,3.3,3.2,4-.8,5.8-1.3.6-2,1.5-2.7,2.6-.7,1.3-1.7,2.4-3.4,1.8Z"/>
  <path class="cls-66" d="M88.6,93.6c.9-1.5,1.7-2.9,2.6-4.4.3-.7.8-1.3,1.6-1.4.4,0,.7.2,1,.5,0,.3,0,.6,0,1-1.4,1.8-2.8,3.7-5.2,4.3Z"/>
  <path class="cls-97" d="M93.7,88.3h-.4s-.4,0-.4,0c-.7-.9-.7-1.7,0-2.6,1.5-7.4,3.1-14.7.4-22.2-.5-1.3-.4-2.8-.4-4.2,0-12.2,0-24.4,0-36.6,1.2-.8,1.5-1.8,1-3.1-.2-1-.2-2,.5-2.9.4-.3.7-.3,1.1,0,1.4,1.3.8,3,.9,4.5,0,19.5,0,39.1,0,58.6,0,3.2-1.3,5.8-2.7,8.5Z"/>
  <path class="cls-54" d="M84.2,5.5c1.9.6,4,.5,5.2,2.6-.1.1-.3.3-.4.4-1.1.4-2.1.9-2.3,2.2-.1,1-.5,2.1-1.8,1.9-1.2-.1-1.6-1.2-1.8-2.1-.3-1.8-.9-3.7,1-5h0Z"/>
  <path class="cls-54" d="M95.4,16.8c-.3,0-.6,0-.9,0-1.3-.4-1.7-1.5-2.3-2.5-.8-2.1-4.5-2.8-2.9-6.1,0,0,0,0,0,0,3.9,1.6,5.6,4.6,6,8.6Z"/>
  <path class="cls-116" d="M89.4,8.2c-.6,3,3.7,3.2,3.5,6-1.2,2.5.7,4.2,1.7,6,1,.7,1,1.5.4,2.4-.6,1-1.4.4-2.1.2h0c-.6-.5-1.2-1.4-1.7,0v8.7c-2.9-2-.7-4.9-2.7-6.7-1.1,1.3-.7,2.8-.7,4.1-.3,6.8-.6,13.7-.9,20.5,0,.9,0,2.2-.7,2.3-4.9.3-3.3,3.9-3.6,6.6-.1,1,.9,3.1-1.4,2.7-1.2-.2-2-1.4-1.6-3,.4-1.5.4-3.1.4-4.7,0-1.6-.6-3-2.4-2.8-2.9.4-2.9-1.8-2.5-3.2,1.2-4.4,2.1-8.6,0-13-.4-.8.4-1.9,1.8-2.7.2,3.3,3.3,5.9.8,9.7-1.2,2,.7,4.1,2.4,5.5,2.1,1.7,2.8-1.6,4.7-1.7,1,0,.2-2.7-.8-3.6-2.8-2.5-2.6-5.3-2.1-8.7.4-3-.3-6.1,1.8-8.7-1.8-1-2.8.5-3.5,1.5-1.8,2.8-3.8,1-4.2-.3-1.1-3.8-4-2.3-5.9-2.1-2.7.2-5.2,1.3-8,1.5-1.2,0-3.3,3.1-2.7-1.1,0-.5-2.5.2-2.6.5-2,5.7-6,7-11.5,5.8-1.3-.3-2.8.5-4.2.8-1.1.2-2.2.1-3.3-.2-.4-.1-.8-.4-1.2-.6-4-2.3-8.1-.7-8.1,3.4-.2,12.6,0,25.3-.2,37.9,0,.6.2,1.1.5,1.6.9,1.4,2.9,2.2,2.2,4.4-2.6,2.5-4,.5-5.4-1.4-2-2.8-1.2-6.2-1.5-9.3-1.3,3.6,2.3,7.5-1,10.9-2.8-.3-2.5-3-3.4-4.7-.7-1.3-.3-3.2-3.1-4,.9,3.4.9,6.7,4.2,8.5,1.4.8,2.6,1.7,3.2,3.3-.4,1.9-1.1,3.6-2.4,5-2.4-1.2-4.4-3-7.6-1.9-1.6.6-2.8-1.6-3.5-3.2-2.7-4.9-2.6-10.3-1.1-15.1,2-6.4,1-12.5-.4-18.5-.8-3.5-.7-6.5.3-9.6.5-1.7.5-2.9-.8-4.3-2.6-2.8-2.6-5.9.4-8.5,2-1.7,1.7-2.9.1-4.6-.2,1.1.1,2.7-1.1,3.1-1.6.5-3.1-.1-4.1-1.6,0-1.2,0-2.3,0-3.5,1.6-.6,2.5-1.7,3-3.3.3-1,.8-2.6,2.1-2.4,6.7.8,2-2.8,1.9-4.6,2.3,1.9,3.9-.8,5.9-.9,4.8-.1,9.7-.2,14.5,0,4.9,0,9.8-.9,14.5-.6,11.2.5,22.5-.7,33.7.3,1.5.1,3.1-.3,4.7-.5q-.4,4,1.3,6.9c.2-2.7-.2-6,3.9-4.3Z"/>
  <path class="cls-115" d="M3.9,21.1c1.2,1,2.9-.7,3.8,1.2.8-1.1.5-1.9.2-2.6-.5-1.3-.9-2.9.8-3.2,1.9-.4.7,1.8,1.4,2.4,3.4,3.1,2.3,4.7-1.2,6.9-1.3.8-3.2,4.8.9,6.5,2.2.9,1.9,2.4,1,4.5-1.2,2.9-1.6,5.8-.6,9.6,1.5,5.8,2.6,12,.4,18.4-1.6,4.6-2,10.1,1.1,14.8-1.5,1.2-1.5,2.8-1.1,4.5,0,.6-.1,1.4-.5,1.5-1.6.2-2.1,1.4-2.7,2.7,0,.3,0,.6,0,.9-3-2.4-3.4-5.8-3.4-9.3,0-19.6,0-39.3,0-58.9Z"/>
  <path class="cls-93" d="M10,84c-2-2.5-1.2-3.8,1.7-4.3.7,2.2,1.2,4.1,4.3,2.1,3.5-2.3,3.9,2.4,6.1,3.1,8.2-1.9,16.4-4.2,24.9-2.2,3.7.9,7.3.9,11.1.4,7.1-.8,14.3.7,21.5-.4,2.7-.4,5.7.7,8.1-1.3.8-1.1,1.3-2.5,2.8-3.1,1.2,5-3,9.5-9.3,9.9-3,.2-6,0-9,0-1.5,1.1-3.2,1-4.9,1-6.7,0-13.4,0-20.1-.1h-.9c-2.2-.7-4.7,0-6.9-.9-3.5,0-6.9,0-10.4,0-1.6,1.1-3.2.5-4.9.5-3.8,0-7-2.9-11-2.1-1.3.3-2.3-1.4-3.1-2.7Z"/>
  <path class="cls-57" d="M87.7,81.4c-1.6,3.1-4.6,2.1-7.1,2.5-8.9,1.4-17.8-.5-26.8.8-5.5.8-10.9-2.5-16.5-1.6-5.1.9-10,2.3-15.2,1.7-1.8-2.4.6-3.1,1.7-4.3,1.3-1.3,2.8-1,4.3-.7,1.6.3,3,.4,4.4-.5,2-.7,2.5-1.9,1.4-3.8-.1-.6,0-1.1.5-1.5.9-.7,1.9-1.2,2.6-2.1.3-.3.6-.4,1-.5,1.3-.2,2.4.4,3.3,1.2,7.4,6.2,15.2,9,24,2.6,1-.1,2-.4,3.1-.4.4,0,.8.3,1.1.6.7,0,1.4.2,1.7.9-.7,1.1-.5,2.2.4,3.1,2.2,1.7,4.8.7,7.2.9,1.9,0,3.8-.3,5.4,1.2,1.2,0,2.3.8,3.5,0Z"/>
  <path class="cls-12" d="M72.2,33.1c1.1,3.2,1.3,6.4,0,9.6-1.3.9-.5,1.7,0,2.6,0,.5,0,1.1.1,1.6,0,.1-.1.3-.2.4-.4.5-.6,1.1-.5,1.7,0,.3,0,.7,0,1,0,1-1,1.9-.3,2.9,0,.5.1,1.1.2,1.6.4,1.8-.9,2.6-2,3.4-1.4.5-1.5,2.1-2.4,3.1-.5.3-1.1.3-1.7,0-.3,0-.2-.5-.5-.5,0,.4,0,.9-.2,1.3-.4.5-.9.9-1.6.9-2.5-2.2-1.8-5-1.2-7.7.3-1,.7-1.9,1.2-2.8.6-.8,1.6-.9,2.4-1.5-.8.4-1.4.4-2.1,0-.4-.5-.5-1-.5-1.6,0-.4.1-.7.3-1.1.6-.9,1.2-1.7,1.2-2.8,0-.5,0-1,0-1.6,0-.5.1-1,.2-1.5.2-.9-.2-1.5-1-1.9-.4-1.2-1.6-2.4.2-3.4,1-1,2-2.2,3.5-2.7.5-.2,1.1-.3,1.7-.4.4,0,.8.2,1.1.4.9,1,2.2,1.7,1.4,3.4-.5.5-1,0-1.5.2.5,0,1.1.3,1.5-.2.8-1.2-.6-2.7.4-3.9.2-.1.3-.2.5-.4Z"/>
  <path class="cls-41" d="M79.9,93.5c-5.5,0-10.9,0-16.4,0-4.6.7-9.2.7-13.8,0h-28.5c0-.6,0-1.1,0-1.7h60.4c.5,1.7-1.3,1-1.7,1.7Z"/>
  <path class="cls-59" d="M84.2,81.4c-2,0-4,0-6,0-2.3-1.8-5.4,0-7.8-1.7-.4-1.3-3.7-3.4.9-3.4,3.7,2.4,2.4-2.1,3.7-3,.6-.5,0-3.5,2.1-3,1.5.4,1,2.5.6,4.2-.2,1-1.7,2.9.6,3.5,1.5.4,2.8,0,3.8-1.8,1.1-2,2.4-3.9,3.3-6.3.5,4,1.9,7.9-1,11.6Z"/>
  <path class="cls-116" d="M10,84c2.2.7,4,3.7,6.8,1.1.3-.3,1.6,0,1.9.5,2.7,3.7,6.6,2.7,10.3,2.8-.4.8-1.1,1.8-1.8,1.6-4.5-1.5-8.2.9-12.1,2.4-4.3,1.7-5-3-7.7-4-1.4-2.8,2.6-2.3,2.6-4.3Z"/>
  <path class="cls-127" d="M45.4,40c.5.5,1,.9,1.8,1.6v-4.3c1.1.9,3,.7,3.3,2.5,0,.2,0,.4-.1.6-.5,1-1,2-1.8,2.8-.6.6-1.4,1.1-1.6,1.9,0,.3-.2.7-.3,1-.2.5-.4.9-.7,1.4-.2.3-.5.5-.8.6-.8.2-1.6.3-1.9,1.3-.5,3,.4,6-.6,8.9-1.2,1.7-1.9.4-2.6-.5-.6-.7-.7-2-2.1-1.2-.4,0-.6-.3-.8-.6-.4-.6-.6-1.3-.8-2,0-.4-.1-.7-.1-1.1.1-1.1.2-2.2.1-3.2.2-2,.5-3.9,0-5.9-.1-.6-.1-1.1,0-1.7.3-1.1,0-2.2.3-3.3.3-.6.8-.9,1.4-.9.4,0,.8.3,1,.6,1.3,2.2.2,4.9,1.4,7.5,2-1.8,3-4.5,5.2-5.9Z"/>
  <path class="cls-116" d="M45.4,40c-.9,3.2-4.1,5-4.6,9.1-3.2-3.8-2-7.4-2.3-10.8-.5-.5-.5-1.1-.4-1.7,1.1-1.1.8-3.3,3-3.4,2.6-1.1,2.6.8,2.6,2.4,0,1.8.2,3.4,1.8,4.5Z"/>
  <path class="cls-125" d="M63.5,62.5c.3-.3.6-.6.9-.9.2-.1.3-.2.5-.4.4.1.7.3,1,.6,1.1,2.4,3.9,1.7,5.5,3.1,1.2.9.7,2.3.8,3.5-1,1.6-2.1,3.1-4.2,3.2-1.7,0-3.4-.8-5,.4-.4.2-.7.2-1.1.2-.8-.1-1.5-.5-2-1.1-.1-.3-.2-.7-.1-1.1.7-1,.3-1.9-.3-2.8-.2-.8-.2-1.5.1-2.2,1-1.3,2.3-2.1,3.9-2.7Z"/>
  <path class="cls-121" d="M69.5,34c-.3,0-.5,0-.8,0-.5-.3-.7-.8-.9-1.3-.2-.6-.4-1.3-1.1-1.5-.5-.1-.9-.2-1.4-.2-.7.1-1,.7-1.4,1.1-.1,0-.3.2-.4.2-1.1-2-1.6-4.6.5-5.6,2.5-1.1,5.6-1,8.3,0,1.3.5.3,2-.1,3-1,.9-1,1.7,0,2.6,0,.3,0,.5,0,.8,0,0-.2.1-.2.1-.7.6-1.4,1.5-2.5.8Z"/>
  <path class="cls-116" d="M50.3,32.8c2.4-1.9,6.4-.3,7.2-4.6,0,0,.8,0,1.2,0,.8.3,3.1,7.3,2.6,8-.7,1.1-2.1,1.2-2.3,0-.9-4.6-4.3-3.1-7-3.3-.5,0-1.1-.2-1.6-.3Z"/>
  <path class="cls-116" d="M47.1,89.2c4.2-1.4,8.5-.6,12.7-.5,4.1.1,8.2-.3,12.3-.4-.5.5-1,1.4-1.5,1.4-7.9-.3-15.8,2.1-23.6-.6Z"/>
  <path class="cls-4" d="M50.5,39.9c2.3-.4,4.6-1,6.9-.6.3.2.4.5.3.8,0,.9.9,1.4,1.1,2.2.2.8.1,1.6-.3,2.3-.9,1.1-2,1.5-3.4,1.1-.4-.4.1,0-.4-.2-.6-.3-1.2-3-2-.2-1.4-.5-1.4-1.6-1.1-2.8.1-.2.3-.4.4-.6-.3,0-.5.2-.8.2-1-.4-1.6-1-.7-2v-.3Z"/>
  <path class="cls-12" d="M71.4,65c-2.6-.1-5.9.9-6.2-3.4.7-.5,2.3.5,2.2-1.3,0-.8.2-1.5,1.1-1.6,1,0,1.9.3,2.7.8.2.3.4.6.4,1-1.8.5-.1,1.4-.2,2.1,0,.8,0,1.6,0,2.4Z"/>
  <path class="cls-14" d="M65.2,45.2c0,1.3,0,2.5-1.7,2.6-1-.5-1.5-1.5-2.1-2.3-.5-.9-1.2-1.8-1.6-2.7,0-.4,0-.7,0-1.1.4-.6.9-1.1,1.5-1.5.2,0,.3-.1.5-.2.6.3,1.1.5,1.7.8.7,0,1.4.3,1.8.9v1.8c-.7.6-.7,1.1,0,1.7Z"/>
  <path class="cls-64" d="M67.6,71.1c1.5-.9,3.1-1.8,4.6-2.7-.6,1.7,2.4,4.7-1.8,5.2-3.5,0-3.6-.2-2.9-2.5Z"/>
  <path class="cls-11" d="M41.1,33.1c-1.5.7-.2,3.5-2.6,3.5-1.7-2.3-1.6-4.6,0-6.9,1,0,2-.2,2.6.9,0,.9,0,1.7,0,2.6Z"/>
  <path class="cls-40" d="M67.6,71.1c-.9,2.9,2.5,1,2.9,2.5-.3.6-.6,1.2-.9,1.7,0,0-.4,0-.4,0h-.4c-2.4-.6-3.8-2.9-6.1-3.5,1.3-2.9,3.2-1.7,5-.8Z"/>
  <path class="cls-49" d="M68.7,32.2c0,.6,0,1.2,0,1.8-.3.3-.6.6-.9.9-1.3-1.1-3.2.7-4.4-.9,0-.6,0-1.1,0-1.7,0,0,.2-.1.2-.1.7-.7.8-1.8,1.5-2.5.6.3,1.2.5,1.7.8.9.3,1.1,1.2,1.7,1.7Z"/>
  <path class="cls-116" d="M49.7,93.5c4.6,0,9.2,0,13.8,0-4.6,1.4-9.2,1.4-13.8,0Z"/>
  <path class="cls-70" d="M71.3,59.9c-1,0-2,.1-2.6-.9-.5-.5-.5-1.1,0-1.7,1.3-.6,2.2-1.6,2.8-2.8.9.7.8,1.8.7,2.8-1,.6-.5,1.8-.9,2.6Z"/>
  <path class="cls-32" d="M60,41.8c0,.3,0,.5,0,.8,0,1,0,1.9-.7,2.7-.4.2-.7.2-1.1,0-.3-.4-.2-.7.1-1,0-.9,0-1.8,0-2.6-.5-.5-.9-1-.8-1.7,0-.2,0-.5,0-.7,1.5,0,3.1-.6,4.3.7,0,0-.1.2-.1.2-.6.5-1.4.8-1.6,1.6Z"/>
  <path class="cls-118" d="M72.2,45.3c-2.1-.2-2.2-2-1.6-3.1.9-1.8,1.3-.4,1.6.6.4.9.5,1.7,0,2.6Z"/>
  <path class="cls-86" d="M63.5,34c1.5.2,3.2-.6,4.4.9-1.9-.7-2.1,2.7-4.1,1.8,0-.9-.2-1.8-.2-2.7Z"/>
  <path class="cls-93" d="M92.9,85.7c0,.9,0,1.7,0,2.6-.6.3-1.1.6-1.7.9-3-2.9-.1-2.9,1.7-3.5Z"/>
  <path class="cls-116" d="M39.3,88.3c2.3.1,4.7-.5,6.9.9-2.4.5-4.7.3-6.9-.9Z"/>
  <path class="cls-97" d="M91.1,22.8c-.9-.7-1.2-1.9,0-2.3,2-.6,1.7,1.1,1.8,2.3-.6,0-1.2,0-1.7,0Z"/>
  <path class="cls-116" d="M79.9,93.5c.6-.6,1.2-1.1,1.7-1.7.9,0,1.7,0,2.6,0,.3.2.4.4.3.6,0,.2-.2.3-.3.3-1.2,1.4-2.9.7-4.3.9Z"/>
  <path class="cls-111" d="M65.2,41.8c-.8,0-1.4-.2-1.8-.9,0-.3,0-.5,0-.8.7-.3,1.4-.8,2.1,0,.5.7.3,1.2-.4,1.6Z"/>
  <path class="cls-70" d="M72.3,46.8c.9,1.8,1.3,3.5-.2,5.2-.7-.7-1.2-1.4-.8-2.5h0c.6-.8-.1-1.9.8-2.6h.2Z"/>
  <path class="cls-77" d="M71.3,49.6c.3.8.6,1.7.8,2.5-.3.3-.6.6-.8.9-1.2-1.1-1.2-2.3,0-3.4Z"/>
  <path class="cls-53" d="M71.3,59.9c-.4-1.1-1.5-2.4.9-2.6,0,1.1,0,2.3,0,3.4-.3.3-.6.3-.8,0,0-.3,0-.6,0-.8Z"/>
  <path class="cls-13" d="M72.1,32.3c-.7-.1-1.5-.2-1.6-1.1-.1-1.2.7-1.4,1.6-1.5,0,.9,0,1.7,0,2.6Z"/>
  <path class="cls-41" d="M84.2,92.6c0-.3,0-.6,0-.9.8-.3,1.7-1.2,2.6-.2.2.2.1.5.2.7-.9.1-1.8.2-2.8.3Z"/>
  <path class="cls-73" d="M71.2,60.7c.3,0,.5,0,.8,0,.2.8,0,1.4-.7,1.8-.6-.3-1.4-.6-1.2-1.4,0-.2.7-.3,1.1-.5Z"/>
  <path class="cls-130" d="M94.6,20.2c0,.1,0,.3,0,.4,0,.1,0,.3-.1.4-1-1.9-3.3-3.1-3.3-5.6,0-1.4.5-1.8,1.8-1.2.6.9,1.1,1.7,1.7,2.6,0,1.2,0,2.3,0,3.5Z"/>
  <path class="cls-117" d="M34.2,75.4c1,.7,2.3,1.1,2,2.7-.3,1.5-1.5,1.7-2.9,1.6-2.8,1.8-5.7.2-8.6.3-1.6,0-1.6-1.7-1.7-2.9.7-2.8,1.7-5.5-.4-8.2-.5-.6-.4-1.9-.3-2.9.2-1.3,1.2-1.9,2.5-1.8,1.8.1.8,1.5.8,2.3,0,3.1-1.5,6.2,1.3,9.3,1.4,1.5,2.3,1.7,3.9,1.3.9-1.1,1.4-3,3.4-1.7Z"/>
  <path class="cls-93" d="M22.9,77.1c2.6,4.2,6.8,2.1,10.4,2.6-1,2-2.7,2-4.4,1.5-1.7-.5-3.4-.7-5.1-.6-3.5-2.4-7.2-4.6-8.1-9.4-.3-1.7-1-3.3.8-4,2.1-.9,3.4.7,3.6,2.5.4,2.8,1.4,5.1,2.8,7.5Z"/>
  <path class="cls-101" d="M23.8,27.1c2.8,6.9,2.7,13.8,2.6,20.7,0,.8.2,2-.9,2.1-1.3.1-1.7-1-1.6-2,.5-4.8-.8-9.2-1.9-13.7-.5-2,.1-4.8,1.8-7Z"/>
  <path class="cls-19" d="M28.1,73.7c-1.1-.9-1.3-2.2-1.2-3.5.8-12.3.4-24.6.2-36.9,0-4.1,2.5-4.9,5-6.1,2.6-1.2,4.3.2,5.5,2.5.2.2.3.4.3.6,0,.2,0,.4-.1.4-.9.5-1.8.1-2.7.2-1.1,0-2,.7-3,.9-.4,0-.7,0-1.1-.2-1-.4-1.7-.3-1.8,1,0,1.9,0,3.8,0,5.6,0,.7,0,1.4,0,2.1,0,.5,0,1,0,1.5,0,6,0,12,0,18,0,.7,0,1.4,0,2.1,0,.7,0,1.4,0,2,0,.4,0,.9,0,1.3,0,1.7,0,3.4,0,5,0,.6,0,1.2-.2,1.8,0,.4-.2.8-.4,1.1-.2.1-.3.3-.5.4Z"/>
  <path class="cls-19" d="M34.2,75.4c-1.5-.1-2.3,1.2-3.4,1.7.2-1.9-1.7-2.3-2.6-3.4,0,0,0,0,0,0,2.5-1.2,5-2.4,6.9.8-.3.3-.6.6-.9.9Z"/>
  <path class="cls-22" d="M37.6,30.6c0-.3,0-.6,0-1,.3,0,.6,0,.9,0,0,2.3,0,4.6,0,6.9,0,.6,0,1.1,0,1.7-.3,0-.6,0-.9,0-1.6-2-1.1-4.2-.8-6.4.2-.5.4-.9.8-1.2Z"/>
  <path class="cls-31" d="M66.1,76.3c-.6,0-1.3,0-1.7.2-6.4,4.6-12.3,4.6-18.8,0-1.6-1.1-4.3-.9-4.5-3.7q-3.6-3.6.2-8c.4,0,.8,0,1.1.4.8,4.4,4,6.6,7.7,8.5.8.1,1.6.5,2.3.9,3.4,1.6,6.6.3,9.8-.9,3.1-1.1,3.8-.6,4.1,2.6Z"/>
  <path class="cls-127" d="M41.9,65.1c-1.4.5-1.1,1.5-1,2.7.2,2.4-1.4.5-2.3.8-.1,2,3.5,1.9,2.5,4.3-1.1-.3-2.3-.6-3.4-.9-1-.5-1.3-1.4-1.4-2.4.3-1.5-.3-3-.5-4.5,0-.8,0-1.6.1-2.4.2-.8.6-1.5,1.2-2,.4-.2.7-.2,1.1-.1,1.1,1.7,3.2-1.1,4.3.8.4,1.3.4,2.6-.7,3.6Z"/>
  <path class="cls-112" d="M66.1,76.3c-.3-3-1.9-2.5-3.9-1.5-3.5,1.7-7,2.7-10.8.7,2-3.2,5.3-1.4,8-2.1.5-.2,1-.4,1.5-.8.3-.2.6-.4.9-.5.2,0,.5,0,.7-.1,3.6-1.6,4.1,2.3,6.1,3.5-.9.3-1.7.6-2.6.9Z"/>
  <path class="cls-109" d="M36.7,69.3c.3.9.6,1.7.9,2.6,0,.2-.1.5-.1.8-2,.5-4,1.4-5.7-.5-.3-.8-.3-1.7,0-2.5.4-1,1.1-1.8,2.1-2.4.4-.2.8-.2,1.3-.2,1.1.4,2,.8,1.6,2.2Z"/>
  <path class="cls-93" d="M70.4,79.7c2.6.6,5.7-1.4,7.8,1.7-2.6-.6-5.7,1.4-7.8-1.7Z"/>
  <path class="cls-72" d="M32.3,72.1c1.6,1.8,3.6-.3,5.2.6-.5,1.1-1.6,1.3-2.5,1.8-2.1-1.7-4.6-.5-6.9-.8,0-.3,0-.6,0-.9.6-.5,1.3-.8,2-.9.7,0,1.5-.3,2.2.3Z"/>
  <path class="cls-117" d="M39.1,78c-.4-.3-.9-.4-1-.7-.2-.7.4-1,.9-.9.3,0,.7.4.7.7,0,.2-.4.5-.7.9Z"/>
  <path class="cls-33" d="M63.5,62.5c-.8,1.4-1.8,2.4-3.4,2.6-.3.2-.7.4-1.1.5-1,0-2-.3-2.9-.6-.6-.2-1.1-.5-1.3-1.2,4.6-1.3,5.3-4.6,5-8.8,0-1.4,0-4.3,3.2-2.7,0,.8.3,1.7-.3,2.4-.2,2.6-.7,5.3.8,7.8Z"/>
  <path class="cls-71" d="M58.3,45.2c.3,0,.6,0,1,0,.8-.6,1.6-.6,2.5,0,1.2.5,1.7,1.4,1.8,2.6,0,.3,0,.6,0,.9-.8.4-1.6.2-2.4.2-1.2-.1-2.5,0-3.6-.9-.6-1.2,0-2,.9-2.8Z"/>
  <path class="cls-25" d="M69.5,34c.8-.3,1.7-.5,2.5-.8,0,1.4.6,3-.8,4.2h0c-.6-1.2-1.2-2.3-1.8-3.5Z"/>
  <path class="cls-26" d="M61.7,47.9c.6.3,1.2.6,1.7.8,0,.6,0,1.1.1,1.7.5.6.5,1.1,0,1.7,0,1,0,2-.9,2.6,0-.9,0-1.8,0-2.6-1.2-1.2-2.1-2.5-.9-4.2Z"/>
  <path class="cls-27" d="M71.3,37.5c-1.3,1.4-2.6,0-4,.3,1.3-1.8,2.6-.8,4-.3,0,0,0,0,0,0Z"/>
  <path class="cls-38" d="M67.9,60.7c.5.3.8.9.4,1.3-1.1.9-2-.2-3-.4,0,0,0-.1,0-.1-.3-.1-.3-.3-.3-.4,0-.2.2-.2.2-.2.6,0,1.2,0,1.8-.1.3-.4.6-.5.9,0Z"/>
  <path class="cls-87" d="M72.1,47c0,.9.1,1.9-.8,2.5-.3-.7-1.6-.9-1.3-1.9.3-1,1.3-.7,2.1-.7Z"/>
  <path class="cls-110" d="M67.9,48.7c-.3,1,1.2,2,.2,3.1-1.8-.6-.7-2.1-1-3.1.3-.3.6-.3.8,0Z"/>
  <path class="cls-42" d="M65.2,60.9c0,.2,0,.4,0,.6-.3,0-.6,0-.9,0-.1-1.2-.2-2.4-.4-3.5.3,0,.6-.1,1-.2,0,1,.1,2,.2,3Z"/>
  <path class="cls-98" d="M67.9,60.7c-.3,0-.6,0-.9,0,.2-1.3-.8-3.2,1.6-3.4,0,.6,0,1.1,0,1.7-.7.4-.9,1-.8,1.7Z"/>
  <path class="cls-35" d="M65.2,45.2c-.8,0-1.9,0-1.9-1,0-1.2,1.2-.5,1.9-.7,0,.6,0,1.1,0,1.7Z"/>
  <path class="cls-122" d="M63.6,52.1c0-.6,0-1.1,0-1.7.7,0,1.8-.2,1.9.5.1,1.1-1,1.1-1.9,1.2Z"/>
  <path class="cls-56" d="M67.9,48.7c-.3,0-.6,0-.8,0,.1-.7.2-1.3.3-2,.3,0,.6,0,.8.3.6.6.5,1.2-.3,1.7Z"/>
  <path class="cls-6" d="M32.3,72.1c-.5.2-1.1.5-1.6.7-.7-.8-1.8-.9-2.5-1.7,0-2,0-4.1,0-6.1.4,0,.5-.2.4-.6,0-.2-.2-.2-.3-.2,0-.6,0-1.2,0-1.8,1-.5.4-1.1,0-1.6,0-6.6,0-13.3,0-19.9.9-.3.5-.6,0-.9,0-.6,0-1.2,0-1.8.4-1,1.1-1.5,2.2-1.4,1.8.3,3.7.2,5.4,1.1.3.3.4.6.3,1-.3,1,.2,1.8.6,2.7,0,.6,0,1.1,0,1.7.2,1.8-.8,3.2-1.2,4.8-.6.6-1.6.9-1.7,2-.3.7,0,1.3.5,1.8.2.7,0,1.3-.5,1.9-.4.6-.3,1.2,0,1.8.2.5.2,1,.2,1.5-.1,1-.6,2-.7,3,0,.5.1.9.6,1.1.5.1,1,.2,1.4.3.5.1,1,.4,1.3.8,0,.9,0,1.8,0,2.6-1.1.5-1.7,1.4-1.7,2.6h-.9c-.6.6-1.6.7-1.7,1.8,0,.9,0,1.8,0,2.7Z"/>
  <path class="cls-102" d="M58.3,45.2c-.3.8-.6,1.7-.9,2.5-.4.5-.9.7-1.5.8-1.1,0-2.4-.5-3.4.4-.2.1-.5.2-.8.2,0,0-.2-.3-.2-.3,0,0,.1.4.1.4,0,.3,0,.6-.3.8-.5.4-1.1.8-1.7,1-.4,0-.7,0-1.1,0-.6-.2-.9-.6-1.1-1.1,0-.3-.1-.7-.2-1,.1-1.1-.8-1.8-1.2-2.7,0-.2,0-.5,0-.7.7-.8,1.7-1.4,1.8-2.6,1.2-.6.7-2.8,2.7-2.6,0,1.1.6,1.6,1.7,1.6h0c0,1.2-.5,2.6.8,3.5.6-.5,1.1-.5,1.7,0,1.3.2,2.4-.2,3.5-.8,0,.3,0,.6,0,.8Z"/>
  <path class="cls-51" d="M42.7,47.8c.8-1.4,1.7-.4,2.6-.1,1.2,2.2,0,4.8,1.2,7.1.2.4.3.7.4,1.1.1.6.2,1.2.2,1.8,0,.6-.2,1.2-.5,1.7-1.1,1.2-1.4,2.7-1.6,4.3-.3,1-.5,2.1-1.6,2.7-.5,0-.8-.3-.9-.8,0-.5,0-1,0-1.5,0-5.4-.4-10.7.4-16.1Z"/>
  <path class="cls-65" d="M46.3,55.6c-2.7-2.3-1-5.2-.9-7.9,0-.3,0-.5,0-.7,1.5-.4,2,.8,2.5,1.7,0,.3,0,.6,0,.9-.5,1,0,1.1.8.8.3,0,.6,0,.9,0,.9.3,1.5.9,2.1,1.7.2.5.3,1.1.1,1.6-.4.9-1.1,1.6-1.7,2.3-.7.7-1.4,1.4-2.3,1.7-.6.1-1.1,0-1.6-.4,0-.6,0-1.2,0-1.8l.3-.3-.3.3Z"/>
  <path class="cls-117" d="M41.9,60.7c-1.4,3.1-2.8,3.4-4.2,0-1.4-1.4-1.4-2.8,0-4.3.5-.8,1-1.5,1.7-2.6.9,2,1.3,3.8,2.6,5.2.5.6.5,1.1,0,1.7Z"/>
  <path class="cls-16" d="M33.3,53.8c.3-.6.6-1.1.8-1.7-.5-.5-1.5-.7-.8-1.7,0-1-.4-2.7,1.7-1.7.5.3.7.9.9,1.4.2.9.5,1.8.8,2.7,0,.3.1.6.2.9-.3.8,0,1.4.3,2.1,0,.6,0,1.2-.3,1.7-.5.4-1.1.5-1.8.5-.7,0-1.2-.3-1.7-.8,0-.6,0-1.1,0-1.7,0-.6-.6-1.2,0-1.8Z"/>
  <path class="cls-60" d="M35.1,50.4c0-.6,0-1.2,0-1.8,0-2-.2-3.9,1.8-5.2,1.5,2.3.9,4.6,0,6.9-.5.5-1.1.5-1.7,0Z"/>
  <path class="cls-52" d="M41.9,60.7c0-.6,0-1.1,0-1.7.5-3.7-1-7.6.8-11.2,0,5.7,0,11.5,0,17.2-.3.4-.5.4-.8,0,0,0,0,0,0,0,0-1.4,0-2.9,0-4.3Z"/>
  <path class="cls-84" d="M35.9,39.2c0-.3,0-.6,0-.9-.6-.9-.2-1.8-.2-2.7,0-.8,0-1.5.1-2.3,0-.4.1-.8.3-1.1.3-.5.7-1,1.4-.8,0,2.3,0,4.6,0,6.9-.3.3-.6.6-.9.9-.3.2-.5.2-.8,0Z"/>
  <path class="cls-5" d="M48,48.7c-1.3.1-1.7-1.2-2.5-1.7.2-.3.5-.6.7-.9,1.2.5,3.3.3,1.8,2.7Z"/>
  <path class="cls-129" d="M35.9,39.2c.3,0,.5,0,.8,0,.3.8,1.4,1.6.1,2.6-1.8-.3-2.3-1.2-.9-2.6Z"/>
  <path class="cls-2" d="M47.9,42.7c1.5,2.3,0,2.6-1.8,2.6-.8-1.8.9-2,1.8-2.6Z"/>
  <path class="cls-24" d="M35.1,50.4c.6,0,1.1,0,1.7,0,1.2.9.2,1.7-.1,2.5-1.1-.4-1.7-1.2-1.6-2.4Z"/>
  <path class="cls-50" d="M36.8,55.7c-.7-.2-1.6-.2-1.4-1.1,0-.3.9-.5,1.3-.7.2.5.5,1.1.7,1.6,0,.5-.3.6-.7.3Z"/>
  <path class="cls-72" d="M36.8,55.7c.2-.1.5-.2.7-.3,0,.4.1.7.2,1.1,0,1.4,0,2.8,0,4.3,0,0-.3.1-.3.1-.5.2-.9,0-1.2-.5-.5-1.2-.4-2.2.5-3.2,0-.5,0-1,0-1.5Z"/>
  <path class="cls-48" d="M54.9,64.1c.6,0,1.1,0,1.7.1.7.8,1.4,1.3,2.5.9.3,0,.6,0,.9,0,0,.8,0,1.6,0,2.5,0,.5-.4.9-.8,1.1-.3-.1-.5,0-.5.2.3,0,.5,0,.8,0,.5.3.8.6.6,1.2,0,.3,0,.6,0,.9,0,1,1.2,1.1,1.6,1.8-.3.3-.5.6-.8.9-3.2.8-6.4.1-9.6.5-.4,0-.8,0-1.2-.1-1.7-1-2.4-2.9-4-4,0-.4,0-.7.3-1,.7-.4,1.4-.5,2.2-.5.4,0,.7,0,1,.2.6.1,1.3.2,2,0,.6-.2,1.3-.3,1.8-.7.5-.6.5-1.3.6-2,0-.6.2-1.1.5-1.6.1-.1.3-.2.4-.4Z"/>
  <path class="cls-62" d="M61.7,72.8c-1-.2-2.4.6-2.9-.9,0-.1.8-.5,1.3-.8.7,0,1.4.2,1.8,1,0,.3,0,.5-.2.8Z"/>
  <path class="cls-92" d="M60.1,70.2c-.3-.3-.6-.6-.9-.8-.3-.2-.4-.4-.3-.6,0-.2.2-.3.3-.3.3-.3.6-.6.9-.9.9.2,1.7.3,1.6,1.5-.1.9-.8,1-1.6,1.1Z"/>
  <path class="cls-9" d="M64,67.9c.6,0,1,.3.8.7,0,.3-.5.6-.9.6-.4,0-.9-.1-.7-.6.1-.3.5-.5.7-.7Z"/>
  <path class="cls-36" d="M68.7,32.2c-1.2,0-1.7-.6-1.7-1.7,2.3-1.2,1.6.7,1.7,1.7Z"/>
  <path class="cls-89" d="M65.2,29.7c0,1.2.2,2.4-1.5,2.5-.2-1.3-.1-2.4,1.5-2.5Z"/>
  <path class="cls-83" d="M54.8,45.2c-.6,0-1.1,0-1.7,0,0-.7-.3-1.8.5-1.9,1.1-.1,1.1,1,1.2,1.9Z"/>
  <path class="cls-8" d="M57.5,40c.7.4.9,1,.8,1.7-.8,0-1.7,0-1.9-1-.1-.6.6-.6,1.1-.7Z"/>
  <path class="cls-88" d="M52.3,41.7c.4-.7.7-1.5,1.8-1.3.2,0,.4.5.3.6-.4,1.1-1.4.6-2.1.7,0,0,0,0,0,0Z"/>
  <path class="cls-74" d="M61.7,45.2c-.8,0-1.6,0-2.5,0-.1-1-.2-1.9.8-2.6,1.1.5,1.8,1.3,1.7,2.6Z"/>
  <path class="cls-85" d="M60,41.8c-1.2-2.3.6-1.6,1.6-1.6,0,1.1-.6,1.6-1.6,1.6Z"/>
  <path class="cls-34" d="M36.7,35.7c-.3.9-.6,1.8-.9,2.6-1.8,0-3.5,0-5.2-.9-1.5-2.3-.9-4.3.9-6.1,1.2-.5,1.9-1.9,3.4-1.6.9.6,1,1.7,1.7,2.5,0,.3,0,.6,0,.9-.9.8-.9,1.7,0,2.5Z"/>
  <path class="cls-29" d="M31.6,31.4c-.3,2-.6,4.1-.9,6.1-.8.3-1.6.5-2.5.8,0-2.3,0-4.6,0-6.8,1.1-.6,2.2-.8,3.4,0h0Z"/>
  <path class="cls-103" d="M31.6,31.4c-1.1,0-2.2.9-3.4,0,1.1-3,2.2-1.7,3.4,0Z"/>
  <path class="cls-55" d="M36.7,32.3c-1.7,0-1.8-1.3-1.7-2.5,1-.2,1.8.4,2.5.9,0,.3,0,.5,0,.8-.3.3-.5.6-.8.9Z"/>
  <path class="cls-45" d="M28.2,40.1c.9,0,2.1-.2,2.4,1.1,0,.3-.2.9-.4,1-1.1.4-1.2-1-1.9-1.2,0-.3,0-.6,0-.9Z"/>
  <path class="cls-21" d="M28.2,71.1c1.3-.1,2.4,0,2.5,1.7-.9,0-1.7,0-2.6,0,0-.5,0-1.1,0-1.6Z"/>
  <path class="cls-96" d="M28.2,60.8c.6.6,2.2-.2,2.1,1.1,0,.9-1.3.5-2.1.6,0-.5,0-1.1,0-1.6Z"/>
  <path class="cls-63" d="M28.2,64.2c.7,0,1.7-.4,2.1.6,0,.2-.2.6-.2.6-.6-.1-1.3-.3-1.9-.5,0-.3,0-.5,0-.8Z"/>
  <path class="cls-127" d="M41.9,65.1c.3,0,.5,0,.8,0,0,.3.2.6.3.9.4.4,1,.6,1.4,1.1.6,3.2,4.2,3.9,5.4,6.6h0c.3.2.3.4.2.6,0,.2-.2.3-.3.3-3.6-.3-7-4.5-7.8-9.5Z"/>
  <path class="cls-40" d="M49.7,74.5c0-.3,0-.6,0-.9,3.7,0,7.4,0,11.2,0-2.9,2-6.6-.3-9.5,1.7-.4-.7-1-.8-1.7-.9Z"/>
  <path class="cls-28" d="M35,67.6c-.5-.9-2.3-1.4-1.4-2.7.8-1.3,2,.3,3.1.1-.2,1.4,1.9,2.8,0,4.3-.3-.8-.9-1.4-1.7-1.7Z"/>
  <path class="cls-3" d="M36.8,60.7c.2,0,.4,0,.6.1-.3.5-.5,1.1-.8,1.6-.5,0-1,0-1.5,0-.9-.9-.4-1.5.5-2,.5,0,.9,0,1.2.3Z"/>
  <path class="cls-69" d="M32.4,69.4c-1.2-2.3.7-1.6,1.7-1.7-.3.8-.9,1.4-1.7,1.7Z"/>
  <path class="cls-100" d="M55.7,47.8c.6,0,1.2,0,1.8,0,1.4,0,2.8.1,4.3.2.3,1.4.6,2.8.9,4.2-3,1.5-2.5,4.3-1.9,6.5,1,4.1-.6,5.2-4.4,4.8-.5,0-1,.4-1.5.7,0,0,0,.2,0,.2-.4.2-.8.2-1.1,0-1.5-1.9-1.9-4-1.2-6.4.7-2.3.6-4.7,0-7.1,0-.6.3-1.1.7-1.6.5-1,1.6-1,2.4-1.4Z"/>
  <path class="cls-113" d="M59.1,65.1c-.7.9-1.6,1-2.6.5-.2,0,0-.9,0-1.4,1-.2,1.7.5,2.5.9Z"/>
  <path class="cls-1" d="M35.8,60.7c-.7.4-.8,1-.7,1.7-.6,0-1.2,0-1.8,0,.7-1.1-.4-1.3-.9-1.8-.1-1.2.3-2.3.9-3.4.6,0,1.2,0,1.8,0,.7,1,1.8,2,.8,3.4Z"/>
  <path class="cls-78" d="M33.6,45c-.2.2-.8.6-.8.6-.4-.3-.7-.7-.9-1.2,0,0,.5-.6.8-.6.6,0,1,.5.9,1.2Z"/>
  <path class="cls-20" d="M32.4,60.7c1.4,0,1.4.8.9,1.8-1.2-.2-2.2-.4-.9-1.8Z"/>
  <path class="cls-98" d="M33.3,53.8c.1.6.9,1.2,0,1.8-.6-.2-1.5-.2-1.3-1.1,0-.3.8-.5,1.3-.7Z"/>
  <path class="cls-128" d="M33.2,41.1c0,.6-.2,1-.7.8-.3-.1-.6-.5-.7-.9-.1-.5.3-.8.7-.7.3.1.5.5.6.7Z"/>
  <path class="cls-18" d="M33.3,50.3c.3.6.5,1.2.8,1.7-.8,0-1.8.3-2.1-.6-.3-.9.7-.9,1.3-1.1Z"/>
  <path class="cls-10" d="M29.6,56.6c-.3-1.1-.6-1.5-.5-1.7,0-.3.5-.5.8-.7.2.3.4.6.4.9,0,.4-.3.7-.7,1.5Z"/>
  <path class="cls-126" d="M30.6,48.4c-.3.6-.7.7-1,.3-.2-.3-.3-.7-.4-1,.3,0,.8-.3.9-.2.3.2.3.7.4.9Z"/>
  <path class="cls-7" d="M53.8,49.3c-.2.4-.4.7-.6,1.1-1.2,1.9,1.6,4.9-1.7,6.1-.8-.9-.6-1.8,0-2.7,0-.6,0-1.2,0-1.8-.7-.8-.7-1.7,0-2.5,0-.3,0-.6,0-.9h0c.3,0,.6,0,.9,0,.6,0,1.1.2,1.5.7Z"/>
  <path class="cls-80" d="M53.8,49.3c-.6,0-1.1,0-1.5-.7.5-2.8,2-1.3,3.3-.9-.6.5-1.2,1-1.8,1.5Z"/>
  <path class="cls-17" d="M48.8,50.4c-.4.7-.7,1.5-1.7,1.4-.3,0-.6-.5-.7-.8-.1-1.1.7-1.3,1.5-1.4.3.3.6.6.8.8Z"/>
  <path class="cls-68" d="M51.4,48.7c-.9-.1-1.7-.3-1.6-1.5,0-.3.6-.7.8-.7,1,.4.7,1.4.8,2.1,0,0,0,0,0,0Z"/>
  <path class="cls-30" d="M51.4,49.6c0,.8,0,1.7,0,2.5-1.2,0-1.7-.6-1.7-1.7.4-.7,1-.8,1.7-.8Z"/>
  <path class="cls-61" d="M43.7,66.8c-.2-.3-.4-.6-.7-.9.2,0,.5,0,.7,0,1-.6.5-1.7.8-2.5-.5-1.9-.7-3.7,1.8-4.4.6.4.9,1.1,1.3,1.7,1.1,1.1,2.9.5,4.1,1.6.4.5.5,1.1.5,1.7-.3,1.4-1.3,2.5-1.4,3.9-.2.6-.4,1.1-.9,1.5-.3,0-.6,0-.9,0-.8-.7-1.4-1.5-1.4-2.6,0-.3,0-.6-.2-.5-.1,0-.1.4,0,.7,0,.9-.1,1.8-.8,2.4h0c-1.9.2-1.3-2-2.5-2.6Z"/>
  <path class="cls-104" d="M46.3,61.6c0-.9,0-1.8,0-2.6,0-.5,0-1.1,0-1.6.6,0,1.2,0,1.7,0,2.6.9.9,2.5.6,3.8-.6.8-1.4,1.3-2.4.5Z"/>
  <path class="cls-46" d="M44.5,63.4c.5,1.1,1.5,2.3-.8,2.5,0-.9-.2-1.9.8-2.5Z"/>
  <path class="cls-119" d="M51.4,53.9c0,.8,0,1.7,0,2.5,1,1.6,1.4,3.2-.2,4.7-.7.1-1.4,0-1.8-.7,0-1.6-.4-3.3.4-4.8.3-.8.9-1.4,1.7-1.7Z"/>
  <path class="cls-7" d="M49.7,55.6c0,1.7,0,3.4,0,5.1-.6.5-1.2.5-1.7,0-.3-1.2,1.5-2.3,0-3.5.3-.8.9-1.4,1.7-1.7Z"/>
  <path class="cls-120" d="M46.3,55.6c.2-.9,0-2.1,1.5-2,.2,0,.5.3.5.5,0,1.4-1.1,1.3-2,1.5,0,0,0,0,0,0Z"/>
  <path class="cls-106" d="M35.8,60.7c-.3-1.1-.5-2.2-.8-3.4.6,0,1.1,0,1.7-.1,0,1.2,0,2.3,0,3.5-.3,0-.6,0-.9,0Z"/>
  <path class="cls-82" d="M36.7,35.7c-.7,0-1.4-.2-1.5-1-.1-1.1.7-1.4,1.5-1.5,0,.8,0,1.7,0,2.5Z"/>
  <path class="cls-94" d="M49.7,67.6c-.4-1.6.8-2.5,1.7-3.5.3-.2.7-.3,1.1,0,.4.4.6,1,.8,1.5.3,1.2,1.1,2.4.7,3.8h-2.6c-.9-.3-1.1-1.2-1.7-1.7Z"/>
  <path class="cls-52" d="M43.7,66.8c2-.2,1.5,2,2.5,2.6,1.6,1,3.6,1.8,3.6,4.2-2.1-2.2-5.9-3-6.1-6.9Z"/>
  <path class="cls-108" d="M47.9,65.9c.3,1.1.6,2.3.8,3.4-.8,0-1.7,0-2.5,0,0-1.1,0-2.3,0-3.4.6-.5,1.1-.5,1.6,0Z"/>
  <path class="cls-47" d="M52.3,72.1c1.7-1.6,3.1-.1,4.5-.5-1.3,1.6-2.6,1.5-4.5.5Z"/>
  <path class="cls-67" d="M54,69.4c-.6-1.2-1.1-2.3-1.7-3.5.9-.7,1.7-.7,2.6,0-.1,1.2.5,2.6-.8,3.5Z"/>
  <path class="cls-91" d="M59.2,68.5c0,.3,0,.6,0,.9-1-.3-2,1.3-3,.1-.1-.1,0-.6,0-.8.9-1.4,1.9-.6,2.9-.2Z"/>
  <path class="cls-76" d="M54.9,65.9c-.9,0-1.7,0-2.6,0,0-.5,0-1.1,0-1.6.5-.6,1.1-.6,1.7-.3.3,0,.6.2.9.3,0,.5,0,1,0,1.6Z"/>
  <path class="cls-95" d="M49.7,67.6c1.2,0,1.7.6,1.7,1.7-.6.9-1.2.8-1.8,0,0-.6,0-1.1,0-1.7Z"/>
  <path class="cls-33" d="M54,64.1c-.6,0-1.1.2-1.7.3-.3,0-.6-.1-.9-.2,0-.6,0-1.1,0-1.7-.4-.5-.5-1.1,0-1.7,0-1.4,0-2.9,0-4.3,2.2-1.5-.2-4.4,1.8-6,.9,2.4,1.7,4.7.3,7.4-1,1.9,0,4.2.5,6.2Z"/>
  <path class="cls-37" d="M51.3,60.7c0,.6,0,1.1,0,1.7-1.7-.3-3.6.8-5.1-.8.7,0,1.4-.2,1.7-.9.6,0,1.2,0,1.7,0,.5,0,1,0,1.5,0Z"/>
  <path class="cls-99" d="M47.9,65.9c-.5,0-1.1,0-1.6,0,0-.7,0-1.6,1-1.4.7,0,1.4.5.6,1.4Z"/>
</svg>