<?xml version="1.0" encoding="UTF-8"?>
<svg xmlns="http://www.w3.org/2000/svg" version="1.1" viewBox="0 0 369 460">
  <defs>
    <style>
      .cls-1 {
        fill: #ec9923;
      }

      .cls-2 {
        fill: #8d875e;
      }

      .cls-3 {
        fill: #ecb424;
      }

      .cls-4 {
        fill: #88865e;
      }

      .cls-5 {
        fill: #c28946;
      }

      .cls-6 {
        fill: #f1b016;
      }

      .cls-7 {
        fill: #1c1c1b;
      }

      .cls-8 {
        fill: #3b3f3e;
      }

      .cls-9 {
        fill: #f1af16;
      }

      .cls-10 {
        fill: #d5aa3b;
      }

      .cls-11 {
        fill: #272626;
      }

      .cls-12 {
        fill: #aca159;
      }

      .cls-13 {
        fill: #f0ac1a;
      }

      .cls-14 {
        fill: #242823;
      }

      .cls-15 {
        fill: #676955;
      }

      .cls-16 {
        fill: #ce8a3b;
      }

      .cls-17 {
        fill: #787c7f;
      }

      .cls-18 {
        fill: #242423;
      }

      .cls-19 {
        fill: #f3b809;
      }

      .cls-20 {
        fill: #2b2f29;
      }

      .cls-21 {
        fill: #91835b;
      }

      .cls-22 {
        fill: #d18b39;
      }

      .cls-23 {
        fill: #d8c340;
      }

      .cls-24 {
        fill: #ab8251;
      }

      .cls-25 {
        fill: #8e7757;
      }

      .cls-26 {
        fill: #7b6c55;
      }

      .cls-27 {
        fill: #545549;
      }

      .cls-28 {
        fill: #eb8a26;
      }

      .cls-29 {
        fill: #b8864c;
      }

      .cls-30 {
        fill: #222120;
      }

      .cls-31 {
        fill: #e8cd29;
      }

      .cls-32 {
        fill: #928359;
      }

      .cls-33 {
        fill: #ec9624;
      }

      .cls-34 {
        fill: #8c7656;
      }

      .cls-35 {
        fill: #8e825a;
      }

      .cls-36 {
        fill: #232623;
      }

      .cls-37 {
        fill: #e1b034;
      }

      .cls-38 {
        fill: #df8c2b;
      }

      .cls-39 {
        fill: #f1ad19;
      }

      .cls-40 {
        fill: #222522;
      }

      .cls-41 {
        fill: #917857;
      }

      .cls-42 {
        fill: #df8a2b;
      }

      .cls-43 {
        fill: #525247;
      }

      .cls-44 {
        fill: #d88b32;
      }

      .cls-45 {
        fill: #ec9b22;
      }

      .cls-46 {
        fill: #2b2f2d;
      }

      .cls-47 {
        fill: #fadc00;
      }
    </style>
  </defs>
  <!-- Generator: Adobe Illustrator 28.6.0, SVG Export Plug-In . SVG Version: 1.2.0 Build 709)  -->
  <g>
    <g id="Layer_1">
      <g>
        <rect class="cls-24" x="201" y="252.4" width="5.4" height="3.4" transform="translate(-121.9 251.1) rotate(-50.8)"/>
        <rect class="cls-2" x="250.1" y="278.7" width="5.4" height="3.4" transform="translate(-124.3 297.6) rotate(-50.6)"/>
        <rect class="cls-32" x="247.4" y="276.5" width="5.4" height="3.4" transform="translate(-123.6 295.1) rotate(-50.6)"/>
        <rect class="cls-32" x="244.8" y="274.3" width="5.4" height="3.4" transform="translate(-122.9 291.9) rotate(-50.6)"/>
        <rect class="cls-32" x="242.2" y="272.2" width="5.4" height="3.4" transform="translate(-122.2 289.5) rotate(-50.6)"/>
        <rect class="cls-32" x="239.5" y="270" width="5.4" height="3.4" transform="translate(-121.5 285.9) rotate(-50.5)"/>
        <rect class="cls-32" x="236.9" y="267.8" width="5.4" height="3.4" transform="translate(-120.8 283.8) rotate(-50.6)"/>
        <rect class="cls-32" x="234.3" y="265.7" width="5.4" height="3.4" transform="translate(-120.1 281) rotate(-50.6)"/>
        <rect class="cls-32" x="231.6" y="263.5" width="5.4" height="3.4" transform="translate(-119.3 278.5) rotate(-50.7)"/>
        <rect class="cls-32" x="229" y="261.3" width="5.4" height="3.4" transform="translate(-118.6 275) rotate(-50.6)"/>
        <rect class="cls-32" x="226.3" y="259.2" width="5.4" height="3.4" transform="translate(-117.9 272.2) rotate(-50.6)"/>
        <rect class="cls-32" x="223.7" y="257" width="5.4" height="3.4" transform="translate(-117.2 269.6) rotate(-50.6)"/>
        <rect class="cls-32" x="221.1" y="254.9" width="5.4" height="3.4" transform="translate(-116.5 266.5) rotate(-50.6)"/>
        <rect class="cls-32" x="218.4" y="252.7" width="5.4" height="3.4" transform="translate(-115.8 263.7) rotate(-50.6)"/>
        <rect class="cls-21" x="215.8" y="250.5" width="5.4" height="3.4" transform="translate(-115.1 261.5) rotate(-50.7)"/>
        <rect class="cls-35" x="213.2" y="248.4" width="5.4" height="3.4" transform="translate(-114.4 258) rotate(-50.6)"/>
        <rect class="cls-32" x="210.5" y="246.2" width="5.4" height="3.4" transform="translate(-113.7 255.6) rotate(-50.6)"/>
        <rect class="cls-32" x="207.9" y="244" width="5.4" height="3.4" transform="translate(-113 252.7) rotate(-50.6)"/>
        <rect class="cls-32" x="205.2" y="241.9" width="5.4" height="3.4" transform="translate(-112.3 249.5) rotate(-50.6)"/>
        <rect class="cls-32" x="202.6" y="239.7" width="5.4" height="3.4" transform="translate(-111.5 246.7) rotate(-50.6)"/>
        <rect class="cls-32" x="200" y="237.5" width="5.4" height="3.4" transform="translate(-110.8 244.2) rotate(-50.6)"/>
        <rect class="cls-32" x="197.3" y="235.4" width="5.4" height="3.4" transform="translate(-110.1 241.1) rotate(-50.6)"/>
        <rect class="cls-32" x="194.7" y="233.2" width="5.4" height="3.4" transform="translate(-109.4 238.2) rotate(-50.6)"/>
        <rect class="cls-32" x="192.1" y="231" width="5.4" height="3.4" transform="translate(-108.7 236.3) rotate(-50.8)"/>
        <rect class="cls-32" x="189.4" y="228.9" width="5.4" height="3.4" transform="translate(-108 231.9) rotate(-50.5)"/>
        <rect class="cls-32" x="186.8" y="226.7" width="5.4" height="3.4" transform="translate(-107.3 230) rotate(-50.6)"/>
        <rect class="cls-32" x="184.1" y="224.5" width="5.4" height="3.4" transform="translate(-106.6 227.5) rotate(-50.7)"/>
        <rect class="cls-32" x="181.5" y="222.4" width="5.4" height="3.4" transform="translate(-105.9 224.1) rotate(-50.6)"/>
        <polygon class="cls-32" points="178.5 222.9 181.2 225.1 184.6 220.9 182 218.7 178.5 222.9"/>
        <rect class="cls-32" x="176.2" y="218" width="5.4" height="3.4" transform="translate(-104.4 218.7) rotate(-50.6)"/>
        <rect class="cls-32" x="173.6" y="215.9" width="5.4" height="3.4" transform="translate(-103.7 215.9) rotate(-50.6)"/>
        <rect class="cls-32" x="171" y="213.7" width="5.4" height="3.4" transform="translate(-103 213) rotate(-50.6)"/>
        <rect class="cls-32" x="168.3" y="211.5" width="5.4" height="3.4" transform="translate(-102.3 210.3) rotate(-50.6)"/>
        <rect class="cls-32" x="165.7" y="209.4" width="5.4" height="3.4" transform="translate(-101.6 206.8) rotate(-50.5)"/>
        <rect class="cls-32" x="163" y="207.2" width="5.4" height="3.4" transform="translate(-100.9 204.8) rotate(-50.7)"/>
        <rect class="cls-32" x="160.4" y="205" width="5.4" height="3.4" transform="translate(-100.2 201.5) rotate(-50.6)"/>
        <rect class="cls-32" x="157.8" y="202.9" width="5.4" height="3.4" transform="translate(-99.5 198.9) rotate(-50.6)"/>
        <rect class="cls-32" x="155.1" y="200.7" width="5.4" height="3.4" transform="translate(-98.8 195.8) rotate(-50.6)"/>
        <rect class="cls-32" x="152.5" y="198.5" width="5.4" height="3.4" transform="translate(-98.1 193) rotate(-50.6)"/>
        <rect class="cls-32" x="149.9" y="196.4" width="5.4" height="3.4" transform="translate(-97.3 190.4) rotate(-50.6)"/>
        <polygon class="cls-32" points="146.9 196.9 149.5 199.1 153 194.9 150.3 192.8 146.9 196.9"/>
        <rect class="cls-32" x="144.6" y="192.1" width="5.4" height="3.4" transform="translate(-95.9 184.5) rotate(-50.6)"/>
        <rect class="cls-32" x="141.9" y="189.9" width="5.4" height="3.4" transform="translate(-95.2 181.7) rotate(-50.6)"/>
        <rect class="cls-32" x="139.3" y="187.7" width="5.4" height="3.4" transform="translate(-94.5 178.9) rotate(-50.6)"/>
        <rect class="cls-32" x="136.7" y="185.6" width="5.4" height="3.4" transform="translate(-93.8 176.2) rotate(-50.6)"/>
        <rect class="cls-32" x="134" y="183.4" width="5.4" height="3.4" transform="translate(-93.1 173.4) rotate(-50.6)"/>
        <rect class="cls-32" x="131.4" y="181.2" width="5.4" height="3.4" transform="translate(-92.4 170.4) rotate(-50.6)"/>
        <rect class="cls-41" x="128.8" y="179.1" width="5.4" height="3.4" transform="translate(-91.7 168) rotate(-50.7)"/>
        <rect class="cls-25" x="126.1" y="176.9" width="5.4" height="3.4" transform="translate(-91 164.7) rotate(-50.6)"/>
        <polygon class="cls-11" points="269.8 283.9 272.4 286 275.9 281.8 273.2 279.7 269.8 283.9"/>
        <rect class="cls-22" x="123.2" y="153.5" width="5.4" height="3.4" transform="translate(-74 154.1) rotate(-50.6)"/>
        <rect class="cls-44" x="126.7" y="149.4" width="5.4" height="3.4" transform="translate(-69.5 155.1) rotate(-50.6)"/>
        <rect class="cls-36" x="240.8" y="236.1" width="5.4" height="3.4" transform="translate(-94.8 275) rotate(-50.6)"/>
        <rect class="cls-40" x="190.7" y="195" width="5.4" height="3.4" transform="translate(-81.4 221.2) rotate(-50.6)"/>
        <polygon class="cls-18" points="169.3 180.4 171.9 182.5 175.4 178.4 172.7 176.2 169.3 180.4"/>
        <rect class="cls-44" x="130.1" y="145.2" width="5.4" height="3.4" transform="translate(-65 156) rotate(-50.5)"/>
        <polygon class="cls-44" points="267.7 254.2 270.3 256.3 273.7 252.1 271.1 250 267.7 254.2"/>
        <rect class="cls-40" x="194.2" y="190.8" width="5.4" height="3.4" transform="translate(-76.8 222.6) rotate(-50.6)"/>
        <rect class="cls-45" x="138.8" y="145.3" width="5.4" height="3.4" transform="translate(-61.9 163.4) rotate(-50.7)"/>
        <rect class="cls-44" x="133.5" y="141" width="5.4" height="3.4" transform="translate(-60.5 157.5) rotate(-50.6)"/>
        <rect class="cls-44" x="271.4" y="247.3" width="5.4" height="3.4" transform="translate(-92.2 303.1) rotate(-50.6)"/>
        <rect class="cls-40" x="197.6" y="186.6" width="5.4" height="3.4" transform="translate(-72.4 223.5) rotate(-50.6)"/>
        <rect class="cls-44" x="136.9" y="136.8" width="5.4" height="3.4" transform="translate(-56 158.6) rotate(-50.6)"/>
        <rect class="cls-44" x="274.9" y="243.1" width="5.4" height="3.4" transform="translate(-87.8 303.8) rotate(-50.6)"/>
        <rect class="cls-40" x="201" y="182.5" width="5.4" height="3.4" transform="translate(-67.9 224.6) rotate(-50.6)"/>
        <rect class="cls-44" x="140.4" y="132.7" width="5.4" height="3.4" transform="translate(-51.5 159.9) rotate(-50.7)"/>
        <rect class="cls-44" x="278.3" y="238.9" width="5.4" height="3.4" transform="translate(-83.4 304.5) rotate(-50.5)"/>
        <rect class="cls-40" x="204.4" y="178.3" width="5.4" height="3.4" transform="translate(-63.4 225.7) rotate(-50.6)"/>
        <rect class="cls-44" x="143.8" y="128.5" width="5.4" height="3.4" transform="translate(-47.1 160.9) rotate(-50.6)"/>
        <polygon class="cls-17" points="276.1 233.1 278.8 235.3 282.2 231.1 279.6 229 276.1 233.1"/>
        <rect class="cls-9" x="239.5" y="200.1" width="5.4" height="3.4" transform="translate(-67.4 261.1) rotate(-50.6)"/>
        <rect class="cls-27" x="207.9" y="174.1" width="5.4" height="3.4" transform="translate(-59 226.8) rotate(-50.6)"/>
        <rect class="cls-16" x="192.1" y="161.1" width="5.4" height="3.4" transform="translate(-54.7 209.9) rotate(-50.6)"/>
        <rect class="cls-3" x="163" y="137.3" width="5.4" height="3.4" transform="translate(-46.8 179.2) rotate(-50.7)"/>
        <rect class="cls-44" x="147.2" y="124.3" width="5.4" height="3.4" transform="translate(-42.6 162) rotate(-50.6)"/>
        <polygon class="cls-38" points="282.2 231.1 284.8 233.3 288.3 229.1 285.6 226.9 282.2 231.1"/>
        <polygon class="cls-5" points="192.5 157.5 195.2 159.7 198.6 155.5 195.9 153.3 192.5 157.5"/>
        <rect class="cls-10" x="169.1" y="135.3" width="5.4" height="3.4" transform="translate(-43.1 182.7) rotate(-50.6)"/>
        <rect class="cls-33" x="158.6" y="126.6" width="5.4" height="3.4" transform="translate(-40.3 171.4) rotate(-50.6)"/>
        <polygon class="cls-44" points="150.3 122.8 153 125 156.4 120.8 153.7 118.7 150.3 122.8"/>
        <rect class="cls-44" x="154.1" y="116" width="5.4" height="3.4" transform="translate(-33.6 164.5) rotate(-50.7)"/>
        <rect class="cls-15" x="307.8" y="235.2" width="5.4" height="3.4" transform="translate(-69.7 326.4) rotate(-50.6)"/>
        <rect class="cls-6" x="170.7" y="122.6" width="5.4" height="3.4" transform="translate(-32.6 179.8) rotate(-50.7)"/>
        <rect class="cls-34" x="157.5" y="111.8" width="5.4" height="3.4" transform="translate(-29.2 165.2) rotate(-50.6)"/>
        <polygon class="cls-31" points="308.3 231.6 310.9 233.7 314.4 229.6 311.7 227.4 308.3 231.6"/>
        <g>
          <polygon class="cls-13" points="195.4 250.8 192.8 248.6 190.1 246.4 187.5 244.3 184.9 242.1 182.2 239.9 179.6 237.8 177 235.6 174.3 233.4 171.7 231.3 168.3 235.5 170.9 237.6 173.5 239.8 176.2 241.9 178.8 244.1 181.4 246.3 184.1 248.4 186.7 250.6 189.4 252.8 192 254.9 194.6 257.1 197.3 259.3 200.7 255.1 198.1 252.9 195.4 250.8"/>
          <rect class="cls-13" x="130.3" y="166.4" width="5.4" height="3.4" transform="translate(-81.3 164.3) rotate(-50.6)"/>
          <polygon class="cls-13" points="145.3 139.7 141.9 143.9 144.5 146 147.9 141.9 151.4 137.7 148.7 135.5 145.3 139.7"/>
          <polygon class="cls-13" points="290.1 237.6 286.7 241.8 283.2 246 279.8 250.1 276.4 254.3 273 258.5 275.6 260.7 279 256.5 282.5 252.3 285.9 248.1 289.3 244 292.7 239.8 290.1 237.6"/>
          <polygon class="cls-13" points="197 168.2 193.6 172.3 190.1 176.5 186.7 180.7 183.3 184.9 185.9 187 189.4 182.9 192.8 178.7 196.2 174.5 199.6 170.3 203.1 166.2 200.4 164 197 168.2"/>
          <rect class="cls-13" x="287.8" y="232.7" width="5.4" height="3.4" transform="translate(-75 310.3) rotate(-50.6)"/>
          <rect class="cls-13" x="198.1" y="159.1" width="5.4" height="3.4" transform="translate(-50.9 214.1) rotate(-50.6)"/>
          <polygon class="cls-13" points="164.3 127.3 166.9 129.5 170.4 125.3 167.7 123.2 164.3 127.3"/>
          <rect class="cls-13" x="176.8" y="120.6" width="5.4" height="3.4" transform="translate(-28.9 183.5) rotate(-50.6)"/>
        </g>
        <rect class="cls-4" x="306.8" y="220.4" width="5.4" height="3.4" transform="translate(-58.5 320.5) rotate(-50.6)"/>
        <rect class="cls-18" x="230.3" y="157.6" width="5.4" height="3.4" transform="translate(-38 238.1) rotate(-50.6)"/>
        <rect class="cls-37" x="225" y="153.2" width="5.4" height="3.4" transform="translate(-36.5 232.8) rotate(-50.6)"/>
        <rect class="cls-8" x="310.2" y="216.2" width="5.4" height="3.4" transform="translate(-54.1 321.2) rotate(-50.6)"/>
        <rect class="cls-40" x="228.5" y="149.1" width="5.4" height="3.4" transform="translate(-32 233.9) rotate(-50.6)"/>
        <rect class="cls-46" x="175.7" y="105.8" width="5.4" height="3.4" transform="translate(-17.8 177.2) rotate(-50.6)"/>
        <rect class="cls-40" x="231.9" y="144.9" width="5.4" height="3.4" transform="translate(-27.5 235) rotate(-50.6)"/>
        <rect class="cls-40" x="235.3" y="140.7" width="5.4" height="3.4" transform="translate(-23.1 236.1) rotate(-50.6)"/>
        <polygon class="cls-40" points="238.4 139.2 241 141.4 244.5 137.2 241.8 135.1 238.4 139.2"/>
        <rect class="cls-26" x="271.2" y="156.2" width="5.4" height="3.4" transform="translate(-21.6 270.1) rotate(-50.8)"/>
        <rect class="cls-43" x="242.2" y="132.4" width="5.4" height="3.4" transform="translate(-14 238.6) rotate(-50.7)"/>
        <rect class="cls-1" x="229" y="121.5" width="5.4" height="3.4" transform="translate(-10.6 223.9) rotate(-50.6)"/>
        <rect class="cls-39" x="277.2" y="154.2" width="5.4" height="3.4" transform="translate(-18.2 273.1) rotate(-50.6)"/>
        <polygon class="cls-20" points="247.9 133.1 250.5 135.2 254 131 251.3 128.9 247.9 133.1"/>
        <rect class="cls-14" x="297.3" y="156.6" width="5.4" height="3.4" transform="translate(-12.7 289.8) rotate(-50.6)"/>
        <rect class="cls-23" x="298.1" y="150.3" width="5.4" height="3.4" transform="translate(-7.6 287.8) rotate(-50.6)"/>
        <g>
          <polygon class="cls-47" points="166.7 248.1 164 246 161.4 243.8 158 248 154.5 252.1 151.1 256.3 147.7 260.5 144.3 264.7 140.8 268.8 137.4 273 134 277.2 130.5 281.4 127.1 285.6 123.7 289.7 120.3 293.9 116.8 298.1 113.4 302.3 110 306.4 106.5 310.6 103.1 314.8 99.7 319 96.3 323.1 92.8 327.3 89.4 331.5 86 335.7 82.5 339.8 79.1 344 81.7 346.2 84.4 348.4 87 350.5 89.7 352.7 93.1 348.5 96.5 344.3 99.9 340.1 103.4 336 106.8 331.8 110.2 327.6 113.7 323.4 117.1 319.3 120.5 315.1 123.9 310.9 127.4 306.7 130.8 302.6 134.2 298.4 137.7 294.2 141.1 290 144.5 285.9 147.9 281.7 151.4 277.5 154.8 273.3 158.2 269.2 161.7 265 165.1 260.8 168.5 256.6 171.9 252.5 169.3 250.3 166.7 248.1"/>
          <polygon class="cls-47" points="197.3 259.3 193.8 263.4 190.4 267.6 187 271.8 183.5 276 180.1 280.1 176.7 284.3 173.3 288.5 169.8 292.7 166.4 296.9 163 301 159.5 305.2 156.1 309.4 152.7 313.5 149.3 317.7 145.8 321.9 142.4 326.1 139 330.3 135.5 334.4 132.1 338.6 128.7 342.8 125.3 347 121.8 351.1 118.4 355.3 115 359.5 111.6 363.7 108.1 367.8 104.7 372 101.3 376.2 97.8 380.4 100.5 382.5 103.9 378.4 107.3 374.2 110.8 370 114.2 365.8 117.6 361.7 121 357.5 124.5 353.3 127.9 349.1 131.3 345 134.8 340.8 138.2 336.6 141.6 332.4 145 328.2 148.5 324.1 151.9 319.9 155.3 315.7 158.8 311.5 162.2 307.4 165.6 303.2 169 299 172.5 294.8 175.9 290.7 179.3 286.5 182.8 282.3 186.2 278.1 189.6 274 193 269.8 196.5 265.6 199.9 261.4 203.3 257.3 200.7 255.1 197.3 259.3"/>
          <rect class="cls-47" x="258.8" y="208.9" width="5.4" height="3.4" transform="translate(-67.2 279.2) rotate(-50.6)"/>
          <polygon class="cls-47" points="307.5 237.9 310.9 233.7 308.3 231.6 311.7 227.4 309.1 225.2 305.7 229.4 302.2 233.6 304.9 235.8 304.9 235.8 302.2 233.6 298.8 237.8 295.4 241.9 291.9 246.1 288.5 250.3 285.1 254.5 281.7 258.7 278.2 262.8 274.8 267 271.4 271.2 267.9 275.4 264.5 279.5 261.9 277.4 258.5 281.5 261.1 283.7 263.7 285.9 267.2 281.7 269.8 283.9 273.2 279.7 275.9 281.8 279.3 277.7 282.7 273.5 286.1 269.3 289.6 265.1 293 261 296.4 256.8 299.9 252.6 303.3 248.4 306.7 244.3 310.1 240.1 307.5 237.9"/>
          <rect class="cls-47" x="304.1" y="218.2" width="5.4" height="3.4" transform="translate(-57.8 317.7) rotate(-50.6)"/>
          <polygon class="cls-47" points="279 186.6 282.5 182.4 285.9 178.2 289.3 174 292.7 169.9 296.2 165.7 299.6 161.5 297 159.3 300.4 155.2 297.7 153 294.3 157.2 290.9 161.4 287.5 165.5 284 169.7 280.6 173.9 277.2 178.1 273.7 182.2 270.3 186.4 273 188.6 275.6 190.7 279 186.6"/>
          <rect class="cls-47" x="295.4" y="148.1" width="5.4" height="3.4" transform="translate(-6.8 285.3) rotate(-50.6)"/>
        </g>
        <rect class="cls-42" x="242.7" y="104.8" width="5.4" height="3.4" transform="translate(7.4 228.7) rotate(-50.6)"/>
        <rect class="cls-12" x="296.2" y="141.8" width="5.4" height="3.4" transform="translate(-1.6 283.7) rotate(-50.6)"/>
        <g>
          <polygon class="cls-19" points="189.4 322.7 186.7 320.5 184.1 318.4 181.4 316.2 178.8 314 176.2 311.9 172.7 316 169.3 320.2 165.9 324.4 162.5 328.6 159 332.7 155.6 336.9 152.2 341.1 148.7 345.3 145.3 349.4 141.9 353.6 138.4 357.8 135 362 131.6 366.1 128.2 370.3 130.8 372.5 133.4 374.6 136.1 376.8 138.7 379 141.4 381.1 144 383.3 146.6 385.5 150.1 381.3 147.4 379.1 144.8 377 142.1 374.8 145.6 370.6 149 366.4 152.4 362.3 155.1 364.4 157.7 366.6 160.3 368.8 163.8 364.6 161.1 362.4 158.5 360.3 155.9 358.1 159.3 353.9 162.7 349.7 166.1 345.6 168.8 347.7 171.4 349.9 174.1 352.1 177.5 347.9 174.8 345.7 172.2 343.6 169.6 341.4 173 337.2 176.4 333 179.9 328.9 182.5 331 185.1 333.2 187.8 335.4 191.2 331.2 194.6 327 192 324.8 189.4 322.7"/>
          <polygon class="cls-19" points="192 254.9 189.4 252.8 186.7 250.6 184.1 248.4 181.4 246.3 178.8 244.1 176.2 241.9 173.5 239.8 170.9 237.6 168.3 235.5 164.8 239.6 161.4 243.8 164 246 166.7 248.1 169.3 250.3 171.9 252.5 168.5 256.6 165.1 260.8 161.7 265 158.2 269.2 154.8 273.3 151.4 277.5 147.9 281.7 144.5 285.9 141.1 290 137.7 294.2 134.2 298.4 130.8 302.6 127.4 306.7 123.9 310.9 120.5 315.1 117.1 319.3 113.7 323.4 110.2 327.6 106.8 331.8 103.4 336 99.9 340.1 96.5 344.3 93.1 348.5 89.7 352.7 87 350.5 84.4 348.4 81.7 346.2 79.1 344 75.7 348.2 72.3 352.4 68.8 356.5 71.5 358.7 74.1 360.9 76.7 363 79.4 365.2 82 367.4 84.6 369.5 87.3 371.7 89.9 373.9 92.6 376 95.2 378.2 97.8 380.4 101.3 376.2 104.7 372 108.1 367.8 111.6 363.7 115 359.5 118.4 355.3 121.8 351.1 125.3 347 128.7 342.8 132.1 338.6 135.5 334.4 139 330.3 142.4 326.1 145.8 321.9 149.3 317.7 152.7 313.5 156.1 309.4 159.5 305.2 163 301 166.4 296.9 169.8 292.7 173.3 288.5 176.7 284.3 180.1 280.1 183.5 276 187 271.8 190.4 267.6 193.8 263.4 197.3 259.3 194.6 257.1 192 254.9"/>
          <path class="cls-19" d="M306.5,223.1l-2.6-2.2,3.4-4.2-2.6-2.2-2.6-2.2-2.6-2.2-2.6-2.2-2.6-2.2-2.6-2.2-2.6-2.2-2.6-2.2-2.6-2.2-2.6-2.2-2.6-2.2-2.6-2.2-2.6-2.2-2.6-2.2,3.4-4.2,3.4-4.2,3.4-4.2,3.4-4.2,3.4-4.2,3.4-4.2,3.4-4.2,3.4-4.2-2.6-2.2,3.4-4.2-2.6-2.2,3.4-4.2-2.6-2.2-2.6-2.2-2.6-2.2-2.6-2.2-2.6-2.2-2.6-2.2-2.6-2.2-2.6-2.2-2.6-2.2-2.6-2.2-2.6-2.2-2.6-2.2-2.6-2.2-2.6-2.2-3.4,4.2-2.6-2.2-3.4,4.2-2.6-2.2-3.4,4.2-2.6-2.2-3.4,4.2-2.6-2.2-3.4,4.2-3.4,4.2-2.6-2.2-3.4,4.2-3.4,4.2-3.4,4.2-3.4,4.2-2.6-2.2-2.6-2.2-2.6-2.2-2.6-2.2-2.6-2.2-2.6-2.2-2.6-2.2-2.6-2.2-2.6-2.2-2.6-2.2-3.4,4.2-2.6-2.2-3.4,4.2-2.6-2.2-3.4,4.2-2.6-2.2-3.4,4.2-2.6-2.2-3.4,4.2-2.6-2.2-3.4,4.2-3.4,4.2-3.4,4.2-3.4,4.2-3.4,4.2-3.4,4.2-3.4,4.2,2.6,2.2-3.4,4.2,2.6,2.2-3.4,4.2,2.6,2.2-3.4,4.2,2.6,2.2,2.6,2.2,2.6,2.2,2.6,2.2,2.6,2.2,2.6,2.2,2.6,2.2,2.6,2.2,2.6,2.2,2.6,2.2,2.6,2.2,2.6,2.2,2.6,2.2,2.6,2.2,2.6,2.2,2.6,2.2,2.6,2.2,2.6,2.2,2.6,2.2,2.6,2.2,2.6,2.2,2.6,2.2,2.6,2.2,2.6,2.2,2.6,2.2,2.6,2.2,2.6,2.2,2.6,2.2,2.6,2.2,2.6,2.2,2.6,2.2,2.6,2.2,2.6,2.2,2.6,2.2,2.6,2.2,2.6,2.2,2.6,2.2,2.6,2.2,2.6,2.2,2.6,2.2,2.6,2.2,2.6,2.2,2.6,2.2,2.6,2.2,2.6,2.2,2.6,2.2,2.6,2.2,2.6,2.2,3.4-4.2,2.6,2.2,3.4-4.2,3.4-4.2,3.4-4.2,3.4-4.2,3.4-4.2,3.4-4.2,3.4-4.2,3.4-4.2,3.4-4.2,3.4-4.2,3.4-4.2,3.4-4.2,3.4-4.2-2.6-2.2ZM166.1,135.8l2.6,2.2,3.4-4.2,2.6,2.2,2.6,2.2,2.6,2.2,2.6,2.2,2.6,2.2,2.6,2.2,2.6,2.2,2.6,2.2,2.6,2.2,2.6,2.2,2.6,2.2,2.6,2.2-3.4,4.2,2.6,2.2-3.4,4.2-3.4,4.2-3.4,4.2-3.4,4.2-3.4,4.2-2.6-2.2-3.4,4.2-2.6-2.2-2.6-2.2-2.6-2.2-2.6-2.2-2.6-2.2-2.6-2.2-2.6-2.2-2.6-2.2-2.6-2.2-2.6-2.2-2.6-2.2-2.6-2.2,3.4-4.2,3.4-4.2,3.4-4.2,3.4-4.2,3.4-4.2-2.6-2.2,3.4-4.2ZM245.3,130.9l2.6,2.2,3.4-4.2,2.6,2.2,2.6,2.2,2.6,2.2,2.6,2.2,2.6,2.2,2.6,2.2,2.6,2.2,2.6,2.2,2.6,2.2,2.6,2.2,2.6,2.2,2.6,2.2-3.4,4.2-3.4,4.2-3.4,4.2-3.4,4.2-3.4,4.2-3.4,4.2-3.4,4.2-2.6-2.2-2.6-2.2-2.6-2.2-2.6-2.2-2.6-2.2-2.6-2.2-2.6-2.2-2.6-2.2-2.6-2.2-2.6-2.2-2.6-2.2-2.6-2.2-2.6-2.2,3.4-4.2,3.4-4.2,3.4-4.2,3.4-4.2,3.4-4.2,3.4-4.2ZM193.8,193.5l3.4-4.2,3.4-4.2,3.4-4.2,3.4-4.2,3.4-4.2,2.6,2.2,2.6,2.2,2.6,2.2,2.6,2.2,2.6,2.2,2.6,2.2,2.6,2.2,2.6,2.2,2.6,2.2,2.6,2.2,2.6,2.2,2.6,2.2,2.6,2.2-3.4,4.2-3.4,4.2-3.4,4.2-3.4,4.2-3.4,4.2-3.4,4.2-2.6-2.2-2.6-2.2-2.6-2.2-2.6-2.2-2.6-2.2-2.6-2.2-2.6-2.2-2.6-2.2-2.6-2.2-2.6-2.2-2.6-2.2-2.6-2.2-2.6-2.2,3.4-4.2ZM289.3,244l-3.4,4.2-3.4,4.2-3.4,4.2-3.4,4.2-2.6-2.2-3.4,4.2-2.6-2.2-2.6-2.2-2.6-2.2-2.6-2.2-2.6-2.2-2.6-2.2-2.6-2.2-2.6-2.2-2.6-2.2-2.6-2.2-2.6-2.2-2.6-2.2,3.4-4.2,3.4-4.2,3.4-4.2,3.4-4.2,3.4-4.2,3.4-4.2,3.4-4.2,2.6,2.2,2.6,2.2,2.6,2.2,2.6,2.2,2.6,2.2,2.6,2.2,2.6,2.2,2.6,2.2,2.6,2.2,2.6,2.2,2.6,2.2,2.6,2.2-3.4,4.2,2.6,2.2-3.4,4.2Z"/>
        </g>
        <g>
          <polygon class="cls-28" points="170.9 307.5 168.3 305.4 164.8 309.5 161.4 313.7 158 317.9 154.5 322.1 151.1 326.2 147.7 330.4 144.3 334.6 140.8 338.8 137.4 342.9 134 347.1 130.5 351.3 127.1 355.5 123.7 359.6 120.3 363.8 122.9 366 125.5 368.1 128.2 370.3 131.6 366.1 135 362 138.4 357.8 141.9 353.6 145.3 349.4 148.7 345.3 152.2 341.1 155.6 336.9 159 332.7 162.5 328.6 165.9 324.4 169.3 320.2 172.7 316 176.2 311.9 173.5 309.7 170.9 307.5"/>
          <polygon class="cls-28" points="198.8 246.6 196.2 244.4 193.6 242.3 190.9 240.1 188.3 237.9 185.7 235.8 183 233.6 180.4 231.4 177.7 229.3 175.1 227.1 172.5 224.9 169.8 222.8 167.2 220.6 164.6 218.4 161.1 222.6 157.7 226.8 154.3 231 150.8 235.1 147.4 239.3 144 243.5 140.6 247.7 137.1 251.8 133.7 256 130.3 260.2 126.8 264.4 123.4 268.5 120 272.7 116.6 276.9 113.1 281.1 109.7 285.2 106.3 289.4 102.8 293.6 99.4 297.8 96 301.9 92.6 306.1 89.1 310.3 85.7 314.5 82.3 318.7 78.8 322.8 75.4 327 72 331.2 68.6 335.4 65.1 339.5 61.7 343.7 58.3 347.9 60.9 350 63.5 352.2 66.2 354.4 68.8 356.5 72.3 352.4 75.7 348.2 79.1 344 82.5 339.8 86 335.7 89.4 331.5 92.8 327.3 96.3 323.1 99.7 319 103.1 314.8 106.5 310.6 110 306.4 113.4 302.3 116.8 298.1 120.3 293.9 123.7 289.7 127.1 285.6 130.5 281.4 134 277.2 137.4 273 140.8 268.8 144.3 264.7 147.7 260.5 151.1 256.3 154.5 252.1 158 248 161.4 243.8 164.8 239.6 168.3 235.5 171.7 231.3 174.3 233.4 177 235.6 179.6 237.8 182.2 239.9 184.9 242.1 187.5 244.3 190.1 246.4 192.8 248.6 195.4 250.8 198.1 252.9 200.7 255.1 204.1 250.9 201.5 248.7 198.8 246.6"/>
          <polygon class="cls-28" points="235.8 207 232.3 211.2 228.9 215.3 225.5 219.5 222.1 223.7 224.7 225.9 228.1 221.7 231.6 217.5 235 213.3 238.4 209.2 241.8 205 239.2 202.8 235.8 207"/>
          <polygon class="cls-28" points="287.5 235.5 290.9 231.3 288.3 229.1 284.8 233.3 281.4 237.5 284 239.6 280.6 243.8 277.2 248 273.7 252.1 270.3 256.3 267.7 254.2 264.3 258.3 266.9 260.5 269.5 262.7 273 258.5 276.4 254.3 279.8 250.1 283.2 246 286.7 241.8 290.1 237.6 287.5 235.5"/>
          <polygon class="cls-28" points="194.4 166 194.4 166 191.7 163.8 188.3 168 184.9 172.2 181.4 176.4 178 180.5 174.6 184.7 177.2 186.9 179.9 189 183.3 184.9 186.7 180.7 190.1 176.5 193.6 172.3 197 168.2 200.4 164 197.8 161.8 194.4 166"/>
          <rect class="cls-28" x="195.5" y="156.9" width="5.4" height="3.4" transform="translate(-50.1 211.4) rotate(-50.7)"/>
          <polygon class="cls-28" points="183.3 115 180.6 112.8 178 110.6 178 110.6 175.4 108.5 171.9 112.6 169.3 110.5 166.7 108.3 163.2 112.5 159.8 116.7 156.4 120.8 153 125 149.5 129.2 146.1 133.4 142.7 137.5 139.2 141.7 135.8 145.9 132.4 150.1 129 154.2 125.5 158.4 122.1 162.6 124.7 164.8 121.3 168.9 123.9 171.1 126.6 173.3 129.2 175.4 131.9 177.6 135.3 173.4 132.7 171.3 130 169.1 133.4 164.9 136.9 160.7 134.2 158.6 137.7 154.4 141.1 150.2 138.4 148.1 141.9 143.9 145.3 139.7 148.7 135.5 151.4 137.7 154.8 133.5 158.2 129.3 161.7 125.2 164.3 127.3 167.7 123.2 170.4 125.3 173.8 121.1 176.4 123.3 179.9 119.1 182.5 121.3 185.1 123.5 188.6 119.3 185.9 117.1 183.3 115"/>
          <polygon class="cls-28" points="273.5 161.1 270.1 165.2 266.6 169.4 263.2 173.6 259.8 177.8 257.1 175.6 253.7 179.8 256.3 181.9 259 184.1 262.4 179.9 265.8 175.7 269.3 171.6 272.7 167.4 276.1 163.2 279.5 159 276.9 156.9 273.5 161.1"/>
          <polygon class="cls-28" points="277.7 150.5 274.3 154.7 276.9 156.9 280.3 152.7 277.7 150.5"/>
          <polygon class="cls-28" points="250.3 114 252.9 116.2 256.3 112 259 114.2 262.4 110 259.8 107.8 257.1 105.7 253.7 109.9 251.1 107.7 248.4 105.5 245 109.7 242.4 107.5 238.9 111.7 238.9 111.7 236.3 109.5 232.9 113.7 229.4 117.9 226 122.1 222.6 126.3 219.2 130.4 215.7 134.6 212.3 138.8 214.9 140.9 218.4 136.8 221.8 132.6 225.2 128.4 228.6 124.2 232.1 120.1 234.7 122.2 238.1 118 240.8 120.2 244.2 116 246.8 118.2 250.3 114"/>
        </g>
        <rect class="cls-29" x="251.4" y="105" width="5.4" height="3.4" transform="translate(10.5 235.5) rotate(-50.6)"/>
        <rect class="cls-30" x="299.7" y="137.6" width="5.4" height="3.4" transform="translate(3 285.1) rotate(-50.7)"/>
        <g>
          <path class="cls-7" d="M258.5,281.5l-2.6-2.2-3.4,4.2-2.6-2.2-2.6-2.2-2.6-2.2-2.6-2.2-2.6-2.2-2.6-2.2-2.6-2.2-2.6-2.2-2.6-2.2-2.6-2.2-2.6-2.2-2.6-2.2-2.6-2.2-2.6-2.2-2.6-2.2-2.6-2.2-2.6-2.2-2.6-2.2-2.6-2.2-2.6-2.2-2.6-2.2-2.6-2.2-2.6-2.2-2.6-2.2-2.6-2.2-2.6-2.2-2.6-2.2-2.6-2.2-2.6-2.2-2.6-2.2-2.6-2.2-2.6-2.2-2.6-2.2-2.6-2.2-2.6-2.2-2.6-2.2-2.6-2.2-2.6-2.2-2.6-2.2-2.6-2.2-2.6-2.2-2.6-2.2-2.6-2.2-2.6-2.2-2.6-2.2-2.6-2.2-2.6-2.2-2.6-2.2,3.4-4.2-2.6-2.2-2.6-2.2-2.6-2.2,3.4-4.2-2.6-2.2,3.4-4.2-2.6-2.2,3.4-4.2,3.4-4.2,3.4-4.2,3.4-4.2,3.4-4.2,3.4-4.2,3.4-4.2,3.4-4.2,3.4-4.2,3.4-4.2,3.4-4.2-2.6-2.2-3.4,4.2-3.4,4.2-3.4,4.2-3.4,4.2-3.4,4.2-3.4,4.2-3.4,4.2-3.4,4.2-3.4,4.2-3.4,4.2-3.4,4.2-3.4,4.2,2.6,2.2-3.4,4.2,2.6,2.2-3.4,4.2,2.6,2.2,2.6,2.2,2.6,2.2-3.4,4.2,2.6,2.2,2.6,2.2,2.6,2.2,2.6,2.2,2.6,2.2,2.6,2.2,2.6,2.2,2.6,2.2,2.6,2.2,2.6,2.2,2.6,2.2,2.6,2.2,2.6,2.2,2.6,2.2,2.6,2.2,2.6,2.2-3.4,4.2-3.4,4.2-3.4,4.2-3.4,4.2-3.4,4.2-3.4,4.2-3.4,4.2-3.4,4.2-3.4,4.2-3.4,4.2-3.4,4.2-3.4,4.2-3.4,4.2-3.4,4.2-3.4,4.2-3.4,4.2-3.4,4.2-3.4,4.2-3.4,4.2-3.4,4.2-3.4,4.2-3.4,4.2-3.4,4.2-3.4,4.2-3.4,4.2-3.4,4.2-3.4,4.2-3.4,4.2-3.4,4.2-3.4,4.2-3.4,4.2-3.4,4.2,2.6,2.2,2.6,2.2,2.6,2.2,2.6,2.2,2.6,2.2,2.6,2.2,2.6,2.2,2.6,2.2,2.6,2.2,2.6,2.2,2.6,2.2,2.6,2.2,2.6,2.2,2.6,2.2,2.6,2.2,2.6,2.2,2.6,2.2,2.6,2.2,3.4-4.2,3.4-4.2,3.4-4.2,3.4-4.2,3.4-4.2,2.6,2.2,2.6,2.2,2.6,2.2,2.6,2.2,2.6,2.2,2.6,2.2,2.6,2.2,2.6,2.2,2.6,2.2,2.6,2.2,2.6,2.2,3.4-4.2,3.4-4.2,3.4-4.2-2.6-2.2-2.6-2.2,3.4-4.2,2.6,2.2,2.6,2.2,3.4-4.2,3.4-4.2,3.4-4.2-2.6-2.2-2.6-2.2,3.4-4.2,2.6,2.2,2.6,2.2,3.4-4.2,3.4-4.2,3.4-4.2-2.6-2.2-2.6-2.2,3.4-4.2,2.6,2.2,2.6,2.2,3.4-4.2,3.4-4.2,3.4-4.2,3.4-4.2-2.6-2.2-2.6-2.2-2.6-2.2-2.6-2.2-2.6-2.2-2.6-2.2-2.6-2.2-2.6-2.2-2.6-2.2-2.6-2.2-2.6-2.2,3.4-4.2,3.4-4.2,3.4-4.2,3.4-4.2,3.4-4.2,3.4-4.2,3.4-4.2,3.4-4.2,3.4-4.2,3.4-4.2,3.4-4.2,2.6,2.2,2.6,2.2,2.6,2.2,2.6,2.2,2.6,2.2,2.6,2.2,2.6,2.2,2.6,2.2,2.6,2.2,2.6,2.2,2.6,2.2,2.6,2.2,2.6,2.2,2.6,2.2,2.6,2.2,2.6,2.2,3.4-4.2,2.6,2.2,2.6,2.2,3.4-4.2-2.6-2.2-2.6-2.2ZM170.9,307.5l2.6,2.2,2.6,2.2,2.6,2.2,2.6,2.2,2.6,2.2,2.6,2.2,2.6,2.2,2.6,2.2,2.6,2.2-3.4,4.2-3.4,4.2-2.6-2.2-2.6-2.2-2.6-2.2-3.4,4.2-3.4,4.2-3.4,4.2,2.6,2.2,2.6,2.2,2.6,2.2-3.4,4.2-2.6-2.2-2.6-2.2-2.6-2.2-3.4,4.2-3.4,4.2-3.4,4.2,2.6,2.2,2.6,2.2,2.6,2.2-3.4,4.2-2.6-2.2-2.6-2.2-2.6-2.2-3.4,4.2-3.4,4.2-3.4,4.2,2.6,2.2,2.6,2.2,2.6,2.2-3.4,4.2-2.6-2.2-2.6-2.2-2.6-2.2-2.6-2.2-2.6-2.2-2.6-2.2-2.6-2.2-2.6-2.2-2.6-2.2-2.6-2.2,3.4-4.2,3.4-4.2,3.4-4.2,3.4-4.2,3.4-4.2,3.4-4.2,3.4-4.2,3.4-4.2,3.4-4.2,3.4-4.2,3.4-4.2,3.4-4.2,3.4-4.2,3.4-4.2,2.6,2.2ZM203.3,257.3l-3.4,4.2-3.4,4.2-3.4,4.2-3.4,4.2-3.4,4.2-3.4,4.2-3.4,4.2-3.4,4.2-3.4,4.2-3.4,4.2-3.4,4.2-3.4,4.2-3.4,4.2-3.4,4.2-3.4,4.2-3.4,4.2-3.4,4.2-3.4,4.2-3.4,4.2-3.4,4.2-3.4,4.2-3.4,4.2-3.4,4.2-3.4,4.2-3.4,4.2-3.4,4.2-3.4,4.2-3.4,4.2-3.4,4.2-3.4,4.2-2.6-2.2-2.6-2.2-2.6-2.2-2.6-2.2-2.6-2.2-2.6-2.2-2.6-2.2-2.6-2.2-2.6-2.2-2.6-2.2-2.6-2.2-2.6-2.2-2.6-2.2-2.6-2.2-2.6-2.2-2.6-2.2,3.4-4.2,3.4-4.2,3.4-4.2,3.4-4.2,3.4-4.2,3.4-4.2,3.4-4.2,3.4-4.2,3.4-4.2,3.4-4.2,3.4-4.2,3.4-4.2,3.4-4.2,3.4-4.2,3.4-4.2,3.4-4.2,3.4-4.2,3.4-4.2,3.4-4.2,3.4-4.2,3.4-4.2,3.4-4.2,3.4-4.2,3.4-4.2,3.4-4.2,3.4-4.2,3.4-4.2,3.4-4.2,3.4-4.2,3.4-4.2,3.4-4.2,2.6,2.2,2.6,2.2,2.6,2.2,2.6,2.2,2.6,2.2,2.6,2.2,2.6,2.2,2.6,2.2,2.6,2.2,2.6,2.2,2.6,2.2,2.6,2.2,2.6,2.2,2.6,2.2,2.6,2.2,2.6,2.2-3.4,4.2Z"/>
          <polygon class="cls-7" points="267.2 281.7 263.7 285.9 266.4 288 269 290.2 272.4 286 269.8 283.9 267.2 281.7"/>
          <polygon class="cls-7" points="275.3 239.5 271.9 243.6 268.5 247.8 265 252 262.4 249.8 259.8 247.7 257.1 245.5 254.5 243.3 251.9 241.2 249.2 239 246.6 236.8 243.2 241 245.8 243.2 248.4 245.3 251.1 247.5 253.7 249.7 256.3 251.8 259 254 261.6 256.2 264.3 258.3 267.7 254.2 271.1 250 274.5 245.8 278 241.6 281.4 237.5 284.8 233.3 282.2 231.1 278.8 235.3 275.3 239.5"/>
          <polygon class="cls-7" points="185.7 165.8 182.2 170 178.8 174.2 175.4 178.4 171.9 182.5 174.6 184.7 178 180.5 181.4 176.4 184.9 172.2 188.3 168 191.7 163.8 195.2 159.7 192.5 157.5 189.1 161.7 185.7 165.8"/>
          <polygon class="cls-7" points="255 215.8 251.6 220 248.2 224.2 244.7 228.3 241.3 232.5 237.9 236.7 240.5 238.9 243.9 234.7 247.4 230.5 250.8 226.3 254.2 222.1 257.7 218 261.1 213.8 258.4 211.6 255 215.8"/>
          <path class="cls-7" d="M237.4,194.3l-2.6-2.2-2.6-2.2-2.6-2.2-2.6-2.2-2.6-2.2-2.6-2.2-2.6-2.2-2.6-2.2-2.6-2.2-3.4,4.2-3.4,4.2-3.4,4.2-3.4,4.2-3.4,4.2-3.4,4.2,2.6,2.2,2.6,2.2,2.6,2.2,2.6,2.2,2.6,2.2,2.6,2.2,2.6,2.2,2.6,2.2,2.6,2.2,2.6,2.2,2.6,2.2,3.4-4.2,3.4-4.2,3.4-4.2,3.4-4.2,3.4-4.2,3.4-4.2-2.6-2.2-2.6-2.2ZM217.6,213l-2.6-2.2-2.6-2.2-2.6-2.2-2.6-2.2-2.6-2.2-2.6-2.2-2.6-2.2,3.4-4.2,3.4-4.2,3.4-4.2,3.4-4.2,2.6,2.2,2.6,2.2,2.6,2.2,2.6,2.2,2.6,2.2,2.6,2.2,2.6,2.2,2.6,2.2-3.4,4.2-3.4,4.2-3.4,4.2-3.4,4.2-2.6-2.2Z"/>
          <polygon class="cls-7" points="165.4 142.2 161.9 146.4 158.5 150.5 155.1 154.7 151.6 158.9 148.2 163.1 150.8 165.2 153.5 167.4 156.1 169.6 158.8 171.7 161.4 173.9 164 176.1 166.7 178.2 169.3 180.4 172.7 176.2 170.1 174 167.5 171.9 164.8 169.7 162.2 167.5 159.5 165.4 156.9 163.2 154.3 161 157.7 156.9 161.1 152.7 164.6 148.5 168 144.3 171.4 140.2 168.8 138 165.4 142.2"/>
          <polygon class="cls-7" points="283 224.8 280.3 222.6 277.7 220.4 275.1 218.3 272.4 216.1 269.8 213.9 267.2 211.8 264.5 209.6 261.1 213.8 263.7 216 266.4 218.1 269 220.3 271.6 222.5 274.3 224.6 276.9 226.8 279.6 229 282.2 231.1 285.6 226.9 283 224.8"/>
          <polygon class="cls-7" points="193.3 151.2 190.7 149 188 146.8 185.4 144.7 182.8 142.5 180.1 140.3 177.5 138.2 174.8 136 171.4 140.2 174.1 142.3 176.7 144.5 179.3 146.7 182 148.8 184.6 151 187.2 153.2 189.9 155.3 192.5 157.5 195.9 153.3 193.3 151.2"/>
          <polygon class="cls-7" points="313.6 235.9 310.1 240.1 306.7 244.3 303.3 248.4 299.9 252.6 296.4 256.8 293 261 289.6 265.1 286.1 269.3 282.7 273.5 279.3 277.7 275.9 281.8 272.4 286 275.1 288.2 278.5 284 281.9 279.8 285.4 275.7 288.8 271.5 292.2 267.3 295.6 263.1 299.1 259 302.5 254.8 305.9 250.6 309.4 246.4 312.8 242.3 316.2 238.1 313.6 235.9"/>
          <rect class="cls-7" x="311.3" y="231" width="5.4" height="3.4" transform="translate(-65.1 327.8) rotate(-50.6)"/>
          <rect class="cls-7" x="160.9" y="107.6" width="5.4" height="3.4" transform="translate(-24.7 166.3) rotate(-50.6)"/>
          <polygon class="cls-7" points="315.2 223.2 312.5 221.1 309.1 225.2 311.7 227.4 314.4 229.6 317.8 225.4 315.2 223.2"/>
          <polygon class="cls-7" points="171.9 112.6 175.4 108.5 172.7 106.3 170.1 104.1 166.7 108.3 169.3 110.5 171.9 112.6"/>
          <polygon class="cls-7" points="263.2 173.6 266.6 169.4 270.1 165.2 273.5 161.1 270.8 158.9 274.3 154.7 277.7 150.5 275.1 148.4 272.4 146.2 269.8 144 267.2 141.9 264.5 139.7 261.9 137.5 259.2 135.4 256.6 133.2 254 131 250.5 135.2 253.2 137.4 255.8 139.6 258.4 141.7 261.1 143.9 263.7 146 266.4 148.2 269 150.4 271.6 152.5 268.2 156.7 264.8 160.9 261.4 165.1 257.9 169.2 254.5 173.4 251.9 171.3 249.2 169.1 246.6 166.9 243.9 164.8 241.3 162.6 238.7 160.4 236 158.3 232.6 162.4 235.2 164.6 237.9 166.8 240.5 168.9 243.2 171.1 245.8 173.3 248.4 175.4 251.1 177.6 253.7 179.8 257.1 175.6 259.8 177.8 263.2 173.6"/>
          <polygon class="cls-7" points="183.3 115 185.9 117.1 188.6 119.3 191.2 121.5 193.8 123.6 196.5 125.8 199.1 128 201.7 130.1 204.4 132.3 207 134.4 209.7 136.6 212.3 138.8 215.7 134.6 219.2 130.4 222.6 126.3 226 122.1 229.4 117.9 232.9 113.7 236.3 109.5 238.9 111.7 242.4 107.5 245.8 103.4 243.2 101.2 239.7 105.4 237.1 103.2 233.7 107.4 230.2 111.6 226.8 115.7 223.4 119.9 219.9 124.1 216.5 128.3 213.1 132.4 210.4 130.3 207.8 128.1 205.2 125.9 202.5 123.8 199.9 121.6 197.3 119.4 194.6 117.3 192 115.1 189.4 113 186.7 110.8 184.1 108.6 181.4 106.5 178 110.6 180.6 112.8 183.3 115"/>
          <polygon class="cls-7" points="244.5 137.2 241 141.4 237.6 145.6 234.2 149.8 230.8 153.9 227.3 158.1 230 160.3 233.4 156.1 236.8 151.9 240.3 147.8 243.7 143.6 247.1 139.4 250.5 135.2 247.9 133.1 244.5 137.2"/>
          <polygon class="cls-7" points="296.2 165.7 292.7 169.9 289.3 174 285.9 178.2 282.5 182.4 279 186.6 275.6 190.7 278.2 192.9 280.9 195.1 283.5 197.2 286.1 199.4 288.8 201.6 291.4 203.7 294.1 205.9 296.7 208.1 299.3 210.2 302 212.4 304.6 214.6 307.2 216.7 309.9 218.9 313.3 214.7 310.7 212.6 308 210.4 305.4 208.2 302.8 206.1 300.1 203.9 297.5 201.7 294.8 199.6 292.2 197.4 289.6 195.2 286.9 193.1 284.3 190.9 281.7 188.7 285.1 184.6 288.5 180.4 291.9 176.2 295.4 172 298.8 167.9 302.2 163.7 305.7 159.5 303 157.3 299.6 161.5 296.2 165.7"/>
          <rect class="cls-7" x="300.7" y="152.5" width="5.4" height="3.4" transform="translate(-8.3 290.7) rotate(-50.6)"/>
          <polygon class="cls-7" points="303.8 151 307.2 146.8 304.6 144.7 302 142.5 298.5 146.7 301.2 148.8 303.8 151"/>
          <polygon class="cls-7" points="251.1 107.7 254.5 103.5 251.9 101.3 249.2 99.2 245.8 103.4 248.4 105.5 251.1 107.7"/>
          <polygon class="cls-7" points="259.8 107.8 262.4 110 265 112.2 267.7 114.3 270.3 116.5 273 118.7 275.6 120.8 278.2 123 280.9 125.2 283.5 127.3 286.1 129.5 288.8 131.7 291.4 133.8 294.1 136 296.7 138.2 299.3 140.3 302.8 136.2 300.1 134 297.5 131.8 294.8 129.7 292.2 127.5 289.6 125.3 286.9 123.2 284.3 121 281.7 118.8 279 116.7 276.4 114.5 273.7 112.3 271.1 110.2 268.5 108 265.8 105.8 263.2 103.7 260.6 101.5 257.9 99.3 254.5 103.5 257.1 105.7 259.8 107.8"/>
        </g>
      </g>
    </g>
  </g>
</svg>