<?xml version="1.0" encoding="UTF-8"?>
<svg xmlns="http://www.w3.org/2000/svg" version="1.1" viewBox="0 0 622 441">
  <defs>
    <style>
      .cls-1 {
        fill: #825a24;
      }

      .cls-2 {
        fill: #d38d52;
      }

      .cls-3 {
        fill: #936f32;
      }

      .cls-4 {
        fill: #bb833d;
      }

      .cls-5 {
        fill: #b17f3c;
      }
    </style>
  </defs>
  <!-- Generator: Adobe Illustrator 28.6.0, SVG Export Plug-In . SVG Version: 1.2.0 Build 709)  -->
  <g>
    <g id="Layer_1">
      <g>
        <g>
          <g>
            <g>
              <g>
                <g>
                  <rect class="cls-5" x="7.5" y="295.8" width="303.8" height="141.3"/>
                  <polygon class="cls-3" points="311.3 354.3 284.2 354.3 284.2 310.1 171.8 310.1 171.8 328.8 76.9 328.8 76.9 359.4 7.5 359.4 7.5 390.1 91 390.1 91 437.1 136.7 437.1 136.7 374.7 203.4 374.7 203.4 405.4 252.6 405.4 252.6 385 311.3 385 311.3 354.3"/>
                </g>
                <rect class="cls-4" x="252.6" y="373.2" width="46.6" height="22.1"/>
                <rect class="cls-4" x="170.6" y="327.3" width="46.6" height="22.1"/>
                <rect class="cls-4" x="48.8" y="358.8" width="46.6" height="22.1"/>
              </g>
              <rect class="cls-1" x="7.5" y="338.7" width="303.8" height="8"/>
              <rect class="cls-1" x="7.5" y="394.7" width="303.8" height="8"/>
              <rect class="cls-1" x="157.9" y="295.8" width="13.4" height="46.8"/>
              <rect class="cls-1" x="157.9" y="396.4" width="13.4" height="40.7"/>
              <rect class="cls-1" x="60.2" y="343.4" width="13.4" height="52.9"/>
              <rect class="cls-1" x="249" y="343.4" width="13.4" height="52.9"/>
              <path class="cls-1" d="M318,441.1H.8v-149.2h317.3v149.2ZM14.2,433.1h290.4v-133.3H14.2v133.3Z"/>
            </g>
            <rect class="cls-2" x="14.6" y="299.8" width="143.5" height="12.4"/>
          </g>
          <g>
            <g>
              <g>
                <g>
                  <rect class="cls-5" x="310.7" y="295.8" width="303.8" height="141.3"/>
                  <polygon class="cls-3" points="614.5 354.3 587.4 354.3 587.4 310.1 475 310.1 475 328.8 380.1 328.8 380.1 359.4 310.7 359.4 310.7 390.1 394.1 390.1 394.1 437.1 439.8 437.1 439.8 374.7 506.6 374.7 506.6 405.4 555.8 405.4 555.8 385 614.5 385 614.5 354.3"/>
                </g>
                <rect class="cls-4" x="555.8" y="373.2" width="46.6" height="22.1"/>
                <rect class="cls-4" x="473.8" y="327.3" width="46.6" height="22.1"/>
                <rect class="cls-4" x="352" y="358.8" width="46.6" height="22.1"/>
              </g>
              <rect class="cls-1" x="310.7" y="338.7" width="303.8" height="8"/>
              <rect class="cls-1" x="310.7" y="394.7" width="303.8" height="8"/>
              <rect class="cls-1" x="461" y="295.8" width="13.4" height="46.8"/>
              <rect class="cls-1" x="461" y="396.4" width="13.4" height="40.7"/>
              <rect class="cls-1" x="363.4" y="343.4" width="13.4" height="52.9"/>
              <rect class="cls-1" x="552.1" y="343.4" width="13.4" height="52.9"/>
              <path class="cls-1" d="M621.2,441.1h-317.3v-149.2h317.3v149.2ZM317.4,433.1h290.5v-133.3h-290.5v133.3Z"/>
            </g>
            <rect class="cls-2" x="315.2" y="299.8" width="147.4" height="12.4"/>
          </g>
        </g>
        <g>
          <g>
            <g>
              <g>
                <g>
                  <rect class="cls-5" x="7.5" y="150" width="303.8" height="141.3"/>
                  <polygon class="cls-3" points="311.3 208.5 284.2 208.5 284.2 164.3 171.8 164.3 171.8 183 76.9 183 76.9 213.6 7.5 213.6 7.5 244.3 91 244.3 91 291.3 136.7 291.3 136.7 228.9 203.4 228.9 203.4 259.6 252.6 259.6 252.6 239.1 311.3 239.1 311.3 208.5"/>
                </g>
                <rect class="cls-4" x="252.6" y="227.4" width="46.6" height="22.1"/>
                <rect class="cls-4" x="170.6" y="181.5" width="46.6" height="22.1"/>
                <rect class="cls-4" x="48.8" y="213" width="46.6" height="22.1"/>
              </g>
              <rect class="cls-1" x="7.5" y="192.9" width="303.8" height="8"/>
              <rect class="cls-1" x="7.5" y="248.9" width="303.8" height="8"/>
              <rect class="cls-1" x="157.9" y="150" width="13.4" height="46.8"/>
              <rect class="cls-1" x="157.9" y="250.5" width="13.4" height="40.8"/>
              <rect class="cls-1" x="60.2" y="197.6" width="13.4" height="52.9"/>
              <rect class="cls-1" x="249" y="197.6" width="13.4" height="52.9"/>
              <path class="cls-1" d="M318,295.3H.8v-149.3h317.3v149.3ZM14.2,287.3h290.4v-133.3H14.2v133.3Z"/>
            </g>
            <rect class="cls-2" x="14.6" y="154" width="143.5" height="12.4"/>
          </g>
          <g>
            <g>
              <g>
                <g>
                  <rect class="cls-5" x="310.7" y="150" width="303.8" height="141.3"/>
                  <polygon class="cls-3" points="614.5 208.5 587.4 208.5 587.4 164.3 475 164.3 475 183 380.1 183 380.1 213.6 310.7 213.6 310.7 244.3 394.1 244.3 394.1 291.3 439.8 291.3 439.8 228.9 506.6 228.9 506.6 259.6 555.8 259.6 555.8 239.1 614.5 239.1 614.5 208.5"/>
                </g>
                <rect class="cls-4" x="555.8" y="227.4" width="46.6" height="22.1"/>
                <rect class="cls-4" x="473.8" y="181.5" width="46.6" height="22.1"/>
                <rect class="cls-4" x="352" y="213" width="46.6" height="22.1"/>
              </g>
              <rect class="cls-1" x="310.7" y="192.9" width="303.8" height="8"/>
              <rect class="cls-1" x="310.7" y="248.9" width="303.8" height="8"/>
              <rect class="cls-1" x="461" y="150" width="13.4" height="46.8"/>
              <rect class="cls-1" x="461" y="250.5" width="13.4" height="40.8"/>
              <rect class="cls-1" x="363.4" y="197.6" width="13.4" height="52.9"/>
              <rect class="cls-1" x="552.1" y="197.6" width="13.4" height="52.9"/>
              <path class="cls-1" d="M621.2,295.3h-317.3v-149.3h317.3v149.3ZM317.4,287.3h290.5v-133.3h-290.5v133.3Z"/>
            </g>
            <rect class="cls-2" x="315.2" y="154" width="147.4" height="12.4"/>
          </g>
        </g>
        <g>
          <g>
            <g>
              <g>
                <g>
                  <rect class="cls-5" x="7.5" y="3.9" width="303.8" height="141.3"/>
                  <polygon class="cls-3" points="311.3 62.4 284.2 62.4 284.2 18.1 171.8 18.1 171.8 36.9 76.9 36.9 76.9 67.5 7.5 67.5 7.5 98.1 91 98.1 91 145.2 136.7 145.2 136.7 82.8 203.4 82.8 203.4 113.4 252.6 113.4 252.6 93 311.3 93 311.3 62.4"/>
                </g>
                <rect class="cls-4" x="252.6" y="81.3" width="46.6" height="22.1"/>
                <rect class="cls-4" x="170.6" y="35.4" width="46.6" height="22.1"/>
                <rect class="cls-4" x="48.8" y="66.9" width="46.6" height="22.1"/>
              </g>
              <rect class="cls-1" x="7.5" y="46.7" width="303.8" height="8"/>
              <rect class="cls-1" x="7.5" y="102.7" width="303.8" height="8"/>
              <rect class="cls-1" x="157.9" y="3.9" width="13.4" height="46.8"/>
              <rect class="cls-1" x="157.9" y="104.4" width="13.4" height="40.7"/>
              <rect class="cls-1" x="60.2" y="51.5" width="13.4" height="52.9"/>
              <rect class="cls-1" x="249" y="51.5" width="13.4" height="52.9"/>
              <path class="cls-1" d="M318,149.2H.8V0h317.3v149.3ZM14.2,141.2h290.4V7.9H14.2v133.3Z"/>
            </g>
            <rect class="cls-2" x="14.6" y="7.9" width="143.5" height="12.4"/>
          </g>
          <g>
            <g>
              <g>
                <g>
                  <rect class="cls-5" x="310.7" y="3.9" width="303.8" height="141.3"/>
                  <polygon class="cls-3" points="614.5 62.4 587.4 62.4 587.4 18.1 475 18.1 475 36.9 380.1 36.9 380.1 67.5 310.7 67.5 310.7 98.1 394.1 98.1 394.1 145.2 439.8 145.2 439.8 82.8 506.6 82.8 506.6 113.4 555.8 113.4 555.8 93 614.5 93 614.5 62.4"/>
                </g>
                <rect class="cls-4" x="555.8" y="81.3" width="46.6" height="22.1"/>
                <rect class="cls-4" x="473.8" y="35.4" width="46.6" height="22.1"/>
                <rect class="cls-4" x="352" y="66.9" width="46.6" height="22.1"/>
              </g>
              <rect class="cls-1" x="310.7" y="46.7" width="303.8" height="8"/>
              <rect class="cls-1" x="310.7" y="102.7" width="303.8" height="8"/>
              <rect class="cls-1" x="461" y="3.9" width="13.4" height="46.8"/>
              <rect class="cls-1" x="461" y="104.4" width="13.4" height="40.7"/>
              <rect class="cls-1" x="363.4" y="51.5" width="13.4" height="52.9"/>
              <rect class="cls-1" x="552.1" y="51.5" width="13.4" height="52.9"/>
              <path class="cls-1" d="M621.2,149.2h-317.3V0h317.3v149.3ZM317.4,141.2h290.5V7.9h-290.5v133.3Z"/>
            </g>
            <rect class="cls-2" x="315.2" y="7.9" width="147.4" height="12.4"/>
          </g>
        </g>
      </g>
    </g>
  </g>
</svg>