<?xml version="1.0" encoding="UTF-8"?>
<svg id="Layer_1" data-name="Layer 1" xmlns="http://www.w3.org/2000/svg" version="1.1" viewBox="0 0 100 100">
  <defs>
    <style>
      .cls-1 {
        fill: #5494c0;
      }

      .cls-1, .cls-2, .cls-3, .cls-4, .cls-5, .cls-6, .cls-7, .cls-8, .cls-9, .cls-10, .cls-11, .cls-12, .cls-13, .cls-14, .cls-15, .cls-16, .cls-17, .cls-18, .cls-19, .cls-20, .cls-21, .cls-22, .cls-23, .cls-24, .cls-25, .cls-26, .cls-27, .cls-28, .cls-29, .cls-30, .cls-31, .cls-32, .cls-33, .cls-34, .cls-35, .cls-36, .cls-37, .cls-38, .cls-39, .cls-40, .cls-41, .cls-42, .cls-43, .cls-44, .cls-45, .cls-46, .cls-47, .cls-48, .cls-49, .cls-50, .cls-51, .cls-52, .cls-53, .cls-54, .cls-55, .cls-56, .cls-57, .cls-58, .cls-59, .cls-60, .cls-61, .cls-62, .cls-63, .cls-64, .cls-65, .cls-66, .cls-67, .cls-68, .cls-69, .cls-70, .cls-71, .cls-72, .cls-73, .cls-74, .cls-75, .cls-76, .cls-77, .cls-78, .cls-79, .cls-80, .cls-81, .cls-82, .cls-83, .cls-84, .cls-85, .cls-86, .cls-87, .cls-88, .cls-89, .cls-90, .cls-91, .cls-92, .cls-93, .cls-94, .cls-95, .cls-96, .cls-97, .cls-98, .cls-99, .cls-100, .cls-101, .cls-102, .cls-103, .cls-104, .cls-105, .cls-106, .cls-107, .cls-108, .cls-109, .cls-110, .cls-111, .cls-112, .cls-113, .cls-114, .cls-115, .cls-116, .cls-117, .cls-118, .cls-119, .cls-120, .cls-121, .cls-122, .cls-123, .cls-124, .cls-125, .cls-126, .cls-127, .cls-128, .cls-129, .cls-130, .cls-131, .cls-132, .cls-133, .cls-134, .cls-135, .cls-136, .cls-137, .cls-138, .cls-139, .cls-140, .cls-141, .cls-142, .cls-143, .cls-144, .cls-145, .cls-146, .cls-147, .cls-148, .cls-149, .cls-150, .cls-151, .cls-152, .cls-153, .cls-154, .cls-155, .cls-156, .cls-157, .cls-158, .cls-159, .cls-160, .cls-161, .cls-162, .cls-163, .cls-164, .cls-165, .cls-166, .cls-167, .cls-168, .cls-169, .cls-170, .cls-171, .cls-172, .cls-173, .cls-174, .cls-175, .cls-176, .cls-177, .cls-178, .cls-179, .cls-180, .cls-181, .cls-182, .cls-183, .cls-184 {
        stroke-width: 0px;
      }

      .cls-2 {
        fill: #5d8eb6;
      }

      .cls-3 {
        fill: #4380a9;
      }

      .cls-4 {
        fill: #2f7099;
      }

      .cls-5 {
        fill: #255f90;
      }

      .cls-6 {
        fill: #2f719e;
      }

      .cls-7 {
        fill: #10324d;
      }

      .cls-8 {
        fill: #195a8d;
      }

      .cls-9 {
        fill: #559fc6;
      }

      .cls-10 {
        fill: #0f5380;
      }

      .cls-11 {
        fill: #3b759d;
      }

      .cls-12 {
        fill: #4381b0;
      }

      .cls-13 {
        fill: #6ba8cf;
      }

      .cls-14 {
        fill: #153b5a;
      }

      .cls-15 {
        fill: #346f9c;
      }

      .cls-16 {
        fill: #00182e;
      }

      .cls-17 {
        fill: #5798bf;
      }

      .cls-18 {
        fill: #4a8ab2;
      }

      .cls-19 {
        fill: #0b2c47;
      }

      .cls-20 {
        fill: #082540;
      }

      .cls-21 {
        fill: #205e89;
      }

      .cls-22 {
        fill: #276188;
      }

      .cls-23 {
        fill: #437c9c;
      }

      .cls-24 {
        fill: #39739a;
      }

      .cls-25 {
        fill: #6a96bd;
      }

      .cls-26 {
        fill: #6596b7;
      }

      .cls-27 {
        fill: #3d81ae;
      }

      .cls-28 {
        fill: #2d6b97;
      }

      .cls-29 {
        fill: #081e32;
      }

      .cls-30 {
        fill: #2a6e9d;
      }

      .cls-31 {
        fill: #0d2030;
      }

      .cls-32 {
        fill: #2b6e9e;
      }

      .cls-33 {
        fill: #2b6d98;
      }

      .cls-34 {
        fill: #091c2e;
      }

      .cls-35 {
        fill: #09263f;
      }

      .cls-36 {
        fill: #103151;
      }

      .cls-37 {
        fill: #5493bb;
      }

      .cls-38 {
        fill: #30719e;
      }

      .cls-39 {
        fill: #5280a0;
      }

      .cls-40 {
        fill: #2b6c9c;
      }

      .cls-41 {
        fill: #4589b5;
      }

      .cls-42 {
        fill: #619fcb;
      }

      .cls-43 {
        fill: #316d98;
      }

      .cls-44 {
        fill: #2b7098;
      }

      .cls-45 {
        fill: #4789b5;
      }

      .cls-46 {
        fill: #0a1c34;
      }

      .cls-47 {
        fill: #387ea9;
      }

      .cls-48 {
        fill: #448ab4;
      }

      .cls-49 {
        fill: #325672;
      }

      .cls-50 {
        fill: #5c9bc8;
      }

      .cls-51 {
        fill: #276693;
      }

      .cls-52 {
        fill: #3679a5;
      }

      .cls-53 {
        fill: #071f34;
      }

      .cls-54 {
        fill: #6095be;
      }

      .cls-55 {
        fill: #0b1d2e;
      }

      .cls-56 {
        fill: #3b79ac;
      }

      .cls-57 {
        fill: #5499c2;
      }

      .cls-58 {
        fill: #36749e;
      }

      .cls-59 {
        fill: #051f36;
      }

      .cls-60 {
        fill: #0b2239;
      }

      .cls-61 {
        fill: #5391b7;
      }

      .cls-62 {
        fill: #4d8dba;
      }

      .cls-63 {
        fill: #216293;
      }

      .cls-64 {
        fill: #5e9ccc;
      }

      .cls-65 {
        fill: #255f86;
      }

      .cls-66 {
        fill: #0f5584;
      }

      .cls-67 {
        fill: #245c85;
      }

      .cls-68 {
        fill: #2a6d97;
      }

      .cls-69 {
        fill: #5c91bb;
      }

      .cls-70 {
        fill: #235e8d;
      }

      .cls-71 {
        fill: #386c93;
      }

      .cls-72 {
        fill: #3c627d;
      }

      .cls-73 {
        fill: #5b90b6;
      }

      .cls-74 {
        fill: #5691ba;
      }

      .cls-75 {
        fill: #042139;
      }

      .cls-76 {
        fill: #34729a;
      }

      .cls-77 {
        fill: #4e7ea2;
      }

      .cls-78 {
        fill: #5d98bd;
      }

      .cls-79 {
        fill: #316b9f;
      }

      .cls-80 {
        fill: #2f6e9b;
      }

      .cls-81 {
        fill: #73a4c5;
      }

      .cls-82 {
        fill: #0f3250;
      }

      .cls-83 {
        fill: #3b779e;
      }

      .cls-84 {
        fill: #4889b2;
      }

      .cls-85 {
        fill: #38688d;
      }

      .cls-86 {
        fill: #112a40;
      }

      .cls-87 {
        fill: #226189;
      }

      .cls-88 {
        fill: #4c80a6;
      }

      .cls-89 {
        fill: #346f9a;
      }

      .cls-90 {
        fill: #2c6e9d;
      }

      .cls-91 {
        fill: #12517b;
      }

      .cls-92 {
        fill: #5394be;
      }

      .cls-93 {
        fill: #3e759d;
      }

      .cls-94 {
        fill: #14517b;
      }

      .cls-95 {
        fill: #397ba8;
      }

      .cls-96 {
        fill: #074872;
      }

      .cls-97 {
        fill: #5b8aa7;
      }

      .cls-98 {
        fill: #0b1e32;
      }

      .cls-99 {
        fill: #133d58;
      }

      .cls-100 {
        fill: #145077;
      }

      .cls-101 {
        fill: #081d31;
      }

      .cls-102 {
        fill: #246897;
      }

      .cls-103 {
        fill: #5597c1;
      }

      .cls-104 {
        fill: #3274a3;
      }

      .cls-105 {
        fill: #6197c0;
      }

      .cls-106 {
        fill: #2e739a;
      }

      .cls-107 {
        fill: #081d34;
      }

      .cls-108 {
        fill: #4580a7;
      }

      .cls-109 {
        fill: #5392bb;
      }

      .cls-110 {
        fill: #2c6c96;
      }

      .cls-111 {
        fill: #0c2032;
      }

      .cls-112 {
        fill: #071f31;
      }

      .cls-113 {
        fill: #0c4f7b;
      }

      .cls-114 {
        fill: #0c1c2d;
      }

      .cls-115 {
        fill: #326f9c;
      }

      .cls-116 {
        fill: #1d6094;
      }

      .cls-117 {
        fill: #5289b3;
      }

      .cls-118 {
        fill: #0b2941;
      }

      .cls-119 {
        fill: #69a3cb;
      }

      .cls-120 {
        fill: #0a2c48;
      }

      .cls-121 {
        fill: #236795;
      }

      .cls-122 {
        fill: #091d2e;
      }

      .cls-123 {
        fill: #2f6992;
      }

      .cls-124 {
        fill: #091e2b;
      }

      .cls-125 {
        fill: #054a78;
      }

      .cls-126 {
        fill: #508cb4;
      }

      .cls-127 {
        fill: #24668f;
      }

      .cls-128 {
        fill: #5297c5;
      }

      .cls-129 {
        fill: #2d75a5;
      }

      .cls-130 {
        fill: #245b82;
      }

      .cls-131 {
        fill: #4f91c1;
      }

      .cls-132 {
        fill: #345a77;
      }

      .cls-133 {
        fill: #4c89b5;
      }

      .cls-134 {
        fill: #092d4a;
      }

      .cls-135 {
        fill: #315b7e;
      }

      .cls-136 {
        fill: #5a95be;
      }

      .cls-137 {
        fill: #2d6f9a;
      }

      .cls-138 {
        fill: #5a99c4;
      }

      .cls-139 {
        fill: #5599c3;
      }

      .cls-140 {
        fill: #215f85;
      }

      .cls-141 {
        fill: #3e789d;
      }

      .cls-142 {
        fill: #345d7e;
      }

      .cls-143 {
        fill: #4e8eba;
      }

      .cls-144 {
        fill: #062741;
      }

      .cls-145 {
        fill: #4d87b1;
      }

      .cls-146 {
        fill: #4685af;
      }

      .cls-147 {
        fill: #62a6d5;
      }

      .cls-148 {
        fill: #2c6b95;
      }

      .cls-149 {
        fill: #35749f;
      }

      .cls-150 {
        fill: #3a76a4;
      }

      .cls-151 {
        fill: #336890;
      }

      .cls-152 {
        fill: #3a81af;
      }

      .cls-153 {
        fill: #406885;
      }

      .cls-154 {
        fill: #4d82ac;
      }

      .cls-155 {
        fill: #6092b7;
      }

      .cls-156 {
        fill: #417095;
      }

      .cls-157 {
        fill: #33719c;
      }

      .cls-158 {
        fill: #316b90;
      }

      .cls-159 {
        fill: #326a91;
      }

      .cls-160 {
        fill: #4d89b3;
      }

      .cls-161 {
        fill: #255070;
      }

      .cls-162 {
        fill: #4483ae;
      }

      .cls-163 {
        fill: #426580;
      }

      .cls-164 {
        fill: #438cbb;
      }

      .cls-165 {
        fill: #3475a1;
      }

      .cls-166 {
        fill: #2b6d97;
      }

      .cls-167 {
        fill: #093150;
      }

      .cls-168 {
        fill: #4d83a9;
      }

      .cls-169 {
        fill: #1f5c84;
      }

      .cls-170 {
        fill: #5688b1;
      }

      .cls-171 {
        fill: #0b1e2d;
      }

      .cls-172 {
        fill: #286895;
      }

      .cls-173 {
        fill: #0b2b47;
      }

      .cls-174 {
        fill: #4582ab;
      }

      .cls-175 {
        fill: #276691;
      }

      .cls-176 {
        fill: #316b99;
      }

      .cls-177 {
        fill: #477fa9;
      }

      .cls-178 {
        fill: #5697c6;
      }

      .cls-179 {
        fill: #325b7c;
      }

      .cls-180 {
        fill: #0c1d34;
      }

      .cls-181 {
        fill: #437ba2;
      }

      .cls-182 {
        fill: #082236;
      }

      .cls-183 {
        fill: #104f79;
      }

      .cls-184 {
        fill: #4782a8;
      }
    </style>
  </defs>
  <path class="cls-135" d="M87.1,97.4c-2.1,1.5-4.6,1.5-7,1.5-19.1,0-38.3,0-57.4,0-4.1,0-8.4.2-12-2.4,1.2-1.7,2.9-1.9,4.7-1.8.5,0,1,.2,1.5.3,17.6.6,35.1,0,52.7.2,5.5,0,10.9-.3,16.3,1.2.5.2.9.6,1.3,1Z"/>
  <path class="cls-130" d="M18.5,1.1c19.6,0,39.3,0,58.9,0,1.7.9,3.5.3,5.3.5,1.8.2,2.7.8,1.4,2.6-1.9,1.1-3.9.7-5.9.7-14.5,0-29,0-43.6,0-7.3,0-14.6-.4-21.8,1.3-.7-.2-1.4-.4-1.7-1.2-.6-2.4,2.2-1.9,2.9-3.2h0c1.4-.7,3.1.3,4.5-.7Z"/>
  <path class="cls-179" d="M11.6,3.8c0,.6,0,1.1,0,1.7-.2,2.5-3,2.6-4.1,4.5-1.2,2.1-2.5,4.1-3.3,6.4-.3.7-.6,1.3-.8,2-.4,19.6,0,39.2-.2,58.8,0,2.1.5,4.4-1.2,6.2-1,.5-1.1-.3-1.3-1-.2-1.1.3-2.3-.5-3.3-.4-8.3-.4-16.6,0-24.9-.5-8.5-.5-17.1,0-25.6C0,23.8-.4,19,1,14.2c1.4-4.8,3.9-8.4,8.5-10.6.7-.2,1.4-.4,2.1.2Z"/>
  <path class="cls-142" d="M96.6,9.6c3,2.5,3.1,6.1,3.3,9.4.5,8.5.6,16.9.1,25.4-1.1,2.9-.4,6-.5,8.9-.1,8.9,0,17.8,0,26.8,0,1.5.4,3.2-1.4,4.2-.6.2-1.1,0-1.4-.6-.9-2-.6-4.2-.6-6.4,0-20.1,0-40.2,0-60.3,0-.5-.1-1-.3-1.4-.1-.7-.2-1.3-.2-2,.3-1.4-.3-2.9.9-4.1Z"/>
  <path class="cls-49" d="M1.2,83.4c1.4-1.3.8-3,.8-4.5,0-19.1,0-38.2,0-57.3,0-1.7-.6-3.5.8-4.9,1.8,1.7,1.3,4,1.3,6.1.1,19.7-.1,39.3.1,59,.9,6.4,4.9,10.2,10.7,12.5.3.3.4.7.2,1.2-1.5.3-3,.6-4.5.9-4.8-2.3-8.8-5.2-9.6-10.9-.2-.7-.4-1.4.2-2Z"/>
  <path class="cls-132" d="M96.6,9.6c-.2,1.2.8,2.5-.1,3.8-1.5.3-1.9-1.1-2.7-1.8-.2-.3-.4-.6-.6-.9-.6-1.1-1.4-2.1-2.5-2.8-1.3-.8-2.8-1.1-4.2-1.3-1-.2-2-.4-2.5-1.6,0-.4,0-.8.4-1.1-.2-1.9-1.6-1.7-2.9-1.8-1.4,0-2.9.5-4-.8,7.8-.4,15,.7,19.2,8.4Z"/>
  <path class="cls-72" d="M97.4,84.3c2.2-1.1,1.7-3.1,1.7-4.9,0-10.2,0-20.3,0-30.5,0-1.5-.6-3.2.9-4.4,0,12.2.2,24.4,0,36.6,0,2.7-.8,5.3-2.7,7.5-1.2-1.4-1.2-2.8,0-4.2Z"/>
  <path class="cls-72" d="M96.6,89.4c-1.9,4.1-5,6.8-9.5,7.9,0,0-.3-.3-.3-.3-.3-1.1,1.9-1.5.9-2.9,1.6-2.1,3.5-3.8,6-4.7,1-.2,1.9-.7,2.9,0Z"/>
  <path class="cls-163" d="M.2,28.6c0,8.5,0,17.1,0,25.6-.7-8.5-.7-17.1,0-25.6Z"/>
  <path class="cls-142" d="M96.6,89.4c-.9.3-1.8.6-2.8.8-.4-2.5,1.1-4.2,2.4-6.1.4-.2.8-.2,1.1,0,0,0,0,0,0,0,0,1.4,0,2.8,0,4.2-.3.3-.5.6-.8,1Z"/>
  <path class="cls-163" d="M1.2,83.4c0,.7-.1,1.4-.2,2-1.4-2-1-4.2-.8-6.4,1.5,1.2.7,2.9.9,4.3Z"/>
  <path class="cls-153" d="M11.6,3.8c-.7,0-1.4-.1-2.1-.2,1.5-.7,2.8-1.9,4.6-1.7.4,2.2-1.9,1-2.5,1.9Z"/>
  <path class="cls-153" d="M18.5,1.1c-1.3,1.4-2.9.8-4.5.8,1.4-.9,2.9-.7,4.5-.8Z"/>
  <path class="cls-75" d="M96.5,84.3c-.3,2.3-1.8,4-2.7,6-2,1.4-4,2.9-6,4.3-1.2,1.2-2.6,1.8-4.3,1.7-21.7-.9-43.4-.1-65.2-.4-.9,0-1.7.1-2.5-.4-.3,0-.5,0-.8,0,0-.3-.1-.5-.2-.8,1.5-1.6,3.4-1.2,5.3-1.2,7.3,0,14.6,0,21.9,0,10.4,0,20.7-.4,31.1.1,7.5.3,13.4-2.3,18.6-7.3,1.4-1.5,1.7-3.3,1.7-5.2,0-17.5,0-34.9,0-52.4,0-1.4-.3-2.9-.5-4.3-.2-2.2-.3-4.3,0-6.5.6-1.6,0-2.9-.7-4.3-.5-1.1-1.1-2.3.5-3.2.4,0,.8,0,1.2.4h0c1,1.3,1.5,3,2.6,4.3h0c.6.9.4,1.9.4,2.9,0,21.1,0,42.3,0,63.4,0,1,.2,2-.4,2.9Z"/>
  <path class="cls-161" d="M15.9,95.5c21.6,0,43.2,0,64.7.1,2.5,0,4.8-.9,7.2-1,.9,1.3-.2,1.9-1,2.5-22.9-1.5-45.8-.4-68.6-.7-.9,0-1.7,0-2.3-.9Z"/>
  <path class="cls-20" d="M84.4,3.7c0,.3,0,.6,0,.9-2.3,2-5.2,1.3-7.8,1.3-17.7,0-35.3.2-53-.1-1,0-2,0-3,.2-1.5.6-3.2.4-4.8.9-3.2.5-5.8,2-7.4,4.9-.9,1.4-1.8,2.9-3.1,4-.3.2-.7.3-1.1.3-.2-.1-.3-.2-.5-.3.8-4.8,3.7-8.1,7.9-10.3,8.6-2.5,17.4-1.6,26.1-1.7,15.6,0,31.1,0,46.7,0Z"/>
  <path class="cls-86" d="M3.7,83.4c-1.5-1.4-.9-3.3-.9-4.9,0-20.6,0-41.2,0-61.7.3-.3.6-.6.8-.9,0,0,.1,0,.1,0,2.2,3.3.7,7,1.2,10.6,0,13.7,0,27.3,0,41-.1,3.8,0,7.6,0,11.4,0,1.6.2,3.3-1.2,4.6Z"/>
  <path class="cls-120" d="M96.5,84.3c0-23.1,0-46.2,0-69.3,1.2,1,.9,2.4.9,3.6,0,21.9,0,43.7,0,65.6-.3,0-.5,0-.8,0Z"/>
  <path class="cls-120" d="M96.5,15c-1.8-.9-2.3-2.5-2.6-4.3.9.9,1.7,1.8,2.6,2.7,0,.6,0,1.1,0,1.7Z"/>
  <path class="cls-59" d="M3.7,83.4c0-1.4,0-2.9,0-4.3.3-.3.7-.3,1-.1,1.4,1.6,1.3,4,2.8,5.4.4.4.9.7,1.3,1,1.2.8,2.1,1.9,2.7,3.2,2,3.2,5.6,2.8,8.6,3.7,6,.4,12,.2,18,.4,1.7,0,3.9-.6,4.5,2-9.3,0-18.5,0-27.8,0-6.5-1.2-10.1-4.9-11.2-11.3Z"/>
  <path class="cls-53" d="M19.3,5.5c1.3-1.4,3-.8,4.5-.8,20.2,0,40.3,0,60.5,0,.7.9,1.7.8,2.6.9.4,1.1-.2,1.7-1,2.3-3.2,2.1-6.6,2.8-10.2,1.2-2.5-1.1-4.8-.1-7,1-6.6,1.2-13.2,0-19.7.1-9.9,0-19.8.1-29.7,0-1.9,0-4.7.7-4.6-2.8,3.1-2,6.6-.3,9.4-1-1.3-.3-3.2.7-4.8-.8Z"/>
  <path class="cls-144" d="M86.1,7.2c.3-.6.6-1.1.9-1.7,1.5.4,3.2.5,4.3,1.8.2.2.3.5.2.7,0,.2-.2.3-.2.3-1.5.7-2.8,0-4.2-.4-.4-.2-.7-.4-1-.8Z"/>
  <path class="cls-120" d="M91.3,8.1c0-.3,0-.5,0-.8,1.5.7,2.5,1.7,2.6,3.4-.3,0-.6,0-.9,0-1-.6-2.3-1-1.7-2.6Z"/>
  <path class="cls-101" d="M42.8,94.7c-1.6-1.6-3.5-.7-5.3-.8-6-.3-12.1.6-18.1-.9.9-2.7,3.1-2.1,5.1-1.9,5.3.7,10.5.5,15.8-.5-9.9.2-19.8-.8-29.6-2-.6-1.2-1.4-2-2.6-2.6.6-2.5,3.7-3.5,3.7-6.4.7-3,2.3-5.2,5.6-5.7,3.4.8,6.7,2.1,9.9,1.1-.2,0-.8-.3-1.2-1,0-1.7,1-2.5,2.4-2.3,4.9.5,6.7-2.8,8.3-6.4,1.8-2,3.2-4,.4-6.3-.2-.9.1-1.7.9-2.2,1.2-.7,2.3-1.1,3.5.1.7.3.8,2,1,1.4.6-1.5,3.3.9,2.7-1.7.7-1,1.7-1.6,2.8-2.1,3.1,1.1,4.4,3.9,5.8,6.4.6,1,1,.4,1.5.6,3,1.3.1,5,2.6,6.5,1,.4,2.1.5,3.2.6.6,0,1.1,0,1.7,0,1.3.2,2.5.5,3.9.3,1.1,0,2.2.3,3.4.4,2.3.4,4.4-.5,6.4-1.1,1,0,.7-.7.7-1.3,0-.4.2-.7.5-1,1.3-.6,2.6-.2,3.9-.4,2.1-.4,4,1.8,6.2.4,0-1.9-1.6-1.5-2.5-1.8-1-.3-2.4-.6-2.4-1.5-.1-3.7,3.5-3.5,5.6-4.9,1.5-.9,3.3-1.2,3.7,1.1.7,4.7.7,9.4,0,14.2,0,.6-.5,1.2-1,1.4-3.6,1.4-2.9,4-1.9,6.6-.6,2.7.9,3.9,3.1,4.8.2.4.2.7,0,1.1-3.9,4.7-8.5,7.9-15,7.8-11.5-.1-22.9,0-34.4,0Z"/>
  <path class="cls-29" d="M92.2,86.9v-.9c.1-2.5-1.3-3.7-3.5-4.3-.6-1.2-1.2-2.3-1.7-3.5-.9-1.8-1.4-3.2,1.5-3.6,1.9-.2,3-1.4,2.9-3.6-.1-4.3,0-8.6,0-12.7-1.7-1-2.3.6-3.3.9-1.7.5-4.6.6-4.5,2.6,0,2.5,2.7.6,4.2,1.2,1.4.5,2,1.4,1.9,3-.1,1.5-1.1,1.7-2.4,1.9-2.4.4-4.1-1.5-6.3-1.8-.9-1.1-2.6-.8-3.6-1.6-.3-.5-.3-1.1,0-1.6.7-1.1,2.4-1,2.9-2.4,1.3-3.1-1.5-3.9-3-5.4-.3-.5-.6-1-.7-1.6-.4-2-1.6-2.9-3.6-2.9-.6-.1-1.2-.4-1.6-.9-.5-2.8,1.9-3,3.5-4,.8-.3,1.7-.4,2.5-.4,4.4-.8,1.3-3.2,1-5-1.3-1.6-3.2-1.2-4.9-1.7-2.6-.7-5.3-1.3-8-.3-.8.5-1.5,1.3-2.4,1.7-.8.3-1.6.4-2.4.5-.6,0-1.3.1-1.9-.1-.4-3.9,1.6-6.9,5.2-7.9,1.1-.3,2.6.4,3.4-1,3.6-2.9,8.1-1.1,12.1-2.5,2.8-1,3.8-1.9,3.3-4.8-.4-2.3-.2-4.6-.2-6.9,0-3.2,1.2-5.3,4.6-5.7,1.1,0,2.2,0,3.2.5,0,3.3-2.2,6.2-1.4,8.7.2-1.5,3-2,3.8-4,.5,0,.8.1,1,.6.3,2.2-.5,4.4.5,6.5.9,1.4.9,3,.9,4.6,0,17.1,0,34.2,0,51.3,0,2.1-.3,4.2-.6,6.3-.1,1.3-1.3.8-2,.9Z"/>
  <path class="cls-53" d="M91.3,8.1c.6.9,1.2,1.7,1.7,2.6-1.7,2.3,2.5,3.8.9,6.1-.3.4-.6.4-.9,0h0c-1.3-1-2-2.4-2.2-4-.6-2.1-2.6-3.1-4.1-4.5-.2-.4-.1-.7.2-1,1.4.3,2.9.6,4.3.9Z"/>
  <path class="cls-107" d="M93,16.7c.3,0,.6,0,.9,0,0,2.3,0,4.6,0,6.9-1.7-2.1-.5-4.6-.9-6.9Z"/>
  <path class="cls-122" d="M12.4,79.9c.2,3.2-1.7,4.9-4.3,6.1-.3-.3-.6-.6-.9-.9-.3-.9-1-2.1-.4-2.9,4.2-4.5,2.1-10,2.6-15.2-.2-14.2.2-28.3,0-42.5-.5-4.4-.5-8.9-2.2-13.1,1.8-2.9,3.9-5.4,7.8-5.2.2.2.3.4.2.6,0,.2-.1.3-.2.3.6,2.6,2.7,1.7,4.2,1.7,11.4,0,22.8,0,34.2,0,5.1,0,10.2,1.2,15.3,0,1.2.7,2.8,1.3,1.3,3.2-3.6,1.4-7.5,0-11.2,1-.4.1-.8.2-1.3.3-4.3.8-9-1-12.9,2.4-.8.7-1.8-.3-2.5-1.1-3.3-3.5-8.5-4.1-12.3-1.2-1.5,1.1-3,1.7-4.8,1.7-2.4,0-4.5.7-6.5,2-1,.7-2,2.1-3.4,1.3-1.4-.8-.6-2.3-.7-3.6,0-.3.1-.7,0-1.1-.1,1.5-.4,2.9-.3,4.4q.2,5.6,5.8,6.4c2.9.4,3.3,2,1,5.2-1,.5-2.8-1.2-3.2.9-.6,2.9,2.3,2.3,3.6,3.3,1.9,2.4,2.3,4.8-.7,6.5-1.3.8-1.3,1.6-1.2,2.8.4,4.2.1,8.3-1.2,12.3-.9,2.9-.5,6-.2,9,.1,1.3.4,3.2-.8,3.6-5.2,1.6-3.3,6.3-4.5,9.6-.2.6,0,1.4-.5,2Z"/>
  <path class="cls-101" d="M10.7,67.8c0,2.6,0,5.2,0,7.8-.1,2.4,1,5.4-2.7,6.4-.5.1-.5,2-.7,3.1-2.3-1.4-2.2-3.8-2.6-6.1-1.2-3.7.4-7.6-.9-11.3,0-13.9,0-27.7,0-41.6,1.2-3.4-.3-7,.9-10.4.9-1.4,1.7-2.9,2.6-4.3,1.6.9,2.8,2.1,2.6,4.1-.3,2.8.6,5.4.9,8-1.6.7-1.8,2.4-2.6,3.7-1.1,4.4-.4,8.8-.5,13.2-.2,7.3.3,14.6-.3,21.2,0-.1,0-.9.6-1.6,2.6-.4,1.7,1.6,1.9,2.8.3,1.6-.4,3.4.9,4.9Z"/>
  <path class="cls-114" d="M15,7.2c0-.3,0-.6,0-.9,1.2-1.4,2.9-.7,4.3-.9,3.3.3,6.6-.5,9.8.5,0,.4,0,.8,0,1.2h-14.2Z"/>
  <path class="cls-112" d="M4.6,15.9c-.4,3.5.9,7.1-.9,10.4,0-3.5,0-6.9,0-10.4.3,0,.5,0,.8,0Z"/>
  <path class="cls-112" d="M3.7,67.8c1.9,3.6.4,7.5.9,11.3-.3,0-.6,0-.9,0,0-3.8,0-7.5,0-11.3Z"/>
  <path class="cls-34" d="M10.7,88.6c6.4-.5,12.7-.7,19,1.2,1.3.4,2.4.8,3.6-.3.4-.4,1-.8,1.5-.8,2.4,0,4.9-.9,7,1.1.5.5,1.2,1.3.5,1.8-1.8,1.6-4.1.7-6.2.8-4.4.2-8.9.3-13.2-.6-1.6-.3-2.4.5-3.5,1.1-3.2-.8-7.5.5-8.7-4.3Z"/>
  <path class="cls-107" d="M57.5,12.4h.9c4-1.2,8.2.4,12.1-.9-.6-.9-1.2-1.7-1.7-2.6,1.6-1.3,3.7-2.6,5.5-1.6,4.1,2.3,7.9,1.3,11.8-.1.3,0,.6,0,.9,0v.9c.3,1.4.8,2.9,0,4.3-2.7.2-3.7,1.7-3.5,4.3.3,3.1-.4,6.3.7,9.4.7,2.1-.5,2.6-2.5,3.4-4.8,1.8-10.1.3-14.6,2.8-4,1.3-7.2-.8-10.6-2.3-1.1-.5-2-1.5-1.7-2.8.6-2.9-1.5-3.3-3.3-4.1-1-1-1.8-2.2-2.9-3-2-1.5-2.1-3.8-.9-5.7,1.3-2,3.5-2.1,5.2-.5,2.6,2.4,3.2-.8,4.7-1.5Z"/>
  <path class="cls-101" d="M57.5,12.4c-.3.8-.7,1.6-.8,2.4-.4,2.8-1.4,2.8-3.2,1-1.3-1.4-3-3.7-4.8-1.2-1.3,1.7-2.3,4.6,1.9,5.2,1.4.2.6,2,.8,3,1.6,1.9,3.2,3.8-.3,5.6-.7.4-.6,1.8-1.5,2.5-.9.3-1.6,0-2.2-.6-.6-1.4-1.5-2.7-1.9-4.1-.4-2.3-1,.2-1.5,0-.7.5-1.4.3-2.1-.1-5.2-2.6-10.2-.3-15.3.7-1,.4-2,.8-2.4,1.9-.6,1.6-.5,3.3-.1,4.9,0,.4.1.7.1,1.1,0,1.1-.3,2.1-.2,3.2,0,1.1,0,2.1.1,3.2,0,.9-.4,1.8-.6,2.7,0,.4-.1.8-.2,1.1-.2,3.7.8,7.5.2,11.2-.4,2.4-.8,5.1-5.2,3.8,1.7,4.1,6.5,6.8,3.7,11.6-.5.3-1.1.5-1.6.3-3.8-1.7-3.9,0-3,3-3.2.3-4,2.9-5.2,5.2,0-2.6,0-5.2,0-7.8,0-2.1-.9-5.1,3.3-3.8.9.3,1.8-.7,1.5-1.6-2.4-7.2,1.6-14.1,1.3-21.2-.1-2.4-1.2-5,2.6-6.4,2-.8.6-3.5-.9-5.1-1.3-1.4-1.2-2.9,0-4.3,1.1-1,2.2-2.3,1.3-3.7-.9-1.3-2.3-.3-3.6,0-3.2.8-5,0-4.7-3.7.3-3.1,0-6.3,0-9.5,0-1,0-2.3,1.3-2.3,1.3,0,1.3,1.4,1.2,2.4,0,1.7-.2,3.3-.4,5.6,3-3.2,6.2-4.7,10.2-4.3.8,0,2.2,0,2.4-.4,3.2-5.5,8.3-2.1,12.5-2.8,1.5-.3,1.9,1.3,2.1,2.7.2,1.6,1.1,2.6,2.5,1,2.1-2.6,4.8-2.4,7.5-2,1.6.3,3.1-.3,4.7-.1Z"/>
  <path class="cls-182" d="M21.9,71.3c-.2-3.2.1-6.4-3.5-8.4-1.5-.8-1.4-3.1-.6-4.4,1-1.7,1.7.2,2.5.8,1.2.8,1.4-.2,1.7-1,1.1-2.8.6-5.6.5-8.5,0-1.7-.9-3.6.3-5.3,1.6-.1,1.5,1.2,1.8,2.2,0,1.4.3,2.8.3,4.3,0,.8-.2,1.5-.3,2.3,0,.7,0,1.5,0,2.2,0,.4,0,.7,0,1.1,0,.9.4,1.8.5,2.7,0,.6,0,1.1-.1,1.7-.2.7-.4,1.4-.4,2.2,0,.4,0,.8,0,1.1.2,1.4-.6,3.1,1.1,4.2.5.1,1.1.2,1.6.2.7,0,1.5,0,2.2,0,.7,0,1.5,0,2-.7,1-3.1-.4-6.5,1.2-9.6,3.2-2.9,3.4-3,5.6-.7-.7.4-.9,1-.9,1.7-2.3,2-1.6,4,0,6.1-2.6,6.8-3.8,8.1-9.4,7.2-1-.2-1.5.7-1.9,1.5-2,0-3.4-.9-4.3-2.6Z"/>
  <path class="cls-111" d="M54.9,61.7c-.6,0-1.4,1.3-1.5.8-.3-3.7-4.3-4.7-5.4-7.7-.3-.3-.4-.6-.5-1,.1-1,1-1.5,1.7-2.1.3-.3.5-.5.8-.8,2.4-4.3,3.4-4.7,7.7-3.1.6,1.1.1,2.2.3,3.4,1.5,1.9,1.1,5.6,5,5.1,1.9,0,3.6.7,5.3,1.5.8.2,1.6.5,2.3,1.1.4,2.6-.2,4.3-3.3,3.7-2.1-.7-4.3,0-6.4-.8-.3-.3-.5-.6-.6-1-3.4-3.2-4.3-3.1-5.4.8Z"/>
  <path class="cls-122" d="M21.9,71.3c1.5.7,3.3,1.1,4.3,2.6.6.3,1.2.7,2.1,1.2-3.9,2.4-7.3,1.4-10.8-.3-.8-1.2-3.4-1.6-1.9-3.9,1.5-2.3,3.1-1.1,4.6,0,.4.3,1.1.3,1.6.5Z"/>
  <path class="cls-60" d="M54.9,61.7c-.6-1.3-1.6-2.8-.2-4,2-1.6,3.8,1.1,6,.8,1.4-.2.5,1.5.3,2.3-.3.3-.6.5-.9.7-1,.4-2.2.4-2.3,1.9-.3,1.7.6,3.5-.3,5.2-1.2.4-2.4,1-2-1.2.3-1.9,1-3.9-.6-5.7Z"/>
  <path class="cls-55" d="M37.5,65.2c-3.8-2.7-3.8-3.7,0-6.1,4.2,2.5,4.2,2.7,0,6.1Z"/>
  <path class="cls-124" d="M88.7,81.7c1.3.2,2.7-1.6,3.8.2.8,1.4,1,2.9-.3,4.2-3,0-5.7-.2-3.5-4.3Z"/>
  <path class="cls-65" d="M57.5,68.7c-1.1-1.9-1.1-4-.7-6.1.7-.6,1.4-.7,2.2-.3.3.3.5.6.4,1,0,.7-.9,1.5.2,2.1.5.1,1,.2,1.4.3.7.2,1.3.4,2,.7.3.2.6.5.7.8,0,.6-.4,1-1,1.2-.6.4-2.2-.6-1.9,1.2-1.3.1-2.3-.3-3.4-.9Z"/>
  <path class="cls-111" d="M45.4,56.6c.6.4,1.1.8,1.6,1.1q-5.4,1.3-6-.3c.4-.9,1.1-1.6,2-1.9.4-.1.8-.2,1.1,0,.6.2,1,.6,1.1,1.2Z"/>
  <path class="cls-36" d="M43.7,55.8c-.9.5-1.8,1.1-2.6,1.6-.9-1.4-1.7-.2-2.6,0-2.2-2.4-3.4.7-5.1.9-.8-.8-.8-1.8-.3-2.7.4-.4.8-.6,1.3-.8,2.2-.5,4.5-.4,6.7-.3,1,.1,2,.3,2.7,1.2Z"/>
  <path class="cls-167" d="M77.5,66.1c0,.3,0,.6,0,.9-.5.6.5,1.2,0,1.7-2.5,1-5,2.4-7.9,1.6,0-1,.7-1.3,1.4-1.5.6-.2,1.4-.3,1.9-.8.4-.6.5-1.2.9-1.8.2-.3.5-.5.8-.6.5-.2,1-.2,1.6-.2.4,0,.7.2,1,.3.1.1.2.3.4.4Z"/>
  <path class="cls-174" d="M71.4,69.5c-.6.3-1.3.6-1.9.8-1.1-.2-2.2-.4-3.3-.6-.5-.5-.6-1.1-.5-1.7.4-.9,1-1.3,1.9-1.4,1.5.2,2.9.5,3.8,1.8.2.4.1.8-.1,1.1Z"/>
  <path class="cls-160" d="M66.2,67.8c0,.6,0,1.3,0,1.9-1.2,1-2.4-.2-3.5-.2-.5-.5-.5-1.1,0-1.6l.9-.9c.3-.2.6-.3.9-.3.7.2,1.3.5,1.6,1.2Z"/>
  <path class="cls-16" d="M77.6,64.4c1.6-.3,3.6-1.6,3.3,1.7-1.1.8-2.3,0-3.4,0,0,0-.2,0-.2,0-.4-.7-.3-1.2.3-1.7Z"/>
  <path class="cls-36" d="M45.4,56.6c-.3-.3-.6-.5-.9-.8,0-.2.2-.3.2-.5.6-.7,1.4-1.3,2.2-1.6.4,0,.7,0,1,.3,0,.3,0,.6,0,.9-.5,1.1-1.4,1.7-2.7,1.7Z"/>
  <path class="cls-16" d="M77.4,68.7c.5-.6-2.8-1.2,0-1.7.6.3.9.9.8,1.6-.1.6-.5.5-.8.1Z"/>
  <path class="cls-119" d="M62.6,67.9c0,.5,0,1.1,0,1.6-.6,0-1.2,0-1.8,0-.7-1.9.5-1.9,1.7-1.7Z"/>
  <path class="cls-98" d="M49.7,30.6c.3-1.6-.9-4.1,2.4-3.7-.2-1.4-.4-2.7-.7-4.1,2.6.3,6.6-1,4.1,4.2-.5,1,.3,1.9,1,2,3.6.9,6.5,3.7,10.4,3.3.1,1.6-1.1.8-1.7.8-4.4.3-5.9,3.1-6.2,7,.3,1.9-1.4,2.2-2.3,3.1-1.3.7-2.3.7-2.6-1.1,0-1.1-.1-2.2-.8-3.2-.3-.7-.4-1.5-.3-2.3.2-2.4,0-4.6-2.6-5.7-.4,0-.7-.2-.9-.5Z"/>
  <path class="cls-107" d="M91.3,12.4c.6,1.4,1.2,2.9,1.7,4.3-.6,3-4.9,4.3-3.3,9.2-3.1-4.7-2.3-11.4.7-13.5.3-.3.6-.3.9,0Z"/>
  <path class="cls-21" d="M71.4,49.5c.6,0,1.2,0,1.8.1.8.9,1.5,1.8,1.3,3.1-.1.4-.3.7-.6.9-1,.6-1.5,1.6-2,2.5-.4.5-.9.7-1.5.5-.7-.6-1-1.7-2-2-2-.6-1,.8-1.1,1.6-1.6,1.7-3.4.4-5.2.3-1.7-.4-2.1-1.9-2.5-3.3,0-.4.2-.8.4-1.1.7-.6,1.7-.8,2.6-1.1.7-.1,1.4,0,2.1.2.5,0,1,0,1.5,0,.7-.1,1.4-.2,2-.2,1.2.1,1.6-.9,2.2-1.5.4-.2.7-.2,1.1,0Z"/>
  <path class="cls-19" d="M71.4,49.5c-.3,0-.6,0-.9.1-.9.4-1.8.9-2.9.6-.4-.2-.8-.4-1-.7-.2-.4-.4-.8-.4-1.2-.1-1.2,0-2.3.8-3.2,1.2-.8,2.6-.8,4-.8.7,0,1.4,0,2.1.2.9.3,1.8.5,1.9,1.7-.7,1.7-3.4,1.3-3.5,3.5Z"/>
  <path class="cls-90" d="M64.5,37.5c3.1-1.7,6.3-.8,9.4,0,1.2,1.7.3,2.8-1.2,3.7-.4.2-.8.3-1.2.3-1.3-.1-2.4-1.3-3.8-1-1.3-.2-2-1.1-2.7-2-.2-.3-.4-.7-.5-1Z"/>
  <path class="cls-67" d="M77.6,64.4c-.1.6-.2,1.1-.3,1.7,0,0-.4,0-.4,0h-.4c-.6-.6-1.1-.6-1.6,0-.3,0-.5,0-.8.1-.2,0-.3-.1-.5-.2-.8-.7-1.6-1.5-2.4-2.2-.2-.3-.4-.6-.6-1-.3-1.2,0-2.3.3-3.4.1-.4.4-.6.7-.9.7-.3,1.4-.6,2.1-.8.5-.1,1.1-.2,1.6,0,.3.1.6.4.8.7.3.8,0,1.6,0,2.4.2.5.5.7.9,1,.3.2.4.5.5.8,0,.5,0,1,0,1.6Z"/>
  <path class="cls-151" d="M72.2,41c.9-1,2.1-1.8,1.7-3.4,1.8.6,3.5,1.1,5.3,1.7.8,1.5,0,2.3-1.1,3.1-.9.4-1.9.6-2.9.8-.4,0-.8,0-1.2,0-.9-.4-1.6-1-1.8-2.1Z"/>
  <path class="cls-171" d="M91.3,12.4c-.3,0-.6,0-.9,0-1.2,0-2.3,0-3.5,0-.3-1.4-1.2-2.9,0-4.3,2.6.3,4,1.7,4.3,4.3Z"/>
  <path class="cls-80" d="M74.9,61l.8-2.7c.2-.2.5-.3.8-.3.7.3.5-.5.8-.7.3-.1.7-.2,1,0,1.5.8,1.9,2.3,2.4,3.7-.2,2.3-2,1.6-3.3,1.9,0-.1-.2-.3-.3-.4-.8-.4-1.7-.7-2.4-1.4Z"/>
  <path class="cls-118" d="M80.8,60.9c-2.1,0-1.5-2.9-3.4-3.3-.8-1-.8-2,.2-2.9,3.3.9,4.7,2.7,3.2,6.1Z"/>
  <path class="cls-100" d="M77.6,54.8c0,1-.1,1.9-.2,2.9,0,.3,0,.5,0,.8-.3.1-.6,0-.8-.1-.3,0-.6,0-.9,0,0,0,0,0,0,0-1-.7-2.3-1.2-2.5-2.7-.1-.9,0-1.7.6-2.4l.3-.2c1.1-.7,2.2-.2,3.3,0,0,.6.1,1.1.2,1.7Z"/>
  <path class="cls-19" d="M77.5,41.9c1.2-.5,1.8-1.3,1.7-2.6,1.7,1.6,1,3.8,1.2,5.6.5,3-2,1.1-3.2,1.2,0-.3,0-.5,0-.8,0-.6,2-1.4-.2-1.8-.2-.6-.1-1.1.4-1.5Z"/>
  <path class="cls-23" d="M77.5,43.5c2.5,1.1-.4,1.7-.3,2.6-.8,0-1.6,0-2.4,0-.6-.2-1.2-.4-1.8-.6-.8-1.2-.4-2.1.9-2.6.3,0,.5,0,.8,0,1,0,2,0,2.8.7Z"/>
  <path class="cls-19" d="M77.4,53.1c-1.1.7-2.2,0-3.3,0-.3-1.1-.6-2.3-.9-3.4,2.9-.7,3.5,1.6,4.3,3.5Z"/>
  <path class="cls-28" d="M64.5,37.5c.3,0,.5,0,.8,0,.7,1.4.3,2.6-.4,3.8-.7.8-1.5,1-2.4.5-.6-.9-.5-1.8.2-2.6.6-.6,1.3-1.2,1.9-1.8Z"/>
  <path class="cls-77" d="M62.7,39.3c0,.8,0,1.6,0,2.5-.8.8-1.7.8-2.7.2-.4-.9-.7-1.9.4-2.6.8,0,1.5,0,2.3,0Z"/>
  <path class="cls-14" d="M60.3,39.4c0,.8,0,1.5-.1,2.3.2.4.1.7-.1,1.1-.4.4-1,.6-1.6.7-.6,0-1.2,0-1.7-.4-.1-.1-.2-.3-.4-.4.9-.8,1.8-1.7,2.7-2.5.4-.2.8-.5,1.1-.7Z"/>
  <path class="cls-46" d="M8.1,26.3c.2-1.5-.8-4.2,2.6-2.6,0,14.7,0,29.4,0,44.2-2.2-.3-1.6-2-1.7-3.3-.2-1.5.6-3.2-.9-4.5-1.4-11.3-1.4-22.5,0-33.8Z"/>
  <path class="cls-180" d="M20.2,29.7c0,1.4,0,2.9,0,4.3-1.7,1-2.9.8-3.5-1.3-.4-1.6-.6-3.3.8-4.3,1.2-.9,2.5-.5,2.7,1.3Z"/>
  <path class="cls-53" d="M70.5,11.5c-3.9,1.8-8.1.4-12.1.9,3.9-1.8,8.1-.4,12.1-.9Z"/>
  <path class="cls-112" d="M8.1,26.3c0,11.3,0,22.5,0,33.8-.2,2.4.5,4.9-.4,7.2-1.7-.1-1.3-1.4-1.3-2.3,0-11.8,0-23.6,0-35.4,0-1.4-.4-3,1.7-3.3Z"/>
  <path class="cls-53" d="M78.2,12.4c-.2-.1-.9-.2-.9-.4,0-.7.5-1,1.1-1.1.6-.1,1.2,0,1.3.7,0,.8-.7.8-1.4.9Z"/>
  <path class="cls-35" d="M46.2,25.4c.1,1.6,2.4,2.5,1.7,4.4-.2,0-.3.2-.5.3-.2,0-.4,0-.5,0-1-.4-1.8-1.1-2.9-1.3-.4,0-.7-.2-1.1-.3-1.9-.5-3.7-.2-5.6,0-.4,0-.8,0-1.2,0-3.1-.2-6.3-.4-9.4.2-.6.1-1.3.2-2,0-.4-.1-.8-.3-1.1-.7,0-1.7,1.4-1.7,2.6-1.7,5.4-1,10.9-1.8,16.5-.8.3.6.6.6.9,0,.9-.6,1.7-.7,2.6,0Z"/>
  <path class="cls-98" d="M42.7,25.4c-5.5,1-11,.9-16.5.8,3.1-2.4,6.9-1.7,10.4-2.5,2.1-.5,4.6-.7,6.1,1.7Z"/>
  <path class="cls-95" d="M23.7,47c-.2-.9.3-2-.9-2.6,0-.3,0-.6,0-.9.8-.8,1.7-.4,2.5,0,.6.3,1.1,1.2,2,.5.4,0,.7,0,1,.2.9.6,1.9,1.1,2.6,2.1.2.6.2,1.1,0,1.7-.6.8-1.3,1.5-2.1,2.1-.6.3-1.2.3-1.8.2-1.8-.3-2.3-2.1-3.4-3.3Z"/>
  <path class="cls-8" d="M47.2,29.6c.2,0,.5.1.7.2.4.7,1.1.8,1.8.7.2,0,.5.1.7.1.3.2.4.3.4.6,0,.2,0,.4-.1.4-.8.7-1.7,1.4-1.6,2.7-.1,1.3.4,2.7.1,4-.2.6-.7,1-1.3,1.2-1.5,0-2.1-1-2.3-2.3,0-1-.7-1.6-1.3-2.3-.1-.4,0-.7,0-1,1-.8,1.8-1.6,1.9-3,.2-.5.4-1,.9-1.3Z"/>
  <path class="cls-33" d="M23.9,41.1c-1-1.1-1.3-2.3-.2-3.5.4-.5,1-.6,1.6-.5.8.2,1.5.6,2.1,1.2.6.9.7,1.9.5,2.9-.1.4-.3.7-.6,1-.5.3-1.1.4-1.6.3-.7-.2-1.3-.6-1.8-1.3Z"/>
  <path class="cls-105" d="M25.5,37.6c-.6,0-1.2,0-1.8,0-1.6-1,0-1.8.2-2.7.3-.8.7-1.2,1.6-.8.7.7.9,1.6,1.1,2.5,0,.4,0,.7-.2,1.1-.3.2-.7.2-1,0Z"/>
  <path class="cls-50" d="M23.9,41.1c.6,0,1.2.1,1.5.8.7.9.8,1.7-.2,2.5-.8-.3-1.5-.5-2.3-.8-.3-1.1.5-1.7.9-2.5Z"/>
  <path class="cls-99" d="M23.7,28c.3,0,.6,0,1,0,.5,1.3.1,2.5,0,3.8-.1.9-.4,1.7-1.2,2.2-1.1-2.1-1.3-4.1.1-6.1Z"/>
  <path class="cls-98" d="M46.2,25.4c-.9,0-1.7,0-2.6,0,.9-.8,1.6-2.3,2.8-2.1,1,.2,0,1.3-.2,2.1Z"/>
  <path class="cls-136" d="M23.5,34.1c.1-.8.2-1.7.3-2.5.4-.6.9-.6,1.5-.4.7.5.8,1.3.6,2.1-.1.4-.4.6-.7.8-.4.3-.9.6-1.3.9-.1-.2-.3-.5-.4-.8Z"/>
  <path class="cls-94" d="M33.2,55.7c0,.9,0,1.7,0,2.6-.6,3.7,1,7.6-1,11.2-.4-.3-.6-.7-.7-1.1-.2-.4-.3-.8-.5-1.3-.1-.3-.2-.6-.2-.9,0-.3,0-.6.1-.9.1-.4.3-.8.4-1.2,0-.3,0-.5,0-.8,0-.3-.1-.5-.2-.8-.2-.4-.5-.7-.7-1.1-.4-.6-.6-1.1-.5-1.8,0-.3.2-.6.3-.9.1-1.5-1.1-.6-1.6-.9-.8,0-1.5-.2-2.3-.2-1,0-2-.3-2.8-1,0-.3,0-.6,0-.9.9-.9,1.7-2,3.1-2,.8.2,1.5.9,2.3,1,.5,0,1,0,1.6.1.6,0,1.1,0,1.6.3.4.1.6.4.9.7Z"/>
  <path class="cls-97" d="M25.4,69.6c-3.4-1.2-1.2-4-1.7-6,.9-.8,1.6-.4,2.2.4.3.6.4,1.2.5,1.9,0,.4,0,.9,0,1.3,0,.9-.4,1.7-1,2.4Z"/>
  <path class="cls-148" d="M23.7,47c1.8,0,1.9,2.2,3.4,2.6.6.7.5,1.4,0,2-1,.5-2,.5-2.8-.3-.5-1.4-.7-2.9-.5-4.4Z"/>
  <path class="cls-10" d="M24.4,60.7c0-.5.1-1.1.2-1.6.6-.7,1.4-.9,2.2-1,.8-.1,1.6-.2,2.4-.3.9,0,1.7,0,1.4,1.3h0c-.6,1-.7,2.5-2.3,2.4-1.3-.2-2.8.4-3.9-.9Z"/>
  <path class="cls-4" d="M27.2,59.1c-.9,0-1.7,0-2.6,0-.5-.8-1.2-1.5-.9-2.5,1.2,0,2.3,0,3.5.1.6.8.6,1.7,0,2.5Z"/>
  <path class="cls-175" d="M25.5,64.3c-.4-.7-1.1-.8-1.8-.7,0-.3,0-.6,0-.9,1-1,2.5-.9,3.7-1.3,1,0,1.9.2,2.8.6.3.2.5.5.7.9,0,.2,0,.4,0,.6-.1.1-.2.3-.3.4-.5.3-1,.4-1.5.5-.5,0-1,.1-1.5.2-.7,0-1.3.3-1.9-.2Z"/>
  <path class="cls-165" d="M28,61.8c-1.3.8-2.8,1-4.3.9-.2-.8,0-1.5.7-1.9,1.2.3,2.5-.7,3.6.1.3.2.4.4.3.6,0,.2-.2.3-.3.3Z"/>
  <path class="cls-3" d="M27,54.1c-1.1.4-1.8,1.9-3.3,1.6,0-.9,0-1.7,0-2.6.8-.8,1.7-.9,2.7-.6.4.1.7.3,1,.6,0,.4,0,.7-.3,1Z"/>
  <path class="cls-88" d="M31.5,66.9c.3.3.5.6.8,1-.6.7-1.4,1.1-2.3,1.3-1,.2-1.9.3-2.9.5-.5-1,.1-1.6.8-2.3,1.1-.7,2.3-1.4,3.6-.5Z"/>
  <path class="cls-91" d="M27.1,53.1c-1.2,0-2.3,0-3.5,0,.2-.6.4-1.1.6-1.7.9,0,1.9,0,2.8,0,.6.5.6,1.1.1,1.7Z"/>
  <path class="cls-158" d="M28,67.7c-.3.7-.6,1.3-.9,2-.6,0-1.1,0-1.7,0,0-.9,0-1.7,0-2.6,1.1-.8,2.2-1.1,2.6.7Z"/>
  <path class="cls-25" d="M30,69.1c.5-.8,1.2-1.4,2.3-1.3,0,.5,0,1.1,0,1.6-.8.2-1.6.1-2.3-.3Z"/>
  <path class="cls-82" d="M54,36.6c0,.9,0,1.7,0,2.6,1,.7.2,1.8.8,2.6,0,1.4.6,1.5,1.6.8,0,0,.3.2.3.2.6.7,1,1.6,1.4,2.5.3.9.8,1.8.3,2.8-.4.2-.7.2-1-.2-3.8-1-5.7,1.2-7,4.2-.6-.7-.8-1.5-.8-2.4,0-.6.1-1.2.4-1.8.8-1.3,2.3-2.1,2-3.9,0-1.4,0-2.7,0-4.1,0-.8,0-1.6.3-2.4.1-.4.3-.7.6-1,.4-.2.7-.2,1.1,0Z"/>
  <path class="cls-134" d="M71.4,59.1c0,1.4-.1,2.8-.2,4.2-.2.4-.6.6-.9.8-1,.3-2.1.3-3.1.4-.8,0-1.6,0-2.4,0-.6,0-1.2,0-1.8,0-.6,0-1.2,0-1.7,0-.6,0-1.1-.2-1.6-.5-.1-.2-.2-.3-.4-.5,0-.2,0-.5,0-.7-.2-.7.2-1.3.6-1.8.3,0,.6,0,1,0,0,.3,0,.6,0,.9,2,.3,4,.7,6,0,2.7,1.1,2.7-1.2,3.5-2.7.3-.2.6-.2.9,0Z"/>
  <path class="cls-80" d="M71.4,59.1c-.3,0-.6,0-.9,0-.8,0-1.6,0-2.3,0-1.4-1.1-.4-1.9.4-2.7.7-.3,1.3-.2,1.9.3.3-.3.6-.6.9-.9.8-.7,1.7-.7,2.5,0,.6.9,1.2,1.8,1.8,2.7-.6,0-1.1,0-1.7,0-.7,0-1.3.2-1.8.8h-.4s-.4,0-.4,0Z"/>
  <path class="cls-60" d="M60,52.4c.4,1.2.6,2.5,1.8,3.3.5.4,1.4.7.9,1.7-5,.9-3.9-4.2-6-6.2,1.4-.4,2.5,0,3.3,1.2Z"/>
  <path class="cls-71" d="M60,52.4c-1.2,0-2.4-.2-3.3-1.2.2-1.1.5-2.2.7-3.3.3,0,.6,0,1,0,.8,0,1.3.6,1.8,1.1.2.3.4.6.5,1,.2.8,0,1.5-.5,2.1l-.2.4Z"/>
  <path class="cls-134" d="M62.7,57.4c-.3-.6-.6-1.1-.9-1.7,1.8-.2,3.5,1.9,5.3,0,.9-.4,1.3,0,1.4.9-.1.8-.2,1.5-.3,2.3-1.8-.7-3.3-2.1-5.5-1.6Z"/>
  <path class="cls-60" d="M67,61.8c-2,1.3-4,1.4-6,0,2-1,4-.2,6,0Z"/>
  <path class="cls-125" d="M48,54c-.2,0-.5,0-.7,0-.4-.2-.6-.5-.8-.9-.2-.6-.3-1.2-.3-1.8,0-.6,0-1.2,0-1.8.1-.6.3-1.2.8-1.6.4-.2.8-.2,1.1,0,.4.5.6,1,.7,1.6.2.9.4,1.9.8,2.8-.6.6-1.1,1.1-1.7,1.7Z"/>
  <path class="cls-162" d="M49.7,52.3c-1.6-.2-2-1.2-1.7-2.6.8-.2,1.7-.3,2.5,0,0,.8,0,1.7-.1,2.5-.2,0-.5,0-.7.1Z"/>
  <path class="cls-156" d="M60,60.9c-.2.6-.4,1.2-.6,1.8-.9,0-1.7,0-2.6-.1,0-2.8,1.9-1.6,3.2-1.6Z"/>
  <path class="cls-133" d="M61,63.5c.6,0,1.1,0,1.7,0,1,1.1,1,2.2,0,3.3-.7,0-1.3-.1-1.7-.8-.7-.9-.7-1.8,0-2.6Z"/>
  <path class="cls-89" d="M62.6,66.9c0-1.1,0-2.2,0-3.3.6,0,1.2,0,1.8,0,.6.7.8,1.5.7,2.4-.1.4-.4.8-.7,1-.3,0-.5,0-.8,0-.3,0-.6,0-1,0Z"/>
  <path class="cls-145" d="M59.2,66.1c-1.1.8-1.5,0-1.7-.9-.3-1.3.7-1.6,1.7-1.8,0,0,0,0,0,0,.7.9.7,1.7,0,2.6Z"/>
  <path class="cls-43" d="M59.2,66.1c0-.9,0-1.7,0-2.6.6,0,1.1,0,1.7,0,0,.9,0,1.8,0,2.6-.6,0-1.1,0-1.7,0Z"/>
  <path class="cls-141" d="M43.7,55.8c-.9-.1-1.8-.2-2.6-.4-.6-.7-.7-1.5,0-2.2.9-.8,1.8-.2,2.6.2.5.5.8,1,.8,1.7,0,.2,0,.4,0,.6,0,0-.4,0-.4,0h-.4Z"/>
  <path class="cls-83" d="M43.9,54.1c-1.1,0-3.1-1.6-2.9,1.4-2.3,0-4.6.1-6.9.2-.9-1.1-.3-1.9.4-2.7.9-.8,2-1.4,3-2,.7-.3,1.5-.5,2.3-.5.4,0,.8,0,1.2,0,1,0,1.9,0,2.9.3.4.1.7.4,1,.6.3.5.4,1.1.3,1.7-.2.6-.5,1-1.2,1.1Z"/>
  <path class="cls-106" d="M35,53.1c-.3.8-.6,1.7-.9,2.5-.3,0-.6,0-.9,0-.3,0-.6,0-.9,0-.7-.9-.7-1.8,0-2.7,1-.6,1.9-.6,2.7.2Z"/>
  <path class="cls-172" d="M74.1,66.2c0,.8-.2,1.7-.2,2.5-1.2.3-2.1-.2-2.9-1-.3-.7-.2-1.3.3-1.8.9-.5,1.7-.5,2.5.1l.3.2Z"/>
  <path class="cls-73" d="M74.9,66c.1-.9-.4-2.3,1.1-2.1.9,0,.6,1.3.6,2.1-.5,0-1.1,0-1.6,0Z"/>
  <path class="cls-168" d="M71.4,67.8c.8.3,1.7.6,2.5.9-.5,1.2-1.5,1.1-2.5.8,0-.3,0-.6,0-1-.2-.2-.3-.3-.2-.5,0-.1.2-.2.3-.2Z"/>
  <path class="cls-66" d="M71.4,67.8c0,.2,0,.5,0,.7-1.1-.5-2.3-1-3.4-1.5-.1-.2-.2-.3-.3-.5,0-.4.2-.7.5-.9.8-.6,1.7-1.2,2.4-2,.3,0,.5-.1.8-.2,0,0,.3.2.3.2.6.9.5,1.7-.2,2.5,0,.6,0,1.1,0,1.7Z"/>
  <path class="cls-137" d="M68,66.2c0,.3,0,.5,0,.8-.6.3-1.1.6-1.7.9-.7,0-1.4-.1-1.8-.8,0-.3,0-.5,0-.8,1.2-1,2.4-1.2,3.5,0Z"/>
  <path class="cls-81" d="M43.9,54.1c.2-.2.4-.5.7-.7.7-1.1,1.5-1,2.3-.1,0,.2.2.5.3.6-.5,1.4-1.5,1.6-2.8,1.3-.2-.4-.3-.8-.5-1.1Z"/>
  <path class="cls-35" d="M54,36.6c-.2,0-.5,0-.7,0-1.5-.5-2.8-1.1-3.4-2.6-.2-.9-.1-1.7.5-2.5,0-.3,0-.6,0-.8.6.9,1.8-4.2,2.1.2.2,2,3.3,3.3,1.5,5.8Z"/>
  <path class="cls-35" d="M54.9,41.9c-1-.6-.8-1.7-.8-2.6,2.3.3,1.3,1.5.8,2.6Z"/>
  <path class="cls-47" d="M68.5,56.7c-.5-.3-.9-.6-1.4-.9-1.1-.3-2.4-.3-2.4-1.9,0-.7.9-1,1.3-.7,1.3,1,3.6-1.5,4.4,1.2.2.7,0,1.4,0,2.1-.6,0-1.3.1-1.9.2Z"/>
  <path class="cls-121" d="M66.8,48.7c.1.3.2.6.3.8-.2.3-.4.6-.7.8-.7.5-1.4,1.1-1.9,1.8-.6-.3-1.2-.5-1.8-.8-1-.3-1.9-.9-2.6-1.7h0c-.3-.5-.3-.9,0-1.2.9-.7,2-.7,3.1-.7.8,0,1.7,0,2.5.3.4.2.7.4,1,.7Z"/>
  <path class="cls-47" d="M67.9,49.6c.9,0,1.8-.8,2.6,0,0,2-.3,3.5-2.7,1.8-.4-.7-.4-1.3,0-1.9Z"/>
  <path class="cls-139" d="M60.1,49.7c1.2,0,2.5,0,2.6,1.7-.7.9-1.6.8-2.6.7,0-.8,0-1.6,0-2.4Z"/>
  <path class="cls-146" d="M73.9,55.6c-.8,0-1.7,0-2.5,0-.3-1.9.4-2.8,2.4-2.5,0,.8,0,1.6,0,2.5Z"/>
  <path class="cls-131" d="M64.5,52.2c-.1-1.2-.3-2.4,1.5-2.5.9.8.8,1.6,0,2.5h-1.5Z"/>
  <path class="cls-40" d="M66.1,52.2c0-.8,0-1.6,0-2.5.4,0,.7,0,1.1-.1.3,0,.5,0,.8,0,0,.6,0,1.2,0,1.9-.6.2-1.2.5-1.7.7Z"/>
  <path class="cls-51" d="M60.2,48.5c0,.4,0,.7-.1,1.1-.8-.3-1.4-.9-1.7-1.7-.3-.8-.6-1.7-.9-2.5.2-.9.4-1.8.9-2.7.6,0,1.1,0,1.7-.1.2,0,.3.2.5.3,1.5,1.6,3.7,1.1,5.5,1.7.4.2.7.4.9.7,0,1.2-.2,2.3-.2,3.5-.3,0-.6,0-.8-.1-.7-1-1.5-1-2.5-.5-1.1-.2-2.3-.9-3.2.4Z"/>
  <path class="cls-157" d="M67,45.3c-.3,0-.6,0-.8,0-.4-1,.2-1.8.8-2.4,1.5-1.1,3-1.4,4.6-.3.6.9.6,1.8-.2,2.6-1.5,0-2.9.1-4.4.2Z"/>
  <path class="cls-52" d="M71.4,45.1c0-.8,0-1.6,0-2.4-.3-.2-.5-.5-.5-.8,0-.4.2-.6.5-.9.3,0,.6,0,.9,0,.9.3,1.4.9,1.7,1.8-.3.9-.6,1.7-.9,2.6-.6,0-1.1-.2-1.7-.3Z"/>
  <path class="cls-104" d="M64.4,41c.3-1.1.6-2.3.9-3.4.8.8,1.7,1.7,2.5,2.5.5.6.6,1.2.2,1.9-1.5.9-2.6.2-3.6-1Z"/>
  <path class="cls-164" d="M68,41.8c0-.6,0-1.1-.1-1.7,1.8-2,2.4.2,3.5.9,0,.2,0,.4,0,.6-1.1,1-2.2.8-3.4,0Z"/>
  <path class="cls-1" d="M71.4,66.1c0-.8.1-1.7.2-2.5,1.6,0,2.5.7,2.3,2.4-.8,0-1.6,0-2.4.1Z"/>
  <path class="cls-147" d="M74.9,61c1.2-.2,1.9.3,2.4,1.4-1.3.3-2.3.2-2.4-1.4Z"/>
  <path class="cls-138" d="M72.3,59.1c-.2-.6-.8-1.3.1-1.6.7-.3,1.3.2,1.6.8-.4.7-1,.9-1.8.8Z"/>
  <path class="cls-140" d="M77.5,43.5c-1,0-2.1.2-2.8-.7.7-1,1.8-.9,2.8-.9,0,.5,0,1.1,0,1.6Z"/>
  <path class="cls-24" d="M76.6,58.3c.3,0,.6,0,.8.1-.4.4-.6.3-.8-.1Z"/>
  <path class="cls-116" d="M68,41.8c1.1,0,2.3,0,3.4,0,0,.4,0,.7,0,1.1-1.5-.2-3,0-4.3.8-2.4.4-4.7.6-6.9-.8,0,0,0-.1,0-.1,0-.3.1-.6.2-.9.8,0,1.6,0,2.4,0,.7,0,1.4,0,1.8-.8,1.2.2,2.4.5,3.5.7Z"/>
  <path class="cls-69" d="M58.3,42.7c.8,1.3.4,2.1-.9,2.7-.8-.7-.6-1.7-.6-2.6.5,0,1,0,1.6,0Z"/>
  <path class="cls-85" d="M26.2,28c3.5-1.3,7-1,10.6-.2,0,.2-.2.3-.2.5-.7.6-1.5,1.1-2.3,1.6-.7.3-1.4,0-2.1-.3-.6-.3-1.2-.5-1.9-.6-.5,0-1.1,0-1.6,0-.6,0-1.1,0-1.6-.3-.4-.1-.6-.4-.9-.7Z"/>
  <path class="cls-11" d="M26.2,28c.3,0,.7,0,1,0,.6.8.7,1.6.3,2.5-.5.7-1.1,1.4-2.2.9-.5,0-1,0-1.5,0-.4-1.3,0-2.5.8-3.5.5,0,1.1,0,1.6,0Z"/>
  <path class="cls-176" d="M36.8,27.8c.2,0,.4,0,.6,0,.2.1.3.2.5.4.5.7.6,1.6.6,2.4,0,.4,0,.8,0,1.3,0,.8-.2,1.7-.8,2.4-.5.4-1.1.5-1.7.3-1.1-.6-1.4-1.8-2.1-2.8-.1-.3-.2-.7-.1-1.1.9-.9,1.8-1.7,2.8-2.5l.2-.3Z"/>
  <path class="cls-85" d="M47.2,29.6v1.9c-.8.6-1.5.7-2.4.5-.4-.1-.7-.3-1-.6-.3-.3-.5-.6-.7-1-.2-.6-.2-1.2,0-1.8.1-.4.4-.7.7-.9.3,0,.5,0,.8.2.7.8,1.5,1.4,2.5,1.7h.1Z"/>
  <path class="cls-85" d="M37.4,27.8c2.1-.9,4.2-.9,6.3,0,0,0-.2.2-.2.2-1.2,1-2.6,1.1-4,.9-.7-.1-1.3-.4-1.9-.9l-.2-.3Z"/>
  <path class="cls-155" d="M47,29.7c-1.9.9-2.5,0-2.5-1.7,1.4-.2,2.1.5,2.5,1.7Z"/>
  <path class="cls-127" d="M28.8,49.7c0-1.2.6-1.8,1.8-1.8.6-.5,1.2-.5,1.8-.2.3.4.5.8.6,1.2,0,1.6-.8,2.6-2.3,3.1-.7.1-1.4,0-2-.4-.4-.6-.4-1.3,0-1.9Z"/>
  <path class="cls-63" d="M30.6,46.1c-1.3.1-2.1-.5-2.5-1.6,0-.6.4-1,.9-1.2.7-.1,1.4,0,2.1.3.5.1,1,.4,1.4.8.1.3.2.7,0,1.1-.5.6-1.2.8-2,.7Z"/>
  <path class="cls-58" d="M25.2,44.3c0-.8.1-1.7.2-2.5.6,0,1.2,0,1.8,0,.7.8.7,1.6,0,2.5-.7,1-1.3.1-2,0Z"/>
  <path class="cls-41" d="M28.8,49.7c0,.6.1,1.2.2,1.8.3.8-.1,1.4-.7,1.8-.3.2-.7.1-1,0,0,0-.1,0-.1,0,0-.6,0-1.1-.1-1.7,0-.6,0-1.2,0-1.8.6,0,1.2,0,1.7,0Z"/>
  <path class="cls-181" d="M30.6,46.1c.4-.7,1.1-.8,1.8-.8.7.9.7,1.8,0,2.7-.6,0-1.2,0-1.8,0,0-.6,0-1.2,0-1.8Z"/>
  <path class="cls-128" d="M27.2,44.3c0-.8,0-1.7,0-2.5,0,0,0,0,0,0,.6-.5,1.2-.5,1.9-.1.4.6.4,1.3,0,1.9-.3.3-.6.6-.9.9-.3,0-.6,0-.8-.1Z"/>
  <path class="cls-79" d="M46.2,36.6c0,1.2.5,2.1,1.7,2.5,1.2.5,2.6.8,3.6,1.6.4.8,0,1.5-.6,2.1-.9.7-1.9,1.2-2.6,2.1-.5.4-1,.6-1.5.2-.7-1.4-1.8-2.5-2.9-3.7-.6-1.3-.6-2.6,0-3.9.5-.8,1.2-1.4,2.3-1.1Z"/>
  <path class="cls-150" d="M50.5,34c.6,1.2,2.8.8,2.8,2.6,0,0-.3,0-.3,0-.9,1.9-2,3.2-4.3,1.7-.8-1.4-.9-2.8-.7-4.4.8-.6,1.7-.6,2.5,0Z"/>
  <path class="cls-56" d="M48.7,38.3c1.8.4,3-.7,4.3-1.7,0,.9,0,1.7,0,2.6-.4.7-.7,1.5-1.6,1.7-1.4-.1-3.2.6-3.5-1.7.3-.3.6-.6.8-.9Z"/>
  <path class="cls-169" d="M43.6,30.6c.3.3.6.6.9.9.7.9.6,1.8,0,2.6,0,.3,0,.6,0,.9.4.4.5,1,.3,1.5-.2.3-.5.5-.9.5-.9-.3-1.5-1-2.3-1.4-.3-.2-.6-.4-.8-.7,0-.2,0-.4,0-.5.1-.4.3-.7.6-.9.8-.5,1.3-1.2,1.6-2.1.2-.3.4-.6.7-.8Z"/>
  <path class="cls-12" d="M44.5,34.1c0-.9,0-1.7,0-2.6.8,0,1.7,0,2.5,0,.4,2.1-.6,2.8-2.6,2.6Z"/>
  <path class="cls-54" d="M50.5,34c-.8,0-1.6,0-2.5,0-.4-2,.4-2.7,2.3-2.4,0,.8.1,1.6.2,2.5Z"/>
  <path class="cls-12" d="M44.4,36.7c0-.6,0-1.2.1-1.8.9.2,2.9-.7,1.7,1.7-.5.3-1,.5-1.5.8-.4-.1-.5-.4-.3-.7Z"/>
  <path class="cls-149" d="M28.7,41.9c-.5,0-1,0-1.6,0,0-1.2,0-2.3,0-3.5,1.4-1.1,2.7-.2,4.1.2.6.3,1,.7,1.3,1.3.2.7,0,1.2-.5,1.6-.3.2-.7.4-1,.5-.7.2-1.5.5-2.2,0Z"/>
  <path class="cls-113" d="M31.6,39.1c-1.6.5-2.9-.8-4.5-.7-.7,0-1.3,0-1.7-.8.3,0,.5-.1.8-.2.6-.5,1.3-.8,2.2-.9,1-.1,2-.4,3-.2,1.2.8,1.8,1.7.2,2.8Z"/>
  <path class="cls-102" d="M26.3,36.6c-1.2-.5-.9-1.7-1-2.6,0,0,.2,0,.2,0,.4-.5.8-1.1,1.5-1.4.6-.3,1-.8,1.3-1.5.2-.3.4-.6.7-.8.4-.1.7-.1,1.1,0,.5.3.9.6,1.2,1.1.4,1,1,1.8,1.5,2.8,0,.4,0,.7-.3,1-1.2.4-2,1.4-3.3,1.7-.9-.5-1.8-.4-2.7-.3Z"/>
  <path class="cls-42" d="M26.3,36.6c.9-1.3,1.8-2.7,2.7,0,.3.2.4.4.2.6-.1.2-.2.3-.3.3-.8,0-1.7,0-2.5,0,0-.3,0-.5,0-.8Z"/>
  <path class="cls-30" d="M27.1,33.2c-.5.3-1.1.6-1.6.8,0-.9,0-1.7,0-2.6.6-.3,1.2-.6,1.8-.9.1.1.3.3.4.4.3.8.3,1.6-.5,2.2Z"/>
  <path class="cls-93" d="M30.6,59.2c-.4-.6-.9-.8-1.6-.7-.3-.4-.3-.8,0-1.1,1.1-.2,2.4-1.6,3.2.2.5,1.2-.4,1.7-1.6,1.7Z"/>
  <path class="cls-96" d="M28,67.7c-.7-.9-1.7-.6-2.6-.7,0-.3,0-.6,0-.9.5-.4,1-.8,1.7-.9.7-.1,1.3-.1,2-.1.9,0,1.7.4,2.4,1,0,.3,0,.5,0,.8-1.2.3-2.3.5-3.5.8Z"/>
  <path class="cls-6" d="M28,61.8c0-.3,0-.6,0-.9,1.3.2,1.7-1.2,2.6-1.7.3.8.6,1.6,1,2.4,0,.6-.4.9-.9,1-.9-.3-1.8-.6-2.6-.8Z"/>
  <path class="cls-115" d="M31.5,66.1c-.9,0-1.7,0-2.6,0-.7-.9-.7-1.7,0-2.6.6,0,1.2,0,1.8,0,.3.1.5.3.6.6.2.4.3.8.3,1.2,0,.2,0,.5,0,.7Z"/>
  <path class="cls-9" d="M32.3,53.2c0,.8,0,1.7,0,2.5-.5,0-1.1,0-1.6,0-.8-.7-.8-1.5-.3-2.4.6-.5,1.2-.5,1.8,0Z"/>
  <path class="cls-44" d="M30.7,53.2c0,.8,0,1.6,0,2.4-.7,0-1.3,0-2,0-.6-.7-.7-1.5-.2-2.3.4-.6,1-.7,1.7-.5.1.2.3.3.4.5Z"/>
  <path class="cls-103" d="M28.8,53.1c0,.8,0,1.6,0,2.4-1.2.2-1.6-.4-1.7-1.5,0-.3.2-.6.2-.9.3,0,.6,0,.9-.1.3-.3.5-.3.7.1Z"/>
  <path class="cls-84" d="M29,57.3c0,.4,0,.8,0,1.1-.4.7-1.1.8-1.8.7,0-.8,0-1.6,0-2.5.7-.1,1.3,0,1.8.6Z"/>
  <path class="cls-13" d="M31.5,65.4c-.3-.3-.6-.7-.9-1,.6-.5,1.1-.5,1.7,0-.3.3-.5.7-.8,1Z"/>
  <path class="cls-74" d="M32.3,64.4c-.6,0-1.1,0-1.7,0,0-.3,0-.6,0-.9,0,0,0,0,0,0,.6-.5,1.1-.5,1.7,0,0,.3,0,.6,0,.9Z"/>
  <path class="cls-126" d="M30.7,62.6c.3-.3.6-.7.9-1,.3.3.5.7.7,1-.6.5-1.1.5-1.7,0,0,0,0,0,0,0Z"/>
  <path class="cls-123" d="M30.6,62.6c.6,0,1.1,0,1.7,0,0,.3,0,.6,0,.9-.6,0-1.1,0-1.7,0,0-.3,0-.6,0-.9Z"/>
  <path class="cls-166" d="M27.1,66.1c-.6,0-1.2,0-1.7,0,0-.6,0-1.2.1-1.8.6-.3,1.1-.5,1.7-.8.7.9.7,1.7,0,2.6Z"/>
  <path class="cls-61" d="M27.1,66.1c0-.9,0-1.7,0-2.6.6,0,1.1,0,1.7,0,0,.9,0,1.7,0,2.6-.6,0-1.2,0-1.7,0Z"/>
  <path class="cls-154" d="M51.4,40.9c.5-.6,1.1-1.1,1.6-1.7,0,1.7,0,3.4,0,5.2-.7.7-1.4,1.4-2.6,1.1-.3-.3-.5-.6-.6-1,0-.6,0-1.2.5-1.6.3-.7.6-1.3.9-2Z"/>
  <path class="cls-22" d="M50.5,45.2c.9-.3,1.7-.5,2.6-.8.3,2-1,2.9-2.6,3.5-.3-.3-.5-.6-.6-1,0-.7,0-1.2.6-1.7Z"/>
  <path class="cls-68" d="M50.5,47c0,.3,0,.6,0,.9,0,.6,0,1.1,0,1.7-.8.5-1.7.6-2.5,0,0-.6,0-1.2,0-1.7.7-.9,1.5-1.4,2.6-.9Z"/>
  <path class="cls-62" d="M68,66.2c-1.2,0-2.4,0-3.5,0,0-.9,0-1.7,0-2.6.9,0,1.7,0,2.6,0,1.1.6,1.8,1.3.9,2.5h0Z"/>
  <path class="cls-45" d="M67.9,66.1c-.3-.8-.6-1.7-.9-2.5,1.1,0,2.2,0,3.4,0,.4,2-.5,2.9-2.5,2.5Z"/>
  <path class="cls-27" d="M50.5,47c-.9.3-1.7.6-2.6.9,0,0-.4,0-.4,0h-.4c-.2,0-.4-.1-.6-.2-.7-.6-1-1.3-.6-2.2.3-.3.7-.4,1.1-.2.4-.3.8-.7,1.1-1,.8-.6,1.6-.5,2.4,0,0,.3,0,.6,0,.9,0,.6,0,1.2,0,1.8Z"/>
  <path class="cls-162" d="M47.1,49.6c0,.6,0,1.2,0,1.7-.8,1.1-1.7,1.5-2.6.1h0c-.5-.6-.5-1.1-.4-1.7.2-.3.5-.6.9-.7.8-.2,1.5-.1,2.1.6Z"/>
  <path class="cls-38" d="M47.1,49.6h-2.5c-.5-.6-.5-1.3-.1-1.9.9-.7,1.7-.4,2.6,0,0,0,.1.2.1.2,0,.6,0,1.1,0,1.7Z"/>
  <path class="cls-159" d="M44.5,51.5c.9.4,1.8.3,2.6-.1,0,.6-.2,1.3-.2,1.9-.8,0-1.6,0-2.3.1,0-.6,0-1.3,0-1.9Z"/>
  <path class="cls-87" d="M32.3,53.2c-.5,0-1.1,0-1.6,0,0,0,0-.2,0-.2-.5-.5-.5-1,0-1.6,1.2-.5,1.8-1.5,1.9-2.8.8-.2,1.4.2,2,.7.7.8,1.8,1.1,2.8,1.6.1.1.2.3.4.4-.5,1.2-1.4,1.7-2.6,1.8-.9,0-1.8,0-2.7,0Z"/>
  <path class="cls-152" d="M44.3,47.9c0,.6.1,1.2.2,1.7,0,0,0,0,0,0-.9,1-2.4.7-3.4,1.6-.4,0-.7,0-1.1,0-.8-.7-2.3-.7-2.6-2.1,1.1-1.3,3.2-1,4.2-2.5,1,0,2,.3,2.7,1.1Z"/>
  <path class="cls-2" d="M41.1,51.3c.6-1.7,1.9-1.7,3.4-1.6,0,.6,0,1.1,0,1.7-1.1,0-2.2,0-3.4,0Z"/>
  <path class="cls-92" d="M37.6,49.6c1.2,0,2.1.4,2.5,1.6-.8,0-1.6,0-2.5,0,0,0,0,0,0,0-.5-.3-.5-.8-.4-1.3.1-.1.2-.2.4-.4Z"/>
  <path class="cls-57" d="M60.2,48.5c0-.8-.2-1.8.8-2.1,1.5-.6,1.6,1.2,2.6,1.6,0,.1,0,.3,0,.4-1.1,0-2.2,0-3.4,0Z"/>
  <path class="cls-26" d="M63.6,48.5c0-.1,0-.3,0-.4,0-.9.2-1.8,1.4-1.6,1.4.2,1.1,1.3,1,2.2-.8,0-1.6-.1-2.4-.2Z"/>
  <path class="cls-129" d="M60.1,42.8c2.3.3,4.8-.9,6.9.8-.3.6-.6,1.2-.9,1.7-2-1-5.5,2-6-2.5Z"/>
  <path class="cls-18" d="M36.6,28.1c0,1.7-.9,2.4-2.5,2.4-.2-.1-.3-.3-.3-.5,0-.2,0-.3.1-.3.1-1.7,1.3-1.8,2.6-1.6Z"/>
  <path class="cls-5" d="M34,29.7c0,.3.1.5.2.8,0,.3,0,.6,0,.9-.1.1-.2.3-.4.4-.5.3-1,.4-1.5.3-.5,0-1-.3-1.4-.6l-1-1c.3-.4.7-.7,1.1-.9.6-.3,1.1-.7,1.7-.8.5.3.9.6,1.4.8Z"/>
  <path class="cls-76" d="M31.5,30.6c-.6,0-1.2,0-1.8,0-.3,0-.6,0-.9,0-.8-.8-.7-1.7,0-2.5.7,0,1.3,0,2,0,.6.7,1.2,1.4.8,2.5Z"/>
  <path class="cls-78" d="M28.8,28c0,.8,0,1.7,0,2.5,0,0,0,0,0,0-.5.6-1.1.5-1.6,0,0,0,0,0,0,0,0-.8,0-1.7,0-2.5.5,0,1,0,1.6,0Z"/>
  <path class="cls-109" d="M31.5,30.6c-.4-.8-1-1.5-.8-2.5.8,0,1.4.2,1.8.8-.4.6-.7,1.1-1.1,1.7Z"/>
  <path class="cls-7" d="M32.4,34.9c0-.3,0-.5,0-.8.1-.1.2-.3.3-.4.5-.3,1-.4,1.6-.4.6,0,1.1.3,1.5.7.6,0,1.2,0,1.8,0,.7-.6,1.5-.8,2.4-.6.4.2.7.4.9.8,0,.2.1.5.1.7-.6.8-1.5.9-2.3,1.1-.8,0-1.7,0-2.5,0-2.7,0-1.6,2.5-2.5,3.7-.1.1-.3.3-.4.4-.2,0-.4,0-.6-.1-.4-.3-.7-.6-1.1-1,.5-.7.6-1.5,0-2.2-.2-.8.2-1.5.8-2Z"/>
  <path class="cls-70" d="M40.9,34.2c-.3,0-.5-.1-.8-.2-.8-.9-1.7-1.7-2.6-2.5,0-.3,0-.7,0-1,.6-.5,1-1.1,1.6-1.4,1.9-1,3.1.4,4.4,1.4,0,0,0,.1,0,.1,0,.3,0,.7,0,1-.9.7-1.7,1.5-2.5,2.4l-.2.3Z"/>
  <path class="cls-177" d="M37.6,31.5c1.9-.3,2.8.6,2.6,2.5-.8,0-1.7,0-2.5,0,0-.8,0-1.7,0-2.5Z"/>
  <path class="cls-37" d="M39.4,29.8c-.4.7-1.1.8-1.8.7,0-.8,0-1.6,0-2.4.5,0,1.1,0,1.6,0,.6.5.5,1.1.1,1.7Z"/>
  <path class="cls-117" d="M35.8,34c-.6,0-1.1,0-1.7,0-.7-.9-.7-1.7,0-2.6,0,0,0,0,0,0,1.8,0,1.8,1.3,1.7,2.6Z"/>
  <path class="cls-108" d="M39.4,29.8c0-.6,0-1.2-.1-1.7,1.4,0,2.9,0,4.3,0,0,.8,0,1.6,0,2.4-1.6,1-2.6-1.8-4.2-.7Z"/>
  <path class="cls-173" d="M32.7,40.1c.2,0,.4,0,.6,0,1.5.5,1.9,1.8,1.9,3,.1,3.5,1.8,3.8,4.5,2.6.7-.3,1.4-.2,2,.1.2.2.3.5.2.7,0,.2-.1.3-.2.3-.2,2.7-3,1.5-4.2,2.7,0,0,0,0,0,0-1.2,1.1-2.4.1-3.6-.1-.5-.3-1-.6-1.5-.9,0-.2,0-.5,0-.7,0-.9,0-1.8,0-2.7,0-.3,0-.5,0-.8-.9-1-1.7-2.1-.7-3.5l.9-.9Z"/>
  <path class="cls-183" d="M30.5,51.4c0,.5,0,1,0,1.6-.6,0-1.2.1-1.7.2-.2,0-.5,0-.7-.1.3-.5.6-1.1.8-1.6.5,0,1,0,1.6,0Z"/>
  <path class="cls-17" d="M31.7,41c.3,1.1,1.2,2.2.7,3.5-.5,0-1.1,0-1.6-.1-1-1.1-.9-2.2-.1-3.4h1.1Z"/>
  <path class="cls-32" d="M30.6,41c0,1.1,0,2.3.1,3.4-.6-.3-1.2-.5-1.8-.8,0-.6-.2-1.1-.2-1.7.6-.3,1.3-.6,1.9-.9Z"/>
  <path class="cls-170" d="M47,45.3c-.3,0-.5,0-.8,0-.3.3-.7.5-1.2.4-.7-.3-1-.8-1.2-1.5,0-.9,0-1.8,1-2.3,2.8-.2,2.3,1.7,2.2,3.4Z"/>
  <path class="cls-7" d="M44.8,41.9c-.1.8-.3,1.7-.4,2.5-3.3-1.6-1.8-4.3-1.5-6.7.2-.4.4-.8.8-1,.2,0,.5,0,.7,0,0,.3.2.5.3.7,0,1.5,0,3,0,4.5Z"/>
  <path class="cls-64" d="M50.5,44.3c-.8,0-1.6,0-2.4,0,0-1.8,1.2-1.6,2.4-1.4,0,.5,0,.9,0,1.4Z"/>
  <path class="cls-143" d="M41.1,33.9c-.3-2,.6-2.7,2.5-2.4.3,1.9-.5,2.7-2.5,2.4Z"/>
  <path class="cls-39" d="M43.7,36.7c0,.2-.1.4-.1.6-1.1,1.2-1.8.4-2.6-.4-.5-1.1.3-1.5,1-2,1.2,0,1.7.7,1.7,1.8Z"/>
  <path class="cls-173" d="M41.9,34.9c-.3.6-.5,1.1-.8,1.7-1.4.3-3.3,1.4-2.7-1.7.9,0,1.8,0,2.7,0,.3,0,.6,0,.9,0Z"/>
  <path class="cls-110" d="M32.4,34.9c0,.8,0,1.5-.8,2-.9.2-1.8.4-2.8.6,0-.3,0-.6,0-.9,1-1,1.9-2.1,3.5-1.7Z"/>
  <path class="cls-48" d="M27.2,30.6c.5,0,1.1,0,1.6,0-.4,1,1.6,3.6-1.7,2.7,0-.9,0-1.8.1-2.6Z"/>
  <path class="cls-178" d="M30.8,31.5c.5,0,1,0,1.5,0,.8.8.7,1.7.1,2.6,0,0,0,0,0,0-1.7-.2-2-1.2-1.6-2.6Z"/>
  <path class="cls-2" d="M45.1,45.4c.4,0,.7,0,1.1,0,.2.8.5,1.6.7,2.4-.9,0-1.7,0-2.6.1-1,0-2,.1-2.6-.9,0-.3.1-.5.1-.8.8-1.2,2.2-.5,3.2-.8Z"/>
  <path class="cls-184" d="M34,49.5c1.2-1.1,2.4,0,3.6.1,0,.6,0,1.1,0,1.7-1.5,0-3.4.8-3.6-1.8Z"/>
  <path class="cls-15" d="M32.4,34.1c0-.9,0-1.7-.1-2.6.6,0,1.2,0,1.8,0,0,.9,0,1.7,0,2.6-.6,0-1.1,0-1.7,0Z"/>
  <path class="cls-31" d="M45.1,45.4c-.8,1.4-2.1.6-3.2.8-.6.1-1.1.2-1.7.4-3.2,1.1-5.9,1.7-6.1-3.1,0-1.1-.6-2.2-.9-3.3,0,0,0,0,0,0,1.3-1.5.2-4.2,2.6-5.2.8,0,1.7,0,2.5,0,0,2,1.9.9,2.7,1.7.8.2,1.6.5,2.4.7.4,2.3-1.2,4.9.8,7.1.3.3.5.6.8.9Z"/>
  <path class="cls-173" d="M35.8,34.9c-1.4,1.5-.4,4.1-2.6,5.2.5-1.9-1.7-5.2,2.6-5.2Z"/>
</svg>