<?xml version="1.0" encoding="UTF-8"?>
<svg xmlns="http://www.w3.org/2000/svg" version="1.1" viewBox="0 0 140 200">
  <defs>
    <style>
      .cls-1 {
        fill: #97c25b;
      }

      .cls-2 {
        fill: #65af4d;
      }

      .cls-3 {
        fill: #a0c661;
      }

      .cls-4 {
        fill: #389a4b;
      }

      .cls-5 {
        fill: #6fb450;
      }

      .cls-6 {
        fill: #70b550;
      }

      .cls-7 {
        fill: #acca67;
      }

      .cls-8 {
        fill: #8fbf57;
      }

      .cls-9 {
        fill: #9bc45e;
      }

      .cls-10 {
        fill: #231f20;
      }

      .cls-11 {
        fill: #71b550;
      }

      .cls-12 {
        fill: #2a8c46;
      }

      .cls-13 {
        fill: #80bb52;
      }

      .cls-14 {
        fill: #80b757;
      }

      .cls-15 {
        fill: #93c159;
      }

      .cls-16 {
        fill: #59a349;
      }

      .cls-17 {
        fill: #6cb34f;
      }

      .cls-18 {
        fill: #62ad4c;
      }

      .cls-19 {
        fill: #60ac4b;
      }

      .cls-20 {
        fill: #48a14b;
      }

      .cls-21 {
        fill: #72b651;
      }

      .cls-22 {
        fill: #90c057;
      }
    </style>
  </defs>
  <!-- Generator: Adobe Illustrator 28.6.0, SVG Export Plug-In . SVG Version: 1.2.0 Build 709)  -->
  <g>
    <g id="Layer_1">
      <g id="Layer_1-2" data-name="Layer_1">
        <g>
          <rect class="cls-11" x="78.4" y="4.3" width="2.8" height="4.3"/>
          <rect class="cls-4" x="58.8" y="8.6" width="2.8" height="4.3"/>
          <rect class="cls-21" x="16.8" y="25.6" width="2.8" height="4.3"/>
          <rect class="cls-5" x="5.6" y="34.2" width="2.8" height="4.3"/>
          <rect class="cls-1" x="109.2" y="47" width="2.8" height="4.3"/>
          <rect class="cls-19" x="81.2" y="55.5" width="2.8" height="4.3"/>
          <rect class="cls-2" x="72.8" y="64.1" width="2.8" height="4.3"/>
          <rect class="cls-9" x="103.6" y="72.6" width="2.8" height="4.3"/>
          <rect class="cls-17" x="58.8" y="81.1" width="2.8" height="4.3"/>
          <rect class="cls-20" x="56" y="85.4" width="2.8" height="4.3"/>
          <rect class="cls-22" x="95.2" y="115.3" width="2.8" height="4.3"/>
          <rect class="cls-18" x="39.2" y="119.6" width="2.8" height="4.3"/>
          <rect class="cls-15" x="92.4" y="140.9" width="2.8" height="4.3"/>
          <rect class="cls-6" x="28" y="149.4" width="2.8" height="4.3"/>
          <g>
            <polygon class="cls-12" points="8.4 34.2 11.2 34.2 11.2 29.9 14 29.9 16.8 29.9 16.8 25.6 19.6 25.6 22.4 25.6 25.2 25.6 25.2 21.4 28 21.4 30.8 21.4 33.6 21.4 36.4 21.4 36.4 17.1 39.2 17.1 42 17.1 44.8 17.1 47.6 17.1 47.6 12.8 50.4 12.8 53.2 12.8 56 12.8 58.8 12.8 58.8 8.6 61.6 8.6 64.4 8.6 67.2 8.6 70 8.6 72.8 8.6 75.6 8.6 78.4 8.6 78.4 4.3 75.6 4.3 72.8 4.3 70 4.3 67.2 4.3 64.4 4.3 61.6 4.3 58.8 4.3 56 4.3 53.2 4.3 50.4 4.3 47.6 4.3 44.8 4.3 42 4.3 39.2 4.3 36.4 4.3 33.6 4.3 30.8 4.3 28 4.3 25.2 4.3 22.4 4.3 19.6 4.3 16.8 4.3 14 4.3 11.2 4.3 8.4 4.3 5.6 4.3 5.6 8.6 5.6 12.8 5.6 17.1 5.6 21.4 5.6 25.6 5.6 29.9 5.6 34.2 8.4 34.2"/>
            <polygon class="cls-12" points="75.6 47 72.8 47 70 47 67.2 47 64.4 47 61.6 47 58.8 47 56 47 53.2 47 50.4 47 47.6 47 44.8 47 42 47 39.2 47 36.4 47 33.6 47 30.8 47 28 47 25.2 47 25.2 51.2 25.2 55.5 25.2 59.8 25.2 64.1 25.2 68.3 25.2 72.6 25.2 76.8 25.2 81.1 25.2 85.4 25.2 89.7 25.2 93.9 25.2 98.2 25.2 102.5 25.2 106.7 25.2 111 25.2 115.3 25.2 119.6 25.2 123.8 25.2 128.1 25.2 132.4 25.2 136.6 25.2 140.9 25.2 145.2 25.2 149.4 25.2 153.7 25.2 158 28 158 28 153.7 28 149.4 30.8 149.4 30.8 145.2 30.8 140.9 33.6 140.9 33.6 136.6 36.4 136.6 36.4 132.4 36.4 128.1 39.2 128.1 39.2 123.8 39.2 119.6 42 119.6 42 115.3 44.8 115.3 44.8 111 47.6 111 47.6 106.7 47.6 102.5 50.4 102.5 50.4 98.2 53.2 98.2 53.2 93.9 56 93.9 56 89.7 56 85.4 58.8 85.4 58.8 81.1 61.6 81.1 64.4 81.1 64.4 76.8 67.2 76.8 67.2 72.6 70 72.6 70 68.3 72.8 68.3 72.8 64.1 75.6 64.1 78.4 64.1 78.4 59.8 81.2 59.8 81.2 55.5 84 55.5 86.8 55.5 86.8 51.2 89.6 51.2 92.4 51.2 92.4 47 89.6 47 86.8 47 84 47 81.2 47 78.4 47 75.6 47"/>
          </g>
          <rect class="cls-16" x="25.2" y="158" width="2.8" height="4.3"/>
          <rect class="cls-14" x="25.2" y="162.3" width="2.8" height="4.3"/>
          <rect class="cls-14" x="25.2" y="166.5" width="2.8" height="4.3"/>
          <rect class="cls-14" x="25.2" y="170.8" width="2.8" height="4.3"/>
          <rect class="cls-14" x="25.2" y="175.1" width="2.8" height="4.3"/>
          <rect class="cls-14" x="25.2" y="179.3" width="2.8" height="4.3"/>
          <rect class="cls-14" x="25.2" y="183.6" width="2.8" height="4.3"/>
          <rect class="cls-8" x="89.6" y="183.6" width="2.8" height="4.3"/>
          <rect class="cls-14" x="25.2" y="187.9" width="2.8" height="4.3"/>
          <rect class="cls-1" x="89.6" y="187.9" width="2.8" height="4.3"/>
          <rect class="cls-14" x="25.2" y="192.2" width="2.8" height="4.3"/>
          <rect class="cls-3" x="89.6" y="192.2" width="2.8" height="4.3"/>
          <rect class="cls-14" x="25.2" y="196.4" width="2.8" height="4"/>
          <g>
            <polygon class="cls-13" points="8.4 42.7 11.2 42.7 14 42.7 16.8 42.7 19.6 42.7 22.4 42.7 25.2 42.7 28 42.7 30.8 42.7 33.6 42.7 36.4 42.7 39.2 42.7 42 42.7 44.8 42.7 44.8 38.5 47.6 38.5 47.6 34.2 50.4 34.2 53.2 34.2 56 34.2 58.8 34.2 61.6 34.2 64.4 34.2 67.2 34.2 70 34.2 72.8 34.2 75.6 34.2 78.4 34.2 81.2 34.2 84 34.2 86.8 34.2 89.6 34.2 92.4 34.2 95.2 34.2 98 34.2 100.8 34.2 103.6 34.2 106.4 34.2 109.2 34.2 112 34.2 114.8 34.2 117.6 34.2 120.4 34.2 123.2 34.2 123.2 29.9 123.2 25.6 123.2 21.4 123.2 17.1 123.2 12.8 123.2 8.6 123.2 4.3 120.4 4.3 117.6 4.3 114.8 4.3 112 4.3 109.2 4.3 106.4 4.3 103.6 4.3 100.8 4.3 98 4.3 95.2 4.3 92.4 4.3 89.6 4.3 86.8 4.3 84 4.3 81.2 4.3 81.2 8.6 78.4 8.6 75.6 8.6 72.8 8.6 70 8.6 67.2 8.6 64.4 8.6 61.6 8.6 61.6 12.8 58.8 12.8 56 12.8 53.2 12.8 50.4 12.8 47.6 12.8 47.6 17.1 44.8 17.1 42 17.1 39.2 17.1 36.4 17.1 36.4 21.4 33.6 21.4 30.8 21.4 28 21.4 25.2 21.4 25.2 25.6 22.4 25.6 19.6 25.6 19.6 29.9 16.8 29.9 14 29.9 11.2 29.9 11.2 34.2 8.4 34.2 8.4 38.5 5.6 38.5 5.6 42.7 8.4 42.7"/>
            <polygon class="cls-13" points="89.6 200.4 89.6 183.6 92.4 183.6 92.4 140.9 95.2 140.9 95.2 115.3 98 115.3 98 106.7 100.8 106.7 100.8 89.7 103.6 89.7 103.6 72.6 106.4 72.6 106.4 64.1 109.2 64.1 109.2 47 92.4 47 92.4 51.2 86.8 51.2 86.8 55.5 84 55.5 84 59.8 78.4 59.8 78.4 64.1 75.6 64.1 75.6 68.3 70 68.3 70 72.6 67.2 72.6 67.2 76.8 64.4 76.8 64.4 81.1 61.6 81.1 61.6 85.4 58.8 85.4 58.8 89.7 56 89.7 56 93.9 53.2 93.9 53.2 98.2 50.4 98.2 50.4 102.5 47.6 102.5 47.6 111 44.8 111 44.8 115.3 42 115.3 42 123.8 39.2 123.8 39.2 128.1 36.4 128.1 36.4 136.6 33.6 136.6 33.6 140.9 30.8 140.9 30.8 153.7 28 153.7 28 200.4 89.6 200.4"/>
          </g>
          <g>
            <polygon class="cls-7" points="47.6 42.7 50.4 42.7 53.2 42.7 56 42.7 58.8 42.7 61.6 42.7 64.4 42.7 67.2 42.7 70 42.7 72.8 42.7 75.6 42.7 78.4 42.7 81.2 42.7 84 42.7 86.8 42.7 89.6 42.7 92.4 42.7 95.2 42.7 98 42.7 100.8 42.7 103.6 42.7 106.4 42.7 109.2 42.7 112 42.7 114.8 42.7 117.6 42.7 120.4 42.7 123.2 42.7 126 42.7 128.8 42.7 131.6 42.7 134.4 42.7 134.4 38.5 134.4 34.2 134.4 29.9 134.4 25.6 134.4 21.4 134.4 17.1 134.4 12.8 134.4 8.6 134.4 4.3 131.6 4.3 128.8 4.3 126 4.3 123.2 4.3 123.2 8.6 123.2 12.8 123.2 17.1 123.2 21.4 123.2 25.6 123.2 29.9 123.2 34.2 120.4 34.2 117.6 34.2 114.8 34.2 112 34.2 109.2 34.2 106.4 34.2 103.6 34.2 100.8 34.2 98 34.2 95.2 34.2 92.4 34.2 89.6 34.2 86.8 34.2 84 34.2 81.2 34.2 78.4 34.2 75.6 34.2 72.8 34.2 70 34.2 67.2 34.2 64.4 34.2 61.6 34.2 58.8 34.2 56 34.2 53.2 34.2 50.4 34.2 47.6 34.2 47.6 38.5 44.8 38.5 44.8 42.7 47.6 42.7"/>
            <polygon class="cls-7" points="112 200.4 112 51.2 109.2 51.2 109.2 64.1 106.4 64.1 106.4 76.8 103.6 76.8 103.6 89.7 100.8 89.7 100.8 106.7 98 106.7 98 119.6 95.2 119.6 95.2 145.2 92.4 145.2 92.4 196.4 89.6 196.4 89.6 200.4 112 200.4"/>
          </g>
          <path class="cls-10" d="M19.6,47v153.4h5.6V47h86.8v153.4h5.6V47h22.4V0H0v47h19.6,0ZM5.6,4.3h128.8v38.4H5.6V4.3Z"/>
        </g>
      </g>
    </g>
  </g>
</svg>