<?xml version="1.0" encoding="UTF-8"?>
<svg id="Layer_1" data-name="Layer 1" xmlns="http://www.w3.org/2000/svg" version="1.1" viewBox="0 0 1920 1080">
  <defs>
    <style>
      .cls-1 {
        fill: #40595c;
      }

      .cls-1, .cls-2, .cls-3, .cls-4, .cls-5, .cls-6, .cls-7, .cls-8, .cls-9, .cls-10, .cls-11, .cls-12, .cls-13, .cls-14, .cls-15, .cls-16, .cls-17, .cls-18, .cls-19, .cls-20, .cls-21, .cls-22, .cls-23, .cls-24, .cls-25, .cls-26, .cls-27, .cls-28, .cls-29, .cls-30, .cls-31, .cls-32, .cls-33, .cls-34, .cls-35, .cls-36, .cls-37, .cls-38, .cls-39, .cls-40, .cls-41, .cls-42, .cls-43, .cls-44, .cls-45, .cls-46, .cls-47, .cls-48, .cls-49, .cls-50, .cls-51, .cls-52, .cls-53, .cls-54, .cls-55, .cls-56, .cls-57, .cls-58, .cls-59, .cls-60, .cls-61, .cls-62, .cls-63, .cls-64, .cls-65, .cls-66, .cls-67, .cls-68, .cls-69, .cls-70, .cls-71, .cls-72, .cls-73, .cls-74, .cls-75, .cls-76, .cls-77 {
        stroke-width: 0px;
      }

      .cls-2 {
        fill: #4e8790;
      }

      .cls-3 {
        fill: #1e555e;
      }

      .cls-4 {
        fill: #40575b;
      }

      .cls-5 {
        fill: #1a484f;
      }

      .cls-6 {
        fill: #436269;
      }

      .cls-7 {
        fill: #294e53;
      }

      .cls-8 {
        fill: #7fa3b3;
      }

      .cls-9 {
        fill: #648a97;
      }

      .cls-10 {
        fill: #c4d2da;
      }

      .cls-11 {
        fill: #abc0ca;
      }

      .cls-12 {
        fill: #2e5352;
      }

      .cls-13 {
        fill: #657479;
      }

      .cls-14 {
        fill: #979e9f;
      }

      .cls-15 {
        fill: #53899a;
      }

      .cls-16 {
        fill: #acb2b9;
      }

      .cls-17 {
        fill: #b0c4ce;
      }

      .cls-18 {
        fill: #1e535b;
      }

      .cls-19 {
        fill: #1a4a51;
      }

      .cls-20 {
        fill: #284a4c;
      }

      .cls-21 {
        fill: #e5e9ec;
      }

      .cls-22 {
        fill: #20545d;
      }

      .cls-23 {
        fill: #c0ccd3;
      }

      .cls-24 {
        fill: #7c919b;
      }

      .cls-25 {
        fill: #183e42;
      }

      .cls-26 {
        fill: #e3e6ea;
      }

      .cls-27 {
        fill: #93b0be;
      }

      .cls-28 {
        fill: #6693a4;
      }

      .cls-29 {
        fill: #1d545c;
      }

      .cls-30 {
        fill: #d4d7dc;
      }

      .cls-31 {
        fill: #1e5159;
      }

      .cls-32 {
        fill: #1b5159;
      }

      .cls-33 {
        fill: #ced1d7;
      }

      .cls-34 {
        fill: #558a9c;
      }

      .cls-35 {
        fill: #27626e;
      }

      .cls-36 {
        fill: #bbccd5;
      }

      .cls-37 {
        fill: #e7ebe5;
      }

      .cls-38 {
        fill: #9ab4c2;
      }

      .cls-39 {
        fill: #1b4d54;
      }

      .cls-40 {
        fill: #426167;
      }

      .cls-41 {
        fill: #1c4e55;
      }

      .cls-42 {
        fill: #1d525a;
      }

      .cls-43 {
        fill: #1c4b52;
      }

      .cls-44 {
        fill: #7f939d;
      }

      .cls-45 {
        fill: #2d4d51;
      }

      .cls-46 {
        fill: #33565b;
      }

      .cls-47 {
        fill: #1d525b;
      }

      .cls-48 {
        fill: #6492a3;
      }

      .cls-49 {
        fill: #588c9e;
      }

      .cls-50 {
        fill: #2b5156;
      }

      .cls-51 {
        fill: #d6dee4;
      }

      .cls-52 {
        fill: #748b94;
      }

      .cls-53 {
        fill: #80a4b3;
      }

      .cls-54 {
        fill: #dde3e8;
      }

      .cls-55 {
        fill: #4c6971;
      }

      .cls-56 {
        fill: #aebcc5;
      }

      .cls-57 {
        fill: #627276;
      }

      .cls-58 {
        fill: #516e74;
      }

      .cls-59 {
        fill: #768f99;
      }

      .cls-60 {
        fill: #fff;
      }

      .cls-61 {
        fill: #387d90;
      }

      .cls-62 {
        fill: #5f6f73;
      }

      .cls-63 {
        fill: #1b4f55;
      }

      .cls-64 {
        fill: #365a60;
      }

      .cls-65 {
        fill: #759eae;
      }

      .cls-66 {
        fill: #1c4e54;
      }

      .cls-67 {
        fill: #6191a2;
      }

      .cls-68 {
        fill: #b1b7be;
      }

      .cls-69 {
        fill: #d4dde2;
      }

      .cls-70 {
        fill: #1b4950;
      }

      .cls-71 {
        fill: #506367;
      }

      .cls-72 {
        fill: #627c84;
      }

      .cls-73 {
        fill: #85a7b6;
      }

      .cls-74 {
        fill: #294b4f;
      }

      .cls-75 {
        fill: #284f54;
      }

      .cls-76 {
        fill: #1b4d53;
      }

      .cls-77 {
        fill: #20565e;
      }
    </style>
  </defs>
  <g>
    <rect class="cls-77" x="290.2" y="923.9" width="11" height="5.1"/>
    <rect class="cls-47" x="355.9" y="923.9" width="11" height="5.1"/>
    <rect class="cls-67" x="5.6" y="918.6" width="11" height="5.1"/>
    <rect class="cls-19" x="377.8" y="918.6" width="11" height="5.1"/>
    <rect class="cls-54" x="5.6" y="913.5" width="11" height="5.1"/>
    <rect class="cls-49" x="16.5" y="903.1" width="11" height="5.1"/>
    <rect class="cls-69" x="16.5" y="897.9" width="11" height="5.1"/>
    <rect class="cls-42" x="279.3" y="897.9" width="11" height="5.1"/>
    <rect class="cls-65" x="38.4" y="872.1" width="11" height="5.1"/>
    <rect class="cls-28" x="49.3" y="861.7" width="11" height="5.1"/>
    <rect class="cls-63" x="246.4" y="861.7" width="11" height="5.1"/>
    <rect class="cls-66" x="334.1" y="861.7" width="11" height="5.1"/>
    <rect class="cls-49" x="60.3" y="851.3" width="11" height="5.1"/>
    <rect class="cls-21" x="60.3" y="846.2" width="11" height="5.1"/>
    <rect class="cls-51" x="71.3" y="835.8" width="11" height="5.1"/>
    <rect class="cls-70" x="290.2" y="835.8" width="11" height="5.1"/>
    <rect class="cls-31" x="290.2" y="830.6" width="11" height="5.1"/>
    <rect class="cls-22" x="542.1" y="830.6" width="10" height="5.1"/>
    <rect class="cls-10" x="82.2" y="825.5" width="11" height="5.1"/>
    <rect class="cls-17" x="93.1" y="815.1" width="11" height="5.1"/>
    <rect class="cls-77" x="334.1" y="810" width="11" height="5.1"/>
    <rect class="cls-39" x="542.1" y="810" width="10" height="5.1"/>
    <rect class="cls-38" x="104.1" y="804.7" width="11" height="5.1"/>
    <rect class="cls-5" x="202.7" y="804.7" width="11" height="5.1"/>
    <rect class="cls-43" x="377.8" y="804.7" width="11" height="5.1"/>
    <rect class="cls-73" x="115" y="794.4" width="11" height="5.1"/>
    <rect class="cls-3" x="531.1" y="778.9" width="11" height="5.1"/>
    <rect class="cls-41" x="213.6" y="773.7" width="11" height="5.1"/>
    <rect class="cls-5" x="399.8" y="773.7" width="11" height="5.1"/>
    <rect class="cls-34" x="147.9" y="758.1" width="11" height="5.1"/>
    <rect class="cls-41" x="224.5" y="753" width="11" height="5.1"/>
    <rect class="cls-39" x="235.5" y="753" width="11" height="5.1"/>
    <rect class="cls-70" x="432.6" y="747.8" width="11" height="5.1"/>
    <rect class="cls-42" x="443.5" y="742.6" width="11" height="5.1"/>
    <rect class="cls-43" x="454.5" y="732.3" width="11" height="5.1"/>
    <rect class="cls-11" x="180.7" y="721.9" width="11" height="5.1"/>
    <rect class="cls-27" x="191.7" y="711.5" width="11" height="5.1"/>
    <rect class="cls-4" x="465.4" y="706.4" width="11" height="5.1"/>
    <rect class="cls-53" x="202.7" y="701.2" width="11" height="5.1"/>
    <rect class="cls-20" x="454.5" y="696" width="11" height="5.1"/>
    <rect class="cls-48" x="213.6" y="690.8" width="11" height="5.1"/>
    <rect class="cls-45" x="443.5" y="685.7" width="11" height="5.1"/>
    <rect class="cls-74" x="432.6" y="680.4" width="11" height="5.1"/>
    <rect class="cls-36" x="224.5" y="675.3" width="11" height="5.1"/>
    <rect class="cls-8" x="235.5" y="664.9" width="11" height="5.1"/>
    <rect class="cls-19" x="290.2" y="664.9" width="11" height="5.1"/>
    <rect class="cls-1" x="410.7" y="659.8" width="11" height="5.1"/>
    <rect class="cls-15" x="246.4" y="654.6" width="11" height="5.1"/>
    <rect class="cls-2" x="257.4" y="654.6" width="11" height="5.1"/>
    <rect class="cls-37" x="246.4" y="649.4" width="11" height="5.1"/>
    <g>
      <polygon class="cls-35" points="38.4 913.5 38.4 918.6 38.4 923.9 38.4 929 49.3 929 60.3 929 71.3 929 82.2 929 93.2 929 104.1 929 115 929 126 929 137 929 137 923.9 147.9 923.9 147.9 918.6 147.9 913.5 158.9 913.5 158.9 908.3 158.9 903.1 158.9 897.9 169.8 897.9 169.8 892.8 169.8 887.6 169.8 882.4 180.7 882.4 180.7 877.3 180.7 872.1 191.7 872.1 191.7 866.9 191.7 861.7 202.7 861.7 202.7 856.5 202.7 851.3 213.6 851.3 213.6 846.2 213.6 841 224.6 841 224.6 835.8 224.6 830.6 235.5 830.6 235.5 825.5 235.5 820.3 235.5 815.1 246.4 815.1 246.4 810 246.4 804.7 246.4 799.6 235.5 799.6 235.5 804.7 235.5 810 224.6 810 224.6 815.1 224.6 820.3 213.6 820.3 213.6 825.5 202.7 825.5 202.7 830.6 202.7 835.8 191.7 835.8 191.7 841 180.7 841 180.7 846.2 169.8 846.2 158.9 846.2 158.9 841 158.9 835.8 158.9 830.6 158.9 825.5 158.9 820.3 158.9 815.1 169.8 815.1 169.8 810 169.8 804.7 169.8 799.6 180.7 799.6 180.7 794.4 180.7 789.2 180.7 784 180.7 778.9 169.8 778.9 169.8 784 169.8 789.2 158.9 789.2 158.9 794.4 158.9 799.6 147.9 799.6 147.9 804.7 147.9 810 137 810 137 815.1 137 820.3 137 825.5 126 825.5 126 830.6 126 835.8 115 835.8 115 841 115 846.2 104.1 846.2 104.1 851.3 104.1 856.5 93.2 856.5 93.2 861.7 93.2 866.9 82.2 866.9 82.2 872.1 82.2 877.3 71.3 877.3 71.3 882.4 71.3 887.6 60.3 887.6 60.3 892.8 60.3 897.9 60.3 903.1 49.3 903.1 49.3 908.3 49.3 913.5 38.4 913.5"/>
      <rect class="cls-35" x="345" y="897.9" width="11" height="5.1"/>
      <rect class="cls-35" x="268.4" y="882.4" width="11" height="5.1"/>
      <rect class="cls-35" x="334.1" y="866.9" width="11" height="5.1"/>
      <rect class="cls-35" x="290.2" y="841" width="11" height="5.1"/>
      <polygon class="cls-35" points="301.2 820.3 290.3 820.3 290.3 825.5 290.3 830.6 301.2 830.6 301.2 825.5 301.2 820.3"/>
      <rect class="cls-35" x="301.2" y="810" width="11" height="5.1"/>
      <polygon class="cls-35" points="377.8 810 377.8 918.6 388.8 918.6 388.8 929 552.1 929 552.1 903.1 542.1 903.1 542.1 887.6 531.1 887.6 531.1 872.1 520.2 872.1 520.2 861.7 509.2 861.7 509.2 846.2 498.3 846.2 498.3 825.5 487.4 825.5 487.4 799.6 476.4 799.6 476.4 773.7 487.4 773.7 487.4 721.9 465.4 721.9 465.4 737.4 454.5 737.4 454.5 747.8 443.5 747.8 443.5 753 432.6 753 432.6 758.1 421.7 758.1 421.7 768.5 410.7 768.5 410.7 778.9 399.8 778.9 399.8 789.2 388.8 789.2 388.8 810 377.8 810"/>
      <rect class="cls-35" x="213.6" y="789.2" width="11" height="5.1"/>
      <rect class="cls-35" x="345" y="789.2" width="11" height="5.1"/>
      <polygon class="cls-35" points="312.1 784 323.1 784 323.1 778.9 323.1 773.7 312.1 773.7 312.1 778.9 301.2 778.9 301.2 784 312.1 784"/>
      <rect class="cls-35" x="531.1" y="773.7" width="11" height="5.1"/>
      <polygon class="cls-35" points="180.7 773.7 180.7 778.9 191.7 778.9 191.7 773.7 191.7 768.5 191.7 763.4 180.7 763.4 180.7 768.5 180.7 773.7"/>
      <polygon class="cls-35" points="191.7 758.1 191.7 763.4 202.7 763.4 202.7 758.1 202.7 753 191.7 753 191.7 758.1"/>
      <rect class="cls-35" x="202.7" y="742.6" width="11" height="5.1"/>
      <polygon class="cls-35" points="323.1 747.8 334.1 747.8 334.1 742.6 334.1 737.4 334.1 732.3 323.1 732.3 323.1 737.4 323.1 742.6 323.1 747.8"/>
      <rect class="cls-35" x="246.4" y="737.4" width="11" height="5.1"/>
      <rect class="cls-35" x="235.5" y="732.3" width="11" height="5.1"/>
      <rect class="cls-35" x="213.6" y="727" width="11" height="5.1"/>
      <rect class="cls-35" x="257.4" y="721.9" width="11" height="5.1"/>
      <rect class="cls-35" x="246.4" y="711.5" width="11" height="5.1"/>
      <rect class="cls-35" x="355.9" y="696" width="11" height="5.1"/>
      <rect class="cls-35" x="279.3" y="690.8" width="11" height="5.1"/>
      <rect class="cls-35" x="268.4" y="675.3" width="11" height="5.1"/>
      <rect class="cls-35" x="542.1" y="659.8" width="10" height="10.4"/>
      <rect class="cls-35" x="279.3" y="659.8" width="11" height="5.1"/>
      <polygon class="cls-35" points="531.1 659.8 542.1 659.8 542.1 654.6 542.1 649.4 531.1 649.4 531.1 654.6 531.1 659.8"/>
    </g>
    <rect class="cls-12" x="377.8" y="644.2" width="11" height="5.1"/>
    <rect class="cls-62" x="399.8" y="644.2" width="11" height="5.1"/>
    <rect class="cls-9" x="498.3" y="644.2" width="11" height="5.1"/>
    <g>
      <path class="cls-61" d="M16.6,923.9H5.6s0,5.1,0,5.1h32.9s0-15.5,0-15.5h11s0-10.4,0-10.4h11s0-15.5,0-15.5h11s0-10.4,0-10.4h11s0-10.4,0-10.4h11s0-10.4,0-10.4h11s0-10.4,0-10.4h11s0-10.4,0-10.4h11s0-10.4,0-10.4h11s0-15.5,0-15.5h11s0-10.4,0-10.4h11s0-10.4,0-10.4h11s0-10.4,0-10.4h11s0-15.5,0-15.5h11s0-10.4,0-10.4h11v10.4h-11s0,15.5,0,15.5h-11s0,20.7,0,20.7h-11s0,15.5,0,15.5h-11s0,31.1,0,31.1h21.9s0-5.1,0-5.1h11s0-5.1,0-5.1h11s0-10.4,0-10.4h11s0-5.1,0-5.1h11s0-10.4,0-10.4h11s0-10.4,0-10.4h11v62.1s11,0,11,0v10.4s11,0,11,0v10.4s11,0,11,0v15.5s11,0,11,0v25.9s11,0,11,0v5.1s54.7,0,54.7,0v-25.9s-11,0-11,0v-31.1s-11,0-11,0v-62.1h11s0-20.7,0-20.7h11s0-15.5,0-15.5h11s0-72.5,0-72.5h-11v-15.5s-11,0-11,0v10.4h-11s0,10.4,0,10.4h-11s0,10.4,0,10.4h-11s0,10.4,0,10.4h-11s0,10.4,0,10.4h-11s0,5.1,0,5.1h-11s0,5.1,0,5.1h-21.9v-5.1s-11,0-11,0v15.5h-11s0,15.5,0,15.5h-11s0,20.7,0,20.7h-11v-20.7h11s0-20.7,0-20.7h11s0-20.7,0-20.7h11s0-20.7,0-20.7h11s0-15.5,0-15.5h11s0-20.7,0-20.7h11s0-15.5,0-15.5h-32.9s0,10.4,0,10.4h-11s0,10.4,0,10.4h-11s0,15.5,0,15.5h-11s0,10.4,0,10.4h-11s0,10.4,0,10.4h-11s0,10.4,0,10.4h-11s0,10.4,0,10.4h-11s0,10.4,0,10.4h-11s0,15.5,0,15.5h-11s0,10.4,0,10.4h-11s0,10.4,0,10.4h-11s0,15.5,0,15.5h-11s0,10.4,0,10.4h-11s0,10.4,0,10.4h-11s0,10.4,0,10.4h-11s0,10.4,0,10.4h-11s0,15.5,0,15.5h-11s0,10.4,0,10.4h-11s0,10.4,0,10.4h-11s0,10.4,0,10.4h-11s0,20.7,0,20.7h-11s0,15.5,0,15.5h0ZM224.6,732.2h-11v-5.1h11v5.1ZM301.2,846.1h-11v-25.9h11v20.7s0,5.1,0,5.1ZM323.1,732.3h11v15.5h-11v-10.4s0-5.1,0-5.1ZM312.1,810v5.1h-11v-36.2h11s0-20.7,0-20.7h11v25.9h-11s0,25.9,0,25.9h0ZM213.6,804.8v5.1h-11v-10.4h11v5.1s0,0,0,0ZM202.7,747.8v-5.1h11v5.1h-11Z"/>
      <polygon class="cls-61" points="268.4 727 257.4 727 257.4 732.3 257.4 737.4 268.4 737.4 268.4 732.3 268.4 727"/>
      <rect class="cls-61" x="268.4" y="711.5" width="11" height="5.1"/>
      <polygon class="cls-61" points="476.4 711.5 476.4 721.9 487.4 721.9 487.4 773.7 476.4 773.7 476.4 799.6 487.4 799.6 487.4 825.5 498.3 825.5 498.3 846.2 509.2 846.2 509.2 861.7 520.2 861.7 520.2 872.1 531.1 872.1 531.1 887.6 542.1 887.6 542.1 903.1 552.1 903.1 552.1 835.8 542.1 835.8 542.1 815.1 531.1 815.1 531.1 773.7 542.1 773.7 542.1 810 552.1 810 552.1 670.2 542.1 670.2 542.1 659.8 531.1 659.8 531.1 649.4 520.2 649.4 520.2 644.2 509.2 644.2 509.2 649.4 498.3 649.4 498.3 685.7 487.4 685.7 487.4 711.5 476.4 711.5"/>
      <rect class="cls-61" x="279.3" y="696" width="11" height="5.1"/>
      <polygon class="cls-61" points="301.2 675.3 301.2 670.2 290.3 670.2 290.3 675.3 290.3 680.4 290.3 685.7 290.3 690.8 301.2 690.8 301.2 685.7 301.2 680.4 301.2 675.3"/>
      <polygon class="cls-61" points="279.3 654.6 279.3 659.8 290.3 659.8 301.2 659.8 301.2 664.9 301.2 670.2 312.1 670.2 312.1 664.9 312.1 659.8 312.1 654.6 312.1 649.4 312.1 644.2 301.2 644.2 301.2 649.4 290.3 649.4 290.3 654.6 279.3 654.6"/>
    </g>
    <rect class="cls-59" x="520.2" y="644.2" width="11" height="5.1"/>
    <g>
      <polygon class="cls-25" points="137 923.9 137 929 147.9 929 158.9 929 169.8 929 180.7 929 191.7 929 202.7 929 213.6 929 224.6 929 235.5 929 246.4 929 257.4 929 268.4 929 279.3 929 290.3 929 290.3 923.9 290.3 918.6 290.3 913.5 290.3 908.3 290.3 903.1 279.3 903.1 279.3 897.9 279.3 892.8 279.3 887.6 268.4 887.6 268.4 882.4 268.4 877.3 268.4 872.1 257.4 872.1 257.4 866.9 246.4 866.9 246.4 861.7 246.4 856.5 246.4 851.3 246.4 846.2 246.4 841 246.4 835.8 246.4 830.6 246.4 825.5 246.4 820.3 246.4 815.1 235.5 815.1 235.5 820.3 235.5 825.5 235.5 830.6 224.6 830.6 224.6 835.8 224.6 841 213.6 841 213.6 846.2 213.6 851.3 202.7 851.3 202.7 856.5 202.7 861.7 191.7 861.7 191.7 866.9 191.7 872.1 180.7 872.1 180.7 877.3 180.7 882.4 169.8 882.4 169.8 887.6 169.8 892.8 169.8 897.9 158.9 897.9 158.9 903.1 158.9 908.3 158.9 913.5 147.9 913.5 147.9 918.6 147.9 923.9 137 923.9"/>
      <rect class="cls-25" x="542.1" y="815.1" width="10" height="15.5"/>
      <polygon class="cls-25" points="345 815.1 334.1 815.1 334.1 820.3 334.1 825.5 334.1 830.6 334.1 835.8 334.1 841 334.1 846.2 334.1 851.3 334.1 856.5 334.1 861.7 345 861.7 345 866.9 345 872.1 345 877.3 345 882.4 345 887.6 345 892.8 345 897.9 356 897.9 356 903.1 356 908.3 356 913.5 356 918.6 356 923.9 366.9 923.9 366.9 929 377.8 929 388.8 929 388.8 923.9 377.8 923.9 377.8 918.6 377.8 913.5 377.8 908.3 377.8 903.1 377.8 897.9 377.8 892.8 377.8 887.6 377.8 882.4 377.8 877.3 377.8 872.1 377.8 866.9 377.8 861.7 377.8 856.5 377.8 851.3 377.8 846.2 377.8 841 377.8 835.8 377.8 830.6 377.8 825.5 377.8 820.3 377.8 815.1 377.8 810 377.8 804.7 388.8 804.7 388.8 799.6 388.8 794.4 388.8 789.2 399.8 789.2 399.8 784 399.8 778.9 399.8 773.7 410.7 773.7 410.7 768.5 421.7 768.5 421.7 763.4 421.7 758.1 432.6 758.1 432.6 753 432.6 747.8 443.5 747.8 443.5 742.6 454.5 742.6 454.5 737.4 454.5 732.3 465.4 732.3 465.4 727 465.4 721.9 476.4 721.9 476.4 716.8 476.4 711.5 465.4 711.5 465.4 706.4 465.4 701.2 454.5 701.2 454.5 696 454.5 690.8 443.5 690.8 443.5 685.7 432.6 685.7 432.6 680.4 432.6 675.3 432.6 670.2 421.7 670.2 421.7 664.9 410.7 664.9 410.7 659.8 410.7 654.6 410.7 649.4 399.8 649.4 399.8 644.2 399.8 639.1 388.8 639.1 388.8 644.2 388.8 649.4 377.8 649.4 377.8 654.6 377.8 659.8 366.9 659.8 366.9 664.9 366.9 670.2 356 670.2 356 675.3 356 680.4 356 685.7 356 690.8 356 696 366.9 696 366.9 701.2 366.9 706.4 366.9 711.5 366.9 716.8 366.9 721.9 366.9 727 366.9 732.3 366.9 737.4 366.9 742.6 366.9 747.8 366.9 753 366.9 758.1 366.9 763.4 366.9 768.5 366.9 773.7 356 773.7 356 778.9 356 784 356 789.2 356 794.4 345 794.4 345 799.6 345 804.7 345 810 345 815.1"/>
      <rect class="cls-25" x="202.7" y="799.6" width="11" height="5.1"/>
      <polygon class="cls-25" points="312.1 784 301.2 784 301.2 789.2 301.2 794.4 301.2 799.6 301.2 804.7 301.2 810 312.1 810 312.1 804.7 312.1 799.6 312.1 794.4 312.1 789.2 312.1 784"/>
      <polygon class="cls-25" points="542.1 784 531.1 784 531.1 789.2 531.1 794.4 531.1 799.6 531.1 804.7 531.1 810 531.1 815.1 542.1 815.1 542.1 810 542.1 804.7 542.1 799.6 542.1 794.4 542.1 789.2 542.1 784"/>
      <polygon class="cls-25" points="224.6 778.9 213.6 778.9 213.6 784 213.6 789.2 224.6 789.2 224.6 784 224.6 778.9"/>
      <polygon class="cls-25" points="312.1 773.7 323.1 773.7 323.1 768.5 323.1 763.4 323.1 758.1 312.1 758.1 312.1 763.4 312.1 768.5 312.1 773.7"/>
      <polygon class="cls-25" points="235.5 758.1 224.6 758.1 224.6 763.4 224.6 768.5 224.6 773.7 235.5 773.7 235.5 768.5 235.5 763.4 235.5 758.1"/>
      <polygon class="cls-25" points="246.4 742.6 246.4 737.4 235.5 737.4 235.5 742.6 235.5 747.8 235.5 753 246.4 753 246.4 747.8 246.4 742.6"/>
      <rect class="cls-25" x="542.1" y="649.4" width="10" height="10.4"/>
      <polygon class="cls-25" points="290.3 670.2 290.3 664.9 279.3 664.9 279.3 670.2 279.3 675.3 279.3 680.4 268.4 680.4 268.4 685.7 268.4 690.8 268.4 696 257.4 696 257.4 701.2 257.4 706.4 257.4 711.5 257.4 716.8 246.4 716.8 246.4 721.9 246.4 727 246.4 732.3 246.4 737.4 257.4 737.4 257.4 732.3 257.4 727 257.4 721.9 268.4 721.9 268.4 716.8 268.4 711.5 279.3 711.5 279.3 706.4 279.3 701.2 279.3 696 279.3 690.8 290.3 690.8 290.3 685.7 290.3 680.4 290.3 675.3 290.3 670.2"/>
      <rect class="cls-25" x="290.2" y="659.8" width="11" height="5.1"/>
    </g>
    <rect class="cls-24" x="509.2" y="639.1" width="11" height="5.1"/>
    <rect class="cls-71" x="388.8" y="633.8" width="11" height="5.1"/>
    <rect class="cls-16" x="542.1" y="618.3" width="10" height="5.1"/>
    <rect class="cls-30" x="520.2" y="597.6" width="11" height="5.1"/>
    <rect class="cls-68" x="509.2" y="592.5" width="11" height="5.1"/>
    <rect class="cls-16" x="487.3" y="571.7" width="11" height="5.1"/>
    <rect class="cls-16" x="476.4" y="561.4" width="11" height="5.1"/>
    <rect class="cls-16" x="465.4" y="551" width="11" height="5.1"/>
    <polygon class="cls-14" points="388.8 592.5 388.8 633.8 399.8 633.8 399.8 644.2 410.7 644.2 410.7 659.8 421.7 659.8 421.7 670.2 432.6 670.2 432.6 680.4 443.5 680.4 443.5 685.7 454.5 685.7 454.5 696 465.4 696 465.4 706.4 476.4 706.4 476.4 711.5 487.4 711.5 487.4 685.7 498.3 685.7 498.3 644.2 509.2 644.2 509.2 639.1 520.2 639.1 520.2 644.2 531.1 644.2 531.1 649.4 552.1 649.4 552.1 623.5 542.1 623.5 542.1 608 531.1 608 531.1 602.8 520.2 602.8 520.2 597.6 509.2 597.6 509.2 582.1 498.3 582.1 498.3 576.9 487.4 576.9 487.4 566.6 476.4 566.6 476.4 556.2 465.4 556.2 465.4 545.9 454.5 545.9 454.5 535.5 443.5 535.5 443.5 525.1 432.6 525.1 432.6 519.9 421.7 519.9 421.7 545.9 410.7 545.9 410.7 561.4 399.8 561.4 399.8 592.5 388.8 592.5"/>
    <rect class="cls-16" x="432.6" y="519.9" width="11" height="5.1"/>
    <g>
      <polygon class="cls-60" points="257.4 644.2 257.4 649.4 257.4 654.6 268.4 654.6 268.4 654.6 268.4 659.8 279.3 659.8 279.3 654.6 290.3 654.6 290.3 649.4 301.2 649.4 301.2 644.2 312.1 644.2 312.1 649.4 312.1 654.6 312.1 659.8 312.1 664.9 312.1 670.2 301.2 670.2 301.2 675.3 301.2 680.4 301.2 685.7 301.2 690.8 290.3 690.8 290.3 696 290.3 701.2 290.3 706.4 290.3 706.4 290.3 701.2 279.3 701.2 279.3 706.4 279.3 711.5 279.3 716.8 268.4 716.8 268.4 721.9 268.4 721.9 268.4 727 268.4 732.3 268.4 737.4 257.4 737.4 257.4 742.6 257.4 747.8 268.4 747.8 279.3 747.8 279.3 742.6 290.3 742.6 290.3 737.4 290.3 737.4 301.2 737.4 301.2 732.3 301.2 727 312.1 727 312.1 721.9 312.1 716.8 323.1 716.8 323.1 711.5 323.1 706.4 334.1 706.4 334.1 701.2 334.1 696 345 696 345 690.8 345 685.7 356 685.7 356 680.4 356 675.3 356 670.2 366.9 670.2 366.9 664.9 366.9 659.8 377.8 659.8 377.8 654.6 377.8 649.4 377.8 644.2 388.8 644.2 388.8 639.1 388.8 633.8 388.8 628.7 388.8 623.5 388.8 618.3 388.8 613.2 388.8 608 388.8 602.8 388.8 597.6 388.8 592.5 399.8 592.5 399.8 587.2 399.8 587.2 399.8 582.1 399.8 582.1 399.8 576.9 399.8 571.7 399.8 566.6 399.8 561.4 410.7 561.4 410.7 556.2 410.7 551 410.7 545.9 421.7 545.9 421.7 540.6 421.7 535.5 421.7 530.3 421.7 525.1 410.7 525.1 410.7 530.3 410.7 535.5 399.8 535.5 399.8 540.6 399.8 545.9 388.8 545.9 388.8 551 388.8 556.2 377.8 556.2 377.8 561.4 366.9 561.4 366.9 566.6 366.9 571.7 356 571.7 356 576.9 356 582.1 345 582.1 345 587.2 345 592.5 334.1 592.5 334.1 597.6 334.1 602.8 323.1 602.8 323.1 608 312.1 608 312.1 613.2 301.2 613.2 301.2 618.3 301.2 623.5 290.3 623.5 290.3 628.7 279.3 628.7 279.3 633.8 268.4 633.8 268.4 639.1 268.4 644.2 257.4 644.2"/>
      <rect class="cls-60" x="421.6" y="514.8" width="11" height="5.1"/>
    </g>
  </g>
  <g>
    <rect class="cls-77" x="1322.2" y="859.8" width="11.6" height="5.5"/>
    <rect class="cls-47" x="1391.9" y="859.8" width="11.6" height="5.5"/>
    <rect class="cls-29" x="1903" y="859.8" width="11.6" height="5.5"/>
    <rect class="cls-19" x="1415" y="854.3" width="11.6" height="5.5"/>
    <rect class="cls-18" x="1879.8" y="843.3" width="11.6" height="5.5"/>
    <rect class="cls-75" x="1914.6" y="837.8" width="11.6" height="5.5"/>
    <rect class="cls-42" x="1310.5" y="832.3" width="11.6" height="5.5"/>
    <rect class="cls-40" x="1903" y="826.8" width="11.6" height="5.5"/>
    <rect class="cls-72" x="1891.4" y="815.8" width="11.6" height="5.5"/>
    <rect class="cls-76" x="1833.3" y="804.8" width="11.6" height="5.5"/>
    <rect class="cls-47" x="1821.6" y="799.4" width="11.6" height="5.5"/>
    <rect class="cls-63" x="1275.6" y="793.8" width="11.6" height="5.5"/>
    <rect class="cls-66" x="1368.6" y="793.8" width="11.6" height="5.5"/>
    <rect class="cls-19" x="1612.5" y="793.8" width="11.6" height="5.5"/>
    <rect class="cls-58" x="1856.5" y="782.8" width="11.6" height="5.5"/>
    <rect class="cls-32" x="1786.8" y="771.8" width="11.6" height="5.5"/>
    <rect class="cls-70" x="1322.2" y="766.4" width="11.6" height="5.5"/>
    <rect class="cls-46" x="1833.3" y="766.4" width="11.6" height="5.5"/>
    <rect class="cls-31" x="1322.2" y="760.8" width="11.6" height="5.5"/>
    <rect class="cls-22" x="1589.3" y="760.8" width="11.6" height="5.5"/>
    <rect class="cls-7" x="1821.6" y="760.8" width="11.6" height="5.5"/>
    <rect class="cls-77" x="1368.6" y="738.9" width="11.6" height="5.5"/>
    <rect class="cls-39" x="1589.3" y="738.9" width="11.6" height="5.5"/>
    <rect class="cls-5" x="1229.2" y="733.4" width="11.6" height="5.5"/>
    <rect class="cls-43" x="1415" y="733.4" width="11.6" height="5.5"/>
    <rect class="cls-32" x="1717.1" y="716.9" width="11.6" height="5.5"/>
    <rect class="cls-3" x="1577.7" y="705.9" width="11.6" height="5.5"/>
    <rect class="cls-41" x="1240.8" y="700.5" width="11.6" height="5.5"/>
    <rect class="cls-5" x="1438.3" y="700.5" width="11.6" height="5.5"/>
    <rect class="cls-72" x="1740.4" y="700.5" width="11.6" height="5.5"/>
    <rect class="cls-55" x="1728.8" y="694.9" width="11.6" height="5.5"/>
    <rect class="cls-43" x="1682.2" y="683.9" width="11.6" height="5.5"/>
    <rect class="cls-41" x="1252.4" y="678.5" width="11.6" height="5.5"/>
    <rect class="cls-39" x="1264" y="678.5" width="11.6" height="5.5"/>
    <rect class="cls-64" x="1717.1" y="678.5" width="11.6" height="5.5"/>
    <rect class="cls-70" x="1473.1" y="672.9" width="11.6" height="5.5"/>
    <rect class="cls-23" x="1717.1" y="672.9" width="11.6" height="5.5"/>
    <rect class="cls-42" x="1484.7" y="667.5" width="11.6" height="5.5"/>
    <rect class="cls-31" x="1670.7" y="662" width="11.6" height="5.5"/>
    <rect class="cls-43" x="1496.4" y="656.5" width="11.6" height="5.5"/>
    <rect class="cls-22" x="1659.1" y="640.1" width="11.6" height="5.5"/>
    <rect class="cls-26" x="1693.9" y="640.1" width="11.6" height="5.5"/>
    <rect class="cls-4" x="1508" y="629.1" width="11.6" height="5.5"/>
    <rect class="cls-50" x="1682.2" y="629.1" width="11.6" height="5.5"/>
    <rect class="cls-56" x="1682.2" y="623.5" width="11.6" height="5.5"/>
    <rect class="cls-20" x="1496.4" y="618.1" width="11.6" height="5.5"/>
    <rect class="cls-45" x="1484.7" y="607.1" width="11.6" height="5.5"/>
    <rect class="cls-52" x="1670.7" y="607.1" width="11.6" height="5.5"/>
    <rect class="cls-74" x="1473.1" y="601.5" width="11.6" height="5.5"/>
    <rect class="cls-6" x="1659.1" y="590.6" width="11.6" height="5.5"/>
    <rect class="cls-19" x="1322.2" y="585.1" width="11.6" height="5.5"/>
    <rect class="cls-1" x="1449.9" y="579.6" width="11.6" height="5.5"/>
    <rect class="cls-15" x="1275.6" y="574.1" width="11.6" height="5.5"/>
    <rect class="cls-2" x="1287.3" y="574.1" width="11.6" height="5.5"/>
    <g>
      <polygon class="cls-35" points="1194.4 727.9 1205.9 727.9 1205.9 705.9 1194.4 705.9 1194.4 716.9 1192.8 716.9 1192.8 744.4 1194.4 744.4 1194.4 727.9"/>
      <polygon class="cls-35" points="1194.4 815.8 1205.9 815.8 1205.9 804.8 1217.5 804.8 1217.5 793.8 1229.2 793.8 1229.2 782.8 1240.8 782.8 1240.8 771.8 1252.4 771.8 1252.4 760.8 1264.1 760.8 1264.1 744.4 1275.6 744.4 1275.6 727.9 1264.1 727.9 1264.1 738.9 1252.4 738.9 1252.4 749.9 1240.8 749.9 1240.8 755.4 1229.2 755.4 1229.2 766.4 1217.5 766.4 1217.5 771.8 1205.9 771.8 1205.9 777.4 1192.8 777.4 1192.8 832.3 1194.4 832.3 1194.4 815.8"/>
      <rect class="cls-35" x="1380.2" y="832.3" width="11.6" height="5.5"/>
      <rect class="cls-35" x="1298.9" y="815.8" width="11.6" height="5.5"/>
      <rect class="cls-35" x="1368.6" y="799.4" width="11.6" height="5.5"/>
      <rect class="cls-35" x="1601" y="777.4" width="11.6" height="5.5"/>
      <rect class="cls-35" x="1322.2" y="771.8" width="11.6" height="5.5"/>
      <polygon class="cls-35" points="1333.8 749.9 1322.2 749.9 1322.2 755.4 1322.2 760.8 1333.8 760.8 1333.8 755.4 1333.8 749.9"/>
      <rect class="cls-35" x="1333.7" y="738.9" width="11.6" height="5.5"/>
      <polygon class="cls-35" points="1426.7 738.9 1415 738.9 1415 744.4 1415 749.9 1415 755.4 1415 760.8 1415 766.4 1415 771.8 1415 777.4 1415 782.8 1415 788.4 1415 793.8 1415 799.4 1415 804.8 1415 810.4 1415 815.8 1415 821.3 1415 826.8 1415 832.3 1415 837.8 1415 843.3 1415 848.8 1415 854.3 1426.7 854.3 1426.7 859.8 1426.7 865.3 1438.3 865.3 1449.9 865.3 1461.6 865.3 1473.2 865.3 1484.7 865.3 1496.4 865.3 1508 865.3 1519.6 865.3 1531.3 865.3 1542.9 865.3 1554.4 865.3 1566.1 865.3 1577.7 865.3 1589.3 865.3 1601 865.3 1612.6 865.3 1612.6 859.8 1612.6 854.3 1601 854.3 1601 848.8 1601 843.3 1601 837.8 1589.3 837.8 1589.3 832.3 1589.3 826.8 1589.3 821.3 1577.7 821.3 1577.7 815.8 1577.7 810.4 1577.7 804.8 1566.1 804.8 1566.1 799.4 1566.1 793.8 1554.4 793.8 1554.4 788.4 1554.4 782.8 1554.4 777.4 1542.9 777.4 1542.9 771.8 1542.9 766.4 1542.9 760.8 1542.9 755.4 1531.3 755.4 1531.3 749.9 1531.3 744.4 1531.3 738.9 1531.3 733.4 1531.3 727.9 1519.6 727.9 1519.6 722.4 1519.6 716.9 1519.6 711.4 1519.6 705.9 1519.6 700.5 1531.3 700.5 1531.3 694.9 1531.3 689.5 1531.3 683.9 1531.3 678.5 1531.3 672.9 1531.3 667.5 1531.3 662 1531.3 656.5 1531.3 651 1531.3 645.5 1519.6 645.5 1508 645.5 1508 651 1508 656.5 1508 662 1496.4 662 1496.4 667.5 1496.4 672.9 1484.7 672.9 1484.7 678.5 1473.2 678.5 1473.2 683.9 1461.6 683.9 1461.6 689.5 1461.6 694.9 1449.9 694.9 1449.9 700.5 1449.9 705.9 1438.3 705.9 1438.3 711.4 1438.3 716.9 1426.7 716.9 1426.7 722.4 1426.7 727.9 1426.7 733.4 1426.7 738.9"/>
      <rect class="cls-35" x="1240.8" y="716.9" width="11.6" height="5.5"/>
      <rect class="cls-35" x="1380.2" y="716.9" width="11.6" height="5.5"/>
      <polygon class="cls-35" points="1345.3 711.4 1357 711.4 1357 705.9 1357 700.5 1345.3 700.5 1345.3 705.9 1333.8 705.9 1333.8 711.4 1345.3 711.4"/>
      <rect class="cls-35" x="1577.7" y="700.5" width="11.6" height="5.5"/>
      <polygon class="cls-35" points="1612.6 705.9 1624.2 705.9 1624.2 711.4 1624.2 716.9 1624.2 722.4 1624.2 727.9 1624.2 733.4 1624.2 738.9 1624.2 744.4 1624.2 749.9 1624.2 755.4 1624.2 760.8 1624.2 766.4 1624.2 771.8 1624.2 777.4 1624.2 782.8 1624.2 788.4 1635.8 788.4 1635.8 793.8 1635.8 799.4 1635.8 804.8 1647.4 804.8 1647.4 810.4 1659.1 810.4 1659.1 815.8 1659.1 821.3 1670.7 821.3 1670.7 826.8 1670.7 832.3 1682.3 832.3 1682.3 837.8 1682.3 843.3 1682.3 848.8 1693.9 848.8 1693.9 854.3 1693.9 859.8 1693.9 865.3 1705.5 865.3 1717.1 865.3 1728.8 865.3 1740.4 865.3 1752 865.3 1763.6 865.3 1775.2 865.3 1786.8 865.3 1798.5 865.3 1810.1 865.3 1821.7 865.3 1833.3 865.3 1844.9 865.3 1856.5 865.3 1868.2 865.3 1879.8 865.3 1891.4 865.3 1903 865.3 1903 859.8 1903 854.3 1891.4 854.3 1891.4 848.8 1879.8 848.8 1879.8 843.3 1879.8 837.8 1879.8 832.3 1868.2 832.3 1868.2 826.8 1856.5 826.8 1856.5 821.3 1844.9 821.3 1844.9 815.8 1844.9 810.4 1833.3 810.4 1833.3 804.8 1821.7 804.8 1821.7 799.4 1821.7 793.8 1810.1 793.8 1810.1 788.4 1810.1 782.8 1798.5 782.8 1798.5 777.4 1786.8 777.4 1786.8 771.8 1786.8 766.4 1775.2 766.4 1775.2 760.8 1775.2 755.4 1763.6 755.4 1763.6 749.9 1763.6 744.4 1752 744.4 1752 738.9 1740.4 738.9 1740.4 733.4 1740.4 727.9 1728.8 727.9 1728.8 722.4 1717.1 722.4 1717.1 716.9 1717.1 711.4 1705.5 711.4 1705.5 705.9 1705.5 700.5 1693.9 700.5 1693.9 694.9 1693.9 689.5 1682.3 689.5 1682.3 683.9 1682.3 678.5 1682.3 672.9 1682.3 667.5 1670.7 667.5 1670.7 662 1670.7 656.5 1670.7 651 1670.7 645.5 1659.1 645.5 1659.1 640.1 1659.1 634.5 1647.4 634.5 1647.4 629.1 1635.8 629.1 1635.8 623.5 1635.8 618.1 1624.2 618.1 1624.2 612.5 1624.2 607.1 1612.6 607.1 1612.6 601.5 1612.6 596.1 1612.6 590.6 1601 590.6 1601 596.1 1601 601.5 1601 607.1 1601 612.5 1601 618.1 1612.6 618.1 1612.6 623.5 1612.6 629.1 1612.6 634.5 1612.6 640.1 1612.6 645.5 1612.6 651 1612.6 656.5 1612.6 662 1612.6 667.5 1612.6 672.9 1612.6 678.5 1612.6 683.9 1612.6 689.5 1612.6 694.9 1612.6 700.5 1612.6 705.9"/>
      <polygon class="cls-35" points="1205.9 700.5 1205.9 705.9 1217.5 705.9 1217.5 700.5 1217.5 694.9 1217.5 689.5 1205.9 689.5 1205.9 694.9 1205.9 700.5"/>
      <polygon class="cls-35" points="1217.5 683.9 1217.5 689.5 1229.2 689.5 1229.2 683.9 1229.2 678.5 1217.5 678.5 1217.5 683.9"/>
      <rect class="cls-35" x="1229.2" y="667.5" width="11.6" height="5.5"/>
      <polygon class="cls-35" points="1357 672.9 1368.6 672.9 1368.6 667.5 1368.6 662 1368.6 656.5 1357 656.5 1357 662 1357 667.5 1357 672.9"/>
      <rect class="cls-35" x="1275.6" y="662" width="11.6" height="5.5"/>
      <rect class="cls-35" x="1264" y="656.5" width="11.6" height="5.5"/>
      <rect class="cls-35" x="1240.8" y="651" width="11.6" height="5.5"/>
      <rect class="cls-35" x="1287.3" y="645.5" width="11.6" height="5.5"/>
      <rect class="cls-35" x="1275.6" y="634.5" width="11.6" height="5.5"/>
      <rect class="cls-35" x="1391.9" y="618.1" width="11.6" height="5.5"/>
      <rect class="cls-35" x="1310.5" y="612.5" width="11.6" height="5.5"/>
      <rect class="cls-35" x="1298.9" y="596.1" width="11.6" height="5.5"/>
      <polygon class="cls-35" points="1589.3 590.6 1601 590.6 1601 585.1 1601 579.6 1589.3 579.6 1589.3 585.1 1589.3 590.6"/>
      <rect class="cls-35" x="1310.5" y="579.6" width="11.6" height="5.5"/>
      <polygon class="cls-35" points="1577.7 579.6 1589.3 579.6 1589.3 574.1 1589.3 568.6 1577.7 568.6 1577.7 574.1 1577.7 579.6"/>
    </g>
    <rect class="cls-44" x="1635.8" y="568.6" width="11.6" height="5.5"/>
    <rect class="cls-12" x="1415" y="563.1" width="11.6" height="5.5"/>
    <rect class="cls-62" x="1438.3" y="563.1" width="11.6" height="5.5"/>
    <rect class="cls-9" x="1542.8" y="563.1" width="11.6" height="5.5"/>
    <g>
      <path class="cls-61" d="M1193,744.3h0v33s13.1,0,13.1,0v-5.5h11.6s0-5.5,0-5.5h11.6s0-11,0-11h11.6s0-5.5,0-5.5h11.6s0-11,0-11h11.6s0-11,0-11h11.6v65.9s11.6,0,11.6,0v11s11.6,0,11.6,0v11s11.6,0,11.6,0v16.4s11.6,0,11.6,0v27.4s11.6,0,11.6,0v5.5s58.1,0,58.1,0v-27.4s-11.6,0-11.6,0v-33s-11.6,0-11.6,0v-65.9h11.6s0-22,0-22h11.6s0-16.4,0-16.4h11.6s0-76.9,0-76.9h-11.6v-16.4s-11.6,0-11.6,0v11h-11.6s0,11,0,11h-11.6s0,11,0,11h-11.6s0,11,0,11h-11.6s0,11,0,11h-11.6s0,5.5,0,5.5h-11.6s0,5.5,0,5.5h-23.3v-5.5s-11.6,0-11.6,0v16.4h-11.6s0,16.4,0,16.4h-11.6s0,22,0,22h-11.6v-22h11.6s0-22,0-22h11.6s0-22,0-22h11.6s0-22,0-22h11.6s0-16.4,0-16.4h11.6s0-22,0-22h11.6s0-16.4,0-16.4h-34.9s0,11,0,11h-11.6s0,11,0,11h-11.6s0,16.4,0,16.4h-11.6s0,11,0,11h-11.6s0,11,0,11h-11.6s0,11,0,11h-11.6s0,11,0,11h-11.6s0,11,0,11h-1.5s0,44,0,44h1.5s0-11,0-11h11.6s0-16.4,0-16.4h11.6s0-11,0-11h11.6v11h-11.6s0,16.4,0,16.4h-11.6s0,22,0,22h-11.6s0,16.4,0,16.4h-1.5s.2,0,.2,0ZM1357,672.9v-16.4h11.6v16.4h-11.6ZM1333.7,744.4v-38.4h11.6s0-22,0-22h11.6v27.4h-11.6s0,33,0,33h-11.6ZM1322.2,749.9h11.6v27.4h-11.6v-27.4ZM1240.8,667.5v5.5h-11.6v-5.5h11.6ZM1240.8,656.5v-5.5h11.6v5.5h-11.6ZM1229.2,727.9h11.6v11h-11.6v-11Z"/>
      <polygon class="cls-61" points="1298.9 651 1287.3 651 1287.3 656.5 1287.3 662 1298.9 662 1298.9 656.5 1298.9 651"/>
      <rect class="cls-61" x="1298.9" y="634.5" width="11.6" height="5.5"/>
      <path class="cls-61" d="M1531.4,629.1v5.5h-11.6s0,11,0,11h11.6v54.9h-11.6s0,27.4,0,27.4h11.6v27.4s11.6,0,11.6,0v22s11.6,0,11.6,0v16.4s11.6,0,11.6,0v11s11.6,0,11.6,0v16.4s11.6,0,11.6,0v16.4s11.6,0,11.6,0v16.4s11.6,0,11.6,0v11s81.3,0,81.3,0v-16.4s-11.6,0-11.6,0v-16.4s-11.6,0-11.6,0v-11s-11.6,0-11.6,0v-11s-11.6,0-11.6,0v-5.5s-11.6,0-11.6,0v-16.4s-11.6,0-11.6,0v-82.4s-11.6,0-11.6,0v-87.9s-11.6,0-11.6,0v-27.4s-11.6,0-11.6,0v-11s-11.6,0-11.6,0v-11s-11.6,0-11.6,0v-5.5s-11.6,0-11.6,0v5.5h-11.6s0,38.4,0,38.4h-11.6s0,22,0,22h0ZM1612.6,777.5v5.5h-11.6v-16.4s-11.6,0-11.6,0v-22s-11.6,0-11.6,0v-44h11.6v38.4s11.6,0,11.6,0v27.4s11.6,0,11.6,0v11s0,0,0,0ZM1624.2,799.3h-11.6v-5.5h11.6v5.5Z"/>
      <rect class="cls-61" x="1310.5" y="618.1" width="11.6" height="5.5"/>
      <polygon class="cls-61" points="1333.8 596.1 1333.8 590.6 1322.2 590.6 1322.2 596.1 1322.2 601.5 1322.2 607.1 1322.2 612.5 1333.8 612.5 1333.8 607.1 1333.8 601.5 1333.8 596.1"/>
      <polygon class="cls-61" points="1310.5 574.1 1310.5 579.6 1322.2 579.6 1333.8 579.6 1333.8 585.1 1333.8 590.6 1345.3 590.6 1345.3 585.1 1345.3 579.6 1345.3 574.1 1345.3 568.6 1345.3 563.1 1333.8 563.1 1333.8 568.6 1322.2 568.6 1322.2 574.1 1310.5 574.1"/>
    </g>
    <rect class="cls-59" x="1566.1" y="563.1" width="11.6" height="5.5"/>
    <rect class="cls-57" x="1601" y="563.1" width="11.6" height="5.5"/>
    <rect class="cls-6" x="1624.2" y="563.1" width="11.6" height="5.5"/>
    <g>
      <polygon class="cls-25" points="1192.8 865.3 1322.2 865.3 1322.2 837.8 1310.5 837.8 1310.5 821.3 1298.9 821.3 1298.9 804.8 1287.3 804.8 1287.3 799.4 1275.6 799.4 1275.6 744.4 1264.1 744.4 1264.1 760.8 1252.4 760.8 1252.4 771.8 1240.8 771.8 1240.8 782.8 1229.2 782.8 1229.2 793.8 1217.5 793.8 1217.5 804.8 1205.9 804.8 1205.9 815.8 1194.4 815.8 1194.4 832.3 1192.8 832.3 1192.8 865.3"/>
      <polygon class="cls-25" points="1612.6 766.4 1601 766.4 1601 771.8 1601 777.4 1612.6 777.4 1612.6 771.8 1612.6 766.4"/>
      <polygon class="cls-25" points="1601 744.4 1589.3 744.4 1589.3 749.9 1589.3 755.4 1589.3 760.8 1601 760.8 1601 755.4 1601 749.9 1601 744.4"/>
      <polygon class="cls-25" points="1380.2 744.4 1368.6 744.4 1368.6 749.9 1368.6 755.4 1368.6 760.8 1368.6 766.4 1368.6 771.8 1368.6 777.4 1368.6 782.8 1368.6 788.4 1368.6 793.8 1380.2 793.8 1380.2 799.4 1380.2 804.8 1380.2 810.4 1380.2 815.8 1380.2 821.3 1380.2 826.8 1380.2 832.3 1391.9 832.3 1391.9 837.8 1391.9 843.3 1391.9 848.8 1391.9 854.3 1391.9 859.8 1403.5 859.8 1403.5 865.3 1415 865.3 1426.7 865.3 1426.7 859.8 1415 859.8 1415 854.3 1415 848.8 1415 843.3 1415 837.8 1415 832.3 1415 826.8 1415 821.3 1415 815.8 1415 810.4 1415 804.8 1415 799.4 1415 793.8 1415 788.4 1415 782.8 1415 777.4 1415 771.8 1415 766.4 1415 760.8 1415 755.4 1415 749.9 1415 744.4 1415 738.9 1415 733.4 1426.7 733.4 1426.7 727.9 1426.7 722.4 1426.7 716.9 1438.3 716.9 1438.3 711.4 1438.3 705.9 1438.3 700.5 1449.9 700.5 1449.9 694.9 1461.6 694.9 1461.6 689.5 1461.6 683.9 1473.2 683.9 1473.2 678.5 1473.2 672.9 1484.7 672.9 1484.7 667.5 1496.4 667.5 1496.4 662 1496.4 656.5 1508 656.5 1508 651 1508 645.5 1519.6 645.5 1519.6 640.1 1519.6 634.5 1508 634.5 1508 629.1 1508 623.5 1496.4 623.5 1496.4 618.1 1496.4 612.5 1484.7 612.5 1484.7 607.1 1473.2 607.1 1473.2 601.5 1473.2 596.1 1473.2 590.6 1461.6 590.6 1461.6 585.1 1449.9 585.1 1449.9 579.6 1449.9 574.1 1449.9 568.6 1438.3 568.6 1438.3 563.1 1438.3 557.6 1426.7 557.6 1426.7 563.1 1426.7 568.6 1415 568.6 1415 574.1 1415 579.6 1403.5 579.6 1403.5 585.1 1403.5 590.6 1391.9 590.6 1391.9 596.1 1391.9 601.5 1391.9 607.1 1391.9 612.5 1391.9 618.1 1403.5 618.1 1403.5 623.5 1403.5 629.1 1403.5 634.5 1403.5 640.1 1403.5 645.5 1403.5 651 1403.5 656.5 1403.5 662 1403.5 667.5 1403.5 672.9 1403.5 678.5 1403.5 683.9 1403.5 689.5 1403.5 694.9 1403.5 700.5 1391.9 700.5 1391.9 705.9 1391.9 711.4 1391.9 716.9 1391.9 722.4 1380.2 722.4 1380.2 727.9 1380.2 733.4 1380.2 738.9 1380.2 744.4"/>
      <rect class="cls-25" x="1229.2" y="727.9" width="11.6" height="5.5"/>
      <polygon class="cls-25" points="1345.3 711.4 1333.8 711.4 1333.8 716.9 1333.8 722.4 1333.8 727.9 1333.8 733.4 1333.8 738.9 1345.3 738.9 1345.3 733.4 1345.3 727.9 1345.3 722.4 1345.3 716.9 1345.3 711.4"/>
      <polygon class="cls-25" points="1589.3 711.4 1577.7 711.4 1577.7 716.9 1577.7 722.4 1577.7 727.9 1577.7 733.4 1577.7 738.9 1577.7 744.4 1589.3 744.4 1589.3 738.9 1589.3 733.4 1589.3 727.9 1589.3 722.4 1589.3 716.9 1589.3 711.4"/>
      <polygon class="cls-25" points="1252.4 705.9 1240.8 705.9 1240.8 711.4 1240.8 716.9 1252.4 716.9 1252.4 711.4 1252.4 705.9"/>
      <polygon class="cls-25" points="1345.3 700.5 1357 700.5 1357 694.9 1357 689.5 1357 683.9 1345.3 683.9 1345.3 689.5 1345.3 694.9 1345.3 700.5"/>
      <polygon class="cls-25" points="1264.1 683.9 1252.4 683.9 1252.4 689.5 1252.4 694.9 1252.4 700.5 1264.1 700.5 1264.1 694.9 1264.1 689.5 1264.1 683.9"/>
      <polygon class="cls-25" points="1275.6 667.5 1275.6 662 1264.1 662 1264.1 667.5 1264.1 672.9 1264.1 678.5 1275.6 678.5 1275.6 672.9 1275.6 667.5"/>
      <polygon class="cls-25" points="1612.6 607.1 1624.2 607.1 1624.2 612.5 1624.2 618.1 1635.8 618.1 1635.8 623.5 1635.8 629.1 1647.4 629.1 1647.4 634.5 1659.1 634.5 1659.1 640.1 1670.7 640.1 1670.7 645.5 1670.7 651 1670.7 656.5 1670.7 662 1682.3 662 1682.3 667.5 1682.3 672.9 1682.3 678.5 1682.3 683.9 1693.9 683.9 1693.9 689.5 1693.9 694.9 1693.9 700.5 1705.5 700.5 1705.5 705.9 1705.5 711.4 1717.1 711.4 1717.1 716.9 1728.8 716.9 1728.8 722.4 1728.8 727.9 1740.4 727.9 1740.4 733.4 1740.4 738.9 1752 738.9 1752 744.4 1763.6 744.4 1763.6 749.9 1763.6 755.4 1775.2 755.4 1775.2 760.8 1775.2 766.4 1786.8 766.4 1786.8 771.8 1798.5 771.8 1798.5 777.4 1798.5 782.8 1810.1 782.8 1810.1 788.4 1810.1 793.8 1821.7 793.8 1821.7 799.4 1833.3 799.4 1833.3 804.8 1844.9 804.8 1844.9 810.4 1844.9 815.8 1844.9 821.3 1856.5 821.3 1856.5 826.8 1868.2 826.8 1868.2 832.3 1879.8 832.3 1879.8 837.8 1879.8 843.3 1891.4 843.3 1891.4 848.8 1891.4 854.3 1903 854.3 1903 859.8 1914.6 859.8 1914.6 865.3 1926.2 865.3 1937.9 865.3 1949.5 865.3 1949.5 859.8 1937.9 859.8 1937.9 854.3 1937.9 848.8 1926.2 848.8 1926.2 843.3 1914.6 843.3 1914.6 837.8 1914.6 832.3 1903 832.3 1903 826.8 1903 821.3 1891.4 821.3 1891.4 815.8 1891.4 810.4 1891.4 804.8 1879.8 804.8 1879.8 799.4 1879.8 793.8 1868.2 793.8 1868.2 788.4 1856.5 788.4 1856.5 782.8 1856.5 777.4 1844.9 777.4 1844.9 771.8 1833.3 771.8 1833.3 766.4 1821.7 766.4 1821.7 760.8 1821.7 755.4 1810.1 755.4 1810.1 749.9 1810.1 744.4 1798.5 744.4 1798.5 738.9 1786.8 738.9 1786.8 733.4 1786.8 727.9 1775.2 727.9 1775.2 722.4 1763.6 722.4 1763.6 716.9 1763.6 711.4 1752 711.4 1752 705.9 1740.4 705.9 1740.4 700.5 1728.8 700.5 1728.8 694.9 1728.8 689.5 1728.8 683.9 1717.1 683.9 1717.1 678.5 1717.1 672.9 1717.1 667.5 1717.1 662 1705.5 662 1705.5 656.5 1705.5 651 1705.5 645.5 1693.9 645.5 1693.9 640.1 1693.9 634.5 1682.3 634.5 1682.3 629.1 1682.3 623.5 1682.3 618.1 1682.3 612.5 1670.7 612.5 1670.7 607.1 1670.7 601.5 1670.7 596.1 1659.1 596.1 1659.1 590.6 1659.1 585.1 1659.1 579.6 1647.4 579.6 1647.4 574.1 1635.8 574.1 1635.8 568.6 1624.2 568.6 1624.2 563.1 1612.6 563.1 1612.6 568.6 1601 568.6 1589.3 568.6 1589.3 574.1 1589.3 579.6 1601 579.6 1601 585.1 1601 590.6 1612.6 590.6 1612.6 596.1 1612.6 601.5 1612.6 607.1"/>
      <polygon class="cls-25" points="1322.2 590.6 1322.2 585.1 1310.5 585.1 1310.5 590.6 1310.5 596.1 1310.5 601.5 1298.9 601.5 1298.9 607.1 1298.9 612.5 1298.9 618.1 1287.3 618.1 1287.3 623.5 1287.3 629.1 1287.3 634.5 1287.3 640.1 1275.6 640.1 1275.6 645.5 1275.6 651 1275.6 656.5 1275.6 662 1287.3 662 1287.3 656.5 1287.3 651 1287.3 645.5 1298.9 645.5 1298.9 640.1 1298.9 634.5 1310.5 634.5 1310.5 629.1 1310.5 623.5 1310.5 618.1 1310.5 612.5 1322.2 612.5 1322.2 607.1 1322.2 601.5 1322.2 596.1 1322.2 590.6"/>
      <rect class="cls-25" x="1322.2" y="579.6" width="11.6" height="5.5"/>
    </g>
    <rect class="cls-24" x="1554.4" y="557.6" width="11.6" height="5.5"/>
    <rect class="cls-13" x="1612.5" y="557.6" width="11.6" height="5.5"/>
    <rect class="cls-71" x="1426.7" y="552.1" width="11.6" height="5.5"/>
    <rect class="cls-33" x="1601" y="541.1" width="11.6" height="5.5"/>
    <rect class="cls-16" x="1589.3" y="535.6" width="11.6" height="5.5"/>
    <rect class="cls-30" x="1566.1" y="513.6" width="11.6" height="5.5"/>
    <rect class="cls-68" x="1554.4" y="508.2" width="11.6" height="5.5"/>
    <rect class="cls-16" x="1531.3" y="486.2" width="11.6" height="5.5"/>
    <rect class="cls-16" x="1519.6" y="475.2" width="11.6" height="5.5"/>
    <rect class="cls-16" x="1508" y="464.2" width="11.6" height="5.5"/>
    <polygon class="cls-14" points="1426.7 508.2 1426.7 513.6 1426.7 519.2 1426.7 524.6 1426.7 530.2 1426.7 535.6 1426.7 541.1 1426.7 546.6 1426.7 552.1 1438.3 552.1 1438.3 557.6 1438.3 563.1 1449.9 563.1 1449.9 568.6 1449.9 574.1 1449.9 579.6 1461.6 579.6 1461.6 585.1 1461.6 590.6 1473.2 590.6 1473.2 596.1 1473.2 601.5 1484.7 601.5 1484.7 607.1 1496.4 607.1 1496.4 612.5 1496.4 618.1 1508 618.1 1508 623.5 1508 629.1 1519.6 629.1 1519.6 634.5 1531.3 634.5 1531.3 629.1 1531.3 623.5 1531.3 618.1 1531.3 612.5 1531.3 607.1 1542.9 607.1 1542.9 601.5 1542.9 596.1 1542.9 590.6 1542.9 585.1 1542.9 579.6 1542.9 574.1 1542.9 568.6 1542.9 563.1 1554.4 563.1 1554.4 557.6 1566.1 557.6 1566.1 563.1 1577.7 563.1 1577.7 568.6 1589.3 568.6 1601 568.6 1601 563.1 1612.6 563.1 1612.6 557.6 1624.2 557.6 1624.2 552.1 1612.6 552.1 1612.6 546.6 1601 546.6 1601 541.1 1589.3 541.1 1589.3 535.6 1589.3 530.2 1589.3 524.6 1577.7 524.6 1577.7 519.2 1566.1 519.2 1566.1 513.6 1554.4 513.6 1554.4 508.2 1554.4 502.6 1554.4 497.2 1542.9 497.2 1542.9 491.6 1531.3 491.6 1531.3 486.2 1531.3 480.7 1519.6 480.7 1519.6 475.2 1519.6 469.7 1508 469.7 1508 464.2 1508 458.7 1496.4 458.7 1496.4 453.2 1496.4 447.7 1484.7 447.7 1484.7 442.2 1484.7 436.7 1473.2 436.7 1473.2 431.2 1461.6 431.2 1461.6 436.7 1461.6 442.2 1461.6 447.7 1461.6 453.2 1461.6 458.7 1449.9 458.7 1449.9 464.2 1449.9 469.7 1449.9 475.2 1438.3 475.2 1438.3 480.7 1438.3 486.2 1438.3 491.6 1438.3 497.2 1438.3 502.6 1438.3 508.2 1426.7 508.2"/>
    <rect class="cls-16" x="1473.1" y="431.2" width="11.6" height="5.5"/>
    <g>
      <polygon class="cls-60" points="1287.3 563.1 1287.3 568.6 1287.3 574.1 1298.9 574.1 1298.9 574.1 1298.9 579.6 1310.5 579.6 1310.5 574.1 1322.2 574.1 1322.2 568.6 1333.8 568.6 1333.8 563.1 1345.3 563.1 1345.3 568.6 1345.3 574.1 1345.3 579.6 1345.3 585.1 1345.3 590.6 1333.8 590.6 1333.8 596.1 1333.8 601.5 1333.8 607.1 1333.8 612.5 1322.2 612.5 1322.2 618.1 1322.2 623.5 1322.2 629.1 1322.2 629.1 1322.2 623.5 1310.5 623.5 1310.5 629.1 1310.5 634.5 1310.5 640.1 1298.9 640.1 1298.9 645.5 1298.9 645.5 1298.9 651 1298.9 656.5 1298.9 662 1287.3 662 1287.3 667.5 1287.3 672.9 1298.9 672.9 1310.5 672.9 1310.5 667.5 1322.2 667.5 1322.2 662 1322.2 662 1333.8 662 1333.8 656.5 1333.8 651 1345.3 651 1345.3 645.5 1345.3 640.1 1357 640.1 1357 634.5 1357 629.1 1368.6 629.1 1368.6 623.5 1368.6 618.1 1380.2 618.1 1380.2 612.5 1380.2 607.1 1391.9 607.1 1391.9 601.5 1391.9 596.1 1391.9 590.6 1403.5 590.6 1403.5 585.1 1403.5 579.6 1415 579.6 1415 574.1 1415 568.6 1415 563.1 1426.7 563.1 1426.7 557.6 1426.7 552.1 1426.7 546.6 1426.7 541.1 1426.7 535.6 1426.7 530.2 1426.7 524.6 1426.7 519.2 1426.7 513.6 1426.7 508.2 1438.3 508.2 1438.3 502.6 1438.3 502.6 1438.3 497.2 1438.3 497.2 1438.3 491.6 1438.3 486.2 1438.3 480.7 1438.3 475.2 1449.9 475.2 1449.9 469.7 1449.9 464.2 1449.9 458.7 1461.6 458.7 1461.6 453.2 1461.6 447.7 1461.6 442.2 1461.6 436.7 1449.9 436.7 1449.9 442.2 1449.9 447.7 1438.3 447.7 1438.3 453.2 1438.3 458.7 1426.7 458.7 1426.7 464.2 1426.7 469.7 1415 469.7 1415 475.2 1403.5 475.2 1403.5 480.7 1403.5 486.2 1391.9 486.2 1391.9 491.6 1391.9 497.2 1380.2 497.2 1380.2 502.6 1380.2 508.2 1368.6 508.2 1368.6 513.6 1368.6 519.2 1357 519.2 1357 524.6 1345.3 524.6 1345.3 530.2 1333.8 530.2 1333.8 535.6 1333.8 541.1 1322.2 541.1 1322.2 546.6 1310.5 546.6 1310.5 552.1 1298.9 552.1 1298.9 557.6 1298.9 563.1 1287.3 563.1"/>
      <rect class="cls-60" x="1461.6" y="425.7" width="11.6" height="5.5"/>
    </g>
  </g>
  <g>
    <rect class="cls-77" x="1048.6" y="860.7" width="14.8" height="7"/>
    <rect class="cls-47" x="959.8" y="860.7" width="14.8" height="7"/>
    <rect class="cls-29" x="307.6" y="860.7" width="14.8" height="7"/>
    <rect class="cls-67" x="1434" y="853.7" width="14.8" height="7"/>
    <rect class="cls-19" x="930.1" y="853.7" width="14.8" height="7"/>
    <rect class="cls-54" x="1434" y="846.7" width="14.8" height="7"/>
    <rect class="cls-18" x="337.3" y="839.7" width="14.8" height="7"/>
    <rect class="cls-49" x="1419.2" y="832.6" width="14.8" height="7"/>
    <rect class="cls-75" x="292.8" y="832.6" width="14.8" height="7"/>
    <rect class="cls-69" x="1419.2" y="825.6" width="14.8" height="7"/>
    <rect class="cls-42" x="1063.5" y="825.6" width="14.8" height="7"/>
    <rect class="cls-40" x="307.6" y="818.6" width="14.8" height="7"/>
    <rect class="cls-72" x="322.5" y="804.6" width="14.8" height="7"/>
    <rect class="cls-65" x="1389.5" y="790.6" width="14.8" height="7"/>
    <rect class="cls-76" x="396.6" y="790.6" width="14.8" height="7"/>
    <rect class="cls-47" x="411.4" y="783.5" width="14.8" height="7"/>
    <rect class="cls-28" x="1374.7" y="776.5" width="14.8" height="7"/>
    <rect class="cls-63" x="1107.9" y="776.5" width="14.8" height="7"/>
    <rect class="cls-66" x="989.4" y="776.5" width="14.8" height="7"/>
    <rect class="cls-19" x="678.2" y="776.5" width="14.8" height="7"/>
    <rect class="cls-49" x="1359.9" y="762.5" width="14.8" height="7"/>
    <rect class="cls-58" x="366.9" y="762.5" width="14.8" height="7"/>
    <rect class="cls-32" x="455.9" y="748.5" width="14.8" height="7"/>
    <rect class="cls-70" x="1048.6" y="741.5" width="14.8" height="7"/>
    <rect class="cls-46" x="396.6" y="741.5" width="14.8" height="7"/>
    <rect class="cls-31" x="1048.6" y="734.5" width="14.8" height="7"/>
    <rect class="cls-22" x="707.8" y="734.5" width="14.8" height="7"/>
    <rect class="cls-7" x="411.4" y="734.5" width="14.8" height="7"/>
    <rect class="cls-77" x="989.4" y="706.5" width="14.8" height="7"/>
    <rect class="cls-39" x="707.8" y="706.5" width="14.8" height="7"/>
    <rect class="cls-5" x="1167.2" y="699.5" width="14.8" height="7"/>
    <rect class="cls-43" x="930.1" y="699.5" width="14.8" height="7"/>
    <rect class="cls-73" x="1285.8" y="685.5" width="14.8" height="7"/>
    <rect class="cls-32" x="544.7" y="678.4" width="14.8" height="7"/>
    <rect class="cls-3" x="722.6" y="664.4" width="14.8" height="7"/>
    <rect class="cls-41" x="1152.4" y="657.4" width="14.8" height="7"/>
    <rect class="cls-5" x="900.5" y="657.4" width="14.8" height="7"/>
    <rect class="cls-72" x="515.1" y="657.4" width="14.8" height="7"/>
    <rect class="cls-55" x="529.9" y="650.4" width="14.8" height="7"/>
    <rect class="cls-34" x="1241.4" y="636.4" width="14.8" height="7"/>
    <rect class="cls-43" x="589.2" y="636.4" width="14.8" height="7"/>
    <rect class="cls-41" x="1137.6" y="629.3" width="14.8" height="7"/>
    <rect class="cls-39" x="1122.8" y="629.3" width="14.8" height="7"/>
    <rect class="cls-64" x="544.7" y="629.3" width="14.8" height="7"/>
    <rect class="cls-70" x="856" y="622.3" width="14.8" height="7"/>
    <rect class="cls-23" x="544.7" y="622.3" width="14.8" height="7"/>
    <rect class="cls-42" x="841.2" y="615.3" width="14.8" height="7"/>
    <rect class="cls-31" x="604.1" y="608.3" width="14.8" height="7"/>
    <rect class="cls-43" x="826.3" y="601.3" width="14.8" height="7"/>
    <rect class="cls-22" x="618.9" y="580.4" width="14.8" height="7"/>
    <rect class="cls-26" x="574.4" y="580.4" width="14.8" height="7"/>
    <rect class="cls-4" x="811.5" y="566.3" width="14.8" height="7"/>
    <rect class="cls-50" x="589.2" y="566.3" width="14.8" height="7"/>
    <rect class="cls-56" x="589.2" y="559.3" width="14.8" height="7"/>
    <rect class="cls-20" x="826.3" y="552.3" width="14.8" height="7"/>
    <rect class="cls-45" x="841.2" y="538.3" width="14.8" height="7"/>
    <rect class="cls-52" x="604.1" y="538.3" width="14.8" height="7"/>
    <rect class="cls-74" x="856" y="531.3" width="14.8" height="7"/>
    <rect class="cls-6" x="618.9" y="517.2" width="14.8" height="7"/>
    <rect class="cls-19" x="1048.6" y="510.2" width="14.8" height="7"/>
    <rect class="cls-1" x="885.7" y="503.2" width="14.8" height="7"/>
    <rect class="cls-15" x="1107.9" y="496.2" width="14.8" height="7"/>
    <rect class="cls-2" x="1093.1" y="496.2" width="14.8" height="7"/>
    <g>
      <polygon class="cls-35" points="1389.5 846.7 1389.5 839.7 1389.5 832.6 1374.7 832.6 1374.7 825.6 1374.7 818.6 1374.7 811.6 1359.9 811.6 1359.9 804.6 1359.9 797.6 1345.1 797.6 1345.1 790.6 1345.1 783.5 1330.2 783.5 1330.2 776.5 1330.2 769.5 1315.4 769.5 1315.4 762.5 1315.4 755.5 1300.6 755.5 1300.6 748.5 1300.6 741.5 1285.8 741.5 1285.8 734.5 1285.8 727.5 1271 727.5 1271 720.5 1271 713.5 1271 706.5 1256.2 706.5 1256.2 699.5 1256.2 692.5 1241.4 692.5 1241.4 685.5 1241.4 678.4 1226.6 678.4 1226.6 671.4 1226.6 664.4 1211.7 664.4 1211.7 671.4 1211.7 678.4 1211.7 685.5 1211.7 692.5 1226.6 692.5 1226.6 699.5 1226.6 706.5 1226.6 713.5 1241.4 713.5 1241.4 720.5 1241.4 727.5 1241.4 734.5 1241.4 741.5 1241.4 748.5 1241.4 755.5 1226.6 755.5 1211.7 755.5 1211.7 748.5 1196.9 748.5 1196.9 741.5 1182.1 741.5 1182.1 734.5 1182.1 727.5 1167.2 727.5 1167.2 720.5 1152.4 720.5 1152.4 713.5 1152.4 706.5 1137.6 706.5 1137.6 699.5 1137.6 692.5 1122.8 692.5 1122.8 699.5 1122.8 706.5 1122.8 713.5 1137.6 713.5 1137.6 720.5 1137.6 727.5 1137.6 734.5 1152.4 734.5 1152.4 741.5 1152.4 748.5 1167.2 748.5 1167.2 755.5 1167.2 762.5 1182.1 762.5 1182.1 769.5 1182.1 776.5 1196.9 776.5 1196.9 783.5 1196.9 790.6 1211.7 790.6 1211.7 797.6 1211.7 804.6 1226.6 804.6 1226.6 811.6 1226.6 818.6 1226.6 825.6 1241.4 825.6 1241.4 832.6 1241.4 839.7 1241.4 846.7 1256.2 846.7 1256.2 853.7 1256.2 860.7 1271 860.7 1271 867.7 1285.8 867.7 1300.6 867.7 1315.4 867.7 1330.2 867.7 1345.1 867.7 1359.9 867.7 1374.7 867.7 1389.5 867.7 1404.4 867.7 1404.4 860.7 1404.4 853.7 1404.4 846.7 1389.5 846.7"/>
      <rect class="cls-35" x="974.6" y="825.6" width="14.8" height="7"/>
      <rect class="cls-35" x="1078.3" y="804.6" width="14.8" height="7"/>
      <rect class="cls-35" x="989.4" y="783.5" width="14.8" height="7"/>
      <rect class="cls-35" x="693" y="755.5" width="14.8" height="7"/>
      <rect class="cls-35" x="1048.6" y="748.5" width="14.8" height="7"/>
      <polygon class="cls-35" points="1048.6 727.5 1048.6 734.5 1063.5 734.5 1063.5 727.5 1063.5 720.5 1048.6 720.5 1048.6 727.5"/>
      <rect class="cls-35" x="1033.8" y="706.5" width="14.8" height="7"/>
      <polygon class="cls-35" points="930.1 699.5 930.1 692.5 930.1 685.5 930.1 678.4 915.3 678.4 915.3 671.4 915.3 664.4 900.5 664.4 900.5 657.4 900.5 650.4 885.7 650.4 885.7 643.4 885.7 636.4 870.8 636.4 870.8 629.3 856 629.3 856 622.3 841.2 622.3 841.2 615.3 841.2 608.3 826.3 608.3 826.3 601.3 826.3 594.4 826.3 587.4 811.5 587.4 796.7 587.4 796.7 594.4 796.7 601.3 796.7 608.3 796.7 615.3 796.7 622.3 796.7 629.3 796.7 636.4 796.7 643.4 796.7 650.4 796.7 657.4 811.5 657.4 811.5 664.4 811.5 671.4 811.5 678.4 811.5 685.5 811.5 692.5 796.7 692.5 796.7 699.5 796.7 706.5 796.7 713.5 796.7 720.5 796.7 727.5 781.9 727.5 781.9 734.5 781.9 741.5 781.9 748.5 781.9 755.5 767 755.5 767 762.5 767 769.5 767 776.5 752.2 776.5 752.2 783.5 752.2 790.6 737.4 790.6 737.4 797.6 737.4 804.6 737.4 811.6 722.6 811.6 722.6 818.6 722.6 825.6 722.6 832.6 707.8 832.6 707.8 839.7 707.8 846.7 707.8 853.7 693 853.7 693 860.7 693 867.7 707.8 867.7 722.6 867.7 737.4 867.7 752.2 867.7 767 867.7 781.9 867.7 796.7 867.7 811.5 867.7 826.3 867.7 841.2 867.7 856 867.7 870.8 867.7 885.7 867.7 900.5 867.7 915.3 867.7 930.1 867.7 930.1 860.7 930.1 853.7 945 853.7 945 846.7 945 839.7 945 832.6 945 825.6 945 818.6 945 811.6 945 804.6 945 797.6 945 790.6 945 783.5 945 776.5 945 769.5 945 762.5 945 755.5 945 748.5 945 741.5 945 734.5 945 727.5 945 720.5 945 713.5 945 706.5 930.1 706.5 930.1 699.5"/>
      <rect class="cls-35" x="1152.4" y="678.4" width="14.8" height="7"/>
      <rect class="cls-35" x="974.6" y="678.4" width="14.8" height="7"/>
      <polygon class="cls-35" points="1048.6 671.4 1048.6 664.4 1033.8 664.4 1033.8 657.4 1019 657.4 1019 664.4 1019 671.4 1033.8 671.4 1048.6 671.4"/>
      <rect class="cls-35" x="722.6" y="657.4" width="14.8" height="7"/>
      <polygon class="cls-35" points="693 657.4 693 650.4 693 643.4 693 636.4 693 629.3 693 622.3 693 615.3 693 608.3 693 601.3 693 594.4 693 587.4 693 580.4 693 573.3 693 566.3 693 559.3 693 552.3 707.8 552.3 707.8 545.3 707.8 538.3 707.8 531.3 707.8 524.2 707.8 517.2 693 517.2 693 524.2 693 531.3 693 538.3 678.2 538.3 678.2 545.3 678.2 552.3 663.4 552.3 663.4 559.3 663.4 566.3 648.5 566.3 648.5 573.3 633.7 573.3 633.7 580.4 633.7 587.4 618.9 587.4 618.9 594.4 618.9 601.3 618.9 608.3 618.9 615.3 604.1 615.3 604.1 622.3 604.1 629.3 604.1 636.4 604.1 643.4 589.2 643.4 589.2 650.4 589.2 657.4 574.4 657.4 574.4 664.4 574.4 671.4 559.6 671.4 559.6 678.4 559.6 685.5 544.7 685.5 544.7 692.5 529.9 692.5 529.9 699.5 529.9 706.5 515.1 706.5 515.1 713.5 500.3 713.5 500.3 720.5 500.3 727.5 485.5 727.5 485.5 734.5 485.5 741.5 470.7 741.5 470.7 748.5 470.7 755.5 455.9 755.5 455.9 762.5 441.1 762.5 441.1 769.5 441.1 776.5 426.2 776.5 426.2 783.5 426.2 790.6 411.4 790.6 411.4 797.6 396.6 797.6 396.6 804.6 396.6 811.6 381.8 811.6 381.8 818.6 366.9 818.6 366.9 825.6 352.1 825.6 352.1 832.6 352.1 839.7 352.1 846.7 337.3 846.7 337.3 853.7 322.5 853.7 322.5 860.7 322.5 867.7 337.3 867.7 352.1 867.7 366.9 867.7 381.8 867.7 396.6 867.7 411.4 867.7 426.2 867.7 441.1 867.7 455.9 867.7 470.7 867.7 485.5 867.7 500.3 867.7 515.1 867.7 529.9 867.7 544.7 867.7 559.6 867.7 574.4 867.7 589.2 867.7 589.2 860.7 589.2 853.7 589.2 846.7 604.1 846.7 604.1 839.7 604.1 832.6 604.1 825.6 618.9 825.6 618.9 818.6 618.9 811.6 633.7 811.6 633.7 804.6 633.7 797.6 648.5 797.6 648.5 790.6 663.4 790.6 663.4 783.5 663.4 776.5 663.4 769.5 678.2 769.5 678.2 762.5 678.2 755.5 678.2 748.5 678.2 741.5 678.2 734.5 678.2 727.5 678.2 720.5 678.2 713.5 678.2 706.5 678.2 699.5 678.2 692.5 678.2 685.5 678.2 678.4 678.2 671.4 678.2 664.4 693 664.4 693 657.4"/>
      <polygon class="cls-35" points="1211.7 650.4 1211.7 643.4 1196.9 643.4 1196.9 650.4 1196.9 657.4 1196.9 664.4 1211.7 664.4 1211.7 657.4 1211.7 650.4"/>
      <polygon class="cls-35" points="1196.9 629.3 1182.1 629.3 1182.1 636.4 1182.1 643.4 1196.9 643.4 1196.9 636.4 1196.9 629.3"/>
      <rect class="cls-35" x="1167.2" y="615.3" width="14.8" height="7"/>
      <polygon class="cls-35" points="1019 615.3 1019 608.3 1019 601.3 1004.2 601.3 1004.2 608.3 1004.2 615.3 1004.2 622.3 1019 622.3 1019 615.3"/>
      <rect class="cls-35" x="1107.9" y="608.3" width="14.8" height="7"/>
      <rect class="cls-35" x="1122.8" y="601.3" width="14.8" height="7"/>
      <rect class="cls-35" x="1152.4" y="594.4" width="14.8" height="7"/>
      <rect class="cls-35" x="1093.1" y="587.4" width="14.8" height="7"/>
      <rect class="cls-35" x="1107.9" y="573.3" width="14.8" height="7"/>
      <rect class="cls-35" x="959.8" y="552.3" width="14.8" height="7"/>
      <rect class="cls-35" x="1063.5" y="545.3" width="14.8" height="7"/>
      <rect class="cls-35" x="1078.3" y="524.2" width="14.8" height="7"/>
      <polygon class="cls-35" points="722.6 510.2 722.6 503.2 707.8 503.2 707.8 510.2 707.8 517.2 722.6 517.2 722.6 510.2"/>
      <rect class="cls-35" x="1063.5" y="503.2" width="14.8" height="7"/>
      <polygon class="cls-35" points="737.4 496.2 737.4 489.2 722.6 489.2 722.6 496.2 722.6 503.2 737.4 503.2 737.4 496.2"/>
    </g>
    <rect class="cls-44" x="648.5" y="489.2" width="14.8" height="7"/>
    <rect class="cls-12" x="930.1" y="482.2" width="14.8" height="7"/>
    <rect class="cls-62" x="900.5" y="482.2" width="14.8" height="7"/>
    <rect class="cls-9" x="767" y="482.2" width="14.8" height="7"/>
    <g>
      <path class="cls-61" d="M1434,860.7v-21h-14.8v-28.1h-14.8v-14h-14.8v-14h-14.8v-14h-14.8v-21h-14.8v-14h-14.8v-14h-14.8v-14h-14.8v-14h-14.8v-21h-14.8v-14h-14.8v-14h-14.8v-21h-14.8v-14h-14.8v-14h-14.8v-14h-14.8v-14h-14.8v-14h-14.8v-21h-14.8v-14h-14.8v-14h-44.5v21h14.8v28.1h14.8v21h14.8v28.1h14.8v28.1h14.8v28.1h14.8v28.1h-14.8v-28.1h-14.8v-21h-14.8v-21h-14.8v7h-29.7v-7h-14.8v-7h-14.8v-14h-14.8v-14h-14.8v-14h-14.8v-14h-14.8v-14h-14.8v21h-14.8v98.1h14.8v21h14.8v28.1h14.8v84.1h-14.8v42.1h-14.8v35.1h74.1v-7h14.8v-35.1h14.8v-21h14.8v-14h14.8v-14h14.8v-84.1h14.8v14h14.8v14h14.8v7h14.8v14h14.8v7h14.8v7h29.7v-42.1h-14.8v-21h-14.8v-28.1h-14.8v-21h-14.8v-14h14.8v14h14.8v21h14.8v14h14.8v14h14.8v14h14.8v21h14.8v14h14.8v14h14.8v14h14.8v14h14.8v14h14.8v14h14.8v21h14.8v14h14.8v21h44.5v-7h-14.8v-.4ZM1152.4,594.4h14.8v7h-14.8v-7ZM1048.6,748.5v-28.1h14.8v35.1h-14.8v-7h0ZM1019,608.3v14h-14.8v-21h14.8v7ZM1033.8,706.5v-35.1h-14.8v-35.1h14.8v28.1h14.8v49.1h-14.8v-7h0ZM1167.2,699.5v-7h14.8v14h-14.8v-7ZM1167.2,622.3v-7h14.8v7h-14.8Z"/>
      <polygon class="cls-61" points="1093.1 601.3 1093.1 608.3 1107.9 608.3 1107.9 601.3 1107.9 594.4 1093.1 594.4 1093.1 601.3"/>
      <rect class="cls-61" x="1078.3" y="573.3" width="14.8" height="7"/>
      <path class="cls-61" d="M796.7,566.3v-28.1h-14.8v-49.1h-14.8v-7h-14.8v7h-14.8v14h-14.8v14h-14.8v35.1h-14.8v112.1h-14.8v105.1h-14.8v21h-14.8v7h-14.8v14h-14.8v14h-14.8v21h-14.8v21h103.8v-14h14.8v-21h14.8v-21h14.8v-21h14.8v-14h14.8v-21h14.8v-28.1h14.8v-35.1h14.8v-35.1h-14.8v-70.1h14.8v-14h-14.8v-7h-.2ZM693,755.5v-14h14.8v-35.1h14.8v-49.1h14.8v56.1h-14.8v28.1h-14.8v21h-14.8v-7ZM678.2,776.5h14.8v7h-14.8v-7Z"/>
      <rect class="cls-61" x="1063.5" y="552.3" width="14.8" height="7"/>
      <polygon class="cls-61" points="1048.6 531.3 1048.6 538.3 1048.6 545.3 1063.5 545.3 1063.5 538.3 1063.5 531.3 1063.5 524.2 1063.5 517.2 1048.6 517.2 1048.6 524.2 1048.6 531.3"/>
      <polygon class="cls-61" points="1063.5 496.2 1063.5 489.2 1048.6 489.2 1048.6 482.2 1033.8 482.2 1033.8 489.2 1033.8 496.2 1033.8 503.2 1033.8 510.2 1033.8 517.2 1048.6 517.2 1048.6 510.2 1048.6 503.2 1063.5 503.2 1078.3 503.2 1078.3 496.2 1063.5 496.2"/>
    </g>
    <rect class="cls-59" x="737.4" y="482.2" width="14.8" height="7"/>
    <rect class="cls-57" x="693" y="482.2" width="14.8" height="7"/>
    <rect class="cls-6" x="663.4" y="482.2" width="14.8" height="7"/>
    <g>
      <polygon class="cls-25" points="1256.2 860.7 1256.2 853.7 1256.2 846.7 1241.4 846.7 1241.4 839.7 1241.4 832.6 1241.4 825.6 1226.6 825.6 1226.6 818.6 1226.6 811.6 1226.6 804.6 1211.7 804.6 1211.7 797.6 1211.7 790.6 1196.9 790.6 1196.9 783.5 1196.9 776.5 1182.1 776.5 1182.1 769.5 1182.1 762.5 1167.2 762.5 1167.2 755.5 1167.2 748.5 1152.4 748.5 1152.4 741.5 1152.4 734.5 1137.6 734.5 1137.6 727.5 1137.6 720.5 1137.6 713.5 1122.8 713.5 1122.8 720.5 1122.8 727.5 1122.8 734.5 1122.8 741.5 1122.8 748.5 1122.8 755.5 1122.8 762.5 1122.8 769.5 1122.8 776.5 1122.8 783.5 1107.9 783.5 1107.9 790.6 1093.1 790.6 1093.1 797.6 1093.1 804.6 1093.1 811.6 1078.3 811.6 1078.3 818.6 1078.3 825.6 1078.3 832.6 1063.5 832.6 1063.5 839.7 1063.5 846.7 1063.5 853.7 1063.5 860.7 1063.5 867.7 1078.3 867.7 1093.1 867.7 1107.9 867.7 1122.8 867.7 1137.6 867.7 1152.4 867.7 1167.2 867.7 1182.1 867.7 1196.9 867.7 1211.7 867.7 1226.6 867.7 1241.4 867.7 1256.2 867.7 1271 867.7 1271 860.7 1256.2 860.7"/>
      <polygon class="cls-25" points="693 748.5 693 755.5 707.8 755.5 707.8 748.5 707.8 741.5 693 741.5 693 748.5"/>
      <polygon class="cls-25" points="707.8 720.5 707.8 727.5 707.8 734.5 722.6 734.5 722.6 727.5 722.6 720.5 722.6 713.5 707.8 713.5 707.8 720.5"/>
      <polygon class="cls-25" points="989.4 706.5 989.4 699.5 989.4 692.5 989.4 685.5 974.6 685.5 974.6 678.4 974.6 671.4 974.6 664.4 974.6 657.4 959.8 657.4 959.8 650.4 959.8 643.4 959.8 636.4 959.8 629.3 959.8 622.3 959.8 615.3 959.8 608.3 959.8 601.3 959.8 594.4 959.8 587.4 959.8 580.4 959.8 573.3 959.8 566.3 959.8 559.3 959.8 552.3 974.6 552.3 974.6 545.3 974.6 538.3 974.6 531.3 974.6 524.2 974.6 517.2 959.8 517.2 959.8 510.2 959.8 503.2 945 503.2 945 496.2 945 489.2 930.1 489.2 930.1 482.2 930.1 475.2 915.3 475.2 915.3 482.2 915.3 489.2 900.5 489.2 900.5 496.2 900.5 503.2 900.5 510.2 885.7 510.2 885.7 517.2 870.8 517.2 870.8 524.2 870.8 531.3 870.8 538.3 856 538.3 856 545.3 841.2 545.3 841.2 552.3 841.2 559.3 826.3 559.3 826.3 566.3 826.3 573.3 811.5 573.3 811.5 580.4 811.5 587.4 826.3 587.4 826.3 594.4 826.3 601.3 841.2 601.3 841.2 608.3 841.2 615.3 856 615.3 856 622.3 870.8 622.3 870.8 629.3 870.8 636.4 885.7 636.4 885.7 643.4 885.7 650.4 900.5 650.4 900.5 657.4 915.3 657.4 915.3 664.4 915.3 671.4 915.3 678.4 930.1 678.4 930.1 685.5 930.1 692.5 930.1 699.5 945 699.5 945 706.5 945 713.5 945 720.5 945 727.5 945 734.5 945 741.5 945 748.5 945 755.5 945 762.5 945 769.5 945 776.5 945 783.5 945 790.6 945 797.6 945 804.6 945 811.6 945 818.6 945 825.6 945 832.6 945 839.7 945 846.7 945 853.7 945 860.7 930.1 860.7 930.1 867.7 945 867.7 959.8 867.7 959.8 860.7 974.6 860.7 974.6 853.7 974.6 846.7 974.6 839.7 974.6 832.6 974.6 825.6 989.4 825.6 989.4 818.6 989.4 811.6 989.4 804.6 989.4 797.6 989.4 790.6 989.4 783.5 989.4 776.5 1004.2 776.5 1004.2 769.5 1004.2 762.5 1004.2 755.5 1004.2 748.5 1004.2 741.5 1004.2 734.5 1004.2 727.5 1004.2 720.5 1004.2 713.5 989.4 713.5 989.4 706.5"/>
      <rect class="cls-25" x="1167.2" y="692.5" width="14.8" height="7"/>
      <polygon class="cls-25" points="1033.8 678.4 1033.8 685.5 1033.8 692.5 1033.8 699.5 1033.8 706.5 1048.6 706.5 1048.6 699.5 1048.6 692.5 1048.6 685.5 1048.6 678.4 1048.6 671.4 1033.8 671.4 1033.8 678.4"/>
      <polygon class="cls-25" points="722.6 678.4 722.6 685.5 722.6 692.5 722.6 699.5 722.6 706.5 722.6 713.5 737.4 713.5 737.4 706.5 737.4 699.5 737.4 692.5 737.4 685.5 737.4 678.4 737.4 671.4 722.6 671.4 722.6 678.4"/>
      <polygon class="cls-25" points="1152.4 671.4 1152.4 678.4 1167.2 678.4 1167.2 671.4 1167.2 664.4 1152.4 664.4 1152.4 671.4"/>
      <polygon class="cls-25" points="1033.8 650.4 1033.8 643.4 1033.8 636.4 1019 636.4 1019 643.4 1019 650.4 1019 657.4 1033.8 657.4 1033.8 650.4"/>
      <polygon class="cls-25" points="1137.6 643.4 1137.6 650.4 1137.6 657.4 1152.4 657.4 1152.4 650.4 1152.4 643.4 1152.4 636.4 1137.6 636.4 1137.6 643.4"/>
      <polygon class="cls-25" points="1122.8 622.3 1122.8 629.3 1137.6 629.3 1137.6 622.3 1137.6 615.3 1137.6 608.3 1122.8 608.3 1122.8 615.3 1122.8 622.3"/>
      <polygon class="cls-25" points="693 531.3 693 524.2 693 517.2 707.8 517.2 707.8 510.2 707.8 503.2 722.6 503.2 722.6 496.2 722.6 489.2 707.8 489.2 693 489.2 693 482.2 678.2 482.2 678.2 489.2 663.4 489.2 663.4 496.2 648.5 496.2 648.5 503.2 633.7 503.2 633.7 510.2 633.7 517.2 633.7 524.2 618.9 524.2 618.9 531.3 618.9 538.3 618.9 545.3 604.1 545.3 604.1 552.3 604.1 559.3 604.1 566.3 604.1 573.3 589.2 573.3 589.2 580.4 589.2 587.4 574.4 587.4 574.4 594.4 574.4 601.3 574.4 608.3 559.6 608.3 559.6 615.3 559.6 622.3 559.6 629.3 559.6 636.4 544.7 636.4 544.7 643.4 544.7 650.4 544.7 657.4 529.9 657.4 529.9 664.4 515.1 664.4 515.1 671.4 500.3 671.4 500.3 678.4 500.3 685.5 485.5 685.5 485.5 692.5 470.7 692.5 470.7 699.5 470.7 706.5 455.9 706.5 455.9 713.5 441.1 713.5 441.1 720.5 441.1 727.5 426.2 727.5 426.2 734.5 426.2 741.5 411.4 741.5 411.4 748.5 396.6 748.5 396.6 755.5 381.8 755.5 381.8 762.5 381.8 769.5 366.9 769.5 366.9 776.5 352.1 776.5 352.1 783.5 352.1 790.6 337.3 790.6 337.3 797.6 337.3 804.6 337.3 811.6 322.5 811.6 322.5 818.6 322.5 825.6 307.6 825.6 307.6 832.6 307.6 839.7 292.8 839.7 292.8 846.7 278 846.7 278 853.7 278 860.7 263.1 860.7 263.1 867.7 278 867.7 292.8 867.7 307.6 867.7 307.6 860.7 322.5 860.7 322.5 853.7 337.3 853.7 337.3 846.7 337.3 839.7 352.1 839.7 352.1 832.6 352.1 825.6 366.9 825.6 366.9 818.6 381.8 818.6 381.8 811.6 396.6 811.6 396.6 804.6 396.6 797.6 396.6 790.6 411.4 790.6 411.4 783.5 426.2 783.5 426.2 776.5 441.1 776.5 441.1 769.5 441.1 762.5 455.9 762.5 455.9 755.5 455.9 748.5 470.7 748.5 470.7 741.5 485.5 741.5 485.5 734.5 485.5 727.5 500.3 727.5 500.3 720.5 500.3 713.5 515.1 713.5 515.1 706.5 529.9 706.5 529.9 699.5 529.9 692.5 544.7 692.5 544.7 685.5 544.7 678.4 559.6 678.4 559.6 671.4 574.4 671.4 574.4 664.4 574.4 657.4 589.2 657.4 589.2 650.4 589.2 643.4 589.2 636.4 604.1 636.4 604.1 629.3 604.1 622.3 604.1 615.3 604.1 608.3 618.9 608.3 618.9 601.3 618.9 594.4 618.9 587.4 618.9 580.4 633.7 580.4 633.7 573.3 648.5 573.3 648.5 566.3 663.4 566.3 663.4 559.3 663.4 552.3 678.2 552.3 678.2 545.3 678.2 538.3 693 538.3 693 531.3"/>
      <polygon class="cls-25" points="1063.5 524.2 1063.5 531.3 1063.5 538.3 1063.5 545.3 1078.3 545.3 1078.3 552.3 1078.3 559.3 1078.3 566.3 1078.3 573.3 1093.1 573.3 1093.1 580.4 1093.1 587.4 1107.9 587.4 1107.9 594.4 1107.9 601.3 1107.9 608.3 1122.8 608.3 1122.8 601.3 1122.8 594.4 1122.8 587.4 1122.8 580.4 1107.9 580.4 1107.9 573.3 1107.9 566.3 1107.9 559.3 1107.9 552.3 1093.1 552.3 1093.1 545.3 1093.1 538.3 1093.1 531.3 1078.3 531.3 1078.3 524.2 1078.3 517.2 1078.3 510.2 1063.5 510.2 1063.5 517.2 1063.5 524.2"/>
      <rect class="cls-25" x="1048.6" y="503.2" width="14.8" height="7"/>
    </g>
    <rect class="cls-24" x="752.2" y="475.2" width="14.8" height="7"/>
    <rect class="cls-13" x="678.2" y="475.2" width="14.8" height="7"/>
    <rect class="cls-71" x="915.3" y="468.2" width="14.8" height="7"/>
    <rect class="cls-33" x="693" y="454.2" width="14.8" height="7"/>
    <rect class="cls-16" x="707.8" y="447.2" width="14.8" height="7"/>
    <rect class="cls-30" x="737.4" y="419.1" width="14.8" height="7"/>
    <rect class="cls-68" x="752.2" y="412.1" width="14.8" height="7"/>
    <rect class="cls-16" x="781.9" y="384.1" width="14.8" height="7"/>
    <rect class="cls-16" x="796.7" y="370" width="14.8" height="7"/>
    <rect class="cls-16" x="811.5" y="356" width="14.8" height="7"/>
    <polygon class="cls-14" points="915.3 412.1 915.3 405.1 915.3 398.1 915.3 391.1 915.3 384.1 915.3 377.1 915.3 370 900.5 370 900.5 363 900.5 356 900.5 349 885.7 349 885.7 342 885.7 335 885.7 328 885.7 321 885.7 314 870.8 314 870.8 321 856 321 856 328 856 335 841.2 335 841.2 342 841.2 349 826.3 349 826.3 356 826.3 363 811.5 363 811.5 370 811.5 377.1 796.7 377.1 796.7 384.1 796.7 391.1 781.9 391.1 781.9 398.1 767 398.1 767 405.1 767 412.1 767 419.1 752.2 419.1 752.2 426.2 737.4 426.2 737.4 433.2 722.6 433.2 722.6 440.2 722.6 447.2 722.6 454.2 707.8 454.2 707.8 461.2 693 461.2 693 468.2 678.2 468.2 678.2 475.2 693 475.2 693 482.2 707.8 482.2 707.8 489.2 722.6 489.2 737.4 489.2 737.4 482.2 752.2 482.2 752.2 475.2 767 475.2 767 482.2 781.9 482.2 781.9 489.2 781.9 496.2 781.9 503.2 781.9 510.2 781.9 517.2 781.9 524.2 781.9 531.3 781.9 538.3 796.7 538.3 796.7 545.3 796.7 552.3 796.7 559.3 796.7 566.3 796.7 573.3 811.5 573.3 811.5 566.3 826.3 566.3 826.3 559.3 826.3 552.3 841.2 552.3 841.2 545.3 841.2 538.3 856 538.3 856 531.3 870.8 531.3 870.8 524.2 870.8 517.2 885.7 517.2 885.7 510.2 885.7 503.2 900.5 503.2 900.5 496.2 900.5 489.2 900.5 482.2 915.3 482.2 915.3 475.2 915.3 468.2 930.1 468.2 930.1 461.2 930.1 454.2 930.1 447.2 930.1 440.2 930.1 433.2 930.1 426.2 930.1 419.1 930.1 412.1 915.3 412.1"/>
    <rect class="cls-16" x="856" y="314" width="14.8" height="7"/>
    <g>
      <polygon class="cls-60" points="1093.1 482.2 1093.1 475.2 1093.1 468.2 1078.3 468.2 1078.3 461.2 1063.5 461.2 1063.5 454.2 1048.6 454.2 1048.6 447.2 1048.6 440.2 1033.8 440.2 1033.8 433.2 1019 433.2 1019 426.2 1004.2 426.2 1004.2 419.1 1004.2 412.1 989.4 412.1 989.4 405.1 989.4 398.1 974.6 398.1 974.6 391.1 974.6 384.1 959.8 384.1 959.8 377.1 959.8 370 945 370 945 363 930.1 363 930.1 356 930.1 349 915.3 349 915.3 342 915.3 335 900.5 335 900.5 328 900.5 321 885.7 321 885.7 328 885.7 335 885.7 342 885.7 349 900.5 349 900.5 356 900.5 363 900.5 370 915.3 370 915.3 377.1 915.3 384.1 915.3 391.1 915.3 398.1 915.3 398.1 915.3 405.1 915.3 405.1 915.3 412.1 930.1 412.1 930.1 419.1 930.1 426.2 930.1 433.2 930.1 440.2 930.1 447.2 930.1 454.2 930.1 461.2 930.1 468.2 930.1 475.2 930.1 482.2 945 482.2 945 489.2 945 496.2 945 503.2 959.8 503.2 959.8 510.2 959.8 517.2 974.6 517.2 974.6 524.2 974.6 531.3 974.6 538.3 989.4 538.3 989.4 545.3 989.4 552.3 1004.2 552.3 1004.2 559.3 1004.2 566.3 1019 566.3 1019 573.3 1019 580.4 1033.8 580.4 1033.8 587.4 1033.8 594.4 1048.6 594.4 1048.6 601.3 1048.6 608.3 1063.5 608.3 1063.5 608.3 1063.5 615.3 1078.3 615.3 1078.3 622.3 1093.1 622.3 1107.9 622.3 1107.9 615.3 1107.9 608.3 1093.1 608.3 1093.1 601.3 1093.1 594.4 1093.1 587.4 1093.1 587.4 1093.1 580.4 1078.3 580.4 1078.3 573.3 1078.3 566.3 1078.3 559.3 1063.5 559.3 1063.5 566.3 1063.5 566.3 1063.5 559.3 1063.5 552.3 1063.5 545.3 1048.6 545.3 1048.6 538.3 1048.6 531.3 1048.6 524.2 1048.6 517.2 1033.8 517.2 1033.8 510.2 1033.8 503.2 1033.8 496.2 1033.8 489.2 1033.8 482.2 1048.6 482.2 1048.6 489.2 1063.5 489.2 1063.5 496.2 1078.3 496.2 1078.3 503.2 1093.1 503.2 1093.1 496.2 1093.1 496.2 1107.9 496.2 1107.9 489.2 1107.9 482.2 1093.1 482.2"/>
      <rect class="cls-60" x="870.8" y="307" width="14.8" height="7"/>
    </g>
  </g>
</svg>