<?xml version="1.0" encoding="UTF-8"?>
<svg id="Layer_1" data-name="Layer 1" xmlns="http://www.w3.org/2000/svg" version="1.1" viewBox="0 0 100 100">
  <defs>
    <style>
      .cls-1 {
        fill: #67619b;
      }

      .cls-1, .cls-2, .cls-3, .cls-4, .cls-5, .cls-6, .cls-7, .cls-8, .cls-9, .cls-10, .cls-11, .cls-12, .cls-13, .cls-14, .cls-15, .cls-16, .cls-17, .cls-18, .cls-19, .cls-20, .cls-21, .cls-22, .cls-23, .cls-24, .cls-25, .cls-26, .cls-27, .cls-28, .cls-29, .cls-30, .cls-31, .cls-32, .cls-33, .cls-34, .cls-35, .cls-36, .cls-37, .cls-38, .cls-39, .cls-40, .cls-41, .cls-42, .cls-43, .cls-44, .cls-45, .cls-46, .cls-47, .cls-48, .cls-49, .cls-50, .cls-51, .cls-52, .cls-53, .cls-54, .cls-55, .cls-56, .cls-57, .cls-58, .cls-59, .cls-60, .cls-61, .cls-62, .cls-63, .cls-64, .cls-65, .cls-66, .cls-67, .cls-68, .cls-69, .cls-70, .cls-71, .cls-72, .cls-73, .cls-74, .cls-75, .cls-76, .cls-77, .cls-78, .cls-79, .cls-80, .cls-81, .cls-82, .cls-83, .cls-84, .cls-85, .cls-86, .cls-87, .cls-88, .cls-89, .cls-90, .cls-91, .cls-92, .cls-93, .cls-94, .cls-95, .cls-96, .cls-97, .cls-98, .cls-99, .cls-100, .cls-101, .cls-102, .cls-103, .cls-104, .cls-105, .cls-106, .cls-107, .cls-108, .cls-109, .cls-110, .cls-111, .cls-112, .cls-113, .cls-114, .cls-115, .cls-116, .cls-117 {
        stroke-width: 0px;
      }

      .cls-2 {
        fill: #7973af;
      }

      .cls-3 {
        fill: #7974ac;
      }

      .cls-4 {
        fill: #847eb7;
      }

      .cls-5 {
        fill: #7873a9;
      }

      .cls-6 {
        fill: #7169a1;
      }

      .cls-7 {
        fill: #7c77b0;
      }

      .cls-8 {
        fill: #8780b9;
      }

      .cls-9 {
        fill: #6d669d;
      }

      .cls-10 {
        fill: #6f68a2;
      }

      .cls-11 {
        fill: #7c77ad;
      }

      .cls-12 {
        fill: #302864;
      }

      .cls-13 {
        fill: #847fb7;
      }

      .cls-14 {
        fill: #231d5d;
      }

      .cls-15 {
        fill: #7068a2;
      }

      .cls-16 {
        fill: #7770aa;
      }

      .cls-17 {
        fill: #615991;
      }

      .cls-18 {
        fill: #554b94;
      }

      .cls-19 {
        fill: #585389;
      }

      .cls-20 {
        fill: #372e6a;
      }

      .cls-21 {
        fill: #1f1b56;
      }

      .cls-22 {
        fill: #615994;
      }

      .cls-23 {
        fill: #615b92;
      }

      .cls-24 {
        fill: #645c9a;
      }

      .cls-25 {
        fill: #837cb6;
      }

      .cls-26 {
        fill: #8880bb;
      }

      .cls-27 {
        fill: #827db5;
      }

      .cls-28 {
        fill: #524c88;
      }

      .cls-29 {
        fill: #817cb2;
      }

      .cls-30 {
        fill: #6c66a1;
      }

      .cls-31 {
        fill: #9088c3;
      }

      .cls-32 {
        fill: #7c74ac;
      }

      .cls-33 {
        fill: #514982;
      }

      .cls-34 {
        fill: #6c669f;
      }

      .cls-35 {
        fill: #7972ac;
      }

      .cls-36 {
        fill: #544f86;
      }

      .cls-37 {
        fill: #676297;
      }

      .cls-38 {
        fill: #6c65a0;
      }

      .cls-39 {
        fill: #282157;
      }

      .cls-40 {
        fill: #231c57;
      }

      .cls-41 {
        fill: #7b75af;
      }

      .cls-42 {
        fill: #625d93;
      }

      .cls-43 {
        fill: #4c4685;
      }

      .cls-44 {
        fill: #716ca4;
      }

      .cls-45 {
        fill: #867eb7;
      }

      .cls-46 {
        fill: #4a457c;
      }

      .cls-47 {
        fill: #8a82bc;
      }

      .cls-48 {
        fill: #574e8a;
      }

      .cls-49 {
        fill: #423c79;
      }

      .cls-50 {
        fill: #221d57;
      }

      .cls-51 {
        fill: #736ba9;
      }

      .cls-52 {
        fill: #605b94;
      }

      .cls-53 {
        fill: #231c53;
      }

      .cls-54 {
        fill: #7f7ab0;
      }

      .cls-55 {
        fill: #4e4589;
      }

      .cls-56 {
        fill: #564e89;
      }

      .cls-57 {
        fill: #837eb4;
      }

      .cls-58 {
        fill: #666197;
      }

      .cls-59 {
        fill: #837bb3;
      }

      .cls-60 {
        fill: #68609a;
      }

      .cls-61 {
        fill: #221c59;
      }

      .cls-62 {
        fill: #8a85bd;
      }

      .cls-63 {
        fill: #6e69a2;
      }

      .cls-64 {
        fill: #221c57;
      }

      .cls-65 {
        fill: #645f95;
      }

      .cls-66 {
        fill: #676199;
      }

      .cls-67 {
        fill: #665e97;
      }

      .cls-68 {
        fill: #4e4880;
      }

      .cls-69 {
        fill: #817cb4;
      }

      .cls-70 {
        fill: #857db8;
      }

      .cls-71 {
        fill: #625b95;
      }

      .cls-72 {
        fill: #6f67a1;
      }

      .cls-73 {
        fill: #686399;
      }

      .cls-74 {
        fill: #544c8b;
      }

      .cls-75 {
        fill: #201b54;
      }

      .cls-76 {
        fill: #7e79b0;
      }

      .cls-77 {
        fill: #57508a;
      }

      .cls-78 {
        fill: #656097;
      }

      .cls-79 {
        fill: #7e76af;
      }

      .cls-80 {
        fill: #5c5791;
      }

      .cls-81 {
        fill: #645f97;
      }

      .cls-82 {
        fill: #655e99;
      }

      .cls-83 {
        fill: #6b669e;
      }

      .cls-84 {
        fill: #827db4;
      }

      .cls-85 {
        fill: #48407b;
      }

      .cls-86 {
        fill: #867fb8;
      }

      .cls-87 {
        fill: #524c89;
      }

      .cls-88 {
        fill: #413b75;
      }

      .cls-89 {
        fill: #8179b3;
      }

      .cls-90 {
        fill: #827db3;
      }

      .cls-91 {
        fill: #282159;
      }

      .cls-92 {
        fill: #5c568f;
      }

      .cls-93 {
        fill: #625c97;
      }

      .cls-94 {
        fill: #1e1650;
      }

      .cls-95 {
        fill: #5a5389;
      }

      .cls-96 {
        fill: #6a639e;
      }

      .cls-97 {
        fill: #4f4b8c;
      }

      .cls-98 {
        fill: #6e67a1;
      }

      .cls-99 {
        fill: #7671ab;
      }

      .cls-100 {
        fill: #726ba4;
      }

      .cls-101 {
        fill: #736ea6;
      }

      .cls-102 {
        fill: #241c5c;
      }

      .cls-103 {
        fill: #6b669d;
      }

      .cls-104 {
        fill: #6b639d;
      }

      .cls-105 {
        fill: #201952;
      }

      .cls-106 {
        fill: #575089;
      }

      .cls-107 {
        fill: #7c77af;
      }

      .cls-108 {
        fill: #5b558f;
      }

      .cls-109 {
        fill: #565188;
      }

      .cls-110 {
        fill: #746fa7;
      }

      .cls-111 {
        fill: #8b86bc;
      }

      .cls-112 {
        fill: #28235d;
      }

      .cls-113 {
        fill: #6e67a2;
      }

      .cls-114 {
        fill: #4b437e;
      }

      .cls-115 {
        fill: #5b568d;
      }

      .cls-116 {
        fill: #615c95;
      }

      .cls-117 {
        fill: #655d98;
      }
    </style>
  </defs>
  <path class="cls-97" d="M1.7,85.1c-1.3-2-1.2-4.4-1.2-6.6,0-19.5,0-38.9,0-58.4,0-.8.3-1.7.4-2.5.9-2.3,1.8-4.6,2.5-7h0c1.1-.7,1.7-1.8,2.8-2.6.6-.2,1.1,0,1.6.4.3.3.4.6.5,1-.3,1.2-1.2,1.9-1.6,3-.7,1.3-1.2,2.7-1.6,4.2-.3,21.4,0,42.8-.1,64.2,0,2.7,1.6,4.8,1.9,7.4,0,1.5-.3,2.8-2.3,2h0c-1.1-1.6-1.6-3.5-2.7-5.1Z"/>
  <path class="cls-55" d="M73.7,97.8c-18.2,0-36.4,0-54.6,0-2.4,0-4.8-.3-6.9-1.7-1.9-1.4-.8-2.3.6-3.1,2.7-.3,5.3.6,8,.3,18,0,36,0,54,0,3.2,0,6.5-.3,9.7.4,2.4.9.6,2.3.5,3.6h0c-3.7.8-7.5-.3-11.2.6Z"/>
  <path class="cls-48" d="M24.1,1.4c19.5,0,39,0,58.5,0,4.1,0,7.3,2.7,10.7,4.5.5.6.6,1.2.4,1.9-.4.7-1,.9-1.8.9-5.4-3.2-11.5-3.3-17.4-4.5-1.7-1-3.6-.7-5.4-.7-12.9,0-25.8,0-38.7,0-2,0-4,.3-5.9-.7-.5-.3-.7-.8-.4-1.4Z"/>
  <path class="cls-36" d="M99.3,21.9c0,19.4.2,38.8,0,58.2,0,3.5-.7,7.3-3.4,10.2-1.2-.9-1.4-2.2-1.6-3.5,0-2.1.9-3.9,1.6-5.7.7-1.5.5-3.2,1.1-4.8.5-15.9,0-31.8.2-47.7,0-2.1-.3-4.3.6-6.3.3-.5.8-.7,1.4-.5Z"/>
  <path class="cls-28" d="M95,86.7c.6,1.1,1,2.3.9,3.5-1.4,2.4-3.2,4.3-5.9,5.1-1.3.6-2.4.7-3.5-.4-.7-2,1.1-2.3,2.1-3.1,1.5-1.1,2.8-2.4,4-3.7.7-.6,1.2-1.7,2.4-1.4Z"/>
  <path class="cls-95" d="M24.1,1.4c0,.3,0,.6,0,.8-1.3,1.4-3.1.9-4.8,1.1-1.5.1-3.2-.1-4.1,1.5-.3.5-.7.9-1.2,1.2-1.7.7-3.2,1.8-4.6,3-.2,0-.3.2-.5.3-.4,0-.7,0-1-.3h0c-.8-1.2-.8-2.3,0-3.4C12.4.9,18.3,1.1,24.1,1.4Z"/>
  <path class="cls-108" d="M12.2,93.5c-.5.8-.6,1.7,0,2.6-2.7-.5-4.6-2.1-6.3-4.1.6-1,1.7-1.2,2.8-1.4,1.8.2,3.5.6,3.5,2.9Z"/>
  <path class="cls-1" d="M73.7,97.8c3.7-1.5,7.5-.5,11.2-.6-3.7,1.5-7.5.7-11.2.6Z"/>
  <path class="cls-1" d="M86.5,94.4c1.1.7,2.3.9,3.5.9-1.4,1.3-3.1,1.8-5,1.8-1.1-1.3,0-1.9.7-2.7.3-.3.5-.3.8,0Z"/>
  <path class="cls-106" d="M3.5,10.6c.1,2.7-.5,5.1-2.5,7,.1-2.6.5-5.1,2.5-7Z"/>
  <path class="cls-87" d="M8.8,91.1c-.7,1-1.9.7-2.8.9-.8-.3-1.3-.9-1.5-1.8,1.1,0,1.7-.5,1.8-1.7.2,0,.3-.2.5-.3,1.3.4,2.6,1,2,2.8Z"/>
  <path class="cls-115" d="M96,9c1.6,1.4,2.4,3.1,2.5,5.2-.2,0-.4.1-.6.2-1.8-.9-2.7-2.4-2.6-4.5.1-.4.4-.7.7-1Z"/>
  <path class="cls-115" d="M99.3,21.9c-.3,0-.6,0-.8,0-1.7-2.5-1.6-5.1,0-7.6h.2c1.5,2.4.9,5,.8,7.6Z"/>
  <path class="cls-87" d="M1.7,85.1c1.8,1.3,2.4,3.1,2.7,5.2-1.7-1.3-2.6-3-2.7-5.2Z"/>
  <path class="cls-92" d="M7.9,5.7c0,1.1,0,2.2,0,3.3-.6-.3-1.1-.5-1.7-.8-.4.4-.8.3-1.1-.1.7-1,1.4-2.2,2.8-2.4Z"/>
  <path class="cls-23" d="M93.4,7.4c0-.5,0-1,0-1.5,1.4.6,2.2,1.7,2.7,3.1,0,0-.2.3-.2.3-.4.2-.7.1-1.1,0-.7-.4-1-1.2-1.3-1.9Z"/>
  <path class="cls-106" d="M5.1,8.1c.4,0,.8,0,1.1.1-.6,1.1-1.4,2.2-2.8,2.4.1-1.1.6-2,1.7-2.5Z"/>
  <path class="cls-40" d="M86.5,94.4h-.4s-.4,0-.4,0c-3.4,0-6.8,0-10.2,0-5.3-1.1-10.7-.5-16-.3-3.8.1-7.3-1.3-11-1.4-2.4-.7-4.9-.8-7.3,0-1.6.3-3.3.3-4.9,0-2-.7-4.1-.4-6.2-.5-1.4,0-2.8,0-4.3,0-5.1-.3-6.3-1.2-6.1-4.9.1-3.6,3.9-7.4,7.4-6.6,7.4,1.6,14.9,2,22.2,3.3,1.1.2,2.3.7,3.3.3,5.1-1.9,10.4-1.2,15.6-1.3,2.9,0,5.1-.8,6.2-4,1.4-3.9,5.2-3.4,8.3-3.7,4.7-.4,5.2-1,5-5.7-.1-3.2-1.5-4.7-4.7-4.7-2.3,0-4.5,0-6.8.2-3.2.2-6.3,0-9.1-1.6-.4-.2-.7-.5-1.1-.9-.3-.3-.5-.7-.6-1.2,0-1.9.3-3.8-.1-5.7,0-.4,0-.9,0-1.3.5-2.1-.3-4.5,1.3-6.4,2.6-1.9,5.9-.2,8.6-1.5.7-1,.5-2.1.6-3.2,0-1.3.2-2.7-.4-3.9-.4-.3-.9-.5-1.4-.7-.8-.2-1.6-.5-2.4.1-.3.3-.5.5-.8.7-2.1,2.4-4,1.1-5.8-.3-1.4-.5-2.8-.3-4.1.1-.3.1-.7.2-1,.3-.8.2-1.6.2-2,1.1-.2.6-.3,1.3-.5,1.9,0,.5-.2,1-.5,1.5-1.6,1.5-3.1,1.1-4.4-.4-.2-.3-.3-.7-.4-1.1-.3-1.5,0-3-.6-4.5-.5-1.4-1.6-2.5-2.4-3.7-.8-1.5-2.3-1.8-3.7-2.2-3.1-2.1-6.5-3.1-10.3-2.7-1.5.1-3.1.2-4.3-1.2.1-2.1,2.5-2,3.1-3.4-2.8-.2-5.6-1.1-8.7-.2-1.9.6-3.6-1.1-5-2.5-1.2-3.9-.3-8.2-2.1-12.3-2,1.2-2.5,3.4-3.6,5.1-2,2.9-4.2,4.2-7.5,2.2-.9-.5-2,0-2.8-.8-.2-.6-.2-1.2.2-1.7,0-1.4.6-2.5,1.6-3.4.7-1,2-1.4,2.7-2.5h0c1.3-1.7,4.3-1.1,5-3.5.3-.3.6-.6.9-.9,1.3-1.3,2.9-1.6,4.7-1.6,17.5,0,34.9,0,52.4,0,1.3,0,2.6,0,3.6.8,6.1-.3,12,.3,17,4.3.9.3,1.8.8,2.3,1.7.9,2.4,2.8,4.3,2.8,7.1,0,1.9.4,3.9-.4,5.8-3.6,2.4-4.6,5.8-3.1,11.5.7,2.4,1.3,4.6,0,6.9-.4.8-.3,1.7,0,2.5,1.5,2.8.8,5.5-.4,8.1.6,12.2-1.3,24.4-.4,36.7-1.5,2.9-4.4,4.1-6.9,5.9Z"/>
  <path class="cls-61" d="M4.5,15c0,.6,0,1.2,0,1.7,1.7,1.8,1.2,4,1.2,6.1,0,19.3,0,38.6.1,57.9.1.5.2,1,.4,1.4.3,2,1.7,4.1,0,6.1,0,0,0,.2,0,.2-2-3-2.7-6.3-2.6-10,0-19.4,0-38.8,0-58.2,0-1.8-.6-3.7.8-5.3Z"/>
  <path class="cls-112" d="M8.8,9.1c0,1.7-1.5,2-2.7,2.5,0-1.3,1.2-1.7,1.8-2.5.3,0,.6,0,.9,0Z"/>
  <path class="cls-64" d="M6.2,88.3c-.3-1.9-.5-3.9-.8-5.8,1.3-2.3,2.6-.1,4.2,0-3.4-1.5-2.5-4.1-2.1-6.5.3-12.6,0-25.1.1-37.7,0-1.6,0-3.1.2-4.6.7-1.7,1.3-3.7,3.8-2,.3.2.2.5,0,.7.3-.2.3-.4.2-.7-.2-.8-.3-1.7,0-2.5.7-2.4,1.7-4.7,3.2-6.8,2.1-2.9,3.8,1.1,5.8.4,4.9,2,10,.4,15,1.2-1.2,1.6-1.4,4.6-4.9,4-.3.3-.6.5-1,.7-1.9.4-3.8.3-5.8,0-1.1-.2-.5.6-.5,1,0,1-.3,1.8-.6,2.7-.7,1.6-.4,3.3-.2,5,0,.4,0,.8,0,1.2-.4,2.1-.3,4.3,0,6.4,0,.8-.3,1.6-.7,2.3-2.8,1.8-6,3.2-6.8,7-1.1,5.5.8,8.4,6.8,10.2,1,.6,1.2,1.6,1.3,2.6,0,.8,0,1.5,0,2.3,0,.5.1,1.1.5,1.5,6.3,1.1,7.2.3,6.2-5.8-.3-1.5-.2-3.1-1.2-4.4-.2-.4-.2-.8-.2-1.2,0-.4.3-.8.5-1.1.9-.6,1.9-.7,3-.7.4,0,.8,0,1.2,0,.6,0,1.2,0,1.8,0,.4,0,.8,0,1.1,0,1.5,0,3,.2,4.4-.5.5-.3,1-.5,1.5-.7,2.7-.7,3.6-3.2,5.2-5,.3-.2.7-.3,1-.5.5-.2,1.1-.3,1.6-.6.5-.4,1.4-1.4,1.6-1.1,1.5,2,1.1-.5,1.7-.7,1.2-.4,1.5-2.5,3.4-1.8.8,1,.8,2.3.9,3.5-.2,2.3,1.1,4.7-.7,6.7-1.4,2.1-.5,4.1.2,6.1.4,1.5.4,3,.6,4.5.1,1,0,2.1.6,3.1.7.7,1.7.8,2.4,1.3.8,1.7.7-.8,1.2-.3,1.2-.5,2.3-.5,3.5,0,1.2.7,2.5,1.3,4,0-1.9.4-3.1-.4-3.6-2-.3-2.5-.9-5.1.7-7.4,3,1.9,6.2,2.3,9.6,1.8,1.3-.2,2.5,0,3.8-.1,10-.4,8.9.7,8.9,10.6,0,2-1.3,2.2-2.8,2.2-2.3,0-4.6,0-6.8.3-2.2.3-4.3.7-4.2,4,.1,2.7-2.4,3.2-4.6,3.3-3.3.1-6.5,0-9.8,0-2.3,0-4.7-.4-6.9,1.3-.9.7-3.1.7-4.1,0-2.8-1.7-5.7-1.7-8.6-1.4-4.8.5-8.9-2-13.5-2.3-2.4-.2-6.5,1.7-7,4-.9,4,0,5,5.1,5,0,3-2,3.2-4.2,2.7-1-.2-1.6-.6-1.8.7-2.6.4-5.1-.6-7.7-.9-.7-1.4-2.2-1.8-3.5-2.4-.5-1.3-1.5-2-2.6-2.8Z"/>
  <path class="cls-75" d="M19.9,94.5c-.3-1-1.3-1.8-.9-3.4,2.3,1.6,4.8,4.3,6.9,0h4.3c3.2,2.4,7,1.9,10.5,1.5,2.5-.3,5-.4,7.4-.7h6.8c-.4,1.5-1.8.4-2.4,1.2-.2.3,0,.5.4.5,6.2,0,12.4,0,18.6,0,1.4,0,2.9-.5,3.9.9-18.5,0-37,0-55.5,0Z"/>
  <path class="cls-18" d="M75.4,4c-17.6,0-35.1,0-52.7,0-2.7,0-5.4,0-8,.7-.7-2.7,1.5-2.2,2.8-2.3,2.2-.2,4.4,0,6.7,0,15.7,0,31.4,0,47.1,0,1.5,0,3.6-.9,4.1,1.7Z"/>
  <path class="cls-43" d="M94.1,10c-.6-.6-1.1-1.2-1.7-1.7.3-.3.6-.6.9-.9.8.3,1.4.9,1.6,1.7,0,.5-.3.8-.8.9Z"/>
  <path class="cls-14" d="M93.4,88.5c-2.3-3.2-2.2-7.2-1.8-10.6.2-1.7.9-3.7.9-5.6,0-7.1,0-14.2,0-21.3,2.4.5,1.8,2.5,2,4,.3,2.5-.5,5.1.7,7.5,2.8,4.1,2,8.7,1.4,13.1-.1,1.3-.6,2.5.4,3.5.1.8.3,1.7-.3,2.5-.6,1.7-1.2,3.4-1.7,5.1-.6.6-1.1,1.2-1.7,1.8Z"/>
  <path class="cls-74" d="M94.1,10c.3-.3.6-.6.8-.9.3,0,.5,0,.8.2,0,2.1,1.5,3.5,2.6,5,0,2.5,0,5.1,0,7.6,0,17,0,34,0,51,0,1.5.6,3.2-.8,4.4-1.1-1-.8-2.3-.9-3.6-.5-15.5-.4-31.1-.4-46.6,0-3.7,1.8-7.4.3-11.2-.9-2-1.7-3.9-2.6-5.9Z"/>
  <path class="cls-49" d="M96.7,16c1.6,1.4.9,3.2.9,4.8,0,18.9,0,37.7,0,56.6-.3,1.4.5,3.1-.9,4.3,0-.9,0-1.7,0-2.6-1.3-1.8-.3-3.9-.3-5.8,0-8.3-1.5-16.6-.9-24.9-.2-6.7,0-13.3-.1-20,0-2,0-4,1.3-5.7,0-2.3,0-4.5,0-6.8Z"/>
  <path class="cls-112" d="M13.8,5.6c1.3,1.5,1.6,3.4-1,2.8-1.7-.4-2.6,1.4-4.1.7,1.2-1.9,2.5-3.5,5-3.5Z"/>
  <path class="cls-61" d="M7.9,77.4c.3,1.5-1,3.6,2,4,.8,0,.8,2.1.6,3.5-2.2,0-2.4-4.3-5.2-2.4-1-8.6-.5-17.2-.3-25.8.2-11.6-.2-23.1-.1-34.7,0-2.4.2-4.5,2.2-6.1,2.2,2.5,4.2,2.4,6.1-.5,1.1-1.8,2.4-3.5,3-5.6.3-1,1-1.7,2.3-1.5,1.3.2,1.4,1.2,1.5,2.2.4,4.1,1.2,8.1.9,12.2.2.9.3,1.8.5,2.7-.3,0-.5.1-.6,0-4.9-4-5.4-3.7-7.8,3-.7,2.1-.4,4.3-.9,6.2-2.5.3.9-5-3.2-2.7-.9,1.7-.4,3.5-.4,5.3,0,11.9,0,23.8,0,35.8,0,1.4.4,2.8-.4,4.2Z"/>
  <path class="cls-102" d="M96.7,22.8c0,8.5,0,17.1,0,25.6-1.5,3-1.2,6.2-1.3,9.4,0,2,.4,4.2-1.2,6-1.7-2.4-.5-5.1-.9-7.6-.3-1.7.7-3.6-.9-5.1,1.4-2,2.9-4,.5-6.4-.4-.4-.7-1.5-.5-1.9,3-5-.8-9.9-.3-14.9.3-3.3,1.1-4.9,4.4-4.9Z"/>
  <path class="cls-66" d="M30.3,27.9c.2,0,.4,0,.6,0,1.2,1.1,2.7.8,4.1.7,4.3-.3,8.3,0,11.4,3.5.3.7,0,1.1-.5,1.5-2.3,1.1-4.8.8-7.3.7-.4,0-.7-.2-1-.3-.7-.5-1.5-.9-2.4-.8-1,0-1.5.8-2,1.5-.6.7-1.2,1.4-2,1.9-.4.2-.7.2-1.1.2-1.2-.3-1.9-1.1-2.7-1.9-.6-.9-1.1-1.8-1.7-2.8,0-.4,0-.7,0-1.1.6-.7.2-1.3,0-1.9,0-.4.2-.7.6-.9,1.4-.2,2.8.3,4.1-.4Z"/>
  <path class="cls-21" d="M7.1,15.9c-2.6,4.3-1.8,9-1.6,13.6.4,9.6.3,19.2,0,28.8-.3,8,0,16.1,0,24.2-1.4-1.3-.8-2.9-.8-4.4,0-20.4,0-40.9,0-61.3.9-.3,1.7-.6,2.6-.9Z"/>
  <path class="cls-82" d="M60.8,38.9c1.6-1.2,3.4-.5,5.1-.7,1,1.3,0,2.7.3,4-.5,2.2-.6,4.5-.8,6.8,0,.6,0,1.1,0,1.7,0,.6-.2,1.1-.4,1.7-.2.4-.4.7-.7.9-1,.7-2.1,1.1-3.3.9-.4-.1-.7-.3-1-.6-.2-.8.2-1.5.6-2.1.7-.9.3-1.6-.2-2.4-1-2-1.3-4-.6-6.2.1-.5.3-1.1.4-1.6.1-.3.3-.6.5-.9.3-.5.3-1,0-1.5Z"/>
  <path class="cls-38" d="M50.4,51.7c-.5,0-1,0-1.5,0-.6-.8-.1-1.6-.3-2.4-.1-.7-.3-1.4-.3-2.1,0-.4.1-.7.2-1.1.8-2,0-4.2.4-6.2.5-1.3,0-2.5,0-3.8,0-.6.3-1.1.8-1.5,1.3.8,2.5,1.8,2.6,3.5.9,1.6-.2,3.6.8,5.2,0,.3,0,.5,0,.8.7,1.8,1.1,3.7-1.1,4.6-1.6.6-.5,2.4-1.7,3Z"/>
  <path class="cls-51" d="M60.9,42.4c-1.1,2.3-.3,4.5,0,6.8.4,1.1-.2,1.7-1,2.2-1.2.5-2.2.3-3.1-.5,0-1.4-.2-2.8-.3-4.2-.7-.9.9-1.7.2-2.7,0-.5,0-1.1,0-1.6,1.4-1.1,2.7-1.2,4.1,0Z"/>
  <path class="cls-64" d="M48.1,91.9c-5.4,2.4-11.1,1.6-16.8,1.5-1.3,0-1.1-1.4-1.2-2.4,2,.3,4.2-.8,6,.9,1.7.8,3.4.7,5.1,0,2.3-1.3,4.6-1.3,6.8,0Z"/>
  <path class="cls-12" d="M56.7,44c1.5,1,0,1.8-.2,2.7-.3,2.1-3.1,2.2-3.3,4.5,0,1-.4.6-.8,0-1.3-2.2-1,1.4-1.9.5-.3-3,3.2-4.6,2.8-7.6,1.2.5,2.3.8,3.4,0Z"/>
  <path class="cls-80" d="M66.7,62.1c0,2.8.1,5.7.2,8.5-.2.1-.3.3-.5.4-.8.4-1.6.3-2.3,0-1.2-.8-2.5-1.4-2.8-3,0-1,.3-1.9,1-2.7.4-.3.9-.4,1.3-.3,0,.2.2.2.2.2.1,0,.2-.1.2-.3,0-.2,0-.3-.2-.3.1-1.4.8-2.3,2.2-2.7.2,0,.5.1.7.1Z"/>
  <path class="cls-96" d="M77,43.2c0,1.4,0,2.8,0,4.2-.3.3-.6.4-1,.2-1.7-.4-2.3-1.8-2.9-3.2-.5-1-1.7-1.3-2.4-2.2-.2-.4-.3-.7-.3-1.1.2-.8,0-1.6.6-2.3,0-.3.2-.5.3-.8.3-.3.6-.3.9-.1.6.8,1.1,1.8,2.1,2.2,1.6.4,2.3,1.5,2.8,3Z"/>
  <path class="cls-71" d="M66.1,61.9c-.5,1.2-1.9,2-1.7,3.5h0c-.6,0-1.2,0-1.7,0-.3-.2-.5-.5-.7-.8-.3-1-.9-1.9-1.3-2.8,0-1.2.4-2.2,1.6-2.6,1.3.2,2.4.8,3.6,1.5.1.2.2.3.3.5,0,.2,0,.4,0,.7Z"/>
  <path class="cls-10" d="M49.8,34.6c0,.6,0,1.2,0,1.8-1,.6-2,.2-3,0-.6-.2-1.2-.5-1.6-1-.4-.9-.3-1.7.3-2.4.3-.3.6-.6.8-.8,1.9-.2,3.7-.3,3.5,2.5Z"/>
  <path class="cls-20" d="M71.1,38.9c0,.9,0,1.8,0,2.8-.9.8-2.1.9-3.2,1.3-.6.1-1.2.2-1.8,0-.4-.1-.7-.4-.9-.7.2-1.4.5-2.7.7-4.1,1.5,2,3.1,2.6,5.2.8Z"/>
  <path class="cls-68" d="M76.2,47.4c.3,0,.5,0,.8,0-3.3,1.8-6.8.4-10.2.9-.1-.1-.2-.3-.3-.4-.2-.6,0-1.1.3-1.5.3-.1.7-.2,1-.2,1.4,0,1.5-1.1,2-1.9.2-.3.5-.5.9-.6.6,0,1.1,0,1.6.5.5,2.1,2.1,2.9,4,3.3Z"/>
  <path class="cls-67" d="M72.1,38.2c-.3,0-.5,0-.8,0,1.1-1.5,2.2-.4,3.2,0,.6.7,1.2.7,1.7,0,1.5,1.5.5,3.4.8,5.1-1.1-.9-2.3-1.7-3.4-2.6-.7-.7-1-1.6-1.6-2.4Z"/>
  <path class="cls-17" d="M64.3,52.6c0-.6,0-1.1,0-1.7,1.4,0,.9-1.1,1.1-1.8.3-.5.6-.9,1.3-.8,0,0,.1,0,.1,0-.4,2.3.8,4.7-.8,6.9-.9-.6-1.4-1.6-1.7-2.6Z"/>
  <path class="cls-2" d="M57.4,40.7q-.4-2,2.7-1.7c.4.4,1.3.7.8,1.6h0c-1.2,1-2.3,1.1-3.5.2Z"/>
  <path class="cls-24" d="M57.4,40.7c1.2,0,2.3,0,3.5,0,0,.6,0,1.1,0,1.7-1.4,0-2.8,0-4.1,0,.2-.6.4-1.1.6-1.7Z"/>
  <path class="cls-32" d="M64.3,52.6c1.9,0,1.7,1.4,1.7,2.6,0,.3,0,.5,0,.8-.2.1-.4.3-.5.4-.7.1-1.3,0-1.7-.7-.5-1.1-.4-2.2.5-3.1h0Z"/>
  <path class="cls-75" d="M41.2,91.9c-1.7,1.6-3.8.6-5.7.8,0,0-.3-.1-.3-.2,0-.6.5-.5.8-.6h5.1Z"/>
  <path class="cls-104" d="M66.1,56c1.2,1.7,1,3.5,0,5.2,0,0-.1-.2-.1-.2-1.3-1.6-1.2-3.3,0-5h.2Z"/>
  <path class="cls-88" d="M53.1,43.3c-1.3-1.6-.6-3.4-.8-5.2,1.5,1.6.6,3.4.8,5.2Z"/>
  <path class="cls-96" d="M76.3,38.1c-.2.8.4,2.2-1,2.1-.9,0-.6-1.3-.7-2.1.6,0,1.1,0,1.7,0Z"/>
  <path class="cls-70" d="M60.9,40.6c-.3-.5-.5-1-.8-1.6.2-.1.5-.2.7-.1.6.3,1.9-.3,2,.8,0,1-1.1,1-1.9,1Z"/>
  <path class="cls-53" d="M21.6,64.5c-3.5,1-6.1-1.6-6.8-3.7-1-3.1-1.8-7,.8-10.3,1.6-2,3.4-3.4,5.9-3.9,2.9.7,1.7,3,1.8,4.8-.5,1.6-.2,3.4-.5,5-.1.7,0,1.3,0,2,0,.3,0,.7,0,1,0,.7,0,1.4,0,2.1-.1,1.1-.3,2.1-1.3,2.9Z"/>
  <path class="cls-116" d="M22.3,52.5c-.2-1.9.8-4-.8-5.8.3-.6.5-1.2.8-1.7-.6-1.1-.2-2.4-.3-3.6,0-.8.9-1.6.2-2.5-.1-.3,0-.7.1-.9,0-.3,0-.5-.1-.8,0-.1.2-.3.2-.4.3-.5,0-.8-.2-1.2-.1-.3-.1-.7,0-1,.3-.6.7-1.3.3-2,0-.2-.1-.3-.2-.5.3-.9.6-1.7.9-2.6.7-1,1.5-1.6,2.7-.8,0,.3,0,.6,0,.8.5.5.5,1.1,0,1.6,0,.3,0,.7,0,1,.7.7.8,1.7,1.5,2.4,1.4,0,1.8,1.2,2.7,1.8.2.3.4.7.4,1.1-.3,1.6,0,3.3-.9,4.8-.4.5-.9.8-1.5,1-2.9,1.8-1.2,4.3-1.2,6.6,0,.6-.2,1.1-.7,1.6-.7.7-1.5,1.3-2.5,1.6-.6,0-1.2,0-1.6-.6Z"/>
  <path class="cls-42" d="M32.7,58.4c-1.1,0-2.3.2-3.4.3-.6-.9-.5-2-.8-3,0-.6,0-1.1.2-1.6.7-1.3,1.3-2.7,1.6-4.2.2-.4.4-.7.7-.9,3,2.8,6.4.4,9.6,1,.5.7.5,1.5.3,2.2-.6,1.2-1.3,2.3-1.5,3.7-.1.4-.3.7-.5,1-.3.2-.7.3-1,.2-.3-.2-.5-.4-.7-.7,0-.2-.2-.4-.3-.6-.2,0-.3.3-.3.6-.2.8-.6,1.5-1.3,1.9-.6,0-1.2.2-1.9.3-.2-.6-.5-.6-.8-.1Z"/>
  <path class="cls-105" d="M7.9,77.4V30.5c.3.2.7.2.7.4.1.4,0,.8.1,1.3,0,13.6,0,27.2,0,40.8,0,1.5.6,3.2-.8,4.4Z"/>
  <path class="cls-52" d="M31,64.6c.9,2.4,1.8,5.5-.3,6.9-2.2,1.5-5.5,1.5-8.2-.2.4-.4.9-.7,1.5-.9,1.5-.3,2.1-1.3,2.2-2.7.2-1,.5-2,1.3-2.8,1.1-.7,2.2-1.4,3.5-.4Z"/>
  <path class="cls-81" d="M48.9,47.5c.3.6.5,1.2.8,1.8-.8.6-1.1,1.6-1.6,2.4-1.3,2.6-2.4,5.4-6,5.5-1.8-1.7-1-3.8-.7-5.7.6-1.2,1.7-1.4,2.8-1.6,1.1,0,1.8-.6,2.2-1.6.6-.9,1.3-1.6,2.4-.8Z"/>
  <path class="cls-72" d="M56.7,50.9c1.1,0,2.2,0,3.3,0,.9-.4,1,0,.9.8-.3.6-.6,1.2-.9,1.7-.4,1.8-.9,3.5-.3,5.3,0,.6,0,1.2-.3,1.7-.5.7-1.2,1.1-2.1,1-1.9-1.3-.7-3.1-.8-4.7,1.4-1.9,0-4,.3-6Z"/>
  <path class="cls-78" d="M26.7,68c1.5,3-.9,2.9-2.7,3.3-.3-.8-1.1-1.1-1.7-1.7,0-.8,0-1.7,0-2.5,1.3-.6,1-4.3,3.8-2,.6.9.5,1.9.6,2.9Z"/>
  <path class="cls-73" d="M25.9,65.4c-2.1-1.3-1.7,2.4-3.5,1.7-.2-.9.3-2-.8-2.6-.2-1.2.2-2.3.8-3.3.4-.5.9-.6,1.4-.6.7.1,1.4.5,2,.9.3.2.5.5.7.9.3.7.3,1.4,0,2.2-.1.4-.3.6-.6.9Z"/>
  <path class="cls-40" d="M67,70.6c.5,0,1.1.3,1.6.3,1.2-.1,2.2-1.8,3.5-.5.7.7,0,1.7-.6,1.5-1.9-.5-3.4,4.4-5.4.4,0-.8.3-1.3.8-1.8h.1Z"/>
  <path class="cls-44" d="M31,64.6l-3.5.8c-.3-.3-.5-.6-.6-1,0-.6,0-1.2.3-1.7.7-.9,1.1-1.9,2.1-2.6,2.8.6,1.4,2.8,1.7,4.4Z"/>
  <path class="cls-117" d="M57.5,71.4c-1-1.1-.8-2.2,0-3.3-.5-.7-.3-1.6-.3-2.4.2-.4.6-.5,1-.5,1.1.6,1.5,1.8,2.3,2.7.2.4.3.7.3,1.1,0,1.4-.8,2.2-2.1,2.6-.4.2-.8.1-1.1-.2Z"/>
  <path class="cls-109" d="M42.1,50.9c0,2.1,0,4.2,0,6.2-.2.2-.4.4-.6.6-.2,0-.4-.1-.5-.2-.4-.5-.5-1-.6-1.6,0-1.1-.6-2.2,0-3.4,0-.9,0-1.7,0-2.6,0-1.4.9-1.3,1.8-.9.4.6.4,1.2-.1,1.8Z"/>
  <path class="cls-40" d="M25.9,28.8c-.9.3-1.8.5-2.7.8-.8-.4-1.5-.9-1-1.9.6-1.4,1.2,0,1.8,0,2.1.3,4.2.2,6.2.3-1.3,1.3-3,.4-4.4.8Z"/>
  <path class="cls-114" d="M57.5,71.4c.3,0,.6,0,.8,0,1.9-.8,3.9-1.4,6-.8.8,0,1.6,0,2.5,0,0,.8-.1,1.4-.8,1.8-1.4,0-2.8,0-4.3,0-.3.3-.6.3-.9,0-1.1-.2-2.5.5-3.4-.9Z"/>
  <path class="cls-94" d="M56.5,56.9c1.1,1.3-.4,3.1.9,4.4.3.2.5.4.4.8-.2.5-.6.8-1.2.9-1.3-2.4-1.4-5.3-.1-6Z"/>
  <path class="cls-19" d="M29.3,60.1c0,1.2.1,2.6-1.7,2.7-.7.1-1.3-.3-1.7-.8h0c-.9-2.3.9-2.5,2.3-3,.5,0,.9.1,1.2.4,0,.2,0,.5,0,.7Z"/>
  <path class="cls-65" d="M29.3,59.5c-.3,0-.6,0-.9,0-.9.3-1.2-.3-1.5-.9-.2-.9-.2-1.8.5-2.6.6-.4,1.3-.4,1.9,0,.6.9.5,1.8,0,2.7,0,.2,0,.5,0,.7Z"/>
  <path class="cls-46" d="M22.3,38c0,.3.1.7.2,1,.5.5.4,1,0,1.6,0,1.5-.1,2.9-.2,4.4-1.1-2.3-1.1-4.6,0-7Z"/>
  <path class="cls-40" d="M60.9,72.3c.3,0,.6,0,.9,0,0,.9.2,2-1.1,2.3-.3,0-.9-.2-1-.5-.3-1,1-1.1,1.2-1.9Z"/>
  <path class="cls-83" d="M37.8,56.9c.3,0,.6,0,.8,0,.9-.1,1.8,0,2.4.8,0,0,.4,0,.4,0-1.7,1.4-3.6.7-5.4.6-.1-1.3.8-1.4,1.7-1.5Z"/>
  <path class="cls-85" d="M56.6,62.9c.3-.3.6-.6.8-.9,1.1,1.1,1,2.3.2,3.5,0,.9-.1,1.7-.2,2.6-1.4-1.5-.5-3.5-.8-5.2Z"/>
  <path class="cls-13" d="M37.8,56.9c-.6.5-1.1,1-1.7,1.5,0,0-.4,0-.4,0,0,0-.3-.1-.3-.1.2-.7.5-1.5.7-2.2.6-.5,1.1-.5,1.7,0,0,.3,0,.5,0,.8Z"/>
  <path class="cls-46" d="M22.6,34.6v1.1c.4.5.4,1.1,0,1.6,0,0-.3,0-.3,0-.9-1.7-1-3.4,0-5.1,0,0,.4,0,.4,0,.5.8.5,1.6,0,2.4Z"/>
  <path class="cls-111" d="M22.4,69.7c1,.1,2.8-.5,1.7,1.7-.5,0-1,0-1.5,0,0-.6-.1-1.1-.2-1.7Z"/>
  <path class="cls-11" d="M32.7,58.4c0-.7-.4-1.6.7-2,.2,0,.6.2.6.3-.1.6-.3,1.2-.5,1.8,0,0-.4,0-.4,0h-.4Z"/>
  <path class="cls-25" d="M48.1,51.7c0-1.2-.2-2.5,1.6-2.4-.3.8-.5,1.6-.8,2.4,0,0-.4,0-.4,0h-.4Z"/>
  <path class="cls-50" d="M94.2,63.7c0-2.8.1-5.7,0-8.5-.2-2.7.6-5,2.6-6.8,0,10.2,0,20.5,0,30.7-1.1-.5-5,1.3-1.7-2.5,1.9-2.1,1-10.7-.9-12.9Z"/>
  <path class="cls-39" d="M42.1,49.2c-.7,0-1.4,0-1.7.8-4.7,2.6-7.4,2.4-9.4-.9-.9-1.2-.5-2.4-.2-3.7.6-.9,1.6-.8,3.4-1.2-2,.4-2.9.1-3.6-.7-.2-.3-.4-.7-.4-1.1.1-1.7.1-3.5-.1-5.2,0-.3,0-.5,0-.8.2,0,.5,0,.7,0,1.8,1,4.2-2.5,5.6.9.3-1.1,1.1-1.5,2.2-1.5,1.3,0,2.5.4,3.7.7.4.1.8.3,1.2.5,3.4,3.4,2.6,7.4,1.5,11.5-.8,1-1.7,1.7-3,.8Z"/>
  <path class="cls-52" d="M42.1,37.2c-1.2.1-2.4,0-3.4-.8-.4-.3-.9-.5-1.1-1,0-.8.6-1.1,1.1-1.6,2.3-.3,4.6-.6,6.9-.9,0,.9,0,1.7,0,2.6-.1.1-.3.3-.4.4-.9.7-2.2.3-3,1.2Z"/>
  <path class="cls-91" d="M37.8,35.4c.3.4.6.7.9,1.1-1.8-.2-1.2,1.4-1.4,1.7-1.8,1.5-1.5-5.1-4-.3-.5.9-.9-2.2-2.5-1.4.2-1,.7-1.6,1.8-1.6,1.9-1.5,3.6-.9,5.1.6Z"/>
  <path class="cls-100" d="M37.8,35.4c-1.7-.2-3.4-.4-5.1-.6-.2-1.9.6-2.8,2.6-2.5.6.8,1.8.8,2.5,1.6.3,0,.6,0,.9,0-.3.5-.5,1-.8,1.5Z"/>
  <path class="cls-35" d="M37.7,33.8c-1.2,0-2.4,0-2.5-1.6,1.2,0,2.5-.1,2.5,1.6Z"/>
  <path class="cls-62" d="M27.4,34.6c-1.7,0-1.5-1.3-1.5-2.4,1.8,0,1.7,1.1,1.5,2.4Z"/>
  <path class="cls-54" d="M25.9,31.2c0-.5,0-1.1,0-1.6.7.2,1.8-.5,1.8.7,0,.9-1,1-1.8,1Z"/>
  <path class="cls-6" d="M64.3,52.6c0,1.1,0,2.3,0,3.4-.3,1.1-1,1.8-2.1,2-.4,0-.8-.2-1.2-.5-1.1-1.3-1.3-2.7-.1-4.1,1.1-.3,2.3-.6,3.4-.8Z"/>
  <path class="cls-15" d="M60.9,53.5c0,1.5,0,2.9.9,4.2-.6,1-1.4,1.4-2.5.9-1.5-2-1.4-3.7.8-5.1.3,0,.6,0,.9,0Z"/>
  <path class="cls-93" d="M66.7,48.4c-.2.3-.5.6-.7.9-.5.5-1.1.5-1.7,0,.3-2.3.6-4.7.9-7,.3,0,.5,0,.8.1,1.1,1.3,2,2.5.9,4.2l-.2,1.7Z"/>
  <path class="cls-89" d="M60.9,51.7c-.3-.3-.6-.5-.9-.8.3-.6.6-1.2.9-1.7.9.1,1.7.3,1.6,1.5-.1.9-.9,1-1.6,1.1Z"/>
  <path class="cls-4" d="M64.3,49.3c.6,0,1.1,0,1.7,0,0,1.1.3,2.6-1.7,1.7,0-.5,0-1.1,0-1.6Z"/>
  <path class="cls-98" d="M44.6,48.3c0-3.7,1.6-7.7-1.8-10.9.6-.8,1.3-.9,2.2-.7.4.1.7.3,1,.6.6,1,.7,2.1,1.4,3,.2.3.3.7.4,1,.2,1.8,1.5,3.4,1.2,5.3,0,.3,0,.6,0,.8-1.2,0-1.7.7-1.8,1.8-1,.8-1.7.3-2.4-.5,0-.2-.1-.4-.2-.5Z"/>
  <path class="cls-30" d="M48.9,46.7c-.8-1.9-3.2-3.4-1.7-6,.6-1.2,1.3-1.7,2.5-.9-.9,2.2,1.8,4.8-.8,6.8Z"/>
  <path class="cls-98" d="M49.8,39.8c-.8.3-1.7.6-2.5.9h0c-.7-.8-1.1-1.6-1.2-2.6,0-1,.5-1.9,1.3-2.5.8.3,1.7.6,2.5.9,0,1.1.8,2.3,0,3.4Z"/>
  <path class="cls-34" d="M64.4,70.6c-1.8,1.6-4,.5-6,.8.5-.9,1.8-1.2,1.7-2.5.3-.3.4-.9.9-1.1.3,0,.6,0,.9.3.9.9,1.7,1.7,2.6,2.6Z"/>
  <path class="cls-86" d="M61.8,68c-.3,0-.6,0-.9,0-.7-.7-.8-1.5-.5-2.4.5-.8,1.1-1.4,2.2-1,0,.3,0,.6,0,.8,0,.9.2,2-.8,2.6Z"/>
  <path class="cls-99" d="M64.3,65.5c.9,0,1.7.3,1.5,1.5,0,.3-.6.7-.8.6-1-.4-.6-1.4-.7-2.1,0,0,0,0,0,0Z"/>
  <path class="cls-103" d="M76.2,47.4c-2-.4-5.9,1.7-4.3-3.3.5-.5,1.1-.6,1.6-.1.9,1.1,1.8,2.3,2.6,3.4Z"/>
  <path class="cls-47" d="M67.7,42.3c1-1.2,2.3-.6,3.5-.7,0,.2,0,.5,0,.7.5,1-.4,1.2-.8,1.6h0c-.4.3-.8.5-1.2.6-1.4-.2-2.2-.8-1.4-2.3Z"/>
  <path class="cls-45" d="M70.3,44.1c.3-.5.6-1.1.8-1.6,1.2,0,2.5-.3,2.5,1.6-.5,0-1.1,0-1.6.1-.6,0-1.1,0-1.7,0Z"/>
  <path class="cls-59" d="M72.1,38.2c1.1.4,1.6,1.2,1.6,2.4-1.7,0-1.7-1.2-1.6-2.4Z"/>
  <path class="cls-79" d="M62.6,57.7c.3-.8.9-1.4,1.7-1.7.5,0,1,0,1.6,0,0,1.7,0,3.3,0,5-1.5.3-2.7,0-3.3-1.6,0,0,0-.4,0-.4,0-.2.1-.5,0-.7,0,0-.1-.3-.1-.3s0-.3,0-.3Z"/>
  <path class="cls-56" d="M59.2,58.6c.8-.3,1.7-.6,2.5-.9.3,0,.6,0,.9,0,0,0,0,0,0,0,.3.2.4.5.5.8,0,.3-.2.6-.5.9,0,0,0,0,0,0-1,.6-1.2,1.6-1.7,2.6-.3.2-.6.3-1,.1-.6-.5-.8-1.1-.8-1.9,0-.6,0-1.1,0-1.7Z"/>
  <path class="cls-16" d="M60,62.1c.3,0,.6,0,.9,0,1.7,0,1.7,1.3,1.7,2.5-.5.3-1.1.6-1.6.9-2.4-.5-3.2-1.5-.9-3.4Z"/>
  <path class="cls-41" d="M47.2,35.6c-.3.9-.6,1.7-.9,2.6-.2.4-.5.4-.7,0,0-.3,0-.6,0-.9-.5-.6-.5-1.1,0-1.7,0,0,0,0,0,0,.6,0,1.1,0,1.7,0Z"/>
  <path class="cls-77" d="M67.7,42.3c.1,1,.5,1.8,1.7,1.8,1.2,2-.3,2.2-1.6,2.5-.3,0-.5,0-.8,0-.3-1.4-.6-2.8-.9-4.2.6,0,1.1,0,1.7,0Z"/>
  <path class="cls-3" d="M67.7,46.7c.4-.9,1.9-1.1,1.6-2.5.3,0,.6,0,1,0-.4,1.3,1.1,4.5-2.6,2.6Z"/>
  <path class="cls-58" d="M27.5,58.5c.3.3.6.6.9.9-.6,1.1-2.7.7-2.5,2.6-.7,0-1.4-.2-1.7-.9-.4-.8-1.4-1-1.9-1.8,0-.2,0-.4,0-.7.4-.9,1.1-1.5,1.4-2.4.2-.3.5-.6.9-.7.6,0,1.1,0,1.6.5.6.8.5,1.9,1.3,2.5Z"/>
  <path class="cls-107" d="M22.3,52.5c.6,0,1.2,0,1.9,0,2.4,1.1.9,2.3,0,3.4h-.2c-.5,1.1-1.1,1.7-2.3.9,1.4-1.3-.8-3.1.6-4.4Z"/>
  <path class="cls-29" d="M21.7,56.9c.8-.3,1.6-.6,2.3-.8,1.2,2-.2,2.3-1.7,2.6-.7-.4-.7-1.1-.6-1.8Z"/>
  <path class="cls-57" d="M22.3,59.3c.9.3,2.9-.4,1.9,1.8-.6,0-1.2,0-1.8,0-.9-.6-.9-1.2,0-1.9Z"/>
  <path class="cls-37" d="M30.9,50c.4,1.8-.3,3.2-1.7,4.4-.5.5-1,.5-1.6.3-.9-.5-1.5-1.2-2.1-2.1-.2-.6-.1-1.2.2-1.7.3-.3.6-.6.9-.9.1-.6.4-1,1-1.2.5-.2,1.1-.2,1.6,0,.7.2,1.2.8,1.7,1.3Z"/>
  <path class="cls-46" d="M27.6,54.4c.6,0,1.1,0,1.7,0,0,.5,0,1.1,0,1.6-.6,0-1.1,0-1.7,0-.6.5-1.1.5-1.7,0-.6,0-1.1,0-1.7,0-.4-1.1,1.5-2.3,0-3.4.5-.5,1.1-1.1,1.6-1.6,0,.6,0,1.1.1,1.7.7.4,0,2.3,1.7,1.7Z"/>
  <path class="cls-84" d="M27.6,49.2c-.3.3-.6.6-.9.8-1.2-2.7-2.5-5.4.8-7.6.5.4.6.9.6,1.4-.1.8-.3,1.7-.1,2.5,0,.3,0,.7,0,1-.5.5,0,1.3-.3,1.8Z"/>
  <path class="cls-63" d="M30.2,37.2c1.9,1.5,1.2,3.3.7,5.2-.5.5-1,.4-1.6,0,.3-1.7-.7-3.7.9-5.2Z"/>
  <path class="cls-101" d="M29.3,42.4c.5,0,1,0,1.6,0,.1.3.2.6.4.9.5,1.1,0,1.8-.7,2.5-.3.2-.7.3-1.1.3-.9-.4-1.5-1.1-1.8-2,0-.6,0-1.1,0-1.7.6,0,1.2,0,1.7,0Z"/>
  <path class="cls-27" d="M22.6,34.6c0-.8,0-1.6,0-2.4.8,0,1.4.3,1.4,1.2,0,.9-.7,1.1-1.5,1.1Z"/>
  <path class="cls-7" d="M22.5,37.2c0-.5,0-1.1,0-1.6.8,0,2-.4,2,.8,0,1.1-1.2.7-2,.8Z"/>
  <path class="cls-84" d="M22.5,40.6c0-.5,0-1,0-1.6.6-.2,1.3-.8,1.5.2.2,1-.6,1.3-1.5,1.3Z"/>
  <path class="cls-5" d="M29.2,45.8c.4,0,.8,0,1.1,0,.3-.2.6-.2.9,0,0,1.2-.2,2.3-.3,3.5,0,.3,0,.6,0,.9-.7,0-1.3-.2-1.7-.8-.5-.6-1.2-1-1.7-1.7,0-.3,0-.7,0-1,0-1.3.8-1.3,1.6-.7Z"/>
  <path class="cls-83" d="M40.4,52.6c.7,1.1,1,2.2.8,3.5-.8.6-1.6.6-2.4,0,.1-1.3-.7-3.1,1.7-3.4Z"/>
  <path class="cls-83" d="M37.8,56.1c-.6,0-1.1,0-1.7,0-.1-.8-1.5-2,.2-2.3,1.7-.3,1.4,1.3,1.4,2.4Z"/>
  <path class="cls-69" d="M38.7,56.1c.8,0,1.6,0,2.4,0,0,.5,0,1.1,0,1.6-.9,0-1.9.1-2.4-.8,0-.3,0-.5,0-.8Z"/>
  <path class="cls-110" d="M27.5,64.5c0,.3,0,.6,0,.8,0,1,.2,2-.8,2.7-1-.6-.8-1.7-.9-2.6,0-.3,0-.6,0-.9.5-.5,1.1-.5,1.6,0Z"/>
  <path class="cls-9" d="M42.1,49.2c.8-.3,1.6-.6,2.5-.9,0,0,.2.2.2.2.2.8,1.4,1.3.7,2.4-1.1,0-2.3,0-3.4,0,0-.6,0-1.1,0-1.7Z"/>
  <path class="cls-8" d="M45.5,50.9c-.2-.8-.5-1.6-.7-2.4.8.3,1.6.5,2.4.8,0,1.2-.6,1.7-1.7,1.6Z"/>
  <path class="cls-22" d="M60,62.1c-1.4,1.6,0,2.4.9,3.4,0,.8,0,1.7,0,2.5-.3.3-.6.6-.9.9,0-.3,0-.7,0-1-.7-.6-1-1.6-1.5-2.3-.3,0-.6,0-.9,0,0-1.2-.1-2.3-.2-3.5,0-.2,0-.5,0-.7.6-.3,1.2-.6,1.8-.9.7.4.8,1.1.9,1.8Z"/>
  <path class="cls-76" d="M27.5,64.5c-.5,0-1.1,0-1.6,0,0-.8,0-1.7,0-2.5.7,0,1.3.1,1.7.8,0,.6,0,1.1,0,1.7Z"/>
  <path class="cls-31" d="M58.4,65.5c1,.4,1.6,1.2,1.5,2.3-1.8,0-1.7-1.1-1.5-2.3Z"/>
  <path class="cls-90" d="M25.9,56.1c.6,0,1.1,0,1.7,0,0,.8,0,1.7,0,2.5-1.8,0-1.7-1.3-1.7-2.5Z"/>
  <path class="cls-113" d="M45.5,35.6c0,.6,0,1.1,0,1.7-.9,0-1.9,0-2.8.1-.2,0-.4,0-.6-.2.3-2.3,2.1-1.4,3.4-1.6Z"/>
  <path class="cls-91" d="M31.3,45.7c-.3,0-.6,0-.9,0,.3-.8.6-1.6.9-2.4.8.4,1.7.8,2.7,1.2-.9.4-1.8.8-2.6,1.1Z"/>
  <path class="cls-26" d="M45.6,38.2c.2,0,.5,0,.7,0,.3.8.6,1.7.8,2.5-1.8,0-1.7-1.2-1.6-2.5Z"/>
  <path class="cls-33" d="M62.6,59.5c0-.3,0-.6,0-.9.3-.3.6-.5.9-.7,1.3,1.4,0,1.4-.9,1.6Z"/>
  <path class="cls-60" d="M63.5,57.9c-.3.2-.6.5-.9.7,0-.3,0-.5,0-.8.3,0,.6,0,.9,0Z"/>
  <path class="cls-90" d="M27.6,54.4c-2,.9-1.8-.5-1.7-1.7,1.1,0,1.7.6,1.7,1.7Z"/>
  <path class="cls-46" d="M27.6,47.5c1.1,0,1.7.5,1.7,1.7-.6,0-1.1,0-1.7,0-.1-.6-.9-1.1,0-1.7Z"/>
  <path class="cls-46" d="M29.2,45.8c-.5.2-1.1.5-1.6.7-1.1-.8-1-1.6,0-2.4,1.1,0,1.7.5,1.6,1.7Z"/>
</svg>