<?xml version="1.0" encoding="UTF-8"?>
<svg xmlns="http://www.w3.org/2000/svg" version="1.1" viewBox="0 0 290 363">
  <defs>
    <style>
      .cls-1 {
        fill: #8f2b1f;
      }

      .cls-2 {
        fill: #85291e;
      }

      .cls-3 {
        fill: #8e2b1f;
      }

      .cls-4 {
        fill: #ebd59b;
      }

      .cls-5 {
        fill: #9e4b2b;
      }

      .cls-6 {
        fill: #8d291f;
      }

      .cls-7 {
        fill: #8b291f;
      }

      .cls-8 {
        fill: #d3a771;
      }

      .cls-9 {
        fill: #882f1f;
      }

      .cls-10 {
        fill: #d6b55f;
      }

      .cls-11 {
        fill: #a02f21;
      }

      .cls-12 {
        fill: #ac814c;
      }

      .cls-13 {
        fill: #902c1f;
      }

      .cls-14 {
        fill: #ae8c50;
      }

      .cls-15 {
        fill: #8e6238;
      }

      .cls-16 {
        fill: #a87944;
      }

      .cls-17 {
        fill: #9f2f20;
      }

      .cls-18 {
        fill: #872a1f;
      }

      .cls-19 {
        fill: #9d2f20;
      }

      .cls-20 {
        fill: #cc9b68;
      }

      .cls-21 {
        fill: #c89362;
      }

      .cls-22 {
        fill: #89291f;
      }

      .cls-23 {
        fill: #9e2f21;
      }

      .cls-24 {
        fill: #9a2f20;
      }

      .cls-25 {
        fill: #862a1e;
      }

      .cls-26 {
        fill: #d02d2a;
      }

      .cls-27 {
        fill: #862a1f;
      }

      .cls-28 {
        fill: #b09057;
      }
    </style>
  </defs>
  <!-- Generator: Adobe Illustrator 28.6.0, SVG Export Plug-In . SVG Version: 1.2.0 Build 709)  -->
  <g>
    <g id="Layer_1">
      <g>
        <rect class="cls-17" x="232.2" y="327.8" width="3.2" height="7.5"/>
        <rect class="cls-22" x="229" y="327.8" width="3.2" height="7.5"/>
        <rect class="cls-2" x="225.7" y="327.8" width="3.2" height="7.5"/>
        <rect class="cls-2" x="190.2" y="327.8" width="3.2" height="7.5"/>
        <rect class="cls-6" x="187" y="327.8" width="3.2" height="7.5"/>
        <rect class="cls-2" x="183.8" y="327.8" width="3.2" height="7.5"/>
        <rect class="cls-2" x="180.5" y="327.8" width="3.2" height="7.5"/>
        <rect class="cls-2" x="232.2" y="320.3" width="3.2" height="7.5"/>
        <rect class="cls-2" x="229" y="320.3" width="3.2" height="7.5"/>
        <polygon class="cls-12" points="216 320.3 212.8 320.3 209.6 320.3 206.4 320.3 203.1 320.3 199.9 320.3 199.9 327.8 203.1 327.8 206.4 327.8 209.6 327.8 212.8 327.8 216 327.8 219.3 327.8 219.3 320.3 216 320.3"/>
        <rect class="cls-2" x="196.7" y="320.3" width="3.2" height="7.5"/>
        <rect class="cls-9" x="183.8" y="320.3" width="3.2" height="7.5"/>
        <rect class="cls-28" x="180.5" y="320.3" width="3.2" height="7.5"/>
        <rect class="cls-28" x="251.6" y="312.8" width="3.2" height="7.5"/>
        <rect class="cls-5" x="241.9" y="312.8" width="3.2" height="7.5"/>
        <rect class="cls-2" x="212.8" y="312.8" width="3.2" height="7.5"/>
        <rect class="cls-21" x="203.1" y="312.8" width="3.2" height="7.5"/>
        <rect class="cls-2" x="199.9" y="312.8" width="3.2" height="7.5"/>
        <rect class="cls-24" x="177.3" y="312.8" width="3.2" height="7.5"/>
        <rect class="cls-27" x="174.1" y="312.8" width="3.2" height="7.5"/>
        <rect class="cls-2" x="235.4" y="305.3" width="3.2" height="7.5"/>
        <rect class="cls-2" x="209.6" y="305.3" width="3.2" height="7.5"/>
        <rect class="cls-8" x="206.4" y="305.3" width="3.2" height="7.5"/>
        <rect class="cls-7" x="203.1" y="305.3" width="3.2" height="7.5"/>
        <rect class="cls-18" x="180.5" y="305.3" width="3.2" height="7.5"/>
        <rect class="cls-4" x="229" y="297.8" width="3.2" height="7.5"/>
        <rect class="cls-2" x="225.7" y="297.8" width="3.2" height="7.5"/>
        <rect class="cls-2" x="222.5" y="297.8" width="3.2" height="7.5"/>
        <rect class="cls-13" x="193.4" y="297.8" width="3.2" height="7.5"/>
        <rect class="cls-2" x="190.2" y="297.8" width="3.2" height="7.5"/>
        <rect class="cls-4" x="187" y="297.8" width="3.2" height="7.5"/>
        <rect class="cls-28" x="251.6" y="290.4" width="3.2" height="7.5"/>
        <rect class="cls-2" x="229" y="290.4" width="3.2" height="7.5"/>
        <rect class="cls-23" x="225.7" y="290.4" width="3.2" height="7.5"/>
        <rect class="cls-2" x="187" y="290.4" width="3.2" height="7.5"/>
        <g>
          <polygon class="cls-28" points="254.8 290.4 254.8 297.8 254.8 305.3 254.8 312.8 254.8 320.3 258 320.3 258 312.8 258 305.3 258 297.8 258 290.4 254.8 290.4"/>
          <polygon class="cls-28" points="245.1 282.9 241.9 282.9 238.7 282.9 238.7 290.4 241.9 290.4 245.1 290.4 248.3 290.4 251.6 290.4 251.6 282.9 248.3 282.9 245.1 282.9"/>
        </g>
        <rect class="cls-28" x="235.4" y="282.9" width="3.2" height="7.5"/>
        <rect class="cls-2" x="232.2" y="282.9" width="3.2" height="7.5"/>
        <polygon class="cls-28" points="183.8 282.9 180.5 282.9 177.3 282.9 174.1 282.9 170.8 282.9 167.6 282.9 164.4 282.9 161.1 282.9 157.9 282.9 154.7 282.9 151.5 282.9 148.2 282.9 145 282.9 141.8 282.9 138.5 282.9 135.3 282.9 132.1 282.9 128.9 282.9 125.6 282.9 122.4 282.9 119.2 282.9 115.9 282.9 112.7 282.9 109.5 282.9 106.2 282.9 103 282.9 99.8 282.9 96.6 282.9 93.3 282.9 90.1 282.9 86.9 282.9 83.6 282.9 80.4 282.9 77.2 282.9 74 282.9 70.7 282.9 67.5 282.9 64.3 282.9 61 282.9 57.8 282.9 54.6 282.9 51.3 282.9 48.1 282.9 44.9 282.9 44.9 290.4 48.1 290.4 51.3 290.4 54.6 290.4 57.8 290.4 61 290.4 64.3 290.4 67.5 290.4 70.7 290.4 74 290.4 77.2 290.4 80.4 290.4 83.6 290.4 86.9 290.4 90.1 290.4 93.3 290.4 96.6 290.4 99.8 290.4 103 290.4 106.2 290.4 109.5 290.4 112.7 290.4 115.9 290.4 119.2 290.4 122.4 290.4 125.6 290.4 128.9 290.4 132.1 290.4 135.3 290.4 138.5 290.4 141.8 290.4 145 290.4 148.2 290.4 151.5 290.4 154.7 290.4 157.9 290.4 161.1 290.4 164.4 290.4 167.6 290.4 170.8 290.4 174.1 290.4 177.3 290.4 180.5 290.4 183.8 290.4 187 290.4 187 282.9 183.8 282.9"/>
        <rect class="cls-28" x="235.4" y="275.4" width="3.2" height="7.5"/>
        <rect class="cls-16" x="232.2" y="275.4" width="3.2" height="7.5"/>
        <rect class="cls-3" x="229" y="275.4" width="3.2" height="7.5"/>
        <rect class="cls-11" x="187" y="275.4" width="3.2" height="7.5"/>
        <rect class="cls-20" x="229" y="267.9" width="3.2" height="7.5"/>
        <rect class="cls-2" x="225.7" y="267.9" width="3.2" height="7.5"/>
        <rect class="cls-1" x="190.2" y="267.9" width="3.2" height="7.5"/>
        <rect class="cls-2" x="187" y="267.9" width="3.2" height="7.5"/>
        <rect class="cls-25" x="219.3" y="260.4" width="3.2" height="7.5"/>
        <rect class="cls-19" x="216" y="260.4" width="3.2" height="7.5"/>
        <polygon class="cls-26" points="238.7 312.8 235.4 312.8 235.4 305.3 232.2 305.3 229 305.3 225.7 305.3 222.5 305.3 222.5 297.8 225.7 297.8 225.7 290.4 229 290.4 232.2 290.4 232.2 282.9 229 282.9 229 275.4 225.7 275.4 225.7 267.9 222.5 267.9 219.3 267.9 216 267.9 216 260.4 212.8 260.4 209.6 260.4 206.4 260.4 203.1 260.4 203.1 267.9 199.9 267.9 196.7 267.9 193.4 267.9 193.4 275.4 190.2 275.4 190.2 282.9 187 282.9 187 290.4 190.2 290.4 190.2 297.8 193.4 297.8 196.7 297.8 196.7 305.3 193.4 305.3 190.2 305.3 187 305.3 183.8 305.3 183.8 312.8 180.5 312.8 180.5 320.3 183.8 320.3 187 320.3 187 327.8 190.2 327.8 193.4 327.8 196.7 327.8 196.7 320.3 199.9 320.3 199.9 312.8 203.1 312.8 203.1 305.3 206.4 305.3 209.6 305.3 212.8 305.3 212.8 312.8 216 312.8 216 320.3 219.3 320.3 219.3 327.8 222.5 327.8 225.7 327.8 229 327.8 229 320.3 232.2 320.3 235.4 320.3 238.7 320.3 241.9 320.3 241.9 312.8 238.7 312.8"/>
        <rect class="cls-22" x="199.9" y="260.4" width="3.2" height="7.5"/>
        <rect class="cls-2" x="196.7" y="260.4" width="3.2" height="7.5"/>
        <polygon class="cls-15" points="216 245.4 212.8 245.4 209.6 245.4 206.4 245.4 203.1 245.4 199.9 245.4 196.7 245.4 193.4 245.4 190.2 245.4 187 245.4 183.8 245.4 180.5 245.4 177.3 245.4 174.1 245.4 170.8 245.4 167.6 245.4 164.4 245.4 161.1 245.4 157.9 245.4 154.7 245.4 151.5 245.4 148.2 245.4 145 245.4 141.8 245.4 138.5 245.4 135.3 245.4 132.1 245.4 128.9 245.4 125.6 245.4 122.4 245.4 119.2 245.4 115.9 245.4 112.7 245.4 109.5 245.4 106.2 245.4 103 245.4 99.8 245.4 96.6 245.4 93.3 245.4 90.1 245.4 86.9 245.4 83.6 245.4 80.4 245.4 80.4 252.9 83.6 252.9 86.9 252.9 90.1 252.9 93.3 252.9 96.6 252.9 99.8 252.9 103 252.9 106.2 252.9 109.5 252.9 112.7 252.9 115.9 252.9 119.2 252.9 122.4 252.9 125.6 252.9 128.9 252.9 132.1 252.9 135.3 252.9 138.5 252.9 141.8 252.9 145 252.9 148.2 252.9 151.5 252.9 154.7 252.9 157.9 252.9 161.1 252.9 164.4 252.9 167.6 252.9 170.8 252.9 174.1 252.9 177.3 252.9 180.5 252.9 183.8 252.9 187 252.9 190.2 252.9 193.4 252.9 196.7 252.9 199.9 252.9 203.1 252.9 206.4 252.9 209.6 252.9 212.8 252.9 216 252.9 219.3 252.9 219.3 245.4 216 245.4"/>
        <polygon class="cls-15" points="216 222.9 212.8 222.9 209.6 222.9 206.4 222.9 203.1 222.9 199.9 222.9 196.7 222.9 193.4 222.9 190.2 222.9 187 222.9 183.8 222.9 180.5 222.9 177.3 222.9 174.1 222.9 170.8 222.9 167.6 222.9 164.4 222.9 161.1 222.9 157.9 222.9 154.7 222.9 151.5 222.9 148.2 222.9 145 222.9 141.8 222.9 138.5 222.9 135.3 222.9 132.1 222.9 128.9 222.9 125.6 222.9 122.4 222.9 119.2 222.9 115.9 222.9 112.7 222.9 109.5 222.9 106.2 222.9 103 222.9 99.8 222.9 96.6 222.9 93.3 222.9 90.1 222.9 86.9 222.9 83.6 222.9 80.4 222.9 80.4 230.4 83.6 230.4 86.9 230.4 90.1 230.4 93.3 230.4 96.6 230.4 99.8 230.4 103 230.4 106.2 230.4 109.5 230.4 112.7 230.4 115.9 230.4 119.2 230.4 122.4 230.4 125.6 230.4 128.9 230.4 132.1 230.4 135.3 230.4 138.5 230.4 141.8 230.4 145 230.4 148.2 230.4 151.5 230.4 154.7 230.4 157.9 230.4 161.1 230.4 164.4 230.4 167.6 230.4 170.8 230.4 174.1 230.4 177.3 230.4 180.5 230.4 183.8 230.4 187 230.4 190.2 230.4 193.4 230.4 196.7 230.4 199.9 230.4 203.1 230.4 206.4 230.4 209.6 230.4 212.8 230.4 216 230.4 219.3 230.4 219.3 222.9 216 222.9"/>
        <polygon class="cls-15" points="216 193 212.8 193 209.6 193 206.4 193 203.1 193 199.9 193 196.7 193 193.4 193 190.2 193 187 193 183.8 193 180.5 193 177.3 193 174.1 193 170.8 193 167.6 193 164.4 193 161.1 193 157.9 193 154.7 193 151.5 193 148.2 193 145 193 141.8 193 138.5 193 135.3 193 132.1 193 128.9 193 125.6 193 122.4 193 119.2 193 115.9 193 112.7 193 109.5 193 106.2 193 103 193 99.8 193 96.6 193 93.3 193 90.1 193 86.9 193 83.6 193 80.4 193 80.4 200.5 83.6 200.5 86.9 200.5 90.1 200.5 93.3 200.5 96.6 200.5 99.8 200.5 103 200.5 106.2 200.5 109.5 200.5 112.7 200.5 115.9 200.5 119.2 200.5 122.4 200.5 125.6 200.5 128.9 200.5 132.1 200.5 135.3 200.5 138.5 200.5 141.8 200.5 145 200.5 148.2 200.5 151.5 200.5 154.7 200.5 157.9 200.5 161.1 200.5 164.4 200.5 167.6 200.5 170.8 200.5 174.1 200.5 177.3 200.5 180.5 200.5 183.8 200.5 187 200.5 190.2 200.5 193.4 200.5 196.7 200.5 199.9 200.5 203.1 200.5 206.4 200.5 209.6 200.5 212.8 200.5 216 200.5 219.3 200.5 219.3 193 216 193"/>
        <polygon class="cls-15" points="216 170.5 212.8 170.5 209.6 170.5 206.4 170.5 203.1 170.5 199.9 170.5 196.7 170.5 193.4 170.5 190.2 170.5 187 170.5 183.8 170.5 180.5 170.5 177.3 170.5 174.1 170.5 170.8 170.5 167.6 170.5 164.4 170.5 161.1 170.5 157.9 170.5 154.7 170.5 151.5 170.5 148.2 170.5 145 170.5 141.8 170.5 138.5 170.5 135.3 170.5 132.1 170.5 128.9 170.5 125.6 170.5 122.4 170.5 119.2 170.5 115.9 170.5 112.7 170.5 109.5 170.5 106.2 170.5 103 170.5 99.8 170.5 96.6 170.5 93.3 170.5 90.1 170.5 86.9 170.5 83.6 170.5 80.4 170.5 80.4 178 83.6 178 86.9 178 90.1 178 93.3 178 96.6 178 99.8 178 103 178 106.2 178 109.5 178 112.7 178 115.9 178 119.2 178 122.4 178 125.6 178 128.9 178 132.1 178 135.3 178 138.5 178 141.8 178 145 178 148.2 178 151.5 178 154.7 178 157.9 178 161.1 178 164.4 178 167.6 178 170.8 178 174.1 178 177.3 178 180.5 178 183.8 178 187 178 190.2 178 193.4 178 196.7 178 199.9 178 203.1 178 206.4 178 209.6 178 212.8 178 216 178 219.3 178 219.3 170.5 216 170.5"/>
        <polygon class="cls-15" points="216 140.6 212.8 140.6 209.6 140.6 206.4 140.6 203.1 140.6 199.9 140.6 196.7 140.6 193.4 140.6 190.2 140.6 187 140.6 183.8 140.6 180.5 140.6 177.3 140.6 174.1 140.6 170.8 140.6 167.6 140.6 164.4 140.6 161.1 140.6 157.9 140.6 154.7 140.6 151.5 140.6 148.2 140.6 145 140.6 141.8 140.6 138.5 140.6 135.3 140.6 132.1 140.6 128.9 140.6 125.6 140.6 122.4 140.6 119.2 140.6 115.9 140.6 112.7 140.6 109.5 140.6 106.2 140.6 103 140.6 99.8 140.6 96.6 140.6 93.3 140.6 90.1 140.6 86.9 140.6 83.6 140.6 80.4 140.6 80.4 148.1 83.6 148.1 86.9 148.1 90.1 148.1 93.3 148.1 96.6 148.1 99.8 148.1 103 148.1 106.2 148.1 109.5 148.1 112.7 148.1 115.9 148.1 119.2 148.1 122.4 148.1 125.6 148.1 128.9 148.1 132.1 148.1 135.3 148.1 138.5 148.1 141.8 148.1 145 148.1 148.2 148.1 151.5 148.1 154.7 148.1 157.9 148.1 161.1 148.1 164.4 148.1 167.6 148.1 170.8 148.1 174.1 148.1 177.3 148.1 180.5 148.1 183.8 148.1 187 148.1 190.2 148.1 193.4 148.1 196.7 148.1 199.9 148.1 203.1 148.1 206.4 148.1 209.6 148.1 212.8 148.1 216 148.1 219.3 148.1 219.3 140.6 216 140.6"/>
        <polygon class="cls-15" points="216 118.1 212.8 118.1 209.6 118.1 206.4 118.1 203.1 118.1 199.9 118.1 196.7 118.1 193.4 118.1 190.2 118.1 187 118.1 183.8 118.1 180.5 118.1 177.3 118.1 174.1 118.1 170.8 118.1 167.6 118.1 164.4 118.1 161.1 118.1 157.9 118.1 154.7 118.1 151.5 118.1 148.2 118.1 145 118.1 141.8 118.1 138.5 118.1 135.3 118.1 132.1 118.1 128.9 118.1 125.6 118.1 122.4 118.1 119.2 118.1 115.9 118.1 112.7 118.1 109.5 118.1 106.2 118.1 103 118.1 99.8 118.1 96.6 118.1 93.3 118.1 90.1 118.1 86.9 118.1 83.6 118.1 80.4 118.1 80.4 125.6 83.6 125.6 86.9 125.6 90.1 125.6 93.3 125.6 96.6 125.6 99.8 125.6 103 125.6 106.2 125.6 109.5 125.6 112.7 125.6 115.9 125.6 119.2 125.6 122.4 125.6 125.6 125.6 128.9 125.6 132.1 125.6 135.3 125.6 138.5 125.6 141.8 125.6 145 125.6 148.2 125.6 151.5 125.6 154.7 125.6 157.9 125.6 161.1 125.6 164.4 125.6 167.6 125.6 170.8 125.6 174.1 125.6 177.3 125.6 180.5 125.6 183.8 125.6 187 125.6 190.2 125.6 193.4 125.6 196.7 125.6 199.9 125.6 203.1 125.6 206.4 125.6 209.6 125.6 212.8 125.6 216 125.6 219.3 125.6 219.3 118.1 216 118.1"/>
        <polygon class="cls-28" points="235.4 80.7 232.2 80.7 232.2 88.1 232.2 95.6 232.2 103.1 232.2 110.6 232.2 118.1 232.2 125.6 232.2 133.1 232.2 140.6 232.2 148.1 232.2 155.5 232.2 163 232.2 170.5 232.2 178 232.2 185.5 232.2 193 232.2 200.5 232.2 208 232.2 215.5 232.2 222.9 232.2 230.4 232.2 237.9 232.2 245.4 232.2 252.9 232.2 260.4 232.2 267.9 232.2 275.4 235.4 275.4 238.7 275.4 238.7 267.9 238.7 260.4 238.7 252.9 238.7 245.4 238.7 237.9 238.7 230.4 238.7 222.9 238.7 215.5 238.7 208 238.7 200.5 238.7 193 238.7 185.5 238.7 178 238.7 170.5 238.7 163 238.7 155.5 238.7 148.1 238.7 140.6 238.7 133.1 238.7 125.6 238.7 118.1 238.7 110.6 238.7 103.1 238.7 95.6 238.7 88.1 238.7 80.7 235.4 80.7"/>
        <polygon class="cls-10" points="183.8 275.4 180.5 275.4 180.5 267.9 177.3 267.9 174.1 267.9 170.8 267.9 170.8 260.4 167.6 260.4 164.4 260.4 161.1 260.4 161.1 252.9 157.9 252.9 154.7 252.9 151.5 252.9 148.2 252.9 145 252.9 141.8 252.9 138.5 252.9 135.3 252.9 132.1 252.9 128.9 252.9 125.6 252.9 122.4 252.9 119.2 252.9 115.9 252.9 112.7 252.9 109.5 252.9 106.2 252.9 103 252.9 99.8 252.9 96.6 252.9 93.3 252.9 90.1 252.9 86.9 252.9 83.6 252.9 80.4 252.9 80.4 245.4 83.6 245.4 86.9 245.4 90.1 245.4 93.3 245.4 96.6 245.4 99.8 245.4 103 245.4 106.2 245.4 109.5 245.4 112.7 245.4 115.9 245.4 119.2 245.4 122.4 245.4 125.6 245.4 128.9 245.4 132.1 245.4 135.3 245.4 138.5 245.4 141.8 245.4 141.8 237.9 138.5 237.9 135.3 237.9 135.3 230.4 132.1 230.4 128.9 230.4 125.6 230.4 122.4 230.4 119.2 230.4 115.9 230.4 112.7 230.4 109.5 230.4 106.2 230.4 103 230.4 99.8 230.4 96.6 230.4 93.3 230.4 90.1 230.4 86.9 230.4 83.6 230.4 80.4 230.4 80.4 222.9 83.6 222.9 86.9 222.9 90.1 222.9 93.3 222.9 96.6 222.9 99.8 222.9 103 222.9 106.2 222.9 109.5 222.9 112.7 222.9 115.9 222.9 119.2 222.9 122.4 222.9 122.4 215.5 119.2 215.5 115.9 215.5 115.9 208 112.7 208 109.5 208 109.5 200.5 106.2 200.5 103 200.5 99.8 200.5 96.6 200.5 93.3 200.5 90.1 200.5 86.9 200.5 83.6 200.5 80.4 200.5 80.4 193 83.6 193 86.9 193 90.1 193 93.3 193 96.6 193 99.8 193 103 193 103 185.5 99.8 185.5 99.8 178 96.6 178 93.3 178 90.1 178 86.9 178 83.6 178 80.4 178 80.4 170.5 83.6 170.5 86.9 170.5 90.1 170.5 93.3 170.5 93.3 163 90.1 163 90.1 155.5 86.9 155.5 86.9 148.1 83.6 148.1 80.4 148.1 80.4 140.6 83.6 140.6 86.9 140.6 86.9 133.1 83.6 133.1 83.6 125.6 80.4 125.6 80.4 118.1 83.6 118.1 83.6 110.6 83.6 103.1 83.6 95.6 86.9 95.6 86.9 88.1 86.9 80.7 83.6 80.7 80.4 80.7 77.2 80.7 74 80.7 70.7 80.7 67.5 80.7 64.3 80.7 64.3 88.1 64.3 95.6 64.3 103.1 64.3 110.6 64.3 118.1 64.3 125.6 64.3 133.1 64.3 140.6 64.3 148.1 64.3 155.5 64.3 163 64.3 170.5 64.3 178 64.3 185.5 64.3 193 64.3 200.5 64.3 208 64.3 215.5 64.3 222.9 64.3 230.4 64.3 237.9 64.3 245.4 64.3 252.9 64.3 260.4 64.3 267.9 64.3 275.4 64.3 282.9 67.5 282.9 70.7 282.9 74 282.9 77.2 282.9 80.4 282.9 83.6 282.9 86.9 282.9 90.1 282.9 93.3 282.9 96.6 282.9 99.8 282.9 103 282.9 106.2 282.9 109.5 282.9 112.7 282.9 115.9 282.9 119.2 282.9 122.4 282.9 125.6 282.9 128.9 282.9 132.1 282.9 135.3 282.9 138.5 282.9 141.8 282.9 145 282.9 148.2 282.9 151.5 282.9 154.7 282.9 157.9 282.9 161.1 282.9 164.4 282.9 167.6 282.9 170.8 282.9 174.1 282.9 177.3 282.9 180.5 282.9 183.8 282.9 187 282.9 187 275.4 183.8 275.4"/>
        <polygon class="cls-14" points="61 80.7 57.8 80.7 57.8 88.1 57.8 95.6 57.8 103.1 57.8 110.6 57.8 118.1 57.8 125.6 57.8 133.1 57.8 140.6 57.8 148.1 57.8 155.5 57.8 163 57.8 170.5 57.8 178 57.8 185.5 57.8 193 57.8 200.5 57.8 208 57.8 215.5 57.8 222.9 57.8 230.4 57.8 237.9 57.8 245.4 57.8 252.9 57.8 260.4 57.8 267.9 57.8 275.4 57.8 282.9 61 282.9 64.3 282.9 64.3 275.4 64.3 267.9 64.3 260.4 64.3 252.9 64.3 245.4 64.3 237.9 64.3 230.4 64.3 222.9 64.3 215.5 64.3 208 64.3 200.5 64.3 193 64.3 185.5 64.3 178 64.3 170.5 64.3 163 64.3 155.5 64.3 148.1 64.3 140.6 64.3 133.1 64.3 125.6 64.3 118.1 64.3 110.6 64.3 103.1 64.3 95.6 64.3 88.1 64.3 80.7 61 80.7"/>
        <polygon class="cls-28" points="245.1 73.2 241.9 73.2 238.7 73.2 235.4 73.2 232.2 73.2 229 73.2 225.7 73.2 222.5 73.2 219.3 73.2 216 73.2 212.8 73.2 209.6 73.2 206.4 73.2 203.1 73.2 199.9 73.2 196.7 73.2 193.4 73.2 190.2 73.2 187 73.2 183.8 73.2 180.5 73.2 177.3 73.2 174.1 73.2 170.8 73.2 167.6 73.2 164.4 73.2 161.1 73.2 157.9 73.2 154.7 73.2 151.5 73.2 148.2 73.2 145 73.2 141.8 73.2 138.5 73.2 135.3 73.2 132.1 73.2 128.9 73.2 125.6 73.2 122.4 73.2 119.2 73.2 115.9 73.2 112.7 73.2 109.5 73.2 106.2 73.2 103 73.2 99.8 73.2 96.6 73.2 93.3 73.2 90.1 73.2 86.9 73.2 83.6 73.2 80.4 73.2 77.2 73.2 74 73.2 70.7 73.2 67.5 73.2 64.3 73.2 61 73.2 57.8 73.2 54.6 73.2 51.3 73.2 48.1 73.2 44.9 73.2 41.7 73.2 38.4 73.2 38.4 80.7 41.7 80.7 44.9 80.7 48.1 80.7 51.3 80.7 54.6 80.7 57.8 80.7 61 80.7 64.3 80.7 67.5 80.7 70.7 80.7 74 80.7 77.2 80.7 80.4 80.7 83.6 80.7 86.9 80.7 90.1 80.7 93.3 80.7 96.6 80.7 99.8 80.7 103 80.7 106.2 80.7 109.5 80.7 112.7 80.7 115.9 80.7 119.2 80.7 122.4 80.7 125.6 80.7 128.9 80.7 132.1 80.7 135.3 80.7 138.5 80.7 141.8 80.7 145 80.7 148.2 80.7 151.5 80.7 154.7 80.7 157.9 80.7 161.1 80.7 164.4 80.7 167.6 80.7 170.8 80.7 174.1 80.7 177.3 80.7 180.5 80.7 183.8 80.7 187 80.7 190.2 80.7 193.4 80.7 196.7 80.7 199.9 80.7 203.1 80.7 206.4 80.7 209.6 80.7 212.8 80.7 216 80.7 219.3 80.7 222.5 80.7 225.7 80.7 229 80.7 232.2 80.7 235.4 80.7 238.7 80.7 241.9 80.7 245.1 80.7 248.3 80.7 248.3 73.2 245.1 73.2"/>
        <g>
          <polygon class="cls-28" points="235.4 320.3 235.4 327.7 245.5 327.7 245.5 327.8 254.8 327.8 254.8 320.3 235.4 320.3"/>
          <polygon class="cls-4" points="206.4 312.8 206.4 320.3 209.6 320.3 212.8 320.3 212.8 312.8 209.6 312.8 206.4 312.8"/>
          <polygon class="cls-28" points="177.3 320.3 174.1 320.3 170.8 320.3 167.6 320.3 164.4 320.3 161.1 320.3 157.9 320.3 154.7 320.3 151.5 320.3 148.2 320.3 145 320.3 141.8 320.3 138.5 320.3 135.3 320.3 132.1 320.3 128.9 320.3 125.6 320.3 122.4 320.3 119.2 320.3 115.9 320.3 112.7 320.3 109.5 320.3 106.2 320.3 103 320.3 99.8 320.3 96.6 320.3 93.3 320.3 90.1 320.3 86.9 320.3 83.6 320.3 80.4 320.3 77.2 320.3 74 320.3 70.7 320.3 67.5 320.3 64.3 320.3 61 320.3 57.8 320.3 54.6 320.3 51.3 320.3 48.1 320.3 44.9 320.3 41.7 320.3 41.7 312.8 41.7 305.3 41.7 297.8 41.7 290.4 38.4 290.4 38.4 297.8 35.2 297.8 35.2 305.3 35.2 312.8 38.4 312.8 38.4 320.3 38.4 327.8 41.7 327.8 41.7 327.8 44.9 327.8 48.1 327.8 51.3 327.8 54.6 327.8 57.8 327.8 61 327.8 64.3 327.8 67.5 327.8 70.7 327.8 74 327.8 77.2 327.8 80.4 327.8 83.6 327.8 86.9 327.8 90.1 327.8 93.3 327.8 96.6 327.8 99.8 327.8 103 327.8 106.2 327.8 109.5 327.8 112.7 327.8 115.9 327.8 119.2 327.8 122.4 327.8 125.6 327.8 128.9 327.8 132.1 327.8 135.3 327.8 138.5 327.8 141.8 327.8 145 327.8 148.2 327.8 151.5 327.8 154.7 327.8 157.9 327.8 161.1 327.8 164.4 327.8 167.6 327.8 170.8 327.8 174.1 327.8 177.3 327.8 180.5 327.8 180.5 320.3 177.3 320.3"/>
          <polygon class="cls-4" points="251.6 290.4 248.3 290.4 245.1 290.4 241.9 290.4 238.7 290.4 235.4 290.4 232.2 290.4 232.2 297.8 232.2 305.3 235.4 305.3 238.7 305.3 238.7 312.8 241.9 312.8 245.1 312.8 245.1 320.3 248.3 320.3 251.6 320.3 251.6 312.8 254.8 312.8 254.8 305.3 254.8 297.8 251.6 297.8 251.6 290.4"/>
          <polygon class="cls-4" points="180.5 290.4 177.3 290.4 174.1 290.4 170.8 290.4 167.6 290.4 164.4 290.4 161.1 290.4 157.9 290.4 154.7 290.4 151.5 290.4 148.2 290.4 145 290.4 141.8 290.4 138.5 290.4 135.3 290.4 132.1 290.4 128.9 290.4 125.6 290.4 122.4 290.4 119.2 290.4 115.9 290.4 112.7 290.4 109.5 290.4 106.2 290.4 103 290.4 99.8 290.4 96.6 290.4 93.3 290.4 90.1 290.4 86.9 290.4 83.6 290.4 80.4 290.4 77.2 290.4 74 290.4 70.7 290.4 67.5 290.4 64.3 290.4 61 290.4 57.8 290.4 54.6 290.4 51.3 290.4 48.1 290.4 44.9 290.4 44.9 282.9 41.7 282.9 41.7 290.4 41.7 297.8 41.7 305.3 41.7 312.8 41.7 320.3 44.9 320.3 48.1 320.3 51.3 320.3 54.6 320.3 57.8 320.3 61 320.3 64.3 320.3 67.5 320.3 70.7 320.3 74 320.3 77.2 320.3 80.4 320.3 83.6 320.3 86.9 320.3 90.1 320.3 93.3 320.3 96.6 320.3 99.8 320.3 103 320.3 106.2 320.3 109.5 320.3 112.7 320.3 115.9 320.3 119.2 320.3 122.4 320.3 125.6 320.3 128.9 320.3 132.1 320.3 135.3 320.3 138.5 320.3 141.8 320.3 145 320.3 148.2 320.3 151.5 320.3 154.7 320.3 157.9 320.3 161.1 320.3 164.4 320.3 167.6 320.3 170.8 320.3 174.1 320.3 174.1 312.8 177.3 312.8 180.5 312.8 180.5 305.3 183.8 305.3 187 305.3 187 297.8 187 290.4 183.8 290.4 180.5 290.4"/>
          <polygon class="cls-4" points="232.2 260.4 232.2 252.9 232.2 245.4 232.2 237.9 232.2 230.4 232.2 222.9 232.2 215.5 232.2 208 232.2 200.5 232.2 193 232.2 185.5 232.2 178 232.2 170.5 232.2 163 232.2 155.5 232.2 148.1 232.2 140.6 232.2 133.1 232.2 125.6 232.2 118.1 232.2 110.6 232.2 103.1 232.2 95.6 232.2 88.1 232.2 80.7 229 80.7 225.7 80.7 222.5 80.7 219.3 80.7 216 80.7 212.8 80.7 209.6 80.7 206.4 80.7 203.1 80.7 199.9 80.7 196.7 80.7 193.4 80.7 190.2 80.7 187 80.7 183.8 80.7 180.5 80.7 177.3 80.7 174.1 80.7 170.8 80.7 167.6 80.7 164.4 80.7 161.1 80.7 157.9 80.7 154.7 80.7 151.5 80.7 148.2 80.7 145 80.7 141.8 80.7 138.5 80.7 135.3 80.7 132.1 80.7 128.9 80.7 125.6 80.7 122.4 80.7 119.2 80.7 115.9 80.7 112.7 80.7 109.5 80.7 106.2 80.7 103 80.7 99.8 80.7 96.6 80.7 93.3 80.7 90.1 80.7 86.9 80.7 86.9 88.1 86.9 95.6 83.6 95.6 83.6 103.1 83.6 110.6 83.6 118.1 86.9 118.1 90.1 118.1 93.3 118.1 96.6 118.1 99.8 118.1 103 118.1 106.2 118.1 109.5 118.1 112.7 118.1 115.9 118.1 119.2 118.1 122.4 118.1 125.6 118.1 128.9 118.1 132.1 118.1 135.3 118.1 138.5 118.1 141.8 118.1 145 118.1 148.2 118.1 151.5 118.1 154.7 118.1 157.9 118.1 161.1 118.1 164.4 118.1 167.6 118.1 170.8 118.1 174.1 118.1 177.3 118.1 180.5 118.1 183.8 118.1 187 118.1 190.2 118.1 193.4 118.1 196.7 118.1 199.9 118.1 203.1 118.1 206.4 118.1 209.6 118.1 212.8 118.1 216 118.1 219.3 118.1 219.3 125.6 216 125.6 212.8 125.6 209.6 125.6 206.4 125.6 203.1 125.6 199.9 125.6 196.7 125.6 193.4 125.6 190.2 125.6 187 125.6 183.8 125.6 180.5 125.6 177.3 125.6 174.1 125.6 170.8 125.6 167.6 125.6 164.4 125.6 161.1 125.6 157.9 125.6 154.7 125.6 151.5 125.6 148.2 125.6 145 125.6 141.8 125.6 138.5 125.6 135.3 125.6 132.1 125.6 128.9 125.6 125.6 125.6 122.4 125.6 119.2 125.6 115.9 125.6 112.7 125.6 109.5 125.6 106.2 125.6 103 125.6 99.8 125.6 96.6 125.6 93.3 125.6 90.1 125.6 86.9 125.6 83.6 125.6 83.6 133.1 86.9 133.1 86.9 140.6 90.1 140.6 93.3 140.6 96.6 140.6 99.8 140.6 103 140.6 106.2 140.6 109.5 140.6 112.7 140.6 115.9 140.6 119.2 140.6 122.4 140.6 125.6 140.6 128.9 140.6 132.1 140.6 135.3 140.6 138.5 140.6 141.8 140.6 145 140.6 148.2 140.6 151.5 140.6 154.7 140.6 157.9 140.6 161.1 140.6 164.4 140.6 167.6 140.6 170.8 140.6 174.1 140.6 177.3 140.6 180.5 140.6 183.8 140.6 187 140.6 190.2 140.6 193.4 140.6 196.7 140.6 199.9 140.6 203.1 140.6 206.4 140.6 209.6 140.6 212.8 140.6 216 140.6 219.3 140.6 219.3 148.1 216 148.1 212.8 148.1 209.6 148.1 206.4 148.1 203.1 148.1 199.9 148.1 196.7 148.1 193.4 148.1 190.2 148.1 187 148.1 183.8 148.1 180.5 148.1 177.3 148.1 174.1 148.1 170.8 148.1 167.6 148.1 164.4 148.1 161.1 148.1 157.9 148.1 154.7 148.1 151.5 148.1 148.2 148.1 145 148.1 141.8 148.1 138.5 148.1 135.3 148.1 132.1 148.1 128.9 148.1 125.6 148.1 122.4 148.1 119.2 148.1 115.9 148.1 112.7 148.1 109.5 148.1 106.2 148.1 103 148.1 99.8 148.1 96.6 148.1 93.3 148.1 90.1 148.1 86.9 148.1 86.9 155.5 90.1 155.5 90.1 163 93.3 163 93.3 170.5 96.6 170.5 99.8 170.5 103 170.5 106.2 170.5 109.5 170.5 112.7 170.5 115.9 170.5 119.2 170.5 122.4 170.5 125.6 170.5 128.9 170.5 132.1 170.5 135.3 170.5 138.5 170.5 141.8 170.5 145 170.5 148.2 170.5 151.5 170.5 154.7 170.5 157.9 170.5 161.1 170.5 164.4 170.5 167.6 170.5 170.8 170.5 174.1 170.5 177.3 170.5 180.5 170.5 183.8 170.5 187 170.5 190.2 170.5 193.4 170.5 196.7 170.5 199.9 170.5 203.1 170.5 206.4 170.5 209.6 170.5 212.8 170.5 216 170.5 219.3 170.5 219.3 178 216 178 212.8 178 209.6 178 206.4 178 203.1 178 199.9 178 196.7 178 193.4 178 190.2 178 187 178 183.8 178 180.5 178 177.3 178 174.1 178 170.8 178 167.6 178 164.4 178 161.1 178 157.9 178 154.7 178 151.5 178 148.2 178 145 178 141.8 178 138.5 178 135.3 178 132.1 178 128.9 178 125.6 178 122.4 178 119.2 178 115.9 178 112.7 178 109.5 178 106.2 178 103 178 99.8 178 99.8 185.5 103 185.5 103 193 106.2 193 109.5 193 112.7 193 115.9 193 119.2 193 122.4 193 125.6 193 128.9 193 132.1 193 135.3 193 138.5 193 141.8 193 145 193 148.2 193 151.5 193 154.7 193 157.9 193 161.1 193 164.4 193 167.6 193 170.8 193 174.1 193 177.3 193 180.5 193 183.8 193 187 193 190.2 193 193.4 193 196.7 193 199.9 193 203.1 193 206.4 193 209.6 193 212.8 193 216 193 219.3 193 219.3 200.5 216 200.5 212.8 200.5 209.6 200.5 206.4 200.5 203.1 200.5 199.9 200.5 196.7 200.5 193.4 200.5 190.2 200.5 187 200.5 183.8 200.5 180.5 200.5 177.3 200.5 174.1 200.5 170.8 200.5 167.6 200.5 164.4 200.5 161.1 200.5 157.9 200.5 154.7 200.5 151.5 200.5 148.2 200.5 145 200.5 141.8 200.5 138.5 200.5 135.3 200.5 132.1 200.5 128.9 200.5 125.6 200.5 122.4 200.5 119.2 200.5 115.9 200.5 112.7 200.5 109.5 200.5 109.5 208 112.7 208 115.9 208 115.9 215.5 119.2 215.5 122.4 215.5 122.4 222.9 125.6 222.9 128.9 222.9 132.1 222.9 135.3 222.9 138.5 222.9 141.8 222.9 145 222.9 148.2 222.9 151.5 222.9 154.7 222.9 157.9 222.9 161.1 222.9 164.4 222.9 167.6 222.9 170.8 222.9 174.1 222.9 177.3 222.9 180.5 222.9 183.8 222.9 187 222.9 190.2 222.9 193.4 222.9 196.7 222.9 199.9 222.9 203.1 222.9 206.4 222.9 209.6 222.9 212.8 222.9 216 222.9 219.3 222.9 219.3 230.4 216 230.4 212.8 230.4 209.6 230.4 206.4 230.4 203.1 230.4 199.9 230.4 196.7 230.4 193.4 230.4 190.2 230.4 187 230.4 183.8 230.4 180.5 230.4 177.3 230.4 174.1 230.4 170.8 230.4 167.6 230.4 164.4 230.4 161.1 230.4 157.9 230.4 154.7 230.4 151.5 230.4 148.2 230.4 145 230.4 141.8 230.4 138.5 230.4 135.3 230.4 135.3 237.9 138.5 237.9 141.8 237.9 141.8 245.4 145 245.4 148.2 245.4 151.5 245.4 154.7 245.4 157.9 245.4 161.1 245.4 164.4 245.4 167.6 245.4 170.8 245.4 174.1 245.4 177.3 245.4 180.5 245.4 183.8 245.4 187 245.4 190.2 245.4 193.4 245.4 196.7 245.4 199.9 245.4 203.1 245.4 206.4 245.4 209.6 245.4 212.8 245.4 216 245.4 219.3 245.4 219.3 252.9 216 252.9 212.8 252.9 209.6 252.9 206.4 252.9 203.1 252.9 199.9 252.9 196.7 252.9 193.4 252.9 190.2 252.9 187 252.9 183.8 252.9 180.5 252.9 177.3 252.9 174.1 252.9 170.8 252.9 167.6 252.9 164.4 252.9 161.1 252.9 161.1 260.4 164.4 260.4 167.6 260.4 170.8 260.4 170.8 267.9 174.1 267.9 177.3 267.9 180.5 267.9 180.5 275.4 183.8 275.4 187 275.4 187 267.9 190.2 267.9 193.4 267.9 196.7 267.9 196.7 260.4 199.9 260.4 203.1 260.4 206.4 260.4 209.6 260.4 212.8 260.4 216 260.4 219.3 260.4 222.5 260.4 222.5 267.9 225.7 267.9 229 267.9 232.2 267.9 232.2 260.4"/>
          <polygon class="cls-4" points="38.4 58.2 38.4 65.7 38.4 73.2 41.7 73.2 44.9 73.2 48.1 73.2 51.3 73.2 54.6 73.2 57.8 73.2 61 73.2 64.3 73.2 67.5 73.2 70.7 73.2 74 73.2 77.2 73.2 80.4 73.2 83.6 73.2 86.9 73.2 90.1 73.2 93.3 73.2 96.6 73.2 99.8 73.2 103 73.2 106.2 73.2 109.5 73.2 112.7 73.2 115.9 73.2 119.2 73.2 122.4 73.2 125.6 73.2 128.9 73.2 132.1 73.2 135.3 73.2 138.5 73.2 141.8 73.2 145 73.2 148.2 73.2 151.5 73.2 154.7 73.2 157.9 73.2 161.1 73.2 164.4 73.2 167.6 73.2 170.8 73.2 174.1 73.2 177.3 73.2 180.5 73.2 183.8 73.2 187 73.2 190.2 73.2 193.4 73.2 196.7 73.2 199.9 73.2 203.1 73.2 206.4 73.2 209.6 73.2 212.8 73.2 216 73.2 219.3 73.2 222.5 73.2 225.7 73.2 229 73.2 232.2 73.2 235.4 73.2 238.7 73.2 241.9 73.2 245.1 73.2 248.3 73.2 248.3 65.7 248.3 58.2 248.3 50.7 248.3 43.2 245.1 43.2 241.9 43.2 238.7 43.2 235.4 43.2 232.2 43.2 229 43.2 225.7 43.2 222.5 43.2 219.3 43.2 216 43.2 212.8 43.2 209.6 43.2 206.4 43.2 203.1 43.2 199.9 43.2 196.7 43.2 193.4 43.2 190.2 43.2 187 43.2 183.8 43.2 180.5 43.2 177.3 43.2 174.1 43.2 170.8 43.2 167.6 43.2 164.4 43.2 161.1 43.2 157.9 43.2 154.7 43.2 151.5 43.2 148.2 43.2 145 43.2 141.8 43.2 138.5 43.2 135.3 43.2 132.1 43.2 128.9 43.2 125.6 43.2 122.4 43.2 119.2 43.2 115.9 43.2 112.7 43.2 109.5 43.2 106.2 43.2 103 43.2 99.8 43.2 96.6 43.2 93.3 43.2 90.1 43.2 86.9 43.2 83.6 43.2 80.4 43.2 77.2 43.2 74 43.2 70.7 43.2 67.5 43.2 64.3 43.2 61 43.2 57.8 43.2 54.6 43.2 51.3 43.2 48.1 43.2 44.9 43.2 41.7 43.2 38.4 43.2 38.4 50.7 38.4 58.2"/>
          <polygon class="cls-28" points="254.8 50.7 254.8 43.2 251.6 43.2 251.6 43.2 248.3 43.2 248.3 50.7 248.3 58.2 248.3 65.7 248.3 73.2 251.6 73.2 251.6 65.7 254.8 65.7 254.8 58.2 254.8 50.7 254.8 50.7"/>
          <g>
            <polygon class="cls-28" points="32 43.2 32 50.7 32 58.2 32 65.7 32 73.2 35.2 73.2 38.4 73.2 38.4 65.7 38.4 58.2 38.4 50.7 38.4 43.2 35.2 43.2 32 43.2"/>
            <polygon class="cls-28" points="245.1 35.7 241.9 35.7 238.7 35.7 235.4 35.7 232.2 35.7 229 35.7 225.7 35.7 222.5 35.7 219.3 35.7 216 35.7 212.8 35.7 209.6 35.7 206.4 35.7 203.1 35.7 199.9 35.7 196.7 35.7 193.4 35.7 190.2 35.7 187 35.7 183.8 35.7 180.5 35.7 177.3 35.7 174.1 35.7 170.8 35.7 167.6 35.7 164.4 35.7 161.1 35.7 157.9 35.7 154.7 35.7 151.5 35.7 148.2 35.7 145 35.7 141.8 35.7 138.5 35.7 135.3 35.7 132.1 35.7 128.9 35.7 125.6 35.7 122.4 35.7 119.2 35.7 115.9 35.7 112.7 35.7 109.5 35.7 106.2 35.7 103 35.7 99.8 35.7 96.6 35.7 93.3 35.7 90.1 35.7 86.9 35.7 83.6 35.7 80.4 35.7 77.2 35.7 74 35.7 70.7 35.7 67.5 35.7 64.3 35.7 61 35.7 57.8 35.7 54.6 35.7 51.3 35.7 48.1 35.7 44.9 35.7 41.7 35.7 38.4 35.7 35.2 35.7 35.2 43.2 38.4 43.2 41.7 43.2 44.9 43.2 48.1 43.2 51.3 43.2 54.6 43.2 57.8 43.2 61 43.2 64.3 43.2 67.5 43.2 70.7 43.2 74 43.2 77.2 43.2 80.4 43.2 83.6 43.2 86.9 43.2 90.1 43.2 93.3 43.2 96.6 43.2 99.8 43.2 103 43.2 106.2 43.2 109.5 43.2 112.7 43.2 115.9 43.2 119.2 43.2 122.4 43.2 125.6 43.2 128.9 43.2 132.1 43.2 135.3 43.2 138.5 43.2 141.8 43.2 145 43.2 148.2 43.2 151.5 43.2 154.7 43.2 157.9 43.2 161.1 43.2 164.4 43.2 167.6 43.2 170.8 43.2 174.1 43.2 177.3 43.2 180.5 43.2 183.8 43.2 187 43.2 190.2 43.2 193.4 43.2 196.7 43.2 199.9 43.2 203.1 43.2 206.4 43.2 209.6 43.2 212.8 43.2 216 43.2 219.3 43.2 222.5 43.2 225.7 43.2 229 43.2 232.2 43.2 235.4 43.2 238.7 43.2 241.9 43.2 245.1 43.2 248.3 43.2 248.3 35.7 245.1 35.7"/>
          </g>
        </g>
      </g>
    </g>
  </g>
</svg>