<?xml version="1.0" encoding="UTF-8"?>
<svg xmlns="http://www.w3.org/2000/svg" version="1.1" viewBox="0 0 1920 1080">
  <defs>
    <style>
      .cls-1 {
        fill: #78d0ed;
      }

      .cls-2 {
        fill: #4dc7eb;
      }

      .cls-3 {
        fill: #00beef;
      }
    </style>
  </defs>
  <!-- Generator: Adobe Illustrator 28.6.0, SVG Export Plug-In . SVG Version: 1.2.0 Build 709)  -->
  <g>
    <g id="Layer_1">
      <g>
        <rect class="cls-3" x="-.5" y=".3" width="1920.5" height="1078.9"/>
        <polygon class="cls-2" points="1920 830.8 1920 248.8 1906.2 248.8 1906.2 295.9 1880.3 295.9 1880.3 248.8 1838.5 248.8 1838.5 279.6 1770.9 279.6 1770.9 326.7 1711.3 326.7 1711.3 248.8 1663.5 248.8 1663.5 294.2 1597.9 294.2 1597.9 248.8 1552.2 248.8 1552.2 291 1496.4 291 1496.4 248.8 1430.8 248.8 1430.8 268.3 1339.2 268.3 1339.2 248.8 1283.7 248.8 1283.7 305.6 1229.9 305.6 1229.9 248.8 1188.1 248.8 1188.1 279.6 1110.6 279.6 1110.6 317 1037 317 1037 265.1 987.3 265.1 987.3 292.7 943.5 292.7 943.5 260.2 881.8 260.2 881.8 299.1 790.4 299.1 790.4 248.8 716.7 248.8 716.7 273.1 655.1 273.1 655.1 248.8 599.4 248.8 599.4 271.6 515.9 271.6 515.9 312.1 462.1 312.1 462.1 248.8 414.5 248.8 414.5 282.8 346.7 282.8 346.7 248.8 313 248.8 313 269.9 209.5 269.9 209.5 321.8 161.8 321.8 161.8 248.8 90.2 248.8 90.2 278 -.5 278 -.5 830.8 1920 830.8"/>
        <polygon class="cls-1" points="1920 1079.2 1920 497.2 1906.2 497.2 1906.2 544.3 1880.3 544.3 1880.3 497.2 1838.5 497.2 1838.5 528 1770.9 528 1770.9 575.1 1711.3 575.1 1711.3 497.2 1663.5 497.2 1663.5 542.6 1597.9 542.6 1597.9 497.2 1552.2 497.2 1552.2 539.4 1496.4 539.4 1496.4 497.2 1430.8 497.2 1430.8 516.8 1339.2 516.8 1339.2 497.2 1283.7 497.2 1283.7 554 1229.9 554 1229.9 497.2 1188.1 497.2 1188.1 528 1110.6 528 1110.6 565.4 1037 565.4 1037 513.5 987.3 513.5 987.3 541.1 943.5 541.1 943.5 508.6 881.8 508.6 881.8 547.6 790.4 547.6 790.4 497.2 716.7 497.2 716.7 521.5 655.1 521.5 655.1 497.2 599.4 497.2 599.4 520 515.9 520 515.9 560.5 462.1 560.5 462.1 497.2 414.5 497.2 414.5 531.4 346.7 531.4 346.7 497.2 313 497.2 313 518.3 209.5 518.3 209.5 570.2 161.8 570.2 161.8 497.2 90.2 497.2 90.2 526.5 -.5 526.5 -.5 1079.2 1920 1079.2"/>
      </g>
    </g>
  </g>
</svg>