<?xml version="1.0" encoding="UTF-8"?>
<svg id="Layer_1" data-name="Layer 1" xmlns="http://www.w3.org/2000/svg" version="1.1" viewBox="0 0 400 400">
  <defs>
    <style>
      .cls-1 {
        fill: #272c3d;
      }

      .cls-1, .cls-2, .cls-3, .cls-4, .cls-5, .cls-6, .cls-7, .cls-8, .cls-9, .cls-10, .cls-11, .cls-12, .cls-13, .cls-14, .cls-15, .cls-16, .cls-17, .cls-18, .cls-19, .cls-20, .cls-21, .cls-22, .cls-23, .cls-24, .cls-25, .cls-26, .cls-27, .cls-28, .cls-29, .cls-30, .cls-31, .cls-32, .cls-33, .cls-34, .cls-35, .cls-36, .cls-37, .cls-38, .cls-39, .cls-40, .cls-41, .cls-42, .cls-43, .cls-44, .cls-45, .cls-46, .cls-47, .cls-48, .cls-49, .cls-50, .cls-51, .cls-52, .cls-53, .cls-54, .cls-55, .cls-56, .cls-57, .cls-58, .cls-59, .cls-60, .cls-61, .cls-62, .cls-63, .cls-64, .cls-65, .cls-66, .cls-67, .cls-68, .cls-69, .cls-70, .cls-71, .cls-72, .cls-73, .cls-74, .cls-75, .cls-76, .cls-77, .cls-78, .cls-79, .cls-80, .cls-81, .cls-82, .cls-83, .cls-84, .cls-85, .cls-86, .cls-87, .cls-88, .cls-89, .cls-90, .cls-91, .cls-92, .cls-93, .cls-94, .cls-95, .cls-96, .cls-97, .cls-98, .cls-99, .cls-100, .cls-101, .cls-102, .cls-103, .cls-104, .cls-105, .cls-106, .cls-107, .cls-108, .cls-109, .cls-110, .cls-111, .cls-112, .cls-113, .cls-114, .cls-115, .cls-116, .cls-117, .cls-118, .cls-119, .cls-120 {
        stroke-width: 0px;
      }

      .cls-2 {
        fill: #030405;
      }

      .cls-3 {
        fill: #030505;
      }

      .cls-4 {
        fill: #0a0a0b;
      }

      .cls-5 {
        fill: #5d718f;
      }

      .cls-6 {
        fill: #181818;
      }

      .cls-7 {
        fill: #040404;
      }

      .cls-8 {
        fill: #292d3c;
      }

      .cls-9 {
        fill: #090a09;
      }

      .cls-10 {
        fill: #485062;
      }

      .cls-11 {
        fill: #050503;
      }

      .cls-12 {
        fill: #5e708d;
      }

      .cls-13 {
        fill: #5e6f8f;
      }

      .cls-14 {
        fill: #08090a;
      }

      .cls-15 {
        fill: #5c708b;
      }

      .cls-16 {
        fill: #0f0e0d;
      }

      .cls-17 {
        fill: #070606;
      }

      .cls-18 {
        fill: #5d708e;
      }

      .cls-19 {
        fill: #050402;
      }

      .cls-20 {
        fill: #2a2e40;
      }

      .cls-21 {
        fill: #4a5263;
      }

      .cls-22 {
        fill: #495163;
      }

      .cls-23 {
        fill: #060506;
      }

      .cls-24 {
        fill: #060707;
      }

      .cls-25 {
        fill: #495161;
      }

      .cls-26 {
        fill: #040505;
      }

      .cls-27 {
        fill: #2a2e3f;
      }

      .cls-28 {
        fill: #2a2d3e;
      }

      .cls-29 {
        fill: #4a5162;
      }

      .cls-30 {
        fill: #292d3d;
      }

      .cls-31 {
        fill: #282b3b;
      }

      .cls-32 {
        fill: #485163;
      }

      .cls-33 {
        fill: #5e728e;
      }

      .cls-34 {
        fill: #0f110f;
      }

      .cls-35 {
        fill: #070605;
      }

      .cls-36 {
        fill: #050403;
      }

      .cls-37 {
        fill: #2b2c3b;
      }

      .cls-38 {
        fill: #090a0b;
      }

      .cls-39 {
        fill: #60708f;
      }

      .cls-40 {
        fill: #050602;
      }

      .cls-41 {
        fill: #080909;
      }

      .cls-42 {
        fill: #070503;
      }

      .cls-43 {
        fill: #060405;
      }

      .cls-44 {
        fill: #475060;
      }

      .cls-45 {
        fill: #050505;
      }

      .cls-46 {
        fill: #050607;
      }

      .cls-47 {
        fill: #5c708c;
      }

      .cls-48 {
        fill: #5f708f;
      }

      .cls-49 {
        fill: #495262;
      }

      .cls-50 {
        fill: #292c3c;
      }

      .cls-51 {
        fill: #475062;
      }

      .cls-52 {
        fill: #060403;
      }

      .cls-53 {
        fill: #060608;
      }

      .cls-54 {
        fill: #4a5364;
      }

      .cls-55 {
        fill: #2e3341;
      }

      .cls-56 {
        fill: #050405;
      }

      .cls-57 {
        fill: #607391;
      }

      .cls-58 {
        fill: #5c708a;
      }

      .cls-59 {
        fill: #0a0909;
      }

      .cls-60 {
        fill: #191918;
      }

      .cls-61 {
        fill: #485060;
      }

      .cls-62 {
        fill: #060503;
      }

      .cls-63 {
        fill: #282b3c;
      }

      .cls-64 {
        fill: #040503;
      }

      .cls-65 {
        fill: #070706;
      }

      .cls-66 {
        fill: #292b3c;
      }

      .cls-67 {
        fill: #5d6f8d;
      }

      .cls-68 {
        fill: #5e708c;
      }

      .cls-69 {
        fill: #495162;
      }

      .cls-70 {
        fill: #5d708d;
      }

      .cls-71 {
        fill: #5e718e;
      }

      .cls-72 {
        fill: #0d0f0c;
      }

      .cls-73 {
        fill: #0d0c0c;
      }

      .cls-74 {
        fill: #060606;
      }

      .cls-75 {
        fill: #292d3e;
      }

      .cls-76 {
        fill: #495164;
      }

      .cls-77 {
        fill: #060605;
      }

      .cls-78 {
        fill: #040507;
      }

      .cls-79 {
        fill: #292c3e;
      }

      .cls-80 {
        fill: #050504;
      }

      .cls-81 {
        fill: #2c2f3f;
      }

      .cls-82 {
        fill: #060607;
      }

      .cls-83 {
        fill: #030403;
      }

      .cls-84 {
        fill: #090808;
      }

      .cls-85 {
        fill: #060505;
      }

      .cls-86 {
        fill: #5e708e;
      }

      .cls-87 {
        fill: #282c3d;
      }

      .cls-88 {
        fill: #292c3f;
      }

      .cls-89 {
        fill: #282c3c;
      }

      .cls-90 {
        fill: #2c2b3c;
      }

      .cls-91 {
        fill: #4c5566;
      }

      .cls-92 {
        fill: #475262;
      }

      .cls-93 {
        fill: #282d3e;
      }

      .cls-94 {
        fill: #060504;
      }

      .cls-95 {
        fill: #4b5265;
      }

      .cls-96 {
        fill: #5c6f8c;
      }

      .cls-97 {
        fill: #040607;
      }

      .cls-98 {
        fill: #485161;
      }

      .cls-99 {
        fill: #040506;
      }

      .cls-100 {
        fill: #495364;
      }

      .cls-101 {
        fill: #040405;
      }

      .cls-102 {
        fill: #060303;
      }

      .cls-103 {
        fill: #040403;
      }

      .cls-104 {
        fill: #484e5b;
      }

      .cls-105 {
        fill: #020303;
      }

      .cls-106 {
        fill: #495263;
      }

      .cls-107 {
        fill: #030406;
      }

      .cls-108 {
        fill: #292c3d;
      }

      .cls-109 {
        fill: #181717;
      }

      .cls-110 {
        fill: #2c2e3d;
      }

      .cls-111 {
        fill: #5e718d;
      }

      .cls-112 {
        fill: #262b39;
      }

      .cls-113 {
        fill: #050404;
      }

      .cls-114 {
        fill: #5e7290;
      }

      .cls-115 {
        fill: #0f1112;
      }

      .cls-116 {
        fill: #080b09;
      }

      .cls-117 {
        fill: #5d6f8b;
      }

      .cls-118 {
        fill: #080706;
      }

      .cls-119 {
        fill: #5e7190;
      }

      .cls-120 {
        fill: #2a2c3d;
      }
    </style>
  </defs>
  <path class="cls-69" d="M59.2,234.9c-1.5,1.6-3.5.7-5.2.8-3.4.1-6.9,0-10.3,0-1.6,1.9-4.3.9-5.9,2.5-.4.7-.9,1.5-1,2.3-.4,2.9-2.3,3.6-4.9,3.5-2.3,0-4.6-.2-6.8,0-6.3.6-7.1-3.5-5.5-7.9.6-1,1.6-1.6,2.6-1.6,3,0,4.2-1.5,4.1-4.4,0-.7.2-1.4.6-2,.2-.3.5-.6.8-.8.3-.2.6-.5,1-.4,3.8,0,6.1-1.3,5.9-5.5,0-.6.6-1,1-1.5,0-.7,0-1.4,0-2.1q0-5.5,5.5-5.8c1,0,2.2.4,2.4-1.3.2-2.1-1-4.9.7-6.1,2-1.3,4.8-.3,7.3-.4.9-1.1,2.2-1.3,3.5-1.4,1.5,0,2.9-.2,2.9-2.3,0-2.1-1.6-2-3-2.2-1.2-.1-2.4-.3-3.2-1.3,2.4-1.7,5.1-.3,7.7-.8,1.5-1.8,4-1,5.7-2.1.1-.2.4-.4.4-.6.7-5.8,4.8-6.3,9.4-6.1,7.2.6,7.3.5,6.7-6.7,0-.8.1-1.6.2-2.5.3-4.9.3-4.9,4.8-6.3.7-.2,1.3-.6,1.8-1.1,1.1-1.7.3-4.2,2.1-5.6,0-8,0-8,8.1-8,4.8,0,9.5.1,14.3.2-.6,2.2-2.4,2-4,2-3.4.1-6.9,0-10.3,0q-5.4,0-6.1,5.3c0,1.5.2,3.1.3,4.6,0,1.2.4,2.1,1.8,2.2,1.4,0,2.2-.6,2.4-2,.2-1.9,0-3.9,1.9-5.1,5.2-.7,10.5-1.9,15.5.8h0c.8.7,1.2,1.7,1.3,2.8.2,1.5-.3,3.7,2.3,3.6,2.6,0,1.9-2.3,2.2-3.8.2-1,.5-1.8,1.3-2.5,1.7,2.4.5,5.1.8,7.6.1.2.4.4.4.6.8,3.8,2.3,6.6,6.9,6.9,1.6,0,2,2.2,2,3.8,0,2.2.9,3.3,3.2,3.3,3,0,4.6,1.6,4.8,4.6,0,1.3.6,2.4,2.1,2.5,3.8.2,5.2,2.4,5.2,5.9,0,.7.2,1.4.7,2,1.6,1.8,4.3.7,6,2.1.4,4.9,3.8,6.4,7.9,7.2.3.3.5.7.7,1.1.7,2.4.8,4.8-.4,7.1-.3.4-.6.8-1.1.9-5,.4-10,2.5-15,0-.4-.2-.6-.4-.9-.7-.2-.4-.2.2-.2-.3,0-4.8-2.6-6.9-7.2-7.1-.3-.2-.6-.5-.8-.8-.4-.7-.7-1.6-.7-2.4.1-2.6-.9-4-3.7-4.1-2.3-.1-3.4-1.7-3.5-3.9,0-2.6-1.1-3.9-3.9-4-2.3,0-3.9-1.4-4-3.8-.2-2.4-1.1-3.4-3.6-3.4-3.1,0-4.5-2.1-5-4.7-.5-2.5-1.8-3.3-4.3-3.2-3.8.2-7.7,0-11.5,0-4.5,0-4.6.1-5.1,4.5,0,.5-.2.9-.4,1.4-.4.3.2.1-.2.3-4.2,1.2-6.7,4-7.8,8.1-.5.2.2.2-.3.2-4.7,0-6.6,2.6-6.7,7-.2.3-.4.6-.7.8-4.8,0-7.2,2.6-7.4,7.4-.3.3-.6.6-.9.8-2.5.9-4.9,1.2-7.2-.5-.4-.4-1.1-.8-1.1-1.3,0-4.7-3.3-5-6.7-5-1.3,0-2.6.2-3.9.3-1,0-1.9.2-2.1,1.4-.2.9-.3,2,.7,2.5,1,.6,2.1.5,3-.1.8-.5,1.1-1.6,2.1-1.9,2.1,2.7,6.1,1.7,8.2,4.3,1.6,2.6,1.4,5.2,0,7.7-2.5,1.9-5.3,1.1-8.1,1-2.5,0-5.2.9-7.5-.7-1.1-.8-1.8-1.9-1.9-3.3-.1-1.7-.4-3.2-2.7-2.9-1.2.1-1.7.8-1.7,1.9-.1,2.3,1.6,2.3,3.1,2.5,1.3.2,2.2.8,3,1.8,1.7,2.3.9,4.8.8,7.2.5,5.9.5,5.8,6.4,6,2.7,0,5.8-.9,8.1,1.4Z"/>
  <path class="cls-106" d="M326.2,266.7c-1.5-3.3-.5-6.7-.6-10-.2-5,0-5-5.1-5.2-.8,0-1.7.3-2.2-.6.4-.4.9-.8,1.4-1.1,1.4-.7,3.8.1,4.1-2.2.4-3.1.6-6.2-.2-9.3-.3-1-1.5-1.1-2.5-1.2-3.1-.4-4.3-2.3-4.3-5.2,0-2.4,0-4.8,0-7.2,0-2.2-.8-3.4-3.1-3.4-1.5,0-2.9-.3-3.9-1.5-.9-5.2-.8-10.3,0-15.5,4.5-3.4,9.1-2,9.9,3.3.6,3.7,3.6,2.4,5.4,3.5.4.2.7.5.9.8,1.2,3.2.6,6.6.8,9.9.2,3.3,1.2,4.9,4.6,4.7.6,0,1.2.3,1.7.5.4.2.7.5.9.8,1,1.7.9,3.5.9,5.4,0,.6-.3,1.2-.3,1.8-.3,6.7,0,7.1,6.6,7.2.2,0,.4.1.5.2.2.1.3.2.5.3.2.3.4.7.5,1.1.1,2.3.2,4.5,0,6.8-.4,1.7.1,3.3.2,5,0,1.1.7,1.7,1.9,1.7,1.2,0,2.1-.2,2.4-1.6.2-1.3.1-2.6.9-3.8.2-.3.5-.5.9-.6.4,0,.7.2.9.5.8,1,.8,2.2,1,3.4.1,1.3.7,2,2.1,2,1.5,0,2.1-.9,2.2-2.3,0-2.2,0-4.3,0-6.5,0-1.7-.1-3.4,1.2-4.8.4-.2.7-.2,1,0,0,4,.2,7.9,0,11.9-.1,2.5.5,3.4,3.1,3.3,4.8-.1,4.8,0,4.8,4.8,0,1.4,0,2.9,0,4.3,0,2-.5,4.5.4,6,1,1.6,3.6.5,5.4.6,1.9,0,2.1,1.1,2.1,2.6,0,4.4,0,8.9,0,13.3,2,2.6,2.1,5.2.2,7.9-2,.4-2-1.3-2.3-2.4-.3-1.6-.2-3.3,0-5-.3-3.7-.1-7.4-.2-11.1,0-1.3-.1-2.8-2-2.8-2.1-.1-2.2,1.4-2.3,2.9-.2,3.6.3,7.1-.4,10.7.6,6.5.3,13,.3,19.6,0,1-.2,1.9-.6,2.7-.2.4-.5.7-.9.9-.4,0-.8,0-1.1-.4-1.4-2.1-.9-4.6-.9-6.9,0-5.9,0-5.9-5.4-7.1-.4-.2-.7-.4-1-.7-1.9-2.9-1.3-5.5.6-8.1.3-.2.5-.7.8-.7,5-.4,5.4-3.8,5.2-7.7-.4-2.5-.3-4.9,0-7.3-.4-3.6-.1-7.2-.3-10.8,0-1.3,0-2.8-1.9-2.9-2.1-.1-2.2,1.4-2.3,2.9-.1,3.6.2,7.2-.2,10.8.4,2.6.3,5.2,0,7.8,0,2.7,1,5.6-1.3,7.9-2.6,2.1-5.3,1.9-8.1.3-2-2.5-1.2-5.4-1.1-8.2,0-2.6-.9-5.3.9-7.7.5-.5.9-1.3,1.6-1.3,4.7,0,4.8-3.4,4.8-6.8,0-1.4-.2-2.8-.3-4.3,0-1.2-.8-1.7-1.9-1.7-1.2,0-2.2.3-2.3,1.7,0,1.5-.4,3.1-.3,4.6.2,2.5.8,5.2-1.3,7.3-3.4,2.2-5.5,2-8.5-.8-.7-1.1-.8-2.4-1-3.7-.2-1.3-.9-1.9-2.2-1.8-1.3,0-1.9.9-2,2.1-.2,2.5,0,5,0,7.5,0,1.7,0,3.4-1.4,4.6-1.6-1.4-.6-3.3-.8-4.9-.5-3.6.9-7.3-.8-10.8-1.2-3.2-.4-6.6-.7-9.9-.1-1.6.4-3.7-2.2-3.7-2.5,0-1.9,2.2-2.1,3.8-.4,3.2,1.1,6.7-1.5,9.6Z"/>
  <path class="cls-49" d="M247.6,400c-1.3-2.5-.1-5.2-.8-7.7-2.1-2.3-1.4-5-1.3-7.6,0-1-.3-1.9-.2-2.9.2-2.5-.5-4.2-3.5-4.2-1.2,0-2.3-.5-3.1-1.7-.9-1.5-.7-3.3-.7-4.9,0-27.7,0-55.5,0-83.2,0-1.9-.2-3.9,1.1-5.5,6-3.2,9.8-1.1,9.8,5.7,0,3.3.2,6.7-.2,10,.1,2.7.3,5.5,0,8.2.2,2.4.4,4.8,0,7.2.2,2.6.4,5.2,0,7.7,0,.4,0,.9,0,1.3.6,2.4,0,4.7,0,7.1.5,2.6.4,5.2,0,7.8.3,2.6.3,5.2,0,7.8.2,2.5.4,5,0,7.4,0,1.6.2,3.1.2,4.7,0,1.4.6,2.3,2.1,2.3,1.6,0,2.1-.9,2.1-2.3,0-1.6.3-3.1.2-4.7-.4-2.5-.3-5,0-7.4-.3-2.6-.3-5.2,0-7.8-.3-2.6-.4-5.2,0-7.7-.4-1.9,0-3.8,0-5.6-.1-.6,0-1.2,0-1.9,0-.4,0-.8,0-1.2-.4-2.5-.3-5,0-7.6-.4-2.4-.3-4.8,0-7.1-.3-2.7-.3-5.3,0-8-.3-7.8-.4-15.5,0-23.3,0-2.5-.6-5,.5-7.4.2-.4.5-.8,1-1,.5,0,.9.1,1.2.5,1.3,2,.8,4.2.8,6.3,0,31.6,0,63.2,0,94.8,0,1.4,0,2.9.2,4.3.2,1,.7,1.8,1.9,1.8,1.2,0,1.7-.8,1.9-1.8.3-1.4.2-2.9.2-4.3,0-26.1,0-52.2,0-78.2,0-1.6-.1-3.1.1-4.7.2-1.2.3-2.8,2.1-2.7,0,13.2-.2,26.4-.3,39.6,0,16.5.1,32.9,0,49.4,0,3.5.6,5.5,4.6,4.8.9-.2,2.2-.6,2.9.7-.4.4-.9,1-1.4,1-4.5.1-4.4,3.2-4.4,6.5,0,2.6.8,5.5-1.4,7.8-.7,2.5.6,5.2-.8,7.7-2.2-2.2-1.3-5-1.2-7.6-.4-3.5-.2-7-.2-10.4,0-2.4-.9-3.6-3.4-3.5-.6,0-1.2,0-1.8-.1q-7-.8-7,6.4c0,2.5,0,5-.2,7.6,0,2.6,1,5.3-1.2,7.6Z"/>
  <path class="cls-42" d="M263.5,282.7c-1.6,1-.8,2.6-.8,3.9,0,28.6,0,57.2,0,85.8,0,3.6-3.1,5.5-6.3,3.9-1.4-.7-1-2.1-1-3.2,0-15.1.1-30.3.1-45.4,0-20.3,0-40.6,0-60.9,1.7-2.1,4.2-1.5,6.4-1.5,9.9-.1,10,0,9.9,9.8,0,2.5.9,5.3-1,7.6-2.4,0-4.8,0-7.2,0Z"/>
  <path class="cls-94" d="M239.7,282.6c0,31.3,0,62.5,0,93.8,2,2.2,1.7,4.7.8,7.3-.2.4-.6.7-1,.8q-7.8,0-7.8-7.8c0-34,0-67.9,0-101.9.1-.2.3-.4.4-.6,2.4-1.5,4.9-1.2,7.4,0,2.3,3,2.3,5.3.3,8.5Z"/>
  <path class="cls-54" d="M82.4,290.5c0-6.8.2-13.6,0-20.4,0-2.6.7-3.9,3.4-3.4,3.9.7,4.7-1.1,4.6-4.7-.1-3.5-.9-7.1.5-10.5,1.6,1.3,1.5,3.2,1.5,5,0,2.3-.1,4.5.1,6.8.2,1.3,1,1.8,2.2,1.8,1.2,0,1.7-.7,1.8-1.8.2-2.7.2-5.5,0-8.2,0-1.3-1-1.8-2.2-1.9-1.3-.1-2.6-.4-3.5-1.6.3-.2.6-.5.9-.5,6.3-.7,6.2-.7,6.3-7.2,0-2.8-.8-5.6.7-8.3.2,0,.3.2.5.3,1.5,2.2.9,4.6,1,7,0,1.3,0,2.6,0,4,0,1.3.4,2.4,2,2.5,1.5,0,2.2-.7,2.3-2.1.1-1.2.2-2.4,1.1-3.4.3-.2.6-.3,1-.2,1.3.8,1.3,2.2,1.5,3.4.2,1.4,0,3,2.2,3,2,0,2.1-1.4,2.3-2.9.1-1.4.2-2.9,1.4-3.9,2.6-1.3,5.2-1.3,7.9-.5.3.3.6.6.8,1,.9,2.3.8,4.6,0,6.9-.7,1.4-2,2.2-3.4,2.1-3.4-.1-4.3,1.7-4.1,4.6,0,.7-.2,1.4,0,2.1.2,2.6.7,5.1-.9,7.5-2.5,1.8-5.3,1.6-8.1.7-1.5-1.1-1.7-2.8-1.7-4.5,0-2.5,0-5,0-7.6,0-1.3-.5-2.3-2.1-2.4-1.6,0-2.1.9-2.1,2.3,0,1.7,0,3.4,0,5-.1,2.9-.3,5.7,4,5.6,1,0,1.5,1.1,2.2,1.7,1.7,2.1.9,4.5.9,6.9.1,2.6.7,5.3-.7,7.8-.4.5-.8,1-1.4,1-2.9.3-5.2,1.2-5.7,4.6,0,.7-.9,1.5-1.9.7-2-4.4-.8-8.9-.9-13.4.2-1.5-.2-3.1-.2-4.6,0-1.3-.8-1.9-2.1-1.9-1.3,0-2.1.6-2.1,1.9,0,1.4-.3,2.8-.3,4.3.5,3.2.2,6.5.2,9.7,0,2.5.4,4.3,3.4,4.3,1.1,0,2.1.5,2.9,1.3,1.3,1.8,1.1,3.9.9,5.8-.3,2.8-.3,5.6-.4,8.5,0,.7-.3,1.3-.7,1.9-.5.5-1.2,1-1.9,1-4-.1-5.1,2.1-5.1,5.6,0,1.4-.2,2.9-.2,4.3,0,4.6-2,6.2-6.6,5.3-.6-.1-1.1-.4-1.6-.7-.3-.4-.2.2-.2-.2-.6-4.9-3.6-7.3-8.2-8.2-2.1-5.1-1.2-7.2,3.9-8.6.7-.2,1.3-.5,1.9-.9,2-1.4.5-4.5,2.6-5.8.3-.2.5-.6.8-.7,5.1-.3,5.2-3.9,5.1-7.6-.5-5.3-.1-10.5-.2-15.8,0-1.1,0-2.2-.1-3.2-.2-1.2-.7-2-2.1-2-1.4,0-1.9.9-2,2.1-.2,2.7,0,5.5-.1,8.2,0,3.7.2,7.4-.2,11.1,0,2.7,1,5.5-1.3,7.8-2.7-2-3-4.5-.7-8Z"/>
  <path class="cls-108" d="M161,141.1c0-2.4.2-4.7.3-7.1.4-.2.7-.2,1,.1.2.2.4.4.4.6,0,4.3,2.5,5.6,6.4,5.3,4.4.4,7.1-1.1,7.3-5.9.2-.3.5-.6.8-.8,4.3-.3,7.2-2,7.1-6.9,0-.3.4-.6.6-.8,4.3-1.8,5.4-2.9,7.9-7.8v.2c2.6-1.8,5.3-1.8,8.2-.3,1.1,1.1,1.4,2.5,1.4,3.9,0,1.9,0,3.8,0,5.7,0,4.8.4,5.1,5.1,5.2,1.7,0,3.4,0,5,0,3.5.2,5,1.8,5,5.2,0,3.3-1.3,4.5-5,4.5-6.6,0-13.2,0-19.7,0-2,0-3.8.2-5.4,1.4-.1.2-.3.4-.4.6-2.1,6.5-2.4,6.8-9.2,6.1-2.1.2-4.5-.5-6.3.8-1.7,1.2-.4,3.9-1.6,5.7-.2.4-.5.6-.8.9-2.4,1.1-4.9,1.1-7.4.1-.4-.2-.7-.4-.9-.7-.4-.6-.7-1.3-.7-2,0-2.5-.9-4-3.6-4.2-.9,0-1.9-.6-1.8-1.8,0,0,.1-.3.2-.3,3.8-.7,5.5-3.1,5.7-6.8.2-.3.4-.6.7-.9Z"/>
  <path class="cls-36" d="M310.5,219.7q7.7.5,7.7,8.3c0,1,.1,1.9,0,2.9-.5,3.6.7,5.4,4.6,4.8,2.1-.3,3.1.6,3,2.8-.1,3-.2,6,0,9,.2,2.7-.8,3.7-3.5,3.4-1.3-.1-2.6,0-3.9,0,0-.3-.2-.7-.3-1-.2-2,.8-4.5-.5-5.9-1.2-1.3-3.6-.4-5.5-.5-1.8,0-1.8-1.1-1.8-2.4,0-3.6,0-7.2,0-10.8,0-1.9-.4-2.7-2.5-2.7-5.4,0-5.4-.2-5.4,5.2,0,3.4,0,6.7,0,10.1-.2.7-.6,1.2-1.2,1.5-2.5,1-4.9,1.1-7.1-.7-1.7-2.5-.9-5.3-.9-8.1-.3-5.2-.4-10.4,0-15.6-.1-1.8-.3-3.5-.1-5.3.2-2.4,1.5-4.1,3.9-4.2,2.8-.1,4.1-1.3,4-4.1,0-1.1.5-2.1,1.3-2.9,2.4-1.5,4.9-1.6,7.3.1.9,4,.2,8.1.4,12.2,0,1.3-.5,2.6.4,3.8Z"/>
  <path class="cls-21" d="M255.6,157c3.7,0,7.4-.2,11.1,0,3,.2,4.4-.4,4-3.8-.3-2.8,0-5.8-.1-8.6-.2-2.7.7-3.8,3.4-3.4,1.5.2,3.1,0,4.7,0,1-1.2,2.4-1.5,3.9-1.5,2.8,0,5.7,0,8.5,0,1.9,0,3.6.4,4.3,2.4,1.3,2.7-.1,5.6.5,8.3,0,2.3.4,4.6-.9,6.7-.8.9-1.8,1.4-2.8,1.3-3.8-.2-4.1,2-4.2,5,0,3.2.8,6.5-1,9.5-.4.5-.9,1-1.4,1-5.5-.2-6,3.3-5.7,7.4.2,2.6.8,5.3-.9,7.7-5.2,2.7-8.4,1.4-9.8-4.1-.4-1.5-1.1-2.2-2.5-2.5-5.6-1.4-7-5.2-3.8-10,.5-.3,1-.6,1.6-.7q4.7-1,4.7-6t-6.5-6.5c-1.4,0-2.9.1-4.3-.1-1.2-.2-2.8-.2-2.8-2.1Z"/>
  <path class="cls-36" d="M145.9,203.9c-1-1.5-.6-3.3-.5-4.9,0-2.2-.8-3.2-2.9-2.9-3.4.5-5.3-.5-4.7-4.4.5-3-1.4-3.4-3.7-3.1-3.3.5-4.6-.8-4.2-4.1.3-2.2,0-4.2-3.1-3.7-3.8.6-5.3-1-4.7-4.8.2-1,0-2.1,0-3.2q7.5.6,7.9-7c1.2-.8,2.5.2,3.8-.2,2.8-.8,4.7,0,4.9,3.3,0,2,1.3,2.6,3.1,2.6,2.4,0,4.8,0,7.2,0,1.7,0,3.4.1,4.6,1.5,1.5,2.3.9,4.9,1,7.4-1.2,5.5.3,10.9,0,16.4,0,1.2,0,2.4,0,3.6,0,2.8-1.1,4.3-4.1,3.9-1.5-.2-3.1.4-4.6-.4Z"/>
  <path class="cls-43" d="M255.6,157c3.9,1.2,7.8.4,11.8.5,2.7,0,3.7.8,3.5,3.5-.2,2.5-.3,5.1,0,7.6.4,3.6-1,4.8-4.4,4.3-.9-.1-1.9,0-2.9,0-1.5-.4-2.1-1.7-2.1-3,0-3-1.9-3.3-4.3-3.4-3.2-.1-6.5.7-9.5-.9-.8-.6-1.3-1.5-1.2-2.4.3-3.7-1.6-5-5.1-4.9-.5,0-.9-.2-1.3-.4-.3-.2-.6-.4-.9-.7,0-5-3-7.1-7.6-7.6-.3-.3-.6-.6-.7-1.1-1.1-4-.5-8.1-.4-12.1,0-1.7,1.1-2.9,3.1-2.7,1,0,1.9.1,2.9,0,2.4-.3,3.2.6,3,3-.1,1.5-.4,3.1.3,4.6.5,0,.9.2,1.4.3,2,.2,4.4-.8,5.9.6,1.3,1.3.4,3.6.5,5.5,0,1.4.5,1.9,1.9,1.8.8,0,1.7.1,2.5,0,2.9-.5,3.8.8,3.5,3.6-.1,1.4-.3,2.9.3,4.2Z"/>
  <path class="cls-19" d="M184.1,266.7c-.4,0-.7.2-1.1.2-5.8.2-5.8.2-6.1,5.8,0,1.5-.4,2.3-2,2.1-1.1-.1-2.2.1-3.2,0-2.3-.3-2.9.7-2.8,2.8.2,3.1-.2,6.2.1,9.3.3,3-.8,4.1-3.7,3.6-.9-.2-1.9,0-2.9,0-1.6-.3-2.8-1.2-2.8-2.8,0-9.2-.8-18.5.3-27.7.7-1.4,1.9-2.3,3.3-2.3,3.2,0,4.4-1.7,4.4-4.6,0-.6.4-1.1.8-1.6,2-1.6,4.4-.8,6.6-.9,2.5-.1,5-.1,7.5,0,3.2.2,4.1,1.6,2.2,4.1-1.7,2.4-2.2,4.2-.6,6.9.8,1.3.6,3.5-.2,5.2Z"/>
  <path class="cls-69" d="M239.7,141.1c-.8-.8-.6-1.8-.6-2.7-.1-4.2-1.9-5.4-6-4.4-1.5.4-1.4,1.5-1.4,2.5,0,4.2,0,8.4,0,12.6-4.5,3-8.5,1.6-9.3-3.3-.4-2.4-1.6-3.3-3.9-3-9.6,1.2-19.3.3-29,.6-1.7,0-3.4,0-4.6-1.5,1.1-1.2,2.5-.7,3.7-.7,7.9,0,15.8-.1,23.7,0,3,0,3.6-1.1,3.6-3.8,0-2.6-.8-3.7-3.5-3.5-2.7.2-5.5,0-8.3,0-2.7.1-3.6-1.1-3.5-3.7.1-4.1,0-8.2,0-12.2.6-.8,1.5-1.4,2.4-1.3,4.3.2,8.8-1.5,12.8,1.3h0c.9,4.4,3.5,7.1,8,7.9h0c.2.1.3.3.4.5,1.8,3.7,3.9,5.5,7.5,6.7.2,0,.5,0,.7,0q7.4.2,7.2,7.8Z"/>
  <path class="cls-94" d="M35.6,243.6q0,7.6-7.7,7.6c-7,0-13.9,0-20.9,0-2.2,0-2.9-.6-2.8-2.8.1-6,.1-12,0-18,0-2.1.4-3,2.7-2.9,4.2.2,8.4.1,12.6.1,2.5,4.7,1.4,8-3.5,9.5-1.3.4-2.1,1-2.1,2.5,0,1.7,1.1,2,2.5,2.4,4.9,1.5,9.9,1,14.9,1.2,1.4,0,2.9-.4,4.2.4Z"/>
  <path class="cls-79" d="M90.3,188.1q.1-7.2,7.3-7.2c4.6,0,9.1,0,13.7,0,1.3,0,3-.6,2,2.2-1,3,1.4,5.8,4.6,5.6,3-.2,4.7.6,4.2,3.9-.4,2.7.9,3.8,3.5,3.4,3.5-.5,4.8,1.1,4.5,4.5-.2,1.7-.2,3.3,2.4,3.4,4.9.3,4.8.4,4.9,5.3,0,.8,0,1.7,0,2.5-2.5,2.4-5,1.8-7.6.2h.2c-.2-.6-.8-1.1-1-1.7q-1.6-4.9-6.9-4.9c-.8,0-1.7,0-2.5,0-2,0-3.2.7-3.2,2.9,0,1.3-.4,2.6-1.4,3.5-1.9-2.3-.5-4.9-.8-7.4-.4-2.8.9-5.7-.8-8.3-.2-1.3-1.5-1.4-2.4-2-1-.7-1.9-1.4-2.7-2.3-1-1.2,0-4.3-2.8-3.8-1.7.3-3.4-.4-4.9.5-.9.5-2,.6-2.8,0-2.4-2.1-4.8-1.2-7.3-.5Z"/>
  <path class="cls-39" d="M122.1,306.4c1.3-1.3,3-.7,4.4-.6,2.2,0,2.9-.8,2.8-2.9-.1-5.6,0-11.2,0-16.8,0-1.1-.5-2.4.7-3.3,1.4,1.2,1.4,3,1.4,4.6,0,4.5,0,9.1,0,13.6,0,1.3,0,2.8,1.8,3,1.9.3,2.3-1.2,2.7-2.6.6-2.2.4-4.5.5-6.8,0-1.3,0-2.6.8-3.8.2-.4.5-.7.9-.9,2.5-1.1,4.9-1.1,7.2.3,2.6,2.5,1.9,5.8,1.7,8.9-.3,3.6-.5,7.2-.5,10.8,0,2.9-1.1,4.9-4.2,5.3-2.3.3-3,1.7-3,3.7,0,4.7,0,9.4,0,14.1,0,2.1-.3,4.1-2.3,5.4-1.3.8-2.8.7-4.2.6-2.5-.2-4-1.4-4-4,0-6.8-.3-13.6.2-20.4.7-2,2.5-2,4.2-2.2,1.6-.2,2.5-.7,2.4-2.5-.1-1.6-1.2-1.9-2.5-1.9-1.1,0-2.1-.2-3.2-.3-.4,0-.8,0-1.2,0-2.3.3-4.7.7-6.6-1.2Z"/>
  <path class="cls-50" d="M342.1,242.9c-.3,0-.5,0-.8,0-2.2-2.2-1.1-4.9-1.2-7.5-.2-.8-.3-1.7-.2-2.5.2-2.4-.5-3.9-3.3-3.8-1.2,0-2.3-.5-3.2-1.4h0c-2.1-2.1-1.5-4.8-1.3-7.3q-.3-6-5.7-7.9c-.3-.3-.6-.6-.7-1-1.2-4.6-.5-9.3-.4-14,0-2.1,1.8-2.7,3.6-2.9,2.5-.2,5.1.3,5.5,3,.5,4.4,3.1,5.1,6.7,5,5.8-.5,6.2,1,6.2-6.6,0-2.3-.5-4.8.9-7,.3-.3.7-.4,1.1-.2,0,4.1.3,8.1.2,12.2,0,2.3.6,3.1,3,3,4.9-.1,4.9,0,4.9,5,0,3.6,0,7.2,0,10.8-.2,0-.4.1-.6.2-.4-.2-.7-.4-.9-.7-1.1-2.2-.7-4.7-.7-7,0-5.7,0-5.7-5.7-6.3-.4,0-.7.1-1.1.1-3.2-.2-6,.2-6,4.5,0,.6-.6,1-1,1.4-.4.4-.9.8-1.4,1-1.4.7-3.8-.2-4.1,2.1-.4,3.1-.5,6.2.1,9.3.2,1,1.2,1.1,2,1,1.1,0,1.7-.8,1.8-1.8.2-2.4,0-4.8.1-7.2,0-1.8.2-3.6,1.8-4.8,2.6-1.7,5.2-1.5,7.8,0,2,2.5,1.1,5.4,1.1,8.2,0,2.7.8,5.5-.8,8-.5.6-1.1,1.1-1.8,1.1-4.2,0-4.5,2.7-4.5,6,0,2.7,1.1,5.8-1.4,8.1Z"/>
  <path class="cls-62" d="M90.4,330.2q.6,7.2-6.5,7.2c-7.2,0-14.4,0-21.6,0-2.2,0-3.2-.4-3.1-2.9.2-6.7.1-13.5.2-20.2.2-.1.4-.3.6-.3,8.3,0,8.7-1.5,8.7,8,0,1,0,1.9,0,2.9,0,2.1,1.1,3,3.1,3,3.4,0,6.7-.2,10.1.2.4.1.8.2,1.1.3,1.5.7,3,1.4,4.8.8.9-.3,1.9,0,2.5.9Z"/>
  <path class="cls-106" d="M137.2,337.4c1.5-4.6.4-9.3.7-13.9.1-1.8.2-3.6,0-5.4-.3-3.2.7-4.8,4.2-4.5,1.3.1,2.9.3,3-1.6.3-6.6.4-13.1.5-19.7,0-.6-.3-1.2-.4-1.7.1-.2.3-.3.4-.5,2.4-1.4,4.9-1.2,7.4-.2.4.2.6.5.9.9,1.3,3,.7,6.1.7,9.2,0,2.6.4,4.5,3.6,4.4,1.1,0,2.1.5,2.8,1.4-1.3,1.5-3.1.7-4.6.7-2.4,0-3.5.6-3.2,3.2.1,1.4-.1,2.8-.2,4.2-1.4,2-4.5.4-5.8,2.7-1.6,3.1-.8,6.4-1,9.6,0,2.5,0,5,0,7.5,0,4.4-1.6,5.7-5.9,5.4-.7,0-1.4-.3-2.1-.6-.4-.2-.8-.5-1-.9Z"/>
  <path class="cls-36" d="M388.3,299.2c0,6.8,0,13.7.2,20.5,0,1.6-.5,2.1-2.1,2.1-9,0-18,0-27,0-1.7,0-2.4-.5-2.3-2.3.1-1.7,0-3.4,0-5-.2-.4-.2-.7,0-1.1.3-.3.6-.5,1-.7,2.2-.6,4.4-.8,6.3,1h0c3.2-.5,6.3-.4,9.5-.4,1.7,0,3.3-.1,4.7-1.2,1.7-2.1,1.3-4.5,1.3-6.9q0-6.5,6.6-6.3c.6,0,1.2,0,1.7.4Z"/>
  <path class="cls-66" d="M153.1,172.9c-4.2,0-8.4-.1-12.6,0-2.5,0-3.5-.8-3.3-3.3.3-2.9-.3-5-3.9-3.3-1.4.7-2.2-.9-3.4-.7,1.3-1.6,3.1-.6,4.6-.6,2.1,0,3-.5,2.9-2.8-.1-1.5-.5-3.1.4-4.6,1.3,1,1.4,2.4,1.5,3.8.1,1.5,1.1,2,2.4,1.9,1.1,0,1.7-.7,1.8-1.8,0-1.4-.4-2.3-1.9-2.4-1.4-.1-2.9-.3-3.8-1.5,2.3-1.4,4.8-.3,7.2-.7.3-.3.7-.5,1.1-.8,2.3-1.1,4.7-.6,7.1-.4,2.6-.1,5.4-1,7.7,1.2l.2.2c1.9,2.3,1.5,4.8.7,7.3-.2.4-.4.7-.7,1-.4.2.2.2-.3.2-4.5.2-7,2.5-7.3,7-.1.1-.3.2-.4.3Z"/>
  <path class="cls-18" d="M83,329.3c-4.5,0-9.1.1-13.6.3-1.7,0-2.4-.6-2.3-2.3,0-3.1-.2-6.2,0-9.3.3-3.1-.9-4.1-3.8-3.7-1.3.2-2.6.1-3.9.1,2.4-1.6,5.1-.5,7.6-.7,2.7-2,5.4-2.2,8.1,0,8.7.3,7.9-1.4,8,8,2.1,2.6,2.2,5.2,0,7.8Z"/>
  <path class="cls-108" d="M302.5,149.1q7.6.2,7.9,7.9c1.1,1.1,1.4,2.4,1.4,3.9,0,2,0,4.1,0,6.1-.1,2.6.5,4.4,3.6,4.6,1.9.1,3.3,1.2,3.9,3.2,1,3.5-1,6.2-4.6,6.4-3.8.2-7.7-.4-11.4.7-.4,0-.9,0-1.3.1-2.6.4-5.3.8-7.7-.8-1.8-2.4-1.5-5-.7-7.6.2-.4.4-.7.7-1,.2-.1.4-.4.6-.4,4.8.1,6.8-2.6,6.9-7,.2-.3.5-.6.8-.8,5.7-1.9,5.6-1.9,5.7-8.1,0-2.9,0-5.3-3.9-5.3-.8,0-1.6-.5-2-1.3,0-.2,0-.4.1-.5Z"/>
  <path class="cls-35" d="M302.5,282.5c0,4.3-.2,8.6,0,12.9,0,2.4-.8,3-3.1,3-5.8-.1-11.7-.2-17.6,0-2.5,0-3.4-.7-3.1-3.2.2-1.5,0-3.1,0-4.6.1-.2.2-.3.4-.5,2.7-1.7,5.8-.9,8.7-1,4.5-.1,4.5,0,5.6-4.6.2-.8.5-1.6,1.1-2.2,2.5-1.6,5.1-1.6,7.7-.3.1.2.3.3.4.5Z"/>
  <path class="cls-100" d="M161.2,259.6c0,9.2,0,18.3,0,27.5,0,1.3,0,2.6,1.4,3.4-.4,0-.8,0-1.1.1-2.7,1.9-5.3,2.2-8.1.2,0,0-.2-.2-.3-.3-1-4.3-1.5-8.7-1.4-13.1,0-4.4,0-8.9,0-13.3.1-6.2,3.5-8.2,9.3-5.7.3.4.4.8.3,1.2Z"/>
  <path class="cls-16" d="M317.6,259.4c.7,7.1.2,14.3.4,21.4,0,1.8-1.1,1.8-2.3,1.8-4.4,0-8.8,0-13.3-.1,0,0,0,.1,0,.1-2.1-2.4-1.8-5-.7-7.6.9-1.3,2.3-1.8,3.7-1.7,2.8.1,3.5-1.4,3.5-3.8.5-2.4.3-4.7.3-7.1,0-2.4.9-3.6,3.4-3.3,1.6.2,3.3-.3,4.9.3Z"/>
  <path class="cls-56" d="M129.7,212c2.5,0,5.1-.2,7.6-.2,0,0,0,0,0,0,.8,4.5,3.4,7.1,7.9,7.9h0c2,2.7,1.9,5.4.3,8.2-.2.2-.3.4-.6.4-7.5,1.2-15,1.6-22.5-.2-.1-.2-.3-.4-.4-.6,0-.7,0-1.4,0-2.1,0-5.4,0-5.5,5.5-5.7,1.9,0,2.6-.6,2.4-2.5-.1-1.8,0-3.6-.1-5.3Z"/>
  <path class="cls-113" d="M231.7,274.7c-4.4,0-8.9,0-13.3,0-1.6,0-2.3-.3-2.4-2.2-.3-5.6-.4-5.6-5.9-5.8-.5,0-.9-.2-1.4-.2-.8-2.2-.5-4.5-.3-6.7.2-2.9,2.9-2.8,4.7-2.4,3.4.7,6.9.8,10.3,1.3,1.2.6,1.7,1.7,1.7,2.9,0,2.7,1.2,3.9,3.9,3.7.9,0,1.9.2,2.7.8.4.3.6.6.9,1,.9,2.7,1.3,5.3-.8,7.6h0Z"/>
  <path class="cls-36" d="M98.2,203.9c-5,0-10,0-15,.1-2.6-4.4-1.5-7.9,3.1-9.5,1.6-.6,2.2-1.5,2.6-3,.9-3,3.4-4.7,6.2-4.1,2.2.5,4.3.8,6.6.5,1.7-.2,4-.7,5.2,1.4,1.2,2.3,1.1,4.6-.6,6.7h0c-4.6.6-7.2,3.3-8.1,7.8Z"/>
  <path class="cls-19" d="M51.4,219.9c2.6,0,5.2-.1,7.8-.2,1.2-1.2,2.7-1.5,4.3-1.3,2.2.2,3.6,1.1,3.4,3.6,0,.8-.1,1.7,0,2.5.3,2.4-.7,3.2-3,3-1.5-.1-3.1-.5-4.5.4,0,2.4-.1,4.7-.2,7.1-4.1,0-8.1,0-12.2.2-2.9.2-3.9-.9-3.6-3.7.1-1.2,0-2.4,0-3.6,4.2-1.1,6.9-3.7,7.9-8Z"/>
  <path class="cls-10" d="M302.4,180.9c3.8-1.5,7.8-.6,11.6-.6,2.9,0,4.1-1,4.2-3.9,0-3.1-1.6-3.7-4.1-3.4-3.3.4-4.1-1.1-3.9-4.1.2-3.9,0-7.9.1-11.8,4,0,8.1.2,12.1-.1,3.1-.2,4,1,3.7,3.8-.2,1.4,0,2.8.1,4.3,2.2,3.4,2.1,5.6-.5,8-2.3-2.1-1.7-4.7-1.5-7.3.2-1.4-.2-2.8-.2-4.3,0-1.4-.7-2.2-2.2-2.2-1.6,0-2.1.9-2.1,2.3,0,1.2-.2,2.4-.3,3.6.1.8.3,1.6.3,2.5-.2,2.3.4,4,3.2,4,1.1,0,2,.6,2.8,1.4,2.1,2.3,1,5.2,1.6,7.7.1,1.4.2,2.9-1.2,3.8q-5.9-3.3-6.6,3.6c0,.5,0-.1,0,.4.2,2.4.8,4.9-.6,7.2-.3.4-.7.5-1.1.4-1.6-1.1-1.4-2.8-1.6-4.5-.3-2.9,1.3-6.5-1.1-8.5-2.1-1.8-5.5-.5-8.4-.7-1.5-.1-3.1,0-4.2-1.5Z"/>
  <path class="cls-94" d="M122.1,306.4c2.4,0,4.7,0,7.1,0,1.3,1.2,1.3,2.9,1.1,4.4-1.3,7.5-.5,15.1-.6,22.6-.1,5.4-2,6.6-7.2,4.5-.1-.2-.3-.4-.4-.6,0-10.3,0-20.7.1-31Z"/>
  <path class="cls-36" d="M145.8,314.3c2.3-1.1,4.8-.2,7.2-.6.4,10.3.3,20.6,0,31-1.4.7-2.8.3-4.2.3-3.7,0-5.3-1.5-4.3-5,1.6-5.5.6-10.9.9-16.4.2-3.1-.3-6.2.3-9.3Z"/>
  <path class="cls-29" d="M325.6,184.5c1-1.1.6-2.4.7-3.6,3.2-2.5,4.7-2.5,7.3,0h0c.9,1.4,5.8,5.8,8,7.2,2.5.6,5.2-.6,7.7.8-.2,0-.4,0-.7.1-2,1.8-4.3,1.3-6.6,1.1-1.5,0-3.1.3-4.6.2-1.4,0-2.3.5-2.3,2.1,0,1.5.9,2,2.3,2.2,1.8.1,3.6,0,4.8,1.7,1,2.6,1.3,5.2-.5,7.6-1,0-1.9,0-2.9,0-4.8,0-5,0-5.2-4.9-.1-3.1-2.1-2.9-4.2-3-2.4-.1-3.2.8-3.1,3.2.1,4.2,0,8.4,0,12.6-.2.3-.5.3-.8.1h0c-2.1-2.1-1.5-4.8-1.3-7.3.1-.8-.2-1.6-.1-2.5.3-2.8-.9-4.2-3.8-4.1-.7,0-1.4-.3-1.9-.8-.3-.3-.4-.6-.3-1l.2-.2c.5-.5,1.1-1.1,1.8-1.1,3.7.1,4.3-2.1,3.9-5.1-.1-1.9-1.4-4.2,1.5-5.3Z"/>
  <path class="cls-28" d="M270.7,282.6c0-4.3-.1-8.6,0-12.8,0-2.3-.8-3.2-3.1-3.1-4,.1-8.1,0-12.1,0-.2,0-.5.1-.7.2-.2-.2-.3-.3-.5-.5-1.3-2.4-1-4.8-.1-7.2.2-.4.5-.8.9-1,1.1-.8,2.4-.8,3.8-.9,5.3,0,10.7,0,16,0,1.3,0,2.6.1,3.8.9.4.3.7.7.9,1.1.9,2.5,1,5-.3,7.4-.5.7-1.3,1.2-2.1,1.2-3.8,0-4.4,2.2-4.2,5.4.1,3,.3,5.9-.2,8.9,0,.6.2,1.2.1,1.7-.2,2.9.6,4.8,4,4.7.7,0,1.3.4,1.9.9.3.3.3.7,0,1,0,0,0,0,0,0q-7.8.2-7.9-7.9Z"/>
  <path class="cls-87" d="M98.3,289.1c.1-.2.3-.4.3-.6q1.1-5.9,7.5-6c1.6,1.1,1.5,2.9,1.5,4.5,0,2.3,0,4.6,0,6.8.1,1.4.8,2.3,2.3,2.2,1.4,0,1.8-1.1,1.8-2.2.1-5,0-10.1,0-15.1,0-1.5-.7-2.5-2.3-2.6-1.2-.1-2.4-.4-3.2-1.4,0-2.4,0-4.9-.1-7.3h0c2.5-1.3,5.2-.4,7.8-.8,2.2,2.8,2.2,4.9.2,8.2,0,6.7-.1,13.4,0,20.1.1,3-.9,3.8-3.7,3.5-1.4-.2-2.9,0-4.3,0-.3.2-.5.6-.8.6-3.1.6-5.5,1.8-6,5.3,0,.5-.7.6-1.2.6,0-4.8,0-9.7-.1-14.5-.4-.5-.3-.9.1-1.4Z"/>
  <path class="cls-50" d="M223.7,259.5c-3.7-.1-7.4,0-11-.7-3-.5-4.5.5-4,3.8.2,1.3,0,2.6,0,3.9-1.1-.8-.7-2-.6-2.9.7-4-1.2-4.7-4.7-4.5-6.2.3-12.4.2-18.6.3-.2-.5,0-.9.4-1.2,5.1-1.7,10.4-.8,15.6-1,5.4-.1,5.6-.2,5.6-5.7,0-9.3.2-9.5,9.5-9.4,2.6,0,5.3-.6,7.7.8,3.2,4.7,1.9,8.3-3.4,9.3-1.6.3-2.7.8-2.7,2.7,0,2,1.4,2.2,2.9,2.4,1.4.2,3.3,0,3.4,2.2Z"/>
  <path class="cls-63" d="M122,250.8c0-2.4,0-4.8,0-7.1.2-.2.3-.4.5-.5,3.6-.8,6.5-2.3,6.6-6.7,0-1.2,1.5-1.9,2.7-2,4.3-.3,8.5-.8,12.7.4.4.2.7.4,1,.8,1,1.5,1,3.2.9,4.8-.1,2.9-1.6,4.4-4.5,4.6-2.6.2-5.3,0-7.9.1-1.3,0-2.4.4-2.4,2,0,1.6,1,2,2.3,2.2,1.5.2,3.2.1,4.1,1.8,0,.5-.3.7-.8.5-.2,0-.5-.2-.7-.2q-6.3-.4-6.6,5.9c0,.6,0,1.2-.6,1.6-.1,0-.3-.2-.4-.3-.4-4.3-2.9-6.4-7-6.9-.2-.3-.2-.6.1-.9Z"/>
  <path class="cls-80" d="M215.9,118.1c-5.1,0-10.2,0-15.3,0-2.7,0-5.5,0-8.2-.1,0-.2,0-.5,0-.7q.3-7.1,7.3-7.1c4.4,0,8.8.1,13.3,0,2.4-.1,3.1.8,2.9,3-.2,1.7,0,3.3,0,5Z"/>
  <path class="cls-3" d="M137.7,290.7c-.1,3.9-.5,7.9-.3,11.8.2,4.4-2.9,3-5.1,3.3-2.9.4-2.3-1.7-2.3-3.3,0-6.6,0-13.2,0-19.8,2.4,0,4.8-.1,7.2-.2,1.9,2.6,1.1,5.4.5,8.1Z"/>
  <path class="cls-35" d="M75.1,219.7c-2.6,0-5.3.1-7.9.2-2.2-2.7-2.1-5.3,0-8h0c4.4-.9,7-3.6,7.9-8h0c2-1.9,4.3-1.8,6.7-.8.4.2.6.5.8.9,0,4.4.2,8.9-.2,13.3-.2,2-.8,2-2.3,2.1-1.7,0-3.4-.3-5,.2Z"/>
  <path class="cls-53" d="M91,165c0-7.4,0-7.3,7.3-7.4,4.8,0,9.6.5,14.3-.4,1.4-.1,1.4.9,1.4,1.8,0,2,0,4,.1,6-5.3,0-10.7,0-16,.1-2.4,1.9-4.8,1.9-7.1-.1Z"/>
  <path class="cls-118" d="M114.3,368.4c0-2.4-.1-4.8-.2-7.2.4-.5.9-.9,1.5-.9,6.3-.4,12.7-.1,19-.5,1.9,0,3.1,1.1,2.9,3.2-.2,1.8.4,3.6-.3,5.3h0c-7.6.5-15.3.7-22.9,0Z"/>
  <path class="cls-36" d="M294.6,142.6c-.6-1.7-2.2-1.2-3.4-1.2-4.2,0-8.4-.1-12.6-.2.2-7.6.2-7.6,7.7-7.5,5.1,0,10.2.2,15.4.3.7,4.3-3,8.7-7.1,8.7Z"/>
  <path class="cls-75" d="M357.2,290.5c.6,2.6-1.6,5.3,0,7.9-2.5,2.2-5.1,1.8-7.9.7-1.3-1.4-3-.8-4.4-.7-2.7.2-3.9-.5-3.7-3.5.3-4.1,0-8.2.1-12.2-2.1-3.3-2.1-6.7.1-9.6,2.2,2.8,5.2,1,7.8,1.5h0c0,2.7,0,5.4-.1,8-.4.3-.7.8-1.1.8-4.4,0-4.8,2.8-4.5,6.3.1,1.4,0,2.9,0,4.3,0,1.3.7,2,2,2,1.3,0,2-.6,2.2-1.9.2-1.4,0-2.9,1.6-3.8,2.6,0,5.2,0,7.8,0h0Z"/>
  <path class="cls-31" d="M83,329.3c0-2.6,0-5.2,0-7.8q7.1,0,7.2-6.9c0-.2,0-.5,0-.7.2-8.3-1.1-7.6,7.9-7.6,1,4.2,3.9,6.2,7.8,7.2-2.4,1.2-5.1,0-7.6.8-.2.1-.4.4-.6.4-5,.5-5.7,4.1-5.6,8.1,0,.2,0,.5-.1.7-1.2,7-1.8,7.4-8.9,6.1,0-.1-.1-.3-.1-.4Z"/>
  <path class="cls-31" d="M106.3,196.2q-.4-7.4-7.8-7.4c-1,0-1.9,0-2.9,0-3.6-.4-5.9.5-5.3,4.8.2,1.5-.4,2.4-2.1,2.6-5.3.7-5.3.7-5.2,6.2,0,.6.1,1.2.2,1.8h0c-.4.3-.7.3-1,0h0c-2-2.6-2.1-5.3,0-7.9,0,0,.2-.2.2-.3-.6-5.8,2.5-7.8,7.7-7.7.7-3.6,3.9-3.2,5.3-1.9,3,2.7,6.1.9,8.9.7,2.5-.1,3.7.4,4.1,2.6.3,1.8,1.2,2.9,3,3.6,1.1.4,3.1,1,1.6,3-2.3,0-4.6,0-6.9,0Z"/>
  <path class="cls-17" d="M192.6,117.8q.5,8.1-7.8,8.3c-2.4,2-4.9,1.9-7.6.5-.1-.2-.3-.4-.4-.5.4-2.6-1.1-6.1.7-7.5,1.7-1.3,5-.5,7.6-.5,2.5,0,5-.1,7.5-.2Z"/>
  <path class="cls-65" d="M106.2,235q0-7.3,7.5-7.3c2.7,0,5.5,0,8.2,0,0,0,0,0,0,0,2.1,3.3,2,5.2-.3,8.4-2.3,1.4-4.8,1-7.3.8-2.4,0-4.8.6-7.1-.4-.6-.3-1-.8-1.1-1.5Z"/>
  <path class="cls-52" d="M83.2,329.7q6.5-.6,7.6-7c0-.6.2-1.2.2-1.8q.5-6.9,7.4-6.6c0,4.1-.1,8.1,0,12.2.1,2.6-.8,3.2-3.2,3.1-1.6,0-3.3-.7-4.8.6-2.4-.3-5,1.7-7.2-.5Z"/>
  <path class="cls-34" d="M247.6,400c0-2.6,0-5.1,0-7.7,3.3-2.4,11.9-2.3,15.1,0,0,2.5,0,5.1,0,7.6-5,.4-10,.2-15,0Z"/>
  <path class="cls-11" d="M153.3,290.7c2.7,0,5.4-.1,8.1-.2-.1,5-.3,10.1-.4,15.1q-7.8,0-7.8-7.8c0-2.4,0-4.7.1-7.1Z"/>
  <path class="cls-94" d="M114.8,211.8c-.2-9.6-.9-7.8,7.6-7.8,7.6,0,7.8-1.8,7.4,8.1-5-.1-10-.2-15-.4Z"/>
  <path class="cls-59" d="M333.5,180.9c-2.4-1.3-4.9,0-7.3,0-1.2-2.6-.3-5.3-.7-7.9h0c1.2-2.6.2-5.3.7-7.9q7.4,0,7.4,7.3c0,2.8,0,5.7,0,8.5Z"/>
  <path class="cls-11" d="M105.9,313.6c-.1,0-.2,0-.3,0q-7.1-.2-7.4-7.2c0-.4.1-.9.2-1.3.1-.2.3-.4.3-.6q1.1-6,7.6-5.9c-.1,5-.2,10.1-.3,15.1Z"/>
  <path class="cls-78" d="M35.5,219.7c0,9.3,1.6,8-8,7.9-7.2,1.7-8.7.2-7.1-7.5,5-.1,10.1-.2,15.1-.3Z"/>
  <path class="cls-74" d="M82.4,290.5c.5,2.7-.5,5.4.7,8h0c-.5,2.4.6,4.9-.7,7.1-2.4.6-4.8.6-7.2,0,0-4.2,0-8.3-.2-12.5-.1-2.2.6-3,2.8-2.8,1.5.2,3.1,0,4.6,0Z"/>
  <path class="cls-80" d="M114.2,274.8c0-2.7-.1-5.5-.2-8.2,0-2.6.2-5.2.2-7.7,1.4-1.7,3.3-1.8,5.3-1.3,1.2.3,2.3.9,2.2,2.4-.2,4.9.5,9.8-.4,14.6-2.4,0-4.8.2-7.2.3Z"/>
  <path class="cls-52" d="M341.5,273.1c0,3.2,0,6.4-.1,9.6-2.4,0-4.8-.2-7.2-.3,0-4.2.1-8.4-.1-12.5-.2-3,1.4-3.2,3.7-3.2,2.3,0,4.1.1,3.7,3.2-.1,1.1,0,2.1,0,3.2Z"/>
  <path class="cls-73" d="M349.4,299.2c2.5-1.3,5.3-.4,7.9-.7,0,0,0,0,0,0,2.4,5.1,2.4,10.1,0,15.2h0c-.1,0-.2.1-.3.1-7.3.9-7.2.9-7.3-6.4,0-2.3.3-4.5-.3-6.8,0-.5,0-1,0-1.5Z"/>
  <path class="cls-36" d="M263.5,392.3c0-3.8,0-7.7-.2-11.5-.2-3,.8-4.2,3.8-3.8,1.2.2,2.4,0,3.6,0,0,4.2,0,8.3.2,12.5.1,2.2-.5,3.1-2.8,2.8-1.5-.2-3.1,0-4.6,0Z"/>
  <path class="cls-94" d="M326.2,266.7c0-4.3.1-8.6.1-12.9,0-1.3.1-2.5,1.8-2.4,1.8.2,4.8-1.1,5,1.1.5,4.7,1.4,9.6-.5,14.3-2.1,0-4.3-.1-6.4-.2Z"/>
  <path class="cls-62" d="M106.9,345.4c2.4,0,4.8,0,7.3,0,.2.2.4.3.5.5,1.2,5,2,10-.6,14.9-7.6.6-7.7.6-7.6-6.7,0-2.8-.5-5.7.3-8.5Z"/>
  <path class="cls-81" d="M106.9,345.4c0,3.7.2,7.4,0,11-.3,3.4,1.1,4.5,4.2,4,.9-.1,1.9,0,2.8,0,1.9-1.8,4.2-1.5,6.5-1.5,1.4,0,2.9,0,4.3,0,2.4.1,3.9-.7,3.9-3.4,0-.8.4-1.6.9-2.3,3.8-1.2,7.3-2.8,7-7.8,0-.5.7-.9,1.3-1,.4.2.7.4.9.8,1.3,3,.7,6.1.7,9.2,0,2.9.5,4.9,4,4.9.6,0,1.1.4,1.6.8.1.2.2.3.3.5-5.6-.4-8.5,2-8,7.9-.4-7.5-.4-7.4-8-7.2-5,.1-10.1,0-15.1,0-8-.3-8.1-.3-7.9-8.4,0-2.5-1.1-5.1.7-7.4Z"/>
  <path class="cls-90" d="M20.4,220c.4,2.2-.9,4.9.7,6.5,1.6,1.6,4.4,0,6.4,1,0,0,0,.3,0,.3-1.4.8-5.9,5.7-7.2,7.8-.2,9-.5,7,7.1,7.3.4,0,.7,0,1.1,0q6.2,0,7-6c0-.4.4-.8.6-1.2.3.4.1-.2.2.3.7,3.9,3.5,5.8,7,7-2.4,1.5-5.2.2-7.7.8-6.6,0-13.2-.2-19.8,0-3.1,0-3.6-1.3-3.5-3.9,0-2.3-.2-4.6,3.2-4.1,3.6.6,4.4-1.3,4-4.3-.1-1.2,0-2.4,0-3.6.7-2.5-.5-5.2.8-7.7Z"/>
  <path class="cls-112" d="M138,345.4c0-.3,0-.6,0-.8-2.1-2.4-1.9-4.8,0-7.2,7.1,0,7,0,7.2-7.2.1-5.3-.9-10.7.6-15.9,0,8.5,0,16.9,0,25.4q0,5,4.8,5c.8,0,1.7,0,2.5,0-1.2,1.4-2.9.7-4.3.6-2.4-.2-3.3.5-3.3,3.1,0,4,.5,8.1-.3,12.1,0-.1-.2-.2-.3-.3-2-2.1-1.2-4.8-1.2-7.2-.1-4.9,0-4.9-4.6-6.7-.5-.2-.8-.6-1.1-.9Z"/>
  <path class="cls-110" d="M317.6,259.4q-7.3.3-7.3,7.7c0,1.1,0,2.1,0,3.2-2.3-.4-1.8-2.4-2.1-3.9-.2-1.2,0-2.4-.2-3.5-.1-1.1-.7-1.7-1.9-1.8-1.2,0-2,.4-2.3,1.7-.3,1.8,0,3.9-1.9,5.1-.6.2-1.2.2-1.8.3-6.9.2-9-3.1-6.3-9.5,2.3-2,5-1.3,7.6-1.2.7.1,1.4,0,2.1,0,2.9.2,4.9-.6,4.7-4,0-.6.3-1.1.7-1.6.3-.3.6-.4,1-.2.7,2.3-.9,5.3.8,6.9,1.6,1.5,4.6-.4,6.7,1Z"/>
  <path class="cls-104" d="M161,157c-2.6,0-5.2,0-7.8,0-1.3-1-1.4-2.4-1.5-3.8-.1-1.3-.9-1.9-2.1-1.9-1.2,0-2,.5-2.1,1.8-.1,1.4-.3,2.8-1.5,3.9-.3,0-.5,0-.8,0,0-.4,0-.7,0-1.1.1-6.2.1-6.2,6-6.8,1.4-.1,1.9-.5,1.9-1.9,0-1.1,0-2.2,0-3.2-.3-2.3.8-3,2.9-2.8,1.7.1,3.3,0,5,0,0,.3,0,.5,0,.8-.2.2-.3.4-.5.4-4.2.3-5.7,3.1-6,6.9.2.1.4.3.6.3q6.1,1.1,5.9,7.4Z"/>
  <path class="cls-55" d="M121.3,274.6c0-3.8-.2-7.6,0-11.4.2-3.4-.8-4.9-4.3-4.4-.9.1-1.9,0-2.8,0,0-.5,0-1,0-1.4,0-5.6,0-5.6,5.5-5.9.8,0,1.6-.5,2.4-.7,0,.3,0,.6,0,.8,0,0,.2.1.3.2,2.1,3.9,3,4.8,6.7,6.7,0,.1.2.2.3.3-.2,0-.4.3-.6.3-6.6.6-6.5.6-6.7,7.2,0,2.7.8,5.6-.7,8.2Z"/>
  <path class="cls-25" d="M310.1,251.6c-.2,0-.4,0-.6.1-4,.7-6,3.4-7,7-2.6,0-5.3,0-7.9,0-2.2-2.1-1.6-4.5-1-6.9.5-1.4,1.7-2.1,3-2.2,2.6-.1,3.9-1.3,3.9-3.9,0-.8.7-1.5,1.2-2.1.2-.2.4-.5.6-.7,0,.1,0,.2,0,.4,0,2.4-.6,5.3.5,7,1.1,1.8,4.2.3,6.4.8.3,0,.6.4.8.6Z"/>
  <path class="cls-41" d="M388.3,299.2c-8.3.1-7-1.1-7.2,7.2,0,2.7.7,5.4-.7,8-.3-.3-.5-.6-.8-.9-1.3-2.7-.7-5.7-.7-8.5,0-2.9-.2-5.3-4-5.4-.7,0-1.3-.5-1.7-1.2-.5-2.6-.3-5.3-.2-7.9.7,0,1.4,0,2.1,0,5.2,0,5.3,0,5.3,5.2,0,2.3.8,2.8,2.9,2.8,1.6,0,3.5-.9,4.8.8Z"/>
  <path class="cls-8" d="M67.2,211.9c0,2.7,0,5.3,0,8q0,7.6-7.9,7.9c.8-1,1.9-.9,3-.8,2.8.3,4.3-.3,4.3-3.8,0-3.8-2.1-3.6-4.6-3.5-1,0-1.9,0-2.9,0,0-2.6,0-5.2,0-7.8h0c2.7,0,5.3,0,8,0Z"/>
  <path class="cls-14" d="M90.2,172.2c-.6.8-1.5.6-2.3.7-4.7.2-4.7.2-5,5.1,0,1-.1,1.9-.7,2.7-2.1,2.2-4.3,1.8-6.7.6-.1-.2-.3-.4-.4-.5q-.6-7.4,6.3-8c.5,0,1-.4,1.6-.7,2.4-1.9,4.8-2.1,7.2,0Z"/>
  <path class="cls-14" d="M75,188c-5.5,0-9,1.8-8.6,8-2-2.4-2-4.9,0-7.3,1.3-1.6.6-3.5.6-5.2,0-2.1.4-3.2,2.7-2.9,1.8.2,3.6.1,5.4.2,0,0,0,0,0,0,1.9,2.4,2.2,4.8,0,7.2Z"/>
  <path class="cls-69" d="M176.9,133.9c-.1,8.3,1.4,7.3-7.9,7.3-.3-.4-.1.2-.2-.2-.8-3.8-3.2-5.9-6.9-6.7-.2,0-.4,0-.7-.2,1.6-1.3,3.6-.4,5.3-.6,1.2-.1,2.4,0,2.5-1.6,2.6.8,5.6.1,7.8,2.1Z"/>
  <path class="cls-109" d="M184.7,258.7c0,.3,0,.5,0,.8-.4,2.4.8,5-.7,7.2.2-2.9,0-5.6-2.7-7.5-1.1-.8-1.2-2.3.3-2.9,1.9-.8,2.1-2.8,4.1-4.6h-16.6c-.2-.5-.1-.8.2-1.2.4-.3.8-.7,1.2-.7,6.8-.3,13.7-1.4,20.2,1.4,1.9,1.7,1.6,3.3-.3,4.6-1.7,1.3-3.4,2.8-5.8,2.9Z"/>
  <path class="cls-38" d="M114.2,345.4q-.3-7.8,7.8-8s0,0,0,0c2.1,2.7,2,5.4.3,8.2-2.8,1.7-5.6,1.9-8.3-.3h0Z"/>
  <path class="cls-37" d="M98.2,203.9q0-8.1,8.1-7.8c0,.2,0,.5,0,.7q-.3,7.7-8.1,7.1Z"/>
  <path class="cls-82" d="M75.1,305.7c2.4,0,4.8,0,7.2,0-.3.2-.6.5-.9.5q-6.4.9-6.3,7.4c-2.7.4-5.4.4-8.1,0,.1-2.4-.5-5.3.6-6.9,1.1-1.6,4.2-.3,6.5-.6.3,0,.7-.3,1-.4Z"/>
  <path class="cls-84" d="M223.9,126q-7.7-.2-8-8,7.9-.2,8,8Z"/>
  <path class="cls-101" d="M231.7,133.2c-7.4,1.8-7.9,1.3-7.9-7.3q7.7-.4,7.9,7.3Z"/>
  <path class="cls-115" d="M176.9,133.9c-1.5,0-3.1-.1-4.6,0-1.7.2-2.7-.6-3.2-2.1q-.2-6.2,7.8-5.8s0,0,0,0c2.1,2.7,2.1,5.3,0,8h0Z"/>
  <path class="cls-60" d="M294.6,142.6c2.3-3,7.1-3.8,7.1-8.7,1.4,3.2.4,6.6.7,9.9.2,1.8,0,3.5.1,5.3-.1,0-.3-.1-.4,0-2-.7-1.3-2.5-1.6-4.1-2.2,1.7-2,5.9-5.9,5.7,0-2.7,0-5.3,0-8Z"/>
  <path class="cls-4" d="M341.5,188.1q-7.7.5-8-7.3c.1,0,.2,0,.3,0q7.6-.2,7.7,7.3Z"/>
  <path class="cls-77" d="M51.5,196.8c1.3,0,2.6,0,3.9,0,2.9-.4,3.9.6,3.9,3.7,0,2.9-1,3.8-3.7,3.5-1.4-.2-2.9,0-4.3,0,0-2.4.1-4.8.2-7.1Z"/>
  <path class="cls-85" d="M246.8,384.3c.3,2.7.3,5.3,0,8q-7.1,0-7.4-7.9h.2c2.4-2.1,4.8-2.2,7.2-.1Z"/>
  <path class="cls-41" d="M121.3,165.1c0,1.1.2,2.1.2,3.2,0,4.7-.2,4.9-5.1,4.6-1.6-.1-2.4-.6-2.4-2.3,0-1.9,0-3.8,0-5.7,2.4,0,4.8.1,7.1.2Z"/>
  <path class="cls-94" d="M43.3,242.9q-7.2-.1-7.2-7.2c2.5,0,5,0,7.5,0-.1,2.4-.2,4.8-.3,7.2Z"/>
  <path class="cls-77" d="M90.2,172.2c-2.4,0-4.8,0-7.2,0q-.7-7,7.3-7.2c0,2.4,0,4.8-.1,7.2Z"/>
  <path class="cls-46" d="M66.5,188.7c0,2.4,0,4.9,0,7.3-2.4,0-4.9,0-7.3,0,0-.4,0-.7,0-1.1q0-6.8,7.2-6.2Z"/>
  <path class="cls-6" d="M357.3,219.8c7.8,0,7.9,0,7.7,7.9,0,5.1.6,10.2-.4,15.3-.1,0-.3-.2-.4-.2-1.1-1.3-1-2.9-1-4.4,0-4.7-.2-9.3.1-13.7q-4.8,3.9-7,1.1c-.6-2.1-.7-4.2,1-5.9h0Z"/>
  <path class="cls-39" d="M137.7,290.7c-.9-2.7,0-5.4-.5-8.1,0-10.3,0-20.6,0-30.9.2,0,.4,0,.6,0,1.3.8,1.6,2.1,1.6,3.4,0,9.1.3,18.2-.1,27.2,0,2.7,1,5.6-1.1,8.1-.1.1-.2.2-.4.3Z"/>
  <path class="cls-1" d="M82.3,204c.3,0,.7.1,1,.2-.7,4.2-.3,8.3-.3,12.5,0,2.4-.5,3.6-3.1,3.2-1.5-.2-3.1-.1-4.6-.2.7-.2,1.3-.5,2-.5,4.9-.4,4.9-.4,5.1-5.6,0-3.2,0-6.4,0-9.6Z"/>
  <path class="cls-81" d="M114.3,368.4c7.6,0,15.3,0,22.9,0-6.5,1.2-13,.2-19.5.5-1.1,0-2.4.6-3.3-.6Z"/>
  <path class="cls-89" d="M349.4,300.6c1.3,2.7.7,5.6.5,8.4-.3,3.6.9,5.1,4.5,4.5.9-.1,1.9,0,2.8,0,0,.3,0,.6-.1.8-.8-.1-1.6-.3-2.5-.3q-5.5-.2-5.5-5.9c0-2.5.1-5,.2-7.6Z"/>
  <path class="cls-15" d="M106.2,235c.2.2.5.4.7.6,1.9,2.2,1.7,4.7.8,7.3-.2.4-.5.7-.9.9-.2,0-.4,0-.6-.1-.2-.1-.4-.2-.5-.4-1.4-2.6-4.5-6.1-6.6-7.4,0,0-.1-.3-.1-.3,2.4-.2,4.8-.3,7.3-.5Z"/>
  <path class="cls-6" d="M357.3,243.7c-.2,0-.5,0-.7.1,1.3-2.8,3.9-3.2,7.6-1.1.1.1.2.2.3.3-2.3,1.2-4.9,0-7.3.7Z"/>
  <path class="cls-108" d="M145.9,203.9q7.2,0,7.2-7.3c0-5.5,0-11.1,0-16.6,2,.5,2,2.2,2.1,3.7,0,2.1.7,3.4,3,3.6,2.5.2,4,1.6,4.2,4.1.1,2.1,1.2,3,3.2,3,3,.1,4.7,1.7,4.8,4.7,0,2.3,1.2,3.1,3.4,3.2,2.8.1,4.4,1.7,4.5,4.6,0,2.2,1,3.3,3.3,3.4,3,.1,4.6,1.8,4.7,4.8,0,2.3,1.4,3.1,3.5,3.1,12.4,0,24.7,0,37.1,0,2.2,0,3.4-.8,3.4-3.1,0-1,.2-1.9.6-2.8.2-.4.5-.7.8-1,2.6-1.3,5.2-1.3,7.9-.1.4.3.7.6.9,1,.9,5.4,1.6,10.9-.5,16.2-3.2,1.5-6.6.6-9.9.7-2.9,0-4.9.6-5,4.1,0,2-1.4,3.6-3.4,3.7-9.5.3-18.9.9-28.4-.3-.4-.2-.7-.4-1-.7-.5-.7-.8-1.5-.9-2.3q-.8-4.3-5.1-4.4c-1.3,0-2.6,0-3.9,0-5.5,0-5.8-.2-7.1-5.7-.3-1.4-1-2.1-2.4-2.2-1.2,0-2.4,0-3.5-.6-.4-.2-.7-.4-.9-.6-.2-.2-.4-.4-.4-.6.2-4.9-2.6-6.8-7.1-6.8,0-.3,0-.6-.1-.8-.2-.2-.4-.3-.5-.5-.3-4.7-3.1-6.5-7.4-6.7-2.4-.3-5,.7-7.3-.7Z"/>
  <path class="cls-108" d="M145.1,227.6c0-2.6,0-5.2,0-7.9,5.3,1.4,10.6-.6,15.9,0,2.6-2.1,5.3-2.1,7.9,0h0c.8.7,1.4,1.6,1.4,2.8.2,4.5,0,8.9.7,13.4-3.1,2.1-6.6,1-9.9,1-2.7.3-5.4.3-8,0-2.7,0-5.5,1-7.8-1.1l-.2-.2c-2.1-2.7-1.9-5.3,0-8Z"/>
  <path class="cls-93" d="M51.4,219.9q-.3,7.5-7.9,8c0-2.7-.1-5.4-.2-8.1h0c2.7,0,5.4.1,8.1.2Z"/>
  <path class="cls-89" d="M145.2,219.7q-7.9.2-7.9-7.9,7.9.2,7.9,7.9Z"/>
  <path class="cls-31" d="M75.2,203.9c0,.1,0,.2,0,.4q-.2,7.6-7.9,7.6-.1-7.9,7.9-8Z"/>
  <path class="cls-45" d="M169,219.8c-2.6,0-5.3,0-7.9,0,0-2.4,0-4.8,0-7.1,1.9-1.3,4-.7,6-.8,1.4,0,1.8.9,1.8,2.1,0,1.9,0,3.8,0,5.8Z"/>
  <path class="cls-9" d="M153.1,204.6c.2,0,.4-.2.7-.3,6.1-1.5,7-.8,7.2,5.3,0,.7,0,1.4,0,2.2-.4,0-.7,0-1.1,0q-6.8-.2-6.8-7.2Z"/>
  <path class="cls-58" d="M75,188c0-2.4,0-4.8,0-7.2,2.4,0,4.8,0,7.2,0,1.4,1.8.7,3.9.7,5.9,0,1.7-1.3,2.2-2.7,2.1-1.7-.1-3.6.5-5.2-.8Z"/>
  <path class="cls-12" d="M20.4,235.6c0-.2,0-.5,0-.7.1-8.1-1.4-7.1,7.2-7,0,.2,0,.5,0,.7,0,8.1,1.1,7-7.2,7Z"/>
  <path class="cls-13" d="M91,165c2.4,0,4.8,0,7.1.1,0,1.2,0,2.4,0,3.6,0,4-2,5.4-5.8,4.2-1.2-.4-1.4-1.2-1.4-2.2,0-1.9,0-3.8,0-5.7Z"/>
  <path class="cls-1" d="M82.4,196.1c0,2.6,0,5.3,0,7.9-2.4,0-4.8,0-7.2,0,0-.2,0-.5,0-.7,0-7.7-.9-7.2,7.2-7.2Z"/>
  <path class="cls-18" d="M59.3,211.9c-.9,0-1.9-.1-2.8,0-3,.5-4.6-.7-5-3.7-1.4-1.2-1-2.4,0-3.6.2,0,.5,0,.7,0q7.2,0,7.2,7.2s0,0,0,0Z"/>
  <path class="cls-99" d="M43.4,219.7c-1,0-1.9,0-2.9,0-4.2,0-5.6-1.9-4.3-5.9.8-2.5,3-1.2,4.6-1.4,1.4-.2,2.7,0,2.6,2,0,1.8,0,3.6,0,5.4,0,0,0,0,0,0Z"/>
  <path class="cls-97" d="M51.4,204.7c0,1.2,0,2.4,0,3.6-.3,3.4-3.4,5.1-6.4,3.5-2.1-1.2-.9-3.4-1.1-5.2-.2-1.3.7-1.9,2-1.9,1.8,0,3.6,0,5.4,0Z"/>
  <path class="cls-36" d="M364.2,242.7c-2.5.8-5.3-.9-7.6,1.1,0,3.8-.2,7.7,0,11.5.2,3.1-1.2,3.5-3.8,3.5-2.5,0-3.9-.4-3.5-3.3.2-1.3,0-2.6,0-3.9-1.8-1.7-.4-4.4-1.9-6.2-1.2-2-4-.7-5.4-2.4,0,0,0,0,0,0,0-3.7.2-7.4,0-11-.2-3.2.8-4.7,4.1-4.2,1,.2,2.1,0,3.2,0,.1,0,.3.2.4.3.8,1,.9,2.2.9,3.4,0,1.9.7,2.9,2.8,2.9,2.3,0,2.4-1.5,2.4-3.2,0-1.2.2-2.4.5-3.5.2-.5.5-1,1-1.2,1,.5,2.3,2.2,2.5-.5,0-1.1.6-1.6,1.5-1.6,2.6,0,1.4-1.7,1-3.2,1.8.6,2,1.8,2,3.1,0,6.2,0,12.4-.1,18.6Z"/>
  <path class="cls-48" d="M318.2,196.1c0,.2.1.3.1.5,1,3.8,3.3,6.3,7.2,7.3,0,2.7,0,5.3,0,8-.7,0-1.4,0-2.2,0-4.8,0-4.9,0-5.1-4.7,0-2.3-.9-3.3-3.2-3.2-1.6,0-3.1,0-4.7,0-.2-.1-.3-.3-.5-.4-1.4-3.3-.3-6.8-1-10.2-.4-1.8-1-2.7-2.9-3-5.3-1-6.6-4.7-3.6-9.4,0,0,0,0,0,0,3.7,0,7.4.2,11.1,0,3.1-.2,4.2.7,4.1,4,0,3.8-.8,7.6.5,11.3Z"/>
  <path class="cls-86" d="M373.3,298.3q7.2,0,7.2,7.1c0,2.7,0,5.5-.2,8.2-5,.4-10.1.7-15.1-.1-.3-7.3.4-14.5-.5-21.8,0-.4.3-.9.4-1.3,2.4-1.9,4.8-1.9,7.2,0,.4,2.6-1,5.5.9,8Z"/>
  <path class="cls-103" d="M357.3,274.6c0-4.2.2-8.4,0-12.5-.1-2.8,1.6-2.7,3.4-2.6,1.9,0,3.9-.5,3.8,2.7-.2,4.2,0,8.3,0,12.5-2.4,2-4.8,2-7.2,0Z"/>
  <path class="cls-52" d="M372.4,290.4c-2.4,0-4.8,0-7.2,0,0-4.2.2-8.3,0-12.5-.1-2.8,1.5-2.8,3.4-2.7,1.9,0,3.9-.4,3.8,2.7-.2,4.2,0,8.3,0,12.5Z"/>
  <path class="cls-83" d="M349.4,290.5c0,1.1-.2,2.2,0,3.2.5,3.5-1.2,4.2-4.3,4.1-2.4,0-3.1-1-3-3.3.1-2.6.2-5.3,0-7.9-.4-3.5,1.1-4.5,4.3-4.1.9.1,1.9,0,2.9.1,0,2.6.1,5.2.2,7.8Z"/>
  <path class="cls-89" d="M357.3,313.6c0-5.1,0-10.1,0-15.2,8.6,0,7.1-1,7.2,7.2,0,2.6,0,5.3,0,7.9-2.4,0-4.8,0-7.2,0Z"/>
  <path class="cls-111" d="M325.5,211.9c.3,0,.5,0,.8-.1.2,0,.5.1.7.2,0,4.3,2.1,6.9,6.3,7.8,0,2.7.1,5.3.2,8q-7.9,0-8-8c0-2.6,0-5.3,0-7.9Z"/>
  <path class="cls-96" d="M341.3,234.9c0,2.7,0,5.3,0,8-.7.2-1.3.5-2,.6-5.1.6-5.8,0-5.8-5.1,0-1.7,0-3.3,0-5,2.5.9,5.2.6,7.7,1.5Z"/>
  <path class="cls-71" d="M357.2,290.5c0-2.7,0-5.3,0-8,2.4-2,4.8-2,7.2,0,0,.2,0,.5,0,.7q0,7.3-7.2,7.3s0,0,0,0Z"/>
  <path class="cls-71" d="M349.3,274.7c0-2.7,0-5.3,0-8,2.4-2,4.8-2,7.2,0,0,.2,0,.5,0,.7q0,7.2-7.3,7.2s0,0,0,0Z"/>
  <path class="cls-33" d="M341.5,250.8c2.3,1.3,4.7.5,7.1.7,0,1.1,0,2.1,0,3.2,0,3.8-2.4,5.3-5.9,4-1.1-.4-1.3-1.3-1.3-2.2,0-1.9,0-3.8,0-5.7Z"/>
  <path class="cls-89" d="M365.3,313.5c5,0,10.1,0,15.1.1,0,.2,0,.5,0,.7-4.2,0-8.4,0-12.5,0-1.2,0-2.4.3-3.4-.7.3,0,.5,0,.8-.1Z"/>
  <path class="cls-30" d="M310.5,219.7c-1.6-2.8-.5-5.9-.7-8.8-.2-2.3-.2-4.6-.2-6.8,0-.1.1-.2.2-.4.3-.1.5,0,.7.2,0,0,0,0,0,0,0,5.3,0,10.5,0,15.8Z"/>
  <path class="cls-33" d="M348.6,251.5c0-2.6,0-5.2,0-7.9.2-.3.5-.3.7,0,0,2.6,0,5.3,0,7.9-.2,0-.5,0-.7,0Z"/>
  <path class="cls-50" d="M349.3,243.6c-.2,0-.5,0-.7,0-2.1,0-4.3,0-6.4-.1,0-.2,0-.4,0-.6,2.4.2,4.9-.8,7.2.7Z"/>
  <path class="cls-71" d="M239.7,282.6c-.5-2.6.5-5.4-.8-7.9-.3-.4-.8-.7-.8-1.2.7-4.3-1.6-5.7-5.4-5.9-.4,0-.8-.5-1.2-.8h0c-2.5-4.6-1.6-9.5-.7-14.3.5-2.5,3.2-2,5.2-2,1.8,0,3.4.4,3.8,2.5.2,1.2.7,2.3,1.3,3.3.9,1.1,2.3.9,3.5,1.1,1.5.3,2.9.8,3.7,2.3.3.7.6,1.4.5,2.1,0,2.4,1,3.5,3.4,3.5,1,0,1.8.6,2.5,1.3,0,0,0,.2,0,.2,0,.2,0,.4,0,.6-1,1.2-2.5,1.2-3.9,1.4-1.4.2-1.7,1.1-1.7,2.3,0,1.1.5,1.8,1.7,1.9,1.4.2,2.9.2,3.9,1.4,0,8,0,16,0,24-2.4,2-4.8,1.9-7.2-.1,0-3.9-.2-7.9,0-11.8.2-3.1-.8-4.5-4-4.1-1.3.2-2.6,0-3.9,0Z"/>
  <path class="cls-71" d="M262.7,392.4c-5,0-10.1,0-15.1,0,0-4.3.1-8.6,0-12.9,0-2.4.9-3.1,3.2-3.1,3.4,0,6.6,1.1,10,.8,1.9-.2,1.9,1.3,1.9,2.7,0,4.2,0,8.4,0,12.6Z"/>
  <path class="cls-114" d="M247.6,345.3c0-2.6,0-5.3,0-7.9,2.3-2,4.7-2.1,7.1-.1,0,2.7,0,5.4,0,8.1-2.4,2-4.8,1.9-7.1-.1Z"/>
  <path class="cls-28" d="M246.8,384.3c-2.4,0-4.8,0-7.2,0,0-2.6,0-5.3,0-7.9q7.3.1,7.2,8Z"/>
  <path class="cls-70" d="M247.6,353.3c2.4,0,4.7,0,7.1,0,0,1.3,0,2.6,0,3.9.2,2.5,0,4.3-3.4,4.2-3.4,0-4-1.7-3.8-4.5,0-1.2,0-2.4,0-3.6Z"/>
  <path class="cls-119" d="M254.6,313.8c-2.3,0-4.7,0-7-.1,0-2.4,0-4.9,0-7.3,2.3,0,4.7,0,7-.1,0,2.5,0,5,0,7.5Z"/>
  <path class="cls-71" d="M249.8,329.4c-.7,0-1.4,0-2.2,0,0-2.4,0-4.8,0-7.2,2.4-.6,4.8-.6,7.1,0,0,.5,0,1,0,1.5-1,2.5-3,4.1-4.9,5.7Z"/>
  <path class="cls-57" d="M249.8,329.4c.4-3,2.8-4.2,4.9-5.7,0,1.9,0,3.9,0,5.8-1.7,0-3.3,0-5-.1Z"/>
  <path class="cls-57" d="M254.7,322.3c-2.4,0-4.8,0-7.1,0,0-.2,0-.5,0-.7,2.4,0,4.8,0,7.2-.1,0,.3,0,.5,0,.8Z"/>
  <path class="cls-95" d="M231.6,266.8q8-.3,7.3,7.8c-2.4,0-4.8,0-7.2,0,0-2.6,0-5.2,0-7.9Z"/>
  <path class="cls-69" d="M145.1,227.6c0,2.7,0,5.3,0,8-4.1,0-8.1,0-12.2,0-1.6,0-2.7.2-2.9,2.2-.6,5.6-.7,5.6-6.4,5.7-.5,0-1,0-1.4,0,0-.3,0-.5,0-.8-2.2-2.2-1.5-4.7-.8-7.3,1.4-2.5.4-5.3.8-7.9,7.7,0,15.4,0,23.1-.1Z"/>
  <path class="cls-94" d="M106.3,274.8c8.8-.3,6.9-.5,7.1,6.9,0,4.1-.1,8.1,0,12.2.1,2.9-.7,3.9-3.8,4-3.4,0-3.7-1.5-3.6-4.2.1-3.7,0-7.4,0-11.1,0-2.6.1-5.2.2-7.8Z"/>
  <path class="cls-36" d="M83.1,290.3c0-6.7.2-13.4,0-20.1,0-3,1.6-2.8,3.6-2.9,2.1,0,3.6,0,3.6,3-.2,6.7,0,13.4,0,20.1-2.4,2.1-4.8,2.2-7.2-.1Z"/>
  <path class="cls-86" d="M98.3,289.1c0,.5,0,.9-.1,1.4-8.4,0-7,1-7.1-6.9,0-3,0-6,0-9,2.4-2,4.8-1.9,7.2,0,0,4.8,0,9.7,0,14.5Z"/>
  <path class="cls-5" d="M106.2,267.4c-.6-.1-1.2-.4-1.8-.4q-5.5-.2-5.5-5.6c0-1.9,0-3.8,0-5.8,0-3.8,2.6-5.4,6-4,1.4.6,1.2,1.7,1.2,2.7,0,4.3,0,8.7,0,13,0,0,0,0,0,0Z"/>
  <path class="cls-107" d="M99,235.8q6.7-.1,7.2,7.8c0,1.1-.3,2.2,0,3.2.6,3.7-1.2,4.5-4.5,4.2-1.9-.2-2.9-.6-2.8-2.7.1-4.2.1-8.3.2-12.5Z"/>
  <path class="cls-7" d="M91,251.5q7.2.4,7.2,7.8c0,1,0,1.9,0,2.9,0,4.2-1.8,5.5-5.9,4.4-1.5-.4-1.2-1.5-1.3-2.5,0-4.2,0-8.4,0-12.5,0,0,0,0,0,0Z"/>
  <path class="cls-117" d="M121.3,235.6c1.6,2.3.5,4.9.8,7.3-2.5,1.3-5.3.4-7.9.8-.2-.1-.4-.3-.5-.4-1.4-2.6-1.5-5.2.5-7.6,2.4,0,4.8,0,7.2-.1Z"/>
  <path class="cls-67" d="M83.1,290.3c2.4,0,4.8,0,7.2.1,0,.1,0,.2,0,.4q.1,7.6-7.3,7.7s0,0,0,0c0-2.7,0-5.5,0-8.2Z"/>
  <path class="cls-15" d="M114.2,243.7c0,1.1-.1,2.2,0,3.2.1,2.6,0,4.7-3.6,4.7-3.6,0-3.8-2-3.7-4.7,0-1.1,0-2.2,0-3.2,0,0,.2-.2.2-.2,2.3-1.8,4.6-1.8,6.9,0l.2.2Z"/>
  <path class="cls-71" d="M184.9,141.9c8.9,0,17.7,0,26.6,0,3.2,0,6.4-.4,9.6-.6,1.7-.1,2.6.5,2.7,2.4.4,5.5.5,5.5,6.1,5.5.6,0,1.2,0,1.8,0,0,0,0,0,0,0,.9,4.4,3.6,7,7.9,7.9h0c.6.6,1.3,1.3,1.2,2.1-.1,3.1,1.4,4.5,4.5,4.7,1.7.2,2.6,1.7,2.6,3.4,0,1.7.4,3.3.7,5,0,.4.1.8.2,1.2.6,6.6.3,13.1.2,19.7,0,2.3-1.4,4.1-3.6,4.4-3.5.4-4.4,2.6-4.7,5.5-.1.4-.3.7-.5,1-.1.2-.3.4-.5.5-4.3.6-7.1,2.9-7.9,7.2h0c-1.3,1.4-2.9,1.5-4.6,1.5-7.2,0-14.4,0-21.6,0-4.6,0-5.3-.6-6.3-5.1-.4-2.1-1.6-2.8-3.5-2.8-2.4,0-4.8,0-7.2,0-2.9,0-4.8-1.3-5.1-4.4-.2-2.3-1.4-3.4-3.7-3.6-2.5-.2-4-1.5-4.3-4.1-.2-2.3-1.5-3-3.6-3.2-3.1-.2-4.4-2.1-4.4-5.1,0-6.7-.3-13.4.2-20.2,0-2.7-1-5.6,1.4-7.9h0c4.4-.9,7-3.6,8-7.9q7.6.2,7.9-7.2Z"/>
  <path class="cls-56" d="M169,157.1c0,2.6,0,5.2-.1,7.8-2.6,2.1-5.2,2.3-7.9.1,0-2.6,0-5.2.1-7.8,2.6,0,5.2,0,7.9-.1Z"/>
  <path class="cls-85" d="M177,149.1c0,.1,0,.2,0,.4q-.2,7.7-8,7.6,0-7.9,8-8Z"/>
  <path class="cls-61" d="M176.8,133.9c0-2.7,0-5.3,0-8,2.6,0,5.3,0,7.9,0,0,9.2.8,7.7-8,7.9Z"/>
  <path class="cls-116" d="M161.9,134.2q7.1-.3,7.1,7c-9.1.2-7.1.5-7.1-7Z"/>
  <path class="cls-105" d="M154.5,149.2c-1.4-1.8-.6-3.8-.7-5.8,0-1.3.9-1.5,1.9-1.5,1.8,0,3.5,0,5.3,0q0,6.9-6.5,7.3Z"/>
  <path class="cls-71" d="M294.4,219.9c0,5.2,0,10.5,0,15.7-.2.3-.5.7-.7.7-4.7,0-6.1,3.1-6.4,7.1-.2.3-.5.6-.8.8-.5.2.2.1-.3.2-3.7.3-6.8,1.4-6.8,6,0,.4-.5.8-.9,1.1-4.5,1.7-9.3.8-13.9.9-2,0-3-1.9-3.2-3.8-.2-2.3-1.3-3.3-3.6-3.6-2.6-.3-4.1-1.9-4.4-4.5-.2-2.2-1.2-3.2-3.4-3.4-2.2-.2-3.6-1.6-3.7-3.8-.3-6.5-.3-13,0-19.5,0-.8.4-1.6,1-2.3,2.2-1.7,4.8-1.1,7.3-1,1.2,0,2.4-.2,3.6-.3,1.8,0,2.9-.9,3.1-2.8.3-3.2,2.2-4.2,5.2-4,4,.3,8.1-.6,12.1.5.4.3.8.6.9,1.1.4,3.4,1.7,5.6,5.7,5.6,1.9,0,2.7,1.9,2.8,3.6,0,2.6.9,4.1,3.8,4,1.1,0,2.1.5,2.8,1.4Z"/>
  <path class="cls-108" d="M294.4,219.9c-.6,0-1.2,0-1.8-.1-5.4-.2-5.4-.2-6.1-5.8-.1-1.2-.4-1.9-1.8-2.1-2-.3-4.7,1.3-5.8-1.1-.8-1.7-.3-4-.4-6-.3-.3-.5-.7-.7-1-.9-2.5-.9-4.9,0-7.4.2-.4.5-.7.9-.9,2.8-.6,5.5-.5,8,1,.4.4.7,1,.8,1.5,1.3,4.5,1.3,4.4,6.1,4.5,2.7,0,5.5-.5,8.1.7.4.2.6.5.8.9,0,.6-.1,1.2-.1,1.8-.2,5.5-.1,5.6-5.5,6-1.9.1-2.5,1-2.4,2.7,0,1.8,0,3.6,0,5.4Z"/>
  <path class="cls-89" d="M301.7,243.6c0,.1,0,.2,0,.4q0,6.2-6,7c-.4,0-.8.4-1.3.6-.4.4-.9,1-1.5,1-3.3.1-5,1.5-5.6,5-.5,2.7-4.4,3.4-8.8,1.9,0-.3,0-.5,0-.8-2-3.2-2-4.9.3-7.9,0,0,.1-.2.2-.3,4-.7,6.4-3.1,7.3-7h0c2.7-2,5.4-2.1,8,0,2.4,0,4.8,0,7.2,0Z"/>
  <path class="cls-92" d="M294.5,243.6c-2.7,0-5.3,0-8,0q.2-7.8,7.8-7.9c0,2.7.1,5.3.2,8Z"/>
  <path class="cls-30" d="M309.5,204.1c-2.3,0-4.6,0-7,0,0,0-.2-.2-.2-.2-2-2.3-1.8-4.8-.6-7.3.8-1.7,2.5-2,4.3-2,2.5.1,4.1,1.1,4,3.9,0,1.8.2,3.6-.2,5.3l-.2.3Z"/>
  <path class="cls-108" d="M254.8,211.8c-2.4,0-4.7.1-7.1.2-2.7,1.9-5.4,2-8.1-.2h0c-2.1-2.6-2.2-5.2,0-7.8h0c.2-.3.4-.7.7-.8,3.5-.6,6.1-1.8,6.4-6,0-1.2,1.8-2.4,3.3-2.4,3.1-.2,4.2-1.7,4-4.6,0-.7.3-1.4.7-2,1-1.2,2.3-1,3.6-1,1.4,0,2.7-.2,2.7-2,0-1,.3-2.3-1.1-2.8-1.5-.5-2.8-.2-3.5,1.5-.3.6-.7,1.3-1.5,1.4-2.2-1.2-1.7-3.2-1.5-5.1.5-4.9.5-4.9-4-6.1-.8-.2-1.5-.7-2.1-1.3h0c-.6-2.7-.6-5.3,0-8,3.8,0,7.7.2,11.5,0,2.9-.2,4,.9,3.7,3.7-.2,1.4-.2,2.9.7,4.2-1.3,1.8-.8,3.9-.6,5.9.2,2.7,2.5,2.1,4.2,2.1,2.1,0,3.7,0,3.7,2.9,0,5,.2,5,5.2,5,.8,0,1.7,0,2.5,0,2.4,2.4,2,4.8,0,7.3h0c-4.6.8-6.9,3.9-8,8.2-3.6.4-7.2,0-10.9,1.1-2.1.7-3.5,1-3.5,3.5,0,1.2-.5,2.3-1.4,3.1Z"/>
  <path class="cls-36" d="M294.6,150.5c3.1-2.2,3.7-6.1,6.7-8.6,1.1,2.2-.3,4.8.8,7.1.9,1.1,2.2,1,3.3.8,3.7-.5,4.6,1.2,4.2,4.5-.1,1.1,0,2.1,0,3.2,0,9.1.8,7.2-7.3,7.5-.9-4.4-3.5-7.1-7.9-8,0-2.2,0-4.3,0-6.5Z"/>
  <path class="cls-88" d="M294.5,157q7.9,0,7.9,8s0,0,0,0c-4.4.9-7.1,3.6-8,8h0c-2.2,1.9-4.7,1.7-7.2.8-.4-.2-.7-.5-.8-.9,0-3.9.3-7.9,0-11.8-.2-3.2,1-4.4,4.1-4,1.3.2,2.6,0,3.9,0Z"/>
  <path class="cls-80" d="M278.6,196c0-2.4,0-4.9,0-7.3,0-2.6.1-5.2.2-7.8,2.3-2.2,4.9-1.8,7.5-.8.4.2.7.5,1,.9,1.3,2.6.7,5.3.6,7.9,0,2.6,1.2,5.5-1.4,7.7-2.6.3-5.2-.1-7.8-.6Z"/>
  <path class="cls-19" d="M271.4,156.3c0-3.9,0-7.9-.2-11.8-.1-3.2,2.1-2.5,3.9-2.6,1.8,0,3.6-.3,3.5,2.6-.2,3.5,0,6.9,0,10.4-2,2.3-4.6,1.9-7.1,1.4Z"/>
  <path class="cls-108" d="M286.6,180.9c-2.6,0-5.2,0-7.8,0q-.4-7.8,7.7-8.2s.2.2.2.2c1.9,2.6,2.1,5.3,0,7.9Z"/>
  <path class="cls-68" d="M282.9,149.1c-2.9.6-3.6-.8-3.7-3.6,0-2.9,1-3.6,3.7-3.7,2.9,0,3.7.9,3.7,3.7,0,2.8-.9,4-3.7,3.5Z"/>
  <path class="cls-43" d="M271.4,156.3c2.5.1,4.8-.5,7.1-1.4.2,1.2,0,2.3-1.5,2.1-1.9-.2-3.9.8-5.7-.7Z"/>
  <path class="cls-22" d="M161,165c2.6,0,5.3,0,7.9-.1,0,6.9.1,13.7,0,20.6,0,2.5.8,3.6,3.3,3.3,3.5-.5,5.3.7,4.7,4.5-.4,2.3.9,3,3,2.8,3.7-.4,5.5,1.1,4.9,4.9-.3,2.5,1,3.1,3.2,3,3-.1,6,0,9,0,2.6-.1,3.9.9,3.6,3.6-.5,3.5.9,4.5,4.4,4.4,8.9-.2,17.8,0,26.7,0q0,7.9-8,7.9c-11.7,0-23.3,0-35,0-2.8,0-4.5-.6-3.9-3.7.6-3.6-1.2-4.7-4.5-4.3-2.7.4-3.9-.8-3.4-3.5.6-3.8-1.1-5-4.6-4.5-2.4.4-3.8-.5-3.4-3.1.6-3.7-.8-5.4-4.6-4.8-2.5.4-3.6-.8-3.2-3.3.4-2.8-.5-4.5-3.7-4-2.9.4-3.8-.9-3.6-3.7.1-1.6.4-3.4-.5-4.9,0-2.4,0-4.8,0-7.2,0,0,0,0,0,0,4.4-.9,7-3.6,8-8h0Z"/>
  <path class="cls-51" d="M247.6,164.9c0,2.7,0,5.3,0,8-.2-.5-.7-1.1-.6-1.6.4-4.1,0-7.4-5.5-6.4-1.4.2-1.7-.9-1.7-2.1,0-1.9,0-3.8,0-5.7q7.5,0,8,7.9Z"/>
  <path class="cls-44" d="M239.6,157.1q-7.9,0-7.9-7.9,7.8.1,7.9,7.9Z"/>
  <path class="cls-27" d="M169.1,250.9c0,.2,0,.4,0,.7,0,.1,0,.2,0,.4q-.2,6.1-6.2,7c-.6,0-1.1.4-1.6.7,0-.3-.1-.6-.2-.9-2-2.2-1.7-4.6-.7-7.1,2.2-2.8,5-2.5,7.9-1.7.4.2.7.5.9,1Z"/>
  <path class="cls-32" d="M121.9,345.2c0-2.6.1-5.2.2-7.8,7.4,0,7.4,0,7.4-7.3,0-7.9-.2-15.8-.2-23.7.4,0,.7,0,1.1,0,1.6,2.4,1.7,4.8-.2,7.1,0,6.6.2,13.2-.1,19.8-.2,3.5,1.1,4.5,4.3,4.1.9-.1,1.9,0,2.9,0,.3,0,.5,0,.8,0,0,2.4,0,4.8,0,7.2-1.2,1.5-.8,3.2-.6,4.8.3,3.3-1.1,4.3-4.1,3.9-1-.1-2.1,0-3.2,0-.7-4.7-4-6.7-8.1-8.1Z"/>
  <path class="cls-26" d="M341.6,203.9c0-2.7-.2-5.3-.3-8-1.9-2.5-2-4.8.2-7.2,2.3,0,4.6,0,7,.1,0,3.6,0,7.2.2,10.8.3,3.4-1,4.6-4.2,4.2-.9-.1-1.9,0-2.9,0Z"/>
  <path class="cls-36" d="M349.3,219.8c0-2.7,0-5.3-.1-8-1.9-2.5-1.9-4.8.3-7.1q7,.1,7,7.2c0,2.6,0,5.2,0,7.8-2.4,2.3-4.7,2-7.2,0Z"/>
  <path class="cls-36" d="M341.4,211.9c0,4.1-.1,8.2,0,12.2.1,2.9-1.5,3-3.6,3-2.1,0-3.9,0-3.7-2.9.2-2.7.3-5.5,0-8.3-.3-3.1.8-4.5,4-4,1.1.2,2.2,0,3.2,0h0Z"/>
  <path class="cls-47" d="M349.3,219.8c2.4,0,4.8,0,7.2,0,.3,0,.5,0,.8.1,0,2.2,0,4.3,0,6.5,0,.4-.2.8-.2,1.3-2.9,2.2-4.6,2.2-7.8.1,0,0,0,0,0,0,0-2.6,0-5.3,0-7.9Z"/>
  <path class="cls-61" d="M349.5,204.7c0,2.4-.2,4.8-.3,7.1-2.6,0-5.2,0-7.9,0,0,0,0,0,0,0q0-7.4,8.1-7.2Z"/>
  <path class="cls-70" d="M145.2,290.6c0-2.7,0-5.3,0-8-1.4-1.2-1.5-2.9-1.5-4.6,0-7.5,0-15.1,0-22.6,0-4.3.7-5.2,4.9-6,2-.4,2.9-1.4,2.9-3.4,0-2,0-4.1,0-6.1,0-1.6.3-3.1,1.6-4.2,2.6,0,5.2,0,7.8,0,.9.8,1.5,1.9,1.4,3.1-.2,4.3,1.1,8.7-1.3,12.8,0,2.4,0,4.8-.1,7.1-8.5.4-8.1-1.6-7.8,8.3.1,6.4-1,12.9,1,19.3.4,1.4-.4,2.8-1.1,4.1-2.6,0-5.2,0-7.8.1Z"/>
  <path class="cls-35" d="M161.1,165q0,7.7-8,8,0-8,8-8Z"/>
  <path class="cls-83" d="M145.9,157c0-1.2.1-2.4,0-3.6-.4-3.1.9-3.8,3.8-3.8,2.6,0,3.8.6,3.5,3.4-.2,1.3,0,2.6,0,3.9-2.4,0-4.8,0-7.2,0Z"/>
  <path class="cls-2" d="M137.8,157.7c1.3,0,2.6.2,3.9,0,2.6-.3,3.6.8,3.5,3.4-.2,3.4-3.3,5.2-6.3,3.6-.9-.5-.8-1.3-.9-2.1,0-1.7-.2-3.3-.2-5,0,0,0,0,0,0Z"/>
  <path class="cls-32" d="M286.4,196.6c0-2.6.1-5.2.2-7.8.2-.3.5-.6.8-.7,3.9-1.9,5.1-3.1,6.6-7,.1-.1.3-.2.4-.3,2.7,0,5.3,0,8,0,0,1,0,1.9,0,2.9,0,4.8,0,5,4.7,5,2.6,0,3.3,1,3.2,3.4-.1,3.9,0,7.9,0,11.8-.2,0-.4,0-.6,0,0-1.4-.2-2.9,0-4.3.2-2.7-1.1-3.5-3.6-3.6-2.7,0-4.1.7-3.7,3.6.2,1.4,0,2.8,0,4.3-4,0-7.9,0-11.9.1-2.9.2-4.3-.7-3.9-3.8.1-1.2,0-2.4-.1-3.6Z"/>
  <path class="cls-40" d="M286.6,180.9c0-2.6,0-5.2,0-7.9,2.6,0,5.2,0,7.9-.1,0,2.6,0,5.3,0,7.9,0,0,0,0,0,0-2.6,2.2-5.3,2.1-7.9,0h0Z"/>
  <path class="cls-94" d="M294.5,172.9q0-7.9,8-8-.1,7.9-8,8Z"/>
  <path class="cls-98" d="M271.4,282.7c0-4,.1-7.9,0-11.9-.2-3.1.7-4.6,4-4.1,1.1.2,2.2,0,3.2,0,.2.1.5.2.6.4.7,3.9,2.2,6.7,6.8,6.8,1.3,0,2,1.8,1.9,3.1,0,3.1,1.4,4.3,4.3,4.2.7,0,1.4.3,2,.8.1.1.2.3.4.4q-.1,8-8,8c-2.6,0-5.2,0-7.8,0,0-.2,0-.5,0-.7-.3-.4-.1.2-.2-.3-.7-4-3.5-5.8-7-6.8Z"/>
  <path class="cls-49" d="M302.4,267.5c0-1.3.2-2.6,0-3.9-.5-3.4,1.1-4.3,4.3-4.2,2.4.1,3,1,3.1,3.2,0,2.6-.7,5.2.6,7.7q.1,4.6-4.4,4.5c-1.2,0-2.4,0-3.6-.1,0,0,0,0,0,0-1.9-2.4-2.2-4.8,0-7.2Z"/>
  <path class="cls-69" d="M239.7,258.8c-1-1-.8-2.2-.7-3.4.3-3-.8-3.9-3.8-3.9-3.1,0-3.6,1.3-3.5,3.9.1,3.8,0,7.6,0,11.4-.1,0-.2,0-.4,0q-7.3,0-7.5-7.3c-1.4-1.4-3.2-.8-4.7-.7-2.6.1-3.3-1.1-3.2-3.4.1-2.1-.4-4.4,3-4.5,5-.2,5-.4,5-5.4,0-.6,0-1.2,0-1.8,4.4-2.9,8.1-1.7,9.4,3.2.4,1.7,1.3,2.4,2.9,2.5,1.4,0,2.9.3,3.9,1.4,1.5,2.7,1.8,5.4-.4,8Z"/>
  <path class="cls-67" d="M325.5,164.8c0,2.7,0,5.4,0,8.1,0,0,0,0,0,0q-7.4,0-7.2-7.9c2.3-2,4.7-2,7.2-.2Z"/>
  <path class="cls-20" d="M325.6,184.5c-.6,1.4-1.5,2.9,0,4.3-2.5,2.1-4.9,1.9-7.1-.6,0-1.2,0-2.4-.1-3.5-.2-2.5.2-4,3.4-3.9,2.8,0,4.3.6,3.9,3.7Z"/>
  <path class="cls-72" d="M318.4,188.2c2.3.7,4.7.7,7.1.6.3,8.9.8,7.1-7.2,7.2,0-2.6,0-5.2,0-7.8Z"/>
  <path class="cls-118" d="M325.5,164.8c-2.4,0-4.8.1-7.2.2,0-1.2,0-2.4-.2-3.6-.4-2.9.8-3.9,3.8-3.9,2.9,0,3.9,1,3.5,3.8-.1,1.2,0,2.4,0,3.6Z"/>
  <path class="cls-18" d="M341.5,188.8c0,2.4-.2,4.8-.2,7.2-1.2,0-2.4,0-3.6,0-4.2,0-4.6-.5-4.3-4.8.1-1.6.7-2.4,2.4-2.4,1.9,0,3.8,0,5.7,0Z"/>
  <path class="cls-106" d="M239.6,211.9c2.7,0,5.4,0,8.1.2,0,6.8,0,13.7-.2,20.5,0,2.6,1,3.5,3.4,3.2,3.3-.5,4.3,1.1,3.9,4.1-.3,2.7.8,4.2,3.6,3.8,3.2-.4,4.7.6,4.3,4.1-.4,3,.7,3.9,4,3.4,3.9-.6,7.9-.2,11.8-.3.3-.2.5-.2.8,0-1.4,2.5-.5,5.2-.8,7.9-7.9,0-15.9,0-23.8,0-.2-.1-.3-.2-.5-.3-.6-.7-.9-1.5-.9-2.3.1-2.7-1.1-3.9-3.8-4.1-2-.1-3.3-1.6-3.4-3.6,0-2.6-1.4-3.5-3.9-3.5-1.3,0-2.6-.4-3.5-1.6-1-5-1.9-10,.6-14.8,0-5.6,0-11.1,0-16.7Z"/>
  <path class="cls-19" d="M302.4,267.5c0,2.4,0,4.8,0,7.2-.1,0-.2,0-.4,0q-7.7,0-7.5,7.8c-.8,0-1.7,0-2.5,0-5.2,0-5.3,0-5.5-5.2,0-1.6-.2-2.6-2.3-2.8-5.5-.4-5.5-.5-5.6-6.1,0-.6,0-1.2-.1-1.8,0-2.4,0-4.8,0-7.2.6-.2,1.1-.6,1.7-.6,4.2.4,7.3-.3,6.4-5.7-.2-1.4.9-1.8,2.1-1.8,1.9,0,3.8,0,5.7,0,0,2.4,0,4.8,0,7.2,0,2.4-.6,5,.4,7,1.1,2.3,4.1.5,6.2,1.2.4.2.9.4,1.3.6Z"/>
  <path class="cls-23" d="M239.7,258.8c0-2.6,0-5.3,0-7.9.1-.2.3-.3.4-.5,5-2,7.9-.6,8.9,4.3.3,1.6.9,2.6,2.7,2.7,1.2,0,2.3.6,3.1,1.5,0,0,0,0,0,0,0,.2,0,.5,0,.7-2.2,2-4.6,1.8-7.2.7-2.2-2.7-5.3-.5-7.9-1.5Z"/>
  <path class="cls-64" d="M271.4,282.7c8.8-.2,7.1-1,7.2,7.1q-7.2,0-7.2-7.1Z"/>
  <path class="cls-11" d="M247.6,260.2c2.3-1.2,4.8-.6,7.2-.7,0,2.4,0,4.8,0,7.2-.5,0-1,0-1.4,0q-6.2,0-5.8-6.5Z"/>
  <path class="cls-11" d="M239.6,228.5c0,5,.1,10,.2,15,1.9,2.5,1.9,4.9,0,7.3,0,0,0,0,0,0-1.1,0-2.2,0-3.2.1-3.6.5-5.5-.6-4.8-4.6.4-2.2-.8-3-2.9-2.9-1.7.1-3.3,0-5,.1-4.1,0-8.2.1-12.2,0-3-.2-3.8,1-3.6,3.8.2,2.7,0,5.5,0,8.3.1,2.4-.8,3.1-3.1,3.1-6.7-.1-13.4,0-20.2,0-.4-.3-.6-.7-.4-1.2,3,1.5,3.2-3.2,6-2.7.9.1,1-1.4,1.1-2.4,0-4,0-8.1,0-12.1,0-1.6-.1-3.4,1.4-4.5,9.1,0,18.3-.1,27.4,0,2.8,0,4.1-.8,3.7-3.7-.6-3.5,1-4.8,4.4-4.3,3.8.5,7.7-.8,11.4.8Z"/>
  <path class="cls-62" d="M153.2,235.7c0,4-.2,7.9,0,11.9.1,2.7-.7,3.9-3.4,3.4-3.8-.7-4.8,1-4.7,4.7.3,9,0,18,0,27-2.4,0-4.8,0-7.2,0,0-10.3,0-20.7,0-31-1.6-1.7-3.6-.8-5.4-.9-2.6,0-2.5-1.6-2.5-3.4,0-1.7-.6-3.9,2.4-3.8,3,0,6-.2,9,0,2.9.2,4.3-.7,3.9-3.8-.2-1.3,0-2.6,0-4,2.6,0,5.3,0,7.9-.1Z"/>
  <path class="cls-36" d="M129.1,258.5c-8.3.1-7,1.1-7-6.9,6.6-1.4,7.4-.6,7,6.9Z"/>
  <path class="cls-86" d="M121.9,345.2c.2,0,.5,0,.7,0q7.4.3,7.4,8t-7.5,7.3c-2.9,0-5.7,0-8.6,0,0-5.1.1-10.1.2-15.2,2.6,0,5.2,0,7.8-.1Z"/>
  <path class="cls-36" d="M138,345.4q7-.3,7,6.5c0,2.8,0,5.5,0,8.3q-7.2.6-7.1-6.3c0-2.8,0-5.7.1-8.5Z"/>
  <path class="cls-102" d="M302.5,258.8c0-8.2-1.5-7.2,7-7q.3,7-7,7Z"/>
  <path class="cls-87" d="M192.7,235.7c0,4.7,0,9.4,0,14.2,0,1.1,0,2.2-1.4,2.5-7.3-2.2-14.8-1.3-22.3-1.4,0,0-.1-.1-.1-.1-1.8-1.9-1.8-4.1-.8-6.3,1-2.2,3.1-2.3,5.2-2.4,2.1,0,4.3,0,6.4,0,2.3,0,3.7-.8,3.7-3.3,0-1.3.3-2.6,1.3-3.6,2.8-1.5,5.5-1.7,8.1.4,0,0,0,0,0,0Z"/>
  <path class="cls-36" d="M192.8,235.7c-2.7,0-5.3,0-8,0-3.4,2.1-10.6,2.1-13.6-.2-1.6-.6-2.3-1.6-2.3-3.4.1-4.1,0-8.2,0-12.4.8,0,1.7,0,2.5,0,5.2,0,5.3,0,5.4,5,0,2.2.8,3,2.9,2.9,3.2-.1,6.5.1,9.7,0,2.6-.1,3.5.9,3.3,3.3-.1,1.5,0,3.1,0,4.7Z"/>
  <path class="cls-91" d="M239.8,204c0,2.6,0,5.2,0,7.8-2.7,0-5.3,0-8,0,.3-2.5-1.2-5.9.9-7.3,1.6-1,4.7.2,7.1-.5Z"/>
  <path class="cls-69" d="M171.2,235.6c4.5,0,9.1.1,13.6.2q.1,7.9-7.6,7.9h-1.1q-7.1,0-7.2,7.2c-2.6.4-5.3-.6-7.8.8,0-5.3,0-10.6-.1-15.9,3.4,0,6.8,0,10.2-.1Z"/>
  <path class="cls-63" d="M349.4,227.7c2.6,0,5.2,0,7.8-.1,0,1.1.1,2.1.1,3.2,0,5.1,0,5.1-5.1,4.9-2.2,0-2.9-1-2.8-3,0-1.7,0-3.3,0-5Z"/>
  <path class="cls-54" d="M255.6,188c0,.7,0,1.4-.1,2.2,0,5.2,0,5.2-5,5.9-1.8.3-3.2,1-2.8,3,.7,4.5-1.5,5.5-5.3,5-.8-.1-1.7,0-2.5,0,0-.8,0-1.7,0-2.5-.4-3.2.2-5.3,4.2-4.9,2.4.2,3.8-1.1,3.8-4-.2-6.6,0-13.1,0-19.7q8.2,0,7.3,8.5c-.1,1.3-.3,2.6.6,3.8.9.9.8,1.9,0,2.8Z"/>
  <path class="cls-98" d="M254.8,211.8q.2-7.8,8.1-7.9c2.6,0,5.3,0,7.9-.1,2.6-2,5.2-1.9,7.8.1,0,.3,0,.5,0,.8-4.3,0-8.6,0-12.9,0-1.6,0-2.7.2-2.9,2.2-.5,5-.6,5-5.8,5-.7,0-1.4,0-2.1,0Z"/>
  <path class="cls-76" d="M279.4,250.9c-.3,0-.5,0-.8,0q.1-7.2,7.9-7.2c0,8.6.9,7.2-7.1,7.3Z"/>
  <path class="cls-80" d="M278.6,203.9c-2.6,0-5.2,0-7.8-.1q-.3-7.5,7.8-7.8c0,2.7,0,5.3,0,8Z"/>
  <path class="cls-24" d="M255.6,188c0-.9,0-1.9,0-2.8.5-1.6-1.1-4.6,2.5-4.3,1.5,0,3.5-.8,4.3.8.9,1.8.6,4,.2,6-.3,1.4-1.7,1.1-2.7,1.1-1.4-.1-2.8-.4-4.2-.7Z"/>
  <path class="cls-120" d="M286.5,180.8c2.6,0,5.3,0,7.9,0q.1,7.7-7.8,8c0-2.7,0-5.3,0-8Z"/>
  <path class="cls-108" d="M239.6,250.8c0-2.4,0-4.9,0-7.3.8,0,1.7.1,2.5,0,3.6-.4,6.2.2,5.4,4.8-.3,1.5.5,2.3,2.2,2.5,5.1.6,5.1.6,5.1,5.7,0,.7,0,1.4,0,2.1-.9,0-1.9,0-2.8,0-3.3.4-5-.6-4.4-4.2.4-2.7-.8-4-3.6-3.8-1.4.1-2.8,0-4.3,0Z"/>
</svg>