<?xml version="1.0" encoding="UTF-8"?>
<svg xmlns="http://www.w3.org/2000/svg" version="1.1" viewBox="0 0 1024 1024">
  <defs>
    <style>
      .cls-1 {
        fill: #5d76ac;
      }

      .cls-2 {
        fill: #495f8a;
      }

      .cls-3 {
        fill: #2b3958;
      }

      .cls-4 {
        fill: #001146;
      }

      .cls-5 {
        fill: #41547d;
      }
    </style>
  </defs>
  <!-- Generator: Adobe Illustrator 28.6.0, SVG Export Plug-In . SVG Version: 1.2.0 Build 709)  -->
  <g>
    <g id="Layer_1">
      <g>
        <g>
          <g>
            <g>
              <rect class="cls-5" x="12.3" y="780.2" width="504.2" height="247"/>
              <polygon class="cls-3" points="516.5 882.5 471.7 882.5 471.7 805.2 284.9 805.2 284.9 837.9 127.4 837.9 127.4 891.5 12.3 891.5 12.3 945 150.8 945 150.8 1027.3 226.7 1027.3 226.7 918.3 337.4 918.3 337.4 971.9 419.2 971.9 419.2 936.1 516.5 936.1 516.5 882.5"/>
            </g>
            <rect class="cls-2" x="419.2" y="915.4" width="77.3" height="38.7"/>
            <rect class="cls-2" x="282.9" y="835.3" width="77.3" height="38.7"/>
            <rect class="cls-2" x="80.8" y="890.4" width="77.3" height="38.7"/>
          </g>
          <rect class="cls-4" x="12.3" y="855.2" width="504.2" height="13.9"/>
          <rect class="cls-4" x="12.3" y="953" width="504.2" height="13.9"/>
          <rect class="cls-4" x="261.9" y="780.2" width="22.3" height="81.8"/>
          <rect class="cls-4" x="261.9" y="956.1" width="22.3" height="71.3"/>
          <rect class="cls-4" x="99.8" y="863.5" width="22.3" height="92.5"/>
          <rect class="cls-4" x="413.1" y="863.5" width="22.3" height="92.5"/>
          <path class="cls-4" d="M527.7,1034.3H1.2v-260.9h526.5v260.9ZM23.5,1020.4h482.1v-233H23.5v233Z"/>
        </g>
        <rect class="cls-1" x="24.2" y="787.2" width="238.2" height="21.8"/>
      </g>
      <g>
        <g>
          <g>
            <rect class="cls-5" x="516.5" y="780.2" width="504.2" height="247"/>
            <polygon class="cls-3" points="1020.9 882.5 975.9 882.5 975.9 805.2 789.1 805.2 789.1 837.9 631.8 837.9 631.8 891.5 516.5 891.5 516.5 945 655 945 655 1027.3 730.9 1027.3 730.9 918.3 841.6 918.3 841.6 971.9 923.4 971.9 923.4 936.1 1020.9 936.1 1020.9 882.5"/>
          </g>
          <rect class="cls-2" x="923.4" y="915.4" width="77.3" height="38.7"/>
          <rect class="cls-2" x="787.3" y="835.3" width="77.3" height="38.7"/>
          <rect class="cls-2" x="585.1" y="890.4" width="77.3" height="38.7"/>
        </g>
        <rect class="cls-4" x="516.5" y="855.2" width="504.2" height="13.9"/>
        <rect class="cls-4" x="516.5" y="953" width="504.2" height="13.9"/>
        <rect class="cls-4" x="766.1" y="780.2" width="22.3" height="81.8"/>
        <rect class="cls-4" x="766.1" y="956.1" width="22.3" height="71.3"/>
        <rect class="cls-4" x="604.2" y="863.5" width="22.3" height="92.5"/>
        <rect class="cls-4" x="917.3" y="863.5" width="22.3" height="92.5"/>
        <path class="cls-4" d="M1032,1034.3H505.4v-260.9h526.5v260.9ZM527.7,1020.4h482.1v-233h-482.1v233h0Z"/>
      </g>
      <rect class="cls-1" x="524" y="787.2" width="244.6" height="21.8"/>
      <g>
        <g>
          <g>
            <g>
              <rect class="cls-5" x="12.3" y="520.6" width="504.2" height="247"/>
              <polygon class="cls-3" points="516.5 623 471.7 623 471.7 545.6 284.9 545.6 284.9 578.4 127.4 578.4 127.4 632 12.3 632 12.3 685.4 150.8 685.4 150.8 767.8 226.7 767.8 226.7 658.7 337.4 658.7 337.4 712.3 419.2 712.3 419.2 676.6 516.5 676.6 516.5 623"/>
            </g>
            <rect class="cls-2" x="419.2" y="655.9" width="77.3" height="38.7"/>
            <rect class="cls-2" x="282.9" y="575.7" width="77.3" height="38.7"/>
            <rect class="cls-2" x="80.8" y="630.9" width="77.3" height="38.7"/>
          </g>
          <rect class="cls-4" x="12.3" y="595.7" width="504.2" height="13.9"/>
          <rect class="cls-4" x="12.3" y="693.5" width="504.2" height="13.9"/>
          <rect class="cls-4" x="261.9" y="520.6" width="22.3" height="81.8"/>
          <rect class="cls-4" x="261.9" y="696.5" width="22.3" height="71.3"/>
          <rect class="cls-4" x="99.8" y="604" width="22.3" height="92.5"/>
          <rect class="cls-4" x="413.1" y="604" width="22.3" height="92.5"/>
          <path class="cls-4" d="M527.7,774.7H1.2v-261.1h526.5v261.1ZM23.5,760.8h482.1v-233.2H23.5v233.2Z"/>
        </g>
        <rect class="cls-1" x="24.2" y="527.6" width="238.2" height="21.8"/>
      </g>
      <g>
        <g>
          <g>
            <rect class="cls-5" x="516.5" y="520.6" width="504.2" height="247"/>
            <polygon class="cls-3" points="1020.9 623 975.9 623 975.9 545.6 789.1 545.6 789.1 578.4 631.8 578.4 631.8 632 516.5 632 516.5 685.4 655 685.4 655 767.8 730.9 767.8 730.9 658.7 841.6 658.7 841.6 712.3 923.4 712.3 923.4 676.6 1020.9 676.6 1020.9 623"/>
          </g>
          <rect class="cls-2" x="923.4" y="655.9" width="77.3" height="38.7"/>
          <rect class="cls-2" x="787.3" y="575.7" width="77.3" height="38.7"/>
          <rect class="cls-2" x="585.1" y="630.9" width="77.3" height="38.7"/>
        </g>
        <rect class="cls-4" x="516.5" y="595.7" width="504.2" height="13.9"/>
        <rect class="cls-4" x="516.5" y="693.5" width="504.2" height="13.9"/>
        <rect class="cls-4" x="766.1" y="520.6" width="22.3" height="81.8"/>
        <rect class="cls-4" x="766.1" y="696.5" width="22.3" height="71.3"/>
        <rect class="cls-4" x="604.2" y="604" width="22.3" height="92.5"/>
        <rect class="cls-4" x="917.3" y="604" width="22.3" height="92.5"/>
        <path class="cls-4" d="M1032,774.7H505.4v-261.1h526.5v261.1ZM527.7,760.8h482.1v-233.2h-482.1v233.2Z"/>
      </g>
      <rect class="cls-1" x="524" y="527.6" width="244.6" height="21.8"/>
      <g>
        <g>
          <g>
            <g>
              <rect class="cls-5" x="12.3" y="266.5" width="504.2" height="247"/>
              <polygon class="cls-3" points="516.5 368.8 471.7 368.8 471.7 291.5 284.9 291.5 284.9 324.3 127.4 324.3 127.4 377.9 12.3 377.9 12.3 431.3 150.8 431.3 150.8 513.7 226.7 513.7 226.7 404.6 337.4 404.6 337.4 458.2 419.2 458.2 419.2 422.4 516.5 422.4 516.5 368.8"/>
            </g>
            <rect class="cls-2" x="419.2" y="401.8" width="77.3" height="38.7"/>
            <rect class="cls-2" x="282.9" y="321.6" width="77.3" height="38.7"/>
            <rect class="cls-2" x="80.8" y="376.7" width="77.3" height="38.7"/>
          </g>
          <rect class="cls-4" x="12.3" y="341.6" width="504.2" height="13.9"/>
          <rect class="cls-4" x="12.3" y="439.4" width="504.2" height="13.9"/>
          <rect class="cls-4" x="261.9" y="266.5" width="22.3" height="81.8"/>
          <rect class="cls-4" x="261.9" y="442.4" width="22.3" height="71.3"/>
          <rect class="cls-4" x="99.8" y="349.8" width="22.3" height="92.5"/>
          <rect class="cls-4" x="413.1" y="349.8" width="22.3" height="92.5"/>
          <path class="cls-4" d="M527.7,520.6H1.2v-260.9h526.5v260.9ZM23.5,506.7h482.1v-233H23.5v233Z"/>
        </g>
        <rect class="cls-1" x="24.2" y="273.5" width="238.2" height="21.8"/>
      </g>
      <g>
        <g>
          <g>
            <rect class="cls-5" x="516.5" y="266.5" width="504.2" height="247"/>
            <polygon class="cls-3" points="1020.9 368.8 975.9 368.8 975.9 291.5 789.1 291.5 789.1 324.3 631.8 324.3 631.8 377.9 516.5 377.9 516.5 431.3 655 431.3 655 513.7 730.9 513.7 730.9 404.6 841.6 404.6 841.6 458.2 923.4 458.2 923.4 422.4 1020.9 422.4 1020.9 368.8"/>
          </g>
          <rect class="cls-2" x="923.4" y="401.8" width="77.3" height="38.7"/>
          <rect class="cls-2" x="787.3" y="321.6" width="77.3" height="38.7"/>
          <rect class="cls-2" x="585.1" y="376.7" width="77.3" height="38.7"/>
        </g>
        <rect class="cls-4" x="516.5" y="341.6" width="504.2" height="13.9"/>
        <rect class="cls-4" x="516.5" y="439.4" width="504.2" height="13.9"/>
        <rect class="cls-4" x="766.1" y="266.5" width="22.3" height="81.8"/>
        <rect class="cls-4" x="766.1" y="442.4" width="22.3" height="71.3"/>
        <rect class="cls-4" x="604.2" y="349.8" width="22.3" height="92.5"/>
        <rect class="cls-4" x="917.3" y="349.8" width="22.3" height="92.5"/>
        <path class="cls-4" d="M1032,520.6H505.4v-260.9h526.5v260.9ZM527.7,506.7h482.1v-233h-482.1v233h0Z"/>
      </g>
      <rect class="cls-1" x="524" y="273.5" width="244.6" height="21.8"/>
      <g>
        <g>
          <g>
            <g>
              <rect class="cls-5" x="12.3" y="7" width="504.2" height="247"/>
              <polygon class="cls-3" points="516.5 109.3 471.7 109.3 471.7 32 284.9 32 284.9 64.7 127.4 64.7 127.4 118.3 12.3 118.3 12.3 171.7 150.8 171.7 150.8 254.1 226.7 254.1 226.7 145 337.4 145 337.4 198.6 419.2 198.6 419.2 162.9 516.5 162.9 516.5 109.3"/>
            </g>
            <rect class="cls-2" x="419.2" y="142.2" width="77.3" height="38.7"/>
            <rect class="cls-2" x="282.9" y="62.1" width="77.3" height="38.7"/>
            <rect class="cls-2" x="80.8" y="117.2" width="77.3" height="38.7"/>
          </g>
          <rect class="cls-4" x="12.3" y="82" width="504.2" height="13.9"/>
          <rect class="cls-4" x="12.3" y="179.8" width="504.2" height="13.9"/>
          <rect class="cls-4" x="261.9" y="7" width="22.3" height="81.8"/>
          <rect class="cls-4" x="261.9" y="182.8" width="22.3" height="71.3"/>
          <rect class="cls-4" x="99.8" y="90.3" width="22.3" height="92.5"/>
          <rect class="cls-4" x="413.1" y="90.3" width="22.3" height="92.5"/>
          <path class="cls-4" d="M527.7,261.1H1.2V0h526.5v261.1ZM23.5,247.1h482.1V13.9H23.5v233.2Z"/>
        </g>
        <rect class="cls-1" x="24.2" y="13.9" width="238.2" height="21.8"/>
      </g>
      <g>
        <g>
          <g>
            <rect class="cls-5" x="516.5" y="7" width="504.2" height="247"/>
            <polygon class="cls-3" points="1020.9 109.3 975.9 109.3 975.9 32 789.1 32 789.1 64.7 631.8 64.7 631.8 118.3 516.5 118.3 516.5 171.7 655 171.7 655 254.1 730.9 254.1 730.9 145 841.6 145 841.6 198.6 923.4 198.6 923.4 162.9 1020.9 162.9 1020.9 109.3"/>
          </g>
          <rect class="cls-2" x="923.4" y="142.2" width="77.3" height="38.7"/>
          <rect class="cls-2" x="787.3" y="62.1" width="77.3" height="38.7"/>
          <rect class="cls-2" x="585.1" y="117.2" width="77.3" height="38.7"/>
        </g>
        <rect class="cls-4" x="516.5" y="82" width="504.2" height="13.9"/>
        <rect class="cls-4" x="516.5" y="179.8" width="504.2" height="13.9"/>
        <rect class="cls-4" x="766.1" y="7" width="22.3" height="81.8"/>
        <rect class="cls-4" x="766.1" y="182.8" width="22.3" height="71.3"/>
        <rect class="cls-4" x="604.2" y="90.3" width="22.3" height="92.5"/>
        <rect class="cls-4" x="917.3" y="90.3" width="22.3" height="92.5"/>
        <path class="cls-4" d="M1032,261.1H505.4V0h526.5v261.1ZM527.7,247.1h482.1V13.9h-482.1v233.2Z"/>
      </g>
      <rect class="cls-1" x="524" y="13.9" width="244.6" height="21.8"/>
    </g>
  </g>
</svg>