<?xml version="1.0" encoding="UTF-8"?>
<svg id="Layer_1" data-name="Layer 1" xmlns="http://www.w3.org/2000/svg" version="1.1" viewBox="0 0 1920 1080">
  <defs>
    <style>
      .cls-1 {
        fill: #41547d;
      }

      .cls-1, .cls-2, .cls-3 {
        stroke-width: 0px;
      }

      .cls-2 {
        fill: #141f39;
      }

      .cls-3 {
        fill: #36476b;
      }
    </style>
  </defs>
  <g id="Layer_1-2" data-name="Layer 1">
    <g>
      <rect class="cls-1" x="-.2" y=".5" width="1920.5" height="1078.9"/>
      <polygon class="cls-3" points="1920.2 831 1920.2 249 1906.4 249 1906.4 296.1 1880.6 296.1 1880.6 249 1838.8 249 1838.8 279.8 1771.2 279.8 1771.2 326.9 1711.6 326.9 1711.6 249 1663.8 249 1663.8 294.4 1598.2 294.4 1598.2 249 1552.4 249 1552.4 291.2 1496.7 291.2 1496.7 249 1431.1 249 1431.1 268.5 1339.4 268.5 1339.4 249 1283.9 249 1283.9 305.8 1230.2 305.8 1230.2 249 1188.3 249 1188.3 279.8 1110.8 279.8 1110.8 317.2 1037.2 317.2 1037.2 265.3 987.5 265.3 987.5 292.9 943.8 292.9 943.8 260.4 882 260.4 882 299.3 790.7 299.3 790.7 249 717 249 717 273.3 655.3 273.3 655.3 249 599.7 249 599.7 271.8 516.2 271.8 516.2 312.3 462.4 312.3 462.4 249 414.8 249 414.8 283 347 283 347 249 313.2 249 313.2 270.1 209.8 270.1 209.8 322 162.1 322 162.1 249 90.4 249 90.4 278.2 -.2 278.2 -.2 831 1920.2 831"/>
      <polygon class="cls-2" points="1920.2 1079.4 1920.2 497.4 1906.4 497.4 1906.4 544.5 1880.6 544.5 1880.6 497.4 1838.8 497.4 1838.8 528.2 1771.2 528.2 1771.2 575.3 1711.6 575.3 1711.6 497.4 1663.8 497.4 1663.8 542.8 1598.2 542.8 1598.2 497.4 1552.4 497.4 1552.4 539.6 1496.7 539.6 1496.7 497.4 1431.1 497.4 1431.1 517 1339.4 517 1339.4 497.4 1283.9 497.4 1283.9 554.2 1230.2 554.2 1230.2 497.4 1188.3 497.4 1188.3 528.2 1110.8 528.2 1110.8 565.6 1037.2 565.6 1037.2 513.7 987.5 513.7 987.5 541.3 943.8 541.3 943.8 508.8 882 508.8 882 547.8 790.7 547.8 790.7 497.4 717 497.4 717 521.7 655.3 521.7 655.3 497.4 599.7 497.4 599.7 520.2 516.2 520.2 516.2 560.7 462.4 560.7 462.4 497.4 414.8 497.4 414.8 531.6 347 531.6 347 497.4 313.2 497.4 313.2 518.5 209.8 518.5 209.8 570.4 162.1 570.4 162.1 497.4 90.4 497.4 90.4 526.7 -.2 526.7 -.2 1079.4 1920.2 1079.4"/>
    </g>
  </g>
</svg>