<?xml version="1.0" encoding="UTF-8"?>
<svg xmlns="http://www.w3.org/2000/svg" version="1.1" viewBox="0 0 1024 1024">
  <defs>
    <style>
      .cls-1 {
        fill: #1c2a4a;
      }

      .cls-2 {
        fill: #36476b;
      }

      .cls-3 {
        fill: #41547d;
      }

      .cls-4 {
        fill: #141f39;
      }
    </style>
  </defs>
  <!-- Generator: Adobe Illustrator 28.6.0, SVG Export Plug-In . SVG Version: 1.2.0 Build 709)  -->
  <g>
    <g id="Layer_1">
      <g id="Layer_1-2" data-name="Layer_1">
        <g id="Layer_1-2">
          <g>
            <g>
              <rect class="cls-4" y="477.2" width="1023.4" height="529.5"/>
              <polygon class="cls-1" points="1023.4 590.8 989.5 590.8 989.5 714.6 765.9 714.6 765.9 620.5 618.9 620.5 618.9 567.5 571.7 567.5 571.7 750 407 750 407 632.3 324.4 632.3 324.4 720.3 177.4 720.3 177.4 620.5 42.1 620.5 42.1 538.2 0 538.2 0 832.3 1 832.3 1 938.2 130.5 938.2 130.5 861.6 242.1 861.6 242.1 885.2 407 885.2 407 826.2 695.4 826.2 695.4 791.1 1023.4 791.1 1023.4 590.8"/>
              <rect class="cls-4" x="860" y="406.4" width="94.1" height="76.6"/>
              <rect class="cls-4" x="365.9" y="406.4" width="94.1" height="76.6"/>
              <rect class="cls-4" y="703.7" width="64.1" height="76.6"/>
              <rect class="cls-4" x="161.4" y="763.4" width="77.8" height="76.6"/>
              <rect class="cls-4" x="637" y="657.5" width="77.8" height="76.6"/>
              <rect class="cls-4" x="559.8" y="770.4" width="77.8" height="76.6"/>
              <rect class="cls-4" x="851.1" y="682" width="77.8" height="76.6"/>
              <rect class="cls-4" y="406.4" width="53.9" height="76.6"/>
            </g>
            <g>
              <rect class="cls-4" y="460" width="1023.4" height="34.5"/>
              <rect class="cls-4" y="989.5" width="1023.4" height="34.5"/>
            </g>
            <rect class="cls-3" y="18.2" width="1023.4" height="459"/>
            <polygon class="cls-2" points="1023.4 308.5 1001.3 308.5 1001.3 149.6 807.1 149.6 807.1 267.3 701.2 267.3 701.2 326 565.9 326 565.9 249.8 518.7 249.8 518.7 284.9 383.4 284.9 383.4 96.7 260 96.7 260 190.8 77.5 190.8 77.5 255.5 0 255.5 0 477.2 145.1 477.2 145.1 517.4 239.3 517.4 239.3 477.2 513 477.2 513 537.5 607.1 537.5 607.1 477.2 704 477.2 704 517.4 798.1 517.4 798.1 477.2 1023.4 477.2 1023.4 308.5"/>
            <g>
              <rect class="cls-3" y="1" width="1023.4" height="34.5"/>
              <polygon class="cls-4" points="1023.4 460 780.9 460 780.9 500.2 721.3 500.2 721.3 460 589.8 460 589.8 520.3 530.2 520.3 530.2 460 222 460 222 500.2 162.4 500.2 162.4 460 0 460 0 494.5 127.9 494.5 127.9 534.7 256.5 534.7 256.5 494.5 495.7 494.5 495.7 554.7 624.3 554.7 624.3 494.5 686.8 494.5 686.8 534.7 815.4 534.7 815.4 494.5 1023.4 494.5 1023.4 460"/>
            </g>
          </g>
        </g>
      </g>
    </g>
  </g>
</svg>