<?xml version="1.0" encoding="UTF-8"?>
<svg xmlns="http://www.w3.org/2000/svg" version="1.1" viewBox="0 0 536 602.1">
  <defs>
    <style>
      .cls-1 {
        fill: #272327;
      }

      .cls-2 {
        fill: #6e6985;
      }

      .cls-3 {
        fill: #52418d;
      }

      .cls-4 {
        fill: #dba463;
      }

      .cls-5 {
        fill: #ed807e;
      }

      .cls-6 {
        fill: #27201b;
      }

      .cls-7 {
        fill: #99748f;
      }

      .cls-8 {
        fill: #736892;
      }

      .cls-9 {
        fill: #3f3566;
      }

      .cls-10 {
        fill: #384040;
      }

      .cls-11 {
        fill: #57488f;
      }

      .cls-12 {
        fill: #463884;
      }

      .cls-13 {
        fill: #494e47;
      }

      .cls-14 {
        fill: #746a8f;
      }

      .cls-15 {
        fill: #3d443d;
      }

      .cls-16 {
        fill: #c29e8a;
      }

      .cls-17 {
        fill: #4e4086;
      }

      .cls-18 {
        fill: #53574d;
      }

      .cls-19 {
        fill: #483d84;
      }

      .cls-20 {
        fill: #332e65;
      }

      .cls-21 {
        fill: #bea05f;
      }

      .cls-22 {
        fill: #2b2651;
      }

      .cls-23 {
        fill: #332d65;
      }

      .cls-24 {
        fill: #585965;
      }

      .cls-25 {
        fill: #756896;
      }

      .cls-26 {
        fill: #4d5148;
      }

      .cls-27 {
        fill: #533f83;
      }

      .cls-28 {
        fill: #746993;
      }

      .cls-29 {
        fill: #906e93;
      }

      .cls-30 {
        fill: #866999;
      }

      .cls-31 {
        fill: #9b60a3;
      }

      .cls-32 {
        fill: #bc9b88;
      }

      .cls-33 {
        fill: #de412c;
      }

      .cls-34 {
        fill: #75649d;
      }

      .cls-35 {
        fill: #68559b;
      }

      .cls-36 {
        fill: #5e5479;
      }

      .cls-37 {
        fill: #242324;
      }

      .cls-38 {
        fill: #dcaf50;
      }

      .cls-39 {
        fill: #a27a8b;
      }

      .cls-40 {
        fill: #6b6780;
      }

      .cls-41 {
        fill: #665299;
      }

      .cls-42 {
        fill: #4f535b;
      }

      .cls-43 {
        fill: #caa28c;
      }

      .cls-44 {
        fill: #756894;
      }

      .cls-45 {
        fill: #76679a;
      }

      .cls-46 {
        fill: #5c4d80;
      }

      .cls-47 {
        fill: #373f3f;
      }

      .cls-48 {
        fill: #a18f64;
      }

      .cls-49 {
        fill: #6b7377;
      }

      .cls-50 {
        fill: #766899;
      }

      .cls-51 {
        fill: #262526;
      }

      .cls-52 {
        fill: #66529b;
      }

      .cls-53 {
        fill: #80659d;
      }

      .cls-54 {
        fill: #71557e;
      }

      .cls-55 {
        fill: #716989;
      }

      .cls-56 {
        fill: #5f4e98;
      }

      .cls-57 {
        fill: #be8d78;
      }

      .cls-58 {
        fill: #5d4a96;
      }

      .cls-59 {
        fill: #7c619e;
      }

      .cls-60 {
        fill: #69559b;
      }

      .cls-61 {
        fill: #292c32;
      }

      .cls-62 {
        fill: #4e515a;
      }

      .cls-63 {
        fill: #e9ebed;
      }

      .cls-64 {
        fill: #cf9b6d;
      }

      .cls-65 {
        fill: #e5e6ea;
      }

      .cls-66 {
        fill: #fff;
      }

      .cls-67 {
        fill: #746a91;
      }

      .cls-68 {
        fill: #5e4d94;
      }

      .cls-69 {
        fill: #d7ad52;
      }

      .cls-70 {
        fill: #5d5d6b;
      }

      .cls-71 {
        fill: #494576;
      }

      .cls-72 {
        fill: #756990;
      }

      .cls-73 {
        fill: #483c83;
      }

      .cls-74 {
        fill: #473e84;
      }

      .cls-75 {
        fill: #b38580;
      }

      .cls-76 {
        fill: #434a43;
      }

      .cls-77 {
        fill: #5d5e6c;
      }

      .cls-78 {
        fill: #b2b7be;
      }

      .cls-79 {
        fill: #5e537b;
      }

      .cls-80 {
        fill: #6c6881;
      }

      .cls-81 {
        fill: #4d4086;
      }

      .cls-82 {
        fill: #242122;
      }

      .cls-83 {
        fill: #756992;
      }

      .cls-84 {
        fill: #56468e;
      }

      .cls-85 {
        fill: #222424;
      }

      .cls-86 {
        fill: #272228;
      }

      .cls-87 {
        fill: #574382;
      }

      .cls-88 {
        fill: #3a4243;
      }

      .cls-89 {
        fill: #343b36;
      }

      .cls-90 {
        fill: #82669d;
      }

      .cls-91 {
        fill: #514189;
      }

      .cls-92 {
        fill: #76639f;
      }

      .cls-93 {
        fill: #4f4188;
      }

      .cls-94 {
        fill: #f6bc36;
      }

      .cls-95 {
        fill: #5e4d95;
      }

      .cls-96 {
        fill: #7d5d9f;
      }

      .cls-97 {
        fill: #77639e;
      }

      .cls-98 {
        fill: #4d3d85;
      }

      .cls-99 {
        fill: #f0b93f;
      }

      .cls-100 {
        fill: #433980;
      }

      .cls-101 {
        fill: #d0a956;
      }

      .cls-102 {
        fill: #464468;
      }

      .cls-103 {
        fill: #7f649e;
      }

      .cls-104 {
        fill: #726a8b;
      }

      .cls-105 {
        fill: #b7877e;
      }

      .cls-106 {
        fill: #4f4e5c;
      }

      .cls-107 {
        fill: #edb745;
      }

      .cls-108 {
        fill: #e6ab55;
      }

      .cls-109 {
        fill: #86699b;
      }

      .cls-110 {
        fill: #231f20;
      }

      .cls-111 {
        fill: #6e6c59;
      }

      .cls-112 {
        fill: #f4b83f;
      }

      .cls-113 {
        fill: #8a5fa1;
      }

      .cls-114 {
        fill: #75649e;
      }

      .cls-115 {
        fill: #eab647;
      }

      .cls-116 {
        fill: #f0b83f;
      }

      .cls-117 {
        fill: #54448f;
      }

      .cls-118 {
        fill: #5a4b93;
      }

      .cls-119 {
        fill: #737370;
      }

      .cls-120 {
        fill: #574591;
      }

      .cls-121 {
        fill: #434556;
      }

      .cls-122 {
        fill: #594991;
      }

      .cls-123 {
        fill: #423872;
      }

      .cls-124 {
        fill: #d1a955;
      }

      .cls-125 {
        fill: #66539a;
      }

      .cls-126 {
        fill: #f0b840;
      }

      .cls-127 {
        fill: #2a3034;
      }

      .cls-128 {
        fill: #dfa75e;
      }

      .cls-129 {
        fill: #373476;
      }

      .cls-130 {
        fill: #f2e7df;
      }

      .cls-131 {
        fill: #3c4344;
      }

      .cls-132 {
        fill: #b68d7d;
      }

      .cls-133 {
        fill: #b7887e;
      }

      .cls-134 {
        fill: #be8d79;
      }

      .cls-135 {
        fill: #303330;
      }

      .cls-136 {
        fill: #5d5578;
      }

      .cls-137 {
        fill: #d9a265;
      }

      .cls-138 {
        fill: #b89988;
      }

      .cls-139 {
        fill: #31373a;
      }

      .cls-140 {
        fill: #aa9362;
      }

      .cls-141 {
        fill: #bc8b66;
      }

      .cls-142 {
        fill: #3c423d;
      }

      .cls-143 {
        fill: #555661;
      }

      .cls-144 {
        fill: #394141;
      }

      .cls-145 {
        fill: #886a99;
      }

      .cls-146 {
        fill: #393c45;
      }

      .cls-147 {
        fill: #604e95;
      }

      .cls-148 {
        fill: #473c82;
      }

      .cls-149 {
        fill: #50545c;
      }

      .cls-150 {
        fill: #e7e8ec;
      }

      .cls-151 {
        fill: #efb741;
      }

      .cls-152 {
        fill: #332f69;
      }

      .cls-153 {
        fill: #64605e;
      }

      .cls-154 {
        fill: #946c73;
      }

      .cls-155 {
        fill: #977390;
      }

      .cls-156 {
        fill: #726a8c;
      }

      .cls-157 {
        fill: #a47a88;
      }

      .cls-158 {
        fill: #f3a17f;
      }

      .cls-159 {
        fill: #5d4c94;
      }

      .cls-160 {
        fill: #d9a88e;
      }

      .cls-161 {
        fill: #a761a0;
      }

      .cls-162 {
        fill: #423870;
      }

      .cls-163 {
        fill: #545660;
      }

      .cls-164 {
        fill: #5a4a91;
      }

      .cls-165 {
        fill: #f0b545;
      }

      .cls-166 {
        fill: #756898;
      }

      .cls-167 {
        fill: #504189;
      }

      .cls-168 {
        fill: #51438a;
      }

      .cls-169 {
        fill: #815ea0;
      }

      .cls-170 {
        fill: #262b2d;
      }

      .cls-171 {
        fill: #68549a;
      }

      .cls-172 {
        fill: #654c80;
      }

      .cls-173 {
        fill: #e2e4e8;
      }

      .cls-174 {
        fill: #5f4f95;
      }

      .cls-175 {
        fill: #75639f;
      }

      .cls-176 {
        fill: #5b4c94;
      }

      .cls-177 {
        fill: #e2a95a;
      }

      .cls-178 {
        fill: #1b1c37;
      }

      .cls-179 {
        fill: #221e1f;
      }

      .cls-180 {
        fill: #d9a266;
      }

      .cls-181 {
        fill: #7d63a0;
      }

      .cls-182 {
        fill: #3c4445;
      }

      .cls-183 {
        fill: #b5bac1;
      }

      .cls-184 {
        fill: #1d2121;
      }

      .cls-185 {
        fill: #656461;
      }

      .cls-186 {
        fill: #242a2d;
      }

      .cls-187 {
        fill: #202323;
      }

      .cls-188 {
        fill: #363c3c;
      }

      .cls-189 {
        fill: #44397c;
      }

      .cls-190 {
        fill: #dfa760;
      }

      .cls-191 {
        fill: #504b44;
      }

      .cls-192 {
        fill: #e2b14d;
      }

      .cls-193 {
        fill: #252c2a;
      }

      .cls-194 {
        fill: #d29c6b;
      }

      .cls-195 {
        fill: #5d4d94;
      }

      .cls-196 {
        fill: #927093;
      }

      .cls-197 {
        fill: #ddaf4f;
      }

      .cls-198 {
        fill: #795e93;
      }

      .cls-199 {
        fill: #3a403b;
      }

      .cls-200 {
        fill: #4e5149;
      }

      .cls-201 {
        fill: #83679b;
      }

      .cls-202 {
        fill: #d6a066;
      }

      .cls-203 {
        fill: #9f778b;
      }

      .cls-204 {
        fill: #f2b390;
      }

      .cls-205 {
        fill: #76649c;
      }

      .cls-206 {
        fill: #bdc2c9;
      }

      .cls-207 {
        fill: #f2a583;
      }

      .cls-208 {
        fill: #75629f;
      }

      .cls-209 {
        fill: #dadde1;
      }

      .cls-210 {
        fill: #332c62;
      }

      .cls-211 {
        fill: #d59f68;
      }

      .cls-212 {
        fill: #423980;
      }

      .cls-213 {
        fill: #ebb14e;
      }

      .cls-214 {
        fill: #262c2e;
      }

      .cls-215 {
        fill: #53458c;
      }

      .cls-216 {
        fill: #e4b34c;
      }

      .cls-217 {
        fill: #766897;
      }

      .cls-218 {
        fill: #735e9f;
      }

      .cls-219 {
        fill: #252526;
      }

      .cls-220 {
        fill: #242526;
      }

      .cls-221 {
        fill: #a48e81;
      }

      .cls-222 {
        fill: #414741;
      }

      .cls-223 {
        fill: #906350;
      }

      .cls-224 {
        fill: #454559;
      }

      .cls-225 {
        fill: #dfa75d;
      }

      .cls-226 {
        fill: #f1a685;
      }
    </style>
  </defs>
  <!-- Generator: Adobe Illustrator 28.6.0, SVG Export Plug-In . SVG Version: 1.2.0 Build 709)  -->
  <g>
    <g id="Layer_1">
      <g id="Layer_1-2" data-name="Layer_1">
        <g>
          <rect class="cls-37" x="489.9" y="594.8" width="5.9" height="7.5"/>
          <rect class="cls-212" x="478.2" y="594.8" width="5.8" height="7.5"/>
          <rect class="cls-122" x="373" y="594.8" width="5.8" height="7.5"/>
          <rect class="cls-167" x="308.7" y="594.8" width="5.9" height="7.5"/>
          <rect class="cls-148" x="262" y="594.8" width="5.8" height="7.5"/>
          <rect class="cls-37" x="489.9" y="587.3" width="5.9" height="7.5"/>
          <rect class="cls-37" x="484" y="587.3" width="5.8" height="7.5"/>
          <rect class="cls-74" x="460.7" y="587.3" width="5.8" height="7.5"/>
          <rect class="cls-95" x="256.2" y="587.3" width="5.8" height="7.5"/>
          <rect class="cls-37" x="484" y="579.8" width="5.8" height="7.5"/>
          <rect class="cls-118" x="449" y="579.8" width="5.8" height="7.5"/>
          <rect class="cls-174" x="402.2" y="579.8" width="5.8" height="7.5"/>
          <rect class="cls-35" x="302.9" y="579.8" width="5.8" height="7.5"/>
          <rect class="cls-68" x="250.3" y="579.8" width="5.8" height="7.5"/>
          <rect class="cls-73" x="197.7" y="579.8" width="5.8" height="7.5"/>
          <rect class="cls-37" x="460.7" y="572.3" width="5.8" height="7.5"/>
          <rect class="cls-17" x="425.6" y="572.3" width="5.8" height="7.5"/>
          <rect class="cls-37" x="454.8" y="564.8" width="5.9" height="7.5"/>
          <rect class="cls-168" x="413.9" y="564.8" width="5.8" height="7.5"/>
          <rect class="cls-95" x="297.1" y="564.8" width="5.8" height="7.5"/>
          <rect class="cls-37" x="443.1" y="557.3" width="5.8" height="7.5"/>
          <rect class="cls-208" x="437.3" y="557.3" width="5.9" height="7.5"/>
          <rect class="cls-60" x="402.2" y="557.3" width="5.8" height="7.5"/>
          <rect class="cls-11" x="396.4" y="557.3" width="5.9" height="7.5"/>
          <rect class="cls-11" x="326.3" y="557.3" width="5.8" height="7.5"/>
          <rect class="cls-100" x="297.1" y="557.3" width="5.8" height="7.5"/>
          <rect class="cls-201" x="267.8" y="557.3" width="5.8" height="7.5"/>
          <rect class="cls-211" x="262" y="557.3" width="5.8" height="7.5"/>
          <rect class="cls-105" x="256.2" y="557.3" width="5.8" height="7.5"/>
          <rect class="cls-100" x="232.8" y="557.3" width="5.9" height="7.5"/>
          <rect class="cls-147" x="203.6" y="557.3" width="5.9" height="7.5"/>
          <rect class="cls-37" x="437.3" y="549.8" width="5.9" height="7.5"/>
          <rect class="cls-159" x="320.4" y="549.8" width="5.8" height="7.5"/>
          <rect class="cls-190" x="267.8" y="549.8" width="5.8" height="7.5"/>
          <rect class="cls-37" x="419.7" y="542.3" width="5.9" height="7.5"/>
          <rect class="cls-165" x="390.5" y="542.3" width="5.8" height="7.5"/>
          <rect class="cls-57" x="384.7" y="542.3" width="5.8" height="7.5"/>
          <rect class="cls-137" x="378.9" y="542.3" width="5.8" height="7.5"/>
          <rect class="cls-203" x="343.8" y="542.3" width="5.8" height="7.5"/>
          <rect class="cls-75" x="338" y="542.3" width="5.8" height="7.5"/>
          <rect class="cls-157" x="332.1" y="542.3" width="5.8" height="7.5"/>
          <rect class="cls-145" x="262" y="542.3" width="5.8" height="7.5"/>
          <rect class="cls-168" x="226.9" y="542.3" width="5.8" height="7.5"/>
          <rect class="cls-37" x="419.7" y="534.8" width="5.9" height="7.5"/>
          <rect class="cls-37" x="413.9" y="534.8" width="5.8" height="7.5"/>
          <rect class="cls-112" x="378.9" y="534.8" width="5.8" height="7.5"/>
          <rect class="cls-180" x="343.8" y="534.8" width="5.8" height="7.5"/>
          <rect class="cls-4" x="332.1" y="534.8" width="5.8" height="7.5"/>
          <rect class="cls-59" x="326.3" y="534.8" width="5.8" height="7.5"/>
          <rect class="cls-171" x="291.2" y="534.8" width="5.8" height="7.5"/>
          <rect class="cls-176" x="209.4" y="534.8" width="5.8" height="7.5"/>
          <rect class="cls-202" x="384.7" y="527.3" width="5.8" height="7.5"/>
          <rect class="cls-93" x="291.2" y="527.3" width="5.8" height="7.5"/>
          <rect class="cls-91" x="215.3" y="519.8" width="5.8" height="7.5"/>
          <rect class="cls-29" x="291.2" y="512.3" width="5.8" height="7.5"/>
          <rect class="cls-181" x="285.4" y="512.3" width="5.8" height="7.5"/>
          <rect class="cls-90" x="297.1" y="497.3" width="5.8" height="7.5"/>
          <rect class="cls-134" x="291.2" y="497.3" width="5.8" height="7.5"/>
          <rect class="cls-225" x="285.4" y="497.3" width="5.8" height="7.5"/>
          <rect class="cls-196" x="279.5" y="497.3" width="5.8" height="7.5"/>
          <rect class="cls-37" x="373" y="489.8" width="5.8" height="7.5"/>
          <rect class="cls-104" x="367.2" y="489.8" width="5.8" height="7.5"/>
          <rect class="cls-37" x="367.2" y="482.3" width="5.8" height="7.5"/>
          <rect class="cls-205" x="361.3" y="482.3" width="5.8" height="7.5"/>
          <rect class="cls-37" x="355.5" y="474.8" width="5.8" height="7.5"/>
          <rect class="cls-128" x="326.3" y="467.3" width="5.8" height="7.5"/>
          <rect class="cls-72" x="343.8" y="459.8" width="5.8" height="7.5"/>
          <rect class="cls-30" x="332.1" y="459.8" width="5.8" height="7.5"/>
          <rect class="cls-7" x="326.3" y="459.8" width="5.8" height="7.5"/>
          <rect class="cls-213" x="320.4" y="459.8" width="5.8" height="7.5"/>
          <rect class="cls-109" x="314.6" y="459.8" width="5.8" height="7.5"/>
          <rect class="cls-80" x="273.7" y="452.3" width="5.9" height="7.5"/>
          <rect class="cls-114" x="267.8" y="452.3" width="5.8" height="7.5"/>
          <rect class="cls-152" x="127.6" y="452.3" width="5.9" height="7.5"/>
          <rect class="cls-220" x="267.8" y="444.8" width="5.8" height="7.5"/>
          <rect class="cls-68" x="115.9" y="444.8" width="5.8" height="7.5"/>
          <rect class="cls-78" x="267.8" y="437.3" width="5.8" height="7.5"/>
          <rect class="cls-23" x="151" y="437.3" width="5.8" height="7.5"/>
          <rect class="cls-210" x="156.8" y="429.8" width="5.8" height="7.5"/>
          <rect class="cls-41" x="139.3" y="429.8" width="5.8" height="7.5"/>
          <rect class="cls-40" x="110.1" y="429.8" width="5.8" height="7.5"/>
          <rect class="cls-107" x="285.4" y="422.3" width="5.8" height="7.5"/>
          <rect class="cls-197" x="262" y="422.3" width="5.8" height="7.5"/>
          <rect class="cls-61" x="168.5" y="422.3" width="5.8" height="7.5"/>
          <rect class="cls-22" x="162.7" y="422.3" width="5.9" height="7.5"/>
          <rect class="cls-147" x="145.1" y="422.3" width="5.8" height="7.5"/>
          <rect class="cls-122" x="349.6" y="414.8" width="5.9" height="7.5"/>
          <rect class="cls-179" x="285.4" y="414.8" width="5.8" height="7.5"/>
          <rect class="cls-86" x="174.4" y="414.8" width="5.9" height="7.5"/>
          <rect class="cls-77" x="110.1" y="414.8" width="5.8" height="7.5"/>
          <rect class="cls-81" x="156.8" y="407.3" width="5.8" height="7.5"/>
          <rect class="cls-143" x="110.1" y="407.3" width="5.8" height="7.5"/>
          <rect class="cls-173" x="256.2" y="399.8" width="5.8" height="7.5"/>
          <rect class="cls-42" x="250.3" y="399.8" width="5.8" height="7.5"/>
          <rect class="cls-20" x="180.2" y="399.8" width="5.8" height="7.5"/>
          <rect class="cls-183" x="104.2" y="399.8" width="5.8" height="7.5"/>
          <rect class="cls-2" x="244.5" y="392.3" width="5.8" height="7.5"/>
          <rect class="cls-195" x="162.7" y="392.3" width="5.9" height="7.5"/>
          <rect class="cls-144" x="285.4" y="384.8" width="5.8" height="7.5"/>
          <rect class="cls-163" x="244.5" y="384.8" width="5.8" height="7.5"/>
          <rect class="cls-178" x="191.9" y="384.8" width="5.8" height="7.5"/>
          <rect class="cls-84" x="361.3" y="377.3" width="5.8" height="7.5"/>
          <rect class="cls-78" x="250.3" y="377.3" width="5.8" height="7.5"/>
          <rect class="cls-208" x="197.7" y="377.3" width="5.8" height="7.5"/>
          <rect class="cls-92" x="338" y="369.8" width="5.8" height="7.5"/>
          <rect class="cls-34" x="197.7" y="369.8" width="5.8" height="7.5"/>
          <rect class="cls-164" x="174.4" y="369.8" width="5.9" height="7.5"/>
          <rect class="cls-50" x="384.7" y="362.3" width="5.8" height="7.5"/>
          <rect class="cls-102" x="343.8" y="362.3" width="5.8" height="7.5"/>
          <rect class="cls-217" x="197.7" y="362.3" width="5.8" height="7.5"/>
          <rect class="cls-224" x="343.8" y="354.8" width="5.8" height="7.5"/>
          <rect class="cls-83" x="197.7" y="354.8" width="5.8" height="7.5"/>
          <rect class="cls-19" x="180.2" y="354.8" width="5.8" height="7.5"/>
          <rect class="cls-119" x="104.2" y="354.8" width="5.8" height="7.5"/>
          <rect class="cls-146" x="343.8" y="347.3" width="5.8" height="7.5"/>
          <rect class="cls-44" x="302.9" y="347.3" width="5.8" height="7.5"/>
          <rect class="cls-24" x="232.8" y="347.3" width="5.9" height="7.5"/>
          <rect class="cls-156" x="197.7" y="347.3" width="5.8" height="7.5"/>
          <rect class="cls-186" x="343.8" y="339.8" width="5.8" height="7.5"/>
          <rect class="cls-37" x="232.8" y="339.8" width="5.9" height="7.5"/>
          <rect class="cls-2" x="197.7" y="339.8" width="5.8" height="7.5"/>
          <rect class="cls-179" x="343.8" y="332.3" width="5.8" height="7.5"/>
          <rect class="cls-215" x="186" y="332.3" width="5.8" height="7.5"/>
          <rect class="cls-45" x="145.1" y="332.3" width="5.8" height="7.5"/>
          <rect class="cls-220" x="378.9" y="324.8" width="5.8" height="7.5"/>
          <rect class="cls-110" x="343.8" y="324.8" width="5.8" height="7.5"/>
          <rect class="cls-206" x="232.8" y="324.8" width="5.9" height="7.5"/>
          <rect class="cls-70" x="197.7" y="324.8" width="5.8" height="7.5"/>
          <rect class="cls-25" x="151" y="324.8" width="5.8" height="7.5"/>
          <rect class="cls-187" x="343.8" y="317.3" width="5.8" height="7.5"/>
          <rect class="cls-67" x="226.9" y="317.3" width="5.8" height="7.5"/>
          <rect class="cls-149" x="197.7" y="317.3" width="5.8" height="7.5"/>
          <rect class="cls-168" x="191.9" y="317.3" width="5.8" height="7.5"/>
          <rect class="cls-175" x="156.8" y="317.3" width="5.8" height="7.5"/>
          <rect class="cls-168" x="361.3" y="309.8" width="5.8" height="7.5"/>
          <rect class="cls-139" x="197.7" y="309.8" width="5.8" height="7.5"/>
          <rect class="cls-72" x="162.7" y="309.8" width="5.9" height="7.5"/>
          <rect class="cls-166" x="367.2" y="302.3" width="5.8" height="7.5"/>
          <rect class="cls-70" x="221.1" y="302.3" width="5.8" height="7.5"/>
          <rect class="cls-219" x="197.7" y="302.3" width="5.8" height="7.5"/>
          <rect class="cls-125" x="355.5" y="294.8" width="5.8" height="7.5"/>
          <rect class="cls-63" x="320.4" y="294.8" width="5.8" height="7.5"/>
          <rect class="cls-62" x="215.3" y="294.8" width="5.8" height="7.5"/>
          <rect class="cls-219" x="197.7" y="294.8" width="5.8" height="7.5"/>
          <g>
            <polygon class="cls-129" points="472.3 594.8 466.5 594.8 460.7 594.8 460.7 587.3 454.8 587.3 449 587.3 449 579.8 443.1 579.8 437.3 579.8 431.4 579.8 425.6 579.8 425.6 572.3 419.7 572.3 413.9 572.3 413.9 564.8 408.1 564.8 402.2 564.8 402.2 572.3 402.2 579.8 408.1 579.8 408.1 587.3 408.1 594.8 408.1 602.3 413.9 602.3 419.7 602.3 425.6 602.3 431.4 602.3 437.3 602.3 443.1 602.3 449 602.3 454.8 602.3 460.7 602.3 466.5 602.3 472.3 602.3 478.2 602.3 478.2 594.8 472.3 594.8"/>
            <polygon class="cls-129" points="367.2 587.3 361.3 587.3 355.5 587.3 355.5 579.8 349.6 579.8 343.8 579.8 343.8 572.3 338 572.3 338 564.8 332.1 564.8 326.3 564.8 326.3 557.3 320.4 557.3 320.4 549.8 314.6 549.8 314.6 542.3 308.7 542.3 308.7 534.8 302.9 534.8 302.9 527.3 297.1 527.3 297.1 534.8 297.1 542.3 297.1 549.8 297.1 557.3 302.9 557.3 302.9 564.8 302.9 572.3 302.9 579.8 308.7 579.8 308.7 587.3 308.7 594.8 314.6 594.8 314.6 602.3 320.4 602.3 326.3 602.3 332.1 602.3 338 602.3 343.8 602.3 349.6 602.3 355.5 602.3 361.3 602.3 367.2 602.3 373 602.3 373 594.8 367.2 594.8 367.2 587.3"/>
            <polygon class="cls-129" points="256.2 587.3 250.3 587.3 250.3 579.8 244.5 579.8 244.5 572.3 238.6 572.3 238.6 564.8 232.8 564.8 232.8 557.3 232.8 549.8 226.9 549.8 226.9 542.3 226.9 534.8 226.9 527.3 221.1 527.3 215.3 527.3 215.3 534.8 215.3 542.3 209.4 542.3 209.4 549.8 209.4 557.3 209.4 564.8 203.6 564.8 203.6 572.3 203.6 579.8 203.6 587.3 197.7 587.3 197.7 594.8 197.7 602.3 203.6 602.3 209.4 602.3 215.3 602.3 221.1 602.3 226.9 602.3 232.8 602.3 238.6 602.3 244.5 602.3 250.3 602.3 256.2 602.3 262 602.3 262 594.8 256.2 594.8 256.2 587.3"/>
            <rect class="cls-129" x="291.2" y="519.8" width="5.8" height="7.5"/>
            <polygon class="cls-129" points="349.6 414.8 355.5 414.8 355.5 407.3 355.5 399.8 355.5 392.3 361.3 392.3 361.3 384.8 361.3 377.3 367.2 377.3 367.2 369.8 367.2 362.3 367.2 354.8 367.2 347.3 367.2 339.8 367.2 332.3 367.2 324.8 367.2 317.3 361.3 317.3 361.3 309.8 361.3 302.3 355.5 302.3 355.5 294.8 355.5 287.3 349.6 287.3 349.6 294.8 349.6 302.3 349.6 309.8 349.6 317.3 349.6 324.8 349.6 332.3 349.6 339.8 349.6 347.3 349.6 354.8 349.6 362.3 349.6 369.8 343.8 369.8 343.8 377.3 343.8 384.8 343.8 392.3 343.8 399.8 343.8 407.3 343.8 414.8 343.8 422.3 349.6 422.3 349.6 414.8"/>
            <polygon class="cls-129" points="197.7 377.3 197.7 369.8 197.7 362.3 197.7 354.8 197.7 347.3 197.7 339.8 197.7 332.3 197.7 324.8 191.9 324.8 191.9 332.3 191.9 339.8 186 339.8 186 347.3 186 354.8 186 362.3 180.2 362.3 180.2 369.8 180.2 377.3 174.4 377.3 174.4 384.8 174.4 392.3 168.5 392.3 168.5 399.8 162.7 399.8 162.7 407.3 162.7 414.8 156.8 414.8 156.8 422.3 151 422.3 151 429.8 145.1 429.8 145.1 437.3 139.3 437.3 133.5 437.3 133.5 444.8 127.6 444.8 121.8 444.8 121.8 452.3 115.9 452.3 115.9 459.8 121.8 459.8 127.6 459.8 127.6 452.3 133.5 452.3 139.3 452.3 145.1 452.3 145.1 444.8 151 444.8 151 437.3 156.8 437.3 156.8 429.8 162.7 429.8 162.7 422.3 168.5 422.3 174.4 422.3 174.4 414.8 180.2 414.8 180.2 407.3 180.2 399.8 186 399.8 186 392.3 191.9 392.3 191.9 384.8 197.7 384.8 197.7 377.3"/>
          </g>
          <rect class="cls-179" x="343.8" y="287.3" width="5.8" height="7.5"/>
          <rect class="cls-55" x="326.3" y="287.3" width="5.8" height="7.5"/>
          <rect class="cls-127" x="197.7" y="287.3" width="5.8" height="7.5"/>
          <rect class="cls-51" x="326.3" y="279.8" width="5.8" height="7.5"/>
          <rect class="cls-121" x="197.7" y="279.8" width="5.8" height="7.5"/>
          <rect class="cls-8" x="191.9" y="279.8" width="5.8" height="7.5"/>
          <rect class="cls-71" x="343.8" y="272.3" width="5.8" height="7.5"/>
          <rect class="cls-14" x="332.1" y="272.3" width="5.8" height="7.5"/>
          <rect class="cls-85" x="203.6" y="264.8" width="5.9" height="7.5"/>
          <rect class="cls-85" x="332.1" y="257.3" width="5.8" height="7.5"/>
          <rect class="cls-184" x="338" y="242.3" width="5.8" height="7.5"/>
          <rect class="cls-140" x="86.7" y="227.3" width="5.9" height="7.5"/>
          <rect class="cls-49" x="279.5" y="219.8" width="5.8" height="7.5"/>
          <rect class="cls-6" x="273.7" y="219.8" width="5.9" height="7.5"/>
          <rect class="cls-6" x="267.8" y="219.8" width="5.8" height="7.5"/>
          <rect class="cls-6" x="262" y="219.8" width="5.8" height="7.5"/>
          <rect class="cls-49" x="256.2" y="219.8" width="5.8" height="7.5"/>
          <rect class="cls-110" x="343.8" y="212.3" width="5.8" height="7.5"/>
          <rect class="cls-48" x="92.6" y="212.3" width="5.8" height="7.5"/>
          <rect class="cls-6" x="279.5" y="204.8" width="5.8" height="7.5"/>
          <rect class="cls-6" x="273.7" y="204.8" width="5.9" height="7.5"/>
          <rect class="cls-6" x="267.8" y="204.8" width="5.8" height="7.5"/>
          <rect class="cls-6" x="262" y="204.8" width="5.8" height="7.5"/>
          <rect class="cls-6" x="250.3" y="204.8" width="5.8" height="7.5"/>
          <rect class="cls-6" x="244.5" y="204.8" width="5.8" height="7.5"/>
          <rect class="cls-6" x="238.6" y="204.8" width="5.8" height="7.5"/>
          <rect class="cls-6" x="232.8" y="204.8" width="5.9" height="7.5"/>
          <rect class="cls-6" x="226.9" y="204.8" width="5.8" height="7.5"/>
          <rect class="cls-6" x="221.1" y="204.8" width="5.8" height="7.5"/>
          <rect class="cls-6" x="215.3" y="204.8" width="5.8" height="7.5"/>
          <rect class="cls-6" x="209.4" y="204.8" width="5.8" height="7.5"/>
          <rect class="cls-47" x="197.7" y="204.8" width="5.8" height="7.5"/>
          <rect class="cls-200" x="98.4" y="204.8" width="5.8" height="7.5"/>
          <rect class="cls-151" x="80.9" y="204.8" width="5.8" height="7.5"/>
          <rect class="cls-193" x="75" y="204.8" width="5.8" height="7.5"/>
          <rect class="cls-185" x="343.8" y="189.8" width="5.8" height="7.5"/>
          <rect class="cls-160" x="326.3" y="189.8" width="5.8" height="7.5"/>
          <rect class="cls-207" x="244.5" y="189.8" width="5.8" height="7.5"/>
          <rect class="cls-16" x="203.6" y="189.8" width="5.9" height="7.5"/>
          <rect class="cls-150" x="186" y="189.8" width="5.8" height="7.5"/>
          <rect class="cls-179" x="104.2" y="189.8" width="5.8" height="7.5"/>
          <rect class="cls-26" x="69.2" y="189.8" width="5.8" height="7.5"/>
          <rect class="cls-219" x="349.6" y="182.3" width="5.9" height="7.5"/>
          <rect class="cls-153" x="343.8" y="182.3" width="5.8" height="7.5"/>
          <rect class="cls-226" x="244.5" y="182.3" width="5.8" height="7.5"/>
          <g>
            <polygon class="cls-158" points="302.9 182.3 297.1 182.3 291.2 182.3 285.4 182.3 285.4 189.8 285.4 197.3 291.2 197.3 297.1 197.3 302.9 197.3 308.7 197.3 308.7 189.8 308.7 182.3 302.9 182.3"/>
            <polygon class="cls-158" points="232.8 182.3 226.9 182.3 226.9 189.8 226.9 197.3 232.8 197.3 238.6 197.3 244.5 197.3 244.5 189.8 244.5 182.3 238.6 182.3 232.8 182.3"/>
          </g>
          <rect class="cls-101" x="110.1" y="182.3" width="5.8" height="7.5"/>
          <rect class="cls-216" x="98.4" y="182.3" width="5.8" height="7.5"/>
          <rect class="cls-222" x="92.6" y="182.3" width="5.8" height="7.5"/>
          <rect class="cls-116" x="75" y="182.3" width="5.8" height="7.5"/>
          <rect class="cls-15" x="63.4" y="182.3" width="5.8" height="7.5"/>
          <rect class="cls-10" x="355.5" y="174.8" width="5.8" height="7.5"/>
          <rect class="cls-221" x="349.6" y="174.8" width="5.9" height="7.5"/>
          <rect class="cls-5" x="343.8" y="174.8" width="5.8" height="7.5"/>
          <rect class="cls-115" x="110.1" y="174.8" width="5.8" height="7.5"/>
          <rect class="cls-76" x="69.2" y="174.8" width="5.8" height="7.5"/>
          <rect class="cls-179" x="45.8" y="174.8" width="5.8" height="7.5"/>
          <rect class="cls-43" x="349.6" y="167.3" width="5.9" height="7.5"/>
          <rect class="cls-32" x="338" y="167.3" width="5.8" height="7.5"/>
          <rect class="cls-65" x="302.9" y="167.3" width="5.8" height="7.5"/>
          <rect class="cls-65" x="297.1" y="167.3" width="5.8" height="7.5"/>
          <rect class="cls-65" x="291.2" y="167.3" width="5.8" height="7.5"/>
          <rect class="cls-65" x="285.4" y="167.3" width="5.8" height="7.5"/>
          <rect class="cls-65" x="279.5" y="167.3" width="5.8" height="7.5"/>
          <rect class="cls-65" x="273.7" y="167.3" width="5.9" height="7.5"/>
          <rect class="cls-131" x="250.3" y="167.3" width="5.8" height="7.5"/>
          <rect class="cls-65" x="244.5" y="167.3" width="5.8" height="7.5"/>
          <rect class="cls-65" x="238.6" y="167.3" width="5.8" height="7.5"/>
          <rect class="cls-65" x="232.8" y="167.3" width="5.9" height="7.5"/>
          <rect class="cls-65" x="226.9" y="167.3" width="5.8" height="7.5"/>
          <rect class="cls-65" x="221.1" y="167.3" width="5.8" height="7.5"/>
          <rect class="cls-65" x="215.3" y="167.3" width="5.8" height="7.5"/>
          <rect class="cls-182" x="197.7" y="167.3" width="5.8" height="7.5"/>
          <rect class="cls-38" x="139.3" y="167.3" width="5.8" height="7.5"/>
          <rect class="cls-18" x="110.1" y="167.3" width="5.8" height="7.5"/>
          <rect class="cls-135" x="104.2" y="167.3" width="5.8" height="7.5"/>
          <rect class="cls-179" x="69.2" y="167.3" width="5.8" height="7.5"/>
          <rect class="cls-200" x="34.1" y="167.3" width="5.8" height="7.5"/>
          <rect class="cls-209" x="361.3" y="159.8" width="5.8" height="7.5"/>
          <rect class="cls-138" x="349.6" y="159.8" width="5.9" height="7.5"/>
          <rect class="cls-188" x="338" y="159.8" width="5.8" height="7.5"/>
          <g>
            <polygon class="cls-204" points="373 429.8 367.2 429.8 361.3 429.8 361.3 437.3 355.5 437.3 355.5 444.8 361.3 444.8 367.2 444.8 367.2 452.3 361.3 452.3 361.3 459.8 367.2 459.8 373 459.8 373 452.3 378.9 452.3 378.9 444.8 378.9 437.3 378.9 429.8 373 429.8"/>
            <polygon class="cls-204" points="110.1 332.3 110.1 324.8 104.2 324.8 104.2 332.3 104.2 339.8 104.2 347.3 104.2 354.8 110.1 354.8 110.1 362.3 115.9 362.3 115.9 354.8 115.9 347.3 115.9 339.8 110.1 339.8 110.1 332.3"/>
            <rect class="cls-204" x="343.8" y="167.3" width="5.8" height="7.5"/>
            <path class="cls-204" d="M338,167.3v-7.5h-23.4v15h-17.5v7.5h11.7v15h-23.4v-15h-5.8v-7.5h-11.7v-15h-11.7v15h-5.8v22.5h-23.4v-15h5.8v-7.5h-23.4v-15h-5.9v30h5.9v15h116.8v-15h11.7v-7.5h5.8v-7.5h-5.8v-7.5h0ZM267.8,197.3h-5.8v-15h5.8v7.5h5.8v7.5h-5.8Z"/>
          </g>
          <rect class="cls-192" x="133.5" y="159.8" width="5.8" height="7.5"/>
          <rect class="cls-142" x="110.1" y="159.8" width="5.8" height="7.5"/>
          <rect class="cls-191" x="104.2" y="159.8" width="5.8" height="7.5"/>
          <rect class="cls-187" x="69.2" y="159.8" width="5.8" height="7.5"/>
          <rect class="cls-124" x="40" y="159.8" width="5.8" height="7.5"/>
          <rect class="cls-106" x="338" y="152.3" width="5.8" height="7.5"/>
          <rect class="cls-36" x="326.3" y="152.3" width="5.8" height="7.5"/>
          <rect class="cls-136" x="203.6" y="152.3" width="5.9" height="7.5"/>
          <rect class="cls-214" x="186" y="152.3" width="5.8" height="7.5"/>
          <rect class="cls-89" x="121.8" y="152.3" width="5.8" height="7.5"/>
          <rect class="cls-26" x="104.2" y="152.3" width="5.8" height="7.5"/>
          <rect class="cls-132" x="98.4" y="152.3" width="5.8" height="7.5"/>
          <rect class="cls-130" x="92.6" y="152.3" width="5.8" height="7.5"/>
          <g>
            <rect class="cls-33" x="98.4" y="174.8" width="5.8" height="7.5"/>
            <polygon class="cls-33" points="104.2 167.3 104.2 159.8 98.4 159.8 98.4 159.8 92.6 159.8 92.6 167.3 92.6 167.3 92.6 159.8 92.6 152.3 86.7 152.3 80.9 152.3 80.9 159.8 75 159.8 75 167.3 75 174.8 75 182.3 80.9 182.3 86.7 182.3 92.6 182.3 98.4 182.3 98.4 174.8 104.2 174.8 104.2 167.3"/>
          </g>
          <rect class="cls-223" x="75" y="152.3" width="5.8" height="7.5"/>
          <rect class="cls-179" x="69.2" y="152.3" width="5.8" height="7.5"/>
          <rect class="cls-111" x="110.1" y="144.8" width="5.8" height="7.5"/>
          <rect class="cls-110" x="92.6" y="144.8" width="5.8" height="7.5"/>
          <rect class="cls-179" x="86.7" y="144.8" width="5.9" height="7.5"/>
          <rect class="cls-37" x="80.9" y="144.8" width="5.8" height="7.5"/>
          <rect class="cls-179" x="75" y="144.8" width="5.8" height="7.5"/>
          <rect class="cls-126" x="69.2" y="144.8" width="5.8" height="7.5"/>
          <rect class="cls-88" x="63.4" y="144.8" width="5.8" height="7.5"/>
          <rect class="cls-162" x="314.6" y="137.3" width="5.8" height="7.5"/>
          <rect class="cls-79" x="197.7" y="137.3" width="5.8" height="7.5"/>
          <rect class="cls-199" x="104.2" y="137.3" width="5.8" height="7.5"/>
          <polygon class="cls-46" points="373 137.3 367.2 137.3 361.3 137.3 355.5 137.3 349.6 137.3 343.8 137.3 343.8 144.8 338 144.8 332.1 144.8 326.3 144.8 320.4 144.8 314.6 144.8 314.6 152.3 308.7 152.3 302.9 152.3 297.1 152.3 291.2 152.3 285.4 152.3 279.5 152.3 273.7 152.3 267.8 152.3 262 152.3 256.2 152.3 250.3 152.3 244.5 152.3 238.6 152.3 232.8 152.3 226.9 152.3 226.9 144.8 221.1 144.8 215.3 144.8 209.4 144.8 203.6 144.8 197.7 144.8 197.7 137.3 197.7 129.8 191.9 129.8 186 129.8 186 137.3 180.2 137.3 174.4 137.3 168.5 137.3 162.7 137.3 156.8 137.3 156.8 144.8 162.7 144.8 168.5 144.8 174.4 144.8 174.4 152.3 180.2 152.3 186 152.3 191.9 152.3 197.7 152.3 203.6 152.3 209.4 152.3 209.4 159.8 215.3 159.8 221.1 159.8 226.9 159.8 232.8 159.8 238.6 159.8 244.5 159.8 250.3 159.8 256.2 159.8 262 159.8 267.8 159.8 273.7 159.8 279.5 159.8 285.4 159.8 291.2 159.8 297.1 159.8 302.9 159.8 308.7 159.8 314.6 159.8 320.4 159.8 326.3 159.8 326.3 152.3 332.1 152.3 338 152.3 343.8 152.3 349.6 152.3 355.5 152.3 361.3 152.3 367.2 152.3 367.2 144.8 373 144.8 378.9 144.8 378.9 137.3 373 137.3"/>
          <rect class="cls-99" x="98.4" y="129.8" width="5.8" height="7.5"/>
          <rect class="cls-69" x="75" y="129.8" width="5.8" height="7.5"/>
          <rect class="cls-51" x="343.8" y="122.3" width="5.8" height="7.5"/>
          <rect class="cls-9" x="338" y="122.3" width="5.8" height="7.5"/>
          <rect class="cls-110" x="197.7" y="122.3" width="5.8" height="7.5"/>
          <rect class="cls-13" x="80.9" y="122.3" width="5.8" height="7.5"/>
          <rect class="cls-120" x="273.7" y="114.8" width="5.9" height="7.5"/>
          <rect class="cls-133" x="232.8" y="114.8" width="5.9" height="7.5"/>
          <rect class="cls-177" x="215.3" y="114.8" width="5.8" height="7.5"/>
          <rect class="cls-172" x="302.9" y="107.3" width="5.8" height="7.5"/>
          <rect class="cls-87" x="297.1" y="107.3" width="5.8" height="7.5"/>
          <rect class="cls-98" x="291.2" y="107.3" width="5.8" height="7.5"/>
          <rect class="cls-117" x="285.4" y="107.3" width="5.8" height="7.5"/>
          <rect class="cls-59" x="226.9" y="107.3" width="5.8" height="7.5"/>
          <rect class="cls-26" x="419.7" y="99.8" width="5.9" height="7.5"/>
          <rect class="cls-141" x="308.7" y="99.8" width="5.9" height="7.5"/>
          <rect class="cls-108" x="291.2" y="99.8" width="5.8" height="7.5"/>
          <rect class="cls-220" x="203.6" y="99.8" width="5.9" height="7.5"/>
          <rect class="cls-216" x="413.9" y="92.3" width="5.8" height="7.5"/>
          <rect class="cls-54" x="302.9" y="92.3" width="5.8" height="7.5"/>
          <rect class="cls-154" x="297.1" y="92.3" width="5.8" height="7.5"/>
          <rect class="cls-101" x="431.4" y="84.8" width="5.8" height="7.5"/>
          <rect class="cls-179" x="408.1" y="84.8" width="5.8" height="7.5"/>
          <g>
            <polygon class="cls-21" points="326.3 414.8 320.4 414.8 314.6 414.8 308.7 414.8 302.9 414.8 297.1 414.8 291.2 414.8 291.2 422.3 297.1 422.3 302.9 422.3 308.7 422.3 314.6 422.3 320.4 422.3 326.3 422.3 332.1 422.3 338 422.3 338 414.8 332.1 414.8 326.3 414.8"/>
            <polygon class="cls-21" points="250.3 414.8 244.5 414.8 238.6 414.8 232.8 414.8 226.9 414.8 221.1 414.8 215.3 414.8 209.4 414.8 203.6 414.8 197.7 414.8 197.7 422.3 203.6 422.3 209.4 422.3 215.3 422.3 221.1 422.3 226.9 422.3 232.8 422.3 238.6 422.3 244.5 422.3 250.3 422.3 256.2 422.3 262 422.3 262 414.8 256.2 414.8 250.3 414.8"/>
            <rect class="cls-21" x="413.9" y="77.3" width="5.8" height="7.5"/>
          </g>
          <rect class="cls-211" x="256.2" y="69.8" width="5.8" height="7.5"/>
          <rect class="cls-58" x="396.4" y="62.3" width="5.9" height="7.5"/>
          <rect class="cls-123" x="367.2" y="62.3" width="5.8" height="7.5"/>
          <rect class="cls-53" x="244.5" y="62.3" width="5.8" height="7.5"/>
          <rect class="cls-28" x="221.1" y="62.3" width="5.8" height="7.5"/>
          <rect class="cls-52" x="384.7" y="54.8" width="5.8" height="7.5"/>
          <rect class="cls-1" x="343.8" y="54.8" width="5.8" height="7.5"/>
          <rect class="cls-3" x="291.2" y="54.8" width="5.8" height="7.5"/>
          <rect class="cls-56" x="367.2" y="47.3" width="5.8" height="7.5"/>
          <rect class="cls-189" x="308.7" y="47.3" width="5.9" height="7.5"/>
          <rect class="cls-31" x="244.5" y="47.3" width="5.8" height="7.5"/>
          <rect class="cls-169" x="232.8" y="47.3" width="5.9" height="7.5"/>
          <rect class="cls-27" x="291.2" y="39.8" width="5.8" height="7.5"/>
          <rect class="cls-103" x="279.5" y="39.8" width="5.8" height="7.5"/>
          <rect class="cls-97" x="232.8" y="39.8" width="5.9" height="7.5"/>
          <rect class="cls-170" x="373" y="32.3" width="5.8" height="7.5"/>
          <g>
            <polygon class="cls-12" points="402.2 69.8 396.4 69.8 396.4 77.3 402.2 77.3 408.1 77.3 408.1 69.8 402.2 69.8"/>
            <polygon class="cls-12" points="390.5 62.3 384.7 62.3 384.7 54.8 378.9 54.8 373 54.8 367.2 54.8 367.2 47.3 361.3 47.3 355.5 47.3 355.5 39.8 349.6 39.8 343.8 39.8 343.8 32.3 338 32.3 332.1 32.3 326.3 32.3 320.4 32.3 314.6 32.3 308.7 32.3 302.9 32.3 297.1 32.3 297.1 39.8 297.1 47.3 291.2 47.3 291.2 54.8 297.1 54.8 297.1 62.3 297.1 69.8 297.1 77.3 297.1 84.8 297.1 92.3 302.9 92.3 308.7 92.3 308.7 99.8 314.6 99.8 314.6 107.3 308.7 107.3 308.7 114.8 302.9 114.8 297.1 114.8 291.2 114.8 285.4 114.8 279.5 114.8 279.5 122.3 273.7 122.3 267.8 122.3 262 122.3 262 129.8 256.2 129.8 250.3 129.8 244.5 129.8 238.6 129.8 232.8 129.8 226.9 129.8 221.1 129.8 215.3 129.8 209.4 129.8 203.6 129.8 203.6 137.3 209.4 137.3 215.3 137.3 221.1 137.3 226.9 137.3 226.9 144.8 232.8 144.8 238.6 144.8 244.5 144.8 250.3 144.8 256.2 144.8 262 144.8 267.8 144.8 273.7 144.8 279.5 144.8 285.4 144.8 291.2 144.8 297.1 144.8 302.9 144.8 308.7 144.8 314.6 144.8 314.6 137.3 320.4 137.3 326.3 137.3 332.1 137.3 338 137.3 343.8 137.3 343.8 129.8 338 129.8 338 122.3 338 114.8 338 107.3 332.1 107.3 332.1 99.8 332.1 92.3 326.3 92.3 326.3 84.8 326.3 77.3 320.4 77.3 320.4 69.8 320.4 62.3 314.6 62.3 314.6 54.8 308.7 54.8 308.7 47.3 314.6 47.3 320.4 47.3 326.3 47.3 332.1 47.3 338 47.3 338 54.8 343.8 54.8 349.6 54.8 355.5 54.8 355.5 62.3 361.3 62.3 367.2 62.3 373 62.3 373 69.8 378.9 69.8 384.7 69.8 390.5 69.8 396.4 69.8 396.4 62.3 390.5 62.3"/>
          </g>
          <rect class="cls-198" x="291.2" y="32.3" width="5.8" height="7.5"/>
          <rect class="cls-155" x="279.5" y="32.3" width="5.8" height="7.5"/>
          <rect class="cls-113" x="256.2" y="32.3" width="5.8" height="7.5"/>
          <rect class="cls-96" x="238.6" y="32.3" width="5.8" height="7.5"/>
          <rect class="cls-64" x="291.2" y="24.8" width="5.8" height="7.5"/>
          <g>
            <polygon class="cls-94" points="256.2 549.8 256.2 557.3 262 557.3 267.8 557.3 267.8 549.8 262 549.8 256.2 549.8"/>
            <polygon class="cls-94" points="384.7 534.8 384.7 542.3 390.5 542.3 396.4 542.3 396.4 534.8 390.5 534.8 384.7 534.8"/>
            <polygon class="cls-94" points="338 534.8 338 542.3 343.8 542.3 343.8 534.8 343.8 527.3 338 527.3 338 534.8"/>
            <polygon class="cls-94" points="285.4 504.8 285.4 512.3 291.2 512.3 297.1 512.3 297.1 504.8 291.2 504.8 285.4 504.8"/>
            <rect class="cls-94" x="320.4" y="467.3" width="5.8" height="7.5"/>
            <polygon class="cls-94" points="338 422.3 332.1 422.3 326.3 422.3 320.4 422.3 314.6 422.3 308.7 422.3 302.9 422.3 297.1 422.3 291.2 422.3 291.2 429.8 297.1 429.8 302.9 429.8 308.7 429.8 314.6 429.8 320.4 429.8 326.3 429.8 332.1 429.8 338 429.8 338 422.3"/>
            <polygon class="cls-94" points="262 429.8 262 422.3 256.2 422.3 250.3 422.3 244.5 422.3 238.6 422.3 232.8 422.3 226.9 422.3 221.1 422.3 215.3 422.3 209.4 422.3 203.6 422.3 197.7 422.3 197.7 429.8 203.6 429.8 209.4 429.8 215.3 429.8 221.1 429.8 226.9 429.8 232.8 429.8 238.6 429.8 244.5 429.8 250.3 429.8 256.2 429.8 262 429.8"/>
            <polygon class="cls-94" points="92.6 234.8 86.7 234.8 86.7 242.3 86.7 249.8 86.7 257.3 86.7 264.8 86.7 272.3 86.7 279.8 86.7 287.3 86.7 294.8 86.7 302.3 86.7 309.8 86.7 317.3 86.7 324.8 86.7 332.3 86.7 339.8 86.7 347.3 86.7 354.8 86.7 362.3 86.7 369.8 86.7 377.3 86.7 384.8 86.7 392.3 86.7 399.8 86.7 407.3 86.7 414.8 86.7 422.3 86.7 429.8 86.7 437.3 86.7 444.8 86.7 452.3 86.7 459.8 86.7 467.3 86.7 474.8 86.7 482.3 86.7 489.8 86.7 497.3 86.7 504.8 86.7 512.3 86.7 519.8 86.7 527.3 86.7 534.8 86.7 542.3 86.7 549.8 86.7 557.3 86.7 564.8 86.7 572.3 86.7 579.8 86.7 587.3 86.7 594.8 92.6 594.8 98.4 594.8 98.4 587.3 98.4 579.8 98.4 572.3 98.4 564.8 98.4 557.3 98.4 549.8 98.4 542.3 98.4 534.8 98.4 527.3 98.4 519.8 98.4 512.3 98.4 504.8 98.4 497.3 98.4 489.8 98.4 482.3 98.4 474.8 98.4 467.3 98.4 459.8 98.4 452.3 98.4 444.8 98.4 437.3 98.4 429.8 98.4 422.3 98.4 414.8 98.4 407.3 98.4 399.8 98.4 392.3 98.4 384.8 98.4 377.3 98.4 369.8 98.4 362.3 98.4 354.8 98.4 347.3 98.4 339.8 98.4 332.3 98.4 324.8 98.4 317.3 98.4 309.8 98.4 302.3 98.4 294.8 98.4 287.3 98.4 279.8 98.4 272.3 98.4 264.8 98.4 257.3 98.4 249.8 98.4 242.3 98.4 234.8 98.4 227.3 92.6 227.3 92.6 234.8"/>
            <polygon class="cls-94" points="92.6 189.8 86.7 189.8 80.9 189.8 75 189.8 75 197.3 75 204.8 80.9 204.8 86.7 204.8 86.7 212.3 86.7 219.8 92.6 219.8 92.6 212.3 98.4 212.3 98.4 204.8 104.2 204.8 104.2 197.3 104.2 189.8 98.4 189.8 92.6 189.8"/>
            <rect class="cls-94" x="104.2" y="182.3" width="5.8" height="7.5"/>
            <rect class="cls-94" x="69.2" y="182.3" width="5.8" height="7.5"/>
            <polygon class="cls-94" points="69.2 167.3 69.2 159.8 69.2 152.3 63.4 152.3 63.4 159.8 57.5 159.8 51.7 159.8 45.8 159.8 45.8 167.3 40 167.3 40 174.8 45.8 174.8 51.7 174.8 51.7 182.3 57.5 182.3 63.4 182.3 69.2 182.3 69.2 174.8 69.2 167.3"/>
            <polygon class="cls-94" points="133.5 159.8 127.6 159.8 121.8 159.8 121.8 152.3 115.9 152.3 110.1 152.3 110.1 159.8 115.9 159.8 115.9 167.3 115.9 174.8 115.9 182.3 121.8 182.3 127.6 182.3 127.6 174.8 133.5 174.8 139.3 174.8 139.3 167.3 133.5 167.3 133.5 159.8"/>
            <rect class="cls-94" x="104.2" y="144.8" width="5.8" height="7.5"/>
            <polygon class="cls-94" points="98.4 137.3 98.4 129.8 98.4 122.3 92.6 122.3 92.6 114.8 86.7 114.8 86.7 122.3 86.7 129.8 80.9 129.8 80.9 137.3 75 137.3 75 144.8 80.9 144.8 86.7 144.8 92.6 144.8 98.4 144.8 104.2 144.8 104.2 137.3 98.4 137.3"/>
            <polygon class="cls-94" points="232.8 129.8 232.8 122.3 232.8 114.8 226.9 114.8 221.1 114.8 221.1 122.3 221.1 129.8 226.9 129.8 232.8 129.8"/>
            <polygon class="cls-94" points="308.7 107.3 308.7 99.8 302.9 99.8 297.1 99.8 297.1 107.3 302.9 107.3 308.7 107.3"/>
            <polygon class="cls-94" points="425.6 84.8 425.6 77.3 419.7 77.3 419.7 84.8 413.9 84.8 413.9 92.3 419.7 92.3 419.7 99.8 425.6 99.8 431.4 99.8 431.4 92.3 431.4 84.8 425.6 84.8"/>
            <polygon class="cls-94" points="256.2 77.3 256.2 69.8 256.2 62.3 250.3 62.3 250.3 69.8 244.5 69.8 244.5 77.3 250.3 77.3 256.2 77.3"/>
            <polygon class="cls-94" points="291.2 32.3 291.2 24.8 285.4 24.8 285.4 32.3 285.4 39.8 291.2 39.8 291.2 32.3"/>
          </g>
          <rect class="cls-194" x="279.5" y="24.8" width="5.8" height="7.5"/>
          <rect class="cls-39" x="273.7" y="24.8" width="5.9" height="7.5"/>
          <polygon class="cls-161" points="256.2 24.8 250.3 24.8 250.3 32.3 250.3 32.3 250.3 24.8 244.5 24.8 244.5 32.3 244.5 32.3 244.5 39.8 238.6 39.8 238.6 47.3 238.6 54.8 238.6 54.8 232.8 54.8 232.8 62.3 232.8 69.8 232.8 69.8 232.8 62.3 226.9 62.3 226.9 69.8 226.9 69.8 226.9 77.3 221.1 77.3 221.1 84.8 221.1 92.3 221.1 92.3 221.1 84.8 215.3 84.8 215.3 92.3 215.3 92.3 215.3 99.8 215.3 99.8 215.3 107.3 221.1 107.3 221.1 99.8 221.1 99.8 221.1 99.8 226.9 99.8 226.9 92.3 226.9 92.3 226.9 84.8 232.8 84.8 232.8 77.3 238.6 77.3 238.6 69.8 238.6 69.8 238.6 62.3 238.6 62.3 244.5 62.3 244.5 54.8 244.5 54.8 244.5 47.3 250.3 47.3 250.3 47.3 256.2 47.3 256.2 39.8 250.3 39.8 250.3 39.8 256.2 39.8 256.2 32.3 262 32.3 262 24.8 256.2 24.8"/>
          <g>
            <rect class="cls-218" x="256.2" y="407.3" width="5.8" height="7.5"/>
            <rect class="cls-218" x="484" y="594.8" width="5.8" height="7.5"/>
            <path class="cls-218" d="M478.2,587.3v-7.5h-17.5v-7.5h-5.9v-7.5h-17.5v-7.5h-5.8v-7.5h-11.7v-7.5h-5.8v-7.5h-5.8v-7.5h-5.8v7.5h0v-7.5h-5.9v-7.5h-5.8v-7.5h-5.8v7.5h0v-15h-5.8v-7.5h-11.7v-7.5h-5.8v-7.5h-5.8v-7.5h-5.9v-7.5h-5.8v-15h-5.8v-15h-52.6v15h-5.8v7.5h-11.7v-22.5h-70.1v142.5h5.8v-22.5h5.9v-22.5h5.8v-15h5.8v7.5h5.8v15h5.8v15h5.9v15h5.8v7.5h11.7v7.5h5.8v7.5h5.8v7.5h40.9v-15h-5.8v-15h-5.8v-30h-5.8v-22.5h-5.8v-15h-5.8v-7.5h23.4v7.5h-5.8v22.5h5.8v7.5h5.8v7.5h5.9v7.5h11.7v7.5h5.8v7.5h5.8v7.5h5.8v7.5h11.7v7.5h11.7v7.5h11.7v7.5h29.2v-15h-5.8v-22.5h-5.9v-7.5h11.7v7.5h11.7v7.5h11.7v7.5h23.4v7.5h11.7v7.5h17.5v-7.5h-6.2ZM273.7,557.3v7.5h-17.5v-15h5.8v-7.5h5.8v7.5h5.8v7.5h.1ZM320.4,474.8v-7.5h-5.8v-7.5h5.8v-7.5h0v7.5h17.5v7.5h-5.8v7.5h-11.7ZM349.6,542.3v7.5h-17.5v-7.5h-5.8v-7.5h11.7v-7.5h5.8v7.5h5.8v7.5ZM396.4,542.3v7.5h-17.5v-15h5.8v-7.5h5.8v7.5h5.8v7.5h.1Z"/>
            <polygon class="cls-218" points="197.7 392.3 197.7 399.8 197.7 407.3 197.7 414.8 203.6 414.8 209.4 414.8 215.3 414.8 221.1 414.8 226.9 414.8 232.8 414.8 238.6 414.8 244.5 414.8 250.3 414.8 256.2 414.8 256.2 407.3 250.3 407.3 250.3 399.8 244.5 399.8 244.5 392.3 244.5 384.8 244.5 377.3 244.5 369.8 238.6 369.8 238.6 362.3 238.6 354.8 232.8 354.8 232.8 347.3 232.8 339.8 232.8 332.3 232.8 324.8 226.9 324.8 226.9 317.3 226.9 309.8 221.1 309.8 221.1 302.3 215.3 302.3 215.3 294.8 215.3 287.3 209.4 287.3 209.4 279.8 209.4 272.3 203.6 272.3 203.6 279.8 203.6 287.3 203.6 294.8 203.6 302.3 203.6 309.8 203.6 317.3 203.6 324.8 203.6 332.3 203.6 339.8 203.6 347.3 203.6 354.8 203.6 362.3 203.6 369.8 203.6 377.3 203.6 384.8 197.7 384.8 197.7 392.3"/>
            <polygon class="cls-218" points="367.2 324.8 367.2 332.3 367.2 339.8 367.2 347.3 367.2 354.8 367.2 362.3 367.2 369.8 367.2 377.3 367.2 384.8 361.3 384.8 361.3 392.3 355.5 392.3 355.5 399.8 355.5 407.3 355.5 414.8 355.5 422.3 361.3 422.3 367.2 422.3 373 422.3 378.9 422.3 384.7 422.3 390.5 422.3 396.4 422.3 396.4 414.8 396.4 407.3 396.4 399.8 396.4 392.3 396.4 384.8 390.5 384.8 390.5 377.3 390.5 369.8 384.7 369.8 384.7 362.3 384.7 354.8 384.7 347.3 384.7 339.8 378.9 339.8 378.9 332.3 378.9 324.8 378.9 317.3 373 317.3 373 309.8 367.2 309.8 367.2 317.3 367.2 324.8"/>
            <polygon class="cls-218" points="197.7 309.8 197.7 302.3 197.7 294.8 197.7 287.3 191.9 287.3 186 287.3 186 294.8 180.2 294.8 180.2 302.3 174.4 302.3 174.4 309.8 168.5 309.8 168.5 317.3 162.7 317.3 162.7 324.8 156.8 324.8 156.8 332.3 151 332.3 151 339.8 145.1 339.8 139.3 339.8 133.5 339.8 127.6 339.8 121.8 339.8 121.8 347.3 121.8 354.8 115.9 354.8 115.9 362.3 115.9 362.3 115.9 369.8 115.9 377.3 115.9 384.8 115.9 392.3 115.9 399.8 115.9 407.3 115.9 414.8 115.9 422.3 115.9 429.8 115.9 437.3 115.9 444.8 121.8 444.8 127.6 444.8 133.5 444.8 133.5 437.3 139.3 437.3 139.3 429.8 145.1 429.8 145.1 422.3 151 422.3 156.8 422.3 156.8 414.8 156.8 407.3 162.7 407.3 162.7 399.8 162.7 392.3 168.5 392.3 174.4 392.3 174.4 384.8 174.4 377.3 174.4 369.8 180.2 369.8 180.2 362.3 180.2 354.8 186 354.8 186 347.3 186 339.8 186 332.3 191.9 332.3 191.9 324.8 191.9 317.3 197.7 317.3 197.7 309.8"/>
            <polygon class="cls-218" points="367.2 294.8 361.3 294.8 361.3 302.3 361.3 309.8 367.2 309.8 367.2 302.3 367.2 294.8"/>
            <rect class="cls-218" x="355.5" y="287.3" width="5.8" height="7.5"/>
            <rect class="cls-218" x="349.6" y="279.8" width="5.9" height="7.5"/>
            <polygon class="cls-218" points="338 279.8 332.1 279.8 332.1 287.3 332.1 287.3 332.1 294.8 326.3 294.8 326.3 302.3 326.3 309.8 326.3 317.3 320.4 317.3 320.4 324.8 320.4 332.3 314.6 332.3 314.6 339.8 308.7 339.8 308.7 347.3 308.7 354.8 302.9 354.8 297.1 354.8 297.1 362.3 297.1 369.8 291.2 369.8 291.2 377.3 291.2 384.8 291.2 392.3 291.2 399.8 291.2 407.3 291.2 414.8 297.1 414.8 302.9 414.8 308.7 414.8 314.6 414.8 320.4 414.8 326.3 414.8 332.1 414.8 338 414.8 338 407.3 338 399.8 338 392.3 338 384.8 338 377.3 338 369.8 343.8 369.8 343.8 362.3 343.8 354.8 343.8 347.3 343.8 339.8 343.8 332.3 343.8 324.8 343.8 317.3 343.8 309.8 343.8 302.3 343.8 294.8 343.8 287.3 343.8 279.8 343.8 272.3 338 272.3 338 279.8"/>
            <polygon class="cls-218" points="215.3 129.8 221.1 129.8 221.1 122.3 215.3 122.3 215.3 114.8 221.1 114.8 226.9 114.8 226.9 107.3 232.8 107.3 232.8 114.8 238.6 114.8 238.6 122.3 232.8 122.3 232.8 129.8 238.6 129.8 244.5 129.8 250.3 129.8 256.2 129.8 262 129.8 262 122.3 267.8 122.3 273.7 122.3 273.7 114.8 279.5 114.8 285.4 114.8 285.4 107.3 291.2 107.3 291.2 99.8 297.1 99.8 297.1 92.3 297.1 84.8 297.1 77.3 297.1 69.8 297.1 62.3 291.2 62.3 291.2 54.8 291.2 47.3 291.2 39.8 285.4 39.8 285.4 47.3 279.5 47.3 279.5 39.8 279.5 32.3 273.7 32.3 273.7 24.8 279.5 24.8 285.4 24.8 291.2 24.8 297.1 24.8 297.1 32.3 302.9 32.3 308.7 32.3 314.6 32.3 320.4 32.3 326.3 32.3 332.1 32.3 338 32.3 343.8 32.3 343.8 39.8 349.6 39.8 355.5 39.8 355.5 47.3 361.3 47.3 367.2 47.3 373 47.3 373 54.8 378.9 54.8 384.7 54.8 390.5 54.8 390.5 47.3 384.7 47.3 378.9 47.3 378.9 39.8 373 39.8 373 32.3 367.2 32.3 361.3 32.3 361.3 24.8 355.5 24.8 349.6 24.8 343.8 24.8 343.8 17.3 338 17.3 332.1 17.3 326.3 17.3 326.3 9.8 320.4 9.8 314.6 9.8 308.7 9.8 302.9 9.8 297.1 9.8 291.2 9.8 285.4 9.8 279.5 9.8 273.7 9.8 267.8 9.8 262 9.8 262 17.3 256.2 17.3 256.2 24.8 262 24.8 262 32.3 262 39.8 256.2 39.8 256.2 47.3 250.3 47.3 250.3 54.8 244.5 54.8 244.5 62.3 250.3 62.3 256.2 62.3 256.2 69.8 262 69.8 262 77.3 256.2 77.3 250.3 77.3 244.5 77.3 244.5 69.8 244.5 62.3 238.6 62.3 238.6 69.8 238.6 77.3 232.8 77.3 232.8 84.8 226.9 84.8 226.9 92.3 226.9 99.8 221.1 99.8 221.1 107.3 215.3 107.3 215.3 99.8 215.3 92.3 209.4 92.3 209.4 99.8 209.4 107.3 209.4 114.8 203.6 114.8 203.6 122.3 203.6 129.8 209.4 129.8 215.3 129.8"/>
            <rect class="cls-218" x="215.3" y="77.3" width="5.8" height="7.5"/>
            <polygon class="cls-218" points="413.9 77.3 419.7 77.3 419.7 69.8 413.9 69.8 408.1 69.8 408.1 77.3 413.9 77.3"/>
            <rect class="cls-218" x="221.1" y="69.8" width="5.8" height="7.5"/>
            <rect class="cls-218" x="402.2" y="62.3" width="5.8" height="7.5"/>
            <polygon class="cls-218" points="396.4 62.3 402.2 62.3 402.2 54.8 396.4 54.8 390.5 54.8 390.5 62.3 396.4 62.3"/>
            <rect class="cls-218" x="226.9" y="54.8" width="5.8" height="7.5"/>
          </g>
          <g>
            <polygon class="cls-66" points="355.5 452.3 355.5 444.8 355.5 437.3 355.5 429.8 355.5 422.3 349.6 422.3 343.8 422.3 343.8 429.8 343.8 437.3 343.8 444.8 343.8 452.3 349.6 452.3 349.6 459.8 349.6 467.3 355.5 467.3 355.5 459.8 355.5 452.3"/>
            <polygon class="cls-66" points="110.1 384.8 110.1 377.3 110.1 369.8 110.1 362.3 104.2 362.3 104.2 369.8 104.2 377.3 104.2 384.8 104.2 392.3 110.1 392.3 110.1 384.8"/>
            <path class="cls-66" d="M343.8,219.8v-30h-5.8v7.5h-5.8v7.5h-5.8v7.5h-116.8v-7.5h-5.9v30h5.9v37.5h5.8v15h5.8v7.5h5.8v15h5.8v15h5.9v30h5.8v15h5.8v7.5h5.8v22.5h5.8v7.5h5.8v30h5.8v7.5h5.9v-15h5.8v-60h5.8v-15h5.8v-7.5h5.8v-7.5h5.8v-7.5h5.9v-15h5.8v-22.5h5.8v-30h5.8v-15h5.8v-15h5.8v-15h.5ZM262,219.8h23.4v7.5h-29.2v-7.5h5.8Z"/>
            <polygon class="cls-66" points="191.9 197.3 191.9 204.8 197.7 204.8 197.7 197.3 197.7 189.8 197.7 182.3 197.7 174.8 197.7 167.3 197.7 159.8 191.9 159.8 186 159.8 186 167.3 186 174.8 186 182.3 186 189.8 191.9 189.8 191.9 197.3"/>
          </g>
          <g>
            <polygon class="cls-82" points="343.8 452.3 343.8 444.8 343.8 444.8 343.8 437.3 343.8 429.8 343.8 422.3 343.8 414.8 343.8 407.3 343.8 399.8 343.8 392.3 343.8 384.8 343.8 377.3 338 377.3 338 384.8 338 392.3 338 399.8 338 407.3 338 414.8 338 422.3 338 429.8 332.1 429.8 326.3 429.8 320.4 429.8 314.6 429.8 308.7 429.8 302.9 429.8 297.1 429.8 291.2 429.8 285.4 429.8 285.4 437.3 291.2 437.3 297.1 437.3 302.9 437.3 308.7 437.3 314.6 437.3 320.4 437.3 326.3 437.3 332.1 437.3 338 437.3 338 444.8 338 444.8 338 452.3 343.8 452.3"/>
            <polygon class="cls-82" points="256.2 429.8 250.3 429.8 244.5 429.8 238.6 429.8 232.8 429.8 226.9 429.8 221.1 429.8 215.3 429.8 209.4 429.8 203.6 429.8 197.7 429.8 197.7 437.3 203.6 437.3 209.4 437.3 215.3 437.3 221.1 437.3 226.9 437.3 232.8 437.3 238.6 437.3 244.5 437.3 250.3 437.3 256.2 437.3 262 437.3 267.8 437.3 267.8 429.8 262 429.8 256.2 429.8"/>
            <rect class="cls-82" x="110.1" y="422.3" width="5.8" height="7.5"/>
            <rect class="cls-82" x="262" y="407.3" width="5.8" height="7.5"/>
            <polygon class="cls-82" points="291.2 399.8 291.2 392.3 285.4 392.3 285.4 399.8 285.4 399.8 285.4 407.3 285.4 407.3 285.4 414.8 291.2 414.8 291.2 407.3 291.2 407.3 291.2 399.8 291.2 399.8"/>
            <rect class="cls-82" x="291.2" y="362.3" width="5.8" height="7.5"/>
            <rect class="cls-82" x="297.1" y="347.3" width="5.8" height="7.5"/>
            <rect class="cls-82" x="115.9" y="347.3" width="5.8" height="7.5"/>
            <rect class="cls-82" x="197.7" y="332.3" width="5.8" height="7.5"/>
            <polygon class="cls-82" points="349.6 309.8 349.6 302.3 349.6 294.8 343.8 294.8 343.8 302.3 343.8 309.8 343.8 317.3 349.6 317.3 349.6 309.8"/>
            <rect class="cls-82" x="320.4" y="309.8" width="5.8" height="7.5"/>
            <rect class="cls-82" x="180.2" y="287.3" width="5.8" height="7.5"/>
            <polygon class="cls-82" points="343.8 272.3 349.6 272.3 349.6 264.8 343.8 264.8 343.8 264.8 338 264.8 338 272.3 343.8 272.3 343.8 272.3"/>
            <polygon class="cls-82" points="209.4 264.8 209.4 257.3 209.4 257.3 209.4 249.8 209.4 242.3 209.4 234.8 203.6 234.8 203.6 242.3 203.6 249.8 203.6 257.3 203.6 257.3 203.6 264.8 209.4 264.8"/>
            <rect class="cls-82" x="343.8" y="219.8" width="5.8" height="7.5"/>
            <polygon class="cls-82" points="320.4 212.3 326.3 212.3 326.3 204.8 320.4 204.8 320.4 204.8 314.6 204.8 308.7 204.8 302.9 204.8 297.1 204.8 291.2 204.8 285.4 204.8 285.4 212.3 291.2 212.3 297.1 212.3 302.9 212.3 308.7 212.3 314.6 212.3 320.4 212.3 320.4 212.3"/>
            <polygon class="cls-82" points="343.8 204.8 343.8 204.8 343.8 212.3 349.6 212.3 349.6 204.8 349.6 204.8 349.6 212.3 355.5 212.3 355.5 204.8 355.5 204.8 355.5 197.3 361.3 197.3 361.3 189.8 355.5 189.8 349.6 189.8 349.6 197.3 349.6 197.3 343.8 197.3 343.8 204.8"/>
            <rect class="cls-82" x="203.6" y="197.3" width="5.9" height="7.5"/>
            <polygon class="cls-82" points="338 189.8 343.8 189.8 343.8 182.3 338 182.3 338 189.8 332.1 189.8 332.1 197.3 338 197.3 338 189.8"/>
            <polygon class="cls-82" points="273.7 189.8 267.8 189.8 267.8 182.3 262 182.3 262 189.8 262 197.3 267.8 197.3 273.7 197.3 273.7 189.8"/>
            <rect class="cls-82" x="115.9" y="182.3" width="5.8" height="7.5"/>
            <rect class="cls-82" x="86.7" y="182.3" width="5.9" height="7.5"/>
            <rect class="cls-82" x="104.2" y="174.8" width="5.8" height="7.5"/>
            <polygon class="cls-82" points="355.5 159.8 355.5 167.3 355.5 167.3 355.5 174.8 361.3 174.8 361.3 182.3 355.5 182.3 355.5 189.8 361.3 189.8 361.3 182.3 367.2 182.3 367.2 174.8 367.2 167.3 361.3 167.3 361.3 159.8 355.5 159.8"/>
            <rect class="cls-82" x="343.8" y="159.8" width="5.8" height="7.5"/>
            <rect class="cls-82" x="34.1" y="159.8" width="5.8" height="7.5"/>
            <polygon class="cls-82" points="57.5 152.3 51.7 152.3 51.7 159.8 57.5 159.8 57.5 159.8 63.4 159.8 63.4 152.3 57.5 152.3 57.5 152.3"/>
            <rect class="cls-82" x="308.7" y="144.8" width="5.9" height="7.5"/>
            <polygon class="cls-82" points="232.8 152.3 238.6 152.3 238.6 152.3 244.5 152.3 250.3 152.3 256.2 152.3 256.2 144.8 250.3 144.8 244.5 144.8 238.6 144.8 238.6 144.8 232.8 144.8 226.9 144.8 226.9 152.3 232.8 152.3"/>
            <rect class="cls-82" x="338" y="137.3" width="5.8" height="7.5"/>
            <polygon class="cls-82" points="221.1 137.3 215.3 137.3 209.4 137.3 209.4 144.8 215.3 144.8 221.1 144.8 226.9 144.8 226.9 137.3 221.1 137.3"/>
            <rect class="cls-82" x="69.2" y="137.3" width="5.8" height="7.5"/>
            <rect class="cls-82" x="425.6" y="99.8" width="5.8" height="7.5"/>
            <polygon class="cls-82" points="413.9 92.3 408.1 92.3 408.1 99.8 413.9 99.8 413.9 107.3 419.7 107.3 419.7 99.8 413.9 99.8 413.9 92.3"/>
            <polygon class="cls-82" points="413.9 84.8 413.9 77.3 408.1 77.3 402.2 77.3 402.2 84.8 408.1 84.8 413.9 84.8"/>
            <rect class="cls-82" x="419.7" y="69.8" width="5.9" height="7.5"/>
            <rect class="cls-82" x="413.9" y="62.3" width="5.8" height="7.5"/>
            <rect class="cls-82" x="256.2" y="9.8" width="5.8" height="7.5"/>
            <polygon class="cls-82" points="250.3 369.8 244.5 369.8 244.5 362.3 238.6 362.3 238.6 369.8 244.5 369.8 244.5 377.3 244.5 384.8 250.3 384.8 250.3 377.3 250.3 369.8"/>
            <rect class="cls-82" x="343.8" y="279.8" width="5.8" height="7.5"/>
            <polygon class="cls-82" points="203.6 197.3 203.6 189.8 203.6 182.3 203.6 182.3 203.6 174.8 197.7 174.8 197.7 182.3 197.7 182.3 197.7 189.8 197.7 197.3 197.7 204.8 203.6 204.8 203.6 197.3"/>
            <rect class="cls-82" x="332.1" y="152.3" width="5.8" height="7.5"/>
            <polygon class="cls-82" points="203.6 167.3 203.6 159.8 203.6 152.3 197.7 152.3 191.9 152.3 191.9 159.8 197.7 159.8 197.7 167.3 203.6 167.3"/>
            <polygon class="cls-82" points="338 137.3 332.1 137.3 326.3 137.3 320.4 137.3 320.4 144.8 326.3 144.8 332.1 144.8 338 144.8 338 137.3"/>
            <rect class="cls-82" x="203.6" y="137.3" width="5.9" height="7.5"/>
            <polygon class="cls-82" points="355.5 69.8 361.3 69.8 367.2 69.8 367.2 62.3 361.3 62.3 355.5 62.3 355.5 69.8"/>
            <rect class="cls-82" x="349.6" y="54.8" width="5.9" height="7.5"/>
            <rect class="cls-82" x="478.2" y="579.8" width="5.8" height="7.5"/>
            <rect class="cls-82" x="466.5" y="572.3" width="5.8" height="7.5"/>
            <rect class="cls-82" x="449" y="557.3" width="5.8" height="7.5"/>
            <rect class="cls-82" x="431.4" y="549.8" width="5.8" height="7.5"/>
            <rect class="cls-82" x="425.6" y="542.3" width="5.8" height="7.5"/>
            <rect class="cls-82" x="408.1" y="527.3" width="5.8" height="7.5"/>
            <rect class="cls-82" x="396.4" y="519.8" width="5.9" height="7.5"/>
            <rect class="cls-82" x="390.5" y="512.3" width="5.8" height="7.5"/>
            <rect class="cls-82" x="384.7" y="504.8" width="5.8" height="7.5"/>
            <rect class="cls-82" x="378.9" y="497.3" width="5.8" height="7.5"/>
            <rect class="cls-82" x="361.3" y="474.8" width="5.8" height="7.5"/>
            <polygon class="cls-82" points="361.3 459.8 361.3 452.3 367.2 452.3 367.2 444.8 361.3 444.8 355.5 444.8 355.5 452.3 355.5 459.8 355.5 467.3 349.6 467.3 349.6 474.8 355.5 474.8 355.5 467.3 361.3 467.3 367.2 467.3 373 467.3 373 459.8 367.2 459.8 361.3 459.8"/>
            <polygon class="cls-82" points="121.8 459.8 115.9 459.8 115.9 467.3 121.8 467.3 127.6 467.3 133.5 467.3 133.5 459.8 127.6 459.8 121.8 459.8"/>
            <rect class="cls-82" x="373" y="452.3" width="5.8" height="7.5"/>
            <rect class="cls-82" x="343.8" y="452.3" width="5.8" height="7.5"/>
            <polygon class="cls-82" points="133.5 452.3 133.5 459.8 139.3 459.8 145.1 459.8 145.1 452.3 139.3 452.3 133.5 452.3"/>
            <rect class="cls-82" x="273.7" y="444.8" width="5.9" height="7.5"/>
            <rect class="cls-82" x="145.1" y="444.8" width="5.8" height="7.5"/>
            <path class="cls-82" d="M115.9,444.8h0v-7.5h-5.8v7.5h0v-37.5h-5.8v-7.5h5.8v7.5h5.8v-22.5h0v-7.5h0v-15h-5.8v15h0v7.5h0v7.5h-5.8v-67.5h5.8v-7.5h-5.8v-105h-5.8v7.5h-11.7v-7.5h-11.7l5.8,7.5v382.5h23.4v-150h5.8v7.5h5.8s0-15,0-15ZM98.4,234.8v360h-11.7V227.3h11.7v7.5Z"/>
            <rect class="cls-82" x="156.8" y="437.3" width="5.8" height="7.5"/>
            <polygon class="cls-82" points="285.4 437.3 285.4 429.8 279.5 429.8 279.5 437.3 279.5 444.8 279.5 444.8 279.5 452.3 285.4 452.3 285.4 444.8 285.4 444.8 285.4 437.3"/>
            <rect class="cls-82" x="162.7" y="429.8" width="5.9" height="7.5"/>
            <rect class="cls-82" x="262" y="414.8" width="5.8" height="7.5"/>
            <rect class="cls-82" x="180.2" y="407.3" width="5.8" height="7.5"/>
            <polygon class="cls-82" points="186 392.3 186 399.8 186 407.3 191.9 407.3 191.9 414.8 191.9 422.3 191.9 429.8 191.9 437.3 191.9 444.8 191.9 452.3 191.9 459.8 191.9 467.3 191.9 474.8 191.9 482.3 191.9 489.8 191.9 497.3 191.9 504.8 191.9 512.3 191.9 519.8 191.9 527.3 191.9 534.8 191.9 542.3 191.9 549.8 191.9 557.3 191.9 564.8 191.9 572.3 191.9 579.8 191.9 587.3 191.9 594.8 191.9 602.3 197.7 602.3 197.7 594.8 197.7 587.3 197.7 579.8 197.7 572.3 197.7 564.8 197.7 557.3 197.7 549.8 197.7 542.3 197.7 534.8 197.7 527.3 197.7 519.8 197.7 512.3 197.7 504.8 197.7 497.3 197.7 489.8 197.7 482.3 197.7 474.8 197.7 467.3 197.7 459.8 197.7 452.3 197.7 444.8 197.7 437.3 197.7 429.8 197.7 422.3 197.7 414.8 197.7 407.3 197.7 399.8 197.7 392.3 191.9 392.3 186 392.3"/>
            <polygon class="cls-82" points="396.4 392.3 396.4 399.8 396.4 407.3 396.4 414.8 396.4 422.3 390.5 422.3 384.7 422.3 378.9 422.3 373 422.3 367.2 422.3 361.3 422.3 355.5 422.3 355.5 429.8 355.5 437.3 361.3 437.3 361.3 429.8 367.2 429.8 373 429.8 378.9 429.8 378.9 437.3 378.9 444.8 378.9 452.3 384.7 452.3 384.7 444.8 384.7 437.3 384.7 429.8 390.5 429.8 396.4 429.8 402.2 429.8 402.2 422.3 402.2 414.8 402.2 407.3 402.2 399.8 402.2 392.3 402.2 384.8 396.4 384.8 396.4 392.3"/>
            <polygon class="cls-82" points="250.3 399.8 256.2 399.8 256.2 392.3 256.2 384.8 250.3 384.8 250.3 392.3 250.3 399.8"/>
            <polygon class="cls-82" points="396.4 369.8 396.4 362.3 396.4 354.8 390.5 354.8 390.5 347.3 384.7 347.3 384.7 354.8 384.7 354.8 384.7 362.3 390.5 362.3 390.5 369.8 390.5 377.3 390.5 384.8 396.4 384.8 396.4 377.3 396.4 369.8"/>
            <polygon class="cls-82" points="285.4 384.8 291.2 384.8 291.2 377.3 291.2 369.8 285.4 369.8 285.4 377.3 285.4 384.8"/>
            <rect class="cls-82" x="291.2" y="354.8" width="5.8" height="7.5"/>
            <rect class="cls-82" x="238.6" y="354.8" width="5.8" height="7.5"/>
            <rect class="cls-82" x="384.7" y="339.8" width="5.8" height="7.5"/>
            <rect class="cls-82" x="302.9" y="339.8" width="5.8" height="7.5"/>
            <rect class="cls-82" x="378.9" y="332.3" width="5.8" height="7.5"/>
            <rect class="cls-82" x="308.7" y="332.3" width="5.9" height="7.5"/>
            <rect class="cls-82" x="232.8" y="332.3" width="5.9" height="7.5"/>
            <rect class="cls-82" x="139.3" y="332.3" width="5.8" height="7.5"/>
            <polygon class="cls-82" points="110.1 339.8 113 339.8 113 347.3 138.1 347.3 138.1 339.8 115.9 339.8 115.9 332.3 115.9 324.8 110.1 324.8 110.1 332.3 110.1 339.8"/>
            <rect class="cls-82" x="145.1" y="324.8" width="5.8" height="7.5"/>
            <polygon class="cls-82" points="378.9 324.8 384.7 324.8 384.7 317.3 378.9 317.3 378.9 309.8 373 309.8 373 317.3 378.9 317.3 378.9 324.8"/>
            <polygon class="cls-82" points="320.4 324.8 320.4 317.3 314.6 317.3 314.6 324.8 314.6 332.3 320.4 332.3 320.4 324.8"/>
            <rect class="cls-82" x="151" y="317.3" width="5.8" height="7.5"/>
            <rect class="cls-82" x="226.9" y="309.8" width="5.8" height="7.5"/>
            <rect class="cls-82" x="156.8" y="309.8" width="5.8" height="7.5"/>
            <rect class="cls-82" x="373" y="302.3" width="5.8" height="7.5"/>
            <rect class="cls-82" x="320.4" y="302.3" width="5.8" height="7.5"/>
            <polygon class="cls-82" points="162.7 302.3 162.7 309.8 168.5 309.8 174.4 309.8 174.4 302.3 168.5 302.3 162.7 302.3"/>
            <rect class="cls-82" x="367.2" y="294.8" width="5.8" height="7.5"/>
            <rect class="cls-82" x="221.1" y="294.8" width="5.8" height="7.5"/>
            <rect class="cls-82" x="361.3" y="287.3" width="5.8" height="7.5"/>
            <polygon class="cls-82" points="215.3 287.3 215.3 279.8 215.3 279.8 215.3 272.3 209.4 272.3 209.4 279.8 209.4 279.8 209.4 287.3 215.3 287.3 215.3 294.8 221.1 294.8 221.1 287.3 215.3 287.3"/>
            <polygon class="cls-82" points="180.2 287.3 174.4 287.3 174.4 294.8 174.4 294.8 174.4 302.3 180.2 302.3 180.2 294.8 180.2 294.8 180.2 287.3"/>
            <polygon class="cls-82" points="355.5 279.8 355.5 272.3 349.6 272.3 349.6 279.8 355.5 279.8 355.5 287.3 361.3 287.3 361.3 279.8 355.5 279.8"/>
            <polygon class="cls-82" points="203.6 272.3 197.7 272.3 191.9 272.3 191.9 279.8 186 279.8 186 287.3 191.9 287.3 191.9 279.8 197.7 279.8 203.6 279.8 203.6 272.3"/>
            <polygon class="cls-82" points="332.1 272.3 338 272.3 338 264.8 332.1 264.8 326.3 264.8 326.3 272.3 326.3 279.8 332.1 279.8 332.1 272.3"/>
            <rect class="cls-82" x="332.1" y="249.8" width="5.8" height="7.5"/>
            <rect class="cls-82" x="338" y="234.8" width="5.8" height="7.5"/>
            <rect class="cls-82" x="343.8" y="227.3" width="5.8" height="7.5"/>
            <rect class="cls-82" x="197.7" y="227.3" width="5.8" height="7.5"/>
            <polygon class="cls-82" points="197.7 219.8 197.7 219.8 197.7 227.3 203.6 227.3 203.6 219.8 203.6 219.8 203.6 212.3 197.7 212.3 197.7 204.8 191.9 204.8 191.9 197.3 186 197.3 186 204.8 186 212.3 191.9 212.3 191.9 219.8 197.7 219.8"/>
            <rect class="cls-82" x="256.2" y="204.8" width="5.8" height="7.5"/>
            <rect class="cls-82" x="326.3" y="197.3" width="5.8" height="7.5"/>
            <rect class="cls-82" x="104.2" y="197.3" width="5.8" height="7.5"/>
            <rect class="cls-82" x="69.2" y="197.3" width="5.8" height="7.5"/>
            <rect class="cls-82" x="110.1" y="189.8" width="5.8" height="7.5"/>
            <rect class="cls-82" x="80.9" y="182.3" width="5.8" height="7.5"/>
            <rect class="cls-82" x="57.5" y="182.3" width="5.8" height="7.5"/>
            <polygon class="cls-82" points="291.2 182.3 297.1 182.3 297.1 174.8 291.2 174.8 285.4 174.8 279.5 174.8 279.5 182.3 285.4 182.3 291.2 182.3"/>
            <polygon class="cls-82" points="244.5 182.3 250.3 182.3 250.3 174.8 244.5 174.8 238.6 174.8 232.8 174.8 232.8 182.3 238.6 182.3 244.5 182.3"/>
            <polygon class="cls-82" points="139.3 182.3 145.1 182.3 145.1 174.8 139.3 174.8 133.5 174.8 127.6 174.8 127.6 182.3 133.5 182.3 139.3 182.3"/>
            <rect class="cls-82" x="40" y="174.8" width="5.8" height="7.5"/>
            <polygon class="cls-82" points="180.2 174.8 180.2 182.3 180.2 189.8 186 189.8 186 182.3 186 174.8 186 167.3 186 159.8 186 159.8 186 152.3 180.2 152.3 180.2 159.8 180.2 159.8 180.2 167.3 180.2 174.8"/>
            <rect class="cls-82" x="28.3" y="167.3" width="5.8" height="7.5"/>
            <polygon class="cls-82" points="308.7 159.8 302.9 159.8 297.1 159.8 291.2 159.8 285.4 159.8 279.5 159.8 273.7 159.8 267.8 159.8 267.8 167.3 267.8 174.8 273.7 174.8 273.7 167.3 279.5 167.3 285.4 167.3 291.2 167.3 297.1 167.3 302.9 167.3 308.7 167.3 308.7 167.3 308.7 174.8 314.6 174.8 314.6 167.3 314.6 167.3 314.6 159.8 308.7 159.8 308.7 159.8"/>
            <polygon class="cls-82" points="256.2 159.8 250.3 159.8 250.3 159.8 244.5 159.8 238.6 159.8 232.8 159.8 226.9 159.8 221.1 159.8 215.3 159.8 209.4 159.8 209.4 167.3 209.4 174.8 215.3 174.8 215.3 167.3 221.1 167.3 226.9 167.3 232.8 167.3 238.6 167.3 244.5 167.3 250.3 167.3 250.3 167.3 256.2 167.3 256.2 159.8"/>
            <polygon class="cls-82" points="145.1 167.3 145.1 174.8 151 174.8 151 167.3 151 167.3 151 159.8 145.1 159.8 139.3 159.8 139.3 167.3 145.1 167.3 145.1 167.3"/>
            <polygon class="cls-82" points="355.5 152.3 349.6 152.3 343.8 152.3 343.8 159.8 349.6 159.8 355.5 159.8 361.3 159.8 367.2 159.8 367.2 152.3 361.3 152.3 355.5 152.3"/>
            <rect class="cls-82" x="174.4" y="152.3" width="5.9" height="7.5"/>
            <rect class="cls-82" x="127.6" y="152.3" width="5.9" height="7.5"/>
            <rect class="cls-82" x="45.8" y="152.3" width="5.8" height="7.5"/>
            <polygon class="cls-82" points="367.2 144.8 367.2 152.3 373 152.3 378.9 152.3 378.9 144.8 373 144.8 367.2 144.8"/>
            <polygon class="cls-82" points="262 152.3 267.8 152.3 273.7 152.3 279.5 152.3 285.4 152.3 291.2 152.3 297.1 152.3 302.9 152.3 308.7 152.3 308.7 144.8 302.9 144.8 297.1 144.8 291.2 144.8 285.4 144.8 279.5 144.8 273.7 144.8 267.8 144.8 262 144.8 262 144.8 256.2 144.8 256.2 152.3 262 152.3 262 152.3"/>
            <polygon class="cls-82" points="162.7 152.3 168.5 152.3 174.4 152.3 174.4 144.8 168.5 144.8 162.7 144.8 156.8 144.8 156.8 152.3 162.7 152.3"/>
            <rect class="cls-82" x="115.9" y="144.8" width="5.8" height="7.5"/>
            <rect class="cls-82" x="98.4" y="144.8" width="5.8" height="7.5"/>
            <rect class="cls-82" x="378.9" y="137.3" width="5.8" height="7.5"/>
            <rect class="cls-82" x="151" y="137.3" width="5.8" height="7.5"/>
            <rect class="cls-82" x="110.1" y="137.3" width="5.8" height="7.5"/>
            <polygon class="cls-82" points="373 129.8 367.2 129.8 361.3 129.8 355.5 129.8 349.6 129.8 349.6 129.8 343.8 129.8 343.8 137.3 349.6 137.3 349.6 137.3 355.5 137.3 361.3 137.3 367.2 137.3 373 137.3 378.9 137.3 378.9 129.8 373 129.8"/>
            <rect class="cls-82" x="197.7" y="129.8" width="5.8" height="7.5"/>
            <polygon class="cls-82" points="168.5 137.3 174.4 137.3 180.2 137.3 186 137.3 186 129.8 180.2 129.8 174.4 129.8 168.5 129.8 162.7 129.8 156.8 129.8 156.8 137.3 162.7 137.3 168.5 137.3"/>
            <rect class="cls-82" x="104.2" y="129.8" width="5.8" height="7.5"/>
            <rect class="cls-82" x="69.2" y="129.8" width="5.8" height="7.5"/>
            <polygon class="cls-82" points="197.7 129.8 197.7 122.3 191.9 122.3 186 122.3 186 129.8 191.9 129.8 197.7 129.8"/>
            <rect class="cls-82" x="98.4" y="122.3" width="5.8" height="7.5"/>
            <rect class="cls-82" x="75" y="122.3" width="5.8" height="7.5"/>
            <polygon class="cls-82" points="338 122.3 343.8 122.3 343.8 114.8 343.8 107.3 338 107.3 338 114.8 338 122.3"/>
            <rect class="cls-82" x="197.7" y="114.8" width="5.8" height="7.5"/>
            <polygon class="cls-82" points="92.6 114.8 92.6 122.3 98.4 122.3 98.4 114.8 98.4 107.3 92.6 107.3 92.6 107.3 86.7 107.3 86.7 114.8 92.6 114.8 92.6 114.8"/>
            <rect class="cls-82" x="80.9" y="114.8" width="5.8" height="7.5"/>
            <rect class="cls-82" x="203.6" y="107.3" width="5.9" height="7.5"/>
            <rect class="cls-82" x="431.4" y="92.3" width="5.8" height="7.5"/>
            <rect class="cls-82" x="203.6" y="92.3" width="5.9" height="7.5"/>
            <polygon class="cls-82" points="326.3 92.3 332.1 92.3 332.1 92.3 332.1 99.8 332.1 99.8 332.1 107.3 338 107.3 338 99.8 338 99.8 338 92.3 338 92.3 338 84.8 332.1 84.8 332.1 77.3 326.3 77.3 326.3 84.8 326.3 92.3"/>
            <polygon class="cls-82" points="215.3 84.8 215.3 84.8 215.3 77.3 221.1 77.3 221.1 69.8 221.1 62.3 215.3 62.3 215.3 69.8 215.3 77.3 209.4 77.3 209.4 84.8 209.4 84.8 209.4 92.3 215.3 92.3 215.3 84.8"/>
            <polygon class="cls-82" points="425.6 77.3 425.6 84.8 431.4 84.8 437.3 84.8 437.3 77.3 431.4 77.3 425.6 77.3"/>
            <rect class="cls-82" x="396.4" y="77.3" width="5.9" height="7.5"/>
            <polygon class="cls-82" points="390.5 69.8 384.7 69.8 378.9 69.8 373 69.8 373 77.3 378.9 77.3 384.7 77.3 390.5 77.3 396.4 77.3 396.4 69.8 390.5 69.8"/>
            <polygon class="cls-82" points="320.4 77.3 326.3 77.3 326.3 69.8 326.3 62.3 320.4 62.3 320.4 69.8 320.4 77.3"/>
            <rect class="cls-82" x="408.1" y="62.3" width="5.8" height="7.5"/>
            <rect class="cls-82" x="402.2" y="54.8" width="5.8" height="7.5"/>
            <rect class="cls-82" x="338" y="54.8" width="5.8" height="7.5"/>
            <rect class="cls-82" x="221.1" y="54.8" width="5.8" height="7.5"/>
            <polygon class="cls-82" points="396.4 47.3 390.5 47.3 390.5 54.8 396.4 54.8 402.2 54.8 402.2 47.3 396.4 47.3"/>
            <polygon class="cls-82" points="332.1 47.3 326.3 47.3 320.4 47.3 314.6 47.3 314.6 54.8 314.6 62.3 320.4 62.3 320.4 54.8 326.3 54.8 332.1 54.8 338 54.8 338 47.3 332.1 47.3"/>
            <polygon class="cls-82" points="232.8 47.3 232.8 39.8 226.9 39.8 226.9 47.3 226.9 54.8 232.8 54.8 232.8 47.3"/>
            <polygon class="cls-82" points="384.7 39.8 378.9 39.8 378.9 47.3 384.7 47.3 390.5 47.3 390.5 39.8 384.7 39.8"/>
            <rect class="cls-82" x="232.8" y="32.3" width="5.9" height="7.5"/>
            <polygon class="cls-82" points="373 32.3 373 24.8 367.2 24.8 361.3 24.8 361.3 32.3 367.2 32.3 373 32.3"/>
            <rect class="cls-82" x="238.6" y="24.8" width="5.8" height="7.5"/>
            <polygon class="cls-82" points="349.6 24.8 355.5 24.8 355.5 17.3 349.6 17.3 343.8 17.3 343.8 24.8 349.6 24.8"/>
            <polygon class="cls-82" points="256.2 24.8 256.2 17.3 250.3 17.3 244.5 17.3 244.5 24.8 250.3 24.8 256.2 24.8"/>
            <polygon class="cls-82" points="332.1 17.3 338 17.3 343.8 17.3 343.8 9.8 338 9.8 332.1 9.8 326.3 9.8 326.3 17.3 332.1 17.3"/>
            <polygon class="cls-82" points="273.7 9.8 279.5 9.8 285.4 9.8 291.2 9.8 297.1 9.8 302.9 9.8 308.7 9.8 314.6 9.8 320.4 9.8 326.3 9.8 326.3 2.3 320.4 2.3 314.6 2.3 308.7 2.3 302.9 2.3 297.1 2.3 291.2 2.3 285.4 2.3 279.5 2.3 273.7 2.3 267.8 2.3 262 2.3 262 9.8 267.8 9.8 273.7 9.8"/>
          </g>
        </g>
      </g>
    </g>
  </g>
</svg>