<?xml version="1.0" encoding="UTF-8"?>
<svg id="Layer_1" data-name="Layer 1" xmlns="http://www.w3.org/2000/svg" version="1.1" viewBox="0 0 100 100">
  <defs>
    <style>
      .cls-1 {
        fill: #bf68a5;
      }

      .cls-1, .cls-2, .cls-3, .cls-4, .cls-5, .cls-6, .cls-7, .cls-8, .cls-9, .cls-10, .cls-11, .cls-12, .cls-13, .cls-14, .cls-15, .cls-16, .cls-17, .cls-18, .cls-19, .cls-20, .cls-21, .cls-22, .cls-23, .cls-24, .cls-25, .cls-26, .cls-27, .cls-28, .cls-29, .cls-30, .cls-31, .cls-32, .cls-33, .cls-34, .cls-35, .cls-36, .cls-37, .cls-38, .cls-39, .cls-40, .cls-41, .cls-42, .cls-43, .cls-44, .cls-45, .cls-46, .cls-47, .cls-48, .cls-49, .cls-50, .cls-51, .cls-52, .cls-53, .cls-54, .cls-55, .cls-56, .cls-57, .cls-58, .cls-59, .cls-60, .cls-61, .cls-62, .cls-63, .cls-64, .cls-65, .cls-66, .cls-67, .cls-68, .cls-69, .cls-70, .cls-71, .cls-72, .cls-73, .cls-74, .cls-75, .cls-76, .cls-77, .cls-78, .cls-79, .cls-80, .cls-81, .cls-82, .cls-83, .cls-84, .cls-85, .cls-86, .cls-87, .cls-88, .cls-89, .cls-90, .cls-91, .cls-92, .cls-93, .cls-94, .cls-95, .cls-96, .cls-97, .cls-98, .cls-99, .cls-100, .cls-101, .cls-102, .cls-103, .cls-104, .cls-105, .cls-106, .cls-107, .cls-108, .cls-109, .cls-110, .cls-111, .cls-112, .cls-113, .cls-114, .cls-115, .cls-116, .cls-117, .cls-118, .cls-119, .cls-120, .cls-121, .cls-122, .cls-123, .cls-124, .cls-125, .cls-126, .cls-127, .cls-128, .cls-129, .cls-130, .cls-131, .cls-132, .cls-133, .cls-134 {
        stroke-width: 0px;
      }

      .cls-2 {
        fill: #470437;
      }

      .cls-3 {
        fill: #4a0636;
      }

      .cls-4 {
        fill: #ab5489;
      }

      .cls-5 {
        fill: #b56095;
      }

      .cls-6 {
        fill: #994475;
      }

      .cls-7 {
        fill: #983f75;
      }

      .cls-8 {
        fill: #953b6f;
      }

      .cls-9 {
        fill: #b86199;
      }

      .cls-10 {
        fill: #ae5a90;
      }

      .cls-11 {
        fill: #b96095;
      }

      .cls-12 {
        fill: #601246;
      }

      .cls-13 {
        fill: #944479;
      }

      .cls-14 {
        fill: #bb659b;
      }

      .cls-15 {
        fill: #943d70;
      }

      .cls-16 {
        fill: #b7639a;
      }

      .cls-17 {
        fill: #b1588e;
      }

      .cls-18 {
        fill: #b3588e;
      }

      .cls-19 {
        fill: #aa5088;
      }

      .cls-20 {
        fill: #a24b7e;
      }

      .cls-21 {
        fill: #994277;
      }

      .cls-22 {
        fill: #873269;
      }

      .cls-23 {
        fill: #a95387;
      }

      .cls-24 {
        fill: #9d457c;
      }

      .cls-25 {
        fill: #b1578d;
      }

      .cls-26 {
        fill: #a75388;
      }

      .cls-27 {
        fill: #91376f;
      }

      .cls-28 {
        fill: #5a0d40;
      }

      .cls-29 {
        fill: #b0598d;
      }

      .cls-30 {
        fill: #b8659c;
      }

      .cls-31 {
        fill: #691b4d;
      }

      .cls-32 {
        fill: #913d71;
      }

      .cls-33 {
        fill: #b96096;
      }

      .cls-34 {
        fill: #af598d;
      }

      .cls-35 {
        fill: #4c0738;
      }

      .cls-36 {
        fill: #993f74;
      }

      .cls-37 {
        fill: #bb639a;
      }

      .cls-38 {
        fill: #b06694;
      }

      .cls-39 {
        fill: #c176a8;
      }

      .cls-40 {
        fill: #b0588b;
      }

      .cls-41 {
        fill: #b05b92;
      }

      .cls-42 {
        fill: #994177;
      }

      .cls-43 {
        fill: #8e366c;
      }

      .cls-44 {
        fill: #ad5389;
      }

      .cls-45 {
        fill: #460535;
      }

      .cls-46 {
        fill: #440533;
      }

      .cls-47 {
        fill: #9b4379;
      }

      .cls-48 {
        fill: #b46197;
      }

      .cls-49 {
        fill: #aa4f83;
      }

      .cls-50 {
        fill: #b76094;
      }

      .cls-51 {
        fill: #842d62;
      }

      .cls-52 {
        fill: #aa5489;
      }

      .cls-53 {
        fill: #a54e86;
      }

      .cls-54 {
        fill: #b85f95;
      }

      .cls-55 {
        fill: #a65086;
      }

      .cls-56 {
        fill: #50083a;
      }

      .cls-57 {
        fill: #9b4276;
      }

      .cls-58 {
        fill: #540a3d;
      }

      .cls-59 {
        fill: #9f4479;
      }

      .cls-60 {
        fill: #923b6f;
      }

      .cls-61 {
        fill: #b16b98;
      }

      .cls-62 {
        fill: #8c336b;
      }

      .cls-63 {
        fill: #51093b;
      }

      .cls-64 {
        fill: #953f74;
      }

      .cls-65 {
        fill: #ae598d;
      }

      .cls-66 {
        fill: #b25e93;
      }

      .cls-67 {
        fill: #973d72;
      }

      .cls-68 {
        fill: #ba6496;
      }

      .cls-69 {
        fill: #9b477d;
      }

      .cls-70 {
        fill: #ad5b8c;
      }

      .cls-71 {
        fill: #ac5189;
      }

      .cls-72 {
        fill: #b45c92;
      }

      .cls-73 {
        fill: #8b3a6d;
      }

      .cls-74 {
        fill: #933f71;
      }

      .cls-75 {
        fill: #aa5486;
      }

      .cls-76 {
        fill: #b85d93;
      }

      .cls-77 {
        fill: #9a3f75;
      }

      .cls-78 {
        fill: #ac568d;
      }

      .cls-79 {
        fill: #a44e83;
      }

      .cls-80 {
        fill: #ba5d96;
      }

      .cls-81 {
        fill: #933a6f;
      }

      .cls-82 {
        fill: #b6749e;
      }

      .cls-83 {
        fill: #953a71;
      }

      .cls-84 {
        fill: #b55b91;
      }

      .cls-85 {
        fill: #ad5588;
      }

      .cls-86 {
        fill: #af5d8e;
      }

      .cls-87 {
        fill: #b45e95;
      }

      .cls-88 {
        fill: #a75b8b;
      }

      .cls-89 {
        fill: #9c487c;
      }

      .cls-90 {
        fill: #460635;
      }

      .cls-91 {
        fill: #4c073c;
      }

      .cls-92 {
        fill: #ae6597;
      }

      .cls-93 {
        fill: #b15b92;
      }

      .cls-94 {
        fill: #9c447a;
      }

      .cls-95 {
        fill: #a55487;
      }

      .cls-96 {
        fill: #b5588d;
      }

      .cls-97 {
        fill: #984377;
      }

      .cls-98 {
        fill: #ae568b;
      }

      .cls-99 {
        fill: #9e477e;
      }

      .cls-100 {
        fill: #a85589;
      }

      .cls-101 {
        fill: #933e71;
      }

      .cls-102 {
        fill: #af588d;
      }

      .cls-103 {
        fill: #bb679e;
      }

      .cls-104 {
        fill: #480636;
      }

      .cls-105 {
        fill: #480435;
      }

      .cls-106 {
        fill: #913f72;
      }

      .cls-107 {
        fill: #b85e92;
      }

      .cls-108 {
        fill: #b05b8f;
      }

      .cls-109 {
        fill: #af558c;
      }

      .cls-110 {
        fill: #4f0839;
      }

      .cls-111 {
        fill: #be669b;
      }

      .cls-112 {
        fill: #b1588d;
      }

      .cls-113 {
        fill: #ac5089;
      }

      .cls-114 {
        fill: #ad5189;
      }

      .cls-115 {
        fill: #9a3e75;
      }

      .cls-116 {
        fill: #b45b91;
      }

      .cls-117 {
        fill: #490735;
      }

      .cls-118 {
        fill: #913e72;
      }

      .cls-119 {
        fill: #9a4578;
      }

      .cls-120 {
        fill: #9e467d;
      }

      .cls-121 {
        fill: #b1598e;
      }

      .cls-122 {
        fill: #b75c92;
      }

      .cls-123 {
        fill: #9d467d;
      }

      .cls-124 {
        fill: #a85387;
      }

      .cls-125 {
        fill: #8b3769;
      }

      .cls-126 {
        fill: #b65b91;
      }

      .cls-127 {
        fill: #af5a8e;
      }

      .cls-128 {
        fill: #560c3f;
      }

      .cls-129 {
        fill: #a04a80;
      }

      .cls-130 {
        fill: #9b427a;
      }

      .cls-131 {
        fill: #570b3f;
      }

      .cls-132 {
        fill: #a75187;
      }

      .cls-133 {
        fill: #4a0638;
      }

      .cls-134 {
        fill: #af5c93;
      }
    </style>
  </defs>
  <path class="cls-30" d="M3.8,95.7c-2.8-2.2-3.6-5.2-3.6-8.5,0-24.9,0-49.7,0-74.6,0-2.1.2-4.1,1.7-5.7,2.2,0,3,1.5,3.5,3.3-2.2,20-.7,40-1.2,60-.2,7.3.4,14.6,1.9,21.8.2,1.8-.4,3.1-2.3,3.7Z"/>
  <path class="cls-39" d="M91.5,95.5c1,.4,2,.8,3,1.1-1.8,3.3-5.2,3.1-8,3.1-23.8.1-47.7,0-71.5,0-2.6,0-5.2,0-7.6-1.3-.2-2.4,1.4-2.6,3.1-2.5,24.9.7,49.9-.4,74.8.6,1.6,0,3.2-.3,4.7-.9.5-.3,1-.3,1.6-.1Z"/>
  <g>
    <path class="cls-9" d="M99.6,15.8c0,1.8,0,3.5,0,5.3-.8,1.5-.4,3.2-.4,4.7,0,19.4-.2,38.9,0,58.3,0,5.1-1.3,9.1-4.9,12.5h0c-1.5.3-2.8,0-3-1.8,3.4-4.5,3.5-9.6,3.4-14.9-.1-20.7,0-41.4,0-62.1,0-3.2-.8-6.3-.2-9.5.7-1.1,1.7-1.2,2.8-.9,2.4,2.4.9,5.7,2.1,8.4Z"/>
    <path class="cls-92" d="M90.8,95.7c-.9,3-3.8,2.2-5.5,2.2-22.8-1.1-45.6,0-68.4-.4-2.3,0-4.7.4-7-.4-1.5-.5-2.2.4-2.7,1.5-1.7-.2-2.7-1.4-3.5-2.7.6-.9,1.2-1.8,1.8-2.7,4.5,1.7,9.2,1.5,13.9,1.3,11.8.7,23.6-.5,35.5,0,5.3.2,10.5,0,15.8.2.5,0,1,0,1.6.2,3.5,1.4,6.8,0,10.3-.2,1.6-.1,3.2,0,4.8,0,1.3,0,2.6,0,3.6,1.2Z"/>
    <path class="cls-103" d="M4.7,8.8c-2.2,1.3-1.5-1.8-2.9-1.9C3.9,2.4,7.5.2,12.2.2c25.4,0,50.8,0,76.2,0,.8,0,1.7.4,2.5.6-.1.2-.2.3-.3.5-1.4,1.5-2.9,2.3-4.9,1.2-.4-.2-.9-.3-1.4-.3-15.7-.2-31.5,0-47.2,0-1.3,0-2.6,0-3.9.5-4,.7-8,.2-12,.4-1.7,0-3.5-.2-5,.8-.8.5-1.6.8-2.5,1.1-3.4.5-6.4,1.8-9.1,3.8Z"/>
    <path class="cls-61" d="M94.4,96.6c0-.4,0-1,.2-1.3,4.9-4.5,4.2-10.5,4.2-16.3,0-17.8,0-35.7,0-53.5,0-1.5-.6-3.2.8-4.6,0,22.5,0,44.9,0,67.4,0,3.6-1.2,6.9-5.2,8.2Z"/>
    <path class="cls-82" d="M99.6,15.8c-1-2.5-1.8-5.1-1.7-7.9-3.1-1.6-6-3.4-7.1-7,0,0,.2-.2.2-.2,5.6,1.1,10.1,7,8.7,15Z"/>
    <path class="cls-2" d="M4.7,8.8c1.8-3.6,4.9-4.7,8.7-4.5.2.1.4.2.6.3,1.1,4.4.6,8.6-1.2,12.7-.4.8-.7,1.9-1.5,2.1-4.3,1-3.1,4.4-3.6,7.3-2.6,16.4-1.3,32.9-1.7,49.3.4-2.9,1.2-5.9,1.1-8.9,0-3.1,0-6.1-.1-9.2,0-1.3-.8-3.4,1.3-3.6,1.9-.2,1.7,1.9,2.1,3.3,1.3,4.5,0,9,.6,13.5.6,5.5,3.6,7.4,9.5,6.5-2.6-.7-5.6-.7-6.6-3.6-1.1-3.3-.9-6.9.3-9.9,1-2.5,2.4-.9,3,.9.2,1.3,0,2.6,0,3.8-.3,2.4.6,3.9,3.3,3.8,1.1,0,2.3,0,3.3-.5,1-.5,1.9-1,2-2.2,0-.7.1-1.5.2-2.2,0-.4.2-.8.3-1.1.5-1.1,1.8-1.5,2.5-2.4,1.2-2.2,1.2-5,3.5-6.7,1.1-1,2.2-2.1,3.5-.3.8.9,2,1.5,2.4,2.7.2.6.3,1.2.4,1.8.4,3.1,3.3,5.4,2.8,8.7,1.7,2.9,4.5,1.7,6.9,1.9,1.5,0,3.1-.6,4.5.5,1,1.2,1.6,2.6.9,4.2-.4.5-.9.5-1.5.4q-5.8-.8-6.4,5.1c-.3,2.8-2.2,3.6-5,1.8-2.1-1.4-2.9-1.8-3.8,1.2-.7,2.6-3.4,2.7-5.7.8-4.6-3.7-10.2-3.7-14.7.1-2.4,2.1-4.7,1.5-7-.5.4,5.4,1,6.1,5.6,7,1.7.4,3.9.3,4.1,2.9-4.6,0-9.4,1-13.2-2.7-2.4-3.9-2.3-8.4-2.4-12.7-.1-20.7,0-41.4,0-62.2,0-3.3.6-6.4,1.5-9.4Z"/>
    <path class="cls-91" d="M90.8,95.7c-1.2,0-2.3,0-3.5,0-.9-.9-2.3-2.6-.3-2.6,2.8,0,3.1-2.1,4.5-3.3,2.1-3.5,2.2-7.6,2.2-11.4.3-20.5.3-41,.2-61.5,0-.9-.1-1.7-.5-2.5-1.1-2.2.4-5.9-3.6-6.5-1.2-.9-4.2.4-3.6-2.8.6-.7,1.3-1.1,2.2-1.4,3.5-.5,5.6.9,6.5,4.3,1,2.6,1.3,5.3,1.3,8.1,0,22.6-.1,45.2,0,67.8,0,4.7-1.1,8.6-4.8,11.6-.2,0-.5,0-.7.2Z"/>
    <path class="cls-16" d="M94.9,8c-1.9-1.8-3.5-4.2-6.7-3.7-.8,0-1.6-.1-2.1-.9-.2-.6-.2-1.2.3-1.7,1.8,1.9,2.6-1.9,4.3-.8,2.4,2.3,4.7,4.6,7.1,7-1,0-2,0-2.9,0Z"/>
    <path class="cls-2" d="M90.8,91.3c0,2.1-.7,3.1-3,2.7-1-.2-1-.1-.5,1.7-5-.2-10,1.3-15,0-.2-.3-.2-.6,0-.8.9-2,3.6,0,4.4-1.8,1.2-2.6,3.5-2.7,5.8-3.1.8-.1,2-.2,2-1.3,0-1-1-1.4-1.9-1.5-2.3-.3-4.6-.3-6.9,0-2.1.2-2.6,1.6-2.2,3.5.4,1.9-.2,3.1-2.2,3.5-.6.1-1.1,0-1.7.2.6-.1,1.2-.1,1.7.2.4.3.5.7.3,1.1-17.6,0-35.2,0-52.7,0-1.6-.9-2.8-2.2-5.3-1.8-2.8.5-6.7-5.4-6.1-8.3.2-1,.9-1.5,1.7-1.8,1.1-.5,1.4.2,1.8,1.2,1.2,3.2,3.9,1.9,4.5.4,1.5-3.5,4.2-3.1,6.9-3,3.5.2,7.7-1.6,9.7,3.3.3.8,1.6,1.1,2.8.5,1.1-.6,1.6-1.2,1-2.4-.6-1.4.2-2.1,1.4-2.7,1.4-.7,2.3.3,2.9,1.2.9,1.3,2,2.3,3.6,1.7,1.9-.7.2-2.3.5-3.4.4-1.6-.7-4.2,1.3-4.7,2.4-.6,5.4-1.1,7.6,1.2,2.4-1.3,5.2,1.9,7.5-.8.5-.6,1.4-.9,1.4-1.9,0-.6.2-1.2.5-1.7.3-.3.7-.4,1.1-.4.8.2,1.4.8,2.1,1.3.3.3.6.6.9.9,1.6,2.4,5.1.5,6.5,3,.6,2.9,1.2,5.9,5.3,5.3,6.8-1.1,11.1,1.4,12.5,8.3Z"/>
    <path class="cls-90" d="M71.5,95.8c-.8-1.5-2.4-.6-3.8-1.5,2.5-.7,6.6,0,4-4.6-.4-.7.3-3.1,1.6-3.3,3.9-.6,7.8-.9,11.6.3,1.3.4,1.5,1.6,1.4,2.8-.1,1.6-1.3,1.7-2.5,1.8-1.7,0-4.7-.4-4.9.8-.7,4.5-5.2,1.4-6.7,3.7,0,0-.4,0-.4,0h-.4Z"/>
    <path class="cls-2" d="M86.4,5.3c.3,2.4,2.7.4,3.5,1.8,2.6,2.8-1.9,5.5,0,8.6.9,1.4.8,3.9.4,5.9-1.9,1.4-3.9.9-6,.7,1,1.1,3.1,1.9,2.6,4.1-.2,1-.9,1.4-1.9,1.3-1.8.3-3.1.6-4.6-1.6-2.1-3-5.3-2.6-8.5.1-2.8,2.7-5.3,5.6-10,5-2.7-.4-2.5,2.2-2.2,4.1-1.2,4-3.5,1-5.2.6-1.3-.3-3.5-.9-1.8-3.3,1.2-1.7.2-2.7-1.4-3.3-1.2-.3-2.5-.3-3.1-1.7-1.1-.5,1.9-1.2,0-1.7-.3,0-.6,0-.9,0-1.3,0-3.5.7-3.3-1.5.2-2.1,2.3-.7,4.1-1.7-5.7,1.4-9.5,6.8-15.3,4.6-2.2,0-3.7-1.5-5.4-2.6-2-1.3-2.4-2.8-.6-4.6,2.1-2.2,2.1-4.3-.6-6.1-2.5-1.6-2.5-4-2-6.5-4,.4-7.4-.9-10.6-3.1,0,0-.2-.2-.2-.2.6-.2,1.3-.5,1.9-.7.7-.5,1.5-.9,2.4-.9,7.6,0,15.1-.2,22.7-.4.9,0,1.7.2,2.5.6,1.3,1.7,0,1.8-1.2,1.9-3.1,0-6.1,0-9.2,0,10.4-.3,20.7.6,31.1-.7,3.3-.4,6.7-.2,9.9,1.1,4.3,1.6,8.7.2,13,0Z"/>
    <path class="cls-1" d="M43.1,4c-9.3-.2-18.6-.3-27.9-.5.8-1.8,2.4-1.8,4.1-1.8,4.5,0,9,0,13.5,0,1.4-.8,2.9-.4,4.3-.4,15,0,30,0,45,0,1.4,0,2.9-.4,4.3.4,0,0,0,0,0,0,0,.6,0,1.2,0,1.8-4.8,2.4-9.9,1.1-14.8,1-3.9-.3-7.8-.3-11.7,0-5.6.2-11.3,1-16.8-.5Z"/>
    <path class="cls-16" d="M86.4,1.8c-17.9,0-35.7,0-53.6,0,1-1.2,2.4-.9,3.7-.9,15.4,0,30.9,0,46.3,0,1.3,0,2.7-.4,3.7.9Z"/>
    <path class="cls-2" d="M13.6,4.5c4.1,0,7.9,4,13.1.3-2.1,4.2-2.8,7.1,1.5,9.3,3.2,1.7,1.9,4.8-.2,6.5-2.3,1.8-1.9,2.5.3,3.4,1.6.6,2.4,2.7,4.5,2.3.7,3.5-2.5,3.5-4.2,4.1-2.5.8-2.1-2.1-3-3.4-2.4-5-2.4-5-7-2.7-1.5.7-2.5.6-3.3-.7-.8-1.3-1.9-1.8-3.4-1.3-1.5.5-1.6,1.9-1.7,3.2-.1,1.4-.3,2.9,0,4.3.2,1.5-.2,3.5,2.1,3.7,2.1.1,2.6-1.4,2.8-3.2,0-.9.1-1.8.6-2.5.8-1.3,1.7-1.6,2.6-.1.2,1.8-.4,3.6.3,5.4,2.5,1.7,4.1,4,4.9,7,.7,2.5.7,5.1,2.9,7.3,2.1,2.1.8,5.1-.4,7.7-.2.3-.5.6-.8.9-1.1.9-1.7,2.8-3.7,1.5-.2.4.4.7.2,1.1-1.6,2.2-1.2,5.1-2.5,7.4-.6.3-1.1.4-1.8.3-.4-.1-.8-.4-1.1-.6-.1-.8.3-2-.9-2.1-1.1,0-.9,1-.6,1.6.4,1,.1,1.9,0,3-1,6.6,1.3,8.8,7.9,7.8-2.9,3.8-4.5,3.6-8.6,1.8-5.8-2.5-4.7-6.8-4.1-11.1.6-4.1-1.1-7.9-1.3-11.9-1,7.8,1.4,16-3.8,24.4,0-15.2-.7-29.2.4-43,.4-4.7,1.1-9.6,1.4-14.5,0-1.2-.1-2.7,1.3-2.8,1.4-.2,3.3.6,3.6-1.3.5-2.7,2.9-5.1,1.9-7.9-.7-2-.2-3.6.2-5.4Z"/>
    <path class="cls-2" d="M26.5,75.8c.7-1.2,1.9-1.6,1.5-3.2-.6-2.6,1-4.7,3.5-4.6,2.8.2,3.1-1.3,3.6-3.5,1.9,4.5,1.2,10.6,8.3,11.3-6.2,5.1-7.4,5.4-12.4,1.4-1.5-1.2-2.3-2.5-4.5-1.3Z"/>
    <path class="cls-128" d="M52.2,72.9c-2.9.2-5.8,1-8.7.3-1.3-.3-3.5.4-3.5-2.2.4-.2.8-.3,1.2-.4,2.1.2,4.1.2,6.2.2.9-.3,2.1.7,2.6-.8-1.3-2.5-3.8-4.2-4.6-7-.3-1.1-.4-2.1-.1-3.2.1-.4.3-.8.6-1.1,2.8-.2,1.9,3,3.7,4,.9-4.9-2.5-10.6,2.5-14.7,2.2,1.4,1.7,3.6,1.6,5.6-.2,1.2-.3,2.4-.3,3.7,0,2.9-.3,5.9,1.9,8.3.4.8.4,1.7.1,2.5-1,1.4-1,3.2-2,4.6-.4.3-.8.3-1.1,0Z"/>
    <path class="cls-46" d="M52.2,72.9c.3,0,.6,0,.9,0,1.1-.4,1.3-1.8,2.5-2,1.5.3,3,.5,4.5.8,1.4.5,1.7,2.1,2.7,3,0,.7,1.5,1.3-.2,2.2-3.2,1.7-6.2,2.5-9.4.4-.3-1.5-.6-2.9-.9-4.4Z"/>
    <path class="cls-7" d="M32.9,58.1c-2.9,1.4-1.9,4.9-3.6,7-.3-.3-.6-.6-.7-1-.2-.8-.2-1.6,0-2.3.8-.9.8-1.6-.7-1.6-.3-.2-.6-.5-.7-.9-.1-.6,0-1.2.4-1.6.6-.4,1.3-.6,2-.2-.7-.5-1.8-.5-2.2-1.4-.2-.5-.2-1.1,0-1.7.7-.9,1.8-1.2,2.5-2.1.4-.4.7-.8,1.1-1.1.9-.7,1.2-1.8,2.1-2.5.6-.2,1.1-.2,1.6,0,.9.7,1.4,1.8,2.1,2.8.3.6.3,1.1.1,1.7-.2.4-.5.6-.8.8-2,.5-3.4,1.6-3,3.9Z"/>
    <path class="cls-64" d="M32.9,58.1c-2.2-4,.2-4.6,3.5-4.5.4.2.8.3,1.2.3-.4,0-.8-.1-1.2-.3v-1.8c-.3-.7.1-1,.7-1.1,1.1,0,2.2-.3,3.3.2,1.8,1.2,2.4,3,2.7,5,0,.4,0,.8-.2,1.1-.8,1-1.3,2.3-2.6,3-.4,0-.8,0-1.1-.3-1.1-1.9-2.9-1.7-4.6-1.7-.8-3-1.1.6-1.7.2Z"/>
    <path class="cls-125" d="M29.3,64.1c0,.3,0,.6,0,1-.9.6-1.8,1.1-2.7,1.7-.4.3-.6.6,0,.9,0,.9,0,1.8,0,2.7-.7.7-1.8,1-2.3,1.9-1.2.8-2.3,2-3.8.7,0-.1-.2-.3-.3-.4,0-.3.2-.6.4-.9.5-.4,1.1-.7,1.3-1.4,0-.5,0-1.1,0-1.6.1-.7.3-1.4.3-2.1,0-.5,0-1,.2-1.6.1-.3.3-.7.5-.9.3-.2.7-.3,1-.3,1.1,0,2.2-.3,3.3-.4.8,0,1.5.2,2.1.8Z"/>
    <path class="cls-60" d="M40.7,71.2c-.3,0-.5-.1-.8-.2-.1-2.2.6-4.5-2-6-1.2-.7-.7-2.3-.7-3.6.8-.7,1.7-.9,2.8-.6,1.3.6,1.6,1.7,1.8,3,0,2.5,1.1,5.2-1.1,7.4Z"/>
    <path class="cls-56" d="M20.5,72.1c0,.3,0,.5,0,.8-2.7,1-5-.5-4.9-3.2,0-1.3.4-2.6.5-3.8.3,0,.7,0,1,0,.7.8.8,1.7.9,2.7,0,.3,0,.7.1,1.1,0,1,.9,1.3,1.6,1.7.3.2.5.4.7.7Z"/>
    <path class="cls-2" d="M27.3,77.1c-.1,1.2-.9,1.8-2,1.8-.9,0-1.8-.4-1.6-1.6.2-1.1.9-1.7,2.1-1.8,1.4-.2,1.1,1,1.5,1.6Z"/>
    <path class="cls-94" d="M34.6,57.9c2.5-1.7,4.5-2,5.2,1.8-.9.8-1.8.7-2.6,0-.9-.6-1.7-1.2-2.6-1.8Z"/>
    <path class="cls-38" d="M24.3,72.2c-.4-2,.9-2,2.3-1.9.2,1.8-.9,2-2.3,1.9Z"/>
    <path class="cls-50" d="M37.2,59.7c.9,0,1.8,0,2.6,0,0,0,0,0,0,0,.5.6.5,1.1,0,1.7-.9,0-1.7,0-2.6,0,0-.6,0-1.2,0-1.7Z"/>
    <path class="cls-75" d="M26.7,67.6c-.6.2-1.3.4-1.9.5,0,0-.3-.5-.2-.7.5-1,1.4-.6,2.2-.7,0,.3,0,.6,0,.9Z"/>
    <path class="cls-90" d="M84.7,27.2q1.9-1.8-1.6-5.2c2.4-.5,4.6-1.7,6.9,0,1.6,1.7,1.3,3.8,1.3,5.8,0,10.2,0,20.5,0,30.7.1-9.4-.3-18.9.8-28.3.4-3.3,0-6.7-.4-10.1-.3-2.5-.1-5,1.8-6.9,2.1.9,1.8,2.8,1.8,4.5,0,20.4,0,40.8,0,61.2,0,3.4-1.5,6.7-.9,10.2.5,2.7-2.6.8-3.4,2.1-2.2.2-2.6-1-2.7-2.9-.2-3-1.7-4.7-5.1-4.2-1.1.2-2.3,0-3.5,0q-7.1,0-7.2-7c1.2-1.6,3.2.1,4.1-.8-3.4-1.1-7.5.8-11.1-1.8h0c-.4-1.4.8-1.7,1.7-2.3,1.5-.7,3.4-.2,4.7-1.7,1.5-1.7,2.8-.4,4,.6,2.7.9,4.3,1.2,5.6-2.7,1.7-5.2-1.1-10,.1-14.9.3-1.4-.6-3.1.6-4.5.9-1.1-1-1-.7-1.7-.2-.6-.2-1.3-.2-1.9.4-3.3-1-6.6.3-9.9,2.6-2.1,2.2-5.5,3.3-8.2Z"/>
    <path class="cls-105" d="M93.5,13.2c-.3,15.1-.6,30.2-.9,45.2,0,1.3,0,2.6-.2,3.9,0,.4-.7.8-1.1,1.1-.4-.4-1-.8-1.1-1.2-.2-1.1-.2-2.3-.2-3.5,0-12.3,0-24.6,0-36.8-1.6-5-1.3-9.9,0-14.9,4,.4,5,2.6,3.5,6.1Z"/>
    <path class="cls-105" d="M43.1,4c5.7-.5,11.5-.5,17.2,0,3.7,0,7.3,0,11,0,5.1-.2,10.1-.3,15.2-.5.6.3,1.2.5,1.8.8-.4.7-1,.9-1.8.9-4.2,3.4-9.3,2.5-13.6,1.1-3.8-1.3-7.6-1.6-11.1-.9-10.3,2-20.5-.7-30.7-.8,4-.2,8-.4,12-.6Z"/>
    <path class="cls-83" d="M63.6,72.9c-.3,0-.6,0-.9,0-.2-.3-.3-.6-.3-.9,0-.7-.5-1.2-.9-1.7-.1-.4-.2-.7-.1-1.1.5-1.4,1.1-2.8,1.6-4.3.3-.7.8-1.4,1.4-1.9,1.5-.4,3.1-.4,4.5-1.3.8-.3,1.6-.4,2.4-.3.4,0,.8.1,1.2.2.4.2.7.4,1,.7.9,1.3.4,3,1.4,4.2.9.9,1.9.7,3,.6,1,0,1.9.4,2.6,1.2.3.6.3,1.1.1,1.7-.5.9-1.2,1.5-2,2.1-.4.1-.7.2-1.1,0-.9-.6-2-1.1-2.9-1.8-1.3-1.2-2.4-.6-3.3.5-1,1.3-2.3,1.6-3.8,1.5q-.6-1-2.2.8c-.6.2-1.2,0-1.6-.3Z"/>
    <path class="cls-46" d="M65.3,74.6c3.8.4,7.6,1.2,11.3,0,1.1-.3,1.2.3,1.6.7,1,1.2-.4.9-.8,1.1-1.6.9-3.3.7-5.1.7-2.6-.3-5.8,1.2-7-2.6Z"/>
    <path class="cls-63" d="M62.6,72c0,.3,0,.5.1.8,0,.6,0,1.2,0,1.8-1.7,0-2-1.5-2.6-2.6.1-.1.3-.3.4-.4.4-.2.8-.2,1.2-.2.4.1.7.3.9.7Z"/>
    <path class="cls-63" d="M63.6,72.9c.7-.2,1.3-.4,2-.6.5-.2.9,0,1.3.2,0,.1.2.3.3.4-.6.6-1.2,1.1-1.8,1.7-.6-.6-1.2-1.1-1.8-1.7Z"/>
    <path class="cls-104" d="M26.7,27.2c.5,1,1,1.9,1.5,2.9,1-1.9,4.2-1.2,4.7-3.8,4.2.3,8.1.3,11.2-3.5.7-.8,3.5,0,5.7.2-1.6,1.5-3.6,0-5.2,1.6,1.3,1.2,3.1-.6,4.2.6.4.5,1.7-.1,1.5.9,0,.5-1.1.8-1.7,1.2-.3.3-.7.8-1.1.7-6-.9-7.5,3.4-9,7.7-.3,1-.4,2-.9,2.8-.3.5-.8.9-1.3,1.2-1.1.7-1.6,2.4-3.3,1.9-.5-.3-.9-.7-1.2-1.2-.4-.7-1-1.2-1.5-1.7-.4-2.6-3.5-2.3-4.4-4.3-.2-.6-.3-1.2-.4-1.8.8-2.4-3.4-2.3-2.5-4.8,1.1-.8,2.2-1.3,3.5-.6Z"/>
    <path class="cls-104" d="M59.2,35.1c-1.4-2.2-1.5-5.2,1.2-4.9,5,.6,7.9-1.9,11.1-4.7.2.2.3.3.5.5,1.1,2.7.8,5.5.3,8.3-2.5,3.3-6.1,2.2-9.4,2.3-1.1,0-3.4,1.3-3.7-1.4Z"/>
    <path class="cls-133" d="M59.2,35.1c3.4,1.9,6.8,0,10.2.2.7,0,1.4-.1,2.1-.2,1.4,2.6-.3,3.3-2.3,3.7-1.9.4-4-.3-5.9.8-1.2,1.3-2.4,2.8-4.5,2.2-3.1-2.7-6.2-5.6-10.9-3.8-.7-1-.2-2,0-2.9.5-1.3.7-2.7,1.6-3.9.8-1.1,1.6-2.2,2.6-3.1,3.1,2.7,3.2,3.6.7,5.8q4.5,2.3,6.3,1.2Z"/>
    <path class="cls-35" d="M84.7,27.2c-.2,2.9,1.9,6.5-2.6,7.9-.7-.4-1.1-1-1.5-1.7-.1-.4-.2-.7-.3-1.1,0-.6-.1-1.1-.2-1.7,0-.6,0-1.1-.1-1.7-1.3-3.6-4.8-1.3-7-2.5-.6-.1-1.1-.5-1.6-.9,0,0,0,0,0,0,1.8-.5,1.8-4,5.4-2.5,2.3,1,4.3,1.6,5.6,3.7.2.4,0,1.4.8,1,.4-.2.6-1,.8-1.5.1,0,.3.1.4.2,0,.3.1.6.2.9Z"/>
    <path class="cls-58" d="M52.2,28.1c-.2,1.4-.5,2.7-1.9,3.4-1.2-1.2-2.7-1.5-4.4-1-4.2-.9-3.6,3.4-5.5,5.1-1.1.5-2.2.4-3.1-.4.4-.4,1.1-.8,1.1-1.2.7-6.5,4.9-7.5,10.3-6.7.9,1.3,2.3.8,3.5.9Z"/>
    <path class="cls-104" d="M58.6,27.2c2.2-2.2,4.3-2.3,6.5-1,.4.3.7,1.3.2,1.4-2.1.6-4.2.7-6.6-.5Z"/>
    <path class="cls-104" d="M68.2,21.7c1,.7,1.8,1.4,1.8,2.6,0,.2-.8.6-1,.5-1.2-.7-1.2-1.8-.8-3.1Z"/>
    <path class="cls-2" d="M71.3,4c-3.7.6-7.3.6-11,0,3.7-.5,7.3-.5,11,0Z"/>
    <path class="cls-45" d="M26.7,27.2c-1.1.6-2.3,1-3.6.9-.6.7-1.5,1-2.4,1.2-.4,0-.7,0-1.1,0-.7-.2-1.3-.6-1.7-1.3-2.9-.5-1.7,1.8-1.7,2.8.1,3.5-1.8,4.2-4.7,4.2-.3,0-.6,0-.9,0-1.6-.5-2.6-8.5-1.5-12.2.9-3.1,3.7-1.6,5.6-1.9,1.7-.3.9,2.4,2.1,3.3,7.3-5.8,7.6-3.1,9.9,3.1Z"/>
    <path class="cls-101" d="M19.6,29c.3,0,.6-.1.9-.2.5.3.9.8,1,1.3.6,2.8.6,2.8,3.1,2.9.8.2,1.5.5,2.1,1.1,1.6,1.3,4.1,1.7,4.5,4.3-.3.5-.8.8-1.4,1-.7.2-1.5.3-2.2.5-1.3,0-2.5.5-3.7.9-.6,0-1.1,0-1.5-.6-.9-2.7-2.1-5.1-5.2-6,1.9-1.2,0-4.2,2.4-5.2Z"/>
    <path class="cls-131" d="M22.3,40.2c.5,0,1.1.2,1.6.2,1.2,1.3,1.6,3.3,3.6,3.9.3.3.5.6.7,1,.3.8.3,1.6.3,2.4,0,.4,0,.8,0,1.2,0,.9.1,1.9.3,2.8,0,.4,0,.8-.2,1.1-.2.3-.5.6-.8.8-1,.6-.8,3-2.9,1.7,1.1-3.3,2.5-6.5-1.1-9.5-1.2-1-1-3.6-1.5-5.5Z"/>
    <path class="cls-2" d="M20.7,12.2c-.9-.3-2.3-.5-2.3-1.5,0-1.4,1.5-1.6,2.6-1.8,1.1-.2,2.2.1,1.9,1.6-.2,1.2-1,1.7-2.2,1.7Z"/>
    <path class="cls-6" d="M19.6,29c-1.7,1.3,1.5,4.9-2.4,5.2,0-2.1-1.1-4.3.7-6.1.7.1,1.4.2,1.7,1Z"/>
    <path class="cls-125" d="M17.1,69.3c0-1.1,0-2.3.1-3.4.5,0,1.1-.1,1.6-.2.6-.4,1.2-.5,1.8-.2.5.5.7,1.1.7,1.7,0,.4,0,.8-.2,1.2-1,2.2-2.8.3-4.1.8Z"/>
    <path class="cls-56" d="M20.5,65.8c-.6,0-1.2,0-1.7,0,.4-2.5-.6-5.5,2.5-7,.1.2.2.3.3.5.1,1.6-.1,3.3-.2,4.9-.1.6-.4,1.2-.9,1.6Z"/>
    <path class="cls-51" d="M24.9,55.3c2,.3,1.5-2.1,2.7-2.5.4.5.4,1,0,1.6,0,.6,0,1.3,0,1.9.5.6.5,1.1,0,1.7,0,.6,0,1.1,0,1.7-.3.3-.7.3-1.1,0-1.3-.8.2-3.7-2.5-3.4-.2-.4-.1-.7.2-1,.3,0,.5,0,.8,0Z"/>
    <path class="cls-56" d="M24.1,55.3c0,.3,0,.6,0,.9.6.9.6,1.8,0,2.8-.9.6-1.9.6-2.7-.2,0,0-.1,0-.1,0-.7-.5-1.3-.9-2.3-1.6,1.9-.6,4.4.7,5.2-1.8Z"/>
    <path class="cls-117" d="M47.8,37.7c6.6-1.9,7.1-1.7,10.6,3.6-.2.1-.3.2-.5.4-1,.4-2-.2-3,0-.5-.3-.1.1,0,.1,2.5-.1,1.9,1.5,1.5,2.9-.9,1.7-.3,5.2-4.1,3.7-1.2,3.3-3.9,6.4-1.2,10.2,1.1,1.5-1.8,3,0,4.6-.7.4-1.4.9-2.2,1.1-1.4.4-.6-.8-.8-1.3-.7-1.4-1.3-2.7-2-4.1-3.2,1.9-2.9-1-3.5-2.6-.9-1.8-1.8-3.5-2.7-5.3-.3-.3-.5-.6-.7-1-.2-.8-.3-1.6-.2-2.4,0-.4.1-.8.2-1.2.4-.9,1.1-1.5,1.9-2.1.3-.2.5-.5.8-.7.8-1.5,1.4-3,2.4-4.3.3-.5.7-.9,1.2-1.2.7-.4,1.5-.5,2.2-.4Z"/>
    <path class="cls-59" d="M40.7,71.2c.6-2.4,0-4.8,0-7.2.5-.5,1-1,1.7-1.2.7-.1,1.4,0,2.1.1.5,0,1,0,1.6,0,1.9,2.5,3.3,5.4,6,7.2-1.1,1.4-3.3.3-4.4,1.8-2.3-.3-4.9.8-7-.8Z"/>
    <path class="cls-15" d="M52.3,48.3c3.7.5,1.7-3.4,3.4-4.5.7-.5,1.5-.8,2.3-.8,2.3.6,3.6,3.2,6.3,3.1.3.3.5.6.6,1,0,1.6-1.7,2-2.3,3.2-.2.3-.5.5-.8.8-.3.1-.7.2-1,.2-2.1,1.6,0,2.4.6,3.4.4,1.3.5,2.5-.8,3.4-.7.1-1.3-.1-1.8-.5-.7-.4-1.4-.9-1.9-1.7-.6-1.3-.5-2.7-.6-4,0-.3-.2-.5-.5-.5-.8,1-1.1,2.8-3,2-.2-1.7-.3-3.4-.5-5.1Z"/>
    <path class="cls-97" d="M57.4,50.9c0,1.8,0,3.5,0,5.3.2.2.3.4.3.7,0,.3,0,.4-.2.4-.5.4-1,.7-1.6.8-1.5.4-2.8.2-3.9-1,.1-1.2-.5-2.6.7-3.6,2.6-.3,1.3-3.3,2.9-4.3.8.4-.1,2.4,1.7,1.7Z"/>
    <path class="cls-43" d="M52.1,57.1c1.2,0,2.4.8,3.6,0,1.2,1.3,0,3.1.7,4.5.2,1.5.3,2.9-1,4-.2,0-.4.1-.6.2-4.5-1.8-2-5.8-2.7-8.8Z"/>
    <path class="cls-8" d="M44.3,64.1c-.6-.3-1.2-.6-1.8-.9-2-2-.7-4.1,0-6.1,0-.3,0-.6,0-.9,1,1.2,1.2,3.2,3.5,2.6,0,.3,0,.6,0,.8-1.5,1.1-.4,3.3-1.8,4.4Z"/>
    <path class="cls-110" d="M55.7,71.1c-1.1.3,0,3.9-2.6,1.7.4-1.5-1.1-3.8,1.7-4.3.1.1.2.2.3.3,0,.3.1.6,0,.9,0,.5.7.6.7,1,0,.1-.1.3-.2.4Z"/>
    <path class="cls-88" d="M47.7,72c.5-2.8,2.8-1.5,4.4-1.8-.4,3.1-2.9,1.4-4.4,1.8Z"/>
    <path class="cls-95" d="M44.3,64.1c.4-1.5-1.1-3.9,1.8-4.4,0,1.1,0,2.3,0,3.4-.4.8-1.1,1-1.9,1Z"/>
    <path class="cls-100" d="M54.7,68.5c0-.9,0-1.8,0-2.7,0,0,0,0,0,0,1.8-.9,2.9,0,2.8,1.7-.1,1.8-1.5,1.7-2.7.8h-.2Z"/>
    <path class="cls-110" d="M60.1,72c-1.6.2-3.2.9-4.4-.9,0,0,0,0,0,0,.4-.8,1-1.4,1.9-1.6.7-.1,1.3,0,2,.2.8.6,1.2,1.3.5,2.2h0Z"/>
    <path class="cls-81" d="M39.9,47.4c0,.9,0,1.7,0,2.6-1,.6-2,0-3,0-.9,0-1.6-.3-2.2-.9-.6,0-1.2,0-1.9,0-.9.7-.8,1.9-1.7,2.6-.3.3-.6.6-.9.9-.7.5-1.3.5-1.9-.1,0-.2,0-.5,0-.7.2-1,.1-1.9-.7-2.6,0-.3,0-.7,0-1,1-.9.9-1.8-.1-2.6,0-.3-.1-.5-.1-.8.1-.3.3-.6.5-.8.7-.6.6-1.5.7-2.3,0-.6.2-1.1.6-1.5.4-.2.7-.3,1.1-.3.4,0,.7.2,1,.5,0,1.1.7,1.2,1.6.9,1.9.2,1.4-2,2.6-2.5.3.3.5.6.6.9.5,1.1-.5,2.4.5,3.5.3.1.6.3.9.5.4.3.8.7,1,1.2,0,.3.1.7.2,1.1,0,.9.7,1.1,1.3,1.5Z"/>
    <path class="cls-77" d="M21.4,58.8c.9,0,1.7,0,2.6,0,.3.1.5.3.7.5.3.3.6.6,1.1.5.3,0,.5-.1.8-.2.3,0,.5,0,.8,0,0,0,0,0,0,0,.6.6,1.2,1.1,1.7,1.7,0,.9,0,1.8,0,2.7-.9,0-1.8,0-2.7,0-.9-.5-1.7.2-2.6,0-.3,0-.6,0-.9,0-.6,0-1.1,0-1.6.3-.4.1-.7,0-.9-.3,0-1.8-.2-3.6.8-5.2Z"/>
    <path class="cls-112" d="M34.6,49.2c.9,0,1.7,0,2.6,0,.5.6.5,1.1,0,1.7-.3.3-.6.5-.9.8-1.9,0-1.7-1.3-1.7-2.5Z"/>
    <path class="cls-121" d="M31.1,51.8c0-1.2,0-2.5,1.7-2.6.1,1.3,0,2.5-1.7,2.6Z"/>
    <path class="cls-107" d="M28.3,52.5c.6,0,1.2,0,1.9.1,0,1.7-1.2,1.9-2.5,1.7,0-.5,0-1,0-1.6.2,0,.4-.1.7-.2Z"/>
    <path class="cls-126" d="M29.3,61.4c-1.1,0-1.7-.6-1.7-1.7,1.1,0,2.7-.4,1.7,1.7Z"/>
    <path class="cls-18" d="M27.6,57.9c0-.6,0-1.1,0-1.7.9,0,1.8,0,1.9,1.2,0,.1-1.2.3-1.9.4Z"/>
    <path class="cls-49" d="M42.4,57.1c.7,2,0,4.1,0,6.1-.4.7-1,.9-1.7.9,0-1,.1-2-.9-2.7,0-.6,0-1.1,0-1.7,1.2-.5.6-2.8,2.6-2.6Z"/>
    <path class="cls-102" d="M36.4,53.6c1.1-.5,2.3-1.5,3.5-.2.5.5.1,1-.4,1.3-1.5.9-2.4.3-3.1-1,0,0,0,0,0,0Z"/>
    <path class="cls-102" d="M37.2,50.9c0-.6,0-1.1,0-1.7.9.3,1.8.5,2.7.8,0,.3,0,.6,0,.9-.9.2-1.7,1.4-2.6,0Z"/>
    <path class="cls-74" d="M17.1,69.3c.7-2.3,2.7.8,3.5-.9.6-.5,1.2-.4,1.7.1.3.6.6,1.2.8,1.7-.7.7-1.8.9-2.5,1.5,0,0-.2.3-.2.3-.3,0-.5,0-.8-.1-.7-.9-2.2-.6-2.7-1.8,0-.3,0-.6.1-.8Z"/>
    <path class="cls-74" d="M20.6,64.1c.3,0,.5,0,.8,0,.7,0,1.2.3,1.7.7,0,.6,0,1.3,0,1.9-.8.6-1.5,1.3-2.6.9,0-.6,0-1.2,0-1.8,0-.6,0-1.1,0-1.7Z"/>
    <path class="cls-86" d="M20.7,71.8c0-1.8,1.3-1.5,2.5-1.5,0,1.8-1.2,1.7-2.5,1.5Z"/>
    <path class="cls-122" d="M24,64.1c.8-1.1,1.7-1.2,2.6,0-.9.4-1.7,1.4-2.6,0Z"/>
    <path class="cls-85" d="M20.5,67.6c.9-.3,1.7-.6,2.6-.9,0,.7-.2,1.4-.8,1.8-.6,0-1.2,0-1.7-.1,0-.3,0-.5,0-.8Z"/>
    <path class="cls-111" d="M23.1,64.8c-.7,0-1.3,0-1.7-.7.1-.5,0-1.3.7-1.1.4,0,.7.7,1,1.1,0,.2,0,.5,0,.7Z"/>
    <path class="cls-70" d="M16.9,70.2c.7.9,2.8-.3,2.7,1.8-1.5.2-2.8.3-2.7-1.8Z"/>
    <path class="cls-63" d="M80.4,70.1c0-.5,0-1.1,0-1.6-.8-1.2-.2-2.4-.3-3.7,0-.6,0-1.3,0-1.9,0-2.1,0-4.1-.5-6.1-.2-1.6.3-3.1,0-4.7,0-.9.3-1.8.5-2.8,0-.6.2-1.1.5-1.6.1-.2.2-.3.3-.5.3-.2.7-.2,1,0,0,3,.4,6,.2,9-.2,3,1.7,6.1,1.1,8.5-.6,2.5-.2,5.9-2.2,7.6-1.3,1.2-4.2,1.1-6.1-.4.2-.1.3-.3.5-.4.9-.4,1.7-.3,2.3.5.3,0,.5,0,.8,0,.5-.8,1.7-.9,2-2Z"/>
    <path class="cls-63" d="M81.5,33.3c.2.6.4,1.2.6,1.8-.6,3.6.9,7.1-.1,10.7-.8,0-1.2-.5-1.5-1.2-.5-1.5-.4-3.1-.4-4.7,0-.8,0-1.7,0-2.5,0-.8-.2-1.7-.1-2.5.2-.9.6-1.6,1.6-1.5Z"/>
    <path class="cls-24" d="M81.1,44.8c.3.3.5.7.8,1,0,.5,0,1,0,1.5-.3,0-.5.1-.8.2h-.2c0-.1.2,0,.2,0,0,.6,0,1.2,0,1.7-.8.7-1.7.9-2.8.7-.5-.2-.9-.5-1.2-.9-.7-1.5-.7-3,.4-4.4,1.3-.8,2.5-.7,3.6.2Z"/>
    <path class="cls-63" d="M67.2,72.1c1.5,0,2.8-.6,3.8-1.7,1.3-1.3,2.7-1.6,4.1,0,.4.6.4,1.1,0,1.6,0,0-.1.1-.1.1-.9-.3-1.8-2.7-2.5-1-1.3,2.9-3.5,1.5-5.3,2,0,0-.2-.2-.2-.2v-.4c-.1,0,.3-.2.3-.2Z"/>
    <path class="cls-3" d="M71.5,62.3c-.9,0-1.7,0-2.6,0-1.6.7-3.2.2-4.8.4-.5,0-.9-.2-1.3-.4-.8-.4-1.7-1.1-1.6-1.9.5-3.2-.7-6.5.6-9.6h0c2-2.8,6.2-4.4,8.5-3,3,1.9,2.8,5.2,1.9,7.9-.8,2.3-.6,4.4-.6,6.6Z"/>
    <path class="cls-7" d="M74.2,67.5c-1.8-1.5-.6-3.6-1.1-5.4-.6-1.9.4-4-1-5.8-.2-.5-.2-1.1-.1-1.7.4-.6.7-1.3.1-2-.1-.4,0-.8.1-1.1.7-.8,1.6-1.1,2.7-1,.8.2,1.5.5,2,1.2.2,1-.3,2.2,1,2.8.3.2.5.5.7.8,0,.6-.2,1-.6,1.3-.3.2-.4.4-.2.7.1.2.2.3.3.3,1.2,1.7-.3,3.1-.4,4.6-.1.6-.3,1.1-.5,1.6-.4,1-1,2-1.7,2.8-.4.4-.9.5-1.4.8Z"/>
    <path class="cls-28" d="M72.5,51.7c0,.3,0,.6,0,1,.4.6.5,1.2,0,1.7,0,.6,0,1.2,0,1.8,1.3,2,.9,4.1.1,6.1-.4,0-.7,0-1.1,0-1-2-2.6-3.6-.4-6.3,1.4-1.7,1.2-6-.8-7.1-2.6-1.4-6.1-.7-8.5,1.9-.6-2.3,1.6-2.5,2.7-3.5,1.1-1.1,2.7-1.1,4.1-1.4.4,0,.8,0,1.3,0,1.1.2,2.1.5,2.9,1.3.4.6.6,1.2.6,1.9,0,.9-.3,1.8-.9,2.5Z"/>
    <path class="cls-57" d="M63.6,65c0,1.7-.4,3.2-1.8,4.3-.5.5-1,.6-1.6.3-.3-.3-.5-.6-.5-1,.2-1-.6-1.7-.9-2.6,0-1.8,1.1-2.6,2.9-2.6.9.2,1.6.6,2,1.5Z"/>
    <path class="cls-127" d="M72.6,62.3c0-2,0-4.1-.1-6.1,3.1,1.6,1.5,3.8.7,5.9-.2,0-.4.1-.6.2Z"/>
    <path class="cls-130" d="M81.2,65c.2,1.3-.2,2.4-.9,3.5-.9-.3-1.8-.6-2.7-.9-.3-.3-.4-.6-.4-1,0-1,0-2,1.2-2.3,1.1-.3,2-.1,2.8.7Z"/>
    <path class="cls-31" d="M60.1,69.3c.6,0,1.2,0,1.7,0,0,.3,0,.6.1.9.4.5.4,1.1,0,1.6-.6,0-1.2,0-1.8,0,0-.7-.3-1.4-1-1.8,0-.7.2-1.1,1-.9Z"/>
    <path class="cls-76" d="M77.6,66.7c0,.3,0,.6,0,.9-1.2,1.6-2.3.5-3.4,0,.3-.3.5-.5.8-.8.9-.7,1.8-.8,2.6,0Z"/>
    <path class="cls-28" d="M64.5,62.3c1.5-.4,3-.4,4.5,0-1.2,1.6-2.9.9-4.4.8,0-.1-.2-.3-.3-.4,0-.1.1-.3.2-.4Z"/>
    <path class="cls-108" d="M63.6,65c-.7,0-1.4-.2-1.8-1,.3-2,1.5-1.5,2.7-.9,0,0,0,0,0,0,0,.8-.2,1.5-.9,1.9Z"/>
    <path class="cls-124" d="M61.9,71.9c0-.5,0-1.1,0-1.6.8,0,1.8-.3,2.1.7.2,1-.8.9-1.4,1.1-.2,0-.4,0-.7-.2Z"/>
    <path class="cls-26" d="M75.1,71.9c0-.5,0-1.1,0-1.6,1.4-.2,2.5.1,2.5,1.8-.9,0-1.7-.1-2.6-.2Z"/>
    <path class="cls-10" d="M80.4,70.1c.9,1.8.7,2-2,2,0-1.2.8-1.8,2-2Z"/>
    <path class="cls-37" d="M67.2,72.1c-.1.2-.2.4-.3.6-.5-.1-.9-.3-1.4-.4,0-.7.1-1.4,1-1.5.2,0,.4.8.7,1.3Z"/>
    <path class="cls-6" d="M24,34.2c-3.9,0-3.2-3-3.5-5.4.7-.8,1.7-.6,2.5-.7,1.3,1.4,5,.7,3.6,4.3-.9.6-2,.9-2.6,1.8Z"/>
    <path class="cls-32" d="M37.2,35.1c1.1,0,2.2-.1,3.3-.2.2,0,.3.1.5.2.6.7,1,1.4,1.5,2.1.2.3.3.7.3,1-.1.4-.3.7-.6.9-.8.5-1.7.9-2.7.8-1-.2-1.9-.5-2.4-1.5,0-1.1,0-2.3.1-3.4Z"/>
    <path class="cls-47" d="M37.1,38.6c.9.3,1.8.6,2.7.9.3.3.5.6.6,1,0,.4,0,.8,0,1.2-.1.4-.4.7-.6,1-.8.6-1.6,1.1-2.6,1.2-.3,0-.5,0-.8,0-1.5-1.2.3-3.1-.9-4.4,0-.3,0-.5,0-.8.5,0,1.1-.1,1.6-.2Z"/>
    <path class="cls-2" d="M35.5,35.6c-2.9,0-2.8-2.2-4.2-4.7,3,1.2,2.7,3.7,4.2,4.7Z"/>
    <path class="cls-109" d="M32.9,41.2c-1.3.7.9,2.6-1.1,3.2-1.3-1.1-.5-2.7-.8-4,.3-.8.8-1.3,1.7-.9,0,.6.1,1.1.2,1.7Z"/>
    <path class="cls-75" d="M24,34.2c0-1.8.7-2.7,2.6-1.8,0,.6,0,1.2,0,1.8-.9,0-1.8,0-2.7,0Z"/>
    <path class="cls-132" d="M32.7,39.5c-.6.3-1.2.6-1.7.9-.3,0-.6,0-.8,0-.5-.5-1.4-.7-.9-1.7.6,0,1.3,0,1.9-.1.7,0,1.4.2,1.5,1Z"/>
    <path class="cls-12" d="M71.5,25.5c.5,0,1.1,0,1.6,0,1.1,1.4.3,2.9.4,4.3,0,2.1-.2,4.1.2,6.2.1.4.2.8.2,1.3,0,.7-.2,1.3-.7,1.8-.4.2-.8.4-1.2.5-1.5.3-3,.2-4.5.2-.4,0-.9,0-1.3,0-.6,0-1.3,0-1.9,0-.9,0-1.7-.3-2.4-.9,2-1.9,4.4-.8,6.6-.9,1.9-.1,3.2-.5,3-2.7,0-3.2,0-6.4,0-9.7Z"/>
    <path class="cls-36" d="M61.9,38.7c.9,0,1.7,0,2.6-.1-.1,1.9-.3,3.8.8,5.6,0,.9,0,1.7-.8,2.3-3.3,1.9-4.3-1.4-6.2-2.6-.7-.9-.7-1.7.1-2.6,0,0,0,0,0,0,1.8,0,3.3-.4,3.5-2.6Z"/>
    <path class="cls-13" d="M45.9,29.6c2.1-.9,4.4-2.2,4.3,1.9-.5,1.2-1,2.4-1.6,3.6-1.2.8-1,3-3,3.1-1.1,0-1.7-.3-1.9-1.4.8-2.4.8-4.9,2.1-7.1Z"/>
    <path class="cls-58" d="M46.1,37.8c1.1-.6.5-2.9,2.6-2.7-.3.9-.6,1.8-.9,2.6-.4.7-1,.9-1.7.9-.3-.2-.4-.4-.3-.6.1-.2.2-.3.3-.3Z"/>
    <path class="cls-69" d="M72.4,29.8c-.2-1.6,0-3,.7-4.5,1.6-.3,3.1.4,4.7.2,2.1-.2,3.7.7,3.4,3.4-.9.6-.9,1.2,0,1.8v1.8c-.6.7-1.5,1.1-2,1.9-.4.6-.8,1.2-1.4,1.7-1.1.2-2,.7-3,1.2-.6.1-1.1,0-1.6-.4h0c-.7-2.4,1.6-3.2,2.5-4.7-.4-1.8-2.5-1.1-3.3-2.4Z"/>
    <path class="cls-134" d="M81.2,30.7c-.8-.3-2.2,1.1-2.4-.4-.3-1.7,1.4-1.3,2.4-1.4,0,.6,0,1.2,0,1.8Z"/>
    <path class="cls-5" d="M78.6,34.2c0-1.8,1.3-1.7,2.6-1.7.1.3.2.6.4.9-.3.6-.7,1.2-1,1.7-.3.3-.6.4-1,.3-.5-.2-.9-.6-.9-1.2Z"/>
    <path class="cls-21" d="M45.9,29.6c0,2.6.9,5.3-1.7,7.3-.4.5-1,.6-1.5.3-1-.4-1.1-1.5-1.9-2.1,0,0-.3-.2-.3-.2.2-6.1.4-6.2,5.4-5.4Z"/>
    <path class="cls-89" d="M28.4,44.7c-.3,0-.7,0-1,.1-3.8.6-3.4-2-3.4-4.4.8-1.8,2-2,3.6-1,.4.8,1.1.8,1.8.9v1.8c-.5.8-.5,1.7-.9,2.5Z"/>
    <path class="cls-11" d="M29.3,40.4c-1,.4-1.8.6-1.8-.9.4-.7,1-.9,1.8-.8.3.6.6,1.1.9,1.7-.3,0-.6,0-.8,0Z"/>
    <path class="cls-29" d="M27.5,45.6c.9.1,2.2-.3,2.3,1.1,0,1.1-1.1,1.4-2.1,1.5,0-.9,0-1.7-.1-2.6Z"/>
    <path class="cls-34" d="M27.7,49.2c.9,0,1.8.2,2,1.2.1.8-.7,1.1-1.3,1.5-1-.7-.9-1.7-.7-2.6Z"/>
    <path class="cls-119" d="M24.1,59.8c0-.3,0-.7,0-1,0-.8.1-1.7.2-2.5,3-.4,1.9,2.1,2.5,3.4,0,.3,0,.6,0,.9-1.1.4-1.8-.2-2.5-.8Z"/>
    <path class="cls-106" d="M39.9,42.1c0-.6,0-1.1,0-1.7,1-.4,2-.9,2.6-1.8h0c1.2-.7,1.9.1,2.7.8-.9,1.7-1.9,3.4-2.8,5.2-.6-.6-1.2-1.2-1.9-1.7-.3-.2-.5-.5-.7-.8Z"/>
    <path class="cls-133" d="M58.4,41.3c0,.9,0,1.7-.1,2.6-.9,0-1.7,0-2.6,0,1.1-2-.9-1.7-1.7-2.6h4.4Z"/>
    <path class="cls-47" d="M39.9,42.1h.9c.8.8.8,1.7.9,2.7-.6.6-1.2,1.1-1.7,1.7-1,.5-1.4,0-1.8-.8v-.9c.4-1,1-1.8,1.7-2.6h0Z"/>
    <path class="cls-73" d="M45.2,39.5c-.9-.3-1.8-.6-2.7-.9,0-.3,0-.6,0-1-.2-.2-.2-.4-.1-.5,0-.2.2-.2.2-.2.6,0,1.1,0,1.7,0,.4.7,1.1.8,1.8.9,0,.3,0,.6,0,.9-.3.3-.5.6-.8.9Z"/>
    <path class="cls-14" d="M38.1,45.7c.6.3,1.2.6,1.8.8,0,.3,0,.6,0,.9-.7.2-1.5,1-2.2.3-.7-.7-.3-1.5.4-2Z"/>
    <path class="cls-48" d="M41.7,44.8c-1-.6-1-1.6-.9-2.6,1.7,0,1.7,1.3,1.6,2.5-.2.1-.5.2-.8.2Z"/>
    <path class="cls-67" d="M64.5,63.1c-1,0-2.1-.1-2.7.9-1.7,0-2.5.9-2.6,2.6-.6,1.1.5,1.3.9,1.9,0,.2,0,.5,0,.7-.3.3-.6.6-.9.9-.5,0-1,0-1.5,0-.8-.5-2,.2-2.7-.8,0-.3,0-.6,0-.9.8,0,1.9.3,2.1-.7.2-1.5-1-1.7-2.2-1.8.7-1.4.9-2.9.8-4.4-.1-1.8,1-3,1.8-4.4,0-.3,0-.6,0-.9.7,0,1.3.1,1.7.8.8,1.3,1.1,2.9,2.1,4.1.7,1.2,2.3.4,3.2,1.2h0c0,.3,0,.6,0,.8Z"/>
    <path class="cls-118" d="M64.5,46.5c0-.9,0-1.7,0-2.6,1.6-1.7,3.2-1.5,4.7.1.5.9.4,1.8-.3,2.5-1.3,1.4-2.9.7-4.4.8,0-.3,0-.6,0-.9Z"/>
    <path class="cls-28" d="M64.5,62.3c-1.3-.1-2.7.5-3.6-.9-.6-1-1.8-2-.7-3.4,1.3-1,.6-2.4.7-3.6-.9-1.2-.9-2.4.1-3.5.3,0,.6,0,.8,0,0,2.3.3,4.6,0,6.8-.3,2.4.9,3.6,2.7,4.6Z"/>
    <path class="cls-23" d="M60.9,50.9c0,1.2,0,2.3-.1,3.5-1,.5-2.3.7-2.2-.7.1-1.4,0-3.1,1.5-4.1.3.5.5.9.8,1.4Z"/>
    <path class="cls-72" d="M60.2,58c.2,1.1.5,2.2.7,3.4-2.9-.6-1.2-2.9-1.7-4.4.3.3.7.7,1,1Z"/>
    <path class="cls-40" d="M57.4,50.9c-2.2,1-1.7-.6-1.7-1.7,1.1,0,1.7.6,1.7,1.7Z"/>
    <path class="cls-20" d="M57.4,57c.2,1.8-.2,3.3-1.8,4.4-1.9-1.5.2-2.9,0-4.4.6,0,1.2,0,1.8,0Z"/>
    <path class="cls-128" d="M54.9,69.2c1,0,2,0,2.7.8-.6.3-1.3.7-1.9,1,.2-.8-2-.6-.7-1.8Z"/>
    <path class="cls-79" d="M35.5,39.5c1.5,1.2.6,2.9.9,4.4-1.2,1.1-1.8.5-1.7-.8,0-1.2.5-2.4.8-3.6Z"/>
    <path class="cls-116" d="M39.8,42.2c.1,1.3,0,2.5-1.7,2.6-.3-.3-.6-.6-.9-.9.5-1.1,1.3-1.8,2.6-1.7Z"/>
    <path class="cls-44" d="M33.7,47.4c-.8.1-2.1,1.5-2.4-.2-.3-1.8,1.3-1.4,2.4-1.4.5.6.5,1.1,0,1.7Z"/>
    <path class="cls-98" d="M33.7,47.4c0-.6,0-1.1,0-1.7,1.1,0,2.8-.4,2.4,1.4-.3,1.7-1.6.3-2.4.2Z"/>
    <path class="cls-33" d="M28.4,44.7c-.7-1.2-.6-2.1.8-2.5.8,1.2.6,2.1-.8,2.5Z"/>
    <path class="cls-96" d="M24.1,59.8c.8.3,1.7.5,2.5.8-1.3,1.3-2.2,1.1-2.5-.8Z"/>
    <path class="cls-99" d="M77.6,56.2c.3-.3.6-.6.9-.9.3-.2.5-.3.9-.3.4.3.5.8.9,1.1,1.6,2.2.8,4.6.9,7-1.7,1.4-3.1.5-4.4-.8-.5-1.6,1.7-2.8.8-4.5-.6-.6-.6-1.1,0-1.8Z"/>
    <path class="cls-41" d="M76.9,62.4c1.5.3,2.9.5,4.4.8,0,.6,0,1.2,0,1.8-1.2,0-2.4,0-3.5,0-.4-.2-.7-.4-.8-.9,0-.5,0-1.1,0-1.6Z"/>
    <path class="cls-93" d="M80.3,56.2c-.3-.3-.6-.6-.9-.9-1.7-1.1-1.3-2.3-.2-3.6.4-.2.7-.2,1.1,0,1.7,1.5.2,2.9,0,4.4Z"/>
    <path class="cls-78" d="M80.3,51.8c-.3,0-.6,0-.9,0-.4.3-.8.3-1.2,0-.5-.9-.4-1.7.3-2.4.9,0,1.8,0,2.6,0,.4,1.1-.4,1.8-.9,2.6Z"/>
    <path class="cls-53" d="M81.1,44.8c-1.2,0-2.3,0-3.5,0-.3-.3-.5-.6-.6-1,0-.6,0-1.2.3-1.7.5-.6,1-1.1,1.5-1.7.7-.6,1.2-1.6,2.4-.9,0,1.8,0,3.5-.1,5.3Z"/>
    <path class="cls-120" d="M81.2,39.5c-.9.3-1.5.9-1.8,1.8-.9.5-1.4,0-2-.6-.1-.4-.2-.7-.1-1.1.4-.9,1.1-1.6,1.8-2.2.6-.4,1.3-.9,2.1-.4v2.6Z"/>
    <path class="cls-55" d="M81.2,36.9c-.6.3-1.2.6-1.8.9-1.1,0-1.4-.6-1.3-1.5,0-.7.4-1.3,1.3-1.1.4,0,.7,0,1.1,0,.7.4.8,1.1.7,1.8Z"/>
    <path class="cls-113" d="M77.6,43.9c0,.3,0,.6,0,.9,0,1.5,0,2.9,0,4.4-.5.5-1.1.5-1.7.4-1-.5-1.7-1.2-2.1-2.2-.4-1.5.6-2.3,1.7-3.1.7-.4,1.4-.9,2.3-.4Z"/>
    <path class="cls-84" d="M75.9,49.2c.6,0,1.1,0,1.7,0,.3,0,.6,0,.9,0,0,.8,0,1.7,0,2.5-.2.3-.5.4-.9.5-.4,0-.7-.2-.9-.5-.7,0-1.4-.2-1.7-.9-.3-.3-.5-.6-.4-1.1.3-.6.5-1.1,1.3-.7Z"/>
    <path class="cls-87" d="M81.2,47.4c-.8.2-1.6.9-2.2-.3,0-.2,0-.6.3-.7,1.2-.7,1.4.4,1.9,1.1,0,0,0,0,0,0Z"/>
    <path class="cls-84" d="M76.8,51.8h.9c.8,1.2.7,2.3,0,3.5-3.3-.4-2.5-1.9-.8-3.5Z"/>
    <path class="cls-42" d="M76.8,64c.3.3.6.6.8.9,0,.6,1,1.2,0,1.8-.9,0-1.8,0-2.6,0,.6-.9,1.2-1.8,1.8-2.7Z"/>
    <path class="cls-52" d="M75,50c0,.3,0,.6,0,.9-.9.3-1.7.6-2.6.9,0-.9,0-1.7,0-2.6,1.3-1,2-.3,2.6.8Z"/>
    <path class="cls-123" d="M77.6,55.3c0-1.2,0-2.3,0-3.5.3,0,.6,0,.9,0,.3,0,.6,0,.9,0,0,1.2-.8,2.3,0,3.5-.3,0-.6,0-.9,0-.3,0-.6,0-.9,0Z"/>
    <path class="cls-54" d="M77.6,56.2c0,.6,0,1.2,0,1.8-.8-.2-2.3.4-2.2-1.1,0-.9,1.3-.7,2.1-.7Z"/>
    <path class="cls-65" d="M72.4,54.4c0-.6,0-1.1,0-1.7.9,0,1.8.3,1.6,1.4-.2,1.1-1,.4-1.6.3Z"/>
    <path class="cls-22" d="M72.3,47.4c-.9,0-2,.2-2.6-.9,0-1.3.6-2.3,1.9-2.9.4,0,.8,0,1.1.3.7,1.1.8,2.3.7,3.5-.4.3-.7.2-1.1,0Z"/>
    <path class="cls-62" d="M72.3,47.4h1c.3-.5.6-.4.8,0,.6.6,1.2,1.2,1.8,1.8-.3.3-.6.6-.9.8-.9-.3-1.7-.5-2.6-.8,0-.6,0-1.2-.1-1.8Z"/>
    <path class="cls-115" d="M71.5,43.9c-.6.9-1.2,1.8-1.8,2.6,0,0-.4,0-.4,0,0,0-.4,0-.4,0,0-.9,0-1.8,0-2.7.1-.1.3-.3.4-.4.6-.3,1.2-.3,1.8,0,.1.1.3.3.4.4Z"/>
    <path class="cls-68" d="M60.1,68.6c-1.4-.1-1.4-.9-.9-1.9.6,0,1.3-.7,1.7.2.2.7-.2,1.3-.8,1.7Z"/>
    <path class="cls-4" d="M42.4,38.7c.3,2.2-.6,2.8-2.6,1.8,0-.3,0-.6,0-1,.9-.3,1.7-.6,2.6-.8Z"/>
    <path class="cls-17" d="M42.5,36.9c0,.3,0,.5,0,.8-1.8,0-1.7-1.2-1.6-2.5,1.2,0,1.6.7,1.7,1.7Z"/>
    <path class="cls-115" d="M72.3,43.9c-.3,0-.5,0-.8,0,0,0,0,0,0,0-.9-.7-1.7-.9-2.6,0,0,0,0,0,0,0-1.5-.4-2.9-.4-4.4,0-2.3-1.8-2.3-3.5,0-5.3.6,0,1.2,0,1.8,0,.3.6.6.5.9,0,1.8,0,3.5,0,5.3,0,1.4,1.8,2,3.5-.1,5.2Z"/>
    <path class="cls-129" d="M72.4,29.8c1,0,2,0,3.1,0,.9,0,1.8.1,2,1.2.2,1.1,0,2.2-1,2.6-1.6.6-2.8,1.5-3.3,3.2-1.7-2.2-.5-4.7-.8-7Z"/>
    <path class="cls-27" d="M79.4,35.1c-1.1.9-1.1,1.8,0,2.6-.3.8-.9,1.4-1.7,1.7-.6.3-.6.6,0,.9.6.3,1.1.6,1.7.8-.4.7-1.1.9-1.8.9-.5.4-1,.8-1.7,1-3.8.2-1.9-3-2.8-4.7,0-.5,0-1.1,0-1.6.6,0,1.2,0,1.8,0,1-.1,1.9-.3,2.7-.9,0-.8.2-1.4.9-1.8.3.3.5.6.8.9Z"/>
    <path class="cls-19" d="M73.2,38.5c1,.6,1,1.6.9,2.5-.1,1.5.7,1.5,1.8,1.1.7.8.6,1.7,0,2.5-.5.9-1.9,1.3-1.8,2.7-.3,0-.6,0-.8,0-.3-1.2-.7-2.3-1-3.5.8-1.7,0-3.5.1-5.2.3,0,.5-.1.8-.2Z"/>
    <path class="cls-66" d="M67.1,38.6c.2.6.8,1.3.1,1.9-.2.2-.8.2-1.1,0-.8-.6-.1-1.3,0-1.9.3,0,.6,0,.9,0Z"/>
    <path class="cls-71" d="M77.7,36c-.3,2-1.2,2.3-2.7.9.5-1.4,1.4-1.6,2.7-.9Z"/>
    <path class="cls-80" d="M75.9,44.7c0-.8,0-1.7,0-2.5.6,0,1.1,0,1.7,0,0,.6,0,1.1,0,1.7-.6.3-1.1.6-1.7.8Z"/>
    <path class="cls-114" d="M77.7,40.4c-.6.8-1.4,1.1-2.2.3-.2-.2-.1-.9,0-1.2.6-.9,1.3-1,2.1,0,0,.3,0,.6,0,.9Z"/>
    <path class="cls-25" d="M68.9,43.9c.9-2.7,1.7-1.4,2.6,0-.9,0-1.7,0-2.6,0Z"/>
  </g>
</svg>